<svg xmlns="http://www.w3.org/2000/svg" viewBox="0 0 122.75 141.71"><defs><style>.cls-1{fill:#fff;}.cls-2{fill:#4373ad;}.cls-3{fill:#231815;}.cls-4{fill:#2c8ac8;}</style></defs><g id="レイヤー_2" data-name="レイヤー 2"><g id="レイヤー_2-2" data-name="レイヤー 2"><polygon class="cls-1" points="110.43 42.57 110.44 42.58 110.43 56.91 110.43 42.57"/><polygon class="cls-2" points="110.43 70.43 110.43 70.85 109.72 70.85 109.71 70.85 110.43 70.43"/><polygon class="cls-1" points="86.17 113.11 85.58 113.45 85.58 112.77 86.17 113.11"/><polygon class="cls-3" points="61.38 42.94 37.19 56.91 37.19 70.85 37.19 84.83 61.34 98.77 85.58 84.78 85.58 70.85 85.58 56.91 61.38 42.94"/><polygon class="cls-1" points="110.45 42.58 110.44 42.58 110.43 56.91 110.43 70.43 110.43 70.85 110.43 70.85 110.43 99.13 116.59 95.58 110.43 99.13 110.41 99.14 110.4 113.36 122.75 106.23 122.75 92.02 122.75 92.02 122.75 70.85 122.75 70.85 122.75 49.69 110.45 42.58"/><polygon class="cls-1" points="109.82 42.22 98.01 35.4 98.01 35.39 85.58 28.22 73.79 21.41 73.79 21.42 61.37 28.59 61.38 28.6 61.43 28.63 73.8 35.77 73.81 35.77 85.58 42.57 85.58 56.91 85.58 70.85 85.58 84.78 98.01 77.6 98.01 70.85 98.01 64.09 98.01 49.75 97.98 49.73 98.01 49.74 98.01 49.75 110.42 56.91 110.43 56.91 110.43 42.57 109.82 42.22"/><polygon class="cls-4" points="110.43 56.91 110.42 56.91 98.01 49.75 98.01 64.09 98.01 70.85 98.01 77.6 85.58 84.78 61.34 98.77 73.76 105.95 85.58 99.13 97.99 91.96 98.01 91.95 98.01 91.98 98.01 106.29 86.19 113.12 85.58 113.47 85.58 113.45 73.73 120.29 61.31 127.45 61.3 127.45 49.03 134.53 49.01 134.57 61.39 141.71 73.69 134.61 73.64 134.58 110.4 113.36 110.41 99.14 110.42 84.82 110.43 70.85 109.72 70.85 109.71 70.85 110.43 70.43 110.43 56.91"/><polygon class="cls-4" points="110.45 28.32 110.45 28.33 73.72 7.13 61.41 14.23 61.39 14.23 48.98 21.39 48.98 21.39 36.52 28.59 24.75 35.38 24.76 35.39 24.76 49.73 37.19 42.55 48.95 35.76 48.95 35.76 48.95 35.77 61.38 42.94 85.58 56.91 85.58 42.57 73.81 35.77 73.8 35.77 61.43 28.63 61.38 28.6 61.37 28.59 61.36 28.6 55.16 32.18 61.36 28.6 61.37 28.59 73.79 21.42 73.79 21.41 85.58 28.22 85.58 28.21 98.01 35.39 109.82 42.22 110.43 42.57 110.44 42.58 110.45 42.58 122.75 49.69 122.75 35.42 110.45 28.32"/><polygon class="cls-1" points="61.37 0 49.06 7.1 12.36 28.29 12.35 42.51 12.34 56.87 12.33 70.85 12.33 84.83 12.33 84.84 24.76 92.01 24.76 92 24.76 91.97 24.76 77.65 24.76 70.85 15.35 70.85 13.04 70.85 13.01 70.87 12.98 70.85 13.04 70.85 13.04 70.85 15.35 70.85 24.76 70.85 24.76 64.09 37.19 56.91 61.38 42.94 48.95 35.77 37.19 42.56 37.19 42.55 24.76 49.73 24.76 35.39 24.75 35.38 36.52 28.59 48.98 21.39 61.39 14.23 61.41 14.23 73.72 7.13 61.37 0"/><polygon class="cls-4" points="48.91 105.95 37.19 99.18 24.76 92.01 12.33 84.84 12.33 84.83 12.33 70.85 12.34 56.87 12.35 42.51 12.36 28.29 0 35.42 0 49.63 0 70.85 0 92.01 12.32 99.13 12.32 99.14 24.74 106.31 37.19 113.51 48.94 120.3 48.96 120.27 61.34 113.12 48.91 105.95"/><polygon class="cls-4" points="37.19 70.85 37.19 56.91 24.76 64.09 24.76 70.85 24.76 77.65 24.76 91.97 24.76 92 37.19 99.18 37.19 84.83 37.19 70.85"/><polygon class="cls-1" points="97.99 91.96 85.58 99.13 73.76 105.95 61.34 98.77 37.19 84.83 37.19 99.18 48.91 105.95 61.34 113.12 48.96 120.27 48.94 120.3 54.11 123.29 12.32 99.17 12.32 99.14 12.32 99.13 0 92.01 0 106.29 12.31 113.39 12.31 113.38 49.01 134.57 49.03 134.53 61.3 127.45 61.31 127.45 73.73 120.29 85.58 113.45 85.58 112.77 86.17 113.11 98.01 106.29 98.01 91.98 98.01 91.95 97.99 91.96"/></g></g></svg>