<svg xmlns="http://www.w3.org/2000/svg" viewBox="0 0 905.5 129.63"><defs><style>.cls-1{fill:#fff;}</style></defs><g id="レイヤー_2" data-name="レイヤー 2"><g id="レイヤー_1-2" data-name="レイヤー 1"><path class="cls-1" d="M212.6,10.94V0h5.57V1.3H214v9.64Z"/><path class="cls-1" d="M230.28,3.42a57.15,57.15,0,0,1-6.53.7,3.73,3.73,0,0,0-.6-1.37A44,44,0,0,0,235.39.94a8.35,8.35,0,0,0,1.93-.79l1,1.3-.65.21a43.37,43.37,0,0,1-5.93,1.51v5h6.43A13,13,0,0,0,240.53,8V9.64a14.77,14.77,0,0,0-2.31-.15h-6.47V16.9a13.12,13.12,0,0,0,.15,2.48h-1.76a15.85,15.85,0,0,0,.14-2.54V9.49h-6.11a14.78,14.78,0,0,0-2.24.15V8a12.77,12.77,0,0,0,2.27.15h6.08Z"/><path class="cls-1" d="M260.65,13.12A17.43,17.43,0,0,0,263,13v1.36a20.42,20.42,0,0,0-2.37-.12h-5.71a18,18,0,0,0,3.63,2,22.7,22.7,0,0,0,4.85,1.37,3.58,3.58,0,0,0-.82,1.24,20.86,20.86,0,0,1-8.44-4c.06.84.09,1.3.09,1.68v.86a9.32,9.32,0,0,0,.12,1.93H252.9a12.74,12.74,0,0,0,.13-1.93v-.86c0-.36,0-1,.08-1.68a18,18,0,0,1-4.16,2.6,21.47,21.47,0,0,1-3.84,1.39,3.79,3.79,0,0,0-.86-1.18,19.28,19.28,0,0,0,8.15-3.46h-5.5a19.81,19.81,0,0,0-2.33.12V13a16.37,16.37,0,0,0,2.33.12H253a7.12,7.12,0,0,0-.09-1.32h1.39a9,9,0,0,0-.08,1.2v.12Zm-.06-7.47a12.87,12.87,0,0,0,2.35-.13v1.3a17.6,17.6,0,0,0-2.35-.1h-1.07V7.85a7.73,7.73,0,0,0,.08,1.35c-.59,0-1.28-.07-2.06-.07h-2.85c-.82,0-1.37,0-2.06.07a12,12,0,0,0,.06-1.28V6.72H249v3.55h10.61a12,12,0,0,0,2.37-.13v1.3a15.73,15.73,0,0,0-2.31-.12h-10c-.78,0-1.33,0-2.06.06,0-.5.06-.84.06-1.43V6.72h-1a17.76,17.76,0,0,0-2.31.1V5.52a13,13,0,0,0,2.21.13h1.11V5.4a6.76,6.76,0,0,0-.1-1.39H249A9.25,9.25,0,0,0,249,5.4v.25h3.74V5.46a6.88,6.88,0,0,0-.1-1.39H254a8.77,8.77,0,0,0-.08,1.37v.21h4.39V5.44a8.29,8.29,0,0,0-.09-1.37h1.41a9.8,9.8,0,0,0-.1,1.37v.21ZM251.18,3a9.91,9.91,0,0,0,.06,1.26h-1.4A10.53,10.53,0,0,0,249.92,3V2.88h-3.21a18.2,18.2,0,0,0-2.33.1V1.64a16.87,16.87,0,0,0,2.33.12h3.21V1.41a7,7,0,0,0-.13-1.33h1.52a6.81,6.81,0,0,0-.13,1.33v.35H256V1.41a7.21,7.21,0,0,0-.11-1.33h1.49a9.92,9.92,0,0,0-.1,1.33v.35h3.31a17.36,17.36,0,0,0,2.36-.12V3a18.53,18.53,0,0,0-2.36-.1h-3.31V3a8.61,8.61,0,0,0,.08,1.26H255.9A6.64,6.64,0,0,0,256,3V2.88h-4.79Zm2.73,5.09h4.39V6.72h-4.39Z"/><path class="cls-1" d="M276.8,6.68a16.82,16.82,0,0,0,3.42,6.76,14.93,14.93,0,0,0,5.69,4.09,5.83,5.83,0,0,0-.92,1.41c-4.71-2.5-7.31-5.57-8.82-10.37a13.11,13.11,0,0,1-4.09,7.53A16.47,16.47,0,0,1,267.54,19a4.17,4.17,0,0,0-.9-1.28A13.24,13.24,0,0,0,272.16,14a12.86,12.86,0,0,0,2.92-7.32h-5.71a13.32,13.32,0,0,0-2.31.14V5.19a13.4,13.4,0,0,0,2.35.14h5.79c.07-1,.09-1.66.09-2.47a16.2,16.2,0,0,0-.15-2.29h1.72a12.94,12.94,0,0,0-.14,2.18c0,1.07-.05,1.68-.11,2.58H283a13.59,13.59,0,0,0,2.33-.14V6.82A14.35,14.35,0,0,0,283,6.68Z"/><path class="cls-1" d="M299.44,17.47c0,1.3-.4,1.55-2.35,1.55-.59,0-1.68,0-2.42-.12a6.48,6.48,0,0,0-.44-1.35,21.33,21.33,0,0,0,2.75.23c1,0,1.11-.06,1.11-.5V13.06h-6.3a15,15,0,0,0-2.2.13V11.74a16.44,16.44,0,0,0,2.18.12h6.32v-.35c0-.42,0-.8-.06-1.24h.88a17.6,17.6,0,0,0,3.76-2.38H295A19.58,19.58,0,0,0,293,8V6.63a17.3,17.3,0,0,0,2,.11h7.58a9.54,9.54,0,0,0,1.55-.08l.8.84-.74.6a23.39,23.39,0,0,1-4.78,3.11v.65h6.23a16.21,16.21,0,0,0,2.21-.12v1.45a15,15,0,0,0-2.23-.13h-6.21ZM293.77,3.59a13.92,13.92,0,0,0-2-2.73l1.26-.4a20.34,20.34,0,0,1,2.15,3.11h3.06a12.64,12.64,0,0,0-1.53-3L298,.19a18.25,18.25,0,0,1,1.6,3.38h2.31A12.7,12.7,0,0,0,304.1.19l1.32.57a20.14,20.14,0,0,1-2,2.81H305c1.22,0,1.68,0,2.42-.08a12.18,12.18,0,0,0-.09,1.74V6.78a12.12,12.12,0,0,0,.11,1.47h-1.39V4.72H291.27V8.25h-1.39A9.86,9.86,0,0,0,290,6.78V5.23a12.18,12.18,0,0,0-.09-1.74,19.83,19.83,0,0,0,2.4.1Z"/><path class="cls-1" d="M321.93.25a14.41,14.41,0,0,0,3.46,3.8,22.13,22.13,0,0,0,5.76,3.45,5.19,5.19,0,0,0-.84,1.32A30.1,30.1,0,0,1,324.38,5a18.18,18.18,0,0,1-3.23-3.53A19.71,19.71,0,0,1,316.74,6a24.53,24.53,0,0,1-4.45,2.73,3.58,3.58,0,0,0-.88-1.2,22.06,22.06,0,0,0,5.71-3.65A15.35,15.35,0,0,0,320.35.25ZM314.6,19a15.88,15.88,0,0,0,.13-2.06V12.32a12.41,12.41,0,0,0-.11-1.93,10.09,10.09,0,0,0,1.64.09h9.85a10,10,0,0,0,1.63-.09,13.39,13.39,0,0,0-.1,1.93V17a13.73,13.73,0,0,0,.13,2.06h-1.52V17.8H316.11V19Zm1.51-2.45h10.14V11.76H316.11Zm.15-9.94a9.76,9.76,0,0,0,1.66.09h6.51a11.31,11.31,0,0,0,1.76-.09V8.06A13.56,13.56,0,0,0,324.43,8H317.9a12.71,12.71,0,0,0-1.64.08Z"/><path class="cls-1" d="M335.39,3a17.34,17.34,0,0,0-.08-1.89,14.9,14.9,0,0,0,2,.09h13a14.46,14.46,0,0,0,1.93-.09A14.8,14.8,0,0,0,352.1,3V17.26c0,1.26-.42,1.51-2.56,1.51-.77,0-1.7,0-2.73-.1a6,6,0,0,0-.31-1.37,21,21,0,0,0,3.23.25c.8,0,1-.08,1-.46V2.41H336.78V16.92a13.7,13.7,0,0,0,.14,2.25h-1.66a16.55,16.55,0,0,0,.13-2.25Zm2.81,1.58a9,9,0,0,0,1.7.1h7.82a9,9,0,0,0,1.7-.1V6a9.27,9.27,0,0,0-1.66-.1h-7.88a9.8,9.8,0,0,0-1.68.1Zm9.6,8.84a10.74,10.74,0,0,0,.06,1.21c-.42,0-.82-.06-1.3-.06H341v1.85h-1.37a17.54,17.54,0,0,0,.08-1.93v-5a12.79,12.79,0,0,0-.06-1.28c.44,0,.86.06,1.41.06h5.29c.69,0,1.07,0,1.53-.06a9.59,9.59,0,0,0-.06,1.26Zm-6.82,0h5.52v-4H341Z"/><path class="cls-1" d="M366.74,17.43a9.45,9.45,0,0,0,.15,1.95h-1.64a9.71,9.71,0,0,0,.15-1.95V13.92h-6a15.47,15.47,0,0,0-2.37.13V12.53a13.44,13.44,0,0,0,2.37.15h6v-.23a10.67,10.67,0,0,0-.11-1.68h1.56a8.39,8.39,0,0,0-.11,1.68v.23h6.45a13.54,13.54,0,0,0,2.39-.15v1.52a14.91,14.91,0,0,0-2.39-.13h-6.45ZM365.36,1.89a9.39,9.39,0,0,0-.15-1.76h1.66a8.49,8.49,0,0,0-.15,1.76v.59h6.22a13.45,13.45,0,0,0,2.33-.15V3.82A16.05,16.05,0,0,0,373,3.7H359.58a16.44,16.44,0,0,0-2.31.12V2.33a13.6,13.6,0,0,0,2.33.15h5.76ZM363.24,4.7a19.62,19.62,0,0,1-.89,2,10.55,10.55,0,0,0,3.3,3,6.09,6.09,0,0,0-.88,1.1,13.92,13.92,0,0,1-3-3.07,15.82,15.82,0,0,1-3.3,3.93,4.37,4.37,0,0,0-1.05-1,10.52,10.52,0,0,0,2.65-2.63,10.67,10.67,0,0,0,1.8-3.82Zm7.68.13a15.36,15.36,0,0,1-.73,1.93,10.47,10.47,0,0,0,4.89,3.36,4.82,4.82,0,0,0-.78,1.26,13,13,0,0,1-4.64-3.55,11.65,11.65,0,0,1-2.22,2.86,3.84,3.84,0,0,0-1-.95,7.38,7.38,0,0,0,2.1-2.48,9.42,9.42,0,0,0,1.09-2.85Z"/><path class="cls-1" d="M382.51,8.25a15.31,15.31,0,0,0-2.24.11V7.05a14.27,14.27,0,0,0,2.24.11h3.05a12.59,12.59,0,0,0-1.11-2.37H381.8a23.45,23.45,0,0,0-2.37.1V3.55a17.17,17.17,0,0,0,2.33.12h1.45a11.44,11.44,0,0,0-1.72-2.22l1.19-.57a12.6,12.6,0,0,1,1.87,2.79h1.76V2.06a10.75,10.75,0,0,0-.12-1.77h1.43A10.85,10.85,0,0,0,387.53,2V3.67h2.23V2a11.17,11.17,0,0,0-.09-1.75h1.43A10.34,10.34,0,0,0,391,2.06V3.67h2A13.75,13.75,0,0,0,394.65.78l1.28.54a20.9,20.9,0,0,1-1.57,2.35h1.26A17.1,17.1,0,0,0,398,3.55V4.89a23.45,23.45,0,0,0-2.37-.1h-2.48A24.88,24.88,0,0,1,392,7.16h3a14.72,14.72,0,0,0,2.26-.11V8.36A15.36,15.36,0,0,0,395,8.25h-5.72V9.78h4.41a16.63,16.63,0,0,0,2.27-.1V11a16.87,16.87,0,0,0-2.27-.11h-4.41v1.62h6.37a16.58,16.58,0,0,0,2.39-.12v1.36a20.88,20.88,0,0,0-2.37-.13h-5.5a16.47,16.47,0,0,0,8.33,3.64,4.7,4.7,0,0,0-.82,1.3,22.38,22.38,0,0,1-5.14-2A13.46,13.46,0,0,1,389.17,14c.06.95.08,1.33.08,1.79v1.4a16.51,16.51,0,0,0,.13,2.19h-1.51a14.55,14.55,0,0,0,.12-2.21V15.77c0-.48,0-.95.09-1.77-2.06,2.15-4.05,3.28-7.9,4.52a4.24,4.24,0,0,0-.86-1.22,15.92,15.92,0,0,0,7.79-3.72H382a20.35,20.35,0,0,0-2.37.13V12.35a16.64,16.64,0,0,0,2.37.12h6V10.85h-4.15a16.54,16.54,0,0,0-2.25.11V9.68a16.84,16.84,0,0,0,2.25.1H388V8.25Zm8.11-1.09a11.29,11.29,0,0,0,1.07-2.37h-5.84a16.36,16.36,0,0,1,1,2.37Z"/><path class="cls-1" d="M403.85,2.29a9.48,9.48,0,0,0-1.81.12V1a11.86,11.86,0,0,0,1.89.12h3.43A8.52,8.52,0,0,0,409.12,1V2.37a14.47,14.47,0,0,0-1.7-.08h-1.3a20.72,20.72,0,0,1-1.45,5.33h2.62a10.16,10.16,0,0,0,1.31-.06,13.29,13.29,0,0,0-.07,1.68v6.49a12.49,12.49,0,0,0,.09,1.76h-1.33v-1h-2.6v2.23H403.3a12.09,12.09,0,0,0,.13-2V12c0-.76,0-1.41.06-2.35a9.94,9.94,0,0,1-1.57,2.56,3.36,3.36,0,0,0-.76-1.26,14.39,14.39,0,0,0,2.9-5.34,14,14,0,0,0,.71-3.29Zm.84,13h2.6V8.73h-2.6Zm7.29-13a14.33,14.33,0,0,0-2,.12V1a13.41,13.41,0,0,0,2.12.12h6.63a14.57,14.57,0,0,0,2.1-.12V2.41a11.48,11.48,0,0,0-2-.12h-.51V8.1h.68A11.74,11.74,0,0,0,421,8V9.47a14.14,14.14,0,0,0-2.1-.13h-.68v7.54a16.78,16.78,0,0,0,.15,2.25h-1.62a15.1,15.1,0,0,0,.15-2.25V9.34h-3.46c-.21,4.69-1.12,7.23-3.51,10a3.76,3.76,0,0,0-1.22-.95c2.21-2.1,3.19-4.72,3.38-9h-.58a11.17,11.17,0,0,0-2.08.13V8a14.22,14.22,0,0,0,2.08.1h.63V2.29Zm1.53,5.1V8.1h3.42V2.29h-3.42Z"/><path class="cls-1" d="M435.71,10.67a17.52,17.52,0,0,0,2.35-.11c0,.46-.07.9-.09,1.85l-.08,4.26c0,.63.23.71,1.87.71,1.47,0,1.89-.1,2-.48a12.08,12.08,0,0,0,.34-3.15,5.11,5.11,0,0,0,1.37.55c-.34,4.2-.47,4.32-3.85,4.32-2.56,0-3.1-.27-3.1-1.68v-.1l.08-4.94h-3.91a8,8,0,0,1-1.63,3.47,9.33,9.33,0,0,1-2.25,2,14,14,0,0,1-3.49,1.73,3.1,3.1,0,0,0-.92-1.2,13.16,13.16,0,0,0,4-1.89,6.82,6.82,0,0,0,2.92-4.12h-3.32a15.23,15.23,0,0,0-2.26.13V10.54a14.43,14.43,0,0,0,2.22.13h3.61a13.9,13.9,0,0,0,.15-1.77,7.33,7.33,0,0,0-.08-1.13l1.59,0a7.22,7.22,0,0,0-.17,1.32c0,.51-.08,1-.16,1.56Zm-2.8-8.89a6.81,6.81,0,0,0-.14-1.51h1.63a6.4,6.4,0,0,0-.14,1.51v.66h6.23a18.46,18.46,0,0,0,2.12-.11,9.91,9.91,0,0,0-.08,1.45V4.85a10.21,10.21,0,0,0,.08,1.47h-1.38V3.63H436V6.68c0,.25,0,.35.15.42a4.24,4.24,0,0,0,1.34.14,3.84,3.84,0,0,0,1.7-.23c.23-.17.34-.73.36-1.7a4.27,4.27,0,0,0,1.26.4c-.11,1.32-.27,1.91-.63,2.23a4.82,4.82,0,0,1-2.71.46c-2.2,0-2.73-.23-2.73-1.16V3.63h-2.58A5.71,5.71,0,0,1,431.42,6a5.91,5.91,0,0,1-3.31,2.67c-.49.19-.91.31-2,.61a5.64,5.64,0,0,0-.8-1.16c2.25-.42,3.3-.84,4.2-1.68a3.92,3.92,0,0,0,1.28-2.77h-4.47V6.3H425a10.57,10.57,0,0,0,.08-1.47V3.78A9.91,9.91,0,0,0,425,2.33a18.46,18.46,0,0,0,2.12.11h5.81Z"/><path class="cls-1" d="M458,9.68A1.73,1.73,0,1,1,456.29,8,1.73,1.73,0,0,1,458,9.68Z"/><path class="cls-1" d="M471.79,4.39a13.14,13.14,0,0,1-1.1,2,4.82,4.82,0,0,0-1.17-.61,11.33,11.33,0,0,0,1.91-4,5.14,5.14,0,0,0,.23-1.17L473,.9A7,7,0,0,0,472.67,2c-.15.49-.23.76-.4,1.22h2.22V2.39a11.65,11.65,0,0,0-.12-2.14h1.53a10.94,10.94,0,0,0-.13,2.12v.84h2.15a12.51,12.51,0,0,0,2.05-.1V4.49a13.2,13.2,0,0,0-2.05-.1h-2.15V6.87h2.94a13.52,13.52,0,0,0,2-.11V8.15a10.83,10.83,0,0,0-2-.11h-2.92v2.29H478a14.48,14.48,0,0,0,1.95-.1,17,17,0,0,0-.08,1.93v4.15c0,1-.42,1.26-2.1,1.26-.29,0-.4,0-1.16,0a4.37,4.37,0,0,0-.21-1.26,7.27,7.27,0,0,0,1.47.11c.63,0,.76-.07.76-.36V11.51h-2.86v5.35a17.29,17.29,0,0,0,.11,2.37h-1.51a19.59,19.59,0,0,0,.12-2.37V11.51h-2.87v4a20.84,20.84,0,0,0,.08,2.19h-1.45a11.73,11.73,0,0,0,.11-2.16V12.18a15.57,15.57,0,0,0-.09-1.95,15.74,15.74,0,0,0,2,.1h2.22V8h-3a11.91,11.91,0,0,0-2,.13V6.74a10.36,10.36,0,0,0,1.93.13h3V4.39Zm11.44-2.9a11.7,11.7,0,0,0-.13,2.29V12a13.23,13.23,0,0,0,.11,2.35h-1.53a15.25,15.25,0,0,0,.1-2.35V3.8a12.25,12.25,0,0,0-.13-2.31ZM487.55.31a15.82,15.82,0,0,0-.14,2.55V17.05c0,1.53-.44,1.89-2.35,1.89-.55,0-1.22,0-2.23-.11a3.81,3.81,0,0,0-.4-1.34,19.38,19.38,0,0,0,2.65.21c.86,0,1-.11,1-.63V2.88a16.36,16.36,0,0,0-.14-2.57Z"/><path class="cls-1" d="M498.29.52c-.26.57-.32.76-.49,1.18a27.06,27.06,0,0,1-1.55,3.49V16.67a16.89,16.89,0,0,0,.15,2.52h-1.64a19.72,19.72,0,0,0,.15-2.56v-7c0-.9,0-1.47.08-2.71a15.71,15.71,0,0,1-2.6,3.32,4.36,4.36,0,0,0-.88-1.12,18.39,18.39,0,0,0,4.43-6.29A11.55,11.55,0,0,0,496.82,0Zm3.21,4.14a23.29,23.29,0,0,1-3.34,5.12,3.06,3.06,0,0,0-1.05-1A18.35,18.35,0,0,0,500.83,3a11.5,11.5,0,0,0,.88-3l1.47.48a10.3,10.3,0,0,0-.42,1.08c-.29.86-.4,1.13-.71,1.86h6.65a10.63,10.63,0,0,0,1.91-.12V4.77a10.85,10.85,0,0,0-1.91-.11h-4.93v3.4H508a12.38,12.38,0,0,0,1.85-.12V9.39A12.21,12.21,0,0,0,508,9.26h-4.26v3.4h4.32a11.24,11.24,0,0,0,1.85-.13V14a12.57,12.57,0,0,0-1.85-.12h-4.32v3.21a11.92,11.92,0,0,0,.14,2.2H502.3a13.72,13.72,0,0,0,.12-2.2V4.66Z"/><path class="cls-1" d="M517.25,12.45A15.51,15.51,0,0,1,515,19.32a4.09,4.09,0,0,0-1.11-1.05,10.66,10.66,0,0,0,1.83-4.41,55,55,0,0,0,.69-9.95,25,25,0,0,0-.11-3,25,25,0,0,0,2.55.09h10.93A17.24,17.24,0,0,0,532,.94c0,.51-.06,1-.06,1.62V4A15.07,15.07,0,0,0,532,5.56c-.88,0-1.43-.06-2.1-.06H517.65c0,2.81-.08,3.78-.27,5.82h4.15V8.84h-1.3a17.23,17.23,0,0,0-1.89.08V7.62a10.25,10.25,0,0,0,1.91.11h1.28V7.45A14.51,14.51,0,0,0,521.45,6h1.45a6.69,6.69,0,0,0-.11,1.49v.28h4V7.45a9.67,9.67,0,0,0-.1-1.49h1.49a7.24,7.24,0,0,0-.1,1.49v.28h1.8a10.52,10.52,0,0,0,2-.11v1.3a17.32,17.32,0,0,0-2-.08h-1.78v2.48h2.45a15.69,15.69,0,0,0,2.27-.13v1.39a16.55,16.55,0,0,0-2.25-.13h-5.64A6.87,6.87,0,0,0,527,15.1a13,13,0,0,0,2.92-2.5l1.18.77A27,27,0,0,1,528,15.79,13.79,13.79,0,0,0,533.4,18a3.8,3.8,0,0,0-.84,1.28A16,16,0,0,1,526.17,16a8.85,8.85,0,0,1-2.58-3.53h-2.12V17.2c1.76-.34,2.48-.51,4.37-1v1.22c-2.25.6-3.13.79-7.43,1.63l-.74.17-.34-1.45h.19a18.16,18.16,0,0,0,2.65-.33v-5Zm13.4-8.06V2.18h-13V4.39Zm-3.83,4.45h-4v2.48h4Z"/><path class="cls-1" d="M544.64,17.53a14.06,14.06,0,0,0-2.31.11,9.76,9.76,0,0,1,.6-2.77,9.31,9.31,0,0,1,2.73-3.62,29.24,29.24,0,0,1,3.22-2.31c2.07-1.4,2.77-2.33,2.77-3.61,0-1.59-1.35-2.62-3.49-2.62a3.47,3.47,0,0,0-3,1.36,4.27,4.27,0,0,0-.74,2.12l-1.76-.29a5.66,5.66,0,0,1,1.32-3,5.37,5.37,0,0,1,4.22-1.62c3.17,0,5.21,1.6,5.21,4.07a4.37,4.37,0,0,1-1.24,3C551.5,9,551,9.43,548.56,11a11.32,11.32,0,0,0-3,2.59,5.84,5.84,0,0,0-1.2,2.43H551a17.55,17.55,0,0,0,2.56-.15v1.77a22.08,22.08,0,0,0-2.58-.13Z"/><path class="cls-1" d="M559.44,16.36a5.16,5.16,0,0,1-1.26-1.94,14.35,14.35,0,0,1-.8-4.85,12.23,12.23,0,0,1,1.22-5.71,5.63,5.63,0,0,1,8.55-1.09A5.38,5.38,0,0,1,568.4,4.7a14.34,14.34,0,0,1,.8,4.87,10.9,10.9,0,0,1-1.47,6.07,5.14,5.14,0,0,1-4.45,2.21A5.27,5.27,0,0,1,559.44,16.36ZM560.66,3.8a4.35,4.35,0,0,0-.95,1.53,13,13,0,0,0-.65,4.24,11.55,11.55,0,0,0,1,5,3.57,3.57,0,0,0,3.25,1.83,3.52,3.52,0,0,0,2.59-1,4.13,4.13,0,0,0,1-1.64,13,13,0,0,0,.65-4.24,12,12,0,0,0-.94-4.89,3.55,3.55,0,0,0-3.3-1.91A3.42,3.42,0,0,0,560.66,3.8Z"/><path class="cls-1" d="M575.25,17.53a14.13,14.13,0,0,0-2.31.11,9.68,9.68,0,0,1,.61-2.77,9.31,9.31,0,0,1,2.73-3.62,29.71,29.71,0,0,1,3.21-2.31c2.08-1.4,2.78-2.33,2.78-3.61,0-1.59-1.35-2.62-3.49-2.62a3.46,3.46,0,0,0-3,1.36A4.27,4.27,0,0,0,575,6.19l-1.76-.29a5.66,5.66,0,0,1,1.32-3,5.36,5.36,0,0,1,4.22-1.62c3.17,0,5.21,1.6,5.21,4.07a4.37,4.37,0,0,1-1.24,3c-.63.72-1.18,1.12-3.57,2.71a11.32,11.32,0,0,0-3,2.59A5.72,5.72,0,0,0,575,16h6.7a17.55,17.55,0,0,0,2.56-.15v1.77a22.08,22.08,0,0,0-2.58-.13Z"/><path class="cls-1" d="M590.56,17.53a14.13,14.13,0,0,0-2.31.11,9.68,9.68,0,0,1,.61-2.77,9.31,9.31,0,0,1,2.73-3.62,28.57,28.57,0,0,1,3.21-2.31c2.08-1.4,2.77-2.33,2.77-3.61,0-1.59-1.34-2.62-3.48-2.62A3.48,3.48,0,0,0,591,4.07a4.38,4.38,0,0,0-.73,2.12l-1.76-.29a5.66,5.66,0,0,1,1.32-3,5.36,5.36,0,0,1,4.22-1.62c3.17,0,5.21,1.6,5.21,4.07a4.37,4.37,0,0,1-1.24,3c-.63.72-1.18,1.12-3.57,2.71a11.56,11.56,0,0,0-3,2.59A5.82,5.82,0,0,0,590.27,16H597a17.55,17.55,0,0,0,2.56-.15v1.77a22.26,22.26,0,0,0-2.59-.13Z"/><path class="cls-1" d="M608.87,8.42V19.36h-5.56v-1.3h4.13V8.42Z"/><path class="cls-1" d="M628.8.86a36.52,36.52,0,0,0,1.58,7c1.23-.5,1.82-.73,5.08-1.87a11.27,11.27,0,0,0,1.34-.54L637.43,7a48.58,48.58,0,0,0-6.32,2c-3.59,1.43-5.14,2.81-5.14,4.55,0,1.92,1.61,2.65,5.73,2.65a20.84,20.84,0,0,0,6-.71l.17,1.74a11.32,11.32,0,0,0-1.55.12,42.34,42.34,0,0,1-4.64.28,14.17,14.17,0,0,1-4.66-.57,3.49,3.49,0,0,1-2.61-3.44,4.54,4.54,0,0,1,1.87-3.57A13.17,13.17,0,0,1,629,8.38,43,43,0,0,1,627.5,2.5a6.56,6.56,0,0,0-.36-1.32Z"/><path class="cls-1" d="M649.84,1.28a33.16,33.16,0,0,0-.27,4.43c-.08,2.52-.15,5.38-.15,6.32,0,.25,0,.78.05,1.26a3.29,3.29,0,0,0,1,2.52,4,4,0,0,0,2.63.82A6,6,0,0,0,658.7,13a12.13,12.13,0,0,0,1-3.3,6.23,6.23,0,0,0,1.51,1,12.57,12.57,0,0,1-2.33,4.76A7.33,7.33,0,0,1,653,18.08a5,5,0,0,1-3.94-1.47c-.86-1-1.16-2.1-1.16-4.31,0-1.4,0-1.93.19-8.54,0-.63,0-1,0-1.37A6.75,6.75,0,0,0,648,1.28Z"/><path class="cls-1" d="M667.72,3.8h.75c.3,0,.55,0,1.2-.06,2.5-.19,9.22-.57,11.92-.7a13.37,13.37,0,0,0,2.5-.23l.13,1.58a9.63,9.63,0,0,0-2.35.27,10.58,10.58,0,0,0-4,2.12,6.44,6.44,0,0,0-2.59,4.85,4.12,4.12,0,0,0,2.94,3.89,11,11,0,0,0,3.15.67h.21l-.27,1.7-.65-.13a10.65,10.65,0,0,1-4.54-1.61,5.13,5.13,0,0,1-2.33-4.29c0-2.43,1.43-4.76,3.93-6.44a14.38,14.38,0,0,1,2-1.12,40.77,40.77,0,0,1-4.62.47,61.36,61.36,0,0,0-7.24.69Z"/><path class="cls-1" d="M690.23,13.48a21.64,21.64,0,0,1,4.22,4.45L693.27,19a20.94,20.94,0,0,0-4.13-4.57Z"/><path class="cls-1" d="M142.3,46.6a9.38,9.38,0,0,0,1.3,3.17,16.06,16.06,0,0,0,1.19-4.71H143c-.59,0-1.32,0-1.91.07a37,37,0,0,0,3.4-5.92H142a7.69,7.69,0,0,0-1.43.1V38a7.66,7.66,0,0,0,1.45.1h2a9.54,9.54,0,0,0,1.55-.08l.61.8a7.17,7.17,0,0,0-.46.86,33.36,33.36,0,0,1-2.48,4.3h1.36a9.87,9.87,0,0,0,1.66-.08c-.06.31-.06.31-.17,1a20.54,20.54,0,0,1-1.65,6c1.78,2.27,4,3.09,8.44,3.09,2.07,0,4.61-.13,6.55-.29a4.15,4.15,0,0,0-.44,1.44c-1.56,0-4.2.09-5.82.09-5,0-7.12-.74-9.32-3.23a15.55,15.55,0,0,1-2.92,3.69,3.38,3.38,0,0,0-1-1A13,13,0,0,0,143,51a14.1,14.1,0,0,1-1.43-2.72c-.25-.59-.25-.59-.52-1.16Zm9.21-7.14h-2.68a11.64,11.64,0,0,0-1.52.08V38.3a7.51,7.51,0,0,0,1.56.11h2.64a14.87,14.87,0,0,0-.1-1.6h1.43a7.42,7.42,0,0,0-.11,1.6h3.32a14.66,14.66,0,0,0,1.53-.06,3.22,3.22,0,0,1,0,.35c0,.21,0,.65,0,1v1.49h.1a8.27,8.27,0,0,0,1.58-.13v1.26a11.26,11.26,0,0,0-1.58-.08h-.1v1.72c0,.44,0,1,0,1.2-.67,0-.94,0-1.49,0h-3.36v1.8h3.36a13.53,13.53,0,0,0,1.87-.1V48a16.54,16.54,0,0,0-1.89-.08h-3.34v1.85H157a11.29,11.29,0,0,0,2-.13v1.28a16.88,16.88,0,0,0-2-.08h-4.3v.52a11.34,11.34,0,0,0,.11,2h-1.43a16.74,16.74,0,0,0,.1-1.94v-.54h-3.36a12.6,12.6,0,0,0-1.87.1v-1.3a10.71,10.71,0,0,0,1.89.13h3.34V47.94H148.7a12.22,12.22,0,0,0-1.72.11V46.79a11,11,0,0,0,1.72.1h2.81v-1.8h-2.75a11.24,11.24,0,0,0-1.47.08V43.93a7.71,7.71,0,0,0,1.54.11h2.68V42.21H148a12.56,12.56,0,0,0-1.94.1V41a10.83,10.83,0,0,0,2,.13h3.48Zm4.81,1.7v-1.7h-3.59v1.7ZM152.73,44h3.59V42.21h-3.59Z"/><path class="cls-1" d="M179.15,49.58a15.47,15.47,0,0,0,2.37-.13v1.37a18.26,18.26,0,0,0-2.37-.13H173.6a18.52,18.52,0,0,0,8.26,3.63,4.57,4.57,0,0,0-.82,1.33A24.92,24.92,0,0,1,176.59,54a14.28,14.28,0,0,1-4-2.82c.06.7.08,1.24.08,1.62V54a10,10,0,0,0,.13,2.12h-1.52A12.52,12.52,0,0,0,171.4,54V52.77c0-.42,0-.86.08-1.62a16.3,16.3,0,0,1-3.61,2.52,24.78,24.78,0,0,1-4.62,1.87,3.8,3.8,0,0,0-.84-1.24,20.35,20.35,0,0,0,8.09-3.61h-5.1a18,18,0,0,0-2.34.13V49.45a14.6,14.6,0,0,0,2.34.13h6a9.16,9.16,0,0,0-.08-1.45,8.69,8.69,0,0,1-.95.63,3,3,0,0,0-.94-.92c2.1-1,2.66-1.94,2.66-4.37a7.67,7.67,0,0,0-.08-1.24,12.23,12.23,0,0,0,1.72.08h3.11a14.31,14.31,0,0,0,1.78-.08,19.16,19.16,0,0,0-.08,2v2.37c0,.38.06.4.8.4s1,0,1-.27a13.27,13.27,0,0,0,.16-2.38,4.19,4.19,0,0,0,1.14.57,6.68,6.68,0,0,1-.4,2.54c-.25.5-.71.65-2.08.65-1.55,0-1.89-.23-1.89-1.22V43.39h-4c-.06,2.58-.46,3.54-1.91,4.72h1.38a9.28,9.28,0,0,0-.08,1.47Zm-13.23-9.77a14.29,14.29,0,0,1-2.12,2.46,4,4,0,0,0-1.05-.84,10.25,10.25,0,0,0,3.44-4.7l1.35.4c-.34.63-.49.92-.88,1.57H170a13,13,0,0,0,2.08-.12V39.9a16.63,16.63,0,0,0-1.93-.09h-1.37a20.59,20.59,0,0,1,1.1,1.85l-1.16.42a17.06,17.06,0,0,0-1.19-2.27Zm-.55,3.83a10.31,10.31,0,0,0-1.72.1V42.46a8.65,8.65,0,0,0,1.72.11H169a8.46,8.46,0,0,0,1.74-.11v1.28a9.8,9.8,0,0,0-1.68-.1h-1.22v2.5c1-.28,1.49-.42,2.9-.89l.1,1a57.87,57.87,0,0,1-6.17,1.79c-.65.16-.78.19-1.26.33l-.4-1.32a20.58,20.58,0,0,0,3.59-.65V43.64Zm8.47-3.83a12.15,12.15,0,0,1-1.56,2,3.14,3.14,0,0,0-1-.73,9.51,9.51,0,0,0,2.67-4.43l1.28.4a17.75,17.75,0,0,1-.75,1.61h4.85a13.83,13.83,0,0,0,2.24-.12v1.34a17.82,17.82,0,0,0-2.2-.11H177a18.18,18.18,0,0,1,1.05,1.6L177,42a14.6,14.6,0,0,0-1.23-2.19Zm.63,4.23a20.92,20.92,0,0,1,2,2.6l-.92.73a13.5,13.5,0,0,0-2-2.7Z"/><path class="cls-1" d="M195.51,54.22c0,1.3-.4,1.55-2.35,1.55-.59,0-1.68,0-2.42-.12a6.48,6.48,0,0,0-.44-1.35,21.33,21.33,0,0,0,2.75.23c1,0,1.11-.06,1.11-.5V49.81h-6.29a15.07,15.07,0,0,0-2.21.13V48.49a16.44,16.44,0,0,0,2.18.12h6.32v-.35c0-.42,0-.8-.06-1.24H195a18,18,0,0,0,3.76-2.37h-7.68a19.78,19.78,0,0,0-2,.1V43.39a20,20,0,0,0,2,.1h7.58a9.38,9.38,0,0,0,1.55-.08l.8.84-.74.6A23.39,23.39,0,0,1,195.51,48v.65h6.23a16.21,16.21,0,0,0,2.21-.12v1.45a15,15,0,0,0-2.23-.13h-6.21Zm-5.67-13.88a14.26,14.26,0,0,0-2-2.73l1.25-.4a20.34,20.34,0,0,1,2.15,3.11h3.06a12.64,12.64,0,0,0-1.53-3l1.3-.36a18.25,18.25,0,0,1,1.6,3.38H198a12.7,12.7,0,0,0,2.16-3.38l1.32.57a20.14,20.14,0,0,1-2,2.81h1.63a21.8,21.8,0,0,0,2.42-.09,14.15,14.15,0,0,0-.09,1.75v1.55a12.12,12.12,0,0,0,.11,1.47h-1.39V41.47H187.34V45H186a9.86,9.86,0,0,0,.11-1.47V42a14.4,14.4,0,0,0-.08-1.75,17.46,17.46,0,0,0,2.39.11Z"/><path class="cls-1" d="M212.48,52.9a17.87,17.87,0,0,0-2.25.08V51.32a10,10,0,0,0,2.29.15h10V41.33H213a18.35,18.35,0,0,0-2.41.1V39.75a11.11,11.11,0,0,0,2.41.15H223l1.09,0c0,.52,0,.88,0,1.63V52.24a14.91,14.91,0,0,0,.1,1.92h-1.68V52.9Z"/><path class="cls-1" d="M231.13,45.48a14.12,14.12,0,0,0,2.6.13h12.2a17.39,17.39,0,0,0,2.54-.1v1.7a21.86,21.86,0,0,0-2.56-.09H233.73a20.85,20.85,0,0,0-2.6.09Z"/><path class="cls-1" d="M269.53,54.6a39.1,39.1,0,0,0-6.72-6.49,23.14,23.14,0,0,1-4,3.76,27.48,27.48,0,0,1-4.11,2.52,4.92,4.92,0,0,0-1-1.39,17.05,17.05,0,0,0,4.26-2.41,22.87,22.87,0,0,0,7.5-9.47,2.16,2.16,0,0,1,.1-.25.58.58,0,0,0,.06-.15,3.63,3.63,0,0,1-.5,0l-7,.1a15.88,15.88,0,0,0-2.16.17l0-1.7a9.3,9.3,0,0,0,1.66.11h.55l7.49-.09a3.81,3.81,0,0,0,1.35-.17l.88.91a3.78,3.78,0,0,0-.59,1A25.4,25.4,0,0,1,263.74,47a51.94,51.94,0,0,1,7,6.29Z"/><path class="cls-1" d="M286.54,46.43a1.72,1.72,0,1,1-1.72-1.72A1.73,1.73,0,0,1,286.54,46.43Z"/><path class="cls-1" d="M300.22,44.31a12,12,0,0,0-2.15.12V43.05a12,12,0,0,0,2.15.12h2.16V40.51h-1.56a12.69,12.69,0,0,0-1.91.1V39.25a9.39,9.39,0,0,0,1.91.12h1.56v-.69a10.45,10.45,0,0,0-.13-1.85h1.51a11.23,11.23,0,0,0-.1,1.85v.69h.65a7.78,7.78,0,0,0,1.72-.12v1.34a14.3,14.3,0,0,0-1.64-.08h-.73v2.66h.65a19.74,19.74,0,0,0,2.88-4.05,7,7,0,0,0,.58-1.38l1.31.75a4.3,4.3,0,0,0-.51.74,22,22,0,0,1-2.71,3.94h.68a15.32,15.32,0,0,0,2.2-.1v1.32a19.11,19.11,0,0,0-2-.08h-1.89a28,28,0,0,1-2.39,2.22h3.11a14.12,14.12,0,0,0,1.91-.08,19.18,19.18,0,0,0-.06,2.2v4.88a18.14,18.14,0,0,0,.08,2.07h-1.32v-.94h-4.73v1.28h-1.36a18.88,18.88,0,0,0,.12-2.29V48.32c-.9.67-1.13.86-2.1,1.49a3.29,3.29,0,0,0-.73-1.13,25.22,25.22,0,0,0,5.86-4.37Zm1.21,5.6h4.73V47.63h-4.73Zm0,3.64h4.73V51h-4.73Zm15.23-15.18a19.71,19.71,0,0,0-.84,1.86c-.59,1.33-1.2,2.48-2.13,4.14a9.28,9.28,0,0,1,2.13,2.82,7.36,7.36,0,0,1,.81,3.25,2.59,2.59,0,0,1-1.15,2.48,4.41,4.41,0,0,1-2.1.35c-.34,0-.84,0-1.43-.06a4.38,4.38,0,0,0-.29-1.43,11.13,11.13,0,0,0,2,.17c1.16,0,1.56-.42,1.56-1.7a6.77,6.77,0,0,0-1-3.38,9,9,0,0,0-2.06-2.31,30.93,30.93,0,0,0,2.8-5.84H310.8V53.17a22.91,22.91,0,0,0,.14,2.85h-1.59a21.2,21.2,0,0,0,.12-2.87V39.42c0-.7,0-1.2-.08-1.91.55,0,.92.06,1.72.06h3.3a9,9,0,0,0,1.62-.09Z"/><path class="cls-1" d="M328.9,38.72a9.69,9.69,0,0,0-.15-1.78h1.68a9.24,9.24,0,0,0-.14,1.78V40h6.59a15.29,15.29,0,0,0,2.39-.14v1.51a15.33,15.33,0,0,0-2.37-.13h-14a17.39,17.39,0,0,0-2.33.13V39.86a16,16,0,0,0,2.36.14h6Zm0,4.73a10.5,10.5,0,0,0-.1-1.66h1.57a11.14,11.14,0,0,0-.1,1.68v.67h5a19.43,19.43,0,0,0,2-.08,12.11,12.11,0,0,0-.09,1.7v6c0,1.37-.42,1.73-2.14,1.73-.86,0-1.22,0-2.18-.09a4.81,4.81,0,0,0-.36-1.4,17.37,17.37,0,0,0,2.46.2c.67,0,.84-.12.84-.58V45.34h-5.5v8.35a16,16,0,0,0,.14,2.29h-1.66a15.83,15.83,0,0,0,.15-2.29V45.34h-5v6.32a16.77,16.77,0,0,0,.13,2.26h-1.66a16.11,16.11,0,0,0,.13-2.26V45.78a13.06,13.06,0,0,0-.09-1.72,19.35,19.35,0,0,0,2,.08h4.45Z"/><path class="cls-1" d="M344.5,39.23a9.8,9.8,0,0,0-1.68.1V38a8.46,8.46,0,0,0,1.77.12h2.08a8.52,8.52,0,0,0,1.76-.12v1.38a9.36,9.36,0,0,0-1.6-.1h-.33v5h.29a7,7,0,0,0,1.37-.1V45.4a9.63,9.63,0,0,0-1.37-.08h-.29v5A25,25,0,0,0,349,49.22v1.3c-2,.91-2.75,1.22-4.87,2-.45.17-.82.33-1.12.46l-.42-1.49a11.11,11.11,0,0,0,2.65-.71V45.32h-.65a7.69,7.69,0,0,0-1.43.1V44.08a7.43,7.43,0,0,0,1.43.1h.65v-5Zm16.82,11.1-.27.19-.4.32a22.21,22.21,0,0,1-2.16,1.59,14.12,14.12,0,0,0,3.92,1.79,5.62,5.62,0,0,0-.73,1.22,15.44,15.44,0,0,1-4.12-2.36,9.27,9.27,0,0,1-2.33-2.58c0,.48.09,1.32.09,2.06v1.6a12.26,12.26,0,0,0,.12,2H354a11.42,11.42,0,0,0,.13-2V52.6c0-.59,0-1.45.08-2a12.49,12.49,0,0,1-2.89,2.62,22.11,22.11,0,0,1-3.36,1.89A4.35,4.35,0,0,0,347,54a16.87,16.87,0,0,0,4.83-2.52,17.12,17.12,0,0,0,2.08-2h-2.6c-.67,0-1.3,0-1.64.06a11.84,11.84,0,0,0,.06-1.3V46.89a12.36,12.36,0,0,0-.06-1.3c.5,0,1,.06,1.68.06h7.37c.8,0,1.24,0,1.74-.06a12.1,12.1,0,0,0-.06,1.3V48.3a11.45,11.45,0,0,0,.06,1.28,1.18,1.18,0,0,0-.27,0Zm-12.64-7.22a12.38,12.38,0,0,0,2,.13h9.15a16,16,0,0,0,2-.11v1.3a18.85,18.85,0,0,0-1.94-.1h-9.21a19.06,19.06,0,0,0-2,.1Zm.51-4.26a7.92,7.92,0,0,0-.09-1.41,10.57,10.57,0,0,0,1.68.09h8.72a11.13,11.13,0,0,0,1.68-.09,8.24,8.24,0,0,0-.09,1.39v1.8a8.1,8.1,0,0,0,.09,1.39c-.47,0-1-.06-1.62-.06h-8.78c-.67,0-1,0-1.66.06a9.42,9.42,0,0,0,.07-1.43Zm3.65-.29h-2.46V41h2.46ZM351,48.49h8.13V46.66H351Zm5.25-9.93H354V41h2.31Zm-.77,11a11.72,11.72,0,0,0,2.07,2.22,9.46,9.46,0,0,0,2.63-2.18c-.34,0-.82,0-1.26,0Zm4.43-11h-2.54V41h2.54Z"/><path class="cls-1" d="M367.88,39.44a16.4,16.4,0,0,0-.13-2.31h1.53a17.66,17.66,0,0,0-.12,2.31V42.5h.29a12.36,12.36,0,0,0,1.66-.08v1.34a12.88,12.88,0,0,0-1.68-.08h-.27v6c.88-.39,1.26-.56,2.31-1.11l.1,1.28a56,56,0,0,1-5.16,2.31l-.86.4-.38-1.45a12.3,12.3,0,0,0,2.71-.9V43.68h-.7a13.32,13.32,0,0,0-1.82.1V42.4a12.68,12.68,0,0,0,1.87.1h.65Zm6.21,11.19c-.61,0-1,0-1.78.08a9,9,0,0,0,.08-1.47V45.86a11.78,11.78,0,0,0-.08-1.63,17.63,17.63,0,0,0,2,.08h6.62a17.64,17.64,0,0,0,2-.08,11.08,11.08,0,0,0-.08,1.67v3.22a10.62,10.62,0,0,0,.08,1.59,15.29,15.29,0,0,0-1.72-.08h-1.66V53.9c0,.4.23.47,1.85.47,1.13,0,1.51-.09,1.68-.34a5.84,5.84,0,0,0,.29-2.23,4,4,0,0,0,1.24.53c-.13,1.78-.31,2.48-.8,2.83s-1,.4-2.69.4a5.26,5.26,0,0,1-2.37-.29c-.33-.17-.48-.46-.48-1V50.63h-2.14a5.7,5.7,0,0,1-.3,1.55,5,5,0,0,1-2.31,2.69,9.47,9.47,0,0,1-3.27,1.2,3.37,3.37,0,0,0-.84-1.24c2.35-.38,3.57-.86,4.43-1.75a3.58,3.58,0,0,0,1-2.45Zm7.46-11.89a15.36,15.36,0,0,0,2.12-.1V39.9a20.57,20.57,0,0,0-2.12-.09h-.21a19.62,19.62,0,0,1-1,2.13h1.82a13.7,13.7,0,0,0,2.08-.11v1.32a15.13,15.13,0,0,0-2.1-.1h-8.63a18.74,18.74,0,0,0-2,.08v-1.3a13.55,13.55,0,0,0,2,.11h1.35a10.82,10.82,0,0,0-.89-2.13h-.18a17,17,0,0,0-1.92.09V38.64a14.91,14.91,0,0,0,2.08.1h3v-.58a6.91,6.91,0,0,0-.1-1.37h1.51a6.88,6.88,0,0,0-.1,1.39v.56Zm-8,8.15h8V45.4h-8Zm0,2.71h8V47.94h-8ZM379,41.94a12.82,12.82,0,0,0,1-2.13h-4.8c.29.64.58,1.37.84,2.13Z"/><path class="cls-1" d="M390.75,43.28A32.77,32.77,0,0,1,396.08,46l-.82,1.41a22.84,22.84,0,0,0-5.35-2.88Zm-.55,9.6a18.19,18.19,0,0,0,5.65-1.31,13.76,13.76,0,0,0,6.3-4.68,15.67,15.67,0,0,0,2.52-4.7A6.34,6.34,0,0,0,406,43.3a16.47,16.47,0,0,1-8.09,9.05,24.24,24.24,0,0,1-5.31,1.81l-1.13.23a4.31,4.31,0,0,0-.82.23Zm2.18-14.62a30.31,30.31,0,0,1,5.21,2.65l-.86,1.4a22.2,22.2,0,0,0-5.17-2.77Z"/><path class="cls-1" d="M427.12,54.6a39.47,39.47,0,0,0-6.72-6.49,23.14,23.14,0,0,1-4,3.76,27.07,27.07,0,0,1-4.12,2.52,4.57,4.57,0,0,0-1-1.39,16.88,16.88,0,0,0,4.26-2.41,22.79,22.79,0,0,0,7.5-9.47,1.17,1.17,0,0,1,.11-.25.58.58,0,0,0,.06-.15,3.79,3.79,0,0,1-.51,0l-7,.1a16.17,16.17,0,0,0-2.16.17l0-1.7a9.17,9.17,0,0,0,1.66.11h.54l7.5-.09a3.79,3.79,0,0,0,1.34-.17l.88.91a3.81,3.81,0,0,0-.58,1A25.76,25.76,0,0,1,421.32,47a51.34,51.34,0,0,1,7,6.29Z"/><path class="cls-1" d="M443.52,45.3a20.71,20.71,0,0,1-.23,2.22,8.24,8.24,0,0,1-2.84,5.54,12.17,12.17,0,0,1-3.69,2.08,3.76,3.76,0,0,0-1-1.36c2.75-.88,4.45-2.23,5.31-4.14a12,12,0,0,0,.84-4.34h-5.69a20,20,0,0,0-2.41.1V43.85a15.81,15.81,0,0,0,2.43.12h12.29a15.81,15.81,0,0,0,2.43-.12V45.4a20,20,0,0,0-2.41-.1Zm-7.58-6.66a11.22,11.22,0,0,0,2.41.15h8.17a11.22,11.22,0,0,0,2.41-.15v1.59a17.64,17.64,0,0,0-2.39-.1h-8.21a17.64,17.64,0,0,0-2.39.1Z"/><path class="cls-1" d="M465.09,38.16a8.36,8.36,0,0,0-.57,1.51A112.08,112.08,0,0,1,460.15,52c2.79-.19,7.73-.84,10.2-1.32a40.28,40.28,0,0,0-3.23-5.44l1.3-.71A54.48,54.48,0,0,1,473.65,54l-1.47.79a27.45,27.45,0,0,0-1.24-2.83A129.29,129.29,0,0,1,458,53.67a17.08,17.08,0,0,0-1.78.23L456,52.16l.58,0c.15,0,1.31-.06,1.79-.1a80.84,80.84,0,0,0,3.17-8.32,40.2,40.2,0,0,0,1.66-6Z"/><path class="cls-1" d="M482.62,52.9a17.87,17.87,0,0,0-2.25.08V51.32a10,10,0,0,0,2.29.15h10V41.33H483.1a18.35,18.35,0,0,0-2.41.1V39.75a11.11,11.11,0,0,0,2.41.15h10.08c.28,0,.57,0,1.09,0,0,.52,0,.88,0,1.63V52.24a13,13,0,0,0,.11,1.92h-1.68V52.9Z"/><path class="cls-1" d="M501.27,45.48a14.25,14.25,0,0,0,2.6.13h12.2a17.3,17.3,0,0,0,2.54-.1v1.7a21.75,21.75,0,0,0-2.56-.09H503.87a20.85,20.85,0,0,0-2.6.09Z"/><path class="cls-1" d="M539.68,54.6A39.1,39.1,0,0,0,533,48.11a23.14,23.14,0,0,1-4,3.76,27.07,27.07,0,0,1-4.12,2.52,4.57,4.57,0,0,0-1-1.39,16.88,16.88,0,0,0,4.26-2.41,22.79,22.79,0,0,0,7.5-9.47,1.17,1.17,0,0,1,.11-.25.58.58,0,0,0,.06-.15,3.7,3.7,0,0,1-.5,0l-7,.1a16.17,16.17,0,0,0-2.16.17l0-1.7a9.17,9.17,0,0,0,1.66.11h.54l7.5-.09a3.79,3.79,0,0,0,1.34-.17l.88.91a3.81,3.81,0,0,0-.58,1A25.76,25.76,0,0,1,533.88,47a51.34,51.34,0,0,1,7,6.29Z"/><path class="cls-1" d="M556.69,46.43A1.73,1.73,0,1,1,555,44.71,1.73,1.73,0,0,1,556.69,46.43Z"/><path class="cls-1" d="M569.62,39.23a9.8,9.8,0,0,0-1.68.1V38a8.46,8.46,0,0,0,1.77.12h2.08a8.52,8.52,0,0,0,1.76-.12v1.38a9.31,9.31,0,0,0-1.59-.1h-.34v5h.29a6.91,6.91,0,0,0,1.37-.1V45.4a9.63,9.63,0,0,0-1.37-.08h-.29v5a25,25,0,0,0,2.48-1.07v1.3c-2,.91-2.75,1.22-4.87,2-.45.17-.82.33-1.12.46l-.42-1.49a11.11,11.11,0,0,0,2.65-.71V45.32h-.65a7.69,7.69,0,0,0-1.43.1V44.08a7.43,7.43,0,0,0,1.43.1h.65v-5Zm16.82,11.1-.27.19-.4.32a22.21,22.21,0,0,1-2.16,1.59,14.26,14.26,0,0,0,3.92,1.79,5.62,5.62,0,0,0-.73,1.22,15.44,15.44,0,0,1-4.12-2.36,9.27,9.27,0,0,1-2.33-2.58c0,.48.09,1.32.09,2.06v1.6a12.26,12.26,0,0,0,.12,2h-1.47a11.42,11.42,0,0,0,.13-2V52.6c0-.59,0-1.45.08-2a12.49,12.49,0,0,1-2.89,2.62,22.11,22.11,0,0,1-3.36,1.89,4.15,4.15,0,0,0-.91-1.11A16.87,16.87,0,0,0,577,51.49a17.12,17.12,0,0,0,2.08-2h-2.6c-.67,0-1.3,0-1.64.06a11.84,11.84,0,0,0,.06-1.3V46.89a12.36,12.36,0,0,0-.06-1.3c.5,0,1,.06,1.68.06h7.37c.8,0,1.24,0,1.74-.06a12.1,12.1,0,0,0-.06,1.3V48.3a11.45,11.45,0,0,0,.06,1.28,1.18,1.18,0,0,0-.27,0ZM573.8,43.11a12.38,12.38,0,0,0,2,.13H585a16,16,0,0,0,2-.11v1.3a18.85,18.85,0,0,0-1.94-.1h-9.21a19.06,19.06,0,0,0-2,.1Zm.51-4.26a7.92,7.92,0,0,0-.09-1.41,10.57,10.57,0,0,0,1.68.09h8.72a11.13,11.13,0,0,0,1.68-.09,8.24,8.24,0,0,0-.09,1.39v1.8A8.1,8.1,0,0,0,586.3,42c-.47,0-1-.06-1.62-.06H575.9c-.67,0-1,0-1.66.06a9.42,9.42,0,0,0,.07-1.43Zm3.65-.29H575.5V41H578Zm-1.83,9.93h8.13V46.66h-8.13Zm5.25-9.93h-2.31V41h2.31Zm-.77,11a11.72,11.72,0,0,0,2.07,2.22,9.46,9.46,0,0,0,2.63-2.18c-.34,0-.82,0-1.26,0Zm4.43-11H582.5V41H585Z"/><path class="cls-1" d="M593,39.44a16.4,16.4,0,0,0-.13-2.31h1.53a17.66,17.66,0,0,0-.12,2.31V42.5h.29a12.36,12.36,0,0,0,1.66-.08v1.34a12.88,12.88,0,0,0-1.68-.08h-.27v6c.88-.39,1.26-.56,2.31-1.11l.1,1.28a56,56,0,0,1-5.16,2.31l-.86.4-.38-1.45a12.3,12.3,0,0,0,2.71-.9V43.68h-.7a13.32,13.32,0,0,0-1.82.1V42.4a12.68,12.68,0,0,0,1.87.1H593Zm6.21,11.19c-.61,0-1,0-1.78.08a9,9,0,0,0,.08-1.47V45.86a11.78,11.78,0,0,0-.08-1.63,17.63,17.63,0,0,0,2,.08h6.62a17.64,17.64,0,0,0,2-.08A11.08,11.08,0,0,0,608,45.9v3.22a10.62,10.62,0,0,0,.08,1.59,15.29,15.29,0,0,0-1.72-.08h-1.66V53.9c0,.4.23.47,1.85.47,1.13,0,1.51-.09,1.68-.34a5.84,5.84,0,0,0,.29-2.23,4,4,0,0,0,1.24.53c-.13,1.78-.31,2.48-.8,2.83s-1,.4-2.68.4a5.28,5.28,0,0,1-2.38-.29c-.33-.17-.48-.46-.48-1V50.63h-2.14a5.7,5.7,0,0,1-.3,1.55,5,5,0,0,1-2.31,2.69,9.47,9.47,0,0,1-3.27,1.2,3.37,3.37,0,0,0-.84-1.24c2.35-.38,3.57-.86,4.43-1.75a3.58,3.58,0,0,0,1-2.45Zm7.46-11.89a15.36,15.36,0,0,0,2.12-.1V39.9a20.57,20.57,0,0,0-2.12-.09h-.21a19.62,19.62,0,0,1-1,2.13h1.82a13.7,13.7,0,0,0,2.08-.11v1.32a15.13,15.13,0,0,0-2.1-.1H598.6a18.74,18.74,0,0,0-2,.08v-1.3a13.55,13.55,0,0,0,2,.11h1.35a11.46,11.46,0,0,0-.89-2.13h-.19a17,17,0,0,0-1.91.09V38.64a14.91,14.91,0,0,0,2.08.1h3v-.58a6.91,6.91,0,0,0-.1-1.37h1.51a6.88,6.88,0,0,0-.1,1.39v.56Zm-8,8.15h8V45.4h-8Zm0,2.71h8V47.94h-8Zm5.44-7.66a12.82,12.82,0,0,0,1-2.13h-4.8c.29.64.58,1.37.84,2.13Z"/><path class="cls-1" d="M613.16,45.38a8.86,8.86,0,0,0,1.61.1h1.1a10,10,0,0,0,1.61-.1,16.8,16.8,0,0,0-.1,2.22v4.12a3.15,3.15,0,0,0,1.87,1.91,11.46,11.46,0,0,0,4.72.61,61.68,61.68,0,0,0,8.44-.42,5.3,5.3,0,0,0-.48,1.53c-2.21.11-4.62.15-7.1.15-3.57,0-4.74-.15-6-.74a4.81,4.81,0,0,1-2.17-2A18.78,18.78,0,0,1,614.15,55a8.24,8.24,0,0,0-.76.65l-.69-1.39a14,14,0,0,0,3.38-2.54V46.66h-1.39a7.43,7.43,0,0,0-1.53.11Zm1.34-8a25.48,25.48,0,0,1,3.4,3.74l-1.07.94a19.28,19.28,0,0,0-3.31-3.84Zm6.64,3.65a15.07,15.07,0,0,1-1.43,2.1,3.32,3.32,0,0,0-1.11-.71,11.63,11.63,0,0,0,2.45-4,6.06,6.06,0,0,0,.28-1.07l1.34.4a1.21,1.21,0,0,1-.08.19,7.5,7.5,0,0,0-.38.86,11.54,11.54,0,0,1-.49,1.11h2.78v-.73a13.32,13.32,0,0,0-.13-2.17h1.51a11.06,11.06,0,0,0-.12,2.17v.73h3a9.08,9.08,0,0,0,2-.13v1.37a17.15,17.15,0,0,0-2-.09h-3v2.82h3.92a10,10,0,0,0,1.91-.11v1.37c-.65-.06-1.24-.11-1.91-.11h-9.3a18.1,18.1,0,0,0-1.87.11V43.78a10.18,10.18,0,0,0,1.91.11h4.08V41.07Zm1.15,11.22a15.76,15.76,0,0,0-2.1.1,13.24,13.24,0,0,0,.09-2V48.61a12.66,12.66,0,0,0-.09-1.89,14.76,14.76,0,0,0,2.23.11h5.5a15.23,15.23,0,0,0,2.24-.11,12,12,0,0,0-.08,2v1.6a11.91,11.91,0,0,0,.08,2,17.22,17.22,0,0,0-2.2-.1Zm-.75-1.18h7.24V48h-7.24Z"/><path class="cls-1" d="M652.36,56.05V55H637.64v1h-1.45a17.24,17.24,0,0,0,.13-2.55V40.26a22.5,22.5,0,0,0-.13-2.59,18.59,18.59,0,0,0,2.46.11h12.66a19.44,19.44,0,0,0,2.5-.11,23,23,0,0,0-.12,2.59V53.55a17.34,17.34,0,0,0,.12,2.5Zm-14.72-2.13h14.72v-15H637.64ZM651,49.22a15.59,15.59,0,0,1-2.52,1.87,11.59,11.59,0,0,0,3.23,1.15,5.9,5.9,0,0,0-.75,1.14,12.33,12.33,0,0,1-5.8-3.7c0,.42,0,.88,0,1.2v1a6.6,6.6,0,0,0,.11,1.47h-1.39a7.27,7.27,0,0,0,.11-1.47v-1c0-.27,0-.57,0-1.2A14.47,14.47,0,0,1,639,53.13a3.78,3.78,0,0,0-.82-1.05,13.83,13.83,0,0,0,3.36-1.58,12.55,12.55,0,0,0,2.2-1.8h-2.33c-.69,0-1.05,0-1.4,0a10.31,10.31,0,0,0,.06-1.16V46.26a10.26,10.26,0,0,0-.06-1.15,13,13,0,0,0,1.4.06h7.14a13.16,13.16,0,0,0,1.41-.06,9,9,0,0,0-.06,1.15v1.32c0,.47,0,.78,0,1.07l.06-.08Zm-9.89-7.51a10.28,10.28,0,0,0-1.74.1V40.59a8.7,8.7,0,0,0,1.74.11h3.11a8.4,8.4,0,0,0-.11-1.22h1.41a5.89,5.89,0,0,0-.11,1.22H649a8.59,8.59,0,0,0,1.72-.11v1.22a10,10,0,0,0-1.72-.1h-3.57v1.42H650a9.22,9.22,0,0,0,1.7-.1v1.24a9.37,9.37,0,0,0-1.7-.11h-9.89a9.37,9.37,0,0,0-1.7.11V43a9.47,9.47,0,0,0,1.72.1h4.16V41.71Zm.17,6h7.43V46.11H641.3Zm4.11,1a9.28,9.28,0,0,0,2.19,1.86,8.5,8.5,0,0,0,2.31-1.82,11,11,0,0,0-1.33,0Z"/><path class="cls-1" d="M673.05,39.73a2,2,0,0,1-.09-.61,2.39,2.39,0,1,1,2.38,2.37,2.61,2.61,0,0,1-.74-.1l0,.13a18.76,18.76,0,0,1-4.28,8.35,19.58,19.58,0,0,1-7.65,5,4,4,0,0,0-1-1.45,16.81,16.81,0,0,0,7.69-4.77A16.92,16.92,0,0,0,673,41.16H662.28a14.73,14.73,0,0,0-2.36.13V39.61a15.71,15.71,0,0,0,2.38.12h10.75Zm.8-.63a1.5,1.5,0,1,0,1.51-1.49A1.5,1.5,0,0,0,673.85,39.1Z"/><path class="cls-1" d="M684.41,52.69v1.49h-1.62a9.89,9.89,0,0,0,.09-1.58V41.2a9.86,9.86,0,0,0-.09-1.64,13,13,0,0,0,1.64.07h11.19a9.87,9.87,0,0,0,1.64-.07,12,12,0,0,0-.06,1.64V52.56c0,.63,0,1.18.06,1.62h-1.6V52.69ZM695.66,41H684.41V51.32h11.25Z"/><path class="cls-1" d="M712,37.86a3.84,3.84,0,0,0-.46.86,15.68,15.68,0,0,1-1,1.85,3,3,0,0,1,.75-.06l5.08-.09a2.38,2.38,0,0,0,1.09-.14l1.26,1.32a2.16,2.16,0,0,0-.35.82A19.68,19.68,0,0,1,707,55.31a3.28,3.28,0,0,0-1-1.24,18.09,18.09,0,0,0,11-12.32l-7.08.1a20.19,20.19,0,0,1-5,5.46,3.05,3.05,0,0,0-1.17-1.07A16.07,16.07,0,0,0,709,40.47a9.2,9.2,0,0,0,1.32-3Zm6.49-.67a14.5,14.5,0,0,1,2.14,3.17l-1,.63a14.5,14.5,0,0,0-2.14-3.23ZM720.84,36A17.13,17.13,0,0,1,723,39.21l-1,.6a15,15,0,0,0-2.15-3.21Z"/><path class="cls-1" d="M727.46,43.39a15.93,15.93,0,0,0,2.46.12h10.77a3.42,3.42,0,0,0,1.36-.15l.78.91a6.1,6.1,0,0,0-.59,1.32c-1.78,4.89-4.68,7.58-10.12,9.41a4.6,4.6,0,0,0-.9-1.45,14.5,14.5,0,0,0,6.23-3.19,13,13,0,0,0,3.41-5.51h-11a19.92,19.92,0,0,0-2.44.11Zm1.81-4.88a9.26,9.26,0,0,0,2.2.15h7a9.4,9.4,0,0,0,2.21-.15v1.62a14.75,14.75,0,0,0-2.19-.1h-7a14.59,14.59,0,0,0-2.18.1Z"/><path class="cls-1" d="M757.74,38.16a7.74,7.74,0,0,0-.56,1.51A116.45,116.45,0,0,1,752.81,52c2.79-.19,7.72-.84,10.2-1.32a40.28,40.28,0,0,0-3.23-5.44l1.3-.71A54.48,54.48,0,0,1,766.31,54l-1.47.79a29.8,29.8,0,0,0-1.24-2.83,130.12,130.12,0,0,1-12.91,1.74,17.36,17.36,0,0,0-1.79.23l-.21-1.74.59,0c.15,0,1.3-.06,1.78-.1a78.64,78.64,0,0,0,3.18-8.32,39.74,39.74,0,0,0,1.65-6Z"/><path class="cls-1" d="M220.2,74.36a37.31,37.31,0,0,0,1.58,7c1.24-.5,1.83-.73,5.08-1.87a10.59,10.59,0,0,0,1.34-.54l.63,1.59a48.58,48.58,0,0,0-6.32,2c-3.59,1.43-5.14,2.81-5.14,4.55,0,1.91,1.62,2.65,5.73,2.65a20.92,20.92,0,0,0,6-.71l.16,1.74a10.65,10.65,0,0,0-1.55.13,44.58,44.58,0,0,1-4.64.27,14.21,14.21,0,0,1-4.66-.57,3.48,3.48,0,0,1-2.6-3.44,4.54,4.54,0,0,1,1.87-3.57,12.66,12.66,0,0,1,2.75-1.7A42.78,42.78,0,0,1,218.9,76a7.72,7.72,0,0,0-.35-1.32Z"/><path class="cls-1" d="M236.71,76.5a17.34,17.34,0,0,0-.08-1.89,14.9,14.9,0,0,0,2,.09h13a14.28,14.28,0,0,0,1.93-.09,16.85,16.85,0,0,0-.09,1.91V90.76c0,1.26-.42,1.51-2.56,1.51-.77,0-1.7,0-2.73-.1a6,6,0,0,0-.31-1.37,21,21,0,0,0,3.23.25c.8,0,1-.08,1-.46V75.91H238.1V90.42a13.7,13.7,0,0,0,.14,2.25h-1.65a18.4,18.4,0,0,0,.12-2.25Zm2.82,1.58a9,9,0,0,0,1.7.1H249a9,9,0,0,0,1.7-.1v1.4a9.13,9.13,0,0,0-1.66-.1h-7.87a9.66,9.66,0,0,0-1.68.1Zm9.59,8.84a10.74,10.74,0,0,0,.06,1.21c-.42,0-.82-.06-1.3-.06H242.3v1.85h-1.37A15.13,15.13,0,0,0,241,88V83a10.29,10.29,0,0,0-.07-1.28c.44,0,.86.06,1.41.06h5.29c.69,0,1.07,0,1.53-.06a9.59,9.59,0,0,0-.06,1.26Zm-6.82,0h5.52v-4H242.3Z"/><path class="cls-1" d="M260.74,76.86a15.31,15.31,0,0,0-.11-2.06,16,16,0,0,0,2.25.11h9.45a14.29,14.29,0,0,0,2.16-.11,12.41,12.41,0,0,0-.11,1.93V90.19a15.12,15.12,0,0,0,.13,2.25H273V91.07H262.14v1.37h-1.53a16.72,16.72,0,0,0,.13-2.23Zm1.4,5.21H273V76.19H262.14Zm0,7.72H273V83.35H262.14Z"/><path class="cls-1" d="M283.86,76.06c-.89.23-1.31.32-2.52.57a4.52,4.52,0,0,0-.59-1.16c3-.42,5.19-1.09,6.17-1.84l.84,1.11c-1.2.48-2.08.82-2.62,1v3.38h1.17A8.21,8.21,0,0,0,287.7,79v1.32a9.5,9.5,0,0,0-1.41-.08H285.2a11.17,11.17,0,0,0,2.58,4,5.21,5.21,0,0,0-.77,1.07,11.69,11.69,0,0,1-2-3.53c0,.78.11,2.61.11,3.07v5.5a16.91,16.91,0,0,0,.12,2.41h-1.53a17.54,17.54,0,0,0,.13-2.39V85.3c0-.48.06-2.44.1-3.28a14.73,14.73,0,0,1-3.17,6.09A4.08,4.08,0,0,0,280,87a13.42,13.42,0,0,0,2.48-3.65,16.64,16.64,0,0,0,1.16-3h-1.43a8.3,8.3,0,0,0-1.6.11V79a9.09,9.09,0,0,0,1.64.11h1.6ZM290,84.15a14.37,14.37,0,0,0-2,.1V82.86a12.49,12.49,0,0,0,2.08.11h6.74a15.76,15.76,0,0,0,2.25-.13v1.43a18.17,18.17,0,0,0-2.25-.12h-2.94v2.49h2.54a14.93,14.93,0,0,0,2.18-.1v1.38a15.61,15.61,0,0,0-2.18-.1h-2.54V90.7h3.28a17.44,17.44,0,0,0,2.28-.13V92a16.81,16.81,0,0,0-2.28-.13H289a16.87,16.87,0,0,0-2.29.13V90.59a15.89,15.89,0,0,0,2.29.11h3.59V87.82H290.2a15.9,15.9,0,0,0-2.17.1V86.54a14.69,14.69,0,0,0,2.17.1h2.35V84.15Zm-1.35-7.75a13.94,13.94,0,0,0-.08-1.7,16.77,16.77,0,0,0,1.89.08h5.92a15.94,15.94,0,0,0,1.87-.08,13,13,0,0,0-.08,1.7v3a12.68,12.68,0,0,0,.08,1.77c-.59,0-1.09-.07-1.93-.07h-5.84c-.78,0-1.32,0-1.91.07a13.64,13.64,0,0,0,.08-1.73ZM290,80h6.9V76H290Z"/><path class="cls-1" d="M314.3,83.18a1.72,1.72,0,1,1-1.72-1.72A1.73,1.73,0,0,1,314.3,83.18Z"/><path class="cls-1" d="M326.76,76.5a17.34,17.34,0,0,0-.08-1.89,14.9,14.9,0,0,0,2,.09h12.95a14.54,14.54,0,0,0,1.94-.09,14.8,14.8,0,0,0-.09,1.91V90.76c0,1.26-.42,1.51-2.56,1.51-.78,0-1.7,0-2.73-.1a6.61,6.61,0,0,0-.31-1.37,21,21,0,0,0,3.23.25c.8,0,1-.08,1-.46V75.91H328.15V90.42a13.7,13.7,0,0,0,.14,2.25h-1.66a16.45,16.45,0,0,0,.13-2.25Zm2.81,1.58a9,9,0,0,0,1.7.1h7.81a9.08,9.08,0,0,0,1.71-.1v1.4a9.27,9.27,0,0,0-1.66-.1h-7.88a9.8,9.8,0,0,0-1.68.1Zm9.6,8.84a10.74,10.74,0,0,0,.06,1.21c-.42,0-.82-.06-1.3-.06h-5.59v1.85H331a17.54,17.54,0,0,0,.08-1.93V83a12.79,12.79,0,0,0-.06-1.28c.44,0,.86.06,1.41.06h5.29c.69,0,1.07,0,1.53-.06a9.59,9.59,0,0,0-.06,1.26Zm-6.83,0h5.53v-4h-5.53Z"/><path class="cls-1" d="M358.32,73.79a14,14,0,0,0,3.53,3.76,22.38,22.38,0,0,0,5.79,3.36,4.48,4.48,0,0,0-.82,1.35A28.74,28.74,0,0,1,361,78.6,17,17,0,0,1,357.63,75a18.44,18.44,0,0,1-3.15,3.45,23.37,23.37,0,0,1-5.67,3.69,4.43,4.43,0,0,0-.88-1.2,21.82,21.82,0,0,0,5.56-3.42,15.37,15.37,0,0,0,3.34-3.74Zm-7.1,11.72a17,17,0,0,0-2.39.13V84.12a16.87,16.87,0,0,0,2.39.13h12.94a16.68,16.68,0,0,0,2.39-.13v1.52a17.06,17.06,0,0,0-2.39-.13h-7.54a31.4,31.4,0,0,1-2.62,5c2.89-.19,5.08-.4,8.18-.78-1.26-1.37-1.63-1.74-2.56-2.61l1.09-.67A46.11,46.11,0,0,1,365.8,92l-1.16.86c-.82-1.16-1.09-1.51-1.53-2.06-3.74.5-6.91.84-10.19,1.09a24,24,0,0,0-3.54.38l-.26-1.6a10.46,10.46,0,0,0,1.08.07c.33,0,.33,0,2.22-.13a31.56,31.56,0,0,0,2.67-5.06Zm1.35-5.23a11.32,11.32,0,0,0,1.66.09H361a12.93,12.93,0,0,0,1.76-.09v1.41A13.14,13.14,0,0,0,361,81.6h-6.8a12.49,12.49,0,0,0-1.64.09Z"/><path class="cls-1" d="M373.4,76.19a15.65,15.65,0,0,0-.13-2.31h1.56a13.68,13.68,0,0,0-.13,2.33v2.9h.51A12.7,12.7,0,0,0,377,79v1.35a14.81,14.81,0,0,0-1.74-.09h-.51v5.4a20.44,20.44,0,0,0,1.79-1.07l.08,1.26a40.63,40.63,0,0,1-4.37,2.37c-.33.15-.92.44-1.11.55l-.4-1.48a10.24,10.24,0,0,0,2.71-1v-6h-.9a13.86,13.86,0,0,0-1.79.11V79a12.22,12.22,0,0,0,1.83.11h.86Zm5.9,9.59a13.57,13.57,0,0,1-3.53,2.79,3.7,3.7,0,0,0-.86-.94,10.08,10.08,0,0,0,4.87-4.43H378.5a9.7,9.7,0,0,0-1.89.13V82a9.76,9.76,0,0,0,1.93.13h9a11.24,11.24,0,0,0,2.08-.13v1.32a18.91,18.91,0,0,0-2.08-.08h-6.43a9.89,9.89,0,0,1-1,1.53h6.95a17.28,17.28,0,0,0,2.06-.08,7.58,7.58,0,0,0-.11,1.24,20.88,20.88,0,0,1-.92,5.6c-.38.76-.91,1-2.33,1-.49,0-1.18,0-1.83-.08a3.52,3.52,0,0,0-.42-1.37,14.29,14.29,0,0,0,2.5.23c.84,0,1-.17,1.26-1.43a25.16,25.16,0,0,0,.46-4h-1.41A11.94,11.94,0,0,1,384.47,89a21.12,21.12,0,0,1-2.59,2.59,17.3,17.3,0,0,1-1.7,1.17,3.43,3.43,0,0,0-1-1,13.44,13.44,0,0,0,4.11-3.2,10.06,10.06,0,0,0,1.72-2.75H383A14.38,14.38,0,0,1,377.2,91a3,3,0,0,0-.9-1,12,12,0,0,0,5.31-4.27ZM380,80.7a13.42,13.42,0,0,0-1.91.09,16.84,16.84,0,0,0,.09-1.89V76.17a14.48,14.48,0,0,0-.09-1.85,14.24,14.24,0,0,0,2,.1h5.48a16.15,16.15,0,0,0,2.18-.1,16,16,0,0,0-.08,2V78.9a12.81,12.81,0,0,0,.08,1.86c-.46,0-1.11-.06-1.93-.06Zm-.59-3.65h7V75.52h-7Zm0,2.62h7V78.08h-7Z"/><path class="cls-1" d="M394,77.26l.76,0c.29,0,.54,0,1.2-.06,1.17-.09,1.3-.11,3.88-.26l3.3-.21,3.54-.19,1.2,0a13,13,0,0,0,2.5-.23l.13,1.56a8.87,8.87,0,0,0-2.36.29,10.4,10.4,0,0,0-4,2.1,6.42,6.42,0,0,0-2.58,4.85A4.11,4.11,0,0,0,404.5,89a10.73,10.73,0,0,0,3.15.68h.21l-.27,1.7c-.23,0-.28-.07-.65-.13a10.65,10.65,0,0,1-4.54-1.62,5.07,5.07,0,0,1-2.33-4.28c0-2.43,1.43-4.74,3.93-6.44a12.93,12.93,0,0,1,2-1.12,41.27,41.27,0,0,1-4.62.46,70,70,0,0,0-7.24.7Zm14.05,3.13a16,16,0,0,1,2.16,3.25l-1.07.63A14.68,14.68,0,0,0,407,80.93Zm2.37-1.16a16.61,16.61,0,0,1,2.16,3.28l-1.05.59a16.24,16.24,0,0,0-2.14-3.3Z"/><path class="cls-1" d="M418.57,86a15.51,15.51,0,0,1-2.27,6.87,4.09,4.09,0,0,0-1.11-1A10.66,10.66,0,0,0,417,87.36a55.08,55.08,0,0,0,.69-10,27.83,27.83,0,0,0-.1-3,24.65,24.65,0,0,0,2.54.09h10.93a17.24,17.24,0,0,0,2.23-.09c0,.51-.06,1-.06,1.62v1.47a15.2,15.2,0,0,0,.06,1.53c-.88,0-1.43-.06-2.1-.06H419c0,2.81-.08,3.78-.27,5.82h4.15V82.34h-1.3a17.23,17.23,0,0,0-1.89.08v-1.3a10.25,10.25,0,0,0,1.91.11h1.28V81a14.51,14.51,0,0,0-.08-1.49h1.45a7.35,7.35,0,0,0-.11,1.49v.28h4V81a9.48,9.48,0,0,0-.11-1.49h1.49a7.24,7.24,0,0,0-.1,1.49v.28h1.8a10.52,10.52,0,0,0,2-.11v1.3a17.32,17.32,0,0,0-2-.08h-1.78v2.48h2.45a15.69,15.69,0,0,0,2.27-.13v1.39A16.55,16.55,0,0,0,431.9,86h-5.64a6.87,6.87,0,0,0,2.07,2.65,13,13,0,0,0,2.92-2.5l1.18.77a27,27,0,0,1-3.15,2.42,13.79,13.79,0,0,0,5.44,2.18,3.8,3.8,0,0,0-.84,1.28,16,16,0,0,1-6.39-3.27A8.85,8.85,0,0,1,424.91,86h-2.12V90.7c1.77-.34,2.48-.51,4.37-1v1.22c-2.25.6-3.13.79-7.43,1.63l-.74.17-.33-1.45h.18a18.16,18.16,0,0,0,2.65-.33V86ZM432,77.89V75.68H419v2.21Zm-3.82,4.45h-4v2.48h4Z"/><path class="cls-1" d="M444.06,83.49a18,18,0,0,1-4.51,7.27,5.43,5.43,0,0,0-1.2-1A14.33,14.33,0,0,0,442.72,83Zm-3.17-2.35a15.09,15.09,0,0,0-2.18.13V79.72a16,16,0,0,0,2.21.12H454.5a16.25,16.25,0,0,0,2.2-.12v1.55a15.09,15.09,0,0,0-2.18-.13h-6v9.41c0,1.36-.42,1.68-2.29,1.68-.82,0-1.91,0-2.77-.13a4.82,4.82,0,0,0-.36-1.45,18.09,18.09,0,0,0,3,.28c.86,0,1-.09,1-.53V81.14Zm13.71-4.66a17.65,17.65,0,0,0-2.2-.12h-9.57a18.42,18.42,0,0,0-2.19.12V75a16.21,16.21,0,0,0,2.21.12h9.57A16.34,16.34,0,0,0,454.6,75ZM452.76,83a19.94,19.94,0,0,0,2.87,4.87,14.72,14.72,0,0,0,1.66,1.74,6.48,6.48,0,0,0-1.17,1.09,22.6,22.6,0,0,1-4.6-7.16Z"/><path class="cls-1" d="M470.88,73.79a14,14,0,0,0,3.53,3.76,22.38,22.38,0,0,0,5.79,3.36,4.48,4.48,0,0,0-.82,1.35,28.74,28.74,0,0,1-5.83-3.66A17.21,17.21,0,0,1,470.19,75,18.44,18.44,0,0,1,467,78.46a23.37,23.37,0,0,1-5.67,3.69,4.43,4.43,0,0,0-.88-1.2,21.82,21.82,0,0,0,5.56-3.42,15.37,15.37,0,0,0,3.34-3.74Zm-7.1,11.72a17,17,0,0,0-2.39.13V84.12a16.87,16.87,0,0,0,2.39.13h12.94a16.68,16.68,0,0,0,2.39-.13v1.52a17.06,17.06,0,0,0-2.39-.13h-7.54a31.4,31.4,0,0,1-2.62,5c2.89-.19,5.08-.4,8.18-.78-1.26-1.37-1.63-1.74-2.56-2.61l1.09-.67A46.11,46.11,0,0,1,478.36,92l-1.16.86c-.82-1.16-1.09-1.51-1.53-2.06-3.74.5-6.91.84-10.19,1.09a24,24,0,0,0-3.54.38l-.25-1.6a10.1,10.1,0,0,0,1.07.07c.33,0,.33,0,2.22-.13a31.56,31.56,0,0,0,2.67-5.06Zm1.35-5.23a11.32,11.32,0,0,0,1.66.09h6.78a12.93,12.93,0,0,0,1.76-.09v1.41a13.14,13.14,0,0,0-1.76-.09h-6.8a12.49,12.49,0,0,0-1.64.09Z"/><path class="cls-1" d="M489.8,77a8.71,8.71,0,0,0,1-2.88l1.68.29a4.75,4.75,0,0,0-.55,1.14,14.64,14.64,0,0,1-.65,1.43,2.6,2.6,0,0,1,.44,0,29.81,29.81,0,0,0,6.62-.79l.12,1.43a7,7,0,0,0-.84.1c-2.18.29-4.38.46-6.92.55a16.24,16.24,0,0,1-1.89,3c-.21.25-.63.73-.72.8a1.93,1.93,0,0,0-.27.21,0,0,0,0,1,0,0v0a.15.15,0,0,0,0,.06c.76-.59.76-.59,1-.73a5.52,5.52,0,0,1,3.17-1,2.55,2.55,0,0,1,2.77,2.33c1.53-.61,2.73-1.05,3.65-1.39a4.78,4.78,0,0,0,1.43-.61l.67,1.47a35.17,35.17,0,0,0-5.61,1.85,11.22,11.22,0,0,1,.05,1.28c0,.27,0,.74,0,1.16s0,.75,0,.94a3.94,3.94,0,0,0,.05.76l-1.43,0c.06-.46.13-1.75.13-3a4,4,0,0,0,0-.63c-2.85,1.35-3.94,2.33-3.94,3.59s1.3,2,4.26,2a17.71,17.71,0,0,0,5.61-.82l.18,1.62c-.31,0-.42,0-.84.1a32.79,32.79,0,0,1-5.1.42c-3.76,0-5.58-1.07-5.58-3.23,0-1.16.71-2.25,2.14-3.32a16.43,16.43,0,0,1,3.13-1.68c-.17-1.15-.67-1.66-1.66-1.66A7.89,7.89,0,0,0,487.14,84a6.92,6.92,0,0,0-1.62,1.74l-1.18-1.18a20.74,20.74,0,0,0,4.71-6l.19-.32a1.75,1.75,0,0,1-.4.05l-3.09-.07h-.34l-.46,0,0-1.44a30.55,30.55,0,0,0,4.5.23Z"/><path class="cls-1" d="M508,90.3a14.5,14.5,0,0,0,.13,2.35h-1.56a14.83,14.83,0,0,0,.13-2.35V76.5a21,21,0,0,0-.09-2.31,17.77,17.77,0,0,0,2.21.09H512a16.55,16.55,0,0,0,2.12-.09c0,.59-.06,1.22-.06,2v2.58c0,.84,0,1.43.06,2-.5,0-1.22-.06-2.12-.06h-4Zm0-13.38h4.87V75.31H508Zm0,2.71h4.87v-1.7H508Zm3.91,3.76a17.1,17.1,0,0,0-2,.08V82.23a11.86,11.86,0,0,0,2,.11h6.65a12.13,12.13,0,0,0,2-.11v1.24a17.32,17.32,0,0,0-2-.08h-.75V86h1a12.78,12.78,0,0,0,2-.1v1.26a11.85,11.85,0,0,0-2-.11h-1v3.24a7.63,7.63,0,0,0,.12,1.8h-1.45a7.46,7.46,0,0,0,.13-1.8V87h-3.17a7.08,7.08,0,0,1-2.77,5.21,3.84,3.84,0,0,0-1.05-.86,6.06,6.06,0,0,0,1.83-1.85,6,6,0,0,0,.79-2.5h-.73a12,12,0,0,0-2,.11V85.89a13.08,13.08,0,0,0,2,.1h.84c.06-1,.06-1,.08-2.6Zm1.74,0v.48c0,.65,0,1.41-.09,2.12h3.07v-2.6Zm10.08,7.18c0,.9-.21,1.34-.76,1.58a4.45,4.45,0,0,1-1.49.14l-1.78-.06a4.26,4.26,0,0,0-.4-1.34,18.46,18.46,0,0,0,2.33.2c.67,0,.82-.1.82-.58V80.66h-4.31c-.88,0-1.55,0-2.14.06,0-.61.06-1.11.06-2V76.19c0-.78,0-1.3-.06-2a17.07,17.07,0,0,0,2.16.09h3.47a17.79,17.79,0,0,0,2.2-.09,20.48,20.48,0,0,0-.1,2.31Zm-6.45-13.65h5.17V75.31h-5.17Zm0,2.71h5.17v-1.7h-5.17Z"/><path class="cls-1" d="M531.7,90.07c0,1.26,0,1.86.08,2.62h-1.53a21.72,21.72,0,0,0,.13-2.58V84c0-1,0-2,.06-3.11a14.3,14.3,0,0,1-1.87,2.86,4.37,4.37,0,0,0-.8-1.22,18.33,18.33,0,0,0,3.74-6.36,12.94,12.94,0,0,0,.65-2.59l1.41.44-.34,1a33,33,0,0,1-1.53,3.87ZM544,84.27a12,12,0,0,0,1.93-.1v1.3a13.75,13.75,0,0,0-1.89-.11h-2.79v1.89H544a12.49,12.49,0,0,0,1.93-.1v1.3a15.85,15.85,0,0,0-1.91-.11h-2.79v2.19H545a10.38,10.38,0,0,0,1.91-.11v1.37a16.16,16.16,0,0,0-2.06-.13h-9v1.07h-1.36a16.72,16.72,0,0,0,.15-2.22v-5.4c0-.61,0-1,0-1.68a11.61,11.61,0,0,1-1.76,2.33,3.81,3.81,0,0,0-.84-1,12.78,12.78,0,0,0,2-2.18,14.65,14.65,0,0,0,2-3.65l1.26.38-.6,1.07a6.3,6.3,0,0,1-.51.86H540a8.14,8.14,0,0,0,1.11-2.31l1.24.38a18.18,18.18,0,0,1-1.09,1.93h3.63a12.28,12.28,0,0,0,2-.13v1.35a15.53,15.53,0,0,0-1.89-.11h-3.7v1.91Zm-4.62-8.84a8.28,8.28,0,0,0-.12-1.62h1.47a7.57,7.57,0,0,0-.11,1.62v2h4.22V76.27a14.36,14.36,0,0,0-.08-1.55h1.42a10.76,10.76,0,0,0-.08,1.53v1.07a7.86,7.86,0,0,0,.06,1.26c-.92,0-1,0-1.57,0h-8.86a14,14,0,0,0-1.51,0c0-.46,0-.86,0-1.28v-1a10.59,10.59,0,0,0-.11-1.53h1.43c0,.38-.06.9-.06,1.55V77.4h3.86Zm.65,8.84V82.36h-4.18v1.91Zm-4.18,3H540V85.36h-4.18Zm0,3.28H540V88.34h-4.18Z"/><path class="cls-1" d="M556.42,74.78a32.24,32.24,0,0,0-.28,4.43c-.08,2.52-.14,5.38-.14,6.32,0,.25,0,.78,0,1.26a3.29,3.29,0,0,0,1,2.52,4,4,0,0,0,2.63.82,6,6,0,0,0,5.63-3.65,12.5,12.5,0,0,0,1-3.3,6.1,6.1,0,0,0,1.52,1A12.88,12.88,0,0,1,565.49,89a7.36,7.36,0,0,1-5.93,2.63,5,5,0,0,1-3.94-1.47c-.86-1-1.16-2.1-1.16-4.31,0-1.4,0-1.93.19-8.54,0-.63,0-1,0-1.37a6.75,6.75,0,0,0-.08-1.11Z"/><path class="cls-1" d="M574.29,77.3H575c.3,0,.55,0,1.2-.06,2.5-.19,9.22-.57,11.93-.7a13.33,13.33,0,0,0,2.49-.23l.13,1.58a9.68,9.68,0,0,0-2.35.27,10.72,10.72,0,0,0-4,2.12,6.44,6.44,0,0,0-2.59,4.85A4.13,4.13,0,0,0,584.76,89a11.08,11.08,0,0,0,3.15.67h.21l-.27,1.7-.65-.13a10.52,10.52,0,0,1-4.54-1.61,5.13,5.13,0,0,1-2.33-4.29c0-2.43,1.43-4.76,3.93-6.44a14.38,14.38,0,0,1,2-1.12,40.53,40.53,0,0,1-4.61.47,61.38,61.38,0,0,0-7.25.69Z"/><path class="cls-1" d="M607.13,78.73l-.63.12a34.51,34.51,0,0,1-3.72.63v3.64a14.8,14.8,0,0,1,4.52-.76,7.05,7.05,0,0,1,3.71.88,4.32,4.32,0,0,1-2.12,8.07,3.1,3.1,0,0,1-3.23-2.38,7.64,7.64,0,0,1-.25-2.37,4.38,4.38,0,0,0,1.38-.55,6.59,6.59,0,0,0,0,.82c0,2.19.63,3.09,2.16,3.09a2.79,2.79,0,0,0,2.82-3c0-2.06-1.75-3.34-4.5-3.34a14.13,14.13,0,0,0-4.45.82v5.25c0,1.13-.5,1.68-1.53,1.68A5.52,5.52,0,0,1,597.79,90a2.52,2.52,0,0,1-1-2,3.81,3.81,0,0,1,1.66-2.79,11.16,11.16,0,0,1,3-1.72v-4l-.84.06c-.38,0-.74,0-1.34,0-.32,0-.89,0-1.12,0h-.86V78.24a11.43,11.43,0,0,0,2.14.15c.57,0,1.39,0,2-.06V76.25a13,13,0,0,0-.11-2h1.56a11.15,11.15,0,0,0-.11,1.95v2a21.19,21.19,0,0,0,4.29-.9Zm-5.69,6.19c-2.08,1-3.25,2.14-3.25,3.15,0,.44.29.86.9,1.26a3.86,3.86,0,0,0,1.87.61c.42,0,.48-.13.48-1ZM613,81a17.31,17.31,0,0,0-4.24-4.12l1.09-.82a17.52,17.52,0,0,1,4.24,4Z"/><path class="cls-1" d="M624.48,74.32a11.66,11.66,0,0,0-.49,2.16c-.33,2.12-.63,4.41-.69,5.48l.08,0c0-.17,0-.17.15-.61a9.4,9.4,0,0,1,1.28-3.13c1.18-1.8,2.56-2.7,4.2-2.7a4,4,0,0,1,3.36,1.86,8.67,8.67,0,0,1,1.26,5.11,8.66,8.66,0,0,1-4.85,8.25A16.37,16.37,0,0,1,625,92a4.37,4.37,0,0,0-.84-1.43,11.09,11.09,0,0,0,4.27-1.32c2.45-1.41,3.61-3.61,3.61-7s-1.18-5.34-3.19-5.34c-1.6,0-2.94,1.2-4.14,3.66a10.88,10.88,0,0,0-1.14,4.68,4.55,4.55,0,0,0,0,.5l-1.52.07v-.24l0-.37,0-2.19v-.48a53.7,53.7,0,0,1,.71-7.75,3.47,3.47,0,0,0,.07-.67Z"/><path class="cls-1" d="M657.3,91A16.77,16.77,0,0,0,653,88c-.35-.19-.84-.4-1.4-.64a6.48,6.48,0,0,1,0,.76,3.63,3.63,0,0,1-.53,2.29c-.6.86-1.89,1.32-3.54,1.32a5.46,5.46,0,0,1-3.26-.84,2.74,2.74,0,0,1-1.13-2.2c0-1.39,1.09-2.48,2.94-2.9a9,9,0,0,1,2.18-.21,9.15,9.15,0,0,1,1.89.17c0-.06,0-.06,0-.25a1.84,1.84,0,0,1,0-.23c0-.19,0-.63,0-1.24,0-.28,0-.67,0-1.22-.75,0-1.8,0-2.47,0-1.26,0-2.25,0-3.55-.15-.23,0-.4,0-.53,0h-.16l0-1.38a25.8,25.8,0,0,0,4.81.33c.54,0,1.28,0,1.86,0l0-2.87c-.61,0-.94,0-1.43,0-1.53,0-3.23-.07-5.12-.21a2.69,2.69,0,0,0-.38,0,1.74,1.74,0,0,0-.29,0l0-1.43a26.25,26.25,0,0,0,5.38.42l1.82,0a17.47,17.47,0,0,0-.1-3h1.61a24.73,24.73,0,0,0-.14,3,28.85,28.85,0,0,0,6.21-.86L657.7,78a13.79,13.79,0,0,0-1.45.17,43.12,43.12,0,0,1-4.87.5c0,1.73,0,1.73,0,2.84a25.24,25.24,0,0,0,5.81-.86l.09,1.45c-.27,0-.48,0-1.22.14-1.45.23-3.11.4-4.66.51,0,1.17,0,1.17.12,3.21A18.31,18.31,0,0,1,657.42,89a6.18,6.18,0,0,0,.72.49Zm-7.1-4a7.68,7.68,0,0,0-2.14-.23c-2.08,0-3.44.75-3.44,1.87s1,1.74,2.87,1.74a3,3,0,0,0,2.31-.69c.3-.3.42-.88.42-1.89Z"/><path class="cls-1" d="M673.85,75.52a7.33,7.33,0,0,0-.09-1.22h1.58a16.24,16.24,0,0,0-.11,2.62v.23c4,0,5.59-.06,6.28-.14V78.5a35.12,35.12,0,0,0-4-.11l-2.25,0v4.16a6,6,0,0,1,.51,2.48,6.76,6.76,0,0,1-2.82,5.48,13.39,13.39,0,0,1-3.31,1.7,4.68,4.68,0,0,0-.93-1.32,10.83,10.83,0,0,0,3.4-1.58,5.4,5.4,0,0,0,2.35-4.43,2.75,2.75,0,0,1-.56,1,3.51,3.51,0,0,1-6.09-2.18,3.49,3.49,0,0,1,3.72-3.47,3.23,3.23,0,0,1,2.43,1c0-.3,0-.38,0-1.16,0-.08,0-.29,0-.54V78.46c-4.22.08-8.46.29-9.87.52L664,77.45c.38,0,.52,0,.84,0,.61,0,.61,0,4-.13,2-.08,3.65-.12,5.08-.17Zm-.91,6.32a2.6,2.6,0,0,0-1.4-.34,2.21,2.21,0,0,0-2.33,2.2,2,2,0,0,0,2.16,2.08,2.35,2.35,0,0,0,2.45-2.47A1.51,1.51,0,0,0,672.94,81.84Z"/><path class="cls-1" d="M692.24,89.37a3.15,3.15,0,1,1-3.15-3.15A3.14,3.14,0,0,1,692.24,89.37Zm-5.1,0a2,2,0,1,0,2-2A2,2,0,0,0,687.14,89.37Z"/><path class="cls-1" d="M0,114.15a8.39,8.39,0,0,0,1.68.11H5.56a8,8,0,0,0,1.68-.11v1.37a9.65,9.65,0,0,0-1.53-.08h-4a12.88,12.88,0,0,0-1.68.08Zm.67,15.46a13.27,13.27,0,0,0,.13-2v-2.83A10.41,10.41,0,0,0,.69,123a12.91,12.91,0,0,0,1.68.09H5.12A7.9,7.9,0,0,0,6.66,123a14.45,14.45,0,0,0-.07,1.66v3a10.41,10.41,0,0,0,.11,1.7H5.4v-.83H2v1.13Zm0-18.37a9,9,0,0,0,1.6.1H5a8.89,8.89,0,0,0,1.59-.1v1.32A11.89,11.89,0,0,0,5,112.48H2.31a12.54,12.54,0,0,0-1.6.08Zm.11,5.88a9.94,9.94,0,0,0,1.51.08h2.9a9.48,9.48,0,0,0,1.49-.08v1.3a9.3,9.3,0,0,0-1.49-.09H2.33a9,9,0,0,0-1.51.09Zm0,2.94a9.94,9.94,0,0,0,1.51.08h2.9a10,10,0,0,0,1.49-.08v1.3a9.14,9.14,0,0,0-1.49-.09H2.33a9,9,0,0,0-1.51.09ZM2,127.38H5.4v-3.23H2ZM13.9,114.57a18,18,0,0,0,1.78-3.94l1.37.52a23.38,23.38,0,0,1-1.85,3.42h1.3a11.2,11.2,0,0,0,1.87-.1v1.41a10.43,10.43,0,0,0-1.93-.11h-3v2.86h2.54a9.93,9.93,0,0,0,1.91-.11v1.37a10.26,10.26,0,0,0-1.89-.11H13.4V123h3.38a19.54,19.54,0,0,0,2-.11v1.45a13.61,13.61,0,0,0-1.95-.13H13.4v2.9a19.7,19.7,0,0,0,.12,2.29H12a17.75,17.75,0,0,0,.12-2.29v-2.9H9.43a11,11,0,0,0-1.93.11v-1.43a12.07,12.07,0,0,0,1.95.11h2.66v-3.26H10a8.37,8.37,0,0,0-1.79.11v-1.37a9.52,9.52,0,0,0,1.79.11h2.09v-2.86H9.57a10.23,10.23,0,0,0-1.86.11v-1.41a10.66,10.66,0,0,0,1.78.1Zm-3.53-.25a12.36,12.36,0,0,0-1.74-3.13l1.15-.54a22.43,22.43,0,0,1,1.77,3.08Z"/><path class="cls-1" d="M24.59,122.2a19.56,19.56,0,0,1-1.17,5.94l-1.16-.57A14.36,14.36,0,0,0,23.39,122Zm-2.31-2.61a4.25,4.25,0,0,0,.82.07l.84,0c.69-.91,1-1.26,1.47-2a31.17,31.17,0,0,0-3-3.32l.75-1c.5.5.57.56.95,1a14,14,0,0,0,1.86-3.92l1.33.52a9.37,9.37,0,0,0-.53.95,35.45,35.45,0,0,1-1.89,3.29c.63.72.65.76,1.26,1.49A18.32,18.32,0,0,0,28.18,113l1.24.67c-.17.23-.34.46-.61.9a60.54,60.54,0,0,1-3.53,5c1.47-.1,2.1-.17,3.26-.31a18.16,18.16,0,0,0-.8-1.77l1-.46a25.51,25.51,0,0,1,1.59,4.1l-1.07.5c-.15-.67-.21-.88-.33-1.32-.84.12-1,.14-1.91.23v6.82a14.86,14.86,0,0,0,.12,2.1H25.64a15.17,15.17,0,0,0,.13-2.1v-6.7c-.82.07-1.43.11-2.12.15a6,6,0,0,0-1.18.13Zm6.62,2.25a30.16,30.16,0,0,1,1.11,5l-1.16.31a20.74,20.74,0,0,0-1-5Zm1.76-8a21.46,21.46,0,0,0-.09-2.33,17.39,17.39,0,0,0,2.08.09h5.8a16.38,16.38,0,0,0,2.12-.09,23.9,23.9,0,0,0-.09,2.42v13a18.88,18.88,0,0,0,.13,2.33H39.23V128H31.92v1.37H30.53a17.19,17.19,0,0,0,.13-2.31ZM31.9,119h2.94v-6.11H31.9Zm0,7.84h2.94v-6.66H31.9ZM36.05,119h3.2v-6.13h-3.2Zm0,7.82h3.2v-6.64h-3.2Z"/><path class="cls-1" d="M49.43,111.7a30,30,0,0,0-1.61,9.85c0,.73,0,2,.08,2.93,0,.17,0,.22,0,.59v.4l.09,0a18.34,18.34,0,0,1,1.23-3.69,2.46,2.46,0,0,0,.17-.42l1,.48a18,18,0,0,0-1.8,6,2.34,2.34,0,0,0,0,.42l-1.49.15c0-.19,0-.29-.13-.78a33.17,33.17,0,0,1-.59-6.23,36,36,0,0,1,1.09-8.63,13.07,13.07,0,0,0,.24-1.32Zm2.12,3.9a14.2,14.2,0,0,0,3.78.34c.82,0,1.39,0,2.25-.06,0-2,0-2,0-3.57a4.85,4.85,0,0,0-.06-.86h1.57a21.88,21.88,0,0,0-.15,3.29c0,.23,0,.57,0,1a14.22,14.22,0,0,0,3.64-.78l.06,1.43-1.47.3a20.37,20.37,0,0,1-2.23.33c0,2.08.07,3.15.24,5.94a15.32,15.32,0,0,1,3.5,2.06l.53.36-.65,1.47a11.46,11.46,0,0,0-3-2.18l-.21-.13-.18-.13a3.23,3.23,0,0,1,0,.55,3.77,3.77,0,0,1-.25,1.43c-.51,1.11-1.79,1.76-3.51,1.76-2.44,0-4-1.15-4-3s1.66-3,4-3a6,6,0,0,1,2.33.42c-.06-.44-.15-2.42-.21-5.48-.94,0-1.6.06-2.39.06s-1.64,0-2.38-.06a5.62,5.62,0,0,0-.67,0,2.16,2.16,0,0,0-.35,0l-.21,0h-.09Zm4,7.88c-1.63,0-2.7.69-2.7,1.74s1,1.7,2.43,1.7a2.89,2.89,0,0,0,2.14-.73,2.43,2.43,0,0,0,.4-1.64c0-.15,0-.63,0-.63A5.37,5.37,0,0,0,55.58,123.48Z"/><path class="cls-1" d="M68.38,123.73a21.64,21.64,0,0,1,4.22,4.45l-1.18,1.11a20.72,20.72,0,0,0-4.14-4.57Z"/><path class="cls-1" d="M86.23,113a19.21,19.21,0,0,0-2.46.13v-1.56a18.38,18.38,0,0,0,2.46.13h13.6a18.78,18.78,0,0,0,2.44-.13v1.56a19.42,19.42,0,0,0-2.44-.13H93.24v2.39a45.14,45.14,0,0,1,7.45,4.31l-.82,1.3a32.08,32.08,0,0,0-4.45-2.94,24.47,24.47,0,0,0-2.18-1.15v9.89a14.57,14.57,0,0,0,.15,2.47H91.64a14.73,14.73,0,0,0,.15-2.47V113Z"/><path class="cls-1" d="M106.3,114.11a8.39,8.39,0,0,0,1.68.11h4.7a7.75,7.75,0,0,0,1.68-.11v1.37a8.5,8.5,0,0,0-1.53-.09H108a11.46,11.46,0,0,0-1.68.09Zm.74-2.92a7.83,7.83,0,0,0,1.59.11h3.3a8,8,0,0,0,1.59-.11v1.33a10.26,10.26,0,0,0-1.59-.09h-3.3a10.58,10.58,0,0,0-1.59.09Zm.08,5.93a9.94,9.94,0,0,0,1.51.08h3.49a9.48,9.48,0,0,0,1.49-.08v1.3a9.3,9.3,0,0,0-1.49-.09h-3.49a8.88,8.88,0,0,0-1.51.09Zm0,2.87a8.6,8.6,0,0,0,1.51.09h3.49a8.21,8.21,0,0,0,1.49-.09v1.3a11.36,11.36,0,0,0-1.49-.08h-3.49a10.45,10.45,0,0,0-1.51.08Zm.11,9.58a14.62,14.62,0,0,0,.12-2V124.7a11.39,11.39,0,0,0-.1-1.75,12.44,12.44,0,0,0,1.68.09h3.19a7.59,7.59,0,0,0,1.51-.07c0,.47-.06.86-.06,1.64v3a14.07,14.07,0,0,0,.1,1.65h-1.3v-1h-3.78v1.33Zm1.34-2.42h3.8v-3h-3.8Zm8.15-.4c0,.42.1.55.54.65a14.13,14.13,0,0,0,2.46.13c2.18,0,2.87-.11,3.27-.48s.53-1.41.63-3.4a6.33,6.33,0,0,0,1.41.63c-.23,2-.48,3.1-.92,3.67s-1.54.86-4.45.86a14.71,14.71,0,0,1-3.45-.25c-.65-.21-.88-.57-.88-1.51V120a13.26,13.26,0,0,0-.1-2,19.44,19.44,0,0,0,2,.08h5.27v-5.4h-5.69a12.79,12.79,0,0,0-1.93.11V111.3a14,14,0,0,0,1.93.13h5.08a18.36,18.36,0,0,0,2-.09c0,.55-.07.9-.07,2.06v4a17.38,17.38,0,0,0,.09,2,20.44,20.44,0,0,0-2.06-.08h-5.16Z"/><path class="cls-1" d="M134.21,118.56c-.08.21-.08.21-.13.36l-.12.42-.11.46a18.6,18.6,0,0,1-3.67,7.25,4.79,4.79,0,0,0-1.39-.91,13.3,13.3,0,0,0,3.09-5.16,10.63,10.63,0,0,0,.73-2.86Zm2.94-5.14a9,9,0,0,0-.13-2.14h1.73a11.32,11.32,0,0,0-.11,2.18v1.37h5.29a13.2,13.2,0,0,0,2.46-.13v1.6a15.36,15.36,0,0,0-2.42-.11h-5.33v10.46a11.83,11.83,0,0,0,.11,2.22H137a11,11,0,0,0,.13-2.2V116.19H132a15.36,15.36,0,0,0-2.42.11v-1.6a13,13,0,0,0,2.44.13h5.12Zm5.9,4.73a14,14,0,0,0,.78,2.37,18.58,18.58,0,0,0,3.25,5.62,4.62,4.62,0,0,0-1.32,1,25.44,25.44,0,0,1-3.66-7.22,13.19,13.19,0,0,0-.52-1.37Zm.61-7.8a16.84,16.84,0,0,1,2.14,3.18l-1.07.6a17,17,0,0,0-2.12-3.23Zm2.6-.77a17.14,17.14,0,0,1,2.16,3.27l-1,.61a15.16,15.16,0,0,0-2.14-3.29Z"/><path class="cls-1" d="M160.63,111.05a6.53,6.53,0,0,0-.74,1.38,11.27,11.27,0,0,1-.65,1.16c.3,0,.3,0,6.49-.11a3.57,3.57,0,0,0,1.22-.21l.94,1a4.76,4.76,0,0,0-.61,1.38,23.8,23.8,0,0,1-5.48,9,23.36,23.36,0,0,1-6.63,4.33,3.81,3.81,0,0,0-1-1.3,19.67,19.67,0,0,0,4.35-2.29,15.07,15.07,0,0,0,3.63-3.32,26.63,26.63,0,0,0-4.7-3.4l1-1.07a30.22,30.22,0,0,1,4.64,3.25,25.18,25.18,0,0,0,2.92-6.09l-7.35.11a20.86,20.86,0,0,1-5,5.58,3.84,3.84,0,0,0-1.21-1,18.28,18.28,0,0,0,5.35-6,11.61,11.61,0,0,0,1.24-2.88Z"/><path class="cls-1" d="M175.54,126.08a18,18,0,0,0,6.11-1.62,15.84,15.84,0,0,0,8.56-9.34,4.32,4.32,0,0,0,1.29,1.24,18.45,18.45,0,0,1-6.41,8,21.15,21.15,0,0,1-7.83,3.13c-.57.13-.73.17-1.26.33Zm1.34-13a27.31,27.31,0,0,1,5.06,4l-1.09,1.3a22.91,22.91,0,0,0-5-4.11Z"/><path class="cls-1" d="M202.71,113.78a9,9,0,0,0,1-2.88l1.68.29a4.75,4.75,0,0,0-.55,1.14,14.64,14.64,0,0,1-.65,1.43,2.49,2.49,0,0,1,.44,0,29.81,29.81,0,0,0,6.62-.79l.12,1.43a7,7,0,0,0-.84.1c-2.18.29-4.38.46-6.93.55a16.22,16.22,0,0,1-1.88,3c-.21.25-.63.73-.72.8a1.43,1.43,0,0,0-.27.21,0,0,0,0,1,0,0v0l0,.06c.76-.59.76-.59,1-.73a5.5,5.5,0,0,1,3.17-1,2.55,2.55,0,0,1,2.77,2.33c1.53-.61,2.73-1.05,3.65-1.39a4.78,4.78,0,0,0,1.43-.61l.67,1.47a35.17,35.17,0,0,0-5.61,1.85,11.22,11.22,0,0,1,.05,1.28c0,.27,0,.74,0,1.16s0,.75,0,.94a3.94,3.94,0,0,0,.05.76l-1.43,0c.06-.46.12-1.75.12-3a5.93,5.93,0,0,0,0-.63c-2.85,1.35-3.94,2.33-3.94,3.59s1.3,2,4.26,2a17.59,17.59,0,0,0,5.6-.82l.19,1.62c-.31,0-.42,0-.84.1a32.89,32.89,0,0,1-5.1.42c-3.76,0-5.58-1.07-5.58-3.23,0-1.16.71-2.25,2.14-3.32a16.43,16.43,0,0,1,3.13-1.68c-.17-1.15-.68-1.66-1.66-1.66a7.87,7.87,0,0,0-4.68,2.23,6.74,6.74,0,0,0-1.62,1.74l-1.18-1.18a20.91,20.91,0,0,0,4.71-6l.19-.32a1.75,1.75,0,0,1-.4.05l-3.09-.07h-.34l-.46,0,0-1.44a30.46,30.46,0,0,0,4.5.23Z"/><path class="cls-1" d="M228.25,111.24a3.72,3.72,0,0,0-.46.86c-.55,1.13-.74,1.49-1,1.87.27-.07.27-.07,6.34-.17.74,0,.8,0,1.09-.15l.9.88a2.89,2.89,0,0,0-.42,1,22.28,22.28,0,0,1-4.19,7.9,20.81,20.81,0,0,1-7.31,5.25,3.16,3.16,0,0,0-1-1.24,17.86,17.86,0,0,0,7.41-5.32,19.09,19.09,0,0,0,3.61-7l-7.07.13a20.26,20.26,0,0,1-5,5.46,3.14,3.14,0,0,0-1.18-1.1,15.46,15.46,0,0,0,5.27-5.75,9.62,9.62,0,0,0,1.33-3.06Z"/><path class="cls-1" d="M246.79,111.7a12,12,0,0,0-.08,1.74v5.65a11.57,11.57,0,0,0,.08,1.74h-1.74a13.27,13.27,0,0,0,.08-1.76v-5.61a12.89,12.89,0,0,0-.08-1.76Zm9.3,0a9.84,9.84,0,0,0-.1,1.83V116a23.57,23.57,0,0,1-.53,6.41,8,8,0,0,1-4,4.66,16.14,16.14,0,0,1-3.82,1.51,4.06,4.06,0,0,0-.88-1.45,12.23,12.23,0,0,0,4-1.43,6.25,6.25,0,0,0,3.36-4.43,26.21,26.21,0,0,0,.29-5.35v-2.37a12.2,12.2,0,0,0-.08-1.85Z"/><path class="cls-1" d="M267.88,116.38A23.42,23.42,0,0,1,270,121l-1.42.48a17.68,17.68,0,0,0-2-4.7Zm11.84-.13a12,12,0,0,0-.47,1.71,18.83,18.83,0,0,1-1.84,4.7,15.28,15.28,0,0,1-7,6.07,4.34,4.34,0,0,0-1-1.18,13.49,13.49,0,0,0,6.66-5.48,15.85,15.85,0,0,0,1.78-4.51,8.6,8.6,0,0,0,.23-1.43v-.21Zm-7.56-.71a21,21,0,0,1,2,4.52l-1.38.48a18.55,18.55,0,0,0-1.93-4.6Z"/><path class="cls-1" d="M295.78,111.24a3.72,3.72,0,0,0-.46.86,20.24,20.24,0,0,1-1,1.87c.27-.07.27-.07,6.34-.17a2,2,0,0,0,1.09-.15l.9.88c-.19.26-.19.28-.42,1a22.14,22.14,0,0,1-4.2,7.9,20.68,20.68,0,0,1-7.3,5.25,3.25,3.25,0,0,0-1-1.24,17.93,17.93,0,0,0,7.41-5.32,19.39,19.39,0,0,0,3.61-7l-7.08.13a20.26,20.26,0,0,1-5,5.46,3,3,0,0,0-1.17-1.1,15.55,15.55,0,0,0,5.27-5.75,9.31,9.31,0,0,0,1.32-3.06Z"/><path class="cls-1" d="M311,122.34c0-.71,0-1.19,0-1.49,0-.14,0-.14,0-1.32a10.22,10.22,0,0,1-2.08,2.08,3.51,3.51,0,0,0-.77-1.16,14.39,14.39,0,0,0,3.67-3.67,9.55,9.55,0,0,0,1.24-2.14l1.2.73a6.82,6.82,0,0,0-.61.93,16.78,16.78,0,0,1-1.39,1.91v8.67a22.74,22.74,0,0,0,.11,2.5h-1.54a16.72,16.72,0,0,0,.13-2.44ZM314.1,111l-.49.63a16.61,16.61,0,0,1-4.17,4.11,3.47,3.47,0,0,0-.84-1,11.16,11.16,0,0,0,4.32-4.49Zm6.67,0c-.17.24-.23.3-.52.76a25.13,25.13,0,0,1-2.33,2.83c.86.74,1.17,1,1.89,1.71a21.5,21.5,0,0,0,3.36-4.27l1.32.78c-.21.23-.34.38-.84,1a45.68,45.68,0,0,1-4.51,4.76c2.91-.16,2.91-.16,5.6-.42a21.19,21.19,0,0,0-1.64-1.8l1-.67a40.9,40.9,0,0,1,3.63,4.36l-1.09.76c-.57-.84-.73-1.09-1.15-1.68-3.59.4-3.59.4-5.9.55a12.32,12.32,0,0,1-1,1.63h4a11.47,11.47,0,0,0,1.72-.1l.86.8a4.19,4.19,0,0,0-.48.63,16,16,0,0,1-3.05,3.12,17.73,17.73,0,0,0,6.18,2.25,7.77,7.77,0,0,0-.7,1.32,18.87,18.87,0,0,1-4.72-1.72,12.52,12.52,0,0,1-1.85-1.07,18.61,18.61,0,0,1-6.68,2.86,3.77,3.77,0,0,0-.79-1.22,17.62,17.62,0,0,0,6.44-2.42,12.85,12.85,0,0,1-2.41-2.62,14.42,14.42,0,0,1-2.88,2.31,5.15,5.15,0,0,0-.94-1,11.35,11.35,0,0,0,4.93-4.66l-3.3.17a7.27,7.27,0,0,0-1,.1l-.23-1.4a10,10,0,0,0,1.51.08l2.24-.06c1.14-1.07,1.14-1.07,1.52-1.45a32.57,32.57,0,0,0-4.2-3.45l.9-1c.8.61,1.05.82,1.38,1.07a13.13,13.13,0,0,0,2.5-3.51Zm-2.83,11.36a12,12,0,0,0,2.6,2.67,10.73,10.73,0,0,0,2.67-2.67Z"/><path class="cls-1" d="M337,123.23a25.48,25.48,0,0,1-5,2.79,4.81,4.81,0,0,0-.84-1.2,18.87,18.87,0,0,0,7.58-4.55h-5.06a18.66,18.66,0,0,0-2.33.12V119a11.87,11.87,0,0,0,2.33.13h6.19v-2H335.5a14.4,14.4,0,0,0-2.15.09v-1.35a14.75,14.75,0,0,0,2.15.09h4.34v-2H334.4a14.06,14.06,0,0,0-2.22.11v-1.39a14.1,14.1,0,0,0,2.27.13h5.39v-.48a10.25,10.25,0,0,0-.12-1.83h1.53a8.47,8.47,0,0,0-.13,1.83v.48h5.78a14.76,14.76,0,0,0,2.31-.13V114a15,15,0,0,0-2.27-.11h-5.82v2h4.66a15.73,15.73,0,0,0,2.23-.09v1.35a15.55,15.55,0,0,0-2.23-.09h-4.66v2h6.57A13.65,13.65,0,0,0,350,119v1.43a18.63,18.63,0,0,0-2.29-.12h-5.85a12.36,12.36,0,0,0,2.18,3.4,17.08,17.08,0,0,0,3.09-2.94l1.21.82-.42.39a28.47,28.47,0,0,1-3,2.61,16,16,0,0,0,5.56,3.25,5.52,5.52,0,0,0-.9,1.26c-4.64-2.1-7.16-4.55-9-8.79h-.23a18.92,18.92,0,0,1-2,2v4.91c1.7-.38,2.6-.63,4.74-1.26v1.28c-2.73.78-4.68,1.26-7.79,1.87l-1,.25-.35-1.47a19.06,19.06,0,0,0,3.1-.4Z"/><path class="cls-1" d="M359.58,120.24a18,18,0,0,1-4.51,7.27,5.43,5.43,0,0,0-1.2-1,14.48,14.48,0,0,0,4.37-6.82Zm-3.17-2.35a15.09,15.09,0,0,0-2.18.13v-1.55a16,16,0,0,0,2.2.12H370a16.35,16.35,0,0,0,2.2-.12V118a15.09,15.09,0,0,0-2.18-.13h-6v9.41c0,1.36-.42,1.68-2.29,1.68-.82,0-1.91,0-2.77-.13a5.14,5.14,0,0,0-.36-1.45,18,18,0,0,0,3,.28c.86,0,1-.09,1-.53v-9.26Zm13.71-4.66a17.65,17.65,0,0,0-2.2-.12h-9.58a18.36,18.36,0,0,0-2.18.12V111.7a16.15,16.15,0,0,0,2.2.12h9.58a16.44,16.44,0,0,0,2.18-.12Zm-1.85,6.47a20.26,20.26,0,0,0,2.88,4.87,14,14,0,0,0,1.66,1.74,6.51,6.51,0,0,0-1.18,1.09,22.76,22.76,0,0,1-4.59-7.16Z"/><path class="cls-1" d="M378.27,115.27a9.76,9.76,0,0,0,1.62.1,47.88,47.88,0,0,0,6.26-.44c-.32-.71-.65-1.55-1-2.5-.23-.54-.36-.84-.55-1.21l1.66-.24a6.33,6.33,0,0,0,.61,1.89,18.91,18.91,0,0,0,.75,1.85,24.56,24.56,0,0,0,5.09-1.32l.21,1.49c-.45.08-.61.13-1.24.29a27.39,27.39,0,0,1-2.84.65l-.71.15a38.22,38.22,0,0,0,3.78,6.11l-1.41.8A4.24,4.24,0,0,0,389,122a11.25,11.25,0,0,0-3.67-.55,7.49,7.49,0,0,0-4,.88,2.41,2.41,0,0,0-1.13,2A2.11,2.11,0,0,0,381,126a7.21,7.21,0,0,0,4.1,1,13.79,13.79,0,0,0,6-1.34l.23,1.61a17.33,17.33,0,0,1-6.17,1.14c-2.56,0-4.49-.57-5.46-1.58a3.39,3.39,0,0,1-.95-2.31,3.93,3.93,0,0,1,2.38-3.42,9,9,0,0,1,4.07-.78,10.54,10.54,0,0,1,4.35.76,24.91,24.91,0,0,1-2.52-4.11c-.23-.45-.23-.49-.36-.7a60.12,60.12,0,0,1-7.47.55,4.83,4.83,0,0,0-.82.06Z"/><path class="cls-1" d="M399.17,123.79a32,32,0,0,0,3.69-3.55c0-.84.07-2.16.13-4a20.39,20.39,0,0,0-3.3.3l-.08-1.45a4.4,4.4,0,0,0,.65,0L403,115c.06-1.59.08-2.54.08-2.81a9,9,0,0,0-.06-1l1.66,0a23.31,23.31,0,0,0-.25,3.74,1.19,1.19,0,0,0,.42-.11l.54.65a8,8,0,0,0-1.07,1.31,3.72,3.72,0,0,1,0,.52c0,.42,0,.42,0,1.41a1.18,1.18,0,0,1,0,.19c0,.16,0,.21,0,.33l0,0a14.82,14.82,0,0,1,2.67-2.45c1.91-1.54,3.48-2.31,4.74-2.31a2.28,2.28,0,0,1,2.46,2.45,14.44,14.44,0,0,1-.48,3.07c-.78,3.38-.91,4.11-.91,5s.44,1.5,1.26,1.5a2.56,2.56,0,0,0,1.79-1.16,8.59,8.59,0,0,0,1.19-2.41,6.88,6.88,0,0,0,1,1.42,10.47,10.47,0,0,1-1.3,2.08,3.62,3.62,0,0,1-2.9,1.51,2.53,2.53,0,0,1-1.47-.44,2.61,2.61,0,0,1-1-2.39c0-1.07.05-1.3.8-4.89a15.88,15.88,0,0,0,.53-3.15,1.07,1.07,0,0,0-1.16-1.14,6,6,0,0,0-3.17,1.43,34.35,34.35,0,0,0-4.05,3.57v4.54a34,34,0,0,0,.06,3.48h-1.64a17.2,17.2,0,0,0,.15-3.46c0-2.46,0-2.46.06-3.4h0a2.07,2.07,0,0,1-.38.5l-1,1.16c-.24.25-.53.58-.89,1a4.4,4.4,0,0,0-.54.67Z"/><path class="cls-1" d="M425.19,112.27a10.07,10.07,0,0,0,2,.12c1.74,0,4.54-.12,6.42-.27a2.2,2.2,0,0,0,1-.23l.88,1.15a4.13,4.13,0,0,0-1.07.88,53.58,53.58,0,0,1-6.9,6l0,.06a10.61,10.61,0,0,1,5.14-1.3c3.51,0,5.76,1.72,5.76,4.41,0,3.27-3.05,5.44-7.71,5.44-3,0-4.66-1.1-4.66-3,0-1.41,1.3-2.45,3-2.45a4.21,4.21,0,0,1,3.47,1.72,5.88,5.88,0,0,1,1,2c2.21-.61,3.36-1.89,3.36-3.67,0-2-1.68-3.21-4.51-3.21a13.44,13.44,0,0,0-8.84,3.59l-.95-1.35a21.91,21.91,0,0,0,2.94-2.14c2.25-1.78,5.57-4.7,7-6.13l.29-.29.08-.09.09-.08,0,0-.19,0c-.67.12-3.19.27-6.39.37-.46,0-.67,0-1.13.11Zm3.94,11.94c-1.05,0-1.7.51-1.7,1.3a1.46,1.46,0,0,0,.84,1.29,5.44,5.44,0,0,0,2.35.48,7.37,7.37,0,0,0,1.54-.15C431.7,125.22,430.65,124.21,429.13,124.21Z"/><path class="cls-1" d="M451.71,121.19V110.25h5.56v1.3h-4.13v9.64Z"/><path class="cls-1" d="M471,110.5a14.24,14.24,0,0,0,3.46,3.8,22.24,22.24,0,0,0,5.75,3.45,5.81,5.81,0,0,0-.84,1.32,29.73,29.73,0,0,1-5.92-3.86,17.87,17.87,0,0,1-3.23-3.53,19.71,19.71,0,0,1-4.41,4.6,24.53,24.53,0,0,1-4.45,2.73,3.58,3.58,0,0,0-.88-1.2,21.83,21.83,0,0,0,5.71-3.66,15.12,15.12,0,0,0,3.23-3.65Zm-7.33,18.77a15.94,15.94,0,0,0,.12-2.05v-4.65a13.91,13.91,0,0,0-.1-1.93,10.09,10.09,0,0,0,1.64.09h9.84a10.09,10.09,0,0,0,1.64-.09,13.39,13.39,0,0,0-.1,1.93v4.65a15.29,15.29,0,0,0,.12,2.05h-1.51v-1.21H465.17v1.21Zm1.51-2.45h10.14V122H465.17Zm.15-9.93A11.27,11.27,0,0,0,467,117h6.5a13.24,13.24,0,0,0,1.77-.08v1.42a13.63,13.63,0,0,0-1.77-.08H467a12.61,12.61,0,0,0-1.64.08Z"/><path class="cls-1" d="M484.45,113.25a15,15,0,0,0-.09-1.89,15.16,15.16,0,0,0,2,.09h12.95a14.54,14.54,0,0,0,1.94-.09,14.8,14.8,0,0,0-.09,1.91v14.24c0,1.26-.42,1.51-2.56,1.51-.78,0-1.7,0-2.73-.1a6.61,6.61,0,0,0-.31-1.37,21,21,0,0,0,3.23.25c.8,0,1-.08,1-.46V112.66H485.83v14.51a13.54,13.54,0,0,0,.15,2.25h-1.66a16.45,16.45,0,0,0,.13-2.25Zm2.81,1.58a9,9,0,0,0,1.7.1h7.81a8.9,8.9,0,0,0,1.7-.1v1.4a9.08,9.08,0,0,0-1.65-.1h-7.88a9.8,9.8,0,0,0-1.68.1Zm9.6,8.84a10.74,10.74,0,0,0,.06,1.21c-.42,0-.82-.06-1.3-.06H490v1.85h-1.36a17.54,17.54,0,0,0,.08-1.93v-5a12.79,12.79,0,0,0-.06-1.28c.44,0,.86.06,1.41.06h5.29c.69,0,1.07,0,1.53-.06a9.59,9.59,0,0,0-.06,1.26Zm-6.83,0h5.53v-4H490Z"/><path class="cls-1" d="M515.8,127.68a9.45,9.45,0,0,0,.15,1.95h-1.64a10.51,10.51,0,0,0,.15-1.95v-3.51h-6.05a15.47,15.47,0,0,0-2.37.13v-1.52a13.44,13.44,0,0,0,2.37.15h6.05v-.23a12,12,0,0,0-.11-1.68h1.56a8.39,8.39,0,0,0-.11,1.68v.23h6.45a13.54,13.54,0,0,0,2.39-.15v1.52a14.91,14.91,0,0,0-2.39-.13H515.8Zm-1.39-15.54a9.44,9.44,0,0,0-.14-1.76h1.66a8.49,8.49,0,0,0-.15,1.76v.59H522a13.3,13.3,0,0,0,2.33-.15v1.49A15.8,15.8,0,0,0,522,114H508.64a16.44,16.44,0,0,0-2.31.12v-1.49a13.6,13.6,0,0,0,2.33.15h5.75ZM512.29,115a20,20,0,0,1-.88,2,10.45,10.45,0,0,0,3.3,3,5.68,5.68,0,0,0-.88,1.1,14.18,14.18,0,0,1-3-3.07,15.56,15.56,0,0,1-3.29,3.93,4.37,4.37,0,0,0-1-1,10.31,10.31,0,0,0,2.64-2.63,10.51,10.51,0,0,0,1.81-3.82Zm7.69.13a13.71,13.71,0,0,1-.74,1.93,10.54,10.54,0,0,0,4.9,3.36,4.82,4.82,0,0,0-.78,1.26,13,13,0,0,1-4.64-3.55,11.46,11.46,0,0,1-2.23,2.86,3.65,3.65,0,0,0-1-1,7.38,7.38,0,0,0,2.1-2.48,9.42,9.42,0,0,0,1.09-2.85Z"/><path class="cls-1" d="M531.57,118.5a15.23,15.23,0,0,0-2.24.11v-1.3a15.88,15.88,0,0,0,2.24.1h3A12.65,12.65,0,0,0,533.5,115h-2.64a23.45,23.45,0,0,0-2.37.1V113.8a17.17,17.17,0,0,0,2.33.12h1.45a11.16,11.16,0,0,0-1.73-2.22l1.2-.57a12.6,12.6,0,0,1,1.87,2.79h1.76v-1.61a10.75,10.75,0,0,0-.12-1.77h1.42a12.53,12.53,0,0,0-.08,1.75v1.63h2.23v-1.63a11.17,11.17,0,0,0-.09-1.75h1.43a10.18,10.18,0,0,0-.13,1.77v1.61h2a13.75,13.75,0,0,0,1.66-2.89l1.28.54a19.71,19.71,0,0,1-1.58,2.35h1.26a17.16,17.16,0,0,0,2.36-.12v1.34a23.68,23.68,0,0,0-2.38-.1h-2.47a24.88,24.88,0,0,1-1.14,2.37h3a16.63,16.63,0,0,0,2.27-.1v1.3a15.51,15.51,0,0,0-2.27-.11h-5.71V120h4.41a16.63,16.63,0,0,0,2.27-.1v1.28a16.87,16.87,0,0,0-2.27-.11h-4.41v1.62h6.36a16.65,16.65,0,0,0,2.4-.12V124a20.93,20.93,0,0,0-2.38-.13h-5.5a16.54,16.54,0,0,0,8.34,3.64,4.7,4.7,0,0,0-.82,1.3,22.94,22.94,0,0,1-5.14-2,14,14,0,0,1-3.34-2.57c.06,1,.08,1.33.08,1.79v1.4a15,15,0,0,0,.13,2.19h-1.51a14.55,14.55,0,0,0,.12-2.21V126c0-.48,0-1,.09-1.77-2.06,2.15-4.06,3.28-7.9,4.52a4.24,4.24,0,0,0-.86-1.22,15.92,15.92,0,0,0,7.79-3.72H531a20.67,20.67,0,0,0-2.38.13V122.6a16.9,16.9,0,0,0,2.38.12h6V121.1H532.9a16.54,16.54,0,0,0-2.25.11v-1.28a16.84,16.84,0,0,0,2.25.1h4.15V118.5Zm8.11-1.09a11.06,11.06,0,0,0,1.07-2.37h-5.84a18.12,18.12,0,0,1,1,2.37Z"/><path class="cls-1" d="M552.91,112.54a9.48,9.48,0,0,0-1.81.12v-1.42a11.86,11.86,0,0,0,1.89.12h3.43a8.64,8.64,0,0,0,1.76-.12v1.38a14.47,14.47,0,0,0-1.7-.08h-1.3a20.72,20.72,0,0,1-1.45,5.33h2.62a9.88,9.88,0,0,0,1.3-.06,16.28,16.28,0,0,0-.06,1.68V126a12.49,12.49,0,0,0,.09,1.76h-1.33v-1h-2.6v2.23h-1.39a12.09,12.09,0,0,0,.13-2v-4.66c0-.76,0-1.41.06-2.35a9.94,9.94,0,0,1-1.57,2.56,3.36,3.36,0,0,0-.76-1.26,14.31,14.31,0,0,0,2.9-5.34,14.53,14.53,0,0,0,.71-3.29Zm.84,13h2.6V119h-2.6Zm7.28-13a14.27,14.27,0,0,0-2,.12v-1.44a13.41,13.41,0,0,0,2.12.12h6.63a14.57,14.57,0,0,0,2.1-.12v1.44a11.48,11.48,0,0,0-2-.12h-.51v5.81H568a11.61,11.61,0,0,0,2.1-.12v1.49a14,14,0,0,0-2.1-.13h-.67v7.54a15.28,15.28,0,0,0,.15,2.25h-1.62a15.1,15.1,0,0,0,.15-2.25v-7.54h-3.47c-.21,4.69-1.11,7.23-3.5,10a3.91,3.91,0,0,0-1.22-1c2.21-2.1,3.19-4.72,3.38-9h-.59a11.11,11.11,0,0,0-2.07.13v-1.47a14.15,14.15,0,0,0,2.07.1h.63v-5.81Zm1.54,5.1v.71H566v-5.81h-3.42Z"/><path class="cls-1" d="M584.76,120.92a17.68,17.68,0,0,0,2.36-.11c0,.46-.07.9-.09,1.85l-.08,4.26c0,.63.23.72,1.87.72,1.47,0,1.89-.11,2-.49a12.08,12.08,0,0,0,.34-3.15,5,5,0,0,0,1.36.55c-.33,4.2-.46,4.32-3.84,4.32-2.56,0-3.11-.27-3.11-1.68v-.1l.09-4.94h-3.91a8.1,8.1,0,0,1-1.63,3.47,9.77,9.77,0,0,1-2.25,2,14.35,14.35,0,0,1-3.49,1.72,3.2,3.2,0,0,0-.92-1.2,13.16,13.16,0,0,0,4-1.89,6.86,6.86,0,0,0,2.92-4.12h-3.32a15.49,15.49,0,0,0-2.27.13v-1.49a14.67,14.67,0,0,0,2.23.13h3.61a16,16,0,0,0,.15-1.77,6.29,6.29,0,0,0-.09-1.13l1.6,0a5.77,5.77,0,0,0-.17,1.32c0,.51-.08,1-.17,1.56ZM582,112a6.22,6.22,0,0,0-.15-1.51h1.64a6.34,6.34,0,0,0-.15,1.51v.66h6.24a18.46,18.46,0,0,0,2.12-.11,9.91,9.91,0,0,0-.08,1.45v1.07a10.21,10.21,0,0,0,.08,1.47h-1.38v-2.69h-5.23v3.05c0,.25,0,.35.14.42a4.37,4.37,0,0,0,1.35.14,3.84,3.84,0,0,0,1.7-.23c.23-.17.34-.73.36-1.7a4.18,4.18,0,0,0,1.26.4c-.11,1.32-.28,1.91-.63,2.23a4.82,4.82,0,0,1-2.71.46c-2.21,0-2.73-.23-2.73-1.16v-3.61h-2.58a5.76,5.76,0,0,1-.74,2.33,5.9,5.9,0,0,1-3.32,2.67,20.4,20.4,0,0,1-1.95.61,5.64,5.64,0,0,0-.8-1.16c2.25-.42,3.3-.84,4.2-1.68a3.92,3.92,0,0,0,1.28-2.77h-4.47v2.67H574a9.11,9.11,0,0,0,.09-1.47v-1a8.55,8.55,0,0,0-.09-1.45,18.75,18.75,0,0,0,2.13.11H582Z"/><path class="cls-1" d="M607.07,119.93a1.73,1.73,0,1,1-1.73-1.72A1.73,1.73,0,0,1,607.07,119.93Z"/><path class="cls-1" d="M620.84,114.64a12.25,12.25,0,0,1-1.09,2,5,5,0,0,0-1.17-.61,11.33,11.33,0,0,0,1.91-4,5.76,5.76,0,0,0,.23-1.17l1.36.33a7,7,0,0,0-.35,1.09c-.15.49-.24.76-.4,1.22h2.22v-.82a11.65,11.65,0,0,0-.12-2.14H625a10.18,10.18,0,0,0-.13,2.12v.84H627a12.58,12.58,0,0,0,2-.1v1.38a13.2,13.2,0,0,0-2-.1h-2.15v2.48h2.94a13.52,13.52,0,0,0,2-.11v1.39a10.9,10.9,0,0,0-2-.11h-2.92v2.29h2.23a14.57,14.57,0,0,0,2-.1,17,17,0,0,0-.08,1.93v4.15c0,1-.42,1.26-2.1,1.26-.3,0-.4,0-1.16,0a4.37,4.37,0,0,0-.21-1.26,7.22,7.22,0,0,0,1.47.11c.63,0,.76-.07.76-.36v-4.51h-2.86v5.35a15.8,15.8,0,0,0,.11,2.37h-1.51a19.59,19.59,0,0,0,.12-2.37v-5.35h-2.87v4a20.84,20.84,0,0,0,.08,2.19h-1.45a11.79,11.79,0,0,0,.11-2.17v-3.31a15.57,15.57,0,0,0-.09-2,15.64,15.64,0,0,0,2,.1h2.22v-2.29h-3a11.83,11.83,0,0,0-2,.13V117a10.29,10.29,0,0,0,1.93.13h3v-2.48Zm11.45-2.9a11.7,11.7,0,0,0-.13,2.29v8.23a13.3,13.3,0,0,0,.11,2.35h-1.54a13.66,13.66,0,0,0,.11-2.35v-8.21a12.25,12.25,0,0,0-.13-2.31Zm4.32-1.18a15.82,15.82,0,0,0-.14,2.55V127.3c0,1.53-.45,1.89-2.36,1.89-.54,0-1.21,0-2.22-.11a4,4,0,0,0-.4-1.34,19.36,19.36,0,0,0,2.64.21c.87,0,1-.11,1-.63V113.13a16.36,16.36,0,0,0-.14-2.57Z"/><path class="cls-1" d="M647.35,110.77c-.26.57-.32.76-.49,1.18a27.06,27.06,0,0,1-1.55,3.49v11.48a16.89,16.89,0,0,0,.15,2.52h-1.64a19.84,19.84,0,0,0,.14-2.56v-7c0-.9,0-1.47.09-2.71a15.78,15.78,0,0,1-2.61,3.32,4,4,0,0,0-.88-1.12,18,18,0,0,0,4.43-6.29,11.2,11.2,0,0,0,.89-2.82Zm3.21,4.14a23.65,23.65,0,0,1-3.34,5.12,3.06,3.06,0,0,0-1.05-1,18.35,18.35,0,0,0,3.72-5.76,11.92,11.92,0,0,0,.88-3l1.47.48a10.3,10.3,0,0,0-.42,1.08c-.3.86-.4,1.13-.72,1.86h6.66a10.63,10.63,0,0,0,1.91-.12V115a10.85,10.85,0,0,0-1.91-.11h-4.94v3.4h4.27a12.48,12.48,0,0,0,1.85-.12v1.45a12.3,12.3,0,0,0-1.85-.13h-4.27v3.4h4.33a11.24,11.24,0,0,0,1.85-.13v1.45a12.57,12.57,0,0,0-1.85-.12h-4.33v3.21a11.73,11.73,0,0,0,.15,2.2h-1.62a12.35,12.35,0,0,0,.13-2.2V114.91Z"/><path class="cls-1" d="M666.31,122.7a15.51,15.51,0,0,1-2.27,6.87,4.24,4.24,0,0,0-1.11-1,10.66,10.66,0,0,0,1.83-4.41,55.08,55.08,0,0,0,.69-10,24.87,24.87,0,0,0-.11-3,24.89,24.89,0,0,0,2.54.09h10.94a17.24,17.24,0,0,0,2.23-.09c0,.51-.07,1-.07,1.62v1.47a14.7,14.7,0,0,0,.07,1.53c-.88,0-1.43-.06-2.1-.06H666.71c0,2.81-.09,3.78-.27,5.82h4.15v-2.48h-1.3a17.23,17.23,0,0,0-1.89.08v-1.3a10.18,10.18,0,0,0,1.91.11h1.28v-.28a14.51,14.51,0,0,0-.08-1.49H672a6.69,6.69,0,0,0-.11,1.49V118h4v-.28a9.67,9.67,0,0,0-.1-1.49h1.49a7.1,7.1,0,0,0-.11,1.49V118H679a10.33,10.33,0,0,0,2-.11v1.3a17,17,0,0,0-2-.08h-1.79v2.48h2.46a15.69,15.69,0,0,0,2.27-.13v1.39a16.55,16.55,0,0,0-2.25-.13H674a7,7,0,0,0,2.08,2.65,13,13,0,0,0,2.92-2.5l1.18.77A27,27,0,0,1,677,126a13.8,13.8,0,0,0,5.43,2.18,4.12,4.12,0,0,0-.84,1.28,16,16,0,0,1-6.38-3.27,8.76,8.76,0,0,1-2.58-3.53h-2.12v4.75c1.76-.34,2.48-.51,4.37-1v1.22c-2.25.6-3.13.79-7.44,1.63l-.73.17-.34-1.45h.19a18.48,18.48,0,0,0,2.65-.33v-5Zm13.39-8.06v-2.21h-13v2.21Zm-3.82,4.45h-4v2.48h4Z"/><path class="cls-1" d="M704.86,111.82a13.44,13.44,0,0,0-.17,2.31v11.3a13.69,13.69,0,0,0,.17,2.35h-2a12.62,12.62,0,0,0,.17-2.35v-5.31h-9.49v5.31a13.11,13.11,0,0,0,.16,2.35h-2a12,12,0,0,0,.17-2.35V114.18a12.46,12.46,0,0,0-.17-2.36h2a13.36,13.36,0,0,0-.16,2.31v4.5h9.49v-4.45a12.46,12.46,0,0,0-.17-2.36Z"/><path class="cls-1" d="M709.61,127.78a12.55,12.55,0,0,0,.17-2.35V114.15a14.94,14.94,0,0,0-.17-2.39c.76,0,1.34.06,2.31.06h4.28c3.24,0,5.06,1.66,5.06,4.58,0,3.09-1.89,4.87-5.16,4.87h-4.68v4.14a12.38,12.38,0,0,0,.17,2.37Zm6.49-8c2.22,0,3.48-1.19,3.48-3.33s-1.21-3.22-3.48-3.22h-4.68v6.55Z"/><path class="cls-1" d="M730,118.67v10.94H724.4v-1.3h4.13v-9.64Z"/><path class="cls-1" d="M748.08,113.78a9,9,0,0,0,1-2.88l1.68.29a4.75,4.75,0,0,0-.55,1.14,14.64,14.64,0,0,1-.65,1.43,2.49,2.49,0,0,1,.44,0,29.81,29.81,0,0,0,6.62-.79l.12,1.43a7,7,0,0,0-.84.1c-2.18.29-4.39.46-6.93.55a16.22,16.22,0,0,1-1.88,3c-.21.25-.63.73-.72.8a1.43,1.43,0,0,0-.27.21,0,0,0,0,1,0,0v0a.15.15,0,0,0,0,.06c.76-.59.76-.59,1-.73a5.5,5.5,0,0,1,3.17-1,2.55,2.55,0,0,1,2.77,2.33c1.53-.61,2.73-1.05,3.65-1.39a4.78,4.78,0,0,0,1.43-.61l.67,1.47a35.17,35.17,0,0,0-5.61,1.85,11.22,11.22,0,0,1,.05,1.28c0,.27,0,.74,0,1.16s0,.75,0,.94a3.94,3.94,0,0,0,.05.76l-1.43,0c.06-.46.12-1.75.12-3a5.93,5.93,0,0,0,0-.63c-2.85,1.35-3.94,2.33-3.94,3.59s1.3,2,4.26,2a17.59,17.59,0,0,0,5.6-.82l.19,1.62c-.31,0-.42,0-.84.1a32.79,32.79,0,0,1-5.1.42c-3.76,0-5.58-1.07-5.58-3.23,0-1.16.71-2.25,2.14-3.32a16.43,16.43,0,0,1,3.13-1.68c-.17-1.15-.68-1.66-1.66-1.66a7.87,7.87,0,0,0-4.68,2.23,6.74,6.74,0,0,0-1.62,1.74l-1.18-1.18a20.91,20.91,0,0,0,4.71-6l.19-.32a1.75,1.75,0,0,1-.4.05L744,115h-.34l-.46,0,0-1.44a30.46,30.46,0,0,0,4.5.23Z"/><path class="cls-1" d="M769.92,120.48c-1.36,1.13-2,2.09-2,3.08s.61,1.66,1.78,2.06a13.54,13.54,0,0,0,3.85.42,19.92,19.92,0,0,0,6.29-.8L780,127a5.21,5.21,0,0,0-.71.11,34.81,34.81,0,0,1-5.67.48,14.78,14.78,0,0,1-4.83-.65,3.34,3.34,0,0,1-2.39-3.17c0-1.37.8-2.69,2.41-4Zm-2.2-7.67a23.82,23.82,0,0,0,5.58.5,22.57,22.57,0,0,0,5.31-.44l.11,1.39a32.28,32.28,0,0,0-5.29,3.19l-1.07-.86a32,32,0,0,1,3.71-2.22,17.41,17.41,0,0,1-3.17.27,43.3,43.3,0,0,1-4.62-.27c-.39-.05-.39-.05-.69-.07Zm10.47,3.63a16.69,16.69,0,0,1,2.15,3.26l-1.05.63a17.06,17.06,0,0,0-2.14-3.34Zm2.29-1.23a16.25,16.25,0,0,1,2.19,3.27l-1,.59a18,18,0,0,0-2.14-3.3Z"/><path class="cls-1" d="M791.87,126.06c-1,0-1.81,0-2.35.08a18.09,18.09,0,0,0,.08-2.14v-3.13c0-.79,0-1.38-.06-2,.52,0,1.15.06,2.18.06h8.78a19.73,19.73,0,0,0,2.16-.08c0,.56-.06,1-.06,2V124a16.86,16.86,0,0,0,.08,2.18c-.57-.06-1.32-.08-2.33-.08h-1.83v1.39c0,.63.23.69,2.19.69,2.39,0,3-.08,3.21-.44a4.91,4.91,0,0,0,.44-2,3.53,3.53,0,0,0,1.24.53,4.47,4.47,0,0,1-.88,2.5c-.46.42-1.33.54-3.78.54-3.13,0-3.7-.23-3.7-1.47v-1.74h-2.79c-.9,2.25-3.23,3.4-6.93,3.49a4.74,4.74,0,0,0-.69-1.26c.46,0,.69,0,.92,0,2.69,0,4.6-.8,5.36-2.25Zm1-8.9h1.78a11.11,11.11,0,0,0,1.79-.09v1.08a15.66,15.66,0,0,0-1.79-.09h-5.1c-.74,0-1.22,0-1.85.06,0-.5.06-1,.06-1.89V113a17.94,17.94,0,0,0-.08-2,15,15,0,0,0,2.06.09h4.79a10.38,10.38,0,0,0,1.91-.11v1.14a13,13,0,0,0-1.79-.09h-1.8v1.14h1.32a13,13,0,0,0,1.72-.07,8.17,8.17,0,0,0-.06,1V115a7.52,7.52,0,0,0,.06,1,16.87,16.87,0,0,0-1.85-.07H792.9Zm-1.16-4V112H789v1.14Zm3,2V114H789v1.11ZM789,116v1.18h2.79V116Zm1.87,5h10.52v-1.07H790.84Zm0,2h10.52V121.9H790.84Zm0,2.1h10.52v-1.17H790.84Zm7.68-11.59a11.8,11.8,0,0,1-1.72,2.08,3.07,3.07,0,0,0-.9-.86,8,8,0,0,0,2.75-4.22l1.26.34a16.39,16.39,0,0,1-.72,1.57h4.23a10.88,10.88,0,0,0,1.78-.1v1.3a10.71,10.71,0,0,0-1.78-.11Zm-.67,2.15a10.35,10.35,0,0,0,1.74.1h3.07a10.37,10.37,0,0,0,1.78-.1V117a10.79,10.79,0,0,0-1.78-.11h-3a10.61,10.61,0,0,0-1.79.11Z"/><path class="cls-1" d="M822.46,112.08c-.23.19-.4.33-2.58,2.43a60.35,60.35,0,0,1-4.83,4c-.78.59-.92.76-.92,1s.17.53,1.87,1.85a61.4,61.4,0,0,1,6.71,5.73,7.06,7.06,0,0,0,.59.53l-1.32,1.3a19,19,0,0,0-2.71-2.88c-1.41-1.3-2.25-2-5.31-4.39-1.18-.92-1.51-1.38-1.51-2.1a2,2,0,0,1,.61-1.4,13.87,13.87,0,0,1,1.78-1.43A33,33,0,0,0,821,111Z"/><path class="cls-1" d="M832.65,114.72a14.06,14.06,0,0,0,2.62.19c.42,0,.66,0,1.26,0a25.93,25.93,0,0,0,.47-3.72V111l1.66.16c-.09.34-.11.44-.17.74l-.21,1.26c-.13.73-.17,1-.27,1.59a16.45,16.45,0,0,0,3.77-.71l.11,1.45-.21,0-.38.08a26.25,26.25,0,0,1-3.55.51,56.09,56.09,0,0,1-3.88,12.34l-1.53-.65a42.67,42.67,0,0,0,3.94-11.61c-.42,0-.67,0-1.45,0s-.92,0-1.74,0H833l-.36,0Zm9.39,7.62a6.78,6.78,0,0,0-.63.8,2.51,2.51,0,0,0-.53,1.49c0,1.26,1.28,1.93,3.68,1.93a15.64,15.64,0,0,0,4.64-.71l.14,1.57-.27,0-.65.12a23.23,23.23,0,0,1-3.74.34c-3.44,0-5.23-1.07-5.23-3.15,0-1,.3-1.6,1.41-3Zm6.48-3.63a22,22,0,0,0-2.47-.15,18.11,18.11,0,0,0-5.25.72l-.15-1.43a24,24,0,0,1,5.56-.69c.4,0,.72,0,2.29.06Zm-3.15-7.37a15.94,15.94,0,0,1,2.17,3.26l-1,.63a15.39,15.39,0,0,0-2.17-3.32Zm2.38-1.13a16.85,16.85,0,0,1,2.16,3.25l-1,.61a15.68,15.68,0,0,0-2.14-3.3Z"/><path class="cls-1" d="M856.11,115.27a9.56,9.56,0,0,0,1.61.1,47.76,47.76,0,0,0,6.26-.44c-.31-.71-.65-1.55-1-2.5-.23-.54-.35-.84-.54-1.21l1.65-.24a7.05,7.05,0,0,0,.61,1.89,17.64,17.64,0,0,0,.76,1.85,24.27,24.27,0,0,0,5.08-1.32l.21,1.49c-.44.08-.61.13-1.24.29a27.8,27.8,0,0,1-2.83.65l-.72.15a39,39,0,0,0,3.78,6.11l-1.4.8a4.33,4.33,0,0,0-1.45-.86,11.31,11.31,0,0,0-3.68-.55,7.54,7.54,0,0,0-4,.88,2.41,2.41,0,0,0-1.13,2,2.09,2.09,0,0,0,.8,1.64,7.17,7.17,0,0,0,4.09,1,13.87,13.87,0,0,0,6-1.34l.23,1.61a17.38,17.38,0,0,1-6.18,1.14c-2.56,0-4.49-.57-5.46-1.58a3.42,3.42,0,0,1-.94-2.31,3.92,3.92,0,0,1,2.37-3.42,9,9,0,0,1,4.08-.78,10.49,10.49,0,0,1,4.34.76,25.61,25.61,0,0,1-2.52-4.11c-.23-.45-.23-.49-.36-.7a60,60,0,0,1-7.47.55,4.91,4.91,0,0,0-.82.06Z"/><path class="cls-1" d="M880.15,113a16,16,0,0,0-.14,2.5,36.45,36.45,0,0,0,.54,6.53c.46,2.14,1.32,3.59,2.12,3.59.38,0,.74-.36,1.05-1a15.07,15.07,0,0,0,1.09-3.59,6.43,6.43,0,0,0,1.24,1.2c-1,3.67-2,5.08-3.48,5.08-1.18,0-2.27-1.18-3-3.19s-1-4.68-1.14-9.85a12,12,0,0,0-.06-1.24Zm10.14,1.11a18.35,18.35,0,0,1,3,4.79,20.56,20.56,0,0,1,1.57,5.61l-1.49.61A18.5,18.5,0,0,0,889,114.81Z"/><path class="cls-1" d="M905.5,126.12a3.15,3.15,0,1,1-3.15-3.15A3.14,3.14,0,0,1,905.5,126.12Zm-5.1,0a1.95,1.95,0,1,0,2-2A2,2,0,0,0,900.4,126.12Z"/></g></g></svg>