<svg xmlns="http://www.w3.org/2000/svg" width="646.92" height="166.38" viewBox="0 0 646.92 166.38">
  <defs>
    <style>
      .cls-1 {
        fill: #fff;
      }
    </style>
  </defs>
  <g id="レイヤー_2" data-name="レイヤー 2">
    <g id="レイヤー_2-2" data-name="レイヤー 2">
      <g>
        <path class="cls-1" d="M81.86,10.94V0h5.56V1.3H83.28v9.64Z"/>
        <path class="cls-1" d="M99.54,3.42a57.64,57.64,0,0,1-6.53.7,3.92,3.92,0,0,0-.61-1.37A44,44,0,0,0,104.64.94a8,8,0,0,0,1.93-.79l1,1.3-.65.21A42.88,42.88,0,0,1,101,3.17v5h6.42A13,13,0,0,0,109.78,8V9.64a14.64,14.64,0,0,0-2.3-.15H101V16.9a12.32,12.32,0,0,0,.15,2.48H99.39a14.51,14.51,0,0,0,.15-2.54V9.49H93.43a14.92,14.92,0,0,0-2.25.15V8a12.77,12.77,0,0,0,2.27.15h6.09Z"/>
        <path class="cls-1" d="M129.9,13.12a17.5,17.5,0,0,0,2.38-.12v1.36a20.61,20.61,0,0,0-2.38-.12h-5.71a18.23,18.23,0,0,0,3.63,2,22.88,22.88,0,0,0,4.85,1.37,3.71,3.71,0,0,0-.81,1.24,20.79,20.79,0,0,1-8.44-4c.06.84.08,1.3.08,1.68v.86a9.32,9.32,0,0,0,.12,1.93h-1.46a14.27,14.27,0,0,0,.12-1.93v-.86c0-.36,0-1,.09-1.68a18.46,18.46,0,0,1-4.16,2.6,22.09,22.09,0,0,1-3.84,1.39,4,4,0,0,0-.87-1.18,19.23,19.23,0,0,0,8.15-3.46h-5.5a19.94,19.94,0,0,0-2.33.12V13a16.57,16.57,0,0,0,2.33.12h6.13a8.25,8.25,0,0,0-.08-1.32h1.38a9,9,0,0,0-.08,1.2v.12Zm-.06-7.47a12.87,12.87,0,0,0,2.35-.13v1.3a17.6,17.6,0,0,0-2.35-.1h-1.07V7.85a7.73,7.73,0,0,0,.08,1.35c-.58,0-1.28-.07-2-.07h-2.86c-.82,0-1.36,0-2.06.07A11.73,11.73,0,0,0,122,7.92V6.72h-3.74v3.55h10.6a12,12,0,0,0,2.37-.13v1.3a15.65,15.65,0,0,0-2.31-.12h-10c-.78,0-1.32,0-2.06.06a12.56,12.56,0,0,0,.07-1.43V6.72h-1a17.67,17.67,0,0,0-2.31.1V5.52a12.81,12.81,0,0,0,2.2.13h1.12V5.4A6,6,0,0,0,116.8,4h1.49a9.38,9.38,0,0,0-.08,1.39v.25H122V5.46a6.79,6.79,0,0,0-.11-1.39h1.41a7.57,7.57,0,0,0-.09,1.37v.21h4.39V5.44a9.63,9.63,0,0,0-.08-1.37h1.4a9.8,9.8,0,0,0-.1,1.37v.21ZM120.43,3a8.07,8.07,0,0,0,.07,1.26h-1.41A10.53,10.53,0,0,0,119.17,3V2.88H116a18.2,18.2,0,0,0-2.33.1V1.64a17,17,0,0,0,2.33.12h3.21V1.41a7.91,7.91,0,0,0-.12-1.33h1.51a7.68,7.68,0,0,0-.13,1.33v.35h4.79V1.41a8.11,8.11,0,0,0-.1-1.33h1.49a8.52,8.52,0,0,0-.11,1.33v.35h3.32a17.3,17.3,0,0,0,2.35-.12V3a18.35,18.35,0,0,0-2.35-.1H126.5V3a7.4,7.4,0,0,0,.09,1.26h-1.43A7.73,7.73,0,0,0,125.22,3V2.88h-4.79Zm2.73,5.09h4.39V6.72h-4.39Z"/>
        <path class="cls-1" d="M146.05,6.68a16.84,16.84,0,0,0,3.43,6.76,14.85,14.85,0,0,0,5.69,4.09,6.16,6.16,0,0,0-.93,1.41c-4.7-2.5-7.3-5.57-8.82-10.37a13.05,13.05,0,0,1-4.09,7.53A16.32,16.32,0,0,1,136.79,19a4.17,4.17,0,0,0-.9-1.28A13.11,13.11,0,0,0,141.41,14a12.86,12.86,0,0,0,2.92-7.32h-5.71a13.4,13.4,0,0,0-2.31.14V5.19a13.47,13.47,0,0,0,2.35.14h5.8c.06-1,.08-1.66.08-2.47a14.82,14.82,0,0,0-.15-2.29h1.73A11.83,11.83,0,0,0,146,2.75c0,1.07,0,1.68-.11,2.58h6.37a13.67,13.67,0,0,0,2.33-.14V6.82a14.43,14.43,0,0,0-2.31-.14Z"/>
        <path class="cls-1" d="M168.69,17.47c0,1.3-.4,1.55-2.35,1.55-.59,0-1.68,0-2.42-.12a5.94,5.94,0,0,0-.44-1.35,21.33,21.33,0,0,0,2.75.23c1,0,1.12-.06,1.12-.5V13.06h-6.3a15.07,15.07,0,0,0-2.21.13V11.74a16.5,16.5,0,0,0,2.19.12h6.32v-.35a10.54,10.54,0,0,0-.07-1.24h.89a17.78,17.78,0,0,0,3.75-2.38h-7.68a19.37,19.37,0,0,0-2,.11V6.63a17,17,0,0,0,2,.11h7.58a9.61,9.61,0,0,0,1.56-.08l.79.84c-.27.21-.27.21-.73.6a23.77,23.77,0,0,1-4.79,3.11v.65h6.24a16.15,16.15,0,0,0,2.2-.12v1.45a14.94,14.94,0,0,0-2.22-.13h-6.22ZM163,3.59a13.84,13.84,0,0,0-2-2.73l1.26-.4a21,21,0,0,1,2.14,3.11h3.07a12.33,12.33,0,0,0-1.54-3l1.3-.36a17.63,17.63,0,0,1,1.6,3.38h2.31A12.46,12.46,0,0,0,173.35.19l1.32.57a20.14,20.14,0,0,1-2,2.81h1.64c1.21,0,1.68,0,2.41-.08a14.12,14.12,0,0,0-.08,1.74V6.78a12.1,12.1,0,0,0,.1,1.47h-1.38V4.72H160.52V8.25h-1.38a11.45,11.45,0,0,0,.1-1.47V5.23a14.12,14.12,0,0,0-.08-1.74,19.75,19.75,0,0,0,2.39.1Z"/>
        <path class="cls-1" d="M191.18.25a14.29,14.29,0,0,0,3.47,3.8A21.92,21.92,0,0,0,200.4,7.5a5.19,5.19,0,0,0-.84,1.32A29.73,29.73,0,0,1,193.64,5a17.87,17.87,0,0,1-3.23-3.53A19.91,19.91,0,0,1,186,6a24.28,24.28,0,0,1-4.46,2.73,3.45,3.45,0,0,0-.88-1.2,21.89,21.89,0,0,0,5.71-3.65A15.62,15.62,0,0,0,189.61.25ZM183.85,19A14.29,14.29,0,0,0,184,17V12.32a13.91,13.91,0,0,0-.1-1.93,10,10,0,0,0,1.63.09h9.85a10.09,10.09,0,0,0,1.64-.09,12,12,0,0,0-.11,1.93V17A15.19,15.19,0,0,0,197,19h-1.51V17.8H185.37V19Zm1.52-2.45h10.14V11.76H185.37Zm.14-9.94a9.83,9.83,0,0,0,1.66.09h6.51a11.31,11.31,0,0,0,1.76-.09V8.06A13.46,13.46,0,0,0,193.68,8h-6.53a12.71,12.71,0,0,0-1.64.08Z"/>
        <path class="cls-1" d="M204.64,3a17.34,17.34,0,0,0-.08-1.89,15,15,0,0,0,2,.09h12.95a14.28,14.28,0,0,0,1.93-.09A17.15,17.15,0,0,0,221.36,3V17.26c0,1.26-.42,1.51-2.56,1.51-.78,0-1.7,0-2.73-.1a6.64,6.64,0,0,0-.32-1.37,21.14,21.14,0,0,0,3.23.25c.8,0,1-.08,1-.46V2.41H206V16.92a12.53,12.53,0,0,0,.15,2.25h-1.66a18.51,18.51,0,0,0,.12-2.25Zm2.82,1.58a9,9,0,0,0,1.7.1H217a9,9,0,0,0,1.7-.1V6a9.13,9.13,0,0,0-1.66-.1h-7.87a9.66,9.66,0,0,0-1.68.1Zm9.59,8.84a8.67,8.67,0,0,0,.07,1.21c-.42,0-.82-.06-1.31-.06h-5.58v1.85h-1.37a15.13,15.13,0,0,0,.09-1.93v-5a12.79,12.79,0,0,0-.06-1.28c.44,0,.86.06,1.4.06h5.29c.7,0,1.07,0,1.54-.06a7.82,7.82,0,0,0-.07,1.26Zm-6.82,0h5.52v-4h-5.52Z"/>
        <path class="cls-1" d="M236,17.43a10.33,10.33,0,0,0,.14,1.95h-1.63a10.61,10.61,0,0,0,.14-1.95V13.92h-6a15.53,15.53,0,0,0-2.38.13V12.53a13.49,13.49,0,0,0,2.38.15h6v-.23a12.27,12.27,0,0,0-.1-1.68h1.55a9.38,9.38,0,0,0-.1,1.68v.23h6.44a13.67,13.67,0,0,0,2.4-.15v1.52a15,15,0,0,0-2.4-.13H236ZM234.61,1.89a8.62,8.62,0,0,0-.15-1.76h1.66A9.3,9.3,0,0,0,236,1.89v.59h6.21a13.37,13.37,0,0,0,2.33-.15V3.82a16.05,16.05,0,0,0-2.31-.12H228.84a16.24,16.24,0,0,0-2.31.12V2.33a13.52,13.52,0,0,0,2.33.15h5.75ZM232.49,4.7c-.42,1-.59,1.47-.88,2a10.52,10.52,0,0,0,3.29,3,6.57,6.57,0,0,0-.88,1.1,13.92,13.92,0,0,1-3-3.07,15.4,15.4,0,0,1-3.3,3.93,4.19,4.19,0,0,0-1.05-1,10.36,10.36,0,0,0,2.65-2.63,10.67,10.67,0,0,0,1.8-3.82Zm7.68.13a13.92,13.92,0,0,1-.73,1.93,10.57,10.57,0,0,0,4.89,3.36,5.11,5.11,0,0,0-.78,1.26,13.12,13.12,0,0,1-4.64-3.55,11.42,11.42,0,0,1-2.22,2.86,3.7,3.7,0,0,0-1-.95,7.27,7.27,0,0,0,2.1-2.48,8.93,8.93,0,0,0,1.09-2.85Z"/>
        <path class="cls-1" d="M251.77,8.25a15.38,15.38,0,0,0-2.25.11V7.05a14.42,14.42,0,0,0,2.25.11h3a12.59,12.59,0,0,0-1.11-2.37h-2.65a23.45,23.45,0,0,0-2.37.1V3.55a17.17,17.17,0,0,0,2.33.12h1.45a11.06,11.06,0,0,0-1.72-2.22l1.2-.57a13,13,0,0,1,1.87,2.79h1.76V2.06a9.63,9.63,0,0,0-.13-1.77h1.43A12.53,12.53,0,0,0,256.79,2V3.67H259V2a12.91,12.91,0,0,0-.08-1.75h1.43a9.27,9.27,0,0,0-.13,1.77V3.67h2A13.65,13.65,0,0,0,263.9.78l1.29.54a19.71,19.71,0,0,1-1.58,2.35h1.26a17.1,17.1,0,0,0,2.35-.12V4.89a23.45,23.45,0,0,0-2.37-.1h-2.48a23,23,0,0,1-1.13,2.37h3a14.87,14.87,0,0,0,2.27-.11V8.36a15.51,15.51,0,0,0-2.27-.11h-5.71V9.78h4.41a16.63,16.63,0,0,0,2.27-.1V11a16.87,16.87,0,0,0-2.27-.11h-4.41v1.62h6.36a16.39,16.39,0,0,0,2.39-.12v1.36a20.75,20.75,0,0,0-2.37-.13h-5.5a16.54,16.54,0,0,0,8.34,3.64,4.7,4.7,0,0,0-.82,1.3,22.5,22.5,0,0,1-5.15-2A13.65,13.65,0,0,1,258.42,14c.07.95.09,1.33.09,1.79v1.4a16.71,16.71,0,0,0,.12,2.19h-1.51a13.27,13.27,0,0,0,.13-2.21V15.77c0-.48,0-.95.08-1.77-2.06,2.15-4,3.28-7.89,4.52a4.24,4.24,0,0,0-.86-1.22,16,16,0,0,0,7.79-3.72h-5.15a20.48,20.48,0,0,0-2.37.13V12.35a16.83,16.83,0,0,0,2.37.12h6V10.85h-4.16a16.54,16.54,0,0,0-2.25.11V9.68a16.84,16.84,0,0,0,2.25.1h4.16V8.25Zm8.1-1.09a10.8,10.8,0,0,0,1.07-2.37h-5.83a16.28,16.28,0,0,1,1,2.37Z"/>
        <path class="cls-1" d="M273.1,2.29a9.43,9.43,0,0,0-1.8.12V1a11.78,11.78,0,0,0,1.89.12h3.42A8.52,8.52,0,0,0,278.37,1V2.37a14.26,14.26,0,0,0-1.7-.08h-1.3a20.33,20.33,0,0,1-1.45,5.33h2.63a10.09,10.09,0,0,0,1.3-.06,16.28,16.28,0,0,0-.06,1.68v6.49a14.47,14.47,0,0,0,.08,1.76h-1.32v-1h-2.61v2.23h-1.38a13.48,13.48,0,0,0,.12-2V12c0-.76,0-1.41.07-2.35a9.72,9.72,0,0,1-1.58,2.56,3.49,3.49,0,0,0-.75-1.26,14.24,14.24,0,0,0,2.89-5.34A14.52,14.52,0,0,0,274,2.29Zm.84,13h2.61V8.73h-2.61Zm7.29-13a14.42,14.42,0,0,0-2,.12V1a13.58,13.58,0,0,0,2.12.12H288a14.76,14.76,0,0,0,2.1-.12V2.41a11.67,11.67,0,0,0-2-.12h-.5V8.1h.67a11.68,11.68,0,0,0,2.1-.12V9.47a14.14,14.14,0,0,0-2.1-.13h-.67v7.54a16.78,16.78,0,0,0,.14,2.25H286a16.56,16.56,0,0,0,.15-2.25V9.34h-3.47c-.21,4.69-1.11,7.23-3.51,10a3.73,3.73,0,0,0-1.21-.95c2.2-2.1,3.19-4.72,3.38-9h-.59a11.17,11.17,0,0,0-2.08.13V8a14.31,14.31,0,0,0,2.08.1h.63V2.29Zm1.53,5.1V8.1h3.43V2.29h-3.43Z"/>
        <path class="cls-1" d="M305,10.67a17.44,17.44,0,0,0,2.35-.11c0,.46-.06.9-.08,1.85l-.09,4.26c0,.63.23.71,1.87.71,1.47,0,1.89-.1,2-.48a12.22,12.22,0,0,0,.33-3.15,5.11,5.11,0,0,0,1.37.55c-.34,4.2-.46,4.32-3.84,4.32-2.56,0-3.11-.27-3.11-1.68v-.1l.08-4.94H302a8.11,8.11,0,0,1-1.64,3.47,9.33,9.33,0,0,1-2.25,2,13.91,13.91,0,0,1-3.48,1.73,3.2,3.2,0,0,0-.92-1.2,13.27,13.27,0,0,0,4-1.89,6.84,6.84,0,0,0,2.91-4.12h-3.31a15.49,15.49,0,0,0-2.27.13V10.54a14.52,14.52,0,0,0,2.22.13h3.62A15.76,15.76,0,0,0,301,8.9,7.33,7.33,0,0,0,301,7.77l1.6,0a5.77,5.77,0,0,0-.17,1.32c0,.51-.09,1-.17,1.56Zm-2.79-8.89A6.22,6.22,0,0,0,302,.27h1.64a5.86,5.86,0,0,0-.15,1.51v.66h6.24a18.7,18.7,0,0,0,2.12-.11,8.55,8.55,0,0,0-.09,1.45V4.85a8.81,8.81,0,0,0,.09,1.47h-1.39V3.63h-5.23V6.68c0,.25.05.35.15.42a4.29,4.29,0,0,0,1.34.14,3.81,3.81,0,0,0,1.7-.23c.24-.17.34-.73.36-1.7a4.37,4.37,0,0,0,1.26.4c-.1,1.32-.27,1.91-.63,2.23a4.82,4.82,0,0,1-2.71.46c-2.2,0-2.73-.23-2.73-1.16V3.63h-2.58A5.71,5.71,0,0,1,300.68,6a5.93,5.93,0,0,1-3.32,2.67,20.4,20.4,0,0,1-1.95.61,5.64,5.64,0,0,0-.8-1.16c2.24-.42,3.3-.84,4.2-1.68a4,4,0,0,0,1.28-2.77h-4.47V6.3h-1.39a10.57,10.57,0,0,0,.08-1.47V3.78a9.91,9.91,0,0,0-.08-1.45,18.58,18.58,0,0,0,2.12.11h5.82Z"/>
        <path class="cls-1" d="M327.26,9.68A1.72,1.72,0,1,1,325.54,8,1.73,1.73,0,0,1,327.26,9.68Z"/>
        <path class="cls-1" d="M341,4.39a14,14,0,0,1-1.09,2,5.08,5.08,0,0,0-1.18-.61,11.17,11.17,0,0,0,1.91-4,5.14,5.14,0,0,0,.23-1.17l1.37.33A6,6,0,0,0,341.92,2c-.15.49-.23.76-.4,1.22h2.23V2.39a10.64,10.64,0,0,0-.13-2.14h1.53A11.15,11.15,0,0,0,345,2.37v.84h2.14a12.73,12.73,0,0,0,2.06-.1V4.49a13.35,13.35,0,0,0-2.06-.1H345V6.87H348a13.28,13.28,0,0,0,2-.11V8.15A10.77,10.77,0,0,0,348,8H345v2.29h2.22a14.64,14.64,0,0,0,2-.1,14.65,14.65,0,0,0-.09,1.93v4.15c0,1-.42,1.26-2.1,1.26-.29,0-.4,0-1.15,0a4.74,4.74,0,0,0-.21-1.26,7.16,7.16,0,0,0,1.47.11c.63,0,.75-.07.75-.36V11.51H345v5.35a17.67,17.67,0,0,0,.1,2.37h-1.51a19.35,19.35,0,0,0,.13-2.37V11.51h-2.88v4a20.84,20.84,0,0,0,.08,2.19h-1.44a13.1,13.1,0,0,0,.1-2.16V12.18a18.05,18.05,0,0,0-.08-1.95,15.58,15.58,0,0,0,2,.1h2.23V8h-3a12,12,0,0,0-2,.13V6.74a10.36,10.36,0,0,0,1.93.13h3V4.39Zm11.44-2.9a12.57,12.57,0,0,0-.13,2.29V12a14.32,14.32,0,0,0,.11,2.35h-1.53A15.25,15.25,0,0,0,351,12V3.8a13.41,13.41,0,0,0-.12-2.31ZM356.81.31a14.5,14.5,0,0,0-.15,2.55V17.05c0,1.53-.44,1.89-2.35,1.89-.55,0-1.22,0-2.23-.11a3.81,3.81,0,0,0-.4-1.34,19.49,19.49,0,0,0,2.65.21c.86,0,1-.11,1-.63V2.88a16.1,16.1,0,0,0-.15-2.57Z"/>
        <path class="cls-1" d="M367.54.52c-.25.57-.31.76-.48,1.18a28.74,28.74,0,0,1-1.56,3.49V16.67a18.35,18.35,0,0,0,.15,2.52H364a18.1,18.1,0,0,0,.15-2.56v-7c0-.9,0-1.47.08-2.71a15.39,15.39,0,0,1-2.6,3.32,4.36,4.36,0,0,0-.88-1.12,18.13,18.13,0,0,0,4.43-6.29A11.55,11.55,0,0,0,366.07,0Zm3.21,4.14a22.93,22.93,0,0,1-3.34,5.12,3.06,3.06,0,0,0-1.05-1A18.17,18.17,0,0,0,370.08,3,11.12,11.12,0,0,0,371,0l1.47.48c-.16.38-.23.53-.42,1.08-.29.86-.4,1.13-.71,1.86H378a10.56,10.56,0,0,0,1.91-.12V4.77A10.78,10.78,0,0,0,378,4.66H373v3.4h4.26a12.38,12.38,0,0,0,1.85-.12V9.39a12.12,12.12,0,0,0-1.85-.13H373v3.4h4.33a11.2,11.2,0,0,0,1.84-.13V14a12.43,12.43,0,0,0-1.84-.12H373v3.21a10.92,10.92,0,0,0,.15,2.2h-1.62a13.41,13.41,0,0,0,.13-2.2V4.66Z"/>
        <path class="cls-1" d="M386.5,12.45a15.38,15.38,0,0,1-2.26,6.87,4.13,4.13,0,0,0-1.12-1.05A10.66,10.66,0,0,0,385,13.86a55,55,0,0,0,.69-9.95,27.92,27.92,0,0,0-.1-3,24.65,24.65,0,0,0,2.54.09H399a17.06,17.06,0,0,0,2.22-.09c0,.51-.06,1-.06,1.62V4a15.07,15.07,0,0,0,.06,1.53c-.88,0-1.42-.06-2.1-.06H386.9c0,2.81-.08,3.78-.27,5.82h4.16V8.84h-1.3a17.11,17.11,0,0,0-1.89.08V7.62a10.12,10.12,0,0,0,1.91.11h1.28V7.45A11.88,11.88,0,0,0,390.7,6h1.45a7.48,7.48,0,0,0-.1,1.49v.28h4V7.45A8.4,8.4,0,0,0,396,6h1.49a7.24,7.24,0,0,0-.1,1.49v.28h1.8a10.52,10.52,0,0,0,2-.11v1.3a17.21,17.21,0,0,0-2-.08h-1.78v2.48h2.46a15.53,15.53,0,0,0,2.26-.13v1.39a16.39,16.39,0,0,0-2.24-.13h-5.65a6.9,6.9,0,0,0,2.08,2.65,13,13,0,0,0,2.92-2.5l1.17.77a26.11,26.11,0,0,1-3.15,2.42A13.85,13.85,0,0,0,402.65,18a3.8,3.8,0,0,0-.84,1.28A15.83,15.83,0,0,1,395.43,16a8.76,8.76,0,0,1-2.58-3.53h-2.13V17.2c1.77-.34,2.48-.51,4.37-1v1.22c-2.24.6-3.13.79-7.43,1.63l-.74.17-.33-1.45h.19a18.24,18.24,0,0,0,2.64-.33v-5Zm13.4-8.06V2.18h-13V4.39Zm-3.82,4.45h-4v2.48h4Z"/>
        <path class="cls-1" d="M413.89,17.53a14.06,14.06,0,0,0-2.31.11,9.34,9.34,0,0,1,.61-2.77,9.12,9.12,0,0,1,2.73-3.62,27.51,27.51,0,0,1,3.21-2.31c2.08-1.4,2.77-2.33,2.77-3.61,0-1.59-1.34-2.62-3.48-2.62a3.48,3.48,0,0,0-3.05,1.36,4.18,4.18,0,0,0-.73,2.12l-1.77-.29a5.74,5.74,0,0,1,1.32-3,5.4,5.4,0,0,1,4.23-1.62c3.17,0,5.2,1.6,5.2,4.07a4.37,4.37,0,0,1-1.24,3c-.63.72-1.17,1.12-3.57,2.71a11.48,11.48,0,0,0-3,2.59,6,6,0,0,0-1.2,2.43h6.7a17.46,17.46,0,0,0,2.56-.15v1.77a22.08,22.08,0,0,0-2.58-.13Z"/>
        <path class="cls-1" d="M428.69,16.36a5.41,5.41,0,0,1-1.26-1.94,14.6,14.6,0,0,1-.79-4.85,12.36,12.36,0,0,1,1.21-5.71,5.63,5.63,0,0,1,8.55-1.09,5.28,5.28,0,0,1,1.26,1.93,14.59,14.59,0,0,1,.8,4.87A11,11,0,0,1,437,15.64a5.14,5.14,0,0,1-4.45,2.21A5.28,5.28,0,0,1,428.69,16.36ZM429.91,3.8A4.18,4.18,0,0,0,429,5.33a12.78,12.78,0,0,0-.65,4.24,11.72,11.72,0,0,0,1,5,3.59,3.59,0,0,0,3.26,1.83,3.5,3.5,0,0,0,2.58-1,4.16,4.16,0,0,0,1-1.64,13,13,0,0,0,.65-4.24,11.85,11.85,0,0,0-.95-4.89,3.53,3.53,0,0,0-3.29-1.91A3.43,3.43,0,0,0,429.91,3.8Z"/>
        <path class="cls-1" d="M444.51,17.53a14.06,14.06,0,0,0-2.31.11,9.34,9.34,0,0,1,.61-2.77,9.18,9.18,0,0,1,2.72-3.62,29.24,29.24,0,0,1,3.22-2.31c2.08-1.4,2.77-2.33,2.77-3.61,0-1.59-1.34-2.62-3.49-2.62a3.47,3.47,0,0,0-3,1.36,4.27,4.27,0,0,0-.74,2.12l-1.76-.29a5.74,5.74,0,0,1,1.32-3A5.39,5.39,0,0,1,448,1.26c3.17,0,5.21,1.6,5.21,4.07a4.37,4.37,0,0,1-1.24,3c-.63.72-1.17,1.12-3.57,2.71a11.32,11.32,0,0,0-3,2.59,5.84,5.84,0,0,0-1.2,2.43h6.7a17.55,17.55,0,0,0,2.56-.15v1.77a22.08,22.08,0,0,0-2.58-.13Z"/>
        <path class="cls-1" d="M459.81,17.53a14,14,0,0,0-2.3.11,9.76,9.76,0,0,1,.6-2.77,9.31,9.31,0,0,1,2.73-3.62,29.24,29.24,0,0,1,3.22-2.31c2.07-1.4,2.77-2.33,2.77-3.61,0-1.59-1.35-2.62-3.49-2.62a3.47,3.47,0,0,0-3,1.36,4.27,4.27,0,0,0-.74,2.12L457.8,5.9a5.66,5.66,0,0,1,1.32-3,5.37,5.37,0,0,1,4.22-1.62c3.17,0,5.21,1.6,5.21,4.07a4.37,4.37,0,0,1-1.24,3c-.63.72-1.18,1.12-3.57,2.71a11.32,11.32,0,0,0-3,2.59,5.84,5.84,0,0,0-1.2,2.43h6.7a17.55,17.55,0,0,0,2.56-.15v1.77a22.08,22.08,0,0,0-2.58-.13Z"/>
        <path class="cls-1" d="M478.13,8.42V19.36h-5.57v-1.3h4.14V8.42Z"/>
        <path class="cls-1" d="M502.26.86a36.41,36.41,0,0,0,1.57,7c1.24-.5,1.83-.73,5.08-1.87a10.59,10.59,0,0,0,1.34-.54L510.88,7a48.58,48.58,0,0,0-6.32,2c-3.59,1.43-5.14,2.81-5.14,4.55,0,1.92,1.62,2.65,5.73,2.65a20.92,20.92,0,0,0,6-.71l.17,1.74a11.52,11.52,0,0,0-1.56.12,42.34,42.34,0,0,1-4.64.28,14.21,14.21,0,0,1-4.66-.57,3.48,3.48,0,0,1-2.6-3.44,4.54,4.54,0,0,1,1.87-3.57,12.66,12.66,0,0,1,2.75-1.7A42.78,42.78,0,0,1,501,2.5a7.72,7.72,0,0,0-.35-1.32Z"/>
        <path class="cls-1" d="M523.3,1.28A32.39,32.39,0,0,0,523,5.71c-.08,2.52-.14,5.38-.14,6.32,0,.25,0,.78,0,1.26a3.3,3.3,0,0,0,1,2.52,4,4,0,0,0,2.62.82A6,6,0,0,0,532.16,13a12.87,12.87,0,0,0,1-3.3,6,6,0,0,0,1.51,1,12.88,12.88,0,0,1-2.33,4.76,7.34,7.34,0,0,1-5.92,2.63,5,5,0,0,1-4-1.47c-.86-1-1.16-2.1-1.16-4.31,0-1.4,0-1.93.19-8.54,0-.63,0-1,0-1.37a6.75,6.75,0,0,0-.08-1.11Z"/>
        <path class="cls-1" d="M541.17,3.8h.75c.3,0,.55,0,1.2-.06,2.5-.19,9.22-.57,11.93-.7a13.58,13.58,0,0,0,2.5-.23l.12,1.58a9.68,9.68,0,0,0-2.35.27,10.58,10.58,0,0,0-4,2.12,6.42,6.42,0,0,0-2.58,4.85,4.12,4.12,0,0,0,2.94,3.89,11,11,0,0,0,3.14.67H555l-.28,1.7-.65-.13a10.55,10.55,0,0,1-4.53-1.61,5.13,5.13,0,0,1-2.33-4.29c0-2.43,1.42-4.76,3.92-6.44a14,14,0,0,1,2-1.12,41,41,0,0,1-4.62.47,61.38,61.38,0,0,0-7.25.69Z"/>
        <path class="cls-1" d="M563.68,13.48a21.64,21.64,0,0,1,4.22,4.45L566.73,19a21.22,21.22,0,0,0-4.14-4.57Z"/>
        <path class="cls-1" d="M2.39,46.6A9.61,9.61,0,0,0,3.7,49.77a16.38,16.38,0,0,0,1.19-4.71H3.09c-.59,0-1.33,0-1.91.07a37.79,37.79,0,0,0,3.4-5.92H2.06a7.69,7.69,0,0,0-1.43.1V38a7.66,7.66,0,0,0,1.45.1h2A9.61,9.61,0,0,0,5.63,38l.61.8a6.88,6.88,0,0,0-.47.86,32.15,32.15,0,0,1-2.47,4.3H4.66a10,10,0,0,0,1.66-.08c-.06.31-.06.31-.17,1a20.24,20.24,0,0,1-1.66,6c1.79,2.27,4,3.09,8.44,3.09,2.08,0,4.62-.13,6.55-.29A4.62,4.62,0,0,0,19,55.18c-1.55,0-4.2.09-5.81.09-5,0-7.12-.74-9.32-3.23A15.55,15.55,0,0,1,1,55.73a3.38,3.38,0,0,0-1-1A13.13,13.13,0,0,0,3.09,51a14,14,0,0,1-1.43-2.73c-.25-.59-.25-.59-.53-1.16Zm9.22-7.14H8.92a11.38,11.38,0,0,0-1.51.08V38.3A7.45,7.45,0,0,0,9,38.41h2.64a14.87,14.87,0,0,0-.1-1.6h1.42a8.29,8.29,0,0,0-.1,1.6h3.32a14.66,14.66,0,0,0,1.53-.06,3.22,3.22,0,0,1,0,.35c0,.21,0,.65,0,1v1.49h.1A8.27,8.27,0,0,0,19.32,41v1.26a11.35,11.35,0,0,0-1.58-.08h-.1v1.72c0,.44,0,1,0,1.2-.67,0-.95,0-1.49,0H12.83v1.8h3.36a13.53,13.53,0,0,0,1.87-.1V48a16.54,16.54,0,0,0-1.89-.08H12.83v1.85h4.3a11.37,11.37,0,0,0,2-.13v1.28a17,17,0,0,0-2-.08h-4.3v.52a12.69,12.69,0,0,0,.1,2H11.51a16.68,16.68,0,0,0,.1-1.93v-.55H8.25a12.6,12.6,0,0,0-1.87.1v-1.3a10.64,10.64,0,0,0,1.89.13h3.34V47.94H8.8a12.22,12.22,0,0,0-1.72.11V46.79a11,11,0,0,0,1.72.1h2.81v-1.8H8.86a11.14,11.14,0,0,0-1.47.08V43.93A7.67,7.67,0,0,0,8.92,44h2.69V42.21H8.1a12.49,12.49,0,0,0-1.93.1V41a10.83,10.83,0,0,0,2,.13h3.48Zm4.81,1.7v-1.7H12.83v1.7ZM12.83,44h3.59V42.21H12.83Z"/>
        <path class="cls-1" d="M39.25,49.58a15.47,15.47,0,0,0,2.37-.13v1.37a18.36,18.36,0,0,0-2.37-.13H33.7A18.53,18.53,0,0,0,42,54.32a4.53,4.53,0,0,0-.81,1.33A25.36,25.36,0,0,1,36.68,54a14.57,14.57,0,0,1-4-2.82c.07.7.09,1.24.09,1.62V54a10.89,10.89,0,0,0,.12,2.12H31.37A12.52,12.52,0,0,0,31.5,54V52.77c0-.42,0-.86.08-1.62A16.3,16.3,0,0,1,28,53.67a24.78,24.78,0,0,1-4.62,1.87,3.8,3.8,0,0,0-.84-1.24,20.41,20.41,0,0,0,8.09-3.61H25.49a17.92,17.92,0,0,0-2.33.13V49.45a14.54,14.54,0,0,0,2.33.13h6a7.92,7.92,0,0,0-.09-1.45,7.62,7.62,0,0,1-.94.63,2.89,2.89,0,0,0-.95-.92c2.1-1,2.67-1.94,2.67-4.37a7.67,7.67,0,0,0-.08-1.24,12.23,12.23,0,0,0,1.72.08h3.11a14.31,14.31,0,0,0,1.78-.08,19.16,19.16,0,0,0-.08,2v2.37c0,.38.06.4.8.4s1,0,1-.27a12.08,12.08,0,0,0,.17-2.38,4.06,4.06,0,0,0,1.14.57,6.9,6.9,0,0,1-.4,2.54c-.25.5-.72.65-2.08.65-1.55,0-1.89-.23-1.89-1.22V43.38H33.37c-.07,2.59-.46,3.55-1.91,4.73h1.38a9.28,9.28,0,0,0-.08,1.47ZM26,39.82a14.66,14.66,0,0,1-2.12,2.45,4,4,0,0,0-1-.84,10.25,10.25,0,0,0,3.44-4.7l1.35.4c-.34.63-.49.92-.89,1.57h3.32a13.09,13.09,0,0,0,2.08-.12V39.9a17,17,0,0,0-1.93-.08H28.85a19.09,19.09,0,0,1,1.09,1.84l-1.15.42a15.29,15.29,0,0,0-1.2-2.26Zm-.55,3.82a10.24,10.24,0,0,0-1.72.1V42.46a9.42,9.42,0,0,0,1.72.11H29.1a9.37,9.37,0,0,0,1.75-.11v1.28a9.94,9.94,0,0,0-1.68-.1H28v2.5c1-.28,1.49-.42,2.9-.89l.1,1a57.87,57.87,0,0,1-6.17,1.79c-.65.16-.78.19-1.26.33l-.4-1.32a20.73,20.73,0,0,0,3.59-.65V43.64Zm8.46-3.82a12.43,12.43,0,0,1-1.55,2,3.14,3.14,0,0,0-1-.73A9.6,9.6,0,0,0,34,36.69l1.28.4a17.64,17.64,0,0,1-.76,1.61h4.85a13.9,13.9,0,0,0,2.25-.12v1.34a18,18,0,0,0-2.2-.1H37.1a13.58,13.58,0,0,1,1,1.59L37.06,42a13.81,13.81,0,0,0-1.24-2.18ZM34.56,44a20.11,20.11,0,0,1,2,2.6l-.92.73a13.9,13.9,0,0,0-2-2.7Z"/>
        <path class="cls-1" d="M55.61,54.22c0,1.3-.4,1.55-2.36,1.55-.58,0-1.68,0-2.41-.12a6.48,6.48,0,0,0-.44-1.35,21.33,21.33,0,0,0,2.75.23c1,0,1.11-.06,1.11-.5V49.81H48a15,15,0,0,0-2.2.13V48.49a16.44,16.44,0,0,0,2.18.12h6.32v-.35c0-.42,0-.8-.06-1.24h.88a17.6,17.6,0,0,0,3.76-2.38H51.15a19.54,19.54,0,0,0-2,.11V43.38a17.3,17.3,0,0,0,2,.11h7.58a9.54,9.54,0,0,0,1.55-.08l.8.84c-.28.21-.28.21-.74.6A23.67,23.67,0,0,1,55.61,48v.65h6.23a16.21,16.21,0,0,0,2.21-.12v1.45a15.09,15.09,0,0,0-2.23-.13H55.61ZM49.94,40.34a13.92,13.92,0,0,0-2-2.73l1.26-.4a19.59,19.59,0,0,1,2.14,3.11h3.07a12.64,12.64,0,0,0-1.53-3l1.3-.36a17.56,17.56,0,0,1,1.59,3.38H58.1a12.49,12.49,0,0,0,2.17-3.38l1.32.57a19.28,19.28,0,0,1-2,2.81h1.64c1.22,0,1.68,0,2.42-.08A12.18,12.18,0,0,0,63.54,42v1.55A10.39,10.39,0,0,0,63.65,45H62.26V41.47H47.44V45H46.05a9.86,9.86,0,0,0,.11-1.47V42a12.18,12.18,0,0,0-.09-1.74,19.83,19.83,0,0,0,2.4.1Z"/>
        <path class="cls-1" d="M72.58,52.9a17.6,17.6,0,0,0-2.25.08V51.32a10,10,0,0,0,2.29.15h10V41.33H73.06a18.62,18.62,0,0,0-2.42.1V39.75a11.22,11.22,0,0,0,2.42.15H83.14l1.09,0c0,.52,0,.88,0,1.64V52.25a14.85,14.85,0,0,0,.1,1.91H82.61V52.9Z"/>
        <path class="cls-1" d="M91.22,45.48a14.32,14.32,0,0,0,2.61.13H106a17.39,17.39,0,0,0,2.54-.1v1.7a22.06,22.06,0,0,0-2.57-.09H93.83a20.94,20.94,0,0,0-2.61.09Z"/>
        <path class="cls-1" d="M129.63,54.6a39.1,39.1,0,0,0-6.72-6.49,23.14,23.14,0,0,1-4,3.76,27.48,27.48,0,0,1-4.11,2.52,4.92,4.92,0,0,0-1-1.39A17.23,17.23,0,0,0,118,50.59a22.76,22.76,0,0,0,7.49-9.47c0-.13.07-.15.11-.25a.58.58,0,0,0,.06-.15,3.7,3.7,0,0,1-.5,0l-7,.1A16.19,16.19,0,0,0,116,41l0-1.7a9.3,9.3,0,0,0,1.66.11h.55l7.49-.09a3.81,3.81,0,0,0,1.35-.17l.88.91a3.78,3.78,0,0,0-.59,1A25.4,25.4,0,0,1,123.83,47a51.42,51.42,0,0,1,7,6.29Z"/>
        <path class="cls-1" d="M146.64,46.43a1.72,1.72,0,1,1-1.72-1.72A1.73,1.73,0,0,1,146.64,46.43Z"/>
        <path class="cls-1" d="M160.31,44.31a11.91,11.91,0,0,0-2.14.12V43.05a11.91,11.91,0,0,0,2.14.12h2.17V40.51h-1.56a12.69,12.69,0,0,0-1.91.1V39.25a9.39,9.39,0,0,0,1.91.12h1.56v-.69a11.5,11.5,0,0,0-.13-1.85h1.51a11.23,11.23,0,0,0-.1,1.85v.69h.65a7.78,7.78,0,0,0,1.72-.12v1.34a14.3,14.3,0,0,0-1.64-.08h-.73v2.66h.65a19.68,19.68,0,0,0,2.87-4.05,6.53,6.53,0,0,0,.59-1.38l1.3.75a4.3,4.3,0,0,0-.5.74A21.62,21.62,0,0,1,166,43.17h.67a15.48,15.48,0,0,0,2.21-.1v1.32a19.11,19.11,0,0,0-2-.08h-1.89a28,28,0,0,1-2.39,2.22h3.11a14.12,14.12,0,0,0,1.91-.08,16.46,16.46,0,0,0-.07,2.2v4.88a17.66,17.66,0,0,0,.09,2.07h-1.32v-.94h-4.73v1.28h-1.36a18.88,18.88,0,0,0,.12-2.29V48.32c-.9.67-1.13.86-2.1,1.49a3.44,3.44,0,0,0-.73-1.13,25.22,25.22,0,0,0,5.86-4.37Zm1.22,5.6h4.73V47.63h-4.73Zm0,3.64h4.73V51h-4.73Zm15.22-15.18c-.14.27-.14.27-.84,1.87a45.79,45.79,0,0,1-2.12,4.13,9.07,9.07,0,0,1,2.12,2.82,7.24,7.24,0,0,1,.82,3.25,2.61,2.61,0,0,1-1.15,2.48,4.41,4.41,0,0,1-2.1.35c-.34,0-.84,0-1.43-.06a4.38,4.38,0,0,0-.29-1.43,11.13,11.13,0,0,0,2,.17c1.16,0,1.56-.42,1.56-1.7a6.77,6.77,0,0,0-1-3.38,9.18,9.18,0,0,0-2.06-2.31,30.85,30.85,0,0,0,2.79-5.84H170.9V53.17A22.91,22.91,0,0,0,171,56h-1.59a21.2,21.2,0,0,0,.12-2.87V39.42c0-.7,0-1.2-.08-1.91.54,0,.92.06,1.72.06h3.3a8.82,8.82,0,0,0,1.61-.09Z"/>
        <path class="cls-1" d="M189,38.72a9.69,9.69,0,0,0-.15-1.78h1.68a9.17,9.17,0,0,0-.15,1.78V40H197a15.29,15.29,0,0,0,2.39-.14v1.51a15.42,15.42,0,0,0-2.37-.13H183a17.28,17.28,0,0,0-2.33.13V39.86A15.85,15.85,0,0,0,183,40h6Zm0,4.73a9.37,9.37,0,0,0-.11-1.66h1.58a10.86,10.86,0,0,0-.11,1.68v.67h5a19.23,19.23,0,0,0,2-.08,14,14,0,0,0-.08,1.7v6c0,1.37-.42,1.73-2.14,1.73-.86,0-1.22,0-2.19-.09a4.5,4.5,0,0,0-.35-1.4,17.44,17.44,0,0,0,2.45.21c.68,0,.84-.13.84-.59V45.34h-5.5v8.35a16,16,0,0,0,.15,2.29h-1.66a15.83,15.83,0,0,0,.15-2.29V45.34h-5v6.32a15.26,15.26,0,0,0,.13,2.26h-1.66a17.79,17.79,0,0,0,.13-2.26V45.78a15,15,0,0,0-.09-1.72,19.35,19.35,0,0,0,2,.08H189Z"/>
        <path class="cls-1" d="M204.6,39.23a9.8,9.8,0,0,0-1.68.1V38a8.46,8.46,0,0,0,1.77.12h2.08a8.64,8.64,0,0,0,1.76-.12v1.38a9.5,9.5,0,0,0-1.6-.1h-.33v5h.29a7,7,0,0,0,1.37-.1V45.4a9.72,9.72,0,0,0-1.37-.08h-.29v5a24,24,0,0,0,2.47-1.07v1.3a52.15,52.15,0,0,1-4.87,2c-.44.17-.82.33-1.11.46l-.42-1.49a11.11,11.11,0,0,0,2.65-.71V45.32h-.65a7.69,7.69,0,0,0-1.43.1V44.08a7.43,7.43,0,0,0,1.43.1h.65v-5Zm16.82,11.1-.27.19-.4.32a22.21,22.21,0,0,1-2.16,1.59,14.12,14.12,0,0,0,3.92,1.79,5.62,5.62,0,0,0-.73,1.22,15.28,15.28,0,0,1-4.12-2.36,9.27,9.27,0,0,1-2.33-2.58c0,.49.09,1.33.09,2.06v1.6a12.26,12.26,0,0,0,.12,2h-1.47a11.47,11.47,0,0,0,.13-2V52.6c0-.59,0-1.45.08-2a12.35,12.35,0,0,1-2.9,2.62A21.16,21.16,0,0,1,208,55.12a4.11,4.11,0,0,0-.9-1.11A16.87,16.87,0,0,0,212,51.49a17.12,17.12,0,0,0,2.08-2h-2.6c-.68,0-1.31,0-1.64.06a11.84,11.84,0,0,0,.06-1.3V46.89a12.36,12.36,0,0,0-.06-1.3c.5,0,1,.06,1.68.06h7.37c.8,0,1.24,0,1.74-.06a12.1,12.1,0,0,0-.06,1.3V48.3a11.45,11.45,0,0,0,.06,1.28,1.27,1.27,0,0,0-.27,0Zm-12.64-7.22a12.38,12.38,0,0,0,2,.13h9.15a15.7,15.7,0,0,0,2-.11v1.3a18.65,18.65,0,0,0-1.93-.1h-9.22a19,19,0,0,0-2,.1Zm.5-4.26a9.16,9.16,0,0,0-.08-1.41,10.49,10.49,0,0,0,1.68.09h8.71a11,11,0,0,0,1.68-.09,9.56,9.56,0,0,0-.08,1.39v1.8a9.38,9.38,0,0,0,.08,1.39c-.46,0-1-.06-1.61-.06h-8.78c-.67,0-1,0-1.66.06a11.52,11.52,0,0,0,.06-1.43Zm3.66-.29h-2.46V41h2.46Zm-1.83,9.93h8.13V46.66h-8.13Zm5.25-9.93h-2.31V41h2.31Zm-.78,11a11.77,11.77,0,0,0,2.08,2.22,9.46,9.46,0,0,0,2.63-2.18c-.34,0-.82,0-1.26,0Zm4.43-11h-2.54V41H220Z"/>
        <path class="cls-1" d="M228,39.44a18.06,18.06,0,0,0-.13-2.31h1.53a17.66,17.66,0,0,0-.12,2.31V42.5h.29a12.36,12.36,0,0,0,1.66-.08v1.34a13,13,0,0,0-1.68-.08h-.27v6c.88-.39,1.26-.56,2.31-1.11l.1,1.28a56,56,0,0,1-5.16,2.31l-.86.4-.38-1.45a12.47,12.47,0,0,0,2.71-.9V43.68h-.7a13.23,13.23,0,0,0-1.82.1V42.4a12.62,12.62,0,0,0,1.86.1H228Zm6.21,11.19c-.61,0-1,0-1.78.08a9,9,0,0,0,.08-1.47V45.86a12,12,0,0,0-.08-1.64,15.23,15.23,0,0,0,2,.09H241a15.23,15.23,0,0,0,2-.09,11,11,0,0,0-.09,1.68v3.22a10.34,10.34,0,0,0,.09,1.59,15.29,15.29,0,0,0-1.72-.08h-1.66V53.9c0,.4.23.47,1.85.47,1.13,0,1.51-.09,1.68-.34a6.06,6.06,0,0,0,.29-2.23,3.88,3.88,0,0,0,1.24.53c-.13,1.78-.32,2.48-.8,2.83s-1,.4-2.69.4a5.23,5.23,0,0,1-2.37-.29c-.34-.17-.48-.46-.48-1V50.63h-2.14a5.7,5.7,0,0,1-.3,1.55,5.08,5.08,0,0,1-2.31,2.69,9.47,9.47,0,0,1-3.27,1.2,3.37,3.37,0,0,0-.84-1.24c2.35-.38,3.57-.86,4.43-1.75a3.58,3.58,0,0,0,1-2.45Zm7.45-11.89a15.19,15.19,0,0,0,2.12-.1V39.9a20.71,20.71,0,0,0-2.12-.08h-.21a18.61,18.61,0,0,1-1,2.12h1.82a12.49,12.49,0,0,0,2.08-.11v1.32a15.13,15.13,0,0,0-2.1-.1h-8.63a18.74,18.74,0,0,0-2,.08v-1.3a12.26,12.26,0,0,0,2,.11h1.34a10.45,10.45,0,0,0-.88-2.12h-.19a17.15,17.15,0,0,0-1.91.08V38.64a14.91,14.91,0,0,0,2.08.1h3v-.58a6.91,6.91,0,0,0-.1-1.37h1.51a6.79,6.79,0,0,0-.11,1.39v.56Zm-7.95,8.15h8V45.4h-8Zm0,2.71h8V47.94h-8Zm5.43-7.66a13.18,13.18,0,0,0,1-2.12h-4.81a18.36,18.36,0,0,1,.84,2.12Z"/>
        <path class="cls-1" d="M250.84,43.28A32.47,32.47,0,0,1,256.18,46l-.82,1.41A22.71,22.71,0,0,0,250,44.56Zm-.54,9.6A18.19,18.19,0,0,0,256,51.57a13.81,13.81,0,0,0,6.3-4.68,15.64,15.64,0,0,0,2.51-4.7,6.66,6.66,0,0,0,1.31,1.11A16.47,16.47,0,0,1,258,52.35a24.42,24.42,0,0,1-5.31,1.81l-1.13.23a4.11,4.11,0,0,0-.82.23Zm2.18-14.62a30.68,30.68,0,0,1,5.21,2.65l-.86,1.4a22.2,22.2,0,0,0-5.17-2.77Z"/>
        <path class="cls-1" d="M287.21,54.6a39,39,0,0,0-6.71-6.49,23.18,23.18,0,0,1-4,3.76,27,27,0,0,1-4.11,2.52,4.74,4.74,0,0,0-1-1.39,16.88,16.88,0,0,0,4.26-2.41,22.79,22.79,0,0,0,7.5-9.47,2.16,2.16,0,0,1,.1-.25.4.4,0,0,0,.07-.15,3.79,3.79,0,0,1-.51,0l-7,.1a16.17,16.17,0,0,0-2.16.17l0-1.7a9.12,9.12,0,0,0,1.65.11h.55l7.5-.09a3.79,3.79,0,0,0,1.34-.17l.88.91a3.78,3.78,0,0,0-.59,1A25.4,25.4,0,0,1,281.42,47a51.34,51.34,0,0,1,7,6.29Z"/>
        <path class="cls-1" d="M303.62,45.3a18.62,18.62,0,0,1-.24,2.22,8.19,8.19,0,0,1-2.83,5.54,12.12,12.12,0,0,1-3.7,2.08,3.62,3.62,0,0,0-1-1.36c2.75-.88,4.45-2.23,5.31-4.14A12,12,0,0,0,302,45.3h-5.69a20,20,0,0,0-2.41.1V43.85a15.73,15.73,0,0,0,2.43.12h12.28a16,16,0,0,0,2.44-.12V45.4a20.19,20.19,0,0,0-2.42-.1ZM296,38.64a11.22,11.22,0,0,0,2.41.15h8.17a11.22,11.22,0,0,0,2.41-.15v1.6a15.78,15.78,0,0,0-2.39-.11h-8.21a15.78,15.78,0,0,0-2.39.11Z"/>
        <path class="cls-1" d="M325.18,38.16a8.46,8.46,0,0,0-.56,1.51A114.23,114.23,0,0,1,320.25,52c2.79-.19,7.73-.84,10.2-1.32a40.28,40.28,0,0,0-3.23-5.44l1.3-.71A54.48,54.48,0,0,1,333.75,54l-1.47.79A29.8,29.8,0,0,0,331,51.93a129.7,129.7,0,0,1-12.91,1.74,17.36,17.36,0,0,0-1.79.23l-.21-1.74.59,0c.15,0,1.3-.06,1.79-.1a80.84,80.84,0,0,0,3.17-8.32,40.2,40.2,0,0,0,1.66-6Z"/>
        <path class="cls-1" d="M342.72,52.9a17.87,17.87,0,0,0-2.25.08V51.32a10,10,0,0,0,2.29.15h10V41.33H343.2a18.35,18.35,0,0,0-2.41.1V39.75a11.11,11.11,0,0,0,2.41.15h10.08l1.09,0c0,.52,0,.88,0,1.64V52.25a12.93,12.93,0,0,0,.11,1.91h-1.68V52.9Z"/>
        <path class="cls-1" d="M361.37,45.48a14.19,14.19,0,0,0,2.6.13h12.2a17.39,17.39,0,0,0,2.54-.1v1.7a21.75,21.75,0,0,0-2.56-.09H364a20.85,20.85,0,0,0-2.6.09Z"/>
        <path class="cls-1" d="M399.77,54.6a39.38,39.38,0,0,0-6.71-6.49,22.82,22.82,0,0,1-4,3.76,27,27,0,0,1-4.11,2.52,4.74,4.74,0,0,0-1-1.39,16.88,16.88,0,0,0,4.26-2.41,22.79,22.79,0,0,0,7.5-9.47,2.16,2.16,0,0,1,.1-.25.4.4,0,0,0,.07-.15,3.86,3.86,0,0,1-.51,0l-7,.1a16,16,0,0,0-2.16.17l0-1.7a9.3,9.3,0,0,0,1.66.11h.55l7.5-.09a3.79,3.79,0,0,0,1.34-.17l.88.91a3.78,3.78,0,0,0-.59,1A25.4,25.4,0,0,1,394,47a51.34,51.34,0,0,1,7,6.29Z"/>
        <path class="cls-1" d="M416.78,46.43a1.72,1.72,0,1,1-1.72-1.72A1.73,1.73,0,0,1,416.78,46.43Z"/>
        <path class="cls-1" d="M429.72,39.23a9.73,9.73,0,0,0-1.68.1V38a8.46,8.46,0,0,0,1.77.12h2.07a8.69,8.69,0,0,0,1.77-.12v1.38a9.5,9.5,0,0,0-1.6-.1h-.33v5H432a7,7,0,0,0,1.37-.1V45.4a9.63,9.63,0,0,0-1.37-.08h-.29v5a24,24,0,0,0,2.47-1.07v1.3a52.15,52.15,0,0,1-4.87,2c-.44.17-.82.33-1.11.46l-.42-1.49a11.11,11.11,0,0,0,2.65-.71V45.32h-.66a7.64,7.64,0,0,0-1.42.1V44.08a7.39,7.39,0,0,0,1.42.1h.66v-5Zm16.82,11.1-.27.19-.4.32a22.21,22.21,0,0,1-2.16,1.59,14.12,14.12,0,0,0,3.92,1.79,5.62,5.62,0,0,0-.73,1.22,15.28,15.28,0,0,1-4.12-2.36,9.12,9.12,0,0,1-2.33-2.58c0,.49.08,1.33.08,2.06v1.6a12,12,0,0,0,.13,2h-1.47a12.52,12.52,0,0,0,.13-2V52.6c0-.59,0-1.45.08-2a12.55,12.55,0,0,1-2.9,2.62,21.16,21.16,0,0,1-3.36,1.89,4.11,4.11,0,0,0-.9-1.11,16.87,16.87,0,0,0,4.83-2.52,17.88,17.88,0,0,0,2.08-2h-2.6c-.68,0-1.31,0-1.64.06a11.84,11.84,0,0,0,.06-1.3V46.89a12.36,12.36,0,0,0-.06-1.3c.5,0,1,.06,1.68.06H444c.8,0,1.24,0,1.74-.06a12.1,12.1,0,0,0-.06,1.3V48.3a11.45,11.45,0,0,0,.06,1.28,1.27,1.27,0,0,0-.27,0ZM433.9,43.11a12.38,12.38,0,0,0,2,.13h9.15a15.7,15.7,0,0,0,2-.11v1.3a18.65,18.65,0,0,0-1.93-.1h-9.22a19,19,0,0,0-2,.1Zm.5-4.26a9.16,9.16,0,0,0-.08-1.41,10.49,10.49,0,0,0,1.68.09h8.71a11,11,0,0,0,1.68-.09,9.56,9.56,0,0,0-.08,1.39v1.8a9.38,9.38,0,0,0,.08,1.39c-.46,0-1-.06-1.61-.06H436c-.67,0-1.05,0-1.66.06a11.52,11.52,0,0,0,.06-1.43Zm3.66-.29H435.6V41h2.46Zm-1.83,9.93h8.13V46.66h-8.13Zm5.25-9.93h-2.31V41h2.31Zm-.78,11a11.77,11.77,0,0,0,2.08,2.22,9.46,9.46,0,0,0,2.63-2.18c-.34,0-.82,0-1.26,0Zm4.43-11h-2.54V41h2.54Z"/>
        <path class="cls-1" d="M453.1,39.44a18.06,18.06,0,0,0-.13-2.31h1.53a17.66,17.66,0,0,0-.12,2.31V42.5h.29a12.36,12.36,0,0,0,1.66-.08v1.34a13,13,0,0,0-1.68-.08h-.27v6c.88-.39,1.26-.56,2.31-1.11l.1,1.28a56,56,0,0,1-5.16,2.31l-.86.4-.38-1.45a12.47,12.47,0,0,0,2.71-.9V43.68h-.7a13.32,13.32,0,0,0-1.82.1V42.4a12.62,12.62,0,0,0,1.86.1h.66Zm6.21,11.19c-.61,0-1,0-1.78.08a9,9,0,0,0,.08-1.47V45.86a12,12,0,0,0-.08-1.64,15.23,15.23,0,0,0,2,.09h6.62a15.23,15.23,0,0,0,2-.09A11,11,0,0,0,468,45.9v3.22a10.34,10.34,0,0,0,.09,1.59,15.29,15.29,0,0,0-1.72-.08h-1.66V53.9c0,.4.23.47,1.85.47,1.13,0,1.51-.09,1.68-.34a6.06,6.06,0,0,0,.29-2.23,3.88,3.88,0,0,0,1.24.53c-.13,1.78-.32,2.48-.8,2.83s-1,.4-2.69.4a5.23,5.23,0,0,1-2.37-.29c-.34-.17-.48-.46-.48-1V50.63h-2.14a5.7,5.7,0,0,1-.3,1.55,5.08,5.08,0,0,1-2.31,2.69,9.47,9.47,0,0,1-3.27,1.2,3.37,3.37,0,0,0-.84-1.24c2.35-.38,3.57-.86,4.43-1.75a3.58,3.58,0,0,0,1-2.45Zm7.45-11.89a15.19,15.19,0,0,0,2.12-.1V39.9a20.71,20.71,0,0,0-2.12-.08h-.21a16.94,16.94,0,0,1-1,2.12h1.83a12.49,12.49,0,0,0,2.08-.11v1.32a15.13,15.13,0,0,0-2.1-.1H458.7a18.74,18.74,0,0,0-2,.08v-1.3a12.26,12.26,0,0,0,2,.11H460a10.45,10.45,0,0,0-.88-2.12H459a17.15,17.15,0,0,0-1.91.08V38.64a14.91,14.91,0,0,0,2.08.1h3v-.58a6.91,6.91,0,0,0-.1-1.37h1.51a6.79,6.79,0,0,0-.11,1.39v.56Zm-7.95,8.15h8V45.4h-8Zm0,2.71h8V47.94h-8Zm5.43-7.66a13.18,13.18,0,0,0,1-2.12h-4.81a18.36,18.36,0,0,1,.84,2.12Z"/>
        <path class="cls-1" d="M473.26,45.38a8.86,8.86,0,0,0,1.61.1H476a10.13,10.13,0,0,0,1.62-.1,16.8,16.8,0,0,0-.1,2.22v4.12a3.15,3.15,0,0,0,1.87,1.91,11.43,11.43,0,0,0,4.72.61,61.68,61.68,0,0,0,8.44-.42,5,5,0,0,0-.48,1.53c-2.21.11-4.62.15-7.1.15-3.57,0-4.74-.15-6-.74a4.81,4.81,0,0,1-2.17-2A18.28,18.28,0,0,1,474.24,55a7.2,7.2,0,0,0-.75.65l-.7-1.39a13.67,13.67,0,0,0,3.38-2.54V46.66h-1.38a7.43,7.43,0,0,0-1.53.11Zm1.34-8a25.48,25.48,0,0,1,3.4,3.74l-1.07.94a19,19,0,0,0-3.32-3.84Zm6.63,3.66a14.07,14.07,0,0,1-1.42,2.09,3.27,3.27,0,0,0-1.12-.71,11.66,11.66,0,0,0,2.46-4,5.24,5.24,0,0,0,.27-1.07l1.35.4a1.14,1.14,0,0,1-.09.19c-.12.25-.12.25-.37.86a11.54,11.54,0,0,1-.49,1.11h2.77v-.73a13.62,13.62,0,0,0-.12-2.17H486a10.11,10.11,0,0,0-.13,2.17v.73h3a9.13,9.13,0,0,0,2-.13v1.37a17.64,17.64,0,0,0-2-.08h-3v2.81h3.93a10.05,10.05,0,0,0,1.91-.11v1.37c-.65-.06-1.24-.11-1.91-.11h-9.3a18.1,18.1,0,0,0-1.87.11V43.78a10.18,10.18,0,0,0,1.91.11h4.07V41.08Zm1.16,11.21a15.67,15.67,0,0,0-2.1.1,13.79,13.79,0,0,0,.08-2V48.61a13.12,13.12,0,0,0-.08-1.89,14.76,14.76,0,0,0,2.23.11H488a15.31,15.31,0,0,0,2.24-.11,12,12,0,0,0-.08,2v1.6a11.91,11.91,0,0,0,.08,2,17.22,17.22,0,0,0-2.2-.1Zm-.76-1.18h7.25V48h-7.25Z"/>
        <path class="cls-1" d="M512.46,56.05V55H497.74v1h-1.45a17.24,17.24,0,0,0,.13-2.55V40.26a22.5,22.5,0,0,0-.13-2.59,18.59,18.59,0,0,0,2.46.11h12.66a19.63,19.63,0,0,0,2.5-.11,20.57,20.57,0,0,0-.13,2.59V53.55a15.6,15.6,0,0,0,.13,2.5Zm-14.72-2.13h14.72v-15H497.74Zm13.38-4.7a15.59,15.59,0,0,1-2.52,1.87,11.78,11.78,0,0,0,3.23,1.16,5.46,5.46,0,0,0-.76,1.13,12.27,12.27,0,0,1-5.79-3.7c0,.42,0,.89,0,1.2v1a6.6,6.6,0,0,0,.11,1.47H504a8.08,8.08,0,0,0,.11-1.47v-1c0-.27,0-.57,0-1.2a14.47,14.47,0,0,1-5.06,3.45,4.14,4.14,0,0,0-.82-1.05,13.83,13.83,0,0,0,3.36-1.58,12.55,12.55,0,0,0,2.2-1.8h-2.33c-.69,0-1.05,0-1.41,0a8.31,8.31,0,0,0,.07-1.16V46.26a8.26,8.26,0,0,0-.07-1.15,13.29,13.29,0,0,0,1.41.06h7.14a13.16,13.16,0,0,0,1.41-.06,7.27,7.27,0,0,0-.07,1.15v1.32a9.82,9.82,0,0,0,.05,1.07l.06-.08Zm-9.89-7.51a10.48,10.48,0,0,0-1.75.1V40.59a8.87,8.87,0,0,0,1.75.11h3.1a8.63,8.63,0,0,0-.1-1.22h1.41a5.32,5.32,0,0,0-.11,1.22h3.57a8.59,8.59,0,0,0,1.72-.11v1.22a10,10,0,0,0-1.72-.1h-3.57v1.42H510a9.35,9.35,0,0,0,1.71-.1v1.24a9.42,9.42,0,0,0-1.71-.11h-9.88a9.55,9.55,0,0,0-1.71.11V43a9.66,9.66,0,0,0,1.73.1h4.15V41.71Zm.16,6h7.44V46.11h-7.44Zm4.12,1a9.73,9.73,0,0,0,2.18,1.87A8.41,8.41,0,0,0,510,48.74a10.78,10.78,0,0,0-1.32,0Z"/>
        <path class="cls-1" d="M533.15,39.73a2,2,0,0,1-.09-.61,2.39,2.39,0,1,1,2.37,2.38,2.59,2.59,0,0,1-.73-.11l0,.13a18.76,18.76,0,0,1-4.29,8.35,19.47,19.47,0,0,1-7.64,5,4,4,0,0,0-1-1.45,16.81,16.81,0,0,0,7.69-4.77,17,17,0,0,0,3.67-7.47H522.37a14.66,14.66,0,0,0-2.35.13V39.61a15.71,15.71,0,0,0,2.38.12h10.75Zm.79-.63a1.51,1.51,0,1,0,1.51-1.49A1.5,1.5,0,0,0,533.94,39.1Z"/>
        <path class="cls-1" d="M544.51,52.69v1.49h-1.62A11.42,11.42,0,0,0,543,52.6V41.2a11.1,11.1,0,0,0-.09-1.64,13,13,0,0,0,1.64.07h11.19a9.94,9.94,0,0,0,1.64-.07,10.34,10.34,0,0,0-.07,1.64V52.56c0,.63,0,1.18.07,1.62h-1.6V52.69ZM555.76,41H544.51V51.32h11.25Z"/>
        <path class="cls-1" d="M572.1,37.86a3.84,3.84,0,0,0-.46.86,16.8,16.8,0,0,1-1,1.85,3.19,3.19,0,0,1,.76-.06l5.08-.09a2.38,2.38,0,0,0,1.09-.14l1.26,1.32a1.88,1.88,0,0,0-.35.82,19.7,19.7,0,0,1-11.43,12.89A3.22,3.22,0,0,0,566,54.07a18.08,18.08,0,0,0,11-12.32l-7.08.1a20.19,20.19,0,0,1-5,5.46,3.13,3.13,0,0,0-1.17-1.07,16.25,16.25,0,0,0,5.27-5.77,9.2,9.2,0,0,0,1.32-3Zm6.49-.67a14.5,14.5,0,0,1,2.14,3.17l-1.05.63a14.5,14.5,0,0,0-2.14-3.23ZM580.94,36a16.6,16.6,0,0,1,2.16,3.19l-1.05.61a14.76,14.76,0,0,0-2.14-3.22Z"/>
        <path class="cls-1" d="M587.56,43.38a14.47,14.47,0,0,0,2.46.13h10.77a3.45,3.45,0,0,0,1.36-.15l.78.91a6.1,6.1,0,0,0-.59,1.32c-1.79,4.89-4.68,7.58-10.12,9.41a4.6,4.6,0,0,0-.9-1.45,14.5,14.5,0,0,0,6.23-3.19,12.91,12.91,0,0,0,3.4-5.51H590a19.84,19.84,0,0,0-2.43.11Zm1.8-4.87a9.4,9.4,0,0,0,2.21.15h7a9.4,9.4,0,0,0,2.21-.15v1.62a14.83,14.83,0,0,0-2.19-.1h-7.05a14.83,14.83,0,0,0-2.19.1Z"/>
        <path class="cls-1" d="M617.84,38.16a8.36,8.36,0,0,0-.57,1.51A114.46,114.46,0,0,1,612.91,52c2.79-.19,7.72-.84,10.2-1.32a41.35,41.35,0,0,0-3.23-5.44l1.3-.71A54.48,54.48,0,0,1,626.41,54l-1.47.79c-.47-1.19-.76-1.86-1.24-2.83a130,130,0,0,1-12.92,1.74,17.47,17.47,0,0,0-1.78.23l-.21-1.74.59,0c.14,0,1.3-.06,1.78-.1a80.84,80.84,0,0,0,3.17-8.32,40.2,40.2,0,0,0,1.66-6Z"/>
        <path class="cls-1" d="M637.85,37.61a36.52,36.52,0,0,0,1.58,7c1.24-.5,1.82-.73,5.08-1.87a11.27,11.27,0,0,0,1.34-.54l.63,1.59a48.58,48.58,0,0,0-6.32,2c-3.59,1.43-5.14,2.81-5.14,4.55,0,1.92,1.61,2.65,5.73,2.65a21,21,0,0,0,6-.71l.16,1.74a11.32,11.32,0,0,0-1.55.12,42.34,42.34,0,0,1-4.64.28,14.21,14.21,0,0,1-4.66-.57,3.49,3.49,0,0,1-2.61-3.44,4.54,4.54,0,0,1,1.87-3.57,13.17,13.17,0,0,1,2.75-1.7,44.48,44.48,0,0,1-1.53-5.88,6.56,6.56,0,0,0-.36-1.32Z"/>
        <path class="cls-1" d="M96.81,76.5a17.34,17.34,0,0,0-.08-1.89,14.9,14.9,0,0,0,2,.09h13a14.54,14.54,0,0,0,1.94-.09,14.8,14.8,0,0,0-.09,1.91V90.76c0,1.26-.42,1.51-2.56,1.51-.78,0-1.7,0-2.73-.1a6.61,6.61,0,0,0-.31-1.37,21,21,0,0,0,3.23.25c.8,0,1-.08,1-.46V75.91H98.2V90.42a13.7,13.7,0,0,0,.14,2.25H96.68a16.55,16.55,0,0,0,.13-2.25Zm2.81,1.58a9,9,0,0,0,1.7.1h7.81a8.9,8.9,0,0,0,1.7-.1v1.4a9.08,9.08,0,0,0-1.65-.1H101.3a9.8,9.8,0,0,0-1.68.1Zm9.6,8.84a10.74,10.74,0,0,0,.06,1.21c-.42,0-.82-.06-1.3-.06h-5.59v1.85H101a17.54,17.54,0,0,0,.08-1.93V83a12.79,12.79,0,0,0-.06-1.28c.44,0,.86.06,1.41.06h5.29c.69,0,1.07,0,1.53-.06a9.59,9.59,0,0,0-.06,1.26Zm-6.83,0h5.53v-4h-5.53Z"/>
        <path class="cls-1" d="M120.83,76.86a15.48,15.48,0,0,0-.1-2.06,16,16,0,0,0,2.25.11h9.44a14.36,14.36,0,0,0,2.17-.11,12.41,12.41,0,0,0-.11,1.93V90.19a15.12,15.12,0,0,0,.13,2.25h-1.54V91.07H122.24v1.37h-1.53a17,17,0,0,0,.12-2.23Zm1.41,5.21h10.83V76.19H122.24Zm0,7.72h10.83V83.35H122.24Z"/>
        <path class="cls-1" d="M144,76.06c-.88.23-1.3.32-2.52.57a4.2,4.2,0,0,0-.58-1.16c3-.42,5.18-1.09,6.17-1.84l.84,1.11c-1.2.48-2.08.82-2.63,1v3.38h1.18A8.21,8.21,0,0,0,147.8,79v1.32a9.5,9.5,0,0,0-1.41-.08H145.3a11.17,11.17,0,0,0,2.58,4,5.25,5.25,0,0,0-.78,1.07,11.88,11.88,0,0,1-2-3.53c0,.78.1,2.61.1,3.07v5.5a16.54,16.54,0,0,0,.13,2.41h-1.53a17.87,17.87,0,0,0,.12-2.39V85.3c0-.48.07-2.44.11-3.28a14.85,14.85,0,0,1-3.17,6.09,4.08,4.08,0,0,0-.78-1.15,13.65,13.65,0,0,0,2.48-3.65,17.3,17.3,0,0,0,1.15-3h-1.42a8.3,8.3,0,0,0-1.6.11V79a9,9,0,0,0,1.64.11H144Zm6.16,8.09a14.37,14.37,0,0,0-2,.1V82.86a12.49,12.49,0,0,0,2.08.11h6.74a15.61,15.61,0,0,0,2.24-.13v1.43a17.88,17.88,0,0,0-2.24-.12H154v2.49h2.54a14.93,14.93,0,0,0,2.18-.1v1.38a15.61,15.61,0,0,0-2.18-.1H154V90.7h3.27a17.5,17.5,0,0,0,2.29-.13V92a16.87,16.87,0,0,0-2.29-.13h-8.16a16.87,16.87,0,0,0-2.29.13V90.59a15.71,15.71,0,0,0,2.29.11h3.59V87.82h-2.36a15.82,15.82,0,0,0-2.16.1V86.54a14.62,14.62,0,0,0,2.16.1h2.36V84.15Zm-1.35-7.75a13.94,13.94,0,0,0-.08-1.7,16.77,16.77,0,0,0,1.89.08h5.92a15.94,15.94,0,0,0,1.87-.08,11.25,11.25,0,0,0-.09,1.7v3a11,11,0,0,0,.09,1.77c-.59,0-1.09-.07-1.93-.07h-5.84c-.78,0-1.32,0-1.91.07a13.64,13.64,0,0,0,.08-1.73Zm1.3,3.59H157V76h-6.91Z"/>
        <path class="cls-1" d="M174.4,83.18a1.72,1.72,0,1,1-1.72-1.72A1.73,1.73,0,0,1,174.4,83.18Z"/>
        <path class="cls-1" d="M186.86,76.5a15,15,0,0,0-.09-1.89,15.16,15.16,0,0,0,2,.09h12.95a14.28,14.28,0,0,0,1.93-.09,17.15,17.15,0,0,0-.08,1.91V90.76c0,1.26-.42,1.51-2.56,1.51-.78,0-1.7,0-2.73-.1A6.05,6.05,0,0,0,198,90.8a21.26,21.26,0,0,0,3.24.25c.8,0,1-.08,1-.46V75.91H188.24V90.42a13.54,13.54,0,0,0,.15,2.25h-1.66a16.55,16.55,0,0,0,.13-2.25Zm2.81,1.58a9,9,0,0,0,1.7.1h7.81a9,9,0,0,0,1.7-.1v1.4a9.13,9.13,0,0,0-1.66-.1h-7.87a9.66,9.66,0,0,0-1.68.1Zm9.6,8.84a10.74,10.74,0,0,0,.06,1.21c-.42,0-.82-.06-1.3-.06h-5.59v1.85h-1.36a17.54,17.54,0,0,0,.08-1.93V83a12.79,12.79,0,0,0-.06-1.28c.44,0,.86.06,1.41.06h5.29c.69,0,1.07,0,1.53-.06a9.59,9.59,0,0,0-.06,1.26Zm-6.83,0H198v-4h-5.52Z"/>
        <path class="cls-1" d="M218.42,73.79A14,14,0,0,0,222,77.55a22.38,22.38,0,0,0,5.79,3.36,4.48,4.48,0,0,0-.82,1.35,28.74,28.74,0,0,1-5.83-3.66A17,17,0,0,1,217.73,75a18.44,18.44,0,0,1-3.15,3.45,23.37,23.37,0,0,1-5.67,3.69A4.43,4.43,0,0,0,208,81a21.82,21.82,0,0,0,5.56-3.42,15.58,15.58,0,0,0,3.34-3.74Zm-7.1,11.72a16.87,16.87,0,0,0-2.39.13V84.12a16.87,16.87,0,0,0,2.39.13h12.94a16.68,16.68,0,0,0,2.39-.13v1.52a17.16,17.16,0,0,0-2.39-.13h-7.54a31.55,31.55,0,0,1-2.63,4.95c2.9-.18,5.08-.39,8.19-.77-1.26-1.37-1.64-1.74-2.56-2.61l1.09-.67A45.18,45.18,0,0,1,225.89,92l-1.15.86c-.82-1.16-1.09-1.52-1.53-2.06-3.74.5-6.91.84-10.19,1.09a24.53,24.53,0,0,0-3.55.38l-.25-1.6a10.45,10.45,0,0,0,1.07.07c.34,0,.34,0,2.23-.13a32.38,32.38,0,0,0,2.67-5.06Zm1.35-5.23a11.26,11.26,0,0,0,1.65.09h6.79a12.93,12.93,0,0,0,1.76-.09v1.41a13.24,13.24,0,0,0-1.76-.09H214.3a12.33,12.33,0,0,0-1.63.09Z"/>
        <path class="cls-1" d="M233.5,76.19a15.65,15.65,0,0,0-.13-2.31h1.56a13.68,13.68,0,0,0-.13,2.33v2.9h.5a12.87,12.87,0,0,0,1.75-.09v1.35a14.87,14.87,0,0,0-1.75-.09h-.5v5.4a19,19,0,0,0,1.78-1.07l.09,1.26a40.63,40.63,0,0,1-4.37,2.37c-.33.15-.92.44-1.11.55l-.4-1.47a10.81,10.81,0,0,0,2.71-1v-6h-.9a13.75,13.75,0,0,0-1.79.11V79a12.22,12.22,0,0,0,1.83.11h.86Zm5.9,9.59a13.81,13.81,0,0,1-3.53,2.8,3.58,3.58,0,0,0-.86-1,10.08,10.08,0,0,0,4.87-4.43H238.6a9.7,9.7,0,0,0-1.89.13V82a9.76,9.76,0,0,0,1.93.13h9a11.32,11.32,0,0,0,2.08-.13v1.32a18.91,18.91,0,0,0-2.08-.08h-6.43a9.89,9.89,0,0,1-1,1.53h6.95a17,17,0,0,0,2.05-.08,10,10,0,0,0-.1,1.24,21.3,21.3,0,0,1-.92,5.6c-.38.76-.91,1-2.34,1-.48,0-1.17,0-1.82-.08a3.52,3.52,0,0,0-.42-1.37,14.21,14.21,0,0,0,2.5.23c.84,0,1-.17,1.26-1.43a26.36,26.36,0,0,0,.46-4h-1.41A12,12,0,0,1,244.56,89,21,21,0,0,1,242,91.54a17.3,17.3,0,0,1-1.7,1.17,3.64,3.64,0,0,0-1-1,13.2,13.2,0,0,0,4.12-3.19,10.31,10.31,0,0,0,1.72-2.75h-2.08A14.38,14.38,0,0,1,237.3,91a3.08,3.08,0,0,0-.9-1,11.91,11.91,0,0,0,5.31-4.26Zm.67-5.08a13.42,13.42,0,0,0-1.91.09,17.11,17.11,0,0,0,.08-1.89V76.17a14.84,14.84,0,0,0-.08-1.85,14.17,14.17,0,0,0,2,.1h5.48a16.22,16.22,0,0,0,2.19-.1,15.62,15.62,0,0,0-.09,2V78.9a12.36,12.36,0,0,0,.09,1.86c-.46,0-1.11-.06-1.93-.06Zm-.59-3.65h7V75.52h-7Zm0,2.62h7V78.08h-7Z"/>
        <path class="cls-1" d="M254.12,77.26l.76,0c.29,0,.54,0,1.19-.06,1.18-.09,1.31-.11,3.89-.26l3.29-.21c2.59-.14,2.86-.16,3.55-.18l1.2,0a13.23,13.23,0,0,0,2.5-.23l.12,1.56a8.8,8.8,0,0,0-2.35.29,10.4,10.4,0,0,0-4,2.1,6.42,6.42,0,0,0-2.58,4.85A4.11,4.11,0,0,0,264.6,89a10.73,10.73,0,0,0,3.15.68H268l-.28,1.7c-.23,0-.27-.07-.65-.13a10.55,10.55,0,0,1-4.53-1.62,5.07,5.07,0,0,1-2.33-4.28c0-2.43,1.43-4.74,3.92-6.44a13,13,0,0,1,2-1.12,41.53,41.53,0,0,1-4.62.46,70,70,0,0,0-7.24.7Zm14.05,3.13a16,16,0,0,1,2.16,3.25l-1.07.63a15,15,0,0,0-2.14-3.34Zm2.37-1.16a17.06,17.06,0,0,1,2.16,3.28l-1.05.59a16.24,16.24,0,0,0-2.14-3.3Z"/>
        <path class="cls-1" d="M278.67,86a15.51,15.51,0,0,1-2.27,6.87,4.24,4.24,0,0,0-1.11-1,10.66,10.66,0,0,0,1.83-4.41,55,55,0,0,0,.69-10,25,25,0,0,0-.11-3,24.89,24.89,0,0,0,2.54.09h10.94a17.24,17.24,0,0,0,2.23-.09c0,.51-.06,1-.06,1.62v1.47a15.07,15.07,0,0,0,.06,1.53c-.88,0-1.43-.06-2.1-.06H279.07c0,2.81-.09,3.78-.27,5.82H283V82.34h-1.3a17.23,17.23,0,0,0-1.89.08v-1.3a10.18,10.18,0,0,0,1.91.11H283V81a14.51,14.51,0,0,0-.08-1.49h1.45a6.69,6.69,0,0,0-.11,1.49v.28h4V81a9.67,9.67,0,0,0-.1-1.49h1.49a7.1,7.1,0,0,0-.11,1.49v.28h1.81a10.33,10.33,0,0,0,2-.11v1.3a17,17,0,0,0-2-.08h-1.79v2.48H292a15.69,15.69,0,0,0,2.27-.13v1.39A16.55,16.55,0,0,0,292,86h-5.65a7,7,0,0,0,2.08,2.65,13,13,0,0,0,2.92-2.5l1.18.77a27,27,0,0,1-3.15,2.42,13.79,13.79,0,0,0,5.44,2.18,3.8,3.8,0,0,0-.84,1.28,16,16,0,0,1-6.39-3.27A8.76,8.76,0,0,1,285,86h-2.12V90.7c1.76-.34,2.48-.51,4.37-1v1.22c-2.25.6-3.13.79-7.44,1.63l-.73.17-.34-1.45h.19a18.32,18.32,0,0,0,2.65-.33V86Zm13.39-8.06V75.68h-13v2.21Zm-3.82,4.45h-4v2.48h4Z"/>
        <path class="cls-1" d="M304.16,83.49a18,18,0,0,1-4.51,7.27,5.43,5.43,0,0,0-1.2-1A14.48,14.48,0,0,0,302.82,83ZM301,81.14a15.09,15.09,0,0,0-2.18.13V79.71a14.3,14.3,0,0,0,2.2.13H314.6a14.65,14.65,0,0,0,2.2-.13v1.56a15.09,15.09,0,0,0-2.18-.13h-6v9.41c0,1.36-.42,1.68-2.29,1.68-.82,0-1.91,0-2.77-.13a5.14,5.14,0,0,0-.36-1.45,18,18,0,0,0,3,.28c.86,0,1-.09,1-.53V81.14Zm13.71-4.66a17.65,17.65,0,0,0-2.2-.12h-9.58a18.36,18.36,0,0,0-2.18.12V75a16.15,16.15,0,0,0,2.2.12h9.58A16.44,16.44,0,0,0,314.7,75ZM312.85,83a20.26,20.26,0,0,0,2.88,4.87,14.72,14.72,0,0,0,1.66,1.74,6.86,6.86,0,0,0-1.18,1.09,22.76,22.76,0,0,1-4.59-7.16Z"/>
        <path class="cls-1" d="M331,73.79a14,14,0,0,0,3.53,3.76,22.38,22.38,0,0,0,5.79,3.36,4.48,4.48,0,0,0-.82,1.35,28.74,28.74,0,0,1-5.83-3.66A17,17,0,0,1,330.29,75a18.44,18.44,0,0,1-3.15,3.45,23.37,23.37,0,0,1-5.67,3.69,4.43,4.43,0,0,0-.88-1.2,21.82,21.82,0,0,0,5.56-3.42,15.58,15.58,0,0,0,3.34-3.74Zm-7.1,11.72a16.87,16.87,0,0,0-2.39.13V84.12a16.87,16.87,0,0,0,2.39.13h12.94a16.68,16.68,0,0,0,2.39-.13v1.52a17.06,17.06,0,0,0-2.39-.13h-7.54a31.55,31.55,0,0,1-2.63,4.95c2.9-.18,5.08-.39,8.19-.77-1.26-1.37-1.64-1.74-2.56-2.61l1.09-.67A45.18,45.18,0,0,1,338.45,92l-1.15.86c-.82-1.16-1.09-1.52-1.53-2.06-3.74.5-6.91.84-10.19,1.09a24.53,24.53,0,0,0-3.55.38l-.25-1.6a10.45,10.45,0,0,0,1.07.07c.34,0,.34,0,2.23-.13a31.56,31.56,0,0,0,2.67-5.06Zm1.35-5.23a11.26,11.26,0,0,0,1.65.09h6.79a12.93,12.93,0,0,0,1.76-.09v1.41a13.24,13.24,0,0,0-1.76-.09h-6.81a12.33,12.33,0,0,0-1.63.09Z"/>
        <path class="cls-1" d="M349.9,77a9,9,0,0,0,1-2.88l1.68.29a4.75,4.75,0,0,0-.55,1.14,14.64,14.64,0,0,1-.65,1.43l.44,0a29.62,29.62,0,0,0,6.62-.8l.12,1.43a7,7,0,0,0-.84.1c-2.18.29-4.39.46-6.93.55a15.72,15.72,0,0,1-1.89,3c-.21.25-.63.73-.71.8a1.43,1.43,0,0,0-.27.21,0,0,0,0,1,0,0v0a.15.15,0,0,0,0,.06c.75-.59.75-.59,1-.73a5.54,5.54,0,0,1,3.17-1,2.54,2.54,0,0,1,2.77,2.33c1.54-.61,2.74-1.05,3.66-1.39a4.78,4.78,0,0,0,1.43-.61l.67,1.47A35.17,35.17,0,0,0,355,84.25c0,.55,0,.76,0,1.28,0,.27,0,.74,0,1.16s0,.75,0,.94a4.9,4.9,0,0,0,0,.76l-1.42,0c.06-.46.12-1.75.12-3a5.93,5.93,0,0,0,0-.63c-2.85,1.35-4,2.33-4,3.59s1.31,2,4.27,2a17.64,17.64,0,0,0,5.6-.82l.19,1.62c-.31,0-.42,0-.84.1a32.89,32.89,0,0,1-5.1.42c-3.76,0-5.59-1.07-5.59-3.23,0-1.16.72-2.25,2.15-3.32a16.61,16.61,0,0,1,3.12-1.68c-.16-1.15-.67-1.66-1.65-1.66A7.91,7.91,0,0,0,347.23,84a6.85,6.85,0,0,0-1.61,1.74l-1.18-1.18a20.73,20.73,0,0,0,4.7-6,2.79,2.79,0,0,0,.19-.31,2.34,2.34,0,0,1-.39,0c-.34,0-2.32,0-3.09-.07h-.34a2.58,2.58,0,0,0-.46,0l0-1.45a30.39,30.39,0,0,0,4.49.23Z"/>
        <path class="cls-1" d="M368.11,90.3a16.12,16.12,0,0,0,.12,2.35h-1.55a16.16,16.16,0,0,0,.13-2.35V76.5c0-1,0-1.64-.09-2.31a17.77,17.77,0,0,0,2.21.09h3.19a16.55,16.55,0,0,0,2.12-.09c0,.59-.06,1.22-.06,2v2.58c0,.84,0,1.43.06,2-.51,0-1.22-.06-2.12-.06h-4Zm0-13.38H373V75.31h-4.87Zm0,2.71H373v-1.7h-4.87Zm3.9,3.76a17,17,0,0,0-2,.08V82.23a11.8,11.8,0,0,0,2,.11h6.66a12.2,12.2,0,0,0,2-.11v1.24a17.32,17.32,0,0,0-2-.08h-.76V86H379a12.85,12.85,0,0,0,2-.1v1.26a12,12,0,0,0-2-.11h-1.05v3.24a7,7,0,0,0,.13,1.8h-1.45a7.46,7.46,0,0,0,.13-1.8V87h-3.17a7.11,7.11,0,0,1-2.77,5.21,3.84,3.84,0,0,0-1.05-.86A5.63,5.63,0,0,0,372.37,87h-.73a11.91,11.91,0,0,0-2,.11V85.89a13,13,0,0,0,2,.1h.84c.06-1,.06-1,.08-2.6Zm1.75,0v.48c0,.65-.05,1.41-.09,2.12h3.07v-2.6Zm10.07,7.18c0,.9-.21,1.34-.75,1.57a4.14,4.14,0,0,1-1.49.15l-1.79-.06a4.14,4.14,0,0,0-.4-1.35,17.08,17.08,0,0,0,2.33.21c.68,0,.82-.1.82-.58V80.66h-4.3c-.88,0-1.56,0-2.14.06,0-.61.06-1.11.06-2V76.19c0-.78,0-1.3-.06-2a17,17,0,0,0,2.16.09h3.46a18,18,0,0,0,2.21-.09,18.25,18.25,0,0,0-.11,2.31Zm-6.44-13.65h5.16V75.31h-5.16Zm0,2.71h5.16v-1.7h-5.16Z"/>
        <path class="cls-1" d="M391.8,90.07c0,1.26,0,1.86.08,2.62h-1.53a22.18,22.18,0,0,0,.12-2.58V84c0-1,0-2,.07-3.11a15.23,15.23,0,0,1-1.87,2.86,4.37,4.37,0,0,0-.8-1.22,18.24,18.24,0,0,0,3.74-6.36,14.49,14.49,0,0,0,.65-2.59l1.41.44-.34,1a34.84,34.84,0,0,1-1.53,3.87Zm12.28-5.8a12.18,12.18,0,0,0,1.93-.1v1.3a13.84,13.84,0,0,0-1.89-.11h-2.79v1.89h2.77a12.65,12.65,0,0,0,1.93-.1v1.3a16,16,0,0,0-1.91-.11h-2.79v2.19h3.8a10.44,10.44,0,0,0,1.91-.11v1.37a16.28,16.28,0,0,0-2.06-.13h-9.05v1.07h-1.36a16.92,16.92,0,0,0,.14-2.22v-5.4c0-.61,0-1,.05-1.68A11.3,11.3,0,0,1,393,85.76a3.46,3.46,0,0,0-.84-1,12.84,12.84,0,0,0,2-2.18,14.65,14.65,0,0,0,2-3.65l1.26.38c-.42.75-.46.81-.61,1.07a5.45,5.45,0,0,1-.5.86h3.76a8.41,8.41,0,0,0,1.11-2.31l1.24.38a20.39,20.39,0,0,1-1.09,1.93h3.63a12.06,12.06,0,0,0,2-.13v1.35a15.28,15.28,0,0,0-1.89-.11h-3.69v1.91Zm-4.62-8.84a7.44,7.44,0,0,0-.13-1.62h1.47a8.46,8.46,0,0,0-.1,1.62v2h4.22V76.27a14.36,14.36,0,0,0-.08-1.55h1.42a10.76,10.76,0,0,0-.08,1.53v1.07a7.86,7.86,0,0,0,.06,1.26c-.92,0-1,0-1.57,0h-8.86a14.26,14.26,0,0,0-1.52,0c0-.46,0-.86,0-1.28v-1a12.23,12.23,0,0,0-.11-1.53h1.43c0,.38-.06.9-.06,1.55v1.14h3.86Zm.65,8.84V82.36h-4.18v1.91Zm-4.18,3h4.18V85.36h-4.18Zm0,3.28h4.18V88.34h-4.18Z"/>
        <path class="cls-1" d="M416.51,74.78a33.16,33.16,0,0,0-.27,4.43c-.08,2.52-.15,5.38-.15,6.32,0,.25,0,.78,0,1.26a3.33,3.33,0,0,0,1,2.52,4,4,0,0,0,2.63.82,6,6,0,0,0,5.62-3.65,12.13,12.13,0,0,0,1-3.3,6.23,6.23,0,0,0,1.51,1A12.57,12.57,0,0,1,425.58,89a7.33,7.33,0,0,1-5.92,2.63,5,5,0,0,1-4-1.47c-.86-1-1.15-2.1-1.15-4.31,0-1.4,0-1.93.19-8.54,0-.63,0-1,0-1.37a6.75,6.75,0,0,0-.08-1.11Z"/>
        <path class="cls-1" d="M434.38,77.3h.76c.29,0,.55,0,1.2-.06,2.5-.19,9.21-.57,11.92-.7a13.37,13.37,0,0,0,2.5-.23l.13,1.58a9.63,9.63,0,0,0-2.35.27,10.69,10.69,0,0,0-4,2.12,6.42,6.42,0,0,0-2.58,4.85A4.12,4.12,0,0,0,444.86,89a11,11,0,0,0,3.15.67h.21l-.27,1.7-.65-.13a10.65,10.65,0,0,1-4.54-1.61,5.13,5.13,0,0,1-2.33-4.29c0-2.43,1.43-4.76,3.93-6.44a13.82,13.82,0,0,1,2-1.12,41,41,0,0,1-4.62.47,61.36,61.36,0,0,0-7.24.69Z"/>
        <path class="cls-1" d="M467.23,78.73l-.63.12a34.51,34.51,0,0,1-3.72.63v3.64a14.8,14.8,0,0,1,4.52-.76,7.05,7.05,0,0,1,3.71.88A4.32,4.32,0,0,1,469,91.3a3.09,3.09,0,0,1-3.23-2.37,7.35,7.35,0,0,1-.25-2.37,4.38,4.38,0,0,0,1.38-.55,6.59,6.59,0,0,0,0,.82c0,2.19.63,3.09,2.16,3.09a2.79,2.79,0,0,0,2.82-3c0-2.06-1.75-3.34-4.5-3.34a14.08,14.08,0,0,0-4.45.82v5.25c0,1.13-.5,1.68-1.53,1.68A5.57,5.57,0,0,1,457.88,90a2.51,2.51,0,0,1-1-2,3.77,3.77,0,0,1,1.66-2.79,10.84,10.84,0,0,1,3-1.72v-4l-.84.06c-.38,0-.74,0-1.35,0-.31,0-.88,0-1.11,0h-.86V78.25a12.5,12.5,0,0,0,2.14.14c.57,0,1.39,0,2-.06V76.25a13,13,0,0,0-.11-2H463a11.15,11.15,0,0,0-.11,1.95v2a20.93,20.93,0,0,0,4.28-.9Zm-5.69,6.19c-2.08,1-3.26,2.14-3.26,3.15,0,.44.3.86.91,1.26a3.86,3.86,0,0,0,1.86.61c.42,0,.49-.13.49-1Zm11.52-4a17.1,17.1,0,0,0-4.24-4.11l1.09-.82a17.58,17.58,0,0,1,4.25,4Z"/>
        <path class="cls-1" d="M484.57,74.32a12.86,12.86,0,0,0-.48,2.16c-.33,2.12-.63,4.41-.69,5.48l.08,0,.15-.61a9.26,9.26,0,0,1,1.28-3.12c1.18-1.81,2.56-2.71,4.2-2.71a4,4,0,0,1,3.36,1.87,8.62,8.62,0,0,1,1.26,5.1,8.66,8.66,0,0,1-4.85,8.25A16.37,16.37,0,0,1,485.14,92a4.37,4.37,0,0,0-.84-1.43,11,11,0,0,0,4.26-1.32c2.46-1.41,3.61-3.61,3.61-7S491,76.94,489,76.94c-1.59,0-2.94,1.2-4.13,3.66a10.88,10.88,0,0,0-1.14,4.68c0,.08,0,.19,0,.5l-1.51.07v-.24l0-.37,0-2.19v-.48a53.7,53.7,0,0,1,.71-7.75,3.47,3.47,0,0,0,.07-.67Z"/>
        <path class="cls-1" d="M517.39,91a16.52,16.52,0,0,0-4.28-3c-.36-.19-.84-.4-1.41-.63a5,5,0,0,1,.05.75,3.63,3.63,0,0,1-.53,2.29c-.61.86-1.89,1.32-3.55,1.32a5.43,5.43,0,0,1-3.25-.84,2.72,2.72,0,0,1-1.14-2.2c0-1.39,1.1-2.48,2.94-2.9a9,9,0,0,1,2.19-.21,9.15,9.15,0,0,1,1.89.17c0-.06,0-.06,0-.25a1.84,1.84,0,0,1,0-.23c0-.19,0-.63-.05-1.24,0-.28,0-.67,0-1.22-.75,0-1.8,0-2.48,0-1.25,0-2.24,0-3.54-.15-.23,0-.4,0-.53,0h-.17l0-1.38a26,26,0,0,0,4.81.33c.55,0,1.28,0,1.87,0l0-2.87c-.61,0-.95,0-1.43,0-1.53,0-3.23-.07-5.12-.21a2.76,2.76,0,0,0-.38,0,1.74,1.74,0,0,0-.29,0l0-1.43a26.14,26.14,0,0,0,5.37.42l1.83,0a15.47,15.47,0,0,0-.11-3h1.62a24,24,0,0,0-.15,3,29.46,29.46,0,0,0,6.22-.87l.1,1.43a14.07,14.07,0,0,0-1.44.17,43.31,43.31,0,0,1-4.88.5c0,1.73,0,1.73,0,2.84a25.24,25.24,0,0,0,5.81-.86l.09,1.45c-.28,0-.49,0-1.22.14-1.45.23-3.11.4-4.66.51,0,1.17,0,1.17.12,3.21A18.16,18.16,0,0,1,517.52,89c.34.25.44.31.71.48Zm-7.09-4a7.68,7.68,0,0,0-2.14-.23c-2.08,0-3.45.75-3.45,1.87s1.05,1.74,2.88,1.74a3,3,0,0,0,2.31-.69,2.78,2.78,0,0,0,.42-1.89Z"/>
        <path class="cls-1" d="M533.94,75.52a7.41,7.41,0,0,0-.08-1.22h1.57a18.12,18.12,0,0,0-.1,2.62v.23c4,0,5.58-.06,6.28-.14V78.5a35.12,35.12,0,0,0-4-.11l-2.25,0v4.16a6,6,0,0,1,.5,2.48A6.75,6.75,0,0,1,533,90.55a13.3,13.3,0,0,1-3.32,1.7,4.47,4.47,0,0,0-.92-1.32,10.83,10.83,0,0,0,3.4-1.58,5.43,5.43,0,0,0,2.35-4.43,2.9,2.9,0,0,1-.56,1,3.29,3.29,0,0,1-2.65,1.13,3.24,3.24,0,0,1-3.44-3.31,3.49,3.49,0,0,1,3.71-3.47,3.24,3.24,0,0,1,2.44,1c0-.3,0-.38,0-1.16,0-.08,0-.29,0-.54V78.46c-4.22.08-8.47.29-9.87.52l-.06-1.53c.37,0,.52,0,.84,0,.6,0,.6,0,4-.13,2-.08,3.66-.12,5.09-.17Zm-.9,6.32a2.61,2.61,0,0,0-1.41-.34,2.22,2.22,0,0,0-2.33,2.2,2,2,0,0,0,2.17,2.08,2.35,2.35,0,0,0,2.45-2.47A1.51,1.51,0,0,0,533,81.84Z"/>
        <path class="cls-1" d="M552.34,89.37a3.15,3.15,0,1,1-3.15-3.15A3.14,3.14,0,0,1,552.34,89.37Zm-5.1,0a2,2,0,1,0,2-2A2,2,0,0,0,547.24,89.37Z"/>
        <path class="cls-1" d="M101.87,114.16a9.38,9.38,0,0,0,1.68.1h3.89a8.86,8.86,0,0,0,1.67-.1v1.36a9.65,9.65,0,0,0-1.53-.08h-4a13,13,0,0,0-1.68.08Zm.67,15.45a13.27,13.27,0,0,0,.13-2v-2.83a10.41,10.41,0,0,0-.11-1.77,12.91,12.91,0,0,0,1.68.09H107a7.9,7.9,0,0,0,1.54-.07,14.45,14.45,0,0,0-.07,1.66v3a10.41,10.41,0,0,0,.11,1.7h-1.3v-.84h-3.38v1.14Zm0-18.37a9,9,0,0,0,1.6.1h2.73a9,9,0,0,0,1.6-.1v1.32a12.15,12.15,0,0,0-1.6-.08h-2.73a12.54,12.54,0,0,0-1.6.08Zm.11,5.88a9.94,9.94,0,0,0,1.51.08h2.9a9.48,9.48,0,0,0,1.49-.08v1.3a9.3,9.3,0,0,0-1.49-.09h-2.9a9,9,0,0,0-1.51.09Zm0,2.94a9.94,9.94,0,0,0,1.51.08h2.9a10,10,0,0,0,1.49-.08v1.3a9.14,9.14,0,0,0-1.49-.09h-2.9a9,9,0,0,0-1.51.09Zm1.18,7.32h3.4v-3.23h-3.4Zm11.9-12.8a18.54,18.54,0,0,0,1.79-4l1.36.52a24.06,24.06,0,0,1-1.85,3.43h1.3a11,11,0,0,0,1.87-.11v1.41a10.43,10.43,0,0,0-1.93-.11h-3v2.86h2.54a9.93,9.93,0,0,0,1.91-.11v1.37a10.2,10.2,0,0,0-1.89-.11h-2.56V123h3.38a19.54,19.54,0,0,0,2-.11v1.45a13.51,13.51,0,0,0-2-.13h-3.42v2.9a19.7,19.7,0,0,0,.12,2.29h-1.53a17.5,17.5,0,0,0,.13-2.29v-2.9H111.3a11,11,0,0,0-1.93.11v-1.43a12.07,12.07,0,0,0,1.95.11H114v-3.26h-2.1a8.37,8.37,0,0,0-1.79.11v-1.37a9.58,9.58,0,0,0,1.79.11H114v-2.86h-2.54a10.28,10.28,0,0,0-1.87.11v-1.41a10.48,10.48,0,0,0,1.78.11Zm-3.53-.26a12.36,12.36,0,0,0-1.74-3.13l1.16-.54a23,23,0,0,1,1.76,3.09Z"/>
        <path class="cls-1" d="M126.46,122.2a19.26,19.26,0,0,1-1.17,5.94l-1.16-.57a14.34,14.34,0,0,0,1.14-5.58Zm-2.31-2.61a4.32,4.32,0,0,0,.82.07l.84,0c.69-.91,1-1.26,1.47-2a31.17,31.17,0,0,0-3-3.32l.75-1c.51.5.57.56,1,1a14.43,14.43,0,0,0,1.87-3.92l1.32.52a9.37,9.37,0,0,0-.53.95,35.45,35.45,0,0,1-1.89,3.29c.63.72.65.76,1.26,1.49a18.32,18.32,0,0,0,2.08-3.65l1.24.67c-.17.23-.33.46-.61.9a60.54,60.54,0,0,1-3.53,5c1.47-.1,2.1-.17,3.26-.31a18.16,18.16,0,0,0-.8-1.77l1-.46a25.51,25.51,0,0,1,1.59,4.1l-1.07.5c-.14-.67-.21-.88-.33-1.32-.84.12-1,.14-1.91.23v6.82a14.86,14.86,0,0,0,.12,2.1h-1.49a13.75,13.75,0,0,0,.13-2.1v-6.7c-.82.07-1.43.11-2.12.15a6,6,0,0,0-1.18.13Zm6.62,2.25a30.16,30.16,0,0,1,1.11,5l-1.16.31a20.73,20.73,0,0,0-1-5Zm1.76-8c0-1,0-1.7-.08-2.33a17.09,17.09,0,0,0,2.07.09h5.8a16.27,16.27,0,0,0,2.12-.09c-.06.61-.08,1.28-.08,2.42v13a19.11,19.11,0,0,0,.12,2.33H141.1V128h-7.31v1.37H132.4a17.19,17.19,0,0,0,.13-2.31Zm1.24,5.08h2.94v-6.11h-2.94Zm0,7.83h2.94v-6.65h-2.94Zm4.16-7.81h3.19v-6.13h-3.19Zm0,7.81h3.19v-6.63h-3.19Z"/>
        <path class="cls-1" d="M151.3,111.7a30,30,0,0,0-1.61,9.85c0,.73,0,2,.08,2.94,0,.16,0,.21,0,.58v.4l.09,0a17.8,17.8,0,0,1,1.24-3.69,3.41,3.41,0,0,0,.16-.42l1,.48a18.26,18.26,0,0,0-1.8,6,2.34,2.34,0,0,0,0,.42l-1.49.15c0-.19,0-.29-.13-.78a33.17,33.17,0,0,1-.59-6.23,35.58,35.58,0,0,1,1.1-8.63,11.57,11.57,0,0,0,.23-1.32Zm2.12,3.9a14.2,14.2,0,0,0,3.78.34c.82,0,1.39,0,2.25-.06,0-2,0-2,0-3.57a4.85,4.85,0,0,0-.06-.86h1.57a21.88,21.88,0,0,0-.15,3.29c0,.23,0,.57,0,1a14.75,14.75,0,0,0,3.63-.77l.06,1.42-1.47.3a20.09,20.09,0,0,1-2.22.33c0,2.08.06,3.15.23,5.94a15.32,15.32,0,0,1,3.5,2.06l.53.36-.65,1.47a11.2,11.2,0,0,0-3-2.18l-.21-.13-.19-.13a3.23,3.23,0,0,1,0,.55,3.77,3.77,0,0,1-.25,1.43c-.51,1.11-1.79,1.76-3.51,1.76-2.44,0-4-1.15-4-3s1.66-3,4-3a6,6,0,0,1,2.33.42c-.06-.44-.15-2.42-.21-5.48-.94,0-1.59.06-2.39.06s-1.64,0-2.37-.06a5.85,5.85,0,0,0-.68,0,2.16,2.16,0,0,0-.35,0l-.21,0h-.09Zm4,7.88c-1.64,0-2.71.69-2.71,1.74s1,1.7,2.43,1.7a2.87,2.87,0,0,0,2.14-.73,2.43,2.43,0,0,0,.4-1.64c0-.15,0-.63,0-.63A5.33,5.33,0,0,0,157.46,123.48Z"/>
        <path class="cls-1" d="M170.25,123.73a21.64,21.64,0,0,1,4.22,4.45l-1.18,1.11a20.94,20.94,0,0,0-4.13-4.57Z"/>
        <path class="cls-1" d="M194.4,113a19.21,19.21,0,0,0-2.46.13v-1.56a18.38,18.38,0,0,0,2.46.13H208a18.78,18.78,0,0,0,2.44-.13v1.56A19.42,19.42,0,0,0,208,113h-6.59v2.4a44.09,44.09,0,0,1,7.45,4.3L208,121a31.49,31.49,0,0,0-4.45-2.94,24.47,24.47,0,0,0-2.18-1.15v9.89a14.57,14.57,0,0,0,.15,2.47h-1.75a14.73,14.73,0,0,0,.15-2.47V113Z"/>
        <path class="cls-1" d="M214.47,114.11a8.45,8.45,0,0,0,1.68.11h4.71a7.87,7.87,0,0,0,1.68-.11v1.37a9.7,9.7,0,0,0-1.54-.09h-4.85a13.05,13.05,0,0,0-1.68.09Zm.74-2.92a7.83,7.83,0,0,0,1.59.11h3.3a8.05,8.05,0,0,0,1.6-.11v1.33a10.48,10.48,0,0,0-1.6-.09h-3.3a10.58,10.58,0,0,0-1.59.09Zm.08,5.93a9.94,9.94,0,0,0,1.51.08h3.49a9.48,9.48,0,0,0,1.49-.08v1.3a9.22,9.22,0,0,0-1.49-.09H216.8a8.88,8.88,0,0,0-1.51.09Zm0,2.87a8.6,8.6,0,0,0,1.51.09h3.49a8.21,8.21,0,0,0,1.49-.09v1.3a11.36,11.36,0,0,0-1.49-.08H216.8a10.45,10.45,0,0,0-1.51.08Zm.11,9.58a14.62,14.62,0,0,0,.12-2V124.7a11.39,11.39,0,0,0-.1-1.75,12.44,12.44,0,0,0,1.68.09h3.19a7.59,7.59,0,0,0,1.51-.07c0,.47-.06.86-.06,1.64v3a14.11,14.11,0,0,0,.1,1.66h-1.3v-1h-3.78v1.33Zm1.34-2.42h3.8v-3h-3.8Zm8.15-.4c0,.42.1.55.54.65a14.13,14.13,0,0,0,2.46.13c2.18,0,2.88-.11,3.28-.48s.52-1.41.62-3.4a6.33,6.33,0,0,0,1.41.63c-.23,2-.48,3.1-.92,3.67s-1.53.86-4.45.86a14.71,14.71,0,0,1-3.45-.25c-.65-.21-.88-.57-.88-1.51V120a13.26,13.26,0,0,0-.1-2,19.56,19.56,0,0,0,2,.08h5.27v-5.4H225a12.79,12.79,0,0,0-1.93.11V111.3a14,14,0,0,0,1.93.13h5.08a18.24,18.24,0,0,0,2-.09c0,.55-.06.9-.06,2.06v4a17.7,17.7,0,0,0,.08,2,20.44,20.44,0,0,0-2.06-.08h-5.16Z"/>
        <path class="cls-1" d="M242.38,118.56c-.08.21-.08.21-.13.36l-.12.42-.11.46a18.6,18.6,0,0,1-3.67,7.25,4.79,4.79,0,0,0-1.39-.91,13.3,13.3,0,0,0,3.09-5.16,11.12,11.12,0,0,0,.74-2.86Zm2.94-5.14a9,9,0,0,0-.13-2.14h1.73a11.32,11.32,0,0,0-.11,2.18v1.37h5.29a13.2,13.2,0,0,0,2.46-.13v1.6a15.36,15.36,0,0,0-2.42-.11h-5.33v10.46a11.83,11.83,0,0,0,.11,2.22h-1.73a11,11,0,0,0,.13-2.2V116.19h-5.14a15.36,15.36,0,0,0-2.42.11v-1.6a13,13,0,0,0,2.44.13h5.12Zm5.9,4.72a14.74,14.74,0,0,0,.78,2.38,18.58,18.58,0,0,0,3.25,5.62,4.62,4.62,0,0,0-1.32,1,25.19,25.19,0,0,1-3.65-7.22c-.19-.57-.38-1-.53-1.37Zm.61-7.79a16.84,16.84,0,0,1,2.14,3.18l-1.07.6a17,17,0,0,0-2.12-3.23Zm2.6-.77a17.68,17.68,0,0,1,2.17,3.27l-1.05.61a15.59,15.59,0,0,0-2.15-3.29Z"/>
        <path class="cls-1" d="M268.8,111.05a7.67,7.67,0,0,0-.74,1.38,11.27,11.27,0,0,1-.65,1.16c.3,0,.3,0,6.49-.11a3.53,3.53,0,0,0,1.22-.21l.94,1a4.76,4.76,0,0,0-.61,1.38,23.68,23.68,0,0,1-5.48,9,23.36,23.36,0,0,1-6.63,4.33,3.81,3.81,0,0,0-1-1.3,19.45,19.45,0,0,0,4.35-2.29,15.07,15.07,0,0,0,3.63-3.32,26.63,26.63,0,0,0-4.7-3.4l1-1.07a30.22,30.22,0,0,1,4.64,3.25,24.81,24.81,0,0,0,2.92-6.09l-7.35.11a20.86,20.86,0,0,1-5,5.58,3.84,3.84,0,0,0-1.21-1,18.28,18.28,0,0,0,5.35-6,11.61,11.61,0,0,0,1.24-2.88Z"/>
        <path class="cls-1" d="M283.71,126.08a18,18,0,0,0,6.11-1.62,15.86,15.86,0,0,0,8.57-9.34,4.18,4.18,0,0,0,1.28,1.24,18.45,18.45,0,0,1-6.41,8,21.15,21.15,0,0,1-7.83,3.13,11.59,11.59,0,0,0-1.26.33Zm1.34-13a27.31,27.31,0,0,1,5.06,4l-1.09,1.3a22.91,22.91,0,0,0-5-4.11Z"/>
        <path class="cls-1" d="M310.88,113.78a8.71,8.71,0,0,0,1-2.88l1.68.29a4.75,4.75,0,0,0-.55,1.14,14.64,14.64,0,0,1-.65,1.43l.44,0a29.62,29.62,0,0,0,6.62-.8l.12,1.43a7,7,0,0,0-.84.1c-2.18.29-4.38.46-6.92.55a16.24,16.24,0,0,1-1.89,3c-.21.25-.63.73-.72.8a1.43,1.43,0,0,0-.27.21,0,0,0,0,1,0,0v0l0,.06c.76-.59.76-.59,1-.73a5.5,5.5,0,0,1,3.17-1,2.55,2.55,0,0,1,2.77,2.33c1.53-.61,2.73-1.05,3.65-1.39a4.78,4.78,0,0,0,1.43-.61l.67,1.47A35.17,35.17,0,0,0,316,121a11.22,11.22,0,0,1,0,1.28c0,.27,0,.74,0,1.16s0,.75,0,.94a3.94,3.94,0,0,0,0,.76l-1.43,0c.06-.46.13-1.75.13-3a4,4,0,0,0,0-.63c-2.85,1.35-3.94,2.33-3.94,3.59s1.3,2,4.26,2a17.59,17.59,0,0,0,5.6-.82l.19,1.62c-.31,0-.42,0-.84.1a32.79,32.79,0,0,1-5.1.42c-3.76,0-5.58-1.07-5.58-3.23,0-1.16.71-2.25,2.14-3.32a16.43,16.43,0,0,1,3.13-1.68c-.17-1.15-.67-1.66-1.66-1.66a7.89,7.89,0,0,0-4.68,2.23,6.92,6.92,0,0,0-1.62,1.74l-1.18-1.18a20.91,20.91,0,0,0,4.71-6l.19-.31a2.58,2.58,0,0,1-.4,0c-.34,0-2.31,0-3.09-.07h-.34a2.64,2.64,0,0,0-.46,0l0-1.45a30.55,30.55,0,0,0,4.5.23Z"/>
        <path class="cls-1" d="M336.42,111.24a3.72,3.72,0,0,0-.46.86c-.55,1.13-.74,1.49-1,1.87.27-.07.27-.07,6.34-.17.74,0,.8,0,1.09-.15l.91.88c-.19.26-.19.28-.42,1a22.46,22.46,0,0,1-4.2,7.9,20.72,20.72,0,0,1-7.31,5.25,3.16,3.16,0,0,0-1-1.24,17.77,17.77,0,0,0,7.41-5.32,19.09,19.09,0,0,0,3.61-7l-7.07.13a20.41,20.41,0,0,1-5,5.46,3.14,3.14,0,0,0-1.18-1.1,15.38,15.38,0,0,0,5.27-5.75,9.62,9.62,0,0,0,1.33-3.06Z"/>
        <path class="cls-1" d="M355,111.7a12,12,0,0,0-.08,1.74v5.65a11.57,11.57,0,0,0,.08,1.74h-1.74a13.27,13.27,0,0,0,.08-1.76v-5.61a12.89,12.89,0,0,0-.08-1.76Zm9.3,0a9.84,9.84,0,0,0-.1,1.83V116a23.57,23.57,0,0,1-.53,6.41,8,8,0,0,1-4,4.66,16.4,16.4,0,0,1-3.82,1.51,3.92,3.92,0,0,0-.88-1.45,12.23,12.23,0,0,0,4-1.43,6.25,6.25,0,0,0,3.36-4.43,26.21,26.21,0,0,0,.29-5.35v-2.37a12.2,12.2,0,0,0-.08-1.85Z"/>
        <path class="cls-1" d="M376.05,116.38a22.86,22.86,0,0,1,2.07,4.66l-1.42.48a17.68,17.68,0,0,0-2-4.7Zm11.84-.13a11.3,11.3,0,0,0-.46,1.71,19.25,19.25,0,0,1-1.85,4.7,15.28,15.28,0,0,1-6.95,6.07,4.16,4.16,0,0,0-1-1.18c3.24-1.45,5.21-3.06,6.66-5.48a15.56,15.56,0,0,0,1.78-4.51,8.6,8.6,0,0,0,.23-1.43v-.21Zm-7.56-.71a21.58,21.58,0,0,1,2,4.52l-1.39.48a18.55,18.55,0,0,0-1.93-4.6Z"/>
        <path class="cls-1" d="M404,111.24a4.74,4.74,0,0,0-.46.86,20.24,20.24,0,0,1-1,1.87c.27-.07.27-.07,6.34-.17a2,2,0,0,0,1.09-.15l.9.88c-.19.26-.19.28-.42,1a22.14,22.14,0,0,1-4.2,7.9,20.68,20.68,0,0,1-7.3,5.25,3.25,3.25,0,0,0-1.05-1.24,17.84,17.84,0,0,0,7.41-5.32,19.09,19.09,0,0,0,3.61-7l-7.08.13a20.53,20.53,0,0,1-5,5.46,3.14,3.14,0,0,0-1.18-1.1,15.46,15.46,0,0,0,5.27-5.75,9.31,9.31,0,0,0,1.32-3.06Z"/>
        <path class="cls-1" d="M419.18,122.34c0-.71,0-1.19,0-1.49,0-.14,0-.14,0-1.32a10.22,10.22,0,0,1-2.08,2.08,3.51,3.51,0,0,0-.77-1.16,14.39,14.39,0,0,0,3.67-3.67,9.55,9.55,0,0,0,1.24-2.14l1.2.73a6.82,6.82,0,0,0-.61.93,15.62,15.62,0,0,1-1.39,1.91v8.67a22.74,22.74,0,0,0,.11,2.5h-1.53a18.62,18.62,0,0,0,.12-2.44ZM422.27,111l-.49.63a16.45,16.45,0,0,1-4.17,4.11,3.47,3.47,0,0,0-.84-1,11.16,11.16,0,0,0,4.32-4.49Zm6.67,0c-.16.24-.23.3-.52.76a26.14,26.14,0,0,1-2.33,2.84c.86.73,1.18,1,1.89,1.7a20.75,20.75,0,0,0,3.36-4.27l1.32.78c-.21.23-.34.38-.84,1a43.66,43.66,0,0,1-4.51,4.76c2.92-.16,2.92-.16,5.6-.42a21.19,21.19,0,0,0-1.64-1.8l1-.67a39.93,39.93,0,0,1,3.63,4.36l-1.09.76c-.56-.84-.73-1.09-1.15-1.68-3.59.4-3.59.4-5.9.55a12.32,12.32,0,0,1-1,1.63h4a11.47,11.47,0,0,0,1.72-.1l.86.8a4.19,4.19,0,0,0-.48.63,16,16,0,0,1-3.05,3.12A17.73,17.73,0,0,0,436,128a7.77,7.77,0,0,0-.7,1.32,18.87,18.87,0,0,1-4.72-1.72,12.52,12.52,0,0,1-1.85-1.07,18.57,18.57,0,0,1-6.67,2.86,4,4,0,0,0-.8-1.22,17.62,17.62,0,0,0,6.44-2.42,12.85,12.85,0,0,1-2.41-2.62,14.42,14.42,0,0,1-2.88,2.31,5.15,5.15,0,0,0-.94-1,11.35,11.35,0,0,0,4.93-4.66l-3.29.17a7.28,7.28,0,0,0-1,.1l-.23-1.4a10,10,0,0,0,1.51.08c.38,0,.38,0,2.25-.06,1.13-1.07,1.13-1.07,1.51-1.45a31.75,31.75,0,0,0-4.2-3.44l.9-1c.8.61,1.05.82,1.39,1.07a13.61,13.61,0,0,0,2.5-3.51Zm-2.83,11.36a12,12,0,0,0,2.6,2.67,10.57,10.57,0,0,0,2.67-2.67Z"/>
        <path class="cls-1" d="M445.14,123.23a25.58,25.58,0,0,1-5,2.79,5,5,0,0,0-.84-1.2,18.87,18.87,0,0,0,7.58-4.55h-5.06a18.66,18.66,0,0,0-2.33.12V119a11.87,11.87,0,0,0,2.33.13H448v-2h-4.34a14.4,14.4,0,0,0-2.15.09v-1.35a14.75,14.75,0,0,0,2.15.09H448v-2h-5.44a14.22,14.22,0,0,0-2.22.11v-1.39a14.19,14.19,0,0,0,2.27.13H448v-.48a10.25,10.25,0,0,0-.12-1.83h1.53a8.47,8.47,0,0,0-.13,1.83v.48h5.78a14.76,14.76,0,0,0,2.31-.13V114a15,15,0,0,0-2.27-.11h-5.82v2H454a15.64,15.64,0,0,0,2.23-.09v1.35a15.46,15.46,0,0,0-2.23-.09h-4.66v2h6.57a13.65,13.65,0,0,0,2.29-.13v1.43a18.63,18.63,0,0,0-2.29-.12H450a12.36,12.36,0,0,0,2.18,3.4,17.08,17.08,0,0,0,3.09-2.94l1.22.82a3.64,3.64,0,0,0-.42.39,29.67,29.67,0,0,1-3.05,2.61,16,16,0,0,0,5.57,3.25,5.58,5.58,0,0,0-.91,1.26c-4.64-2.1-7.16-4.55-9-8.79h-.24a18,18,0,0,1-2,2v4.91c1.7-.38,2.6-.63,4.74-1.26v1.28c-2.73.78-4.68,1.26-7.79,1.87-.33.08-.71.17-1,.25L442,127.8a19.3,19.3,0,0,0,3.11-.4Z"/>
        <path class="cls-1" d="M467.75,120.24a18,18,0,0,1-4.51,7.27,5.43,5.43,0,0,0-1.2-1,14.48,14.48,0,0,0,4.37-6.82Zm-3.17-2.35a15.09,15.09,0,0,0-2.18.13v-1.56a14.3,14.3,0,0,0,2.2.13h13.59a14.65,14.65,0,0,0,2.2-.13V118a15.09,15.09,0,0,0-2.18-.13h-6v9.41c0,1.36-.42,1.68-2.29,1.68-.82,0-1.91,0-2.77-.13a5.14,5.14,0,0,0-.36-1.45,18,18,0,0,0,3,.28c.86,0,1-.09,1-.53v-9.26Zm13.71-4.66a17.65,17.65,0,0,0-2.2-.12h-9.57a18.42,18.42,0,0,0-2.19.12V111.7a16.21,16.21,0,0,0,2.21.12h9.57a16.34,16.34,0,0,0,2.18-.12Zm-1.84,6.47a19.94,19.94,0,0,0,2.87,4.87,14.72,14.72,0,0,0,1.66,1.74,6.48,6.48,0,0,0-1.17,1.09,22.6,22.6,0,0,1-4.6-7.16Z"/>
        <path class="cls-1" d="M486.44,115.27a9.76,9.76,0,0,0,1.62.1,47.88,47.88,0,0,0,6.26-.44c-.32-.71-.65-1.55-1-2.5-.23-.54-.36-.84-.55-1.21l1.66-.24a7.05,7.05,0,0,0,.61,1.89,17.64,17.64,0,0,0,.76,1.85,24.61,24.61,0,0,0,5.08-1.32l.21,1.49c-.44.08-.61.13-1.24.29a27.39,27.39,0,0,1-2.84.65l-.71.15a39,39,0,0,0,3.78,6.11l-1.41.8a4.15,4.15,0,0,0-1.45-.86,11.25,11.25,0,0,0-3.67-.55,7.54,7.54,0,0,0-4,.88,2.41,2.41,0,0,0-1.13,2,2.11,2.11,0,0,0,.79,1.64,7.21,7.21,0,0,0,4.1,1,13.79,13.79,0,0,0,6-1.34l.23,1.61a17.33,17.33,0,0,1-6.17,1.14c-2.56,0-4.49-.57-5.46-1.58a3.38,3.38,0,0,1-.94-2.31,3.92,3.92,0,0,1,2.37-3.42,9,9,0,0,1,4.07-.78,10.51,10.51,0,0,1,4.35.76,25.27,25.27,0,0,1-2.52-4.12c-.23-.44-.23-.48-.36-.69a60.12,60.12,0,0,1-7.47.55,4.83,4.83,0,0,0-.82.06Z"/>
        <path class="cls-1" d="M507.34,123.79a32,32,0,0,0,3.69-3.55c0-.84.07-2.16.13-4a20.39,20.39,0,0,0-3.3.3l-.08-1.45a4.47,4.47,0,0,0,.65,0l2.75-.17c.06-1.59.09-2.54.09-2.81a9,9,0,0,0-.07-1l1.66,0a24.78,24.78,0,0,0-.25,3.74,1.19,1.19,0,0,0,.42-.11l.55.65a7,7,0,0,0-1.08,1.31,3.72,3.72,0,0,1,0,.52c0,.42,0,.42,0,1.41a1.18,1.18,0,0,1,0,.19c0,.16,0,.21,0,.33l0,0a15.22,15.22,0,0,1,2.67-2.45c1.91-1.54,3.48-2.31,4.74-2.31a2.28,2.28,0,0,1,2.46,2.45,14.44,14.44,0,0,1-.48,3.07c-.78,3.38-.91,4.11-.91,5s.44,1.49,1.26,1.49a2.56,2.56,0,0,0,1.79-1.16,8.9,8.9,0,0,0,1.2-2.41,6.89,6.89,0,0,0,1,1.42,10.17,10.17,0,0,1-1.3,2.08,3.62,3.62,0,0,1-2.9,1.51,2.55,2.55,0,0,1-1.47-.44,2.6,2.6,0,0,1-1-2.39c0-1.07,0-1.3.79-4.89a15.88,15.88,0,0,0,.53-3.15,1.07,1.07,0,0,0-1.16-1.14,6,6,0,0,0-3.17,1.43,34.35,34.35,0,0,0-4.05,3.57v4.54a34.13,34.13,0,0,0,.06,3.48h-1.63a18.69,18.69,0,0,0,.14-3.46,33.82,33.82,0,0,1,.07-3.4H511a2.24,2.24,0,0,1-.37.5l-1,1.16c-.23.25-.53.58-.88,1a4.65,4.65,0,0,0-.55.67Z"/>
        <path class="cls-1" d="M533.36,112.27a10.07,10.07,0,0,0,2,.12c1.74,0,4.54-.12,6.43-.27a2.18,2.18,0,0,0,1-.23l.89,1.15a3.94,3.94,0,0,0-1.08.88,53.58,53.58,0,0,1-6.9,6l0,.06a10.64,10.64,0,0,1,5.14-1.3c3.51,0,5.76,1.72,5.76,4.41,0,3.27-3.05,5.44-7.71,5.44-3,0-4.66-1.1-4.66-3,0-1.4,1.3-2.45,3-2.45a4.21,4.21,0,0,1,3.47,1.72,6,6,0,0,1,1,2c2.21-.61,3.36-1.89,3.36-3.67,0-2-1.68-3.21-4.51-3.21a13.46,13.46,0,0,0-8.84,3.59l-1-1.35a21.91,21.91,0,0,0,2.94-2.14c2.25-1.78,5.57-4.7,7-6.13l.29-.29.08-.09.09-.08,0,0-.19,0c-.67.12-3.19.27-6.38.38a10.73,10.73,0,0,0-1.14.1Zm3.94,11.94c-1,0-1.7.51-1.7,1.3a1.43,1.43,0,0,0,.84,1.28,5.3,5.3,0,0,0,2.36.49,7.34,7.34,0,0,0,1.53-.15C539.87,125.22,538.82,124.21,537.3,124.21Z"/>
        <path class="cls-1" d="M95.84,157.94V147h5.57v1.3H97.27v9.64Z"/>
        <path class="cls-1" d="M115.12,147.25a14.41,14.41,0,0,0,3.46,3.8,22.13,22.13,0,0,0,5.76,3.45,5.19,5.19,0,0,0-.84,1.32,29.73,29.73,0,0,1-5.92-3.86,17.93,17.93,0,0,1-3.24-3.53,19.51,19.51,0,0,1-4.41,4.6,24.19,24.19,0,0,1-4.45,2.73,3.58,3.58,0,0,0-.88-1.2,22.06,22.06,0,0,0,5.71-3.65,15.62,15.62,0,0,0,3.24-3.66ZM107.79,166a14.29,14.29,0,0,0,.13-2.06v-4.64a12.41,12.41,0,0,0-.11-1.93,10.17,10.17,0,0,0,1.64.09h9.85a10.17,10.17,0,0,0,1.64-.09,12,12,0,0,0-.11,1.93V164A13.73,13.73,0,0,0,121,166h-1.51V164.8H109.3V166Zm1.51-2.45h10.15v-4.81H109.3Zm.15-9.94a9.76,9.76,0,0,0,1.66.09h6.51a11.31,11.31,0,0,0,1.76-.09v1.43a13.46,13.46,0,0,0-1.76-.08h-6.53a12.71,12.71,0,0,0-1.64.08Z"/>
        <path class="cls-1" d="M128.58,150a17.34,17.34,0,0,0-.08-1.89,14.9,14.9,0,0,0,2,.09h13a14.28,14.28,0,0,0,1.93-.09,17.15,17.15,0,0,0-.08,1.91v14.24c0,1.26-.42,1.51-2.57,1.51-.77,0-1.7,0-2.73-.1a6,6,0,0,0-.31-1.37,21.14,21.14,0,0,0,3.23.25c.8,0,1-.08,1-.46V149.41H130v14.51a12.53,12.53,0,0,0,.15,2.25h-1.66a18.51,18.51,0,0,0,.12-2.25Zm2.82,1.58a9,9,0,0,0,1.7.1h7.81a9,9,0,0,0,1.7-.1V153a9.13,9.13,0,0,0-1.66-.1h-7.87a9.66,9.66,0,0,0-1.68.1Zm9.59,8.84a10.74,10.74,0,0,0,.06,1.21c-.42,0-.81-.06-1.3-.06h-5.58v1.85H132.8a15.13,15.13,0,0,0,.09-1.93v-5a10.29,10.29,0,0,0-.07-1.28c.44,0,.86.06,1.41.06h5.29c.69,0,1.07,0,1.53-.06a9.59,9.59,0,0,0-.06,1.26Zm-6.82,0h5.52v-4h-5.52Z"/>
        <path class="cls-1" d="M159.93,164.43a10.21,10.21,0,0,0,.15,1.95h-1.64a9.71,9.71,0,0,0,.15-1.95v-3.51h-6.05a15.47,15.47,0,0,0-2.37.13v-1.52a13.44,13.44,0,0,0,2.37.15h6.05v-.23a12.27,12.27,0,0,0-.1-1.68H160a9.22,9.22,0,0,0-.11,1.68v.23h6.45a13.54,13.54,0,0,0,2.39-.15v1.52a14.74,14.74,0,0,0-2.39-.13h-6.45Zm-1.38-15.54a8.62,8.62,0,0,0-.15-1.76h1.66a9.24,9.24,0,0,0-.15,1.76v.59h6.22a13.45,13.45,0,0,0,2.33-.15v1.49a16.05,16.05,0,0,0-2.31-.12H152.77a16.44,16.44,0,0,0-2.31.12v-1.49a13.65,13.65,0,0,0,2.34.15h5.75Zm-2.12,2.81c-.42,1.05-.59,1.47-.88,2a10.42,10.42,0,0,0,3.29,3,6.09,6.09,0,0,0-.88,1.1,13.92,13.92,0,0,1-3-3.07,15.4,15.4,0,0,1-3.3,3.93,4.19,4.19,0,0,0-1-1,10.36,10.36,0,0,0,2.65-2.63,10.67,10.67,0,0,0,1.8-3.82Zm7.68.13a13.92,13.92,0,0,1-.73,1.93,10.52,10.52,0,0,0,4.89,3.36,4.82,4.82,0,0,0-.78,1.26,13,13,0,0,1-4.64-3.55,11.42,11.42,0,0,1-2.22,2.86,3.84,3.84,0,0,0-1-.95,7.38,7.38,0,0,0,2.1-2.48,9.17,9.17,0,0,0,1.09-2.85Z"/>
        <path class="cls-1" d="M175.71,155.25a15.38,15.38,0,0,0-2.25.11v-1.31a14.34,14.34,0,0,0,2.25.11h3a12.59,12.59,0,0,0-1.11-2.37H175a23.45,23.45,0,0,0-2.37.1v-1.34a17.17,17.17,0,0,0,2.33.12h1.45a11.06,11.06,0,0,0-1.72-2.22l1.19-.57a12.26,12.26,0,0,1,1.87,2.79h1.77v-1.61a10.61,10.61,0,0,0-.13-1.77h1.43a12.18,12.18,0,0,0-.09,1.75v1.63H183V149a12.91,12.91,0,0,0-.08-1.75h1.42a10.34,10.34,0,0,0-.12,1.77v1.61h2a13.32,13.32,0,0,0,1.66-2.89l1.28.54a20.9,20.9,0,0,1-1.57,2.35h1.26a17.1,17.1,0,0,0,2.35-.12v1.34a23.45,23.45,0,0,0-2.37-.1h-2.48a25.27,25.27,0,0,1-1.13,2.37h3a14.64,14.64,0,0,0,2.26-.11v1.31a15.36,15.36,0,0,0-2.26-.11h-5.71v1.53h4.4a16.54,16.54,0,0,0,2.27-.1V158a16.87,16.87,0,0,0-2.27-.11h-4.4v1.62h6.36a16.58,16.58,0,0,0,2.39-.12v1.36a20.75,20.75,0,0,0-2.37-.13h-5.5a16.47,16.47,0,0,0,8.33,3.64,5.22,5.22,0,0,0-.82,1.3,22.38,22.38,0,0,1-5.14-2,13.46,13.46,0,0,1-3.34-2.56c.06,1,.09,1.33.09,1.79v1.4a16.71,16.71,0,0,0,.12,2.19h-1.51a13.27,13.27,0,0,0,.13-2.21v-1.38c0-.48,0-1,.08-1.77-2.06,2.15-4.05,3.28-7.89,4.52a4.47,4.47,0,0,0-.87-1.22,15.88,15.88,0,0,0,7.79-3.72h-5.14a20.48,20.48,0,0,0-2.37.13v-1.36a16.83,16.83,0,0,0,2.37.12h6v-1.62H177a16.54,16.54,0,0,0-2.25.11v-1.28a16.84,16.84,0,0,0,2.25.1h4.16v-1.53Zm8.1-1.09a10.8,10.8,0,0,0,1.07-2.37H179a15.31,15.31,0,0,1,1,2.37Z"/>
        <path class="cls-1" d="M197,149.29a9.31,9.31,0,0,0-1.8.12V148a11.78,11.78,0,0,0,1.89.12h3.42a8.52,8.52,0,0,0,1.76-.12v1.38a14.37,14.37,0,0,0-1.7-.08h-1.3a20.33,20.33,0,0,1-1.45,5.33h2.63a10.09,10.09,0,0,0,1.3-.06,15.56,15.56,0,0,0-.07,1.68v6.49a14.21,14.21,0,0,0,.09,1.76h-1.32v-1.05h-2.61v2.23H196.5a13.48,13.48,0,0,0,.12-2V159c0-.76,0-1.41.07-2.35a9.72,9.72,0,0,1-1.58,2.56,3.36,3.36,0,0,0-.76-1.26,14.25,14.25,0,0,0,2.9-5.34,14.52,14.52,0,0,0,.72-3.29Zm.84,13h2.61v-6.58h-2.61Zm7.29-13a14.42,14.42,0,0,0-2,.12V148a13.5,13.5,0,0,0,2.12.12h6.64A14.76,14.76,0,0,0,214,148v1.44a11.67,11.67,0,0,0-2-.12h-.5v5.81h.67a11.74,11.74,0,0,0,2.1-.12v1.49a14.14,14.14,0,0,0-2.1-.13h-.67v7.54a16.78,16.78,0,0,0,.14,2.25H210a16.58,16.58,0,0,0,.14-2.25v-7.54h-3.46c-.21,4.69-1.11,7.23-3.51,10a3.76,3.76,0,0,0-1.22-1c2.21-2.1,3.2-4.72,3.38-9h-.58a11.17,11.17,0,0,0-2.08.13V155a14.31,14.31,0,0,0,2.08.1h.63v-5.81Zm1.53,5.1v.71h3.42v-5.81H206.7Z"/>
        <path class="cls-1" d="M228.9,157.67a17.52,17.52,0,0,0,2.35-.11c0,.46-.06.9-.08,1.85l-.09,4.26c0,.63.23.71,1.87.71,1.47,0,1.89-.1,2-.48a12.7,12.7,0,0,0,.33-3.15,5.11,5.11,0,0,0,1.37.55c-.34,4.2-.46,4.32-3.85,4.32-2.56,0-3.1-.27-3.1-1.68v-.1l.08-4.94h-3.9a8.11,8.11,0,0,1-1.64,3.47,9.33,9.33,0,0,1-2.25,2,14.08,14.08,0,0,1-3.48,1.73,3.23,3.23,0,0,0-.93-1.2,13,13,0,0,0,4-1.89,6.82,6.82,0,0,0,2.92-4.12h-3.32A15.33,15.33,0,0,0,219,159v-1.49a14.43,14.43,0,0,0,2.22.13h3.61a13.9,13.9,0,0,0,.15-1.77,7.33,7.33,0,0,0-.08-1.13l1.59,0a7.22,7.22,0,0,0-.17,1.32c0,.51-.08,1-.16,1.56Zm-2.8-8.89a6.81,6.81,0,0,0-.14-1.51h1.64a5.86,5.86,0,0,0-.15,1.51v.66h6.23a18.75,18.75,0,0,0,2.13-.11,8.55,8.55,0,0,0-.09,1.45v1.07a8.81,8.81,0,0,0,.09,1.47h-1.39v-2.69h-5.23v3.05c0,.25,0,.35.15.42a4.29,4.29,0,0,0,1.34.14,3.84,3.84,0,0,0,1.7-.23c.23-.17.34-.73.36-1.7a4.27,4.27,0,0,0,1.26.4c-.11,1.32-.27,1.91-.63,2.23a4.82,4.82,0,0,1-2.71.46c-2.2,0-2.73-.23-2.73-1.16v-3.61h-2.58a5.71,5.71,0,0,1-.74,2.33,5.91,5.91,0,0,1-3.31,2.67c-.49.19-.91.31-2,.61a6,6,0,0,0-.79-1.16c2.24-.42,3.29-.84,4.2-1.68a4,4,0,0,0,1.28-2.77h-4.48v2.67h-1.38a10.57,10.57,0,0,0,.08-1.47v-1.05a9.91,9.91,0,0,0-.08-1.45,18.46,18.46,0,0,0,2.12.11h5.81Z"/>
        <path class="cls-1" d="M251.2,156.68a1.72,1.72,0,1,1-1.72-1.72A1.73,1.73,0,0,1,251.2,156.68Z"/>
        <path class="cls-1" d="M265,151.39a14,14,0,0,1-1.09,2,5.08,5.08,0,0,0-1.18-.61,11.17,11.17,0,0,0,1.91-4,5.14,5.14,0,0,0,.23-1.17l1.37.33a6,6,0,0,0-.36,1.09c-.15.49-.23.76-.4,1.22h2.23v-.82a10.64,10.64,0,0,0-.13-2.14h1.53a11.15,11.15,0,0,0-.12,2.12v.84h2.14a12.73,12.73,0,0,0,2.06-.1v1.38a13.35,13.35,0,0,0-2.06-.1H269v2.48h2.94a13.37,13.37,0,0,0,2-.11v1.39a10.77,10.77,0,0,0-2-.11H269v2.29h2.22a14.64,14.64,0,0,0,2-.1,14.65,14.65,0,0,0-.09,1.93v4.15c0,1-.42,1.26-2.1,1.26-.29,0-.4,0-1.15,0a4.74,4.74,0,0,0-.21-1.26,7.16,7.16,0,0,0,1.47.11c.63,0,.75-.07.75-.36v-4.51H269v5.35a17.67,17.67,0,0,0,.1,2.37h-1.51a19.35,19.35,0,0,0,.13-2.37v-5.35h-2.88v4a20.84,20.84,0,0,0,.08,2.19h-1.45a11.73,11.73,0,0,0,.11-2.16v-3.32a18.05,18.05,0,0,0-.08-2,15.48,15.48,0,0,0,2,.1h2.23V155h-3a12,12,0,0,0-2,.13v-1.43a10.36,10.36,0,0,0,1.93.13h3v-2.48Zm11.44-2.9a12.57,12.57,0,0,0-.13,2.29V159a14.32,14.32,0,0,0,.11,2.35h-1.53A15.25,15.25,0,0,0,275,159V150.8a13.41,13.41,0,0,0-.12-2.31Zm4.33-1.18a14.5,14.5,0,0,0-.15,2.55v14.19c0,1.53-.44,1.89-2.35,1.89-.55,0-1.22,0-2.23-.11a3.81,3.81,0,0,0-.4-1.34,19.49,19.49,0,0,0,2.65.21c.86,0,1-.11,1-.63V149.88a16.1,16.1,0,0,0-.15-2.57Z"/>
        <path class="cls-1" d="M291.48,147.52c-.25.57-.32.76-.48,1.18a28.74,28.74,0,0,1-1.56,3.49v11.48a16.89,16.89,0,0,0,.15,2.52H288a18.1,18.1,0,0,0,.15-2.56v-7c0-.9,0-1.47.08-2.71a15.39,15.39,0,0,1-2.6,3.32,4.36,4.36,0,0,0-.88-1.12,18.39,18.39,0,0,0,4.43-6.29A11.55,11.55,0,0,0,290,147Zm3.21,4.14a23.29,23.29,0,0,1-3.34,5.12,3.06,3.06,0,0,0-1.05-1A18.35,18.35,0,0,0,294,150a11.5,11.5,0,0,0,.88-3l1.47.48a10.3,10.3,0,0,0-.42,1.08c-.29.86-.4,1.13-.71,1.86h6.65a10.63,10.63,0,0,0,1.91-.12v1.43a10.85,10.85,0,0,0-1.91-.11H297v3.4h4.26a12.38,12.38,0,0,0,1.85-.12v1.45a12.12,12.12,0,0,0-1.85-.13H297v3.4h4.32a11.24,11.24,0,0,0,1.85-.13V161a12.57,12.57,0,0,0-1.85-.12H297v3.21a11.92,11.92,0,0,0,.14,2.2h-1.61a13.72,13.72,0,0,0,.12-2.2V151.66Z"/>
        <path class="cls-1" d="M310.44,159.45a15.51,15.51,0,0,1-2.26,6.87,4.28,4.28,0,0,0-1.12-1,10.66,10.66,0,0,0,1.83-4.41,55,55,0,0,0,.69-10,27.92,27.92,0,0,0-.1-3A24.65,24.65,0,0,0,312,148H323a17.16,17.16,0,0,0,2.22-.09c0,.51-.06,1-.06,1.62V151a15.07,15.07,0,0,0,.06,1.53c-.88,0-1.43-.06-2.1-.06H310.84c0,2.81-.08,3.78-.27,5.82h4.16v-2.48h-1.31a17.34,17.34,0,0,0-1.89.08v-1.3a10.25,10.25,0,0,0,1.91.11h1.29v-.28a14.16,14.16,0,0,0-.09-1.49h1.45a7.48,7.48,0,0,0-.1,1.49v.28h4v-.28a9.48,9.48,0,0,0-.11-1.49h1.49a7.24,7.24,0,0,0-.1,1.49v.28h1.8a10.52,10.52,0,0,0,2-.11v1.3a17.32,17.32,0,0,0-2-.08H321.3v2.48h2.45a15.59,15.59,0,0,0,2.27-.13v1.39a16.55,16.55,0,0,0-2.25-.13h-5.64a6.8,6.8,0,0,0,2.08,2.65,13,13,0,0,0,2.91-2.5l1.18.77a27,27,0,0,1-3.15,2.42,13.85,13.85,0,0,0,5.44,2.18,3.8,3.8,0,0,0-.84,1.28,15.83,15.83,0,0,1-6.38-3.27,8.78,8.78,0,0,1-2.59-3.53h-2.12v4.75c1.77-.34,2.48-.51,4.37-1v1.22c-2.25.6-3.13.79-7.43,1.63l-.74.17-.33-1.45h.19a18.24,18.24,0,0,0,2.64-.33v-5Zm13.4-8.06v-2.21h-13v2.21ZM320,155.84h-4v2.48h4Z"/>
        <path class="cls-1" d="M349,148.57a12.51,12.51,0,0,0-.17,2.31v11.3a12.75,12.75,0,0,0,.17,2.35h-2a12.62,12.62,0,0,0,.17-2.35v-5.31H337.7v5.31a12.15,12.15,0,0,0,.17,2.35h-2a12,12,0,0,0,.17-2.35V150.93a12.46,12.46,0,0,0-.17-2.36h2a12.37,12.37,0,0,0-.17,2.31v4.5h9.49v-4.45a12.46,12.46,0,0,0-.17-2.36Z"/>
        <path class="cls-1" d="M353.74,164.53a12.55,12.55,0,0,0,.17-2.35V150.91a15,15,0,0,0-.17-2.4c.76,0,1.35.06,2.31.06h4.29c3.23,0,5.06,1.66,5.06,4.58,0,3.09-1.89,4.87-5.17,4.87h-4.68v4.14a12.38,12.38,0,0,0,.17,2.37Zm6.49-8c2.23,0,3.49-1.19,3.49-3.33S362.5,150,360.23,150h-4.68v6.55Z"/>
        <path class="cls-1" d="M374.09,155.42v10.94h-5.56v-1.3h4.13v-9.64Z"/>
        <path class="cls-1" d="M397.68,150.53a8.86,8.86,0,0,0,1-2.88l1.68.29a4.5,4.5,0,0,0-.54,1.14c-.28.67-.55,1.24-.65,1.43l.44,0a29.41,29.41,0,0,0,6.61-.8l.13,1.43a6.59,6.59,0,0,0-.84.1c-2.19.29-4.39.46-6.93.55a16.24,16.24,0,0,1-1.89,3c-.21.25-.63.73-.72.8a1.93,1.93,0,0,0-.27.21,0,0,0,0,1,0,0v0a.15.15,0,0,0,0,.06c.76-.59.76-.59,1-.73a5.52,5.52,0,0,1,3.17-1,2.54,2.54,0,0,1,2.77,2.33c1.53-.61,2.73-1.05,3.65-1.39a4.78,4.78,0,0,0,1.43-.61l.67,1.47a34.82,34.82,0,0,0-5.6,1.85c0,.55,0,.76,0,1.28,0,.27,0,.74,0,1.16s0,.75,0,.94a4.9,4.9,0,0,0,0,.76l-1.43,0c.06-.46.13-1.75.13-3a5.93,5.93,0,0,0,0-.63c-2.86,1.35-3.95,2.33-3.95,3.59s1.3,2,4.26,2a17.71,17.71,0,0,0,5.61-.82l.19,1.62c-.32,0-.42,0-.84.1a33,33,0,0,1-5.11.42c-3.75,0-5.58-1.07-5.58-3.23,0-1.16.71-2.25,2.14-3.32a16.76,16.76,0,0,1,3.13-1.68c-.17-1.15-.67-1.66-1.66-1.66A7.89,7.89,0,0,0,395,157.5a6.92,6.92,0,0,0-1.62,1.74l-1.17-1.18a20.91,20.91,0,0,0,4.7-6l.19-.31a2.58,2.58,0,0,1-.4,0c-.34,0-2.31,0-3.09-.07h-.33a2.75,2.75,0,0,0-.47,0l0-1.45a30.29,30.29,0,0,0,4.49.23Z"/>
        <path class="cls-1" d="M419.52,157.23c-1.37,1.13-2,2.09-2,3.08s.61,1.66,1.78,2.06a13.54,13.54,0,0,0,3.85.42,20,20,0,0,0,6.3-.8l.18,1.72a5.21,5.21,0,0,0-.71.11,34.81,34.81,0,0,1-5.67.48,14.82,14.82,0,0,1-4.83-.65,3.34,3.34,0,0,1-2.39-3.17c0-1.37.8-2.69,2.41-4Zm-2.21-7.67a23.79,23.79,0,0,0,5.59.51,22.56,22.56,0,0,0,5.31-.45l.1,1.39A32.7,32.7,0,0,0,423,154.2l-1.07-.86a31.26,31.26,0,0,1,3.72-2.22,16.63,16.63,0,0,1-3.17.27,43,43,0,0,1-4.62-.27c-.4-.05-.4-.05-.7-.07Zm10.48,3.63a17.1,17.1,0,0,1,2.14,3.26l-1.05.63a16.61,16.61,0,0,0-2.14-3.34Zm2.29-1.23a16.2,16.2,0,0,1,2.18,3.27l-1.05.59a17.45,17.45,0,0,0-2.14-3.3Z"/>
        <path class="cls-1" d="M441.46,162.81c-1,0-1.81,0-2.35.08a18.09,18.09,0,0,0,.08-2.14v-3.13c0-.79,0-1.38-.06-2,.52,0,1.15.06,2.18.06h8.78a19.73,19.73,0,0,0,2.16-.08c0,.56-.06,1-.06,2v3.09a16.86,16.86,0,0,0,.08,2.18c-.56-.06-1.32-.08-2.33-.08h-1.82v1.39c0,.63.23.69,2.18.69,2.39,0,3-.09,3.21-.44a4.91,4.91,0,0,0,.44-2,3.61,3.61,0,0,0,1.24.53,4.47,4.47,0,0,1-.88,2.5c-.46.42-1.32.54-3.78.54-3.13,0-3.69-.23-3.69-1.47v-1.74H444c-.9,2.25-3.23,3.4-6.93,3.49a4.74,4.74,0,0,0-.69-1.26c.46,0,.69,0,.93,0,2.68,0,4.59-.8,5.35-2.25Zm1-8.9h1.78a11.11,11.11,0,0,0,1.79-.09v1.07c-.65-.06-1.16-.08-1.79-.08h-5.1c-.73,0-1.22,0-1.85.06a18.47,18.47,0,0,0,.07-1.89v-3.23a15.5,15.5,0,0,0-.09-2,15,15,0,0,0,2.06.09h4.79a10.31,10.31,0,0,0,1.91-.11v1.14a13,13,0,0,0-1.79-.09h-1.8v1.14h1.32a12.9,12.9,0,0,0,1.72-.07,8.17,8.17,0,0,0-.06,1v.91a7.26,7.26,0,0,0,.06,1c-.42,0-1-.06-1.84-.06h-1.18Zm-1.16-4v-1.14h-2.77v1.14Zm3,2v-1.11h-5.78v1.11Zm-5.78.86v1.18h2.79v-1.18Zm1.87,5H451v-1.07H440.43Zm0,2H451v-1.09H440.43Zm0,2.1H451v-1.17H440.43Zm7.69-11.59a11.89,11.89,0,0,1-1.73,2.08,3.2,3.2,0,0,0-.9-.86,7.93,7.93,0,0,0,2.75-4.22l1.26.34a16.86,16.86,0,0,1-.71,1.57H453a10.81,10.81,0,0,0,1.78-.1v1.3a10.63,10.63,0,0,0-1.78-.11Zm-.68,2.15a10.48,10.48,0,0,0,1.75.1h3.06a10.57,10.57,0,0,0,1.79-.1v1.32a10,10,0,0,0-1.79-.11h-3a9.71,9.71,0,0,0-1.79.11Z"/>
        <path class="cls-1" d="M472.06,148.83c-.24.19-.4.33-2.59,2.43a60.35,60.35,0,0,1-4.83,4c-.77.59-.92.76-.92,1.05s.17.53,1.87,1.85a62.42,62.42,0,0,1,6.72,5.73,4,4,0,0,0,.59.52l-1.33,1.31a19,19,0,0,0-2.71-2.88c-1.4-1.3-2.24-2-5.31-4.39-1.17-.92-1.51-1.38-1.51-2.1a2,2,0,0,1,.61-1.4,13.87,13.87,0,0,1,1.78-1.43,33.16,33.16,0,0,0,6.16-5.76Z"/>
        <path class="cls-1" d="M482.24,151.47a14.11,14.11,0,0,0,2.63.19c.42,0,.65,0,1.26,0a26.86,26.86,0,0,0,.46-3.72v-.14l1.66.16c-.09.34-.11.44-.17.74,0,.12-.08.54-.21,1.26s-.17,1-.27,1.59a16.55,16.55,0,0,0,3.78-.71l.1,1.45-.21,0-.38.08a28.08,28.08,0,0,1-3.54.51,56.64,56.64,0,0,1-3.89,12.34l-1.53-.65a42.67,42.67,0,0,0,3.94-11.61c-.42,0-.67,0-1.44,0s-.93,0-1.75,0h-.08l-.36,0Zm9.39,7.62a8.17,8.17,0,0,0-.63.8,2.51,2.51,0,0,0-.53,1.49c0,1.26,1.28,1.93,3.68,1.93a15.64,15.64,0,0,0,4.64-.71l.15,1.57-.28.05-.65.12a23.13,23.13,0,0,1-3.74.34c-3.44,0-5.22-1.07-5.22-3.15,0-.95.29-1.6,1.4-3Zm6.49-3.63a22.35,22.35,0,0,0-2.48-.15,18.11,18.11,0,0,0-5.25.72l-.15-1.43a24.06,24.06,0,0,1,5.57-.69c.39,0,.71,0,2.29.06ZM495,148.09a16.31,16.31,0,0,1,2.16,3.26l-1.05.63a15.38,15.38,0,0,0-2.16-3.32Zm2.37-1.13a16.85,16.85,0,0,1,2.16,3.25l-1.05.61a15.68,15.68,0,0,0-2.14-3.3Z"/>
        <path class="cls-1" d="M505.7,152a9.68,9.68,0,0,0,1.62.1,47.61,47.61,0,0,0,6.25-.44c-.31-.71-.65-1.55-1-2.5-.23-.54-.35-.84-.54-1.21l1.66-.24a6.33,6.33,0,0,0,.61,1.89,16.42,16.42,0,0,0,.75,1.85,24.27,24.27,0,0,0,5.08-1.32l.21,1.49c-.44.08-.61.13-1.24.29a27.8,27.8,0,0,1-2.83.65l-.72.15a39.72,39.72,0,0,0,3.78,6.11l-1.4.8a4.24,4.24,0,0,0-1.45-.86,11.31,11.31,0,0,0-3.68-.55,7.48,7.48,0,0,0-4,.88,2.39,2.39,0,0,0-1.14,2,2.12,2.12,0,0,0,.8,1.64,7.19,7.19,0,0,0,4.09,1,13.87,13.87,0,0,0,6-1.34l.23,1.61a17.38,17.38,0,0,1-6.18,1.14c-2.56,0-4.49-.57-5.45-1.58a3.39,3.39,0,0,1-.95-2.31,3.92,3.92,0,0,1,2.37-3.42,9.05,9.05,0,0,1,4.08-.78,10.49,10.49,0,0,1,4.34.76,26,26,0,0,1-2.52-4.12c-.23-.44-.23-.48-.35-.69a60.29,60.29,0,0,1-7.48.55,4.91,4.91,0,0,0-.82.06Z"/>
        <path class="cls-1" d="M529.74,149.79a16,16,0,0,0-.14,2.5,36.45,36.45,0,0,0,.54,6.53c.46,2.14,1.33,3.59,2.12,3.59.38,0,.74-.36,1-1a15.06,15.06,0,0,0,1.1-3.59,6.67,6.67,0,0,0,1.23,1.2c-1,3.67-2,5.08-3.48,5.08-1.18,0-2.27-1.18-3-3.19s-1-4.68-1.14-9.85a12,12,0,0,0-.06-1.24Zm10.15,1.12a18.35,18.35,0,0,1,3,4.78,19.88,19.88,0,0,1,1.57,5.61l-1.49.61a18.5,18.5,0,0,0-4.37-10.35Z"/>
        <path class="cls-1" d="M555.09,162.87a3.15,3.15,0,1,1-3.15-3.15A3.14,3.14,0,0,1,555.09,162.87Zm-5.1,0a2,2,0,1,0,2-2A2,2,0,0,0,550,162.87Z"/>
      </g>
    </g>
  </g>
</svg>
