<svg xmlns="http://www.w3.org/2000/svg" viewBox="0 0 122.74 141.73"><defs><style>.cls-1{fill:#2c8ac8;}.cls-2{fill:#fff;}</style></defs><g id="レイヤー_2" data-name="レイヤー 2"><g id="レイヤー_2-2" data-name="レイヤー 2"><path class="cls-1" d="M90.66,54,61.37,70.86h0L32.07,53.94a33.8,33.8,0,0,1,58.58,0A0,0,0,0,1,90.66,54Z"/><path class="cls-2" d="M122.74,35.43,61.37,0,0,35.43V54.56l5.84,3.37L0,61.3V80.43L5.84,83.8,0,87.17V106.3l61.37,35.43,61.37-35.43V87.17L116.9,83.8l5.84-3.37V61.3l-5.84-3.37,5.84-3.37ZM61.37,122.6,16.57,96.73l5.83-3.37,39,22.5,39-22.5,5.83,3.37Zm38.95-48.36-5.13-3a32.77,32.77,0,0,1-.66,6.31h0L83.77,83.8,61.37,96.73,39,83.8,28.22,77.59h0a32.77,32.77,0,0,1-.66-6.31l-5.13,3-5.85-3.38,5.83-3.37,5.15,3,17.25,10L61.37,90l16.57-9.56,17.25-10,5.15-3,5.83,3.37Zm0-25.87L90.66,54l-6.89,4L77.93,61.3,61.37,70.86h0L44.81,61.3h0L39,57.93h0l-6.89-4a33.8,33.8,0,0,1,58.58,0l9.67-5.58-39-22.5-39,22.5L16.57,45l44.8-25.87L106.17,45Z"/><path class="cls-1" d="M95.2,70.86c0,.14,0,.28,0,.41a32.77,32.77,0,0,1-.66,6.31h0L83.77,83.8l-5.83-3.37,17.25-10C95.2,70.59,95.2,70.73,95.2,70.86Z"/><path class="cls-1" d="M83.77,83.8,61.37,96.73,28.22,77.59h0a32.77,32.77,0,0,1-.66-6.31c0-.13,0-.27,0-.41s0-.27,0-.4l17.25,10L61.37,90l16.57-9.56Z"/></g></g></svg>