<svg xmlns="http://www.w3.org/2000/svg" viewBox="0 0 853.64 271.76"><defs><style>.cls-1{fill:#fff;}</style></defs><g id="レイヤー_2" data-name="レイヤー 2"><g id="レイヤー_2-2" data-name="レイヤー 2"><path class="cls-1" d="M168.64,21.48a11.4,11.4,0,0,1,1.75-5.09c1-1.51,2.19-2.74,5.17-5.22a7.82,7.82,0,0,0,2.17-2.4,5.48,5.48,0,0,0,.54-2.4c0-2.27-1.22-3.76-3.08-3.76a2.36,2.36,0,0,0-2.42,1.75,7,7,0,0,0-.29,2.37c0,1-.52,1.44-1.67,1.44S169,7.73,169,6.79a4.51,4.51,0,0,1,2.16-3.68,7.54,7.54,0,0,1,4.34-1.18c3.94,0,6.29,1.8,6.29,4.83a4.88,4.88,0,0,1-1.18,3.29,11.14,11.14,0,0,1-2.87,2.14c-3.44,1.93-4.23,2.45-5.43,3.55a7,7,0,0,0-2.06,3h7.57c2.14,0,2.89-.68,3.37-3l.88.18-.91,5.64Z"/><path class="cls-1" d="M188.27,4.52a6.26,6.26,0,0,1,10.1,0,13.24,13.24,0,0,1,1.91,7.41,13.06,13.06,0,0,1-1.91,7.38,6.22,6.22,0,0,1-10.1,0,13.41,13.41,0,0,1-1.9-7.38A13.28,13.28,0,0,1,188.27,4.52ZM190.67,19c.58,1.52,1.46,2.27,2.66,2.27s2.25-.88,2.82-2.71a22.47,22.47,0,0,0,.68-6.6,20.64,20.64,0,0,0-.83-7c-.58-1.54-1.44-2.27-2.67-2.27-2.42,0-3.49,2.84-3.49,9.32A20.89,20.89,0,0,0,190.67,19Z"/><path class="cls-1" d="M204.61,21.48a11.28,11.28,0,0,1,1.75-5.09c1-1.51,2.19-2.74,5.17-5.22a7.63,7.63,0,0,0,2.16-2.4,5.35,5.35,0,0,0,.55-2.4c0-2.27-1.23-3.76-3.08-3.76a2.38,2.38,0,0,0-2.43,1.75,7.36,7.36,0,0,0-.28,2.37c0,1-.52,1.44-1.67,1.44s-1.86-.44-1.86-1.38a4.52,4.52,0,0,1,2.17-3.68,7.49,7.49,0,0,1,4.33-1.18c3.94,0,6.29,1.8,6.29,4.83a4.87,4.87,0,0,1-1.17,3.29,11.14,11.14,0,0,1-2.87,2.14c-3.45,1.93-4.23,2.45-5.43,3.55a6.85,6.85,0,0,0-2.06,3h7.57c2.14,0,2.89-.68,3.36-3l.89.18-.91,5.64Z"/><path class="cls-1" d="M222.59,21.48a11.53,11.53,0,0,1,1.75-5.09c1-1.51,2.2-2.74,5.17-5.22a7.69,7.69,0,0,0,2.17-2.4,5.48,5.48,0,0,0,.54-2.4c0-2.27-1.22-3.76-3.07-3.76a2.37,2.37,0,0,0-2.43,1.75,7,7,0,0,0-.29,2.37c-.05,1-.52,1.44-1.67,1.44s-1.85-.44-1.85-1.38a4.51,4.51,0,0,1,2.16-3.68,7.54,7.54,0,0,1,4.34-1.18c3.94,0,6.29,1.8,6.29,4.83a4.88,4.88,0,0,1-1.18,3.29,11.14,11.14,0,0,1-2.87,2.14c-3.44,1.93-4.23,2.45-5.43,3.55a7,7,0,0,0-2.06,3h7.57c2.14,0,2.9-.68,3.37-3l.88.18-.91,5.64Z"/><path class="cls-1" d="M258.53,9.6h2.8c.81-.88,1.07-1.17,1.88-2.08,1.22.94,1.61,1.22,2.82,2.19a.62.62,0,0,1,.13.23.25.25,0,0,1-.26.21h-7.37v6.37h4c.92-1,1.2-1.28,2.14-2.27,1.28,1,1.67,1.33,2.9,2.4.08.11.13.18.13.24s-.1.18-.29.18h-8.85v2.3c0,.39,0,2.37.08,4,0,.45-.08.6-.34.71a6.28,6.28,0,0,1-1.74.18c-.92,0-1.08-.08-1.08-.5v-.13c.08-3,.11-3.47.11-4.07V17.07h-9.4c-.36,0-1.69.1-2.21.16l-.16-.92a14.7,14.7,0,0,0,2.37.21h1.7V11c0-1.44,0-2-.1-3.29,1.51.81,2,1.07,3.39,1.9h4.41v-5H250.5a25.42,25.42,0,0,1-6.21,6l-.21-.26a26.84,26.84,0,0,0,3.6-5.79A23.56,23.56,0,0,0,249.3,0a23.6,23.6,0,0,1,4.17,1.33.32.32,0,0,1,.13.26c0,.29-.18.37-1.36.52A16.35,16.35,0,0,1,250.89,4h11c.65-.73,1.33-1.46,2-2.19,1.36,1,1.75,1.3,3.05,2.35a.34.34,0,0,1,.13.2c0,.11-.1.19-.26.19h-8.25Zm-7.72.55v6.37h4.75V10.15Z"/><path class="cls-1" d="M285.71,11.48c4,.32,6,2,6,5,0,3.34-2.58,5.38-6.81,5.38-3.71,0-6.4-1.7-6.4-4,0-1,.74-1.56,2-1.56a1.59,1.59,0,0,1,1.33.49c.16.21.16.26.21,1.46a4.07,4.07,0,0,0,.71,2.09,2.7,2.7,0,0,0,2.14.89c2.16,0,3.39-1.75,3.39-4.78,0-1.8-.5-3.1-1.44-3.78a6.18,6.18,0,0,0-3.39-.84h-.78V11h.73c2.95,0,4.49-1.56,4.49-4.51,0-2.53-1-3.89-2.82-3.89A2.15,2.15,0,0,0,283,3.71a4.8,4.8,0,0,0-.53,2.11c0,.86-.07,1-.31,1.31a1.92,1.92,0,0,1-1.36.39c-1.2,0-1.82-.45-1.82-1.28,0-2.43,2.69-4.31,6.16-4.31a7.3,7.3,0,0,1,4.64,1.44,4.23,4.23,0,0,1,1.44,3.21c0,2.55-2,4.25-5.48,4.69Z"/><path class="cls-1" d="M307.08,14.12a13.75,13.75,0,0,1-2.74,6.73,14.43,14.43,0,0,1-3.62,3.32l-.19-.21a15.89,15.89,0,0,0,3.27-7.31,46.47,46.47,0,0,0,.57-9.39c0-3.48,0-5-.16-7.26,1.65.73,2.14,1,3.63,1.77h8.59c.65-.75.83-1,1.54-1.69,1,.7,1.33.94,2.32,1.64.26.21.37.34.37.47s-.24.42-1,.79v9c0,2.45,0,5.14.1,8.72a2.67,2.67,0,0,1-.34,1.69,4,4,0,0,1-2.76,1.33,4.16,4.16,0,0,1-.86.11c-.29,0-.34-.08-.39-.47A2.08,2.08,0,0,0,314,21.61a16.71,16.71,0,0,0-3.58-.94l0-.34c2.19.13,2.66.16,5.61.24.44,0,.55-.08.55-.45v-6Zm9.56-5.93H307.4a50,50,0,0,1-.24,5.38h9.48Zm0-5.87h-9.19c0,1.93,0,1.93,0,5.33h9.22Z"/><path class="cls-1" d="M336.92,20.75a3.81,3.81,0,0,0,2-.31c.6-.32.78-1,.78-2.67v-12a8,8,0,0,0-.08-1.57c-.1-.57-.44-.7-1.77-.7h-.71V2.77A60.8,60.8,0,0,0,343.21,2Q343,4.77,343,8.56v9.21c0,1.6.16,2.25.63,2.61s.68.34,2,.37v.73h-8.69Z"/><path class="cls-1" d="M365.94,16.42c0,3.34-2.71,5.48-7,5.48-4,0-6.52-1.83-6.52-4.83a4.77,4.77,0,0,1,1.93-3.84A8.59,8.59,0,0,1,356.73,12C354,10.57,353,9.32,353,7.18c0-3.19,2.45-5.25,6.29-5.25,3.55,0,5.92,1.85,5.92,4.57,0,2.06-1.33,3.55-3.86,4.3C364.58,12.24,365.94,13.91,365.94,16.42ZM356,13.6a4.86,4.86,0,0,0-1,3.16c0,2.68,1.67,4.46,4.15,4.46A3.62,3.62,0,0,0,363,17.46a3.69,3.69,0,0,0-1.85-3.18,14.9,14.9,0,0,0-2.4-1.34c-.34-.15-1.15-.52-1.18-.52A4.63,4.63,0,0,0,356,13.6Zm5.9-4.23a4.59,4.59,0,0,0,.81-2.85,5,5,0,0,0-.6-2.37,3.31,3.31,0,0,0-3-1.51,3.07,3.07,0,0,0-3.34,3.28,3.55,3.55,0,0,0,1.9,3.14,15.3,15.3,0,0,0,1.7.88l1.15.53A3.49,3.49,0,0,0,361.92,9.37Z"/><path class="cls-1" d="M380.45,22.78c0,.6-.36.71-2.16.71-.94,0-1.07-.08-1.07-.63.16-4.64.18-7.46.18-13.41,0-5.35,0-6.63-.16-8.85a26.58,26.58,0,0,1,3.5,1.75h9.95c.7-.76.93-1,1.64-1.75,1,.76,1.36,1,2.3,1.75.26.21.36.34.36.49s-.21.42-1,.84l0,4.18c0,7.8,0,9.5.19,14.64,0,.31-.06.44-.19.55a4.39,4.39,0,0,1-2,.28c-.89,0-1.1-.08-1.1-.49V21.19H380.45ZM390.92,2.9H380.45v8.19h10.47Zm-10.47,8.74v9h10.47v-9Z"/><path class="cls-1" d="M413.84,1.88a13.49,13.49,0,0,0-2,4,27.7,27.7,0,0,0-1.07,8.1A25.34,25.34,0,0,0,412,22.76a13.76,13.76,0,0,0,1.8,3.42l-.5.41A14.21,14.21,0,0,1,410,22.5,17.12,17.12,0,0,1,410.32,5a14.43,14.43,0,0,1,3-3.52Z"/><path class="cls-1" d="M422.92,18.09c0,2.37.26,2.66,2.45,2.71v.68h-8.16V20.8c2.14-.08,2.34-.31,2.34-2.71V5.35c0-2.4-.26-2.69-2.34-2.71V2h14.32l.4,5.4-.92.08c-.62-3.53-2.06-4.73-5.66-4.73h-2.43V11h2c2.77,0,3.5-.57,3.76-3h.83v6.81h-.83c-.31-2.53-.94-3-3.76-3h-2Z"/><path class="cls-1" d="M440.38,7.52c.06,1,.08,1.59.08,2.11v.78c1.05-1.93,2.38-2.95,3.86-2.95a2.07,2.07,0,0,1,2.22,2A1.68,1.68,0,0,1,444.66,11a1.07,1.07,0,0,1-1.22-.84c-.21-.73-.34-.91-.76-.91h-.05c-.5,0-1,.47-1.46,1.23a5.84,5.84,0,0,0-.63,2.89v4.83c0,2.35.16,2.53,2.09,2.61v.63h-7.26v-.63c1.8,0,2-.28,2-2.61V11c0-2.21-.24-2.53-1.88-2.53V7.86Z"/><path class="cls-1" d="M454.61,7.52c-.11,1.56-.16,3.39-.16,5.06v5.66c0,2.33.18,2.59,2,2.61v.63h-7.26v-.63c1.85,0,2-.28,2-2.61V11c0-2.32-.13-2.5-2-2.53V7.86Zm-1.72-6A1.88,1.88,0,1,1,451,3.39,1.87,1.87,0,0,1,452.89,1.51Z"/><path class="cls-1" d="M459.78,26.18c2.16-3,3.1-6.74,3.1-12.16s-.94-9.14-3.1-12.14l.49-.44a15.07,15.07,0,0,1,3.4,4.09,17.37,17.37,0,0,1-.34,17.54,15.25,15.25,0,0,1-3.06,3.52Z"/><path class="cls-1" d="M478.33,12.76h6.14V15h-6.14Z"/><path class="cls-1" d="M503.76,11.48c4,.32,6,2,6,5,0,3.34-2.59,5.38-6.81,5.38-3.71,0-6.4-1.7-6.4-4,0-1,.73-1.56,2-1.56a1.59,1.59,0,0,1,1.33.49c.16.21.16.26.21,1.46a4.16,4.16,0,0,0,.7,2.09,2.73,2.73,0,0,0,2.14.89c2.17,0,3.4-1.75,3.4-4.78,0-1.8-.5-3.1-1.44-3.78a6.18,6.18,0,0,0-3.39-.84h-.78V11h.73c2.95,0,4.49-1.56,4.49-4.51,0-2.53-1-3.89-2.82-3.89A2.17,2.17,0,0,0,501,3.71a4.94,4.94,0,0,0-.52,2.11c0,.86-.07,1-.31,1.31a1.92,1.92,0,0,1-1.36.39c-1.2,0-1.82-.45-1.82-1.28,0-2.43,2.68-4.31,6.16-4.31a7.3,7.3,0,0,1,4.64,1.44,4.23,4.23,0,0,1,1.44,3.21c0,2.55-2,4.25-5.48,4.69Z"/><path class="cls-1" d="M525.13,14.12a13.75,13.75,0,0,1-2.74,6.73,14.48,14.48,0,0,1-3.63,3.32l-.18-.21a15.87,15.87,0,0,0,3.26-7.31c.45-2.27.58-4.36.58-9.39,0-3.48,0-5-.16-7.26,1.65.73,2.14,1,3.63,1.77h8.59c.65-.75.83-1,1.54-1.69,1,.7,1.33.94,2.32,1.64.26.21.36.34.36.47s-.23.42-1,.79v9c0,2.45,0,5.14.1,8.72a2.73,2.73,0,0,1-.34,1.69,4,4,0,0,1-2.76,1.33,4.16,4.16,0,0,1-.86.11c-.29,0-.34-.08-.4-.47a2.05,2.05,0,0,0-1.41-1.75,16.36,16.36,0,0,0-3.57-.94l0-.34c2.19.13,2.66.16,5.61.24.44,0,.54-.08.54-.45v-6Zm9.55-5.93h-9.23a52.79,52.79,0,0,1-.24,5.38h9.47Zm0-5.87H525.5c0,1.93,0,1.93,0,5.33h9.21Z"/><path class="cls-1" d="M552.57,21.48a11.4,11.4,0,0,1,1.74-5.09c1-1.51,2.2-2.74,5.17-5.22a7.69,7.69,0,0,0,2.17-2.4,5.48,5.48,0,0,0,.55-2.4c0-2.27-1.23-3.76-3.08-3.76a2.37,2.37,0,0,0-2.43,1.75,7,7,0,0,0-.29,2.37c0,1-.52,1.44-1.67,1.44s-1.85-.44-1.85-1.38a4.5,4.5,0,0,1,2.17-3.68,7.49,7.49,0,0,1,4.33-1.18c3.94,0,6.29,1.8,6.29,4.83a4.83,4.83,0,0,1-1.18,3.29,11.14,11.14,0,0,1-2.87,2.14c-3.44,1.93-4.23,2.45-5.43,3.55a7,7,0,0,0-2.06,3h7.57c2.14,0,2.9-.68,3.37-3l.88.18L565,21.48Z"/><path class="cls-1" d="M572.19,4.52a6.26,6.26,0,0,1,10.1,0,13.16,13.16,0,0,1,1.91,7.41,13,13,0,0,1-1.91,7.38,6.22,6.22,0,0,1-10.1,0,13.5,13.5,0,0,1-1.9-7.38A13.28,13.28,0,0,1,572.19,4.52ZM574.59,19c.58,1.52,1.47,2.27,2.67,2.27s2.24-.88,2.82-2.71a22.55,22.55,0,0,0,.67-6.6,20.64,20.64,0,0,0-.83-7c-.58-1.54-1.44-2.27-2.66-2.27-2.43,0-3.5,2.84-3.5,9.32A20.89,20.89,0,0,0,574.59,19Z"/><path class="cls-1" d="M598.5,22.78c0,.6-.36.71-2.16.71-.94,0-1.07-.08-1.07-.63.15-4.64.18-7.46.18-13.41,0-5.35,0-6.63-.16-8.85a26.58,26.58,0,0,1,3.5,1.75h9.94L610.38.6c1,.76,1.36,1,2.3,1.75.26.21.36.34.36.49s-.21.42-1,.84l0,4.18c0,7.8,0,9.5.18,14.64,0,.31-.05.44-.18.55a4.39,4.39,0,0,1-1.95.28c-.89,0-1.1-.08-1.1-.49V21.19H598.5ZM609,2.9H598.5v8.19H609ZM598.5,11.64v9H609v-9Z"/><path class="cls-1" d="M631.89,1.88a13.49,13.49,0,0,0-2,4,27.7,27.7,0,0,0-1.07,8.1,25.59,25.59,0,0,0,1.3,8.74,14.15,14.15,0,0,0,1.81,3.42l-.5.41A14.42,14.42,0,0,1,628,22.5,17.19,17.19,0,0,1,628.36,5a14.71,14.71,0,0,1,3-3.52Z"/><path class="cls-1" d="M636.09,15.35h1c.37,3.91,1.93,5.76,4.86,5.76a3.35,3.35,0,0,0,3.68-3.6c0-1.77-1-2.84-4.28-4.43A19.67,19.67,0,0,1,638,11.22a4.71,4.71,0,0,1-2.14-4.15,5.29,5.29,0,0,1,3.08-4.88,7.62,7.62,0,0,1,3.34-.6,13.19,13.19,0,0,1,3.18.45,4.91,4.91,0,0,0,.92.1,4.22,4.22,0,0,0,1.56-.37l-.21,5.85h-1a6.47,6.47,0,0,0-.89-3.26,4,4,0,0,0-3.6-2.06,3.23,3.23,0,0,0-3.39,3.39,3,3,0,0,0,.86,2.19,11.39,11.39,0,0,0,3.39,2,14.11,14.11,0,0,1,4.33,2.66,5,5,0,0,1,1.36,3.63,5.15,5.15,0,0,1-1.83,4.2,7.57,7.57,0,0,1-4.77,1.49,15.86,15.86,0,0,1-3.52-.44,5.47,5.47,0,0,0-1-.08,8.52,8.52,0,0,0-1.72.23Z"/><path class="cls-1" d="M662.92,21.71a25.09,25.09,0,0,1-.13-2.74,5.66,5.66,0,0,1-4.8,2.87,3.54,3.54,0,0,1-3.37-1.95,7.51,7.51,0,0,1-.5-3.24v-.36l.06-5.28c0-.07,0-.13,0-.21a3.76,3.76,0,0,0-.28-1.9c-.24-.31-.45-.39-1.62-.42V7.86l5.24-.34c-.13,1.88-.18,2.87-.21,5.19l0,2.77V16a8.94,8.94,0,0,0,.34,3.19,1.76,1.76,0,0,0,1.83,1.28,3.15,3.15,0,0,0,2.81-2.2,7.25,7.25,0,0,0,.5-3.1V11c0-1.43-.1-1.95-.39-2.24s-.42-.26-1.51-.29V7.86l5.24-.34c-.16,3.57-.16,3.57-.16,5.22v5.42c0,2.28.27,2.69,1.7,2.72v.6Z"/><path class="cls-1" d="M676.16,10.1a5,5,0,0,1,4.64-2.64,3.71,3.71,0,0,1,3.55,1.78,5.77,5.77,0,0,1,.65,3.21v5.79c0,2.33.18,2.59,2,2.61v.63h-7.1v-.63c1.75,0,2-.31,2-2.61V12.61c0-2.82-.67-4-2.29-4a3.07,3.07,0,0,0-2.69,1.73,6,6,0,0,0-.7,2.68v5.22c0,2.35.18,2.59,2,2.61v.63H671v-.63c1.8,0,2-.28,2-2.61V11c0-2.21-.21-2.5-1.93-2.53V7.86l5.09-.34Z"/><path class="cls-1" d="M690.14,26.18c2.17-3,3.11-6.74,3.11-12.16s-.94-9.14-3.11-12.14l.5-.44A14.85,14.85,0,0,1,694,5.53a17.31,17.31,0,0,1-.34,17.54,15,15,0,0,1-3.05,3.52Z"/><path class="cls-1" d="M167.86,58.3a33.68,33.68,0,0,0,7-6.65,28.28,28.28,0,0,0,2.6-4.15A5.94,5.94,0,0,0,178,46c4.1.84,4.41.94,4.41,1.23s-.26.34-1.17.55a14.2,14.2,0,0,0,5.19,4.56,19,19,0,0,0,6.63,2.17l0,.29a2.1,2.1,0,0,0-1.12.86,5.32,5.32,0,0,0-.89,1.85c-.05.18-.13.26-.26.26a7.75,7.75,0,0,1-2.11-1,19.79,19.79,0,0,1-5.33-4.65,25,25,0,0,1-2.45-4,25.73,25.73,0,0,1-5.59,6.35,28.37,28.37,0,0,1-7.3,4.2Zm13.7,3.76h2.82c.84-1,1.1-1.33,2-2.27,1.23,1,1.62,1.3,2.87,2.35.1.13.16.21.16.28s-.13.19-.34.19h-7.47v6h5.12c.94-1,1.22-1.38,2.14-2.4,1.35,1,1.77,1.41,3.13,2.55.1.11.16.19.16.24s-.11.16-.26.16H171a8,8,0,0,0-1.78.15l-.23-.94a9.6,9.6,0,0,0,2.06.24h7.54v-6h-4.56a7.65,7.65,0,0,0-1.67.13l-.21-.92a10,10,0,0,0,1.9.24h4.54V56.87h-4.17A6,6,0,0,0,173,57l-.21-.84a8.37,8.37,0,0,0,1.67.16h8.25c.75-.89,1-1.15,1.75-2,1.2.87,1.59,1.15,2.79,2.09.13.13.18.21.18.26s-.13.19-.37.19h-5.53Z"/><path class="cls-1" d="M203.28,68.85c0,.6-.37.7-2.17.7-.94,0-1.07-.08-1.07-.63.16-4.64.19-7.46.19-13.41,0-5.35,0-6.63-.16-8.85a27.21,27.21,0,0,1,3.5,1.75h9.94c.7-.76.94-1,1.64-1.75,1,.76,1.36,1,2.3,1.75.26.21.37.34.37.5s-.21.41-1,.83l0,4.18c0,7.8,0,9.5.18,14.64,0,.31,0,.44-.18.55a4.47,4.47,0,0,1-2,.28c-.89,0-1.09-.07-1.09-.49V67.25H203.28ZM213.75,49H203.28v8.19h10.47ZM203.28,57.7v9h10.47v-9Z"/><path class="cls-1" d="M237.81,66.81a3.78,3.78,0,0,0,2-.31c.6-.32.78-1,.78-2.67v-12a6.34,6.34,0,0,0-.08-1.57c-.1-.57-.44-.7-1.77-.7H238v-.73A60.8,60.8,0,0,0,244.1,48c-.16,1.86-.23,4.05-.23,6.58v9.21c0,1.6.15,2.25.62,2.61s.68.34,2,.37v.73h-8.69Z"/><path class="cls-1" d="M255.8,66.81a3.73,3.73,0,0,0,1.95-.31c.6-.32.79-1,.79-2.67v-12a8,8,0,0,0-.08-1.57c-.11-.57-.45-.7-1.78-.7H256v-.73a61.19,61.19,0,0,0,6.11-.79q-.24,2.79-.24,6.58v9.21c0,1.6.16,2.25.63,2.61s.68.34,2,.37v.73H255.8Z"/><path class="cls-1" d="M276.44,55.74a2.21,2.21,0,1,1-2.19-2.19A2.18,2.18,0,0,1,276.44,55.74Zm0,10a2.21,2.21,0,1,1-4.41,0,2.21,2.21,0,0,1,4.41,0Z"/><path class="cls-1" d="M285.94,50.58a6.26,6.26,0,0,1,10.1,0A13.16,13.16,0,0,1,298,58,13,13,0,0,1,296,65.37a6.22,6.22,0,0,1-10.1,0A13.5,13.5,0,0,1,284,58,13.31,13.31,0,0,1,285.94,50.58ZM288.34,65c.58,1.51,1.47,2.27,2.67,2.27s2.24-.89,2.81-2.72a22.43,22.43,0,0,0,.68-6.6,20.68,20.68,0,0,0-.83-7.05c-.58-1.54-1.44-2.27-2.66-2.27-2.43,0-3.5,2.85-3.5,9.32A21,21,0,0,0,288.34,65Z"/><path class="cls-1" d="M303.93,50.58a6.26,6.26,0,0,1,10.1,0,13.24,13.24,0,0,1,1.9,7.41,13.06,13.06,0,0,1-1.9,7.38,6.22,6.22,0,0,1-10.1,0A13.41,13.41,0,0,1,302,58,13.23,13.23,0,0,1,303.93,50.58ZM306.33,65c.57,1.51,1.46,2.27,2.66,2.27s2.24-.89,2.82-2.72a22.43,22.43,0,0,0,.68-6.6c0-3.39-.26-5.56-.84-7.05s-1.43-2.27-2.66-2.27c-2.43,0-3.5,2.85-3.5,9.32A20.68,20.68,0,0,0,306.33,65Z"/><path class="cls-1" d="M327.83,58.82H334V61h-6.14Z"/><path class="cls-1" d="M348.51,66.81a3.73,3.73,0,0,0,1.95-.31c.6-.32.79-1,.79-2.67v-12a8,8,0,0,0-.08-1.57c-.11-.57-.45-.7-1.78-.7h-.7v-.73A61.19,61.19,0,0,0,354.8,48q-.24,2.79-.24,6.58v9.21c0,1.6.16,2.25.63,2.61s.68.34,2,.37v.73h-8.69Z"/><path class="cls-1" d="M369.78,60.7c-3.47,0-5.85-2.45-5.85-6.05A6.33,6.33,0,0,1,370.67,48a5.91,5.91,0,0,1,5.19,2.56c1.15,1.7,1.64,3.78,1.64,6.76C377.5,64.25,375,68,370.14,68c-3.18,0-5.56-1.41-5.56-3.32,0-1,.71-1.61,1.88-1.61a1.84,1.84,0,0,1,1.44.49c.16.24.16.29.23,1.41.11,1.54.84,2.38,2.09,2.38,1.57,0,2.69-1.21,3.24-3.45a22.48,22.48,0,0,0,.55-5A5.57,5.57,0,0,1,369.78,60.7ZM373.54,58a5.21,5.21,0,0,0,.52-2.63,12.92,12.92,0,0,0-.84-4.75,2.94,2.94,0,0,0-2.63-2c-2,0-3.19,2.22-3.19,5.93a6.83,6.83,0,0,0,1,4.07,2.74,2.74,0,0,0,2.22,1.2A3.48,3.48,0,0,0,373.54,58Z"/><path class="cls-1" d="M389.75,55.74a2.21,2.21,0,1,1-2.2-2.19A2.18,2.18,0,0,1,389.75,55.74Zm0,10a2.21,2.21,0,1,1-4.41,0,2.21,2.21,0,0,1,4.41,0Z"/><path class="cls-1" d="M399.25,50.58a6.26,6.26,0,0,1,10.1,0,13.24,13.24,0,0,1,1.9,7.41,13.06,13.06,0,0,1-1.9,7.38,6.22,6.22,0,0,1-10.1,0A13.41,13.41,0,0,1,397.34,58,13.23,13.23,0,0,1,399.25,50.58ZM401.65,65c.57,1.51,1.46,2.27,2.66,2.27s2.25-.89,2.82-2.72a22.43,22.43,0,0,0,.68-6.6c0-3.39-.26-5.56-.84-7.05s-1.43-2.27-2.66-2.27c-2.43,0-3.5,2.85-3.5,9.32A20.68,20.68,0,0,0,401.65,65Z"/><path class="cls-1" d="M417.23,50.58a6.26,6.26,0,0,1,10.1,0A13.24,13.24,0,0,1,429.24,58a13.06,13.06,0,0,1-1.91,7.38,6.22,6.22,0,0,1-10.1,0,13.41,13.41,0,0,1-1.9-7.38A13.31,13.31,0,0,1,417.23,50.58ZM419.63,65c.58,1.51,1.46,2.27,2.66,2.27s2.25-.89,2.82-2.72a22.43,22.43,0,0,0,.68-6.6,20.68,20.68,0,0,0-.83-7.05c-.58-1.54-1.44-2.27-2.67-2.27-2.42,0-3.49,2.85-3.49,9.32A21,21,0,0,0,419.63,65Z"/><path class="cls-1" d="M181.69,133.66H187c1-1,1.26-1.38,2.17-2.43,1.38,1.05,1.83,1.41,3.26,2.61.11.08.16.16.16.21s-.11.16-.21.16H181.69v3.18c.06,5,.08,7.94.13,8.64v.18c0,.53-.62.73-2.27.73-.81,0-1.07-.15-1.07-.6v-.2c.16-3.5.21-5.93.21-8.72v-3.21h-7.46c-.76,0-1.65,0-2.43.13l-.18-.91a18.59,18.59,0,0,0,2.61.23h7.46V127.5a69.61,69.61,0,0,1-8.69.73L170,128a76.17,76.17,0,0,0,10.57-2.77,18.13,18.13,0,0,0,5.11-2.4c3.11,1.93,3.5,2.22,3.5,2.53s-.21.29-.55.29a8.51,8.51,0,0,1-.94-.13,43.31,43.31,0,0,1-5.95,1.54Z"/><path class="cls-1" d="M207,138.59a14.06,14.06,0,0,0-.11-1.61l1.67.13c1.73.1,2.09.2,2.09.49s-.23.37-.94.6v1h5.82c.84-.86,1.1-1.12,2-1.93,1.2.91,1.59,1.2,2.77,2.14.1.1.13.15.13.2s-.11.14-.26.14H210.09a7.78,7.78,0,0,0,2.92,1.8,25,25,0,0,0,8.23,1.43l0,.29a3.24,3.24,0,0,0-1.8,2.19c-.21.65-.24.71-.47.71a14.68,14.68,0,0,1-4.15-1.52,15,15,0,0,1-4-3.1,8.62,8.62,0,0,1-1.07-1.54v2.08c0,1.34,0,2.3.11,4.23,0,.58-.34.71-1.81.71-1,0-1.12-.08-1.12-.63.08-1.62.11-2.48.11-3.78v-1.41a18.29,18.29,0,0,1-5.41,3.57,28.34,28.34,0,0,1-5.4,1.75l-.08-.29a27,27,0,0,0,5.88-3.6,18.9,18.9,0,0,0,2.95-2.89h-5.85a9.32,9.32,0,0,0-2.06.18l-.13-.94a8.7,8.7,0,0,0,2.22.21H207Zm-6.37-8.32a18.78,18.78,0,0,0-.13-2.61c3.65.31,3.76.34,3.76.65s-.24.37-.94.57v1.39h3.42c0-1.72,0-1.72-.08-2.53.78.07,1.41.13,1.8.18,1.46.1,1.85.23,1.85.52s-.18.31-.89.5v1.33h3.61v-.21c0-1,0-1.38-.08-2.32,3.16.28,3.68.39,3.68.73,0,.18-.21.28-.92.49v1.31h1c.68-.84.91-1.07,1.62-1.88,1.09.86,1.43,1.15,2.45,2.09.11.1.13.15.13.21s-.1.13-.26.13h-4.93c0,1.46,0,2.55,0,3.31,0,.21,0,.31-.1.39a3,3,0,0,1-1.64.26c-.81,0-.94-.05-.94-.39v-.55h-3.61v.45c0,.44-.31.55-1.69.55-.92,0-1-.06-1-.5,0-1.1,0-1.54,0-2.27v-1.25h-3.42V136h12.08c.76-.79,1-1,1.78-1.8,1.14.81,1.48,1.07,2.58,2,.1.1.13.16.13.21s-.1.16-.29.16H203.36V137c0,.49-.29.6-1.88.6-.78,0-.94-.08-.94-.52.08-2.33.08-2.33.13-6.21h-2a10.66,10.66,0,0,0-1.85.15l-.13-.94a9,9,0,0,0,2,.24Zm2.61-5.09v-.76c0-.81,0-1.09-.05-1.75l1.82.16c1.57.13,2,.23,2,.52s-.21.34-1,.58c0,.62,0,.65,0,1.25h4.7v-.26l0-.52a12.28,12.28,0,0,0-.1-1.73c.76.08,1.43.13,1.83.16,1.61.16,2,.26,2,.55s-.29.39-1,.57v1.23H216c.81-.91,1.07-1.18,1.85-2,1.23.91,1.62,1.2,2.79,2.16a.38.38,0,0,1,.14.24c0,.1-.11.16-.32.16h-7c0,.39,0,.65,0,1.28s-.21.54-1.85.54c-.84,0-1,0-1-.41v-.06c0-.7,0-.81,0-1.35H206c0,.26,0,.7,0,1.33,0,.41-.27.49-1.81.49-.88,0-1,0-1-.47,0-.62,0-.83.05-1.35h-4.36a8.07,8.07,0,0,0-2,.18l-.16-.94a9.89,9.89,0,0,0,2.14.21Zm6.18,5.64v2.48h3.61v-2.48Z"/><path class="cls-1" d="M237.42,130.69a15.22,15.22,0,0,0,8.69,11.06,16.21,16.21,0,0,0,3,1l0,.34a4.38,4.38,0,0,0-2.53,2.66c-.13.37-.24.47-.39.47a4.39,4.39,0,0,1-1.65-.91,17.34,17.34,0,0,1-5.92-8,27.79,27.79,0,0,1-1.46-5.74c-.45,4.33-1.83,7.51-4.36,10a19.3,19.3,0,0,1-5.53,3.87c-.94.44-1.62.7-3.13,1.25l-.16-.34c3.89-2.48,5.79-4.28,7.44-6.92a20.09,20.09,0,0,0,2.69-8.76h-6.92a14.62,14.62,0,0,0-2.43.18l-.13-1a13.53,13.53,0,0,0,2.58.24h6.95c.1-1.28.13-2.48.13-4.2a23.85,23.85,0,0,0-.13-2.77l2.11.18c1.83.13,2.38.29,2.38.63s-.29.44-1.13.73c-.07,2.79-.1,3.81-.23,5.43h5.84l2-2.53c1.46,1.09,1.88,1.43,3.26,2.58.13.16.18.23.18.31s-.13.19-.31.19Z"/><path class="cls-1" d="M271.43,137.71l2.06-2.33c1.33,1,1.72,1.33,3,2.38a.6.6,0,0,1,.15.29c0,.13-.13.2-.36.2H266v2.93l0,3.34a1.93,1.93,0,0,1-1,1.95,6.81,6.81,0,0,1-2.82.66c-.34,0-.42-.08-.47-.5a2,2,0,0,0-.73-1.36c-.5-.41-.89-.54-3.58-1.17v-.34c3.63.24,3.63.24,5.14.29h.08c.26,0,.37-.11.37-.39v-5.41h-8.25a13.25,13.25,0,0,0-2.06.16l-.16-.91a10.85,10.85,0,0,0,2.22.21H263v-.42a18.61,18.61,0,0,0-.13-2.61c1.33.16,1.33.16,2.76.39a18.54,18.54,0,0,0,2.41-2.84h-8.83a11.07,11.07,0,0,0-1.87.15l-.16-.89a11.07,11.07,0,0,0,2,.19h8.92c.6-.63.79-.81,1.39-1.41,1,.7,1.38.94,2,1.41a15.31,15.31,0,0,0,.76-2.61H256.11v.23a10.51,10.51,0,0,1-.39,2.87,2.13,2.13,0,0,1-1.83,1.54c-.76,0-1.38-.91-1.38-2a1,1,0,0,1,.36-.89c.08-.08.08-.08.68-.42,1.25-.7,1.78-1.69,2-3.68h.34a14.65,14.65,0,0,1,.21,1.78h11.25a21.79,21.79,0,0,0,2.38-5.46c1.85.58,3.34,1.07,3.75,1.28.24.11.34.24.34.37,0,.29-.36.42-1.07.42h-.23a35.79,35.79,0,0,1-4.15,3.39H272c.7-.71.91-.91,1.64-1.57,1.18.86,1.54,1.15,2.66,2,.29.24.39.39.39.55,0,.34-.44.47-1.61.47a23.93,23.93,0,0,1-2.64,1.72l-.5.32.34.26c.26.23.4.39.4.52s-.32.39-1,.39h-.39a32.4,32.4,0,0,1-4.64,2.06c.23.08.31.19.31.32s-.24.39-1,.62v1.52Zm-14.88-14.36c3.11,1.18,4.31,2,4.31,3.08s-.86,2.06-1.67,2.06c-.42,0-.65-.26-.89-1a9.13,9.13,0,0,0-1.9-3.86Zm5.4-.42c2.85,1,4.31,2,4.31,3.06a2.28,2.28,0,0,1-1.88,2.22c-.44,0-.6-.21-.89-1.34a8.42,8.42,0,0,0-1.74-3.7Z"/><path class="cls-1" d="M298,141.83l1.82-1.93c1.23.91,1.62,1.22,2.8,2.14.1.1.13.15.13.21s-.11.13-.29.13h-8.64v3.13h6.21c.91-1,1.23-1.28,2.12-2.22,1.3,1,1.69,1.36,2.92,2.4.1.11.13.16.13.21s-.11.16-.26.16H282.81a9.27,9.27,0,0,0-2.09.21l-.18-1.05a8.94,8.94,0,0,0,2.27.29h8.27v-3.13h-5.76a8.53,8.53,0,0,0-1.8.15l-.16-.94a8.21,8.21,0,0,0,2,.24h5.76v-1a21.88,21.88,0,0,0-.07-2.22c.83.08,1.46.16,1.87.18a9.66,9.66,0,0,1,1.81.26,8.33,8.33,0,0,0-.89-2.89L294,136c1.93.88,3.08,2,3.08,2.84a2,2,0,0,1-1.67,1.75.61.61,0,0,1-.63-.5,2.26,2.26,0,0,1-.05-.52,3.08,3.08,0,0,1-.89.31v1.91Zm-4.21-9.29h4.81c.73-.76,1-1,1.69-1.67,1.18.75,1.54,1,2.72,1.85.13.11.18.16.18.21s-.1.16-.26.16h-9.14v2.14h6.27c.83-.81,1.09-1.07,1.9-1.83a28.5,28.5,0,0,1,2.74,2c.11.08.19.16.19.24s-.13.15-.29.15H282.91a7.74,7.74,0,0,0-1.69.21l-.18-1a7.68,7.68,0,0,0,1.87.24h8.17v-2.14h-6.31a7.13,7.13,0,0,0-1.65.18l-.15-1a7.38,7.38,0,0,0,1.8.24h6.31v-2.17h-4.56v.32c0,.46-.32.57-1.8.57-.89,0-1,0-1.05-.47.11-2.51.11-2.87.11-3.89,0-1.62-.06-3-.13-4.23,1.35.55,1.74.73,3.08,1.39h11.61c.65-.6.83-.81,1.46-1.39.91.58,1.17.76,2.09,1.39.23.15.31.26.31.39s-.23.39-1,.73v1c0,1,0,2.33.08,4v.05c0,.26,0,.36-.16.44a4.07,4.07,0,0,1-1.72.26c-.76,0-.89,0-.92-.36v-.16h-4.7Zm-8.58,3.73a7,7,0,0,1-.89,3.63,2.51,2.51,0,0,1-1.9,1.22c-.81,0-1.28-.57-1.28-1.51s.28-1.15,1.12-1.36a3.39,3.39,0,0,0,2.66-2Zm5.84-11.67h-4.56v2.25h4.56Zm0,2.8h-4.56v2.42h4.56Zm-2.76,8.66c1.56,1.07,2.37,2,2.37,2.92a2,2,0,0,1-1.77,1.7c-.47,0-.71-.31-.71-.91,0,0,0,0,.08-1.2a3.89,3.89,0,0,0,0-.6,10.07,10.07,0,0,0-.19-1.8Zm10.2-9.21V124.6h-4.7v2.25Zm-4.7,3h4.7V127.4h-4.7Zm5,6.37c3.6,1.05,4.8,1.78,4.8,2.95,0,.89-.73,1.83-1.43,1.83-.45,0-.68-.26-1.1-1.15a8.88,8.88,0,0,0-2.45-3.42Z"/><path class="cls-1" d="M314.6,145.59c0,.6-.42.75-1.93.75-.94,0-1.15-.1-1.15-.6.11-3.18.16-7.93.16-12.68,0-3.42-.05-6.71-.13-9.42,1.46.68,1.9.91,3.39,1.69h14.38c.71-.75.92-1,1.67-1.72,1,.73,1.33.94,2.27,1.67.21.19.29.29.29.47s-.08.37-1,.89v6.11c0,4.25.05,9.11.15,12.71,0,.36-.1.52-.39.65a7,7,0,0,1-1.72.18c-.78,0-1-.13-1-.65v-1.51h-15ZM320.53,134v-8.09H314.6V134Zm0,.58H314.6v9h5.93Zm9.1-8.67h-6.21V134h6.21Zm-6.21,8.67v9h6.21v-9Z"/><path class="cls-1" d="M347.54,146.19a12.32,12.32,0,0,0,5-5.51c.94-2.14,1.3-4.54,1.36-8.51a33.61,33.61,0,0,0-5.28.68v1.41c0,.84,0,2.82.06,3.68v.16c0,1.35-.34,2-1.07,2-.45,0-.89-.34-1.33-1a3.29,3.29,0,0,1-.58-1.54,2,2,0,0,1,.19-.74,10.3,10.3,0,0,0,.44-3.47,8.73,8.73,0,0,0-2.77,1,2.59,2.59,0,0,1-1,.31c-.65,0-1.65-.86-2.35-2.06a3.23,3.23,0,0,1-.47-1.36,2.75,2.75,0,0,1,0-.31,3,3,0,0,0,2.53,1.33,26.11,26.11,0,0,0,4-.58A15.28,15.28,0,0,0,346,128a2.9,2.9,0,0,0-1.83-1.8A1.34,1.34,0,0,1,345,126a6.86,6.86,0,0,1,3.19,1.12c.68.45.91.79.91,1.23a2,2,0,0,1-.18.81,9,9,0,0,0-.32,2.24c.92-.15,1.57-.26,2.69-.39.32,0,.32,0,1.86-.21a6.21,6.21,0,0,0,.73-.07c0-.4,0-1.07,0-2.07,0-1.85-.13-2.63-.52-3.1a3.1,3.1,0,0,0-1.9-1,1.76,1.76,0,0,1,1.25-.37,7.86,7.86,0,0,1,3.29.79c.78.36,1.12.75,1.12,1.28a1.34,1.34,0,0,1-.16.62,9.1,9.1,0,0,0-.57,3.55,7.56,7.56,0,0,0,2.9-.57,1.4,1.4,0,0,1,.7-.18,4,4,0,0,1,1.83.67c.65.42,1,.81,1,1.23a.78.78,0,0,1-.83.78,3.49,3.49,0,0,1-.42,0c-1.28-.13-2.74-.19-4.36-.19h-.83a36.6,36.6,0,0,1-.37,5.38,9.79,9.79,0,0,1-4.51,7.13,12.5,12.5,0,0,1-3.74,1.82Z"/><path class="cls-1" d="M373.38,146.32a19.49,19.49,0,0,0,3.92-6.24,19,19,0,0,0,1.33-5.56,1.49,1.49,0,0,0-.42-1.2,19.49,19.49,0,0,0-5.46,1.54,2.28,2.28,0,0,1-1.12.34c-.68,0-1.41-.55-2.29-1.7a2.93,2.93,0,0,1-.76-1.67,1.49,1.49,0,0,1,.13-.54,2.81,2.81,0,0,0,2.53,1.43,31.06,31.06,0,0,0,4.91-.63c2.06-.31,4.49-.62,7.93-1a6.46,6.46,0,0,0,2.27-.55,1.82,1.82,0,0,1,.76-.2,4,4,0,0,1,1.67.54c1,.5,1.49,1.05,1.49,1.57s-.42.89-1.1.89a2.12,2.12,0,0,1-.47,0,32.27,32.27,0,0,0-4.85-.4,35.37,35.37,0,0,0-3.84.19c1.54.91,1.78,1.17,1.78,1.85,0,1.17-1.1,4-2.3,5.92a16.46,16.46,0,0,1-5.9,5.69ZM373,125.1a4.18,4.18,0,0,0,3.13,1.41,15.66,15.66,0,0,0,3.65-.57,8.1,8.1,0,0,0,2.32-1,1.54,1.54,0,0,1,.81-.24,2.59,2.59,0,0,1,1.41.53c.66.44,1,.86,1,1.28s-.34.75-1.52,1a34.74,34.74,0,0,1-6.47.79c-2,0-3.36-.89-4.54-3.06Z"/><path class="cls-1" d="M402.17,146.11a29,29,0,0,0,6.19-6.29,28.15,28.15,0,0,0,4.15-7.91,45.89,45.89,0,0,0-6.95,1.31,12.87,12.87,0,0,0-3,1,2.12,2.12,0,0,1-1,.27c-1.09,0-2.94-2.27-2.94-3.68a1.22,1.22,0,0,1,.15-.6,2.94,2.94,0,0,0,2.74,1.69c1,0,5.61-.65,9-1.25,1.57-.26,1.62-.29,2.22-.71a1.24,1.24,0,0,1,.73-.2,3.42,3.42,0,0,1,1.7,1c.81.7,1.2,1.25,1.2,1.67s-.11.49-.5.81a4.84,4.84,0,0,0-1.2,1.69c-3.05,5.77-6.94,9.37-12.34,11.46Zm-.7-21.11a3.68,3.68,0,0,0,2.87,1.33,13.94,13.94,0,0,0,6-1.52,1.1,1.1,0,0,1,.68-.21,4.42,4.42,0,0,1,2.06.84c.47.34.65.63.65,1,0,.6-.42.81-2,1.07a57.48,57.48,0,0,1-6.18.68c-2,0-3.11-.76-4.36-3Z"/><path class="cls-1" d="M424.38,139.27a48.1,48.1,0,0,0,9.74-7.75c2.79-2.82,4.38-4.91,4.38-5.77,0-.55-.6-1.22-1.56-1.72a3,3,0,0,1,.83-.1,5.23,5.23,0,0,1,2.64.88c1.2.71,1.9,1.49,1.9,2.09s-.13.63-1,1.28c-.1.08-.1.08-1.7,1.59-1.82,1.7-1.82,1.7-3.68,3.29a6.21,6.21,0,0,1,1.8,1.54c.24.37.27.63.29,2.56,0,1.2,0,1.54.18,6.5,0,.36,0,.73,0,1,0,1.07-.34,1.59-1.07,1.59-1,0-2.4-1.59-2.4-2.69a2.29,2.29,0,0,1,.16-.83,31,31,0,0,0,.57-6.74c0-1.33-.08-1.69-.44-2.19a43.31,43.31,0,0,1-5.59,3.71,32.16,32.16,0,0,1-4.91,2.06Z"/><path class="cls-1" d="M459.28,124a7.68,7.68,0,0,1,2.87.76c1.15.57,1.7,1.12,1.7,1.72a1.26,1.26,0,0,1-.24.71,3.35,3.35,0,0,0-.44,1.72c-.05.52-.11,2.22-.16,3.6a19.44,19.44,0,0,1,6.29,1.28,2.66,2.66,0,0,1,1.91,2.56c0,1.12-.47,1.85-1.15,1.85-.39,0-.55-.1-1.23-.86a14.87,14.87,0,0,0-5.82-4.07v4.09c0,2.2,0,2.2.08,5.3,0,.45,0,.81,0,1.26a4.87,4.87,0,0,1-.16,1.56,1,1,0,0,1-.91.65,1.84,1.84,0,0,1-1.41-.91,4,4,0,0,1-.94-2.11,2.64,2.64,0,0,1,.23-1.05c.45-1.28.6-4.3.6-11,0-3.75-.07-4.75-.47-5.45a3.12,3.12,0,0,0-1.8-1.36A1.79,1.79,0,0,1,459.28,124Z"/><path class="cls-1" d="M482.2,129.75a5.5,5.5,0,0,0,3.1.91,17.16,17.16,0,0,0,4.21-.81,17,17,0,0,0-1.26-4c-.44-.81-1-1.09-2.4-1.22a2.64,2.64,0,0,1,2-.63,10,10,0,0,1,2.43.37c1,.28,1.43.65,1.43,1.33a3.24,3.24,0,0,1-.13.81,5.32,5.32,0,0,0,0,.75,10.26,10.26,0,0,0,.21,1.86,11.53,11.53,0,0,0,3.29-1.68,1.36,1.36,0,0,1,1-.41,3.69,3.69,0,0,1,1.54.36c.47.24.7.53.7.86s-.36.76-1.33,1.13c-.73.26-3.76,1.25-4.88,1.59.23,1.38.31,1.67.78,3.76,3.92-1.07,4.44-1.23,5.25-1.78.49-.34.65-.39,1-.39a5.35,5.35,0,0,1,2.33.71,1,1,0,0,1,.65,1,.8.8,0,0,1-.55.71,4.78,4.78,0,0,1-1.54.18,40.83,40.83,0,0,0-6.76,1.09c1.05,4.13,1.31,5.2,1.72,6.69a7,7,0,0,1,.4,2c0,.81-.4,1.33-1,1.33a2.49,2.49,0,0,1-1.49-.86,3.07,3.07,0,0,1-1.07-1.88,5.15,5.15,0,0,1,.05-.65,1.88,1.88,0,0,0,0-.52,28.87,28.87,0,0,0-.76-5.51,27,27,0,0,0-5.24,2.11c-.76.47-.92.55-1.26.55-1.25,0-3.21-2-3.21-3.26a1.57,1.57,0,0,1,.06-.44,3.14,3.14,0,0,0,2.37,1.25,13,13,0,0,0,3.21-.68l2.64-.76c.41-.1.81-.2,1.14-.31-.33-1.62-.57-2.77-.83-3.78a15.58,15.58,0,0,1-3.84.65A5.23,5.23,0,0,1,482,130Z"/><path class="cls-1" d="M521.69,138.15a24.17,24.17,0,0,0,2.9-3.92,4.14,4.14,0,0,0,.36-.83c0-.08-.05-.13-.21-.13A45.41,45.41,0,0,0,519,135c.67,2.92,1,4.07,2.4,9.1a4.49,4.49,0,0,1,.21,1.13c0,.6-.32,1-.84,1a3.11,3.11,0,0,1-2.24-2.37v-.16a2.85,2.85,0,0,0,0-.37,49.75,49.75,0,0,0-1.3-7.67,13.16,13.16,0,0,0-3,1.46,1.38,1.38,0,0,1-.81.32c-.94,0-2.61-1.91-2.61-3a2.17,2.17,0,0,1,.07-.44,2.25,2.25,0,0,0,1.94,1.12,18.48,18.48,0,0,0,4-.94c-.94-3.71-1.31-4.25-3.11-4.49a2,2,0,0,1,1.57-.52,8.2,8.2,0,0,1,2.66.47,1,1,0,0,1,.71.89c0,.1,0,.1-.11.41a3.06,3.06,0,0,0-.1.73,11.41,11.41,0,0,0,.26,2c.44-.16.44-.16,2.71-.78s2.61-.79,3.24-1.21a1.35,1.35,0,0,1,.76-.28,3.92,3.92,0,0,1,2,1.15c.67.54,1,1,1,1.38s-.13.55-1,.81a3.37,3.37,0,0,0-1,.6c-1.38,1-3.5,2.4-4.65,3.08Z"/><path class="cls-1" d="M538.94,126.8c2.92.47,4.49.91,5.72,1.69a2.46,2.46,0,0,1,1.28,2.25c0,1.22-.6,2.16-1.41,2.16-.45,0-.71-.21-1.1-.88a12.27,12.27,0,0,0-4.62-4.94Zm19.84,1.51a28,28,0,0,1-5.88,8.09,41.83,41.83,0,0,1-7.56,5.95,5.76,5.76,0,0,0-1.41,1.15,1.45,1.45,0,0,1-1.1.65c-.68,0-1.64-.73-2.56-1.9a5,5,0,0,1-1.25-2.9,2.09,2.09,0,0,1,.13-.7c.71,1.2,1.57,1.93,2.27,1.93,1.1,0,4.52-1.8,7.62-4a51.15,51.15,0,0,0,9.42-8.41Z"/><path class="cls-1" d="M563.37,142.56a27.89,27.89,0,0,0,5.48-6.29c1.39-2.14,2.14-3.78,2.14-4.59,0-.6-.49-1.15-1.59-1.67a1.72,1.72,0,0,1,.78-.21,5.48,5.48,0,0,1,2.93,1.15c1.09.73,1.62,1.33,1.62,1.85,0,.29-.13.52-.5.83a4.14,4.14,0,0,0-.94,1c-2.77,3.78-6.39,6.81-9.79,8.14Zm14.36-12.66a21.74,21.74,0,0,1,6.78,4.75c1.65,1.78,2.2,2.82,2.2,4.23,0,1.62-.74,2.85-1.67,2.85-.61,0-.79-.24-1.18-1.44a22.36,22.36,0,0,0-6.37-10.15Zm8.66-2.48a2.8,2.8,0,0,1-2.79,2.82,2.82,2.82,0,1,1,0-5.64A2.81,2.81,0,0,1,586.39,127.42Zm-4.7,0a1.9,1.9,0,1,0,1.88-1.9A1.87,1.87,0,0,0,581.69,127.42Z"/><path class="cls-1" d="M592.35,144.65A36,36,0,0,0,600.1,138a41.57,41.57,0,0,0,6.47-9.81,26.87,26.87,0,0,0-7,2,1.92,1.92,0,0,1-1,.31c-.6,0-1.2-.47-1.88-1.46a4.52,4.52,0,0,1-.86-2.25,1.13,1.13,0,0,1,.18-.65c.79,1.3,1.49,1.78,2.75,1.78a43.75,43.75,0,0,0,5.66-.84,5.38,5.38,0,0,0,2.53-.84,1.15,1.15,0,0,1,.71-.23,4,4,0,0,1,1.9,1.17c.57.55.84.94.84,1.31a.74.74,0,0,1-.42.65,5.38,5.38,0,0,0-1.52,1.91,45.64,45.64,0,0,1-3.28,4.62c3.41,1.48,5.58,2.74,6.76,3.88a3.45,3.45,0,0,1,1.09,2.61c0,1.34-.6,2.33-1.41,2.33-.44,0-.76-.32-1.07-1.05a18.53,18.53,0,0,0-5.84-7.17,28.14,28.14,0,0,1-6.24,5.71,23.3,23.3,0,0,1-6,2.92Z"/><path class="cls-1" d="M190.15,171.34v2H170.63v-2Zm0,5.22v2h-8.8v11.8H179.4V178.6h-8.77v-2Z"/><path class="cls-1" d="M199.63,189.64a3.73,3.73,0,0,0,2-.31c.6-.32.79-1,.79-2.67v-12a8,8,0,0,0-.08-1.57c-.11-.57-.45-.7-1.78-.7h-.7v-.73a61.19,61.19,0,0,0,6.11-.79q-.24,2.79-.24,6.58v9.21c0,1.6.16,2.25.63,2.61s.68.34,2,.37v.73h-8.69Z"/><path class="cls-1" d="M221.84,180.37c4,.32,6,2,6,5,0,3.34-2.58,5.38-6.81,5.38-3.71,0-6.4-1.7-6.4-4,0-1,.73-1.56,2-1.56a1.59,1.59,0,0,1,1.33.49c.16.21.16.26.21,1.46a4.07,4.07,0,0,0,.71,2.09,2.7,2.7,0,0,0,2.14.89c2.16,0,3.39-1.75,3.39-4.78,0-1.8-.5-3.1-1.44-3.78a6.16,6.16,0,0,0-3.39-.84h-.78v-.81h.73c2.95,0,4.49-1.56,4.49-4.51,0-2.53-1-3.89-2.82-3.89a2.15,2.15,0,0,0-2.06,1.1,4.8,4.8,0,0,0-.53,2.11c0,.86-.07,1-.31,1.31a1.92,1.92,0,0,1-1.36.39c-1.2,0-1.82-.45-1.82-1.28,0-2.43,2.69-4.31,6.16-4.31a7.3,7.3,0,0,1,4.64,1.44,4.23,4.23,0,0,1,1.44,3.21c0,2.56-2,4.25-5.48,4.7Z"/><path class="cls-1" d="M234.55,189.64a3.78,3.78,0,0,0,2-.31c.6-.32.78-1,.78-2.67v-12a8,8,0,0,0-.08-1.57c-.1-.57-.44-.7-1.77-.7h-.71v-.73a60.8,60.8,0,0,0,6.11-.79q-.24,2.79-.24,6.58v9.21c0,1.6.16,2.25.63,2.61s.68.34,2,.37v.73h-8.69Z"/><path class="cls-1" d="M250.18,181.65h6.14v2.2h-6.14Z"/><path class="cls-1" d="M265.19,173.41a6.26,6.26,0,0,1,10.1,0,13.16,13.16,0,0,1,1.91,7.41,13,13,0,0,1-1.91,7.38,6.22,6.22,0,0,1-10.1,0,13.5,13.5,0,0,1-1.9-7.38A13.28,13.28,0,0,1,265.19,173.41Zm2.4,14.45c.58,1.52,1.46,2.27,2.67,2.27s2.24-.88,2.81-2.71a22.43,22.43,0,0,0,.68-6.6,20.68,20.68,0,0,0-.83-7c-.58-1.54-1.44-2.27-2.66-2.27-2.43,0-3.5,2.85-3.5,9.32A20.89,20.89,0,0,0,267.59,187.86Z"/><path class="cls-1" d="M283.7,173.41a6.26,6.26,0,0,1,10.1,0,13.24,13.24,0,0,1,1.9,7.41,13.06,13.06,0,0,1-1.9,7.38,6.22,6.22,0,0,1-10.1,0,15.27,15.27,0,0,1,0-14.79Zm2.4,14.45c.57,1.52,1.46,2.27,2.66,2.27s2.25-.88,2.82-2.71a22.43,22.43,0,0,0,.68-6.6c0-3.39-.26-5.56-.84-7s-1.43-2.27-2.66-2.27c-2.43,0-3.5,2.85-3.5,9.32A20.57,20.57,0,0,0,286.1,187.86Z"/><path class="cls-1" d="M311.7,187.08c0,2.17.34,2.53,2.35,2.56v.73H306.2v-.7c1.22-.06,1.51-.11,1.82-.37s.55-1,.55-2.22v-1.85h-8.43V184l9.14-13h2.42v13.05h2.8v1.18h-2.8Zm-3.13-13.36-7.25,10.33h7.25Z"/><path class="cls-1" d="M329.69,187.08c0,2.17.34,2.53,2.35,2.56v.73h-7.86v-.7c1.23-.06,1.51-.11,1.83-.37s.55-1,.55-2.22v-1.85h-8.43V184l9.13-13h2.43v13.05h2.79v1.18h-2.79Zm-3.13-13.36-7.26,10.33h7.26Z"/><path class="cls-1" d="M361,183.74a9.47,9.47,0,0,0,3.66,3,17.77,17.77,0,0,0,7.3,2.07v.28a3.2,3.2,0,0,0-1.72,1.86,5.64,5.64,0,0,0-.29.88c-.05.21-.13.29-.28.29a8.49,8.49,0,0,1-2.27-1,16.49,16.49,0,0,1-6.82-7.18l.06,3.19c.1,4,.1,4,.13,5.06,0,.31-.05.47-.21.57a3.74,3.74,0,0,1-1.86.26c-.8,0-.93-.07-1-.57,0-1.23.16-3.71.16-4.67l0-1.8a22.45,22.45,0,0,1-5.27,4,27,27,0,0,1-5.3,2.21l-.15-.33a25.73,25.73,0,0,0,9.21-8.2h-2.9v.39c0,.29-.08.42-.21.52a3.54,3.54,0,0,1-1.77.29c-.68,0-.84-.1-.86-.63.13-2.55.15-3.57.15-5.95a36.47,36.47,0,0,0-.13-4.22c1.33.6,1.73.78,3.11,1.43h4.1v-2.82h-8a10.8,10.8,0,0,0-2,.16l-.21-1a9.44,9.44,0,0,0,2.2.26h8a15.46,15.46,0,0,0-.21-3.31c3.57.34,4,.42,4,.78s-.23.42-1,.68v1.85h5.69c.88-1,1.14-1.27,2-2.21,1.28,1,1.67,1.3,3,2.37.1.11.13.16.13.24s-.1.15-.26.15H360.62v2.82h4.51c.6-.65.78-.86,1.41-1.46.94.63,1.23.84,2.09,1.49.29.21.39.34.39.49s-.23.42-1,.79c0,4.17,0,4.38.08,7.07v.1a.52.52,0,0,1-.18.47,3.61,3.61,0,0,1-1.91.34c-.54,0-.67-.1-.73-.49v-.63Zm-3.1-7.62h-4.39v3.18h4.39Zm0,3.73h-4.39v3.34h4.39Zm7.43-3.73h-4.69v3.18h4.69Zm0,3.73h-4.69v3.34h4.69Z"/><path class="cls-1" d="M375.31,191.73a23.41,23.41,0,0,0,4.07-4.7,17.5,17.5,0,0,0,1.78-3.21c3.26,1.17,3.65,1.33,3.65,1.62s-.23.28-1.25.39a21.37,21.37,0,0,1-3.47,3.39A21.72,21.72,0,0,1,375.5,192Zm19.26-18.79c.86-1,1.13-1.28,2-2.2,1.35,1,1.77,1.28,3.16,2.35a.38.38,0,0,1,.1.19c0,.13-.13.2-.29.2H377.58a8.34,8.34,0,0,0-1.59.16l-.18-.91a6.71,6.71,0,0,0,1.75.21h8.38v-1.88a11.66,11.66,0,0,0-.16-2.09l2,.16c1.64.13,2.29.28,2.29.6s-.28.44-1.12.7v2.51Zm-5.5,13.36,0,4.17a1.67,1.67,0,0,1-.78,1.57,5.14,5.14,0,0,1-1.93.68,5,5,0,0,1-1,.13c-.26,0-.37-.08-.39-.37-.21-1.56-.55-1.82-3.55-2.61v-.28c.44,0,.8,0,1,0,2.4.16,2.4.16,3.42.18.26,0,.36-.08.36-.31v-7.36h-3.86v.63c0,.26-.13.36-.39.44a7.14,7.14,0,0,1-1.72.18c-.68,0-.84-.1-.86-.49.05-1.34.07-2.07.07-3.76,0-2.4,0-3.24-.1-4.57a28.74,28.74,0,0,1,3.29,1.62h9.73c.6-.68.79-.89,1.44-1.57a26.51,26.51,0,0,1,2.32,1.62c.16.1.24.21.24.31a.7.7,0,0,1-.13.26,9.67,9.67,0,0,1-.84.53v1.35c0,1.33,0,2,.08,4.15,0,.37-.11.5-.44.58a15.06,15.06,0,0,1-1.83.13c-.5,0-.65-.11-.68-.42v-1h-3.52Zm-6.66-4.7h10.18v-4.85H382.41Zm8.41,2.71a26.23,26.23,0,0,1,5.66,2.48,3,3,0,0,1,1.46,2.38c0,1.25-.76,2.56-1.49,2.56-.31,0-.54-.26-.91-1a18.05,18.05,0,0,0-4.88-6.16Z"/><path class="cls-1" d="M410.76,173c.49-.65.65-.84,1.17-1.52.73.68.84.79,1.54,1.47a16.87,16.87,0,0,0,1.2-2.82c2.72,1.25,3.08,1.46,3.08,1.72s-.23.34-1,.39a36.1,36.1,0,0,1-3.81,5.43h1.15c.6-.73.78-.94,1.41-1.64.86.75,1.12,1,1.93,1.8.1.1.13.15.13.23s-.13.16-.31.16h-4.78a25.33,25.33,0,0,1-3.55,3.42h3.84c.57-.68.75-.86,1.35-1.49a23.88,23.88,0,0,1,2,1.49c.26.21.34.31.34.44s-.18.34-.81.65c0,5.43,0,6.58.08,9.24,0,.37-.08.5-.37.6a8,8,0,0,1-1.69.16c-.55,0-.68-.11-.71-.55V191.1h-4.57v1.15c0,.26-.05.39-.18.47a3.63,3.63,0,0,1-1.77.26c-.68,0-.86-.13-.86-.65.07-2.3.1-3.13.1-5.14v-3.34a24.54,24.54,0,0,1-2.74,1.4l-.16-.28a30.16,30.16,0,0,0,2.87-2.3c0-1.15,0-1.49-.07-2.48.94.42,1.51.68,1.82.84a32.55,32.55,0,0,0,2.56-2.82h-5a11,11,0,0,0-1.78.15l-.15-.88a10.43,10.43,0,0,0,1.93.18h2.77v-4.12h-2.09a10,10,0,0,0-1.54.1l-.16-.86a7.39,7.39,0,0,0,1.75.21h2v-1.57a20.6,20.6,0,0,0-.13-2.48,25.7,25.7,0,0,1,3.52.39c.21.08.34.21.34.34s-.26.39-1.07.66V173Zm2.24,9.18h-4.57v3.58H413Zm-4.57,4.13v4.25H413V186.3Zm2-12.76v4.12h0a33.21,33.21,0,0,0,2.69-4.12ZM420.57,188c0,.24,0,1,0,2.09,0,.47,0,1.23,0,2.22,0,.65-.34.78-2,.78-.68,0-.86-.13-.86-.62.05-2.9.1-9.29.1-13.31,0-5.07,0-8.51-.1-10.08,1.36.66,1.75.86,3,1.57h3.05a19.6,19.6,0,0,1,1.39-1.49c1.09.78,1.43,1,2.42,1.83.24.23.34.36.34.52s-.31.39-1.07.6a56.15,56.15,0,0,1-4.59,6.6,11.2,11.2,0,0,1,3.47,2.74,6.94,6.94,0,0,1,1.62,4.39,4.12,4.12,0,0,1-2.19,4,5.39,5.39,0,0,1-1.67.33c-.32,0-.4-.07-.45-.54-.13-1.31-.7-1.8-2.53-2.17Zm0-1c1.15.11,2.14.16,2.77.16s.75,0,.88-.21a3.47,3.47,0,0,0,.4-1.88,8.94,8.94,0,0,0-.89-3.83,7,7,0,0,0-2-2.41,52.78,52.78,0,0,0,2.14-7.64h-3.32Z"/><path class="cls-1" d="M449.54,187.89l1.83-1.93c1.23.91,1.62,1.23,2.79,2.14.11.1.13.16.13.21s-.1.13-.28.13h-8.64v3.13h6.21c.91-1,1.23-1.28,2.11-2.22,1.31,1,1.7,1.36,2.93,2.4.1.11.13.16.13.21s-.11.16-.27.16H434.33a9.27,9.27,0,0,0-2.09.21l-.18-1.05a8.94,8.94,0,0,0,2.27.29h8.27v-3.13h-5.77a8,8,0,0,0-1.8.16l-.15-.94a8.59,8.59,0,0,0,1.95.23h5.77v-1a19.24,19.24,0,0,0-.08-2.22c.84.08,1.46.16,1.88.18a9.39,9.39,0,0,1,1.8.26,8.33,8.33,0,0,0-.88-2.89l.2-.13c1.94.88,3.08,2,3.08,2.84a2,2,0,0,1-1.67,1.75.6.6,0,0,1-.62-.5,2.65,2.65,0,0,1-.06-.52,3.19,3.19,0,0,1-.88.32v1.9Zm-4.2-9.29h4.8c.73-.76,1-1,1.7-1.67,1.17.76,1.54,1,2.71,1.85.13.11.19.16.19.21s-.11.16-.26.16h-9.14v2.14h6.26c.84-.81,1.1-1.07,1.91-1.83a29.81,29.81,0,0,1,2.74,2c.1.08.18.16.18.24s-.13.16-.28.16H434.43a7.64,7.64,0,0,0-1.69.2l-.19-1a7.82,7.82,0,0,0,1.88.24h8.17v-2.14h-6.31a7.07,7.07,0,0,0-1.65.18l-.16-1a7.52,7.52,0,0,0,1.81.24h6.31v-2.17H438v.32c0,.47-.31.57-1.8.57-.89,0-1,0-1-.47.1-2.5.1-2.87.1-3.89,0-1.62-.05-3-.13-4.23,1.36.55,1.75.73,3.08,1.39h11.62c.65-.6.83-.81,1.46-1.39.91.58,1.17.76,2.09,1.39.23.15.31.26.31.39s-.24.39-1,.73v1c0,1.05,0,2.33.08,4v.05c0,.26,0,.37-.16.44A4,4,0,0,1,451,177c-.76,0-.89-.06-.91-.37v-.16h-4.7Zm-8.59,3.73a7,7,0,0,1-.88,3.63,2.54,2.54,0,0,1-1.91,1.23c-.81,0-1.28-.58-1.28-1.52s.29-1.15,1.13-1.36a3.4,3.4,0,0,0,2.66-2Zm5.85-11.66H438v2.24h4.57Zm0,2.79H438v2.43h4.57Zm-2.77,8.66c1.57,1.07,2.38,2,2.38,2.93a2,2,0,0,1-1.78,1.69c-.47,0-.7-.31-.7-.91,0,0,0,0,.08-1.2a5.72,5.72,0,0,0,0-.6,10.9,10.9,0,0,0-.18-1.8ZM450,172.91v-2.24h-4.7v2.24Zm-4.7,3H450v-2.43h-4.7Zm5,6.36c3.6,1.05,4.8,1.78,4.8,2.95,0,.89-.73,1.83-1.43,1.83-.45,0-.68-.26-1.1-1.15a8.9,8.9,0,0,0-2.46-3.42Z"/><path class="cls-1" d="M464.55,191.65c0,.6-.42.76-1.93.76-.94,0-1.15-.11-1.15-.6.11-3.19.16-7.94.16-12.69,0-3.42-.05-6.71-.13-9.42,1.46.68,1.9.91,3.39,1.7h14.38c.71-.76.92-1,1.67-1.73,1,.73,1.33.94,2.27,1.67.21.19.29.29.29.47s-.08.37-1,.89v6.11c0,4.25.05,9.11.16,12.71,0,.36-.11.52-.4.65a7,7,0,0,1-1.72.18c-.78,0-1-.13-1-.65v-1.51h-15ZM470.48,180v-8.09h-5.93V180Zm0,.58h-5.93v9h5.93Zm9.11-8.67h-6.22V180h6.22Zm-6.22,8.67v9h6.22v-9Z"/><path class="cls-1" d="M492.82,192c0,.5-.16.63-.63.73a9.63,9.63,0,0,1-1.38.08c-.91,0-1.07-.1-1.07-.65.16-4.28.18-6.58.18-13.08,0-6.34,0-7.75-.18-9.84a26.47,26.47,0,0,1,3.45,1.73H506.6c.84-.92,1.1-1.2,2-2.12,1.3.94,1.69,1.25,3,2.3.07.1.13.16.13.21s-.11.15-.26.15H492.82v18.82H507c.91-.91,1.17-1.23,2.06-2.22,1.3,1,1.72,1.31,3.05,2.38.08.1.11.15.11.21s-.14.18-.29.18H492.82Zm2.27-17.17a50.09,50.09,0,0,1,6.76,4,23.41,23.41,0,0,0,2.53-6.4c1.93.65,3.5,1.23,3.73,1.33s.27.21.27.37c0,.34-.34.47-1.28.47a41.57,41.57,0,0,1-3.11,5.69c2.95,2.22,2.95,2.22,3.45,2.84a3.24,3.24,0,0,1,.7,2.14c0,1.12-.55,2.14-1.17,2.14a.87.87,0,0,1-.6-.36c-.13-.16-.13-.16-1.07-1.6a28.58,28.58,0,0,0-2.64-3.34,24.86,24.86,0,0,1-3.84,3.76,24.29,24.29,0,0,1-4.93,3l-.18-.23a29,29,0,0,0,3.94-3.82,30.78,30.78,0,0,0,3.31-4.51,42.75,42.75,0,0,0-6-5.17Z"/><path class="cls-1" d="M536,174.55a29.2,29.2,0,0,1-1.41,4.41,19.17,19.17,0,0,1-3.84,6.14,21.37,21.37,0,0,0,4.42,2.48,20.34,20.34,0,0,0,6.18,1.59l0,.26a3.61,3.61,0,0,0-2.21,2.09,3.88,3.88,0,0,0-.34,1,.31.31,0,0,1-.29.29,16,16,0,0,1-3.37-1.38,22,22,0,0,1-6-4.6,21.23,21.23,0,0,1-5.71,4,32.93,32.93,0,0,1-6.58,2.24l-.08-.29a28.34,28.34,0,0,0,7.49-4.51,26.7,26.7,0,0,0,3.27-3.29,22,22,0,0,1-4.62-10.39h-3.92a15.24,15.24,0,0,0-2,.16l-.18-1a11.83,11.83,0,0,0,2.12.27H527v-2.93c0-.55,0-1-.1-2.06.83.08,1.49.13,1.9.16,1.73.13,2.43.31,2.43.62s-.31.42-1.2.73V174h5.35c.94-1.1,1.23-1.41,2.17-2.46,1.38,1.07,1.82,1.41,3.21,2.61.13.08.18.16.18.24a.17.17,0,0,1-.18.15Zm-12.66,0a15.41,15.41,0,0,0,2,4.68,22.35,22.35,0,0,0,3.39,4.17,21.74,21.74,0,0,0,4-8.85Z"/><path class="cls-1" d="M549.07,182.33a21.69,21.69,0,0,1-4.44,3.37l-.15-.21a34.49,34.49,0,0,0,4-5.51,13.85,13.85,0,0,0,1.93-4.56c3.53,1.07,4,1.25,4,1.56s-.37.39-1.23.42a21.7,21.7,0,0,1-2.43,3.18c1.86.37,2.14.45,2.14.71s-.26.36-1,.52v10.33c0,.27,0,.37-.13.47a2.66,2.66,0,0,1-1.44.27c-1.25,0-1.41-.06-1.41-.53.08-2.37.16-5.09.16-6.34Zm9.79-10.18c0-1,0-1.17,0-1.56a14,14,0,0,0-.08-1.59c3.53.26,3.87.33,3.87.67s-.29.42-1,.6v1.88H564c.88-1,1.17-1.25,2-2.14,1.22,1,1.62,1.28,2.82,2.27a.72.72,0,0,1,.13.24c0,.1-.16.18-.32.18h-7c0,1.07,0,1.83,0,2.27s-.26.6-1.87.6c-.87,0-.94,0-.94-.49V172.7h-4.68c0,1.36,0,1.36,0,2.25,0,.49-.31.57-1.88.57-.83,0-1-.08-1-.47,0-1.1,0-1.17,0-2.35H547a10.49,10.49,0,0,0-1.87.16l-.13-.94a9.45,9.45,0,0,0,2,.23h4.44l0-.52v-.81a15.24,15.24,0,0,0-.11-1.85c.81.08,1.44.13,1.86.16,1.56.13,2.06.23,2.06.52s-.32.41-1.05.6v1.9Zm.6,11.46a23.89,23.89,0,0,0,5.09-6.6,38,38,0,0,1,3.34,2.11c.15.11.23.21.23.31s-.21.32-.49.32a4.37,4.37,0,0,1-.76-.08,35.62,35.62,0,0,1-7.41,4.7v4.83c0,.62,0,.62,2.61.62s2.92,0,3.26-.57a32.53,32.53,0,0,0,2.09-5.25l.28.05-.28,4.15v.53c0,.36,0,.39.6.67a1.09,1.09,0,0,1,.65,1.1,1.48,1.48,0,0,1-1.15,1.46c-.68.24-2,.31-5.25.31-3.57,0-4.17,0-4.74-.28s-.89-.71-.94-1.65l0-4.8V179c0-1.17,0-2.29-.13-3.31l1.85.23c1.67.19,2.11.32,2.11.63s-.23.37-1,.57Z"/><path class="cls-1" d="M586.26,189.64a3.78,3.78,0,0,0,2-.31c.6-.32.78-1,.78-2.67v-12a7.69,7.69,0,0,0-.07-1.57c-.11-.57-.45-.7-1.78-.7h-.7v-.73a60.56,60.56,0,0,0,6.1-.79q-.22,2.79-.23,6.58v9.21c0,1.6.15,2.25.62,2.61s.68.34,2,.37v.73h-8.69Z"/><path class="cls-1" d="M601.9,181.65H608v2.2H601.9Z"/><path class="cls-1" d="M615.05,189.64a3.78,3.78,0,0,0,2-.31c.6-.32.78-1,.78-2.67v-12a6.34,6.34,0,0,0-.08-1.57c-.1-.57-.44-.7-1.77-.7h-.7v-.73a61,61,0,0,0,6.1-.79c-.16,1.86-.23,4-.23,6.58v9.21c0,1.6.15,2.25.62,2.61s.68.34,2,.37v.73h-8.69Z"/><path class="cls-1" d="M636.32,183.53c-3.47,0-5.84-2.45-5.84-6.05a6.32,6.32,0,0,1,6.73-6.66,5.93,5.93,0,0,1,5.2,2.56c1.14,1.7,1.64,3.78,1.64,6.76,0,6.94-2.56,10.65-7.36,10.65-3.18,0-5.56-1.41-5.56-3.32,0-1,.7-1.62,1.88-1.62a1.86,1.86,0,0,1,1.44.5c.15.24.15.29.23,1.41.1,1.54.84,2.37,2.09,2.37,1.56,0,2.69-1.2,3.23-3.44a22.48,22.48,0,0,0,.55-5A5.54,5.54,0,0,1,636.32,183.53Zm3.76-2.69a5.1,5.1,0,0,0,.52-2.63,13.13,13.13,0,0,0-.83-4.75,3,3,0,0,0-2.64-2c-2,0-3.18,2.22-3.18,5.93a6.83,6.83,0,0,0,1,4.07,2.71,2.71,0,0,0,2.22,1.2A3.45,3.45,0,0,0,640.08,180.84Z"/><path class="cls-1" d="M650.76,181.65h6.13v2.2h-6.13Z"/><path class="cls-1" d="M663.91,189.64a3.78,3.78,0,0,0,2-.31c.6-.32.78-1,.78-2.67v-12a7.69,7.69,0,0,0-.07-1.57c-.11-.57-.45-.7-1.78-.7h-.7v-.73a60.56,60.56,0,0,0,6.1-.79q-.23,2.79-.23,6.58v9.21c0,1.6.15,2.25.62,2.61s.68.34,2,.37v.73h-8.69Z"/><path class="cls-1" d="M185.45,260.61c.05,5.14.05,5.14.13,8.43a.62.62,0,0,1-.23.58,5.25,5.25,0,0,1-1.78.23c-.75,0-.91-.1-.94-.62.11-2.85.11-3.53.16-8.62h-2.92v1.23c0,.29-.08.39-.24.5a3.82,3.82,0,0,1-1.64.23c-.73,0-.94-.1-.94-.57,0-1.83,0-1.83.1-5.17a27.28,27.28,0,0,1-2.92,1.77v7c0,.94,0,.94,0,1.78a1.92,1.92,0,0,1-1.41,2.19,7.37,7.37,0,0,1-1.83.34c-.29,0-.37-.11-.39-.47-.06-1.28-.63-1.8-2.72-2.45l0-.34c1.88.15,2,.15,3.18.18h.08c.24,0,.31-.11.31-.37v-6.36c-.54.28-.54.28-1.64.8-.13.79-.26,1-.5,1s-.39-.39-1.2-3.52a19,19,0,0,0,3.34-.57v-5.64h-1.33a7.85,7.85,0,0,0-1.72.15l-.16-.94a6.65,6.65,0,0,0,1.88.24h1.33v-2.74a26,26,0,0,0-.13-3.11c3.5.34,4,.42,4,.81s-.26.42-1.12.73v4.31h.16l1.17-1.8c.7.89.89,1.15,1.54,2l.05.13c0-4.39,0-4.39-.1-5.87a29.49,29.49,0,0,1,3.08,1.54h8.19c.63-.71.81-.92,1.46-1.6.94.68,1.23.89,2.12,1.62.23.21.34.34.34.47s-.19.39-.94.86c0,8.15,0,8.15.1,12.66a.8.8,0,0,1-.1.5,3,3,0,0,1-1.8.34c-.81,0-.94-.06-.94-.5v-1.36Zm-8.3-4.93v-3.63c-.08.08-.1.11-.23.11h-2.69v5.11c1.12-.26,1.59-.39,2.92-.81Zm5.64-7.52h-2.92v5.59h2.92Zm0,11.54v-5.4h-2.92v5.77h2.92Zm5.77-11.54h-3.11v5.59h3.11Zm0,6.14h-3.11v5.77h3.11Z"/><path class="cls-1" d="M213.28,255.37l2.11-2.53c1.43,1.14,1.88,1.48,3.21,2.63.1.13.16.21.16.26s-.13.19-.32.19h-9.81v11.92h6c1-1.2,1.25-1.54,2.22-2.66,1.48,1.18,1.93,1.54,3.34,2.82a.5.5,0,0,1,.13.23c0,.11-.11.16-.26.16h-21.8a9.38,9.38,0,0,0-2.06.18l-.21-1a8,8,0,0,0,2.27.26h7.18V249.7a24.43,24.43,0,0,0-.21-3.75l2.09.23c1.93.21,2.51.37,2.51.71s-.34.44-1.23.7v7.78Z"/><path class="cls-1" d="M226.51,261.16a6.28,6.28,0,0,1,.47,2.53,5,5,0,0,1-.5,2.46,1.39,1.39,0,0,1-1.12.81c-.36,0-.6-.21-.81-.68a3,3,0,0,1-.21-1,1.17,1.17,0,0,1,.58-1.07,3.83,3.83,0,0,0,1.36-3ZM233.69,251c.52-.65.7-.83,1.25-1.46.78.71,1,.92,1.77,1.65.11.1.13.15.13.23s-.1.13-.28.13H233v3.19h.58l1.33-1.52c.81.73,1,.94,1.77,1.7a.32.32,0,0,1,.13.23c0,.08-.1.13-.26.13H233v3.55h.63c.55-.6.71-.78,1.23-1.33.7.6.91.78,1.54,1.38.21.21.28.34.28.47s-.2.37-.88.66c-.29,4.8-.73,7.28-1.52,8.32a2.92,2.92,0,0,1-2.09,1.15,8.57,8.57,0,0,1-1,.11c-.31,0-.37-.08-.42-.42a1.89,1.89,0,0,0-.6-1.36c-.34-.31-.39-.31-2.37-1.07l0-.29a32.81,32.81,0,0,0,3.81.32c.47,0,.6-.11.76-.47a26.7,26.7,0,0,0,.86-6.92h-4.62v.52c0,.47-.34.58-1.67.58-.84,0-1-.08-1-.47.11-2.51.13-5,.13-9.32,0-2.24,0-3.44-.15-4.93,1.25.62,1.61.81,2.84,1.49h4.26l1.48-1.65c1,.76,1.33,1,2.3,1.85a.38.38,0,0,1,.13.21c0,.08-.11.13-.26.13H233V251Zm-6,10a5.79,5.79,0,0,1,1.78,3.29,1.54,1.54,0,0,1-1.31,1.46c-.23,0-.36-.21-.36-.55a3.13,3.13,0,0,1,0-.39c0-.26,0-1.07,0-1.36a7.62,7.62,0,0,0-.34-2.34Zm2.92-13.26h-1.9V251h1.9Zm-1.9,3.76v3.19h1.9v-3.19Zm0,3.73v3.55h1.9v-3.55Zm.49,5.48c1.52.89,2.38,1.86,2.38,2.64,0,.6-.47,1.28-.89,1.28-.26,0-.31-.11-.44-.78a7.84,7.84,0,0,0-1.18-3Zm1.67-.49c1.57.6,2.2,1.09,2.2,1.75s-.39,1.09-.76,1.09c-.13,0-.21-.1-.29-.39a5.46,5.46,0,0,0-1.28-2.27Zm9.4-4.33a24.8,24.8,0,0,1-1.49,8.35,15.1,15.1,0,0,1-2.42,4,10.1,10.1,0,0,1-1.54,1.46l-.27-.18a14.23,14.23,0,0,0,2.09-5,39.88,39.88,0,0,0,.92-8.56c0-7.62,0-8.74-.13-10.26a24.08,24.08,0,0,1,3.07,1.6H245l1.41-1.49c1,.68,1.28.89,2.14,1.56.24.19.31.32.31.45s-.23.39-.94.75l0,3.71c0,1.46,0,1.88.1,4.28,0,.26,0,.37-.08.44-.18.24-.75.34-1.77.34-.84,0-.94,0-1-.49v-1h-2.4a13.11,13.11,0,0,0,1.41,5,11,11,0,0,0,3.37,3.74,8.78,8.78,0,0,0,2.24,1.14V266a2.64,2.64,0,0,0-1.25,1.15,6.74,6.74,0,0,0-.65,1.49c-.08.29-.16.39-.31.39s-.55-.26-1.13-.84c-2.61-2.55-4-6.62-4.25-12.31Zm4.85-.55V247.9h-4.75c0,4.47,0,4.6-.1,7.47Z"/><path class="cls-1" d="M264.72,257.74A2.78,2.78,0,1,1,262,255,2.75,2.75,0,0,1,264.72,257.74Z"/><path class="cls-1" d="M288.37,259.28a9.76,9.76,0,0,0,1.59,3.13,7.49,7.49,0,0,0,2.19-2.42c2.72,1,3.47,1.35,3.47,1.69s-.26.37-1.38.37a24.42,24.42,0,0,1-2.5,2.17,12.21,12.21,0,0,0,4.35,2.06,51.33,51.33,0,0,0,2.2-4.75l.26.05-.58,4c0,.18-.05.52-.05.65s.08.34.55.68A1.14,1.14,0,0,1,299,268c0,.89-.71,1.46-1.75,1.46a11.58,11.58,0,0,1-3.86-1,14.94,14.94,0,0,1-4.13-2.69,25.49,25.49,0,0,1-4.64,1.88,34.21,34.21,0,0,1-9.35,1.46l-.05-.31c5.66-1.28,9-2.56,12.48-4.75a14.79,14.79,0,0,1-2.07-4.73h-5.48v1.31c0,.62-.31.75-1.9.75-.92,0-1.07-.1-1.07-.6.1-2.34.13-4,.13-6.89,0-2.45,0-3.34-.13-5.24a22.27,22.27,0,0,1,3.21,1.59h4.41a32.45,32.45,0,0,0-.16-4.38c3.58.31,4.07.39,4.07.78s-.26.42-1.12.65c0,1.46,0,1.93,0,2.95h5c.66-.7.86-.94,1.52-1.59,1,.62,1.28.83,2.22,1.51.23.21.33.32.33.45s-.23.41-.93.78v2.43c0,2,0,2.29.13,5.61,0,.31-.08.44-.29.52a5,5,0,0,1-1.62.23c-.86,0-1-.07-1-.49v-.37Zm-3.39-5c-.08-1.27-.11-2.06-.13-3.57h-4.68v3.57Zm.54,4.41a36.61,36.61,0,0,1-.52-3.86h-4.83v3.86Zm7.44-8h-5.37c0,.76,0,2,.1,3.57H293Zm0,4.12h-5.24a21,21,0,0,0,.49,3.86H293Z"/><path class="cls-1" d="M323,257.4c.7-1,.91-1.3,1.67-2.24,1.12,1,1.48,1.28,2.6,2.32.11.11.16.18.16.26s-.1.21-.29.21H322.4l0,3c0,1.85,0,1.85.05,3.44,0,1.41,0,1.41,0,2.67a2.19,2.19,0,0,1-1.65,2.37,6.33,6.33,0,0,1-2,.39c-.26,0-.34-.08-.37-.42A3.23,3.23,0,0,0,318,268a2.55,2.55,0,0,0-1.74-1.07l.05-.36c1.25.13,1.67.15,2.79.18.37,0,.47-.1.44-.42l0-8.35h-3.63v3.29c0,2.45,0,3.47.08,5.12,0,.31,0,.41-.32.54a8,8,0,0,1-2.06.21c-.36,0-.55-.15-.55-.52.08-1.64.11-3,.11-5.35V258h-3.05c-.21,4-.6,5.72-1.75,7.57a14.4,14.4,0,0,1-4.7,4.46l-.18-.23a13.63,13.63,0,0,0,2.66-4.49,22.23,22.23,0,0,0,1.07-7.31h-1.88a19.33,19.33,0,0,0-2,.13l-.18-.91a16.33,16.33,0,0,0,2.4.23h1.7c0-1.3.05-3.26.05-4.88,0-2.45,0-2.89-.1-4.33a29.23,29.23,0,0,1,3.31,1.67h1.7a21.88,21.88,0,0,0,.88-4.2c4.18.76,4.36.81,4.36,1.2s-.36.42-1.25.52c-1.64,1.52-2.56,2.32-2.74,2.48h5.77c.65-.7.86-.91,1.51-1.62,1,.66,1.28.86,2.27,1.57.26.21.37.34.37.47s-.16.34-.94.81l0,6.31Zm-3.53-7h-9.26v1.49c0,1.72-.06,4.41-.11,5.5h9.4Zm-7.36.86a17.91,17.91,0,0,1,3.58,1.46c1,.58,1.33,1,1.33,1.78a2.06,2.06,0,0,1-1.67,2.08c-.39,0-.58-.2-.81-.91a10.07,10.07,0,0,0-2.58-4.2Z"/><path class="cls-1" d="M332.48,261.16a6.28,6.28,0,0,1,.47,2.53,5.1,5.1,0,0,1-.49,2.46,1.41,1.41,0,0,1-1.13.81c-.36,0-.6-.21-.81-.68a3,3,0,0,1-.21-1,1.17,1.17,0,0,1,.58-1.07,3.83,3.83,0,0,0,1.36-3ZM339.66,251c.52-.65.7-.83,1.25-1.46.78.71,1,.92,1.78,1.65.1.1.13.15.13.23s-.11.13-.29.13H339v3.19h.57l1.33-1.52c.81.73,1,.94,1.78,1.7a.36.36,0,0,1,.13.23c0,.08-.11.13-.26.13H339v3.55h.62c.55-.6.71-.78,1.23-1.33.7.6.91.78,1.54,1.38.21.21.29.34.29.47s-.21.37-.89.66c-.29,4.8-.73,7.28-1.52,8.32a2.92,2.92,0,0,1-2.08,1.15,9,9,0,0,1-1,.11c-.31,0-.36-.08-.42-.42a1.89,1.89,0,0,0-.6-1.36c-.34-.31-.39-.31-2.37-1.07l.05-.29a32.81,32.81,0,0,0,3.81.32c.47,0,.6-.11.76-.47a26.7,26.7,0,0,0,.86-6.92H334.7v.52c0,.47-.34.58-1.67.58-.84,0-1-.08-1-.47.11-2.51.13-5,.13-9.32,0-2.24,0-3.44-.15-4.93,1.25.62,1.62.81,2.84,1.49h4.26l1.48-1.65c1,.76,1.33,1,2.3,1.85a.38.38,0,0,1,.13.21c0,.08-.1.13-.26.13H339V251Zm-6,10a5.79,5.79,0,0,1,1.78,3.29,1.54,1.54,0,0,1-1.31,1.46c-.23,0-.36-.21-.36-.55a3.13,3.13,0,0,1,0-.39c0-.26,0-1.07,0-1.36a7.62,7.62,0,0,0-.34-2.34Zm2.92-13.26h-1.9V251h1.9Zm-1.9,3.76v3.19h1.9v-3.19Zm0,3.73v3.55h1.9v-3.55Zm.5,5.48c1.51.89,2.37,1.86,2.37,2.64,0,.6-.47,1.28-.89,1.28-.26,0-.31-.11-.44-.78a7.69,7.69,0,0,0-1.18-3Zm1.67-.49c1.56.6,2.19,1.09,2.19,1.75s-.39,1.09-.76,1.09c-.13,0-.21-.1-.29-.39a5.46,5.46,0,0,0-1.28-2.27Zm9.39-4.33a24.8,24.8,0,0,1-1.49,8.35,15.1,15.1,0,0,1-2.42,4,10.1,10.1,0,0,1-1.54,1.46l-.26-.18a14.41,14.41,0,0,0,2.08-5,39.88,39.88,0,0,0,.92-8.56c0-7.62,0-8.74-.13-10.26a24.9,24.9,0,0,1,3.08,1.6h4.43l1.41-1.49c1,.68,1.28.89,2.14,1.56.24.19.32.32.32.45s-.24.39-.94.75l0,3.71c0,1.46,0,1.88.1,4.28a.78.78,0,0,1-.07.44c-.19.24-.76.34-1.78.34-.83,0-.94,0-1-.49v-1h-2.41a13.11,13.11,0,0,0,1.41,5,11,11,0,0,0,3.37,3.74,8.87,8.87,0,0,0,2.25,1.14V266a2.62,2.62,0,0,0-1.26,1.15,6.74,6.74,0,0,0-.65,1.49c-.08.29-.16.39-.31.39s-.55-.26-1.13-.84c-2.61-2.55-4-6.62-4.25-12.31Zm4.86-.55V247.9h-4.75c0,4.47,0,4.6-.11,7.47Z"/><path class="cls-1" d="M368.84,246.6a10.67,10.67,0,0,1,3,.49c1.1.37,1.57.84,1.57,1.49,0,.34,0,.39-.42,1.31a9.59,9.59,0,0,0-.57,3.44.91.91,0,0,0,.63.24,7.36,7.36,0,0,0,3.81-1.73,1.12,1.12,0,0,1,.75-.28,3.57,3.57,0,0,1,1.78.62.94.94,0,0,1,.47.81c0,.5-.39.84-1.49,1.28a11,11,0,0,1-3.5.76,3.56,3.56,0,0,1-2.5-.94V255a61.42,61.42,0,0,0,.36,6.68,14.52,14.52,0,0,1,6.4,2.35,2.89,2.89,0,0,1,1.14,2.4c0,.83-.41,1.43-1,1.43-.37,0-.6-.13-1.18-.65a13.26,13.26,0,0,0-5.11-3.16c0,.47,0,.79,0,1a3.68,3.68,0,0,1-.83,2.71,6.16,6.16,0,0,1-4.18,1.23c-3.13,0-5.11-1.31-5.11-3.37,0-2.42,2.84-4.12,6.86-4.12h.57c-.07-5-.2-9.42-.36-11.62-.08-1.17-.29-1.67-.86-2.08a3.45,3.45,0,0,0-1.75-.6A2.07,2.07,0,0,1,368.84,246.6Zm-.5,16.78c-2.79,0-4.59.84-4.59,2.14,0,1,1.07,1.59,2.82,1.59a4.06,4.06,0,0,0,3.21-1.09,2.4,2.4,0,0,0,.39-1.49,8.93,8.93,0,0,0,0-.92v-.07A9.8,9.8,0,0,0,368.34,263.38Z"/><path class="cls-1" d="M394.37,269.7a13.41,13.41,0,0,0,5.74-5.46,16.23,16.23,0,0,0,1.7-7.54,12.35,12.35,0,0,0-.79-4.91,1.94,1.94,0,0,0-1.77-1.38c-1.18,0-2.27,1-3.11,3a15.53,15.53,0,0,0-1.2,5.59,9,9,0,0,0,.11,1.54c0,.34.05.68.05.78a1.21,1.21,0,0,1-1.2,1.31,1.81,1.81,0,0,1-1.62-1.26,10.5,10.5,0,0,1-.76-4.25,31.12,31.12,0,0,1,1.05-7.36,10,10,0,0,0,.28-2,2.23,2.23,0,0,0-1.46-1.93,1.9,1.9,0,0,1,.52-.1,5.18,5.18,0,0,1,2.77,1.12c.89.68,1.3,1.28,1.3,1.91a1.74,1.74,0,0,1-.44,1.09,13.25,13.25,0,0,0-2.17,6.92c0,.31,0,.57.08,1.12h0c1-3.42,1.93-5.43,3.26-6.86a4.11,4.11,0,0,1,3.24-1.49c2.84,0,4.88,3.26,4.88,7.83a12.88,12.88,0,0,1-3.32,8.82c-1.64,1.78-3.65,2.87-7,3.86Z"/><path class="cls-1" d="M416.55,258.6a19.57,19.57,0,0,1-2.95,2.14l-.2-.23a29.5,29.5,0,0,0,3.44-4.91,18,18,0,0,0,1.93-4.3c3.39.91,3.79,1,3.79,1.35s-.32.37-1.23.45a20.5,20.5,0,0,1-2.64,3.44c1.23.16,1.52.26,1.52.5s-.24.34-.92.57v5.2c0,3.44,0,3.44,0,6.1,0,.34,0,.5-.13.6-.21.29-.84.42-1.85.42-.71,0-.89-.13-.92-.6.08-2.37.13-4.93.13-6.39Zm-2.95-5.55a20,20,0,0,0,4.7-7.47l1.85.6c1.81.55,2.09.68,2.09,1s-.31.39-1.28.44a20.8,20.8,0,0,1-7.12,5.72Zm20.23,2c.76-1,1-1.25,1.78-2.16,1.22.94,1.59,1.23,2.79,2.22.15.13.21.21.21.31s-.13.18-.34.18h-7.75v4.31h2.29l1.86-2.17c1.2,1,1.59,1.26,2.79,2.27.13.13.18.21.18.29s-.13.16-.31.16h-6.81v5.79a22,22,0,0,0,2.81.16,44,44,0,0,0,5.2-.32v.32a2.64,2.64,0,0,0-1.15,1.15,3.92,3.92,0,0,0-.39,1.25c-.05.47-.05.47-1.78.47a19.11,19.11,0,0,1-5.19-.6c-2.3-.71-4-2.43-5.64-5.74a15.4,15.4,0,0,1-4.54,6.81l-.23-.21a21,21,0,0,0,2.19-5.77,28,28,0,0,0,.65-5.4c0-.29,0-.57-.05-1.1l1.83.24c1.75.21,2.19.34,2.19.65s-.24.37-1.05.57a30.1,30.1,0,0,1-.75,3.5,8,8,0,0,0,3.1,3.13V255.6h-5.11a9.52,9.52,0,0,0-1.7.13l-.18-.86a8.68,8.68,0,0,0,1.93.18h5.06v-4.2h-3.83a8.14,8.14,0,0,0-1.54.13l-.19-.91a6.25,6.25,0,0,0,1.81.23h3.75V248a11.4,11.4,0,0,0-.15-2.11c3.62.23,4.07.31,4.07.7s-.34.45-1.12.68v3H433l1.74-2.08c1.2.91,1.6,1.22,2.82,2.19.11.13.16.21.16.26s-.13.18-.31.18h-6.89v4.2Z"/><path class="cls-1" d="M442.5,264.35a23.1,23.1,0,0,0,3.91-5.28,12.49,12.49,0,0,0,1.33-3.31c3.68,1.25,3.92,1.33,3.92,1.67s-.34.42-1.25.44c-2.8,3.6-4.08,4.7-7.73,6.68ZM456.36,257c0,2.32,0,2.32,0,3.71,0,1.56-.57,2.27-2.16,2.84a7.58,7.58,0,0,1-1.6.37c-.26,0-.33-.11-.36-.45a1.7,1.7,0,0,0-.6-1.3,6.49,6.49,0,0,0-2.51-.94l0-.32c1.72.11,2.3.14,3.91.16h.08c.29,0,.39-.1.39-.42v-5.89h-8.69a13,13,0,0,0-1.93.13l-.16-.94a7.45,7.45,0,0,0,2.15.26h2.21v-3.84a22.82,22.82,0,0,0-.13-2.66c3.81.36,4,.39,4,.76s-.26.36-1.07.62v5.12h3.62v-5.85c0-.94,0-1.46-.1-2.58,3.84.39,4,.41,4,.78s-.21.39-1.12.65v2.69h3.21c.83-1,1.09-1.3,1.93-2.24,1.33,1,1.72,1.33,3,2.42.1.11.13.16.13.21s-.1.16-.29.16h-8v3.76h5.32c.89-1,1.18-1.33,2.06-2.3,1.36,1,1.78,1.33,3.11,2.45a.44.44,0,0,1,.13.24c0,.08-.13.16-.26.16H456.36Zm-13.18,12.55a35,35,0,0,0,10.38-4.22,18,18,0,0,0,6-5.93c2.86,1.83,3.26,2.09,3.26,2.38s-.26.31-.63.31a4.87,4.87,0,0,1-.63,0,23.33,23.33,0,0,1-8.79,5.9,32.11,32.11,0,0,1-9.48,2ZM458,256a26,26,0,0,1,6.37,1.91c.94.55,1.28,1,1.28,1.93,0,1.1-.5,2.06-1.07,2.06-.32,0-.4-.08-1.28-1.17a25.24,25.24,0,0,0-5.43-4.44Z"/><path class="cls-1" d="M480,266.41c1.2,0,1.57-.08,2-.32.6-.31.78-1,.78-2.66v-12a7.69,7.69,0,0,0-.07-1.57c-.11-.57-.45-.7-1.78-.7h-.7v-.73a60.56,60.56,0,0,0,6.1-.79q-.23,2.79-.23,6.58v9.21c0,1.59.16,2.25.62,2.61s.68.34,2,.37v.73H480Z"/><path class="cls-1" d="M503.24,254.87c3.49,0,5.84,2.43,5.84,6a6.32,6.32,0,0,1-6.71,6.66c-4.43,0-6.83-3.27-6.83-9.32,0-3.52.73-6.4,2.06-8.17a6.16,6.16,0,0,1,5.3-2.48c3.15,0,5.53,1.41,5.53,3.29,0,.94-.71,1.51-1.88,1.51a1.86,1.86,0,0,1-1.44-.49c-.15-.21-.15-.29-.23-1.36-.08-1.49-.84-2.3-2.06-2.3-1.6,0-2.72,1.2-3.27,3.45a23.34,23.34,0,0,0-.54,5A5.47,5.47,0,0,1,503.24,254.87Zm-3.76,2.69a5,5,0,0,0-.53,2.61,12.45,12.45,0,0,0,.84,4.75,2.93,2.93,0,0,0,2.64,2c2,0,3.18-2.21,3.18-5.92,0-3.24-1.23-5.25-3.24-5.25A3.38,3.38,0,0,0,499.48,257.56Z"/><path class="cls-1" d="M516.18,258.4a33.12,33.12,0,0,0,5.25-6.74,24.46,24.46,0,0,0,2.56-5.84,38.61,38.61,0,0,1,3.86,1.64.45.45,0,0,1,.13.23c0,.27-.34.4-1.28.47a26.77,26.77,0,0,1-4.59,6.32,23,23,0,0,1-5.72,4.15ZM528,256.46a19.69,19.69,0,0,1-.4,2.59c-1.17,5.64-4,8.51-10.54,10.75l-.13-.29c3.57-2.32,5.58-4.51,6.71-7.33a20.34,20.34,0,0,0,1.2-5.72H523a11.31,11.31,0,0,0-1.83.16l-.18-.91a9.75,9.75,0,0,0,2,.21h9.9a14.74,14.74,0,0,1,1.2-1.18c1,.71,1.3.91,2.27,1.62.21.18.31.31.31.44s-.13.29-.6.55a71.81,71.81,0,0,1-.76,7.41c-.44,2.51-1,3.53-2.27,4.05a8.34,8.34,0,0,1-2.87.49c-.47,0-.52-.05-.55-.6a1.94,1.94,0,0,0-1-1.56,12.44,12.44,0,0,0-2.93-1.07l0-.34c2,.23,4.17.44,4.88.44,1.12,0,1.46-.26,1.69-1.3a44.14,44.14,0,0,0,.84-8.41ZM530.77,246a1.38,1.38,0,0,0,0,.27c0,.75,1,2.27,2.41,3.7a15.94,15.94,0,0,0,4.75,3.26,17.14,17.14,0,0,0,3.34,1.1v.26a3.35,3.35,0,0,0-1.49,1.23,6.94,6.94,0,0,0-.73,1.33c-.08.23-.18.34-.29.34a10.48,10.48,0,0,1-2.5-1.67,18.63,18.63,0,0,1-5.67-8.17,3.71,3.71,0,0,0-.73-1.31Z"/><path class="cls-1" d="M562.38,247.62H564l-8.69,24.14h-1.57Z"/><path class="cls-1" d="M577.94,264.74a35.83,35.83,0,0,0,3.49-7.62,19.84,19.84,0,0,0,1.18-5.33c4.2,1.15,4.33,1.2,4.33,1.54s-.34.5-1.22.58a28.07,28.07,0,0,1-3.37,6.49,21.28,21.28,0,0,1-4.18,4.55Zm10.83-15.69a28.81,28.81,0,0,0-.19-3.05c3.4.39,3.69.42,4,.57s.39.21.39.39-.26.45-1.17.73v11.72c0,.76,0,3.87,0,6.92a2.42,2.42,0,0,1-1.3,2.48,7.58,7.58,0,0,1-3,.73c-.26,0-.34-.11-.37-.5a1.81,1.81,0,0,0-.5-1.28,3.86,3.86,0,0,0-2.14-1.07l-2.19-.54,0-.37c3.92.29,3.92.29,5.85.34.34,0,.42-.1.42-.42Zm5.66,3a29.62,29.62,0,0,1,5.51,5.22,7.33,7.33,0,0,1,1.85,3.91c0,1.52-1.2,3.42-2.17,3.42a.69.69,0,0,1-.52-.39,5,5,0,0,1-.34-1.12c-.41-1.67-.73-2.74-1-3.6a26.35,26.35,0,0,0-3.61-7.21Z"/><path class="cls-1" d="M613.83,251.69c.62-.81.83-1.05,1.46-1.8a18.51,18.51,0,0,1,2,2c.1.1.13.16.13.21s-.1.16-.31.16h-3.81v2.06c2.4,1.35,3.63,2.74,3.63,4.1a2.48,2.48,0,0,1-.58,1.46,1.31,1.31,0,0,1-1,.65c-.41,0-.52-.18-.65-1.38a9.65,9.65,0,0,0-1.38-4.28c0,9.29,0,11,0,14,0,.63-.28.76-1.82.76-1.07,0-1.2-.05-1.2-.55.05-1.54.05-1.54.1-3.71,0-1.2,0-1.2.13-3.89l.11-3.54c-1.65,3.13-2.48,4.25-4.36,5.89l-.24-.18a28.32,28.32,0,0,0,3-7,36.64,36.64,0,0,0,1.15-4.43h-2.09a7.66,7.66,0,0,0-1.54.15l-.13-.91a6.16,6.16,0,0,0,1.67.21h2.35v-2.38a24.06,24.06,0,0,0-.16-3.34c.86.08,1.54.16,2,.18,1.59.14,2.08.29,2.08.58s-.26.36-1.09.63v4.33Zm3.54,2.71c3.35,2.06,4.86,3.6,4.86,5,0,1.2-1,2.58-1.88,2.58-.36,0-.55-.26-.65-.88a16.92,16.92,0,0,0-2.53-6.58Zm9.45,5.2c0,3.57,0,3.57,0,6.89a3,3,0,0,1-.46,1.95,3.21,3.21,0,0,1-2.33,1.2,6.21,6.21,0,0,1-1,.11c-.33,0-.39-.05-.44-.63-.16-1.28-.86-1.72-3.91-2.56v-.31c.73,0,1.28.08,1.64.08,2,.13,2,.13,3,.16h.08c.29,0,.42-.13.42-.42V252.24h-4.44a9.81,9.81,0,0,0-1.61.13l-.13-.89a6,6,0,0,0,1.74.21h4.44v-2a30.47,30.47,0,0,0-.16-3.76,30.57,30.57,0,0,1,3.81.47c.24.08.37.21.37.37s-.29.39-1.1.6v4.28h.24c.62-.86.83-1.12,1.46-2,1,.91,1.28,1.2,2.16,2.14a.43.43,0,0,1,.11.24c0,.07-.11.13-.24.13h-3.73Z"/><path class="cls-1" d="M648.64,252.24v-3a16.84,16.84,0,0,0-.2-3c3.75.26,4.28.34,4.28.68s-.29.5-1.13.71v4.62h1.6c.78-1,1-1.26,1.85-2.2,1.25,1,1.64,1.28,2.92,2.35.08.11.11.16.11.21a.2.2,0,0,1-.19.18h-6.29c0,3.79,0,3.79,0,7.13h2c.86-1.05,1.14-1.36,2-2.4,1.33,1.12,1.75,1.46,3,2.63,0,.08,0,.13,0,.16s-.1.16-.21.16h-6.94c0,5.27,0,5.27.16,8.45V269c0,.52-.32.6-2.72.6-.36,0-.47-.1-.49-.44.1-3.19.1-3.19.1-8.69h-5.51a10.8,10.8,0,0,1-3.18,6.23,13.08,13.08,0,0,1-5.43,3.14l-.16-.21a12.22,12.22,0,0,0,4-4.05,13,13,0,0,0,1.8-5.11h-2.82c-.21,0-.83,0-1.75.08-.23,0-.57,0-1,0l-.19-1a13.22,13.22,0,0,0,3,.29h2.9a69.58,69.58,0,0,0,.26-7.13h-2.19c-1.28,0-1.91,0-3.19.13L635,252a22,22,0,0,0,3.34.24h2.19a59.07,59.07,0,0,0-.21-6c4.07.29,4.41.34,4.41.71s-.21.39-1.15.7c0,.29,0,1.83-.05,4.6Zm-5.11.54a56.27,56.27,0,0,1-.26,7.13h5.4v-3.39s0-1.65,0-3.74Z"/><path class="cls-1" d="M663.92,261.16a6.44,6.44,0,0,1,.46,2.53,5.1,5.1,0,0,1-.49,2.46,1.4,1.4,0,0,1-1.12.81c-.37,0-.6-.21-.81-.68a3,3,0,0,1-.21-1,1.16,1.16,0,0,1,.57-1.07,3.83,3.83,0,0,0,1.36-3ZM671.09,251c.52-.65.71-.83,1.26-1.46.78.71,1,.92,1.77,1.65.1.1.13.15.13.23s-.1.13-.29.13h-3.52v3.19H671l1.34-1.52c.8.73,1,.94,1.77,1.7a.36.36,0,0,1,.13.23c0,.08-.1.13-.26.13h-3.55v3.55h.63c.54-.6.7-.78,1.22-1.33.71.6.92.78,1.54,1.38.21.21.29.34.29.47s-.21.37-.89.66c-.29,4.8-.73,7.28-1.51,8.32a2.94,2.94,0,0,1-2.09,1.15,9.12,9.12,0,0,1-1,.11c-.32,0-.37-.08-.42-.42a1.93,1.93,0,0,0-.6-1.36c-.34-.31-.39-.31-2.38-1.07l.05-.29a33,33,0,0,0,3.81.32c.47,0,.6-.11.76-.47a25.83,25.83,0,0,0,.86-6.92h-4.62v.52c0,.47-.34.58-1.67.58-.83,0-1-.08-1-.47.1-2.51.13-5,.13-9.32,0-2.24,0-3.44-.16-4.93,1.25.62,1.62.81,2.85,1.49h4.25l1.49-1.65c1,.76,1.33,1,2.29,1.85a.38.38,0,0,1,.13.21c0,.08-.1.13-.26.13h-3.78V251Zm-6,10a5.83,5.83,0,0,1,1.77,3.29,1.54,1.54,0,0,1-1.3,1.46c-.24,0-.37-.21-.37-.55a2.1,2.1,0,0,1,0-.39c0-.26,0-1.07,0-1.36a7.62,7.62,0,0,0-.34-2.34ZM668,247.77h-1.91V251H668Zm-1.91,3.76v3.19H668v-3.19Zm0,3.73v3.55H668v-3.55Zm.5,5.48c1.51.89,2.37,1.86,2.37,2.64,0,.6-.46,1.28-.88,1.28-.26,0-.32-.11-.45-.78a7.68,7.68,0,0,0-1.17-3Zm1.67-.49c1.57.6,2.19,1.09,2.19,1.75s-.39,1.09-.76,1.09c-.13,0-.2-.1-.28-.39a5.46,5.46,0,0,0-1.28-2.27Zm9.39-4.33a24.82,24.82,0,0,1-1.48,8.35,15.13,15.13,0,0,1-2.43,4,9.64,9.64,0,0,1-1.54,1.46l-.26-.18a14.61,14.61,0,0,0,2.09-5A39.92,39.92,0,0,0,675,256c0-7.62,0-8.74-.13-10.26a24.9,24.9,0,0,1,3.08,1.6h4.44l1.41-1.49c1,.68,1.28.89,2.14,1.56.23.19.31.32.31.45s-.24.39-.94.75l0,3.71c0,1.46,0,1.88.11,4.28a.75.75,0,0,1-.08.44c-.18.24-.76.34-1.77.34-.84,0-.94,0-1-.49v-1h-2.4a12.76,12.76,0,0,0,1.41,5,11,11,0,0,0,3.36,3.74,9,9,0,0,0,2.25,1.14V266a2.56,2.56,0,0,0-1.25,1.15,6.78,6.78,0,0,0-.66,1.49c-.07.29-.15.39-.31.39s-.55-.26-1.12-.84c-2.61-2.55-4-6.62-4.26-12.31Zm4.86-.55V247.9H677.8c0,4.47,0,4.6-.11,7.47Z"/><path class="cls-1" d="M699.75,246.6a10.8,10.8,0,0,1,3,.49c1.09.37,1.56.84,1.56,1.49,0,.34,0,.39-.42,1.31a9.81,9.81,0,0,0-.57,3.44.93.93,0,0,0,.63.24,7.36,7.36,0,0,0,3.81-1.73,1.13,1.13,0,0,1,.75-.28,3.51,3.51,0,0,1,1.78.62.94.94,0,0,1,.47.81c0,.5-.39.84-1.49,1.28a11,11,0,0,1-3.5.76,3.56,3.56,0,0,1-2.5-.94V255a61.42,61.42,0,0,0,.36,6.68A14.52,14.52,0,0,1,710,264a2.9,2.9,0,0,1,1.15,2.4c0,.83-.42,1.43-1,1.43-.37,0-.6-.13-1.18-.65a13.26,13.26,0,0,0-5.11-3.16c0,.47,0,.79,0,1a3.68,3.68,0,0,1-.83,2.71,6.16,6.16,0,0,1-4.18,1.23c-3.13,0-5.11-1.31-5.11-3.37,0-2.42,2.84-4.12,6.86-4.12h.58c-.08-5-.21-9.42-.37-11.62-.08-1.17-.29-1.67-.86-2.08a3.41,3.41,0,0,0-1.75-.6A2.07,2.07,0,0,1,699.75,246.6Zm-.5,16.78c-2.79,0-4.59.84-4.59,2.14,0,1,1.07,1.59,2.82,1.59a4.06,4.06,0,0,0,3.21-1.09,2.34,2.34,0,0,0,.39-1.49,8.93,8.93,0,0,0,0-.92v-.07A9.8,9.8,0,0,0,699.25,263.38Z"/><path class="cls-1" d="M725.28,269.7a13.36,13.36,0,0,0,5.74-5.46,16.11,16.11,0,0,0,1.7-7.54,12.35,12.35,0,0,0-.79-4.91,1.92,1.92,0,0,0-1.77-1.38c-1.18,0-2.27,1-3.11,3a15.53,15.53,0,0,0-1.2,5.59,9,9,0,0,0,.11,1.54c0,.34,0,.68,0,.78a1.21,1.21,0,0,1-1.2,1.31,1.81,1.81,0,0,1-1.62-1.26,10.5,10.5,0,0,1-.76-4.25,31.12,31.12,0,0,1,1.05-7.36,9.29,9.29,0,0,0,.28-2,2.23,2.23,0,0,0-1.46-1.93,1.9,1.9,0,0,1,.52-.1,5.15,5.15,0,0,1,2.77,1.12c.89.68,1.31,1.28,1.31,1.91a1.76,1.76,0,0,1-.45,1.09,13.24,13.24,0,0,0-2.16,6.92c0,.31,0,.57.07,1.12h0c1-3.42,1.93-5.43,3.26-6.86a4.11,4.11,0,0,1,3.24-1.49c2.84,0,4.88,3.26,4.88,7.83a12.87,12.87,0,0,1-3.31,8.82c-1.65,1.78-3.66,2.87-7.05,3.86Z"/><path class="cls-1" d="M747.47,258.6a20.64,20.64,0,0,1-3,2.14l-.21-.23a29.5,29.5,0,0,0,3.44-4.91,18,18,0,0,0,1.93-4.3c3.4.91,3.79,1,3.79,1.35s-.32.37-1.23.45a21,21,0,0,1-2.63,3.44c1.22.16,1.51.26,1.51.5s-.24.34-.91.57v5.2c0,3.44,0,3.44,0,6.1,0,.34,0,.5-.13.6-.21.29-.83.42-1.85.42-.71,0-.89-.13-.91-.6.07-2.37.13-4.93.13-6.39Zm-3-5.55a20.11,20.11,0,0,0,4.69-7.47l1.86.6c1.8.55,2.08.68,2.08,1s-.31.39-1.27.44a20.84,20.84,0,0,1-7.13,5.72Zm20.22,2c.76-1,1-1.25,1.78-2.16,1.22.94,1.59,1.23,2.79,2.22.16.13.21.21.21.31s-.13.18-.34.18h-7.75v4.31h2.3l1.85-2.17c1.2,1,1.59,1.26,2.79,2.27.13.13.18.21.18.29s-.13.16-.31.16h-6.81v5.79a22,22,0,0,0,2.82.16,43.93,43.93,0,0,0,5.19-.32v.32a2.64,2.64,0,0,0-1.15,1.15,3.92,3.92,0,0,0-.39,1.25c0,.47,0,.47-1.77.47a19.14,19.14,0,0,1-5.2-.6c-2.29-.71-4-2.43-5.63-5.74a15.43,15.43,0,0,1-4.55,6.81l-.23-.21a20.67,20.67,0,0,0,2.19-5.77,28,28,0,0,0,.65-5.4c0-.29,0-.57-.05-1.1l1.83.24c1.75.21,2.19.34,2.19.65s-.23.37-1,.57a32,32,0,0,1-.76,3.5,7.93,7.93,0,0,0,3.11,3.13V255.6h-5.12a9.59,9.59,0,0,0-1.7.13l-.18-.86a8.68,8.68,0,0,0,1.93.18h5.07v-4.2H754.8a8.21,8.21,0,0,0-1.54.13l-.18-.91a6.18,6.18,0,0,0,1.8.23h3.76V248a11.41,11.41,0,0,0-.16-2.11c3.63.23,4.07.31,4.07.7s-.34.45-1.12.68v3h2.48c.78-.93,1-1.2,1.75-2.08,1.2.91,1.59,1.22,2.82,2.19.1.13.15.21.15.26s-.13.18-.31.18h-6.89v4.2Z"/><path class="cls-1" d="M772.89,264.35a23.1,23.1,0,0,0,3.91-5.28,12.49,12.49,0,0,0,1.33-3.31c3.68,1.25,3.92,1.33,3.92,1.67s-.34.42-1.25.44c-2.8,3.6-4.08,4.7-7.73,6.68ZM786.75,257c0,2.32,0,2.32,0,3.71,0,1.56-.57,2.27-2.16,2.84a7.58,7.58,0,0,1-1.6.37c-.26,0-.33-.11-.36-.45a1.7,1.7,0,0,0-.6-1.3,6.49,6.49,0,0,0-2.51-.94l0-.32c1.72.11,2.3.14,3.91.16h.08c.29,0,.39-.1.39-.42v-5.89h-8.69a13,13,0,0,0-1.93.13l-.15-.94a7.34,7.34,0,0,0,2.14.26h2.21v-3.84a22.82,22.82,0,0,0-.13-2.66c3.81.36,4,.39,4,.76s-.26.36-1.07.62v5.12H784v-5.85c0-.94,0-1.46-.1-2.58,3.84.39,4,.41,4,.78s-.21.39-1.12.65v2.69H790c.83-1,1.09-1.3,1.93-2.24,1.33,1,1.72,1.33,3,2.42.1.11.13.16.13.21s-.1.16-.29.16h-8v3.76h5.32c.89-1,1.17-1.33,2.06-2.3,1.36,1,1.78,1.33,3.11,2.45a.44.44,0,0,1,.13.24c0,.08-.13.16-.26.16H786.75Zm-13.18,12.55A34.87,34.87,0,0,0,784,265.29a17.84,17.84,0,0,0,5.95-5.93c2.88,1.83,3.27,2.09,3.27,2.38s-.26.31-.63.31a4.79,4.79,0,0,1-.63,0,23.33,23.33,0,0,1-8.79,5.9,32.11,32.11,0,0,1-9.48,2ZM788.34,256a26,26,0,0,1,6.37,1.91c.94.55,1.28,1,1.28,1.93,0,1.1-.5,2.06-1.07,2.06-.32,0-.4-.08-1.28-1.17a25.24,25.24,0,0,0-5.43-4.44Z"/><path class="cls-1" d="M811.67,250.8a2,2,0,0,0-2.06,1,7.42,7.42,0,0,0-.78,2.33l-.86-.11.81-6.05h12.47v1.85a34.48,34.48,0,0,0-4.15,7.86,29.26,29.26,0,0,0-1.25,4.62,20.32,20.32,0,0,0-.31,3.49,1.71,1.71,0,0,1-.53,1.41,2.82,2.82,0,0,1-1.67.42c-1.14,0-1.72-.42-1.72-1.25,0-1.72,1.39-5.25,3.6-9.06,1-1.85,2.14-3.55,4.23-6.55Z"/><path class="cls-1" d="M828.59,258.4a32.72,32.72,0,0,0,5.24-6.74,24.07,24.07,0,0,0,2.56-5.84,38.16,38.16,0,0,1,3.87,1.64.45.45,0,0,1,.13.23c0,.27-.34.4-1.28.47a26.77,26.77,0,0,1-4.6,6.32,22.71,22.71,0,0,1-5.71,4.15Zm11.82-1.94a20.16,20.16,0,0,1-.39,2.59c-1.17,5.64-4,8.51-10.54,10.75l-.13-.29c3.57-2.32,5.58-4.51,6.7-7.33a19.66,19.66,0,0,0,1.2-5.72h-1.82a11.31,11.31,0,0,0-1.83.16l-.18-.91a9.75,9.75,0,0,0,2,.21h9.89a16.55,16.55,0,0,1,1.2-1.18c1,.71,1.31.91,2.27,1.62.21.18.32.31.32.44s-.13.29-.6.55c-.29,4-.45,5.48-.76,7.41-.44,2.51-1,3.53-2.27,4.05a8.39,8.39,0,0,1-2.87.49c-.47,0-.52-.05-.55-.6a2,2,0,0,0-1-1.56,12.3,12.3,0,0,0-2.92-1.07l0-.34c2,.23,4.18.44,4.88.44,1.13,0,1.47-.26,1.7-1.3a45.85,45.85,0,0,0,.84-8.41ZM843.18,246a1.38,1.38,0,0,0,0,.27c0,.75,1,2.27,2.4,3.7a16.07,16.07,0,0,0,4.75,3.26,17.14,17.14,0,0,0,3.34,1.1v.26a3.38,3.38,0,0,0-1.48,1.23,6.94,6.94,0,0,0-.73,1.33c-.08.23-.19.34-.29.34a10.46,10.46,0,0,1-2.51-1.67,18.53,18.53,0,0,1-5.66-8.17,3.87,3.87,0,0,0-.73-1.31Z"/><path class="cls-1" d="M53,12.06a31.21,31.21,0,0,0,6-5.67A19.27,19.27,0,0,0,62.8.05l2.06.42c1.88.37,2.45.55,2.45.83s-.2.34-1.07.53a13,13,0,0,0,5.25,4.54,19.46,19.46,0,0,0,6.45,2v.28a3.16,3.16,0,0,0-1.78,1.91c-.1.23-.23.65-.31.86s-.16.34-.31.34a8,8,0,0,1-2.25-1.05A18.3,18.3,0,0,1,68.1,6,13.6,13.6,0,0,1,65.85,2a26.1,26.1,0,0,1-12.71,10.3Zm12.34,2.5a42.2,42.2,0,0,1-5,5.8c4.86-.08,7.31-.21,9.95-.45a16.43,16.43,0,0,0-2.9-4l.21-.21a23.46,23.46,0,0,1,4.8,2.87c1.36,1.1,1.91,1.83,1.91,2.61,0,1.36-.94,2.77-1.83,2.77-.34,0-.44-.13-.73-.81a21.42,21.42,0,0,0-1-2.48,6,6,0,0,1-.6.18c-2.66.71-7.62,1.7-12.94,2.53-.18.79-.31,1.05-.57,1.05s-.29,0-1.26-4.18a24.16,24.16,0,0,0,2.95.13h.86a38.41,38.41,0,0,0,2.2-5.82H56.07a7.39,7.39,0,0,0-1.62.16l-.21-.94a7.59,7.59,0,0,0,1.9.24H71.31c.83-1,1.09-1.28,1.93-2.22,1.41,1,1.85,1.28,3.18,2.35a.33.33,0,0,1,.16.23c0,.1-.13.18-.29.18Zm-6.44-5a8.57,8.57,0,0,0,1.93.21h5.32c.81-1,1.07-1.26,1.91-2.14,1.28.94,1.67,1.25,3,2.27.13.1.18.18.18.26s-.1.16-.31.16H60.63a8.58,8.58,0,0,0-1.56.13Z"/><path class="cls-1" d="M81.88,23.7a17.91,17.91,0,0,0,3.63-6.45c2.79,1,3.36,1.25,3.36,1.54s-.31.37-1.09.42a19.12,19.12,0,0,1-5.69,4.7ZM93.44,16c.45-.62.6-.81,1.1-1.41A20.92,20.92,0,0,1,96,16.13a84.14,84.14,0,0,0,.42-10.44,42.21,42.21,0,0,0-.21-5.3A19.44,19.44,0,0,1,99.42,2h2.87c.57-.68.78-.89,1.43-1.57.92.6,1.21.81,2.07,1.46.21.16.28.29.28.42s-.21.47-.81.84V14.9c0,1.7,0,1.78,0,3.26,0,1.07,0,1.26,0,2.54V21a2.15,2.15,0,0,1-.81,2,5,5,0,0,1-2.71.78c-.31,0-.39-.08-.44-.57a1.93,1.93,0,0,0-.94-1.44A10.37,10.37,0,0,0,98.11,21l0-.32c2.58.13,2.64.13,3.94.16.37,0,.44-.13.44-.47V13.81H98.79a14.62,14.62,0,0,1-1,4.33,13,13,0,0,1-2.69,4.12A17.43,17.43,0,0,1,93,24.17l-.26-.26a16.67,16.67,0,0,0,3.18-7.39h-12a8,8,0,0,0-1.69.16l-.16-.92a9,9,0,0,0,1.85.21h.73V4.83h-.88A7.19,7.19,0,0,0,82.32,5l-.13-.91a7.08,7.08,0,0,0,1.57.21h.91V3.21a21.24,21.24,0,0,0-.15-3C88,.47,88.3.52,88.3.91c0,.24-.29.39-1.07.63V4.28h3.39V3a25.82,25.82,0,0,0-.1-2.71C93.89.5,94.2.55,94.2.91s-.24.39-1,.66V4.28h.26a13.55,13.55,0,0,1,1.15-1.36c.7.66.91.84,1.56,1.54a.52.52,0,0,1,.11.24c0,.08-.11.13-.26.13H93.21V16Zm-6.21-8h3.39V4.83H87.23Zm0,3.81h3.39V8.48H87.23Zm0,4.23h3.39V12.29H87.23Zm2.43,1.49c2.92.65,4.17,1.41,4.17,2.48s-.7,1.9-1.38,1.9c-.42,0-.52-.15-.94-1.07a9.07,9.07,0,0,0-2-3.15Zm9.39-9.37a48.21,48.21,0,0,1-.21,5.17h3.68V8.09Zm3.47-.55v-5H99.08c0,1,0,2.63,0,5Z"/><path class="cls-1" d="M53,134.89a31.21,31.21,0,0,0,6-5.67,19.27,19.27,0,0,0,3.79-6.34c.89.18,1.59.31,2.06.42,1.88.36,2.45.55,2.45.83s-.2.34-1.07.53a13,13,0,0,0,5.25,4.54,19.23,19.23,0,0,0,6.45,2v.29a3.16,3.16,0,0,0-1.78,1.91c-.1.23-.23.65-.31.86s-.16.34-.31.34a8,8,0,0,1-2.25-1.05,18.3,18.3,0,0,1-5.19-4.72,13.6,13.6,0,0,1-2.25-3.91,26.1,26.1,0,0,1-12.71,10.3Zm12.34,2.5a42.2,42.2,0,0,1-5,5.8c4.86-.08,7.31-.21,9.95-.45a16.43,16.43,0,0,0-2.9-4l.21-.21a23.46,23.46,0,0,1,4.8,2.87c1.36,1.1,1.91,1.83,1.91,2.61,0,1.36-.94,2.77-1.83,2.77-.34,0-.44-.13-.73-.81a21.42,21.42,0,0,0-1-2.48,6,6,0,0,1-.6.18c-2.66.71-7.62,1.7-12.94,2.53-.18.79-.31,1-.57,1s-.29,0-1.26-4.18a24.16,24.16,0,0,0,2.95.13h.86a38.41,38.41,0,0,0,2.2-5.82H56.07a7.39,7.39,0,0,0-1.62.16l-.21-.94a7.54,7.54,0,0,0,1.9.23H71.31c.83-1,1.09-1.27,1.93-2.21,1.41,1,1.85,1.27,3.18,2.35a.33.33,0,0,1,.16.23c0,.1-.13.18-.29.18Zm-6.44-5a8.57,8.57,0,0,0,1.93.21h5.32c.81-1,1.07-1.26,1.91-2.14,1.28.94,1.67,1.25,3,2.27.13.1.18.18.18.26s-.1.15-.31.15H60.63a8.69,8.69,0,0,0-1.56.14Z"/><path class="cls-1" d="M88.25,130.37c.55-.75.73-1,1.28-1.72a22.43,22.43,0,0,1,1.88,1.9.65.65,0,0,1,.1.24c0,.08-.1.13-.29.13H87.73v6.5c1-.37,1.56-.58,3-1.18l.13.29a44.62,44.62,0,0,1-6.73,5.06c0,.89-.16,1.18-.42,1.18s-.31-.16-1.59-3.79a16.1,16.1,0,0,0,2.87-.67v-7.39H83.65a6,6,0,0,0-1.51.16l-.13-.92a5.14,5.14,0,0,0,1.64.21H85V126c0-1.2,0-1.67-.1-2.71,3.81.36,3.94.39,3.94.76s-.29.41-1.07.65v5.66ZM98,137.31a13.45,13.45,0,0,1-2.66,3.27c-1.77,1.61-3.42,2.48-6.94,3.7l-.13-.34a17.89,17.89,0,0,0,5-3.94,11.86,11.86,0,0,0,1.85-2.69h-1.2a19.36,19.36,0,0,1-6.29,4.08l-.18-.27A17.28,17.28,0,0,0,93,134.47H91.09a6.13,6.13,0,0,0-1.62.16l-.15-.92a6,6,0,0,0,1.77.21h11.17c.79-.86,1-1.09,1.83-1.9,1.15.83,1.49,1.12,2.58,2,.11.13.16.21.16.26s-.13.16-.34.16H96.26a15.51,15.51,0,0,1-1.8,2.3h8.06c.58-.63.76-.81,1.36-1.41.91.65,1.18.83,2,1.48.21.16.29.27.29.4s-.23.39-.81.62c-.41,4.7-.86,6.89-1.54,7.81a3.28,3.28,0,0,1-2.11,1.17,8.47,8.47,0,0,1-1,.1c-.34,0-.42-.07-.42-.41a1.86,1.86,0,0,0-.76-1.41,8.6,8.6,0,0,0-2.19-.92l0-.31c1.57.13,2.61.21,3.19.21.78,0,1-.16,1.25-.76a32.49,32.49,0,0,0,.86-6h-.5a15.07,15.07,0,0,1-3.34,4.78c-2.16,2.11-4.51,3.39-8.56,4.62l-.18-.29a20.86,20.86,0,0,0,6.76-5.14,22.17,22.17,0,0,0,2.56-4Zm-3.34-5.11c0,.55-.28.65-1.75.65-.88,0-1-.08-1-.57.05-1.73.07-2.46.07-4.65,0-3.08,0-3.42-.07-4.7a27.12,27.12,0,0,1,3,1.47h5.54c.6-.63.78-.81,1.41-1.41.94.6,1.2.81,2.06,1.43.23.16.34.29.34.39s-.21.39-.86.71v1.54c0,1.15,0,2.87,0,4.88,0,.26,0,.36-.19.47a4.61,4.61,0,0,1-1.77.21c-.7,0-.83-.06-.83-.42v-.55h-6Zm6-7.26h-6v2.74h6Zm-6,3.29v2.87h6v-2.87Z"/><path class="cls-1" d="M2.53,268.78a19,19,0,0,0,4.86-7,20.15,20.15,0,0,0,1.48-6,1.42,1.42,0,0,0-.65-1.28,3,3,0,0,0-1.15-.58,1.25,1.25,0,0,1,1-.34,8.49,8.49,0,0,1,4,1.75c2.07-1.43,4.91-4.23,4.91-4.77,0-.24-.23-.32-1-.32a46.8,46.8,0,0,0-7.15,1,18.31,18.31,0,0,0-4.59,1.52,2.29,2.29,0,0,1-1.15.36A3.46,3.46,0,0,1,.81,251.3,4.72,4.72,0,0,1,0,249.18a2,2,0,0,1,.16-.75,2.92,2.92,0,0,0,2.89,1.69A38,38,0,0,0,8,249.68c4.56-.55,6-.71,7-.86a4.53,4.53,0,0,0,1.57-.42,1.07,1.07,0,0,1,.47-.11c.47,0,.94.27,1.77,1C20.15,250.38,21,251.43,21,252a.86.86,0,0,1-.52.81,2.43,2.43,0,0,1-.79.24,4.06,4.06,0,0,0-1,.36c-2.27,1.07-3.15,1.44-6.42,2.69-.44,1.49-.73,2.48-.91,3a16.52,16.52,0,0,1-4.72,7.31A15.78,15.78,0,0,1,2.74,269Z"/><path class="cls-1" d="M28.42,259.49a31.62,31.62,0,0,0,6.71-8.06,6.06,6.06,0,0,0,1.12-2.61,1.3,1.3,0,0,0-.36-.92,2.77,2.77,0,0,0-1.25-.88,1.47,1.47,0,0,1,.67-.16,6.81,6.81,0,0,1,3.48,1.38,1.7,1.7,0,0,1,.83,1.2c0,.37,0,.47-.7,1.31,0,0-.34.44-.73,1,.23,0,.41.06.52.06a24.18,24.18,0,0,0,2.71-.37,5.28,5.28,0,0,0,1.8-.57c.47-.24.58-.29.79-.29a3.29,3.29,0,0,1,1.8,1.1c.67.65,1,1.17,1,1.59a1,1,0,0,1-.49.83c-.55.39-.58.42-1.33,1.7a31.35,31.35,0,0,1-4.6,6.29,25.43,25.43,0,0,1-11.32,7l-.13-.29a21.76,21.76,0,0,0,3.78-2.51,35.52,35.52,0,0,0,7.86-8.61A31,31,0,0,0,43,253.1c0-.19.1-.29.1-.34a.36.36,0,0,0,0-.13.23.23,0,0,0-.07-.13H43a.2.2,0,0,1-.11,0l-.1.05a1.74,1.74,0,0,1-.29.06,14.71,14.71,0,0,0-2,.44l-1,.31a2.11,2.11,0,0,1-.34,0,2.54,2.54,0,0,1-1.62-.88,24,24,0,0,1-9,7.25Z"/><path class="cls-1" d="M67.76,260.43a32.32,32.32,0,0,0,3.81-5,4.33,4.33,0,0,0,.49-.94.17.17,0,0,0-.18-.16A45.86,45.86,0,0,0,64.39,257c-.1,1.17-.16,2.63-.16,3.6,0,3.47.45,4,3.21,4a11.54,11.54,0,0,0,4.7-.81,1.44,1.44,0,0,1,.63-.18,3.29,3.29,0,0,1,1.46.55,2,2,0,0,1,1.17,1.54,1,1,0,0,1-.93,1,27.43,27.43,0,0,1-5.15.39c-3.94,0-5.84-.76-6.57-2.66-.45-1.18-.63-2.9-.66-6.66a27.36,27.36,0,0,0-3.6,1.85,1.4,1.4,0,0,1-.91.37c-1.25,0-3.16-2.24-3.16-3.73a2.32,2.32,0,0,1,.08-.42,2.82,2.82,0,0,0,2.3,1.44A25.41,25.41,0,0,0,62,255.94a44.24,44.24,0,0,0-.23-6c-.21-.84-.89-1.38-2.17-1.7a1.72,1.72,0,0,1,1.33-.39,8.82,8.82,0,0,1,3.4.89c.78.42,1.2.89,1.2,1.38,0,.26,0,.32-.32.86-.39.73-.57,1.73-.75,4.21,1.43-.45,4.28-1.39,5.29-1.75a4.27,4.27,0,0,0,1.93-1,1.32,1.32,0,0,1,.87-.36,4.63,4.63,0,0,1,2.53,1.38c.75.66,1.07,1.12,1.07,1.57s-.18.62-.86.91a7.21,7.21,0,0,0-1.47.94A29,29,0,0,1,68,260.64Z"/><path class="cls-1" d="M82.87,267.48a35.52,35.52,0,0,0,7.75-6.66A41.63,41.63,0,0,0,97.1,251a27.06,27.06,0,0,0-7,2,1.89,1.89,0,0,1-1,.31c-.6,0-1.2-.47-1.88-1.46a4.43,4.43,0,0,1-.86-2.25,1.13,1.13,0,0,1,.18-.65,2.87,2.87,0,0,0,2.74,1.77,43.32,43.32,0,0,0,5.67-.83,5.43,5.43,0,0,0,2.53-.84,1.12,1.12,0,0,1,.7-.23A4,4,0,0,1,100.1,250c.57.55.83.94.83,1.31a.72.72,0,0,1-.42.65A5.29,5.29,0,0,0,99,253.91a45.72,45.72,0,0,1-3.29,4.62c3.42,1.48,5.59,2.74,6.76,3.88a3.43,3.43,0,0,1,1.1,2.61c0,1.34-.6,2.33-1.41,2.33-.44,0-.76-.32-1.07-1.05a18.56,18.56,0,0,0-5.85-7.17A27.71,27.71,0,0,1,89,264.84a23.22,23.22,0,0,1-6,2.92Z"/></g></g></svg>