<svg xmlns="http://www.w3.org/2000/svg" viewBox="0 0 1111.97 354"><defs><style>.cls-1{fill:#fff;}</style></defs><g id="レイヤー_2" data-name="レイヤー 2"><g id="レイヤー_2-2" data-name="レイヤー 2"><path class="cls-1" d="M219.68,28A14.76,14.76,0,0,1,222,21.35c1.29-2,2.85-3.57,6.73-6.8a10.05,10.05,0,0,0,2.82-3.13,7.07,7.07,0,0,0,.71-3.12c0-3-1.59-4.9-4-4.9a3.08,3.08,0,0,0-3.16,2.28,9.17,9.17,0,0,0-.37,3.09c-.07,1.33-.68,1.87-2.18,1.87s-2.41-.58-2.41-1.8a5.86,5.86,0,0,1,2.82-4.79,9.83,9.83,0,0,1,5.64-1.53c5.14,0,8.19,2.34,8.19,6.29a6.35,6.35,0,0,1-1.52,4.28,14.55,14.55,0,0,1-3.74,2.79C227,18.39,226,19.07,224.4,20.5a9,9,0,0,0-2.68,3.84h9.86c2.78,0,3.77-.88,4.38-3.94l1.16.24L235.93,28Z"/><path class="cls-1" d="M245.25,5.88a8.16,8.16,0,0,1,13.15,0,17.28,17.28,0,0,1,2.48,9.66,17,17,0,0,1-2.48,9.62,8.11,8.11,0,0,1-13.15,0,17.55,17.55,0,0,1-2.49-9.62A17.26,17.26,0,0,1,245.25,5.88Zm3.12,18.84q1.13,3,3.47,3c1.73,0,2.93-1.15,3.67-3.53.62-1.87.89-4.59.89-8.6,0-4.42-.34-7.24-1.09-9.18s-1.87-3-3.47-3c-3.16,0-4.55,3.71-4.55,12.14C247.29,19.85,247.63,22.78,248.37,24.72Z"/><path class="cls-1" d="M266.53,28a14.76,14.76,0,0,1,2.28-6.63c1.29-2,2.85-3.57,6.73-6.8a10.05,10.05,0,0,0,2.82-3.13,6.93,6.93,0,0,0,.71-3.12c0-3-1.59-4.9-4-4.9a3.08,3.08,0,0,0-3.16,2.28,9.45,9.45,0,0,0-.37,3.09c-.07,1.33-.68,1.87-2.18,1.87s-2.41-.58-2.41-1.8a5.86,5.86,0,0,1,2.82-4.79,9.85,9.85,0,0,1,5.64-1.53c5.14,0,8.2,2.34,8.2,6.29a6.31,6.31,0,0,1-1.53,4.28,14.55,14.55,0,0,1-3.74,2.79c-4.49,2.51-5.51,3.19-7.07,4.62a9,9,0,0,0-2.69,3.84h9.86c2.79,0,3.77-.88,4.38-3.94l1.16.24L282.78,28Z"/><path class="cls-1" d="M290,28a14.88,14.88,0,0,1,2.27-6.63c1.3-2,2.86-3.57,6.74-6.8a10.05,10.05,0,0,0,2.82-3.13,7.07,7.07,0,0,0,.71-3.12c0-3-1.6-4.9-4-4.9a3.08,3.08,0,0,0-3.16,2.28A9.36,9.36,0,0,0,295,8.77c-.06,1.33-.68,1.87-2.17,1.87s-2.42-.58-2.42-1.8a5.84,5.84,0,0,1,2.83-4.79,9.83,9.83,0,0,1,5.64-1.53C304,2.52,307,4.86,307,8.81a6.31,6.31,0,0,1-1.53,4.28,14.2,14.2,0,0,1-3.74,2.79c-4.48,2.51-5.5,3.19-7.07,4.62A9,9,0,0,0,292,24.34h9.85c2.79,0,3.78-.88,4.39-3.94l1.16.24L306.21,28Z"/><path class="cls-1" d="M336.77,12.51h3.64c1-1.16,1.39-1.53,2.45-2.72,1.6,1.23,2.11,1.6,3.67,2.86a.67.67,0,0,1,.17.3c0,.14-.17.27-.34.27h-9.59v8.3h5.17c1.19-1.29,1.56-1.67,2.79-3,1.66,1.33,2.17,1.74,3.77,3.13a.74.74,0,0,1,.17.31c0,.13-.13.23-.37.23H336.77v3c0,.51,0,3.09.1,5.16,0,.58-.1.78-.44.92a7.78,7.78,0,0,1-2.28.24c-1.18,0-1.39-.1-1.39-.65v-.17c.1-3.87.14-4.52.14-5.3v-3.2H320.66c-.48,0-2.21.14-2.89.21l-.21-1.19a20.22,20.22,0,0,0,3.1.27h2.21V14.31c0-1.87,0-2.58-.14-4.28,2,1.05,2.55,1.39,4.42,2.48h5.75V6h-6.6a33.09,33.09,0,0,1-8.09,7.78l-.27-.34a34.86,34.86,0,0,0,4.69-7.54A29.6,29.6,0,0,0,324.74,0c3.43,1,5.1,1.46,5.44,1.73a.44.44,0,0,1,.17.34c0,.38-.24.48-1.77.68a22,22,0,0,1-1.77,2.49h14.31c.85-1,1.74-1.91,2.59-2.86,1.77,1.29,2.27,1.7,4,3.06a.49.49,0,0,1,.17.27c0,.14-.14.24-.34.24H336.77Zm-10.06.71v8.3h6.19v-8.3Z"/><path class="cls-1" d="M372.17,15c5.16.41,7.82,2.65,7.82,6.56,0,4.35-3.37,7-8.88,7-4.82,0-8.33-2.21-8.33-5.27,0-1.29,1-2,2.55-2a2.06,2.06,0,0,1,1.74.65c.2.27.2.34.27,1.9a5.19,5.19,0,0,0,.92,2.72,3.52,3.52,0,0,0,2.79,1.16c2.82,0,4.42-2.28,4.42-6.22,0-2.35-.65-4.05-1.87-4.93a8.11,8.11,0,0,0-4.42-1.09h-1V14.35h.95c3.84,0,5.85-2,5.85-5.88,0-3.3-1.26-5.07-3.68-5.07a2.81,2.81,0,0,0-2.68,1.43,6.24,6.24,0,0,0-.68,2.75c0,1.12-.11,1.36-.41,1.7a2.5,2.5,0,0,1-1.77.51c-1.56,0-2.38-.58-2.38-1.67,0-3.16,3.5-5.6,8-5.6a9.6,9.6,0,0,1,6.05,1.87,5.56,5.56,0,0,1,1.87,4.18c0,3.33-2.59,5.54-7.14,6.12Z"/><path class="cls-1" d="M400,18.39a17.92,17.92,0,0,1-3.57,8.77,18.73,18.73,0,0,1-4.72,4.32l-.24-.27a20.77,20.77,0,0,0,4.25-9.52c.58-3,.75-5.68.75-12.24,0-4.52,0-6.49-.21-9.45A50.76,50.76,0,0,1,401,2.31h11.18c.85-1,1.09-1.26,2-2.21,1.36.92,1.73,1.23,3,2.14.34.28.47.45.47.62s-.3.54-1.26,1V15.6c0,3.2,0,6.7.14,11.36a3.58,3.58,0,0,1-.44,2.21c-.58.85-1.8,1.43-3.61,1.73a5.61,5.61,0,0,1-1.12.14c-.37,0-.44-.1-.51-.61a2.68,2.68,0,0,0-1.83-2.28,21.81,21.81,0,0,0-4.66-1.22l0-.45c2.86.17,3.47.21,7.31.31.58,0,.72-.1.72-.58V18.39Zm12.45-7.72h-12a68,68,0,0,1-.3,7h12.34Zm0-7.64h-12c0,2.51,0,2.51,0,6.93h12Z"/><path class="cls-1" d="M438.88,27c1.56,0,2-.1,2.55-.41.78-.41,1-1.29,1-3.47V7.51a9.57,9.57,0,0,0-.11-2c-.13-.74-.57-.91-2.31-.91h-.92v-1c3.23-.27,5.71-.61,8-1-.2,2.42-.31,5.27-.31,8.57v12c0,2.08.21,2.93.82,3.4s.88.44,2.62.48V28H438.88Z"/><path class="cls-1" d="M476.68,21.38c0,4.36-3.53,7.14-9.07,7.14-5.27,0-8.5-2.38-8.5-6.29a6.18,6.18,0,0,1,2.51-5,11,11,0,0,1,3.06-1.6c-3.57-1.87-4.86-3.5-4.86-6.29,0-4.15,3.2-6.83,8.19-6.83,4.63,0,7.72,2.41,7.72,6,0,2.68-1.73,4.62-5,5.6C474.91,15.94,476.68,18.12,476.68,21.38Zm-12.92-3.67a6.36,6.36,0,0,0-1.32,4.12c0,3.5,2.17,5.81,5.4,5.81a4.73,4.73,0,0,0,5-4.9c0-1.7-.71-2.92-2.41-4.14a20.19,20.19,0,0,0-3.13-1.74c-.44-.2-1.5-.68-1.53-.68A6,6,0,0,0,463.76,17.71Zm7.69-5.5A6,6,0,0,0,472.5,8.5a6.43,6.43,0,0,0-.78-3.09,4.34,4.34,0,0,0-3.88-2,4,4,0,0,0-4.35,4.29c0,1.7.75,2.92,2.48,4.08A20.44,20.44,0,0,0,468.18,13l1.5.68A4.59,4.59,0,0,0,471.45,12.21Z"/><path class="cls-1" d="M495.59,29.68c0,.78-.48.92-2.82.92-1.23,0-1.4-.1-1.4-.82.21-6.05.24-9.72.24-17.47,0-7,0-8.64-.2-11.53A35.79,35.79,0,0,1,496,3.06h13c.92-1,1.23-1.29,2.15-2.28,1.36,1,1.76,1.29,3,2.28.34.27.47.44.47.65s-.27.54-1.29,1.08l0,5.44c0,10.17,0,12.38.24,19.08,0,.4-.07.57-.24.71a5.71,5.71,0,0,1-2.55.37c-1.16,0-1.43-.1-1.43-.64V27.61H495.59ZM509.22,3.77H495.59V14.45h13.63ZM495.59,15.16V26.89h13.63V15.16Z"/><path class="cls-1" d="M539.07,2.45a17.53,17.53,0,0,0-2.65,5.27A35.76,35.76,0,0,0,535,18.26a33.05,33.05,0,0,0,1.7,11.39,18.36,18.36,0,0,0,2.34,4.45l-.64.54A18.77,18.77,0,0,1,534,29.31a22.45,22.45,0,0,1-2.92-11,22.11,22.11,0,0,1,3.36-11.8,19.59,19.59,0,0,1,3.95-4.59Z"/><path class="cls-1" d="M550.91,23.56c0,3.09.34,3.47,3.19,3.54V28H543.46V27.1c2.79-.11,3.06-.41,3.06-3.54V7c0-3.13-.34-3.5-3.06-3.54V2.55h18.66l.51,7-1.19.1c-.81-4.59-2.68-6.15-7.37-6.15h-3.16V14.28h2.61c3.61,0,4.56-.75,4.9-3.91h1.09v8.87h-1.09c-.41-3.3-1.23-4-4.9-4h-2.61Z"/><path class="cls-1" d="M573.65,9.79c.07,1.29.1,2.07.1,2.75v1c1.36-2.51,3.1-3.84,5-3.84a2.68,2.68,0,0,1,2.89,2.59,2.19,2.19,0,0,1-2.44,2.07,1.41,1.41,0,0,1-1.6-1.09c-.27-.95-.44-1.19-1-1.19h-.07c-.64,0-1.32.61-1.9,1.6a7.72,7.72,0,0,0-.81,3.77v6.29c0,3.06.2,3.3,2.71,3.4V28h-9.45v-.82c2.35,0,2.59-.37,2.59-3.4V14.35c0-2.89-.31-3.3-2.45-3.3v-.82Z"/><path class="cls-1" d="M592.18,9.79c-.13,2-.2,4.42-.2,6.6v7.37c0,3,.24,3.37,2.65,3.4V28h-9.45v-.82c2.41,0,2.65-.37,2.65-3.4V14.35c0-3-.17-3.27-2.55-3.3v-.82ZM589.94,2a2.45,2.45,0,1,1-2.45,2.45A2.44,2.44,0,0,1,589.94,2Z"/><path class="cls-1" d="M598.91,34.1c2.82-3.91,4.05-8.77,4.05-15.84s-1.23-11.9-4.05-15.81l.65-.58A19.63,19.63,0,0,1,604,7.21a22.55,22.55,0,0,1-.44,22.84,19.57,19.57,0,0,1-4,4.59Z"/><path class="cls-1" d="M623.09,16.62h8v2.86h-8Z"/><path class="cls-1" d="M656.2,15c5.17.41,7.82,2.65,7.82,6.56,0,4.35-3.37,7-8.87,7-4.83,0-8.33-2.21-8.33-5.27,0-1.29.95-2,2.55-2a2.05,2.05,0,0,1,1.73.65c.21.27.21.34.27,1.9a5.37,5.37,0,0,0,.92,2.72,3.54,3.54,0,0,0,2.79,1.16c2.82,0,4.42-2.28,4.42-6.22,0-2.35-.65-4.05-1.87-4.93a8.08,8.08,0,0,0-4.42-1.09h-1V14.35h.95c3.84,0,5.85-2,5.85-5.88,0-3.3-1.26-5.07-3.67-5.07a2.81,2.81,0,0,0-2.69,1.43A6.38,6.38,0,0,0,652,7.58c0,1.12-.1,1.36-.41,1.7a2.48,2.48,0,0,1-1.76.51c-1.57,0-2.38-.58-2.38-1.67,0-3.16,3.5-5.6,8-5.6a9.6,9.6,0,0,1,6.05,1.87,5.52,5.52,0,0,1,1.87,4.18c0,3.33-2.58,5.54-7.14,6.12Z"/><path class="cls-1" d="M684.05,18.39a18.11,18.11,0,0,1-3.57,8.77,19,19,0,0,1-4.73,4.32l-.24-.27a20.67,20.67,0,0,0,4.25-9.52c.58-3,.75-5.68.75-12.24,0-4.52,0-6.49-.2-9.45A50.55,50.55,0,0,1,685,2.31h11.19c.85-1,1.09-1.26,2-2.21,1.36.92,1.74,1.23,3,2.14.34.28.48.45.48.62s-.31.54-1.26,1V15.6c0,3.2,0,6.7.13,11.36a3.58,3.58,0,0,1-.44,2.21c-.58.85-1.8,1.43-3.6,1.73a5.69,5.69,0,0,1-1.12.14c-.38,0-.45-.1-.51-.61a2.71,2.71,0,0,0-1.84-2.28,21.62,21.62,0,0,0-4.66-1.22l0-.45c2.85.17,3.46.21,7.31.31.57,0,.71-.1.71-.58V18.39Zm12.44-7.72h-12a67.66,67.66,0,0,1-.31,7h12.34Zm0-7.64h-12c0,2.51,0,2.51,0,6.93h12Z"/><path class="cls-1" d="M719.78,28a14.76,14.76,0,0,1,2.28-6.63c1.29-2,2.86-3.57,6.73-6.8a9.92,9.92,0,0,0,2.82-3.13,6.94,6.94,0,0,0,.72-3.12c0-3-1.6-4.9-4-4.9a3.08,3.08,0,0,0-3.16,2.28,9.45,9.45,0,0,0-.37,3.09c-.07,1.33-.68,1.87-2.18,1.87s-2.41-.58-2.41-1.8A5.86,5.86,0,0,1,723,4.05a9.85,9.85,0,0,1,5.64-1.53c5.14,0,8.2,2.34,8.2,6.29a6.31,6.31,0,0,1-1.53,4.28,14.55,14.55,0,0,1-3.74,2.79c-4.49,2.51-5.51,3.19-7.07,4.62a9.12,9.12,0,0,0-2.69,3.84h9.86c2.79,0,3.77-.88,4.39-3.94l1.15.24L736,28Z"/><path class="cls-1" d="M745.35,5.88a8.17,8.17,0,0,1,13.16,0A17.28,17.28,0,0,1,761,15.54a17,17,0,0,1-2.48,9.62,8.12,8.12,0,0,1-13.16,0,17.55,17.55,0,0,1-2.48-9.62A17.34,17.34,0,0,1,745.35,5.88Zm3.13,18.84c.75,2,1.9,3,3.47,3,1.73,0,2.92-1.15,3.67-3.53a29.4,29.4,0,0,0,.88-8.6c0-4.42-.34-7.24-1.09-9.18s-1.87-3-3.46-3c-3.17,0-4.56,3.71-4.56,12.14C747.39,19.85,747.73,22.78,748.48,24.72Z"/><path class="cls-1" d="M779.62,29.68c0,.78-.47.92-2.82.92-1.22,0-1.39-.1-1.39-.82.2-6.05.23-9.72.23-17.47,0-7,0-8.64-.2-11.53A35.79,35.79,0,0,1,780,3.06h13L795.09.78c1.36,1,1.77,1.29,3,2.28.34.27.48.44.48.65s-.27.54-1.29,1.08l0,5.44c0,10.17,0,12.38.24,19.08,0,.4-.07.57-.24.71a5.65,5.65,0,0,1-2.55.37c-1.15,0-1.43-.1-1.43-.64V27.61H779.62ZM793.25,3.77H779.62V14.45h13.63ZM779.62,15.16V26.89h13.63V15.16Z"/><path class="cls-1" d="M823.11,2.45a17.3,17.3,0,0,0-2.65,5.27,35.74,35.74,0,0,0-1.4,10.54,33.29,33.29,0,0,0,1.7,11.39,18.41,18.41,0,0,0,2.35,4.45l-.65.54a18.94,18.94,0,0,1-4.39-5.33,22.45,22.45,0,0,1-2.92-11,22.12,22.12,0,0,1,3.37-11.8,19.3,19.3,0,0,1,3.94-4.59Z"/><path class="cls-1" d="M828.58,20h1.36c.48,5.1,2.52,7.51,6.33,7.51,3,0,4.79-1.76,4.79-4.69,0-2.31-1.33-3.7-5.58-5.78A26,26,0,0,1,831,14.62a6.16,6.16,0,0,1-2.79-5.41,6.89,6.89,0,0,1,4-6.35,9.91,9.91,0,0,1,4.36-.79,17.71,17.71,0,0,1,4.14.58,5.73,5.73,0,0,0,1.19.14,5.42,5.42,0,0,0,2-.48l-.27,7.62h-1.36a8.49,8.49,0,0,0-1.15-4.25A5.27,5.27,0,0,0,836.5,3a4.22,4.22,0,0,0-4.42,4.42,3.94,3.94,0,0,0,1.13,2.86c.85.81,1.69,1.32,4.42,2.61,3,1.4,4.48,2.32,5.64,3.47A6.54,6.54,0,0,1,845,21.08a6.74,6.74,0,0,1-2.38,5.47,9.91,9.91,0,0,1-6.22,1.94,20.11,20.11,0,0,1-4.59-.58,7.79,7.79,0,0,0-1.3-.1,10.92,10.92,0,0,0-2.24.31Z"/><path class="cls-1" d="M863.53,28.29a34.08,34.08,0,0,1-.17-3.57,7.38,7.38,0,0,1-6.25,3.74,4.61,4.61,0,0,1-4.39-2.55,9.86,9.86,0,0,1-.65-4.22v-.48l.07-6.86c0-.11,0-.17,0-.28a4.75,4.75,0,0,0-.38-2.48c-.3-.4-.57-.51-2.1-.54v-.82l6.83-.44c-.17,2.45-.24,3.74-.27,6.77l0,3.6v.65a11.52,11.52,0,0,0,.44,4.14,2.29,2.29,0,0,0,2.39,1.67c1.56,0,2.85-1,3.67-2.86a9.68,9.68,0,0,0,.64-4V14.35c0-1.87-.13-2.55-.51-2.93s-.54-.34-2-.37v-.82l6.83-.44c-.2,4.66-.2,4.66-.2,6.8v7.07c0,3,.34,3.5,2.21,3.54V28Z"/><path class="cls-1" d="M880.77,13.16a6.5,6.5,0,0,1,6.05-3.44c2.21,0,3.74.75,4.63,2.31a7.59,7.59,0,0,1,.85,4.19v7.54c0,3,.23,3.37,2.58,3.4V28h-9.25v-.82c2.28,0,2.55-.4,2.55-3.4V16.42c0-3.67-.88-5.2-3-5.2a4,4,0,0,0-3.5,2.24,8,8,0,0,0-.92,3.5v6.8c0,3.06.24,3.37,2.55,3.4V28H874v-.82c2.35,0,2.58-.37,2.58-3.4V14.35c0-2.89-.27-3.27-2.51-3.3v-.82l6.63-.44Z"/><path class="cls-1" d="M899,34.1c2.83-3.91,4-8.77,4-15.84s-1.22-11.9-4-15.81l.65-.58a19.45,19.45,0,0,1,4.42,5.34,22.55,22.55,0,0,1-.44,22.84,19.57,19.57,0,0,1-4,4.59Z"/><path class="cls-1" d="M218.66,75.94a43.87,43.87,0,0,0,9.11-8.66,36,36,0,0,0,3.4-5.41,8.16,8.16,0,0,0,.75-2c5.33,1.09,5.74,1.22,5.74,1.6s-.34.44-1.53.71a18.55,18.55,0,0,0,6.77,5.95A24.71,24.71,0,0,0,251.53,71l0,.37A2.72,2.72,0,0,0,250,72.48a6.77,6.77,0,0,0-1.16,2.41c-.07.24-.17.34-.34.34a9.93,9.93,0,0,1-2.75-1.36,25.55,25.55,0,0,1-6.94-6.05,31.58,31.58,0,0,1-3.19-5.24,33.29,33.29,0,0,1-7.28,8.26,36.8,36.8,0,0,1-9.52,5.48Zm17.85,4.9h3.67c1.09-1.33,1.43-1.73,2.55-3,1.6,1.26,2.11,1.7,3.74,3.06.13.17.2.27.2.38s-.17.23-.44.23h-9.72v7.76h6.66c1.22-1.36,1.6-1.81,2.79-3.13,1.77,1.36,2.31,1.83,4.08,3.33.13.14.2.24.2.3s-.13.21-.34.21H222.77a10.25,10.25,0,0,0-2.31.2L220.15,89a13.15,13.15,0,0,0,2.69.31h9.82V81.55h-5.94a10.9,10.9,0,0,0-2.18.17l-.27-1.19a14.09,14.09,0,0,0,2.48.31h5.91V74.07h-5.43a8.57,8.57,0,0,0-1.84.17l-.27-1.08a12,12,0,0,0,2.17.2H238c1-1.15,1.29-1.5,2.27-2.58,1.57,1.12,2.08,1.49,3.64,2.72.17.17.24.27.24.34s-.17.23-.48.23h-7.2Z"/><path class="cls-1" d="M264.8,89.68c0,.78-.48.92-2.83.92-1.22,0-1.39-.1-1.39-.82.2-6,.24-9.72.24-17.47,0-7,0-8.64-.21-11.53a35.92,35.92,0,0,1,4.56,2.28h12.95c.92-1,1.23-1.29,2.14-2.28,1.36,1,1.77,1.29,3,2.28.34.27.47.44.47.65s-.27.54-1.29,1.08l0,5.44c0,10.17,0,12.38.24,19.08,0,.4-.06.57-.24.71a5.62,5.62,0,0,1-2.54.37c-1.16,0-1.43-.1-1.43-.64V87.61H264.8Zm13.63-25.91H264.8V74.45h13.63ZM264.8,75.16V86.89h13.63V75.16Z"/><path class="cls-1" d="M309.78,87c1.56,0,2-.1,2.55-.41.78-.41,1-1.29,1-3.47V67.51a9.57,9.57,0,0,0-.11-2c-.13-.74-.57-.91-2.31-.91H310v-1c3.22-.27,5.71-.61,8-1-.2,2.42-.31,5.27-.31,8.57v12c0,2.08.21,2.93.82,3.4s.88.44,2.62.48v1H309.78Z"/><path class="cls-1" d="M333.2,87c1.57,0,2-.1,2.55-.41.79-.41,1-1.29,1-3.47V67.51a9.3,9.3,0,0,0-.1-2c-.13-.74-.58-.91-2.31-.91h-.92v-1c3.23-.27,5.71-.61,8-1-.21,2.42-.31,5.27-.31,8.57v12c0,2.08.21,2.93.82,3.4s.88.44,2.61.48v1H333.2Z"/><path class="cls-1" d="M360.1,72.61a2.88,2.88,0,1,1-2.86-2.85A2.85,2.85,0,0,1,360.1,72.61Zm0,13a2.88,2.88,0,1,1-5.75,0,2.88,2.88,0,0,1,5.75,0Z"/><path class="cls-1" d="M372.47,65.88a8.17,8.17,0,0,1,13.16,0,17.28,17.28,0,0,1,2.48,9.66,17,17,0,0,1-2.48,9.62,8.12,8.12,0,0,1-13.16,0A17.63,17.63,0,0,1,370,75.54,17.34,17.34,0,0,1,372.47,65.88Zm3.13,18.84q1.13,3,3.47,3c1.73,0,2.92-1.15,3.67-3.53a29.33,29.33,0,0,0,.89-8.6c0-4.42-.35-7.24-1.09-9.18s-1.87-3-3.47-3c-3.16,0-4.56,3.71-4.56,12.14C374.51,79.85,374.85,82.78,375.6,84.72Z"/><path class="cls-1" d="M395.9,65.88a8.17,8.17,0,0,1,13.16,0,17.28,17.28,0,0,1,2.48,9.66,17,17,0,0,1-2.48,9.62,8.12,8.12,0,0,1-13.16,0,17.55,17.55,0,0,1-2.48-9.62A17.34,17.34,0,0,1,395.9,65.88ZM399,84.72q1.13,3,3.46,3c1.74,0,2.93-1.15,3.68-3.53a29.4,29.4,0,0,0,.88-8.6c0-4.42-.34-7.24-1.09-9.18s-1.87-3-3.47-3c-3.16,0-4.55,3.71-4.55,12.14C397.94,79.85,398.28,82.78,399,84.72Z"/><path class="cls-1" d="M427,76.62h8v2.86h-8Z"/><path class="cls-1" d="M454,87c1.56,0,2-.1,2.55-.41.78-.41,1-1.29,1-3.47V67.51a9.3,9.3,0,0,0-.1-2c-.14-.74-.58-.91-2.31-.91h-.92v-1c3.23-.27,5.71-.61,8-1-.2,2.42-.3,5.27-.3,8.57v12c0,2.08.2,2.93.81,3.4s.89.44,2.62.48v1H454Z"/><path class="cls-1" d="M481.68,79.07c-4.52,0-7.62-3.19-7.62-7.88,0-5.21,3.51-8.67,8.78-8.67a7.69,7.69,0,0,1,6.76,3.33c1.5,2.21,2.14,4.93,2.14,8.8,0,9-3.33,13.87-9.58,13.87-4.15,0-7.25-1.83-7.25-4.31,0-1.33.92-2.11,2.45-2.11a2.4,2.4,0,0,1,1.87.64c.21.31.21.38.31,1.84.13,2,1.09,3.09,2.72,3.09,2,0,3.5-1.56,4.21-4.48a29,29,0,0,0,.72-6.46A7.24,7.24,0,0,1,481.68,79.07Zm4.89-3.5a6.69,6.69,0,0,0,.69-3.43A17.07,17.07,0,0,0,486.17,66a3.83,3.83,0,0,0-3.44-2.58c-2.58,0-4.14,2.89-4.14,7.71a9,9,0,0,0,1.32,5.31A3.55,3.55,0,0,0,482.8,78,4.52,4.52,0,0,0,486.57,75.57Z"/><path class="cls-1" d="M507.69,72.61a2.88,2.88,0,1,1-2.86-2.85A2.85,2.85,0,0,1,507.69,72.61Zm0,13a2.88,2.88,0,1,1-5.75,0,2.88,2.88,0,0,1,5.75,0Z"/><path class="cls-1" d="M520.07,65.88a8.16,8.16,0,0,1,13.15,0,17.19,17.19,0,0,1,2.49,9.66,17,17,0,0,1-2.49,9.62,8.11,8.11,0,0,1-13.15,0,17.55,17.55,0,0,1-2.49-9.62A17.34,17.34,0,0,1,520.07,65.88Zm3.12,18.84q1.13,3,3.47,3c1.74,0,2.93-1.15,3.67-3.53.62-1.87.89-4.59.89-8.6,0-4.42-.34-7.24-1.09-9.18s-1.87-3-3.47-3c-3.16,0-4.55,3.71-4.55,12.14C522.11,79.85,522.45,82.78,523.19,84.72Z"/><path class="cls-1" d="M543.49,65.88a8.17,8.17,0,0,1,13.16,0,17.28,17.28,0,0,1,2.48,9.66,17,17,0,0,1-2.48,9.62,8.12,8.12,0,0,1-13.16,0A17.63,17.63,0,0,1,541,75.54,17.34,17.34,0,0,1,543.49,65.88Zm3.13,18.84c.75,2,1.9,3,3.47,3,1.73,0,2.92-1.15,3.67-3.53a29.4,29.4,0,0,0,.88-8.6c0-4.42-.34-7.24-1.08-9.18s-1.87-3-3.47-3c-3.16,0-4.56,3.71-4.56,12.14C545.53,79.85,545.87,82.78,546.62,84.72Z"/><path class="cls-1" d="M236.68,174.11h7c1.25-1.36,1.63-1.8,2.82-3.16,1.8,1.36,2.38,1.83,4.25,3.4.13.1.2.2.2.27s-.13.2-.27.2h-14V179c.06,6.56.1,10.34.17,11.25v.24c0,.68-.82.95-3,.95-1.06,0-1.4-.2-1.4-.78v-.27c.21-4.56.28-7.72.28-11.36v-4.18H223c-1,0-2.14.07-3.16.17l-.23-1.19a22.32,22.32,0,0,0,3.39.31h9.73v-8a93.09,93.09,0,0,1-11.32.95l-.07-.38a96.25,96.25,0,0,0,13.77-3.6,23.61,23.61,0,0,0,6.66-3.13c4.05,2.52,4.56,2.89,4.56,3.3,0,.24-.28.37-.72.37a7.79,7.79,0,0,1-1.22-.17,54.8,54.8,0,0,1-7.75,2Z"/><path class="cls-1" d="M269.69,180.53a18.85,18.85,0,0,0-.13-2.1c.95.06,1.69.13,2.17.17,2.25.13,2.72.27,2.72.64s-.3.48-1.22.78v1.26h7.58c1.09-1.12,1.42-1.46,2.55-2.51,1.56,1.19,2.07,1.56,3.6,2.78.14.14.17.21.17.28s-.14.17-.34.17H273.67a10.07,10.07,0,0,0,3.81,2.34c3,1.16,5.88,1.63,10.71,1.87l0,.38a4.22,4.22,0,0,0-2.34,2.85c-.28.85-.31.92-.62.92a19.65,19.65,0,0,1-10.57-6,10.53,10.53,0,0,1-1.39-2v2.72c0,1.73,0,3,.13,5.5,0,.75-.44.92-2.34.92-1.29,0-1.46-.1-1.46-.81.1-2.11.13-3.23.13-4.93V183.9a23.58,23.58,0,0,1-7,4.66,36.82,36.82,0,0,1-7,2.27l-.11-.37a35.4,35.4,0,0,0,7.65-4.69A23.76,23.76,0,0,0,267,182h-7.61a12.19,12.19,0,0,0-2.69.23l-.17-1.22a11.81,11.81,0,0,0,2.89.27h10.27Zm-8.29-10.84a24.6,24.6,0,0,0-.17-3.4c4.75.41,4.89.44,4.89.85s-.31.48-1.22.75v1.8h4.45c0-2.24,0-2.24-.1-3.3,1,.1,1.83.17,2.34.24,1.91.14,2.42.31,2.42.68s-.24.41-1.16.65v1.73h4.69v-.27c0-1.26,0-1.8-.1-3,4.12.38,4.79.51,4.79,1,0,.24-.27.38-1.18.65v1.7h1.25c.89-1.09,1.19-1.39,2.11-2.45a41.74,41.74,0,0,1,3.2,2.72c.13.14.17.21.17.27s-.14.17-.34.17H281c0,1.91,0,3.33,0,4.32a.66.66,0,0,1-.14.51,4,4,0,0,1-2.14.34c-1.06,0-1.23-.07-1.23-.51v-.71h-4.69v.57c0,.58-.41.72-2.21.72-1.19,0-1.29-.07-1.32-.65,0-1.43,0-2,0-3V170.4H264.9v6.7h15.74c1-1,1.29-1.33,2.31-2.35a39.55,39.55,0,0,1,3.36,2.59c.14.13.17.2.17.27s-.13.2-.37.2H264.9v.58c0,.65-.38.78-2.45.78-1,0-1.22-.1-1.22-.68.1-3,.1-3,.17-8.09h-2.66a13,13,0,0,0-2.41.21l-.17-1.23a11.61,11.61,0,0,0,2.62.31Zm3.4-6.63v-1a22.5,22.5,0,0,0-.07-2.27c1,.1,1.87.17,2.38.2,2,.17,2.58.31,2.58.68s-.27.44-1.29.75c0,.81,0,.85,0,1.63h6.12v-.34l0-.68a16.43,16.43,0,0,0-.14-2.24c1,.1,1.87.17,2.38.2,2.11.2,2.62.34,2.62.71s-.37.51-1.29.75v1.6h3.26c1-1.19,1.4-1.53,2.42-2.62,1.59,1.19,2.1,1.57,3.63,2.82a.45.45,0,0,1,.17.31c0,.14-.13.2-.41.2h-9.07c0,.51,0,.85,0,1.67,0,.65-.27.71-2.41.71-1.09,0-1.26-.06-1.26-.54v-.07c0-.92,0-1,0-1.77h-6.12c0,.34,0,.92,0,1.74,0,.54-.34.64-2.35.64-1.15,0-1.32-.06-1.32-.61,0-.81,0-1.09.07-1.77h-5.68a11,11,0,0,0-2.59.24l-.2-1.22a13.45,13.45,0,0,0,2.79.27Zm8.05,7.34v3.23h4.69V170.4Z"/><path class="cls-1" d="M309.27,170.23a19.81,19.81,0,0,0,11.32,14.42,20.35,20.35,0,0,0,3.94,1.32l0,.45a5.69,5.69,0,0,0-3.3,3.46c-.17.48-.31.62-.51.62a5.74,5.74,0,0,1-2.14-1.19,22.56,22.56,0,0,1-7.72-10.48,36.08,36.08,0,0,1-1.9-7.48c-.58,5.65-2.38,9.8-5.68,13.09a25.26,25.26,0,0,1-7.21,5c-1.22.57-2.11.91-4.08,1.63l-.2-.44c5.06-3.23,7.55-5.58,9.69-9a26,26,0,0,0,3.5-11.43h-9a18.93,18.93,0,0,0-3.16.24l-.17-1.26a17.42,17.42,0,0,0,3.36.31h9c.13-1.67.17-3.23.17-5.47a31.13,31.13,0,0,0-.17-3.61c1.22.1,2.14.17,2.75.24,2.38.17,3.09.37,3.09.82s-.37.57-1.46.95c-.1,3.64-.13,5-.3,7.07h7.61l2.59-3.3c1.9,1.43,2.44,1.87,4.25,3.37.17.2.23.3.23.41s-.17.23-.4.23Z"/><path class="cls-1" d="M353.57,179.38l2.68-3c1.74,1.33,2.25,1.74,3.88,3.1a.74.74,0,0,1,.2.37c0,.17-.17.27-.47.27h-13.4v3.81l0,4.35a2.52,2.52,0,0,1-1.3,2.55,8.83,8.83,0,0,1-3.67.85c-.44,0-.54-.1-.61-.65a2.56,2.56,0,0,0-.95-1.76c-.65-.55-1.16-.72-4.66-1.53v-.44c4.73.3,4.73.3,6.7.37h.1c.34,0,.48-.14.48-.51v-7H331.84a16,16,0,0,0-2.68.21l-.21-1.19a13.76,13.76,0,0,0,2.89.27h10.75v-.55a24.42,24.42,0,0,0-.17-3.4c1.73.21,1.73.21,3.6.51a24.55,24.55,0,0,0,3.13-3.7H337.66a14.64,14.64,0,0,0-2.45.2l-.2-1.15a14.34,14.34,0,0,0,2.61.23h11.63c.78-.81,1-1.05,1.8-1.83,1.36.92,1.8,1.22,2.59,1.83a19.6,19.6,0,0,0,1-3.4h-21v.31a13.82,13.82,0,0,1-.51,3.74,2.77,2.77,0,0,1-2.38,2c-1,0-1.8-1.19-1.8-2.59a1.27,1.27,0,0,1,.48-1.15c.1-.11.1-.11.88-.55,1.63-.91,2.31-2.21,2.58-4.79h.45a21.72,21.72,0,0,1,.27,2.31h14.65a28.41,28.41,0,0,0,3.09-7.1c2.42.74,4.36,1.39,4.9,1.66.31.14.44.31.44.48,0,.37-.47.54-1.39.54H355a44.81,44.81,0,0,1-5.4,4.42h4.72c.92-.92,1.19-1.19,2.14-2,1.53,1.12,2,1.5,3.47,2.62.38.31.51.51.51.71,0,.45-.58.61-2.11.61a31.24,31.24,0,0,1-3.43,2.25,6.79,6.79,0,0,0-.65.41l.45.34c.34.3.51.51.51.68,0,.34-.41.51-1.3.51h-.51a40.84,40.84,0,0,1-6.05,2.68c.31.1.41.24.41.41,0,.34-.31.51-1.26.82v2Zm-19.38-18.7c4,1.53,5.61,2.62,5.61,4s-1.12,2.69-2.18,2.69c-.54,0-.85-.34-1.15-1.36a11.86,11.86,0,0,0-2.48-5Zm7-.54c3.7,1.25,5.61,2.61,5.61,4s-1.26,2.89-2.45,2.89c-.58,0-.78-.27-1.16-1.73a11.11,11.11,0,0,0-2.27-4.83Z"/><path class="cls-1" d="M388.21,184.75c.85-.88,1.64-1.73,2.38-2.52,1.6,1.19,2.11,1.6,3.64,2.79.14.14.17.21.17.27s-.13.17-.37.17H382.77v4.08h8.1c1.19-1.25,1.59-1.66,2.75-2.89,1.7,1.33,2.21,1.77,3.81,3.13.13.14.17.2.17.27s-.14.21-.34.21H368.4a12.64,12.64,0,0,0-2.73.27l-.23-1.36a11.75,11.75,0,0,0,3,.37h10.77v-4.08h-7.51a11.16,11.16,0,0,0-2.35.21l-.2-1.23a10.53,10.53,0,0,0,2.55.31h7.51v-1.29a26,26,0,0,0-.1-2.89c1.09.1,1.9.2,2.45.24a11.85,11.85,0,0,1,2.34.34,10.78,10.78,0,0,0-1.15-3.78l.27-.17c2.51,1.16,4,2.55,4,3.71a2.6,2.6,0,0,1-2.18,2.28.8.8,0,0,1-.81-.65,5.4,5.4,0,0,1-.07-.68,4.45,4.45,0,0,1-1.16.41v2.48Zm-5.47-12.1H389c.95-1,1.25-1.26,2.21-2.18,1.53,1,2,1.33,3.53,2.41.17.14.24.21.24.28s-.14.2-.34.2h-11.9v2.79h8.16c1.09-1.06,1.43-1.4,2.48-2.38a36.39,36.39,0,0,1,3.57,2.58c.14.1.24.21.24.31s-.17.2-.38.2H368.53a10,10,0,0,0-2.21.27l-.24-1.29a10,10,0,0,0,2.45.31h10.64v-2.79h-8.23a9.24,9.24,0,0,0-2.14.24l-.2-1.26a10.12,10.12,0,0,0,2.34.31h8.23v-2.82h-5.95v.4c0,.61-.41.75-2.34.75-1.16,0-1.33-.07-1.36-.61.13-3.26.13-3.74.13-5.07,0-2.1-.07-3.91-.17-5.5,1.77.71,2.28.95,4,1.8h15.13c.85-.78,1.09-1.06,1.91-1.8,1.19.74,1.53,1,2.72,1.8.3.2.4.34.4.51s-.3.51-1.25.95v1.26c0,1.36,0,3,.1,5.2v.07c0,.34,0,.47-.21.58a5.42,5.42,0,0,1-2.24.33c-1,0-1.16-.06-1.19-.47v-.2h-6.12Zm-11.18,4.86a9,9,0,0,1-1.16,4.72,3.25,3.25,0,0,1-2.48,1.6c-1.06,0-1.67-.75-1.67-2,0-1.05.38-1.5,1.46-1.77a4.41,4.41,0,0,0,3.47-2.62Zm7.61-15.2h-5.95v2.93h5.95Zm0,3.64h-5.95v3.16h5.95Zm-3.6,11.29c2,1.39,3.09,2.65,3.09,3.8a2.53,2.53,0,0,1-2.31,2.21c-.61,0-.92-.4-.92-1.19,0,0,0,0,.1-1.56a4.91,4.91,0,0,0,0-.78,14.25,14.25,0,0,0-.24-2.35Zm13.29-12v-2.93h-6.12v2.93Zm-6.12,3.87h6.12V166h-6.12Zm6.56,8.3c4.69,1.36,6.26,2.31,6.26,3.84,0,1.15-.95,2.38-1.87,2.38-.58,0-.89-.34-1.43-1.5a11.62,11.62,0,0,0-3.2-4.45Z"/><path class="cls-1" d="M409.81,189.65c0,.78-.55,1-2.52,1-1.22,0-1.5-.13-1.5-.78.14-4.15.21-10.34.21-16.52,0-4.46-.07-8.74-.17-12.28,1.9.89,2.48,1.19,4.42,2.21H429c.92-1,1.19-1.29,2.18-2.24,1.32.95,1.73,1.22,2.95,2.18.28.23.38.37.38.61s-.1.47-1.29,1.15v8c0,5.54.06,11.86.2,16.56,0,.47-.14.68-.51.85a9.1,9.1,0,0,1-2.24.23c-1,0-1.26-.17-1.26-.85v-2H409.81Zm7.71-15.13V164h-7.71v10.54Zm0,.74h-7.71V187h7.71ZM429.39,164H421.3v10.54h8.09Zm-8.09,11.28V187h8.09V175.26Z"/><path class="cls-1" d="M452.71,190.43a16,16,0,0,0,6.46-7.18c1.23-2.78,1.7-5.91,1.77-11.08a43.42,43.42,0,0,0-6.87.88v1.84c0,1.09,0,3.67.07,4.79v.21c0,1.77-.44,2.58-1.39,2.58-.58,0-1.16-.44-1.74-1.26a4.19,4.19,0,0,1-.74-2,2.63,2.63,0,0,1,.23-1,12.87,12.87,0,0,0,.58-4.53,11.28,11.28,0,0,0-3.6,1.3,3.54,3.54,0,0,1-1.36.4c-.85,0-2.14-1.12-3.06-2.68a4.13,4.13,0,0,1-.61-1.77,2.88,2.88,0,0,1,.06-.41,3.91,3.91,0,0,0,3.3,1.74,35.75,35.75,0,0,0,5.24-.75,20,20,0,0,0-.41-4.79,3.78,3.78,0,0,0-2.38-2.35,1.76,1.76,0,0,1,1.12-.34,8.93,8.93,0,0,1,4.15,1.46c.88.58,1.19,1,1.19,1.6a2.58,2.58,0,0,1-.24,1.05,12.34,12.34,0,0,0-.41,2.93c1.19-.21,2-.34,3.5-.51l2.42-.28a7.46,7.46,0,0,0,.95-.1c0-.51,0-1.39,0-2.68,0-2.42-.17-3.44-.68-4.05a4.15,4.15,0,0,0-2.49-1.32,2.32,2.32,0,0,1,1.63-.48,10.22,10.22,0,0,1,4.29,1c1,.48,1.46,1,1.46,1.67a1.75,1.75,0,0,1-.2.81c-.48,1.06-.62,2-.75,4.63a9.93,9.93,0,0,0,3.77-.75,1.86,1.86,0,0,1,.92-.24,5.08,5.08,0,0,1,2.38.88c.85.55,1.26,1.06,1.26,1.6a1,1,0,0,1-1.09,1,3.85,3.85,0,0,1-.54,0c-1.67-.17-3.57-.24-5.68-.24h-1.09a46.12,46.12,0,0,1-.48,7,12.71,12.71,0,0,1-5.88,9.28,15.83,15.83,0,0,1-4.86,2.38Z"/><path class="cls-1" d="M486.37,190.6a25.11,25.11,0,0,0,5.1-8.13,24.83,24.83,0,0,0,1.74-7.24,1.91,1.91,0,0,0-.55-1.56,25.4,25.4,0,0,0-7.1,2,3,3,0,0,1-1.46.44c-.89,0-1.84-.71-3-2.21a3.88,3.88,0,0,1-1-2.17,1.75,1.75,0,0,1,.17-.71,3.66,3.66,0,0,0,3.3,1.86c1.05,0,1.63-.06,6.39-.81,2.68-.41,5.84-.82,10.33-1.29a8.8,8.8,0,0,0,3-.72,2.3,2.3,0,0,1,1-.27,5.18,5.18,0,0,1,2.17.71c1.29.65,1.94,1.36,1.94,2s-.55,1.16-1.43,1.16a2.57,2.57,0,0,1-.61-.07,43.69,43.69,0,0,0-6.32-.51,45.92,45.92,0,0,0-5,.24c2,1.19,2.31,1.53,2.31,2.41,0,1.53-1.43,5.17-3,7.72a21.44,21.44,0,0,1-7.68,7.41ZM485.9,163a5.44,5.44,0,0,0,4.08,1.83,20,20,0,0,0,4.76-.74,10.2,10.2,0,0,0,3-1.26,1.93,1.93,0,0,1,1.06-.31,3.46,3.46,0,0,1,1.83.68c.85.58,1.26,1.12,1.26,1.67s-.44,1-2,1.32a45.2,45.2,0,0,1-8.43,1c-2.65,0-4.39-1.15-5.92-4Z"/><path class="cls-1" d="M523.88,190.33a37.53,37.53,0,0,0,8-8.2,36.43,36.43,0,0,0,5.41-10.3,58.73,58.73,0,0,0-9,1.7,16,16,0,0,0-3.95,1.33,2.89,2.89,0,0,1-1.29.34c-1.43,0-3.84-3-3.84-4.8a1.67,1.67,0,0,1,.2-.78,3.82,3.82,0,0,0,3.57,2.21c1.29,0,7.31-.85,11.76-1.63,2-.34,2.11-.37,2.89-.92a1.61,1.61,0,0,1,1-.27,4.63,4.63,0,0,1,2.21,1.29c1.05.92,1.56,1.63,1.56,2.18s-.14.64-.65,1.05a6.14,6.14,0,0,0-1.56,2.21c-4,7.51-9,12.21-16.08,14.93ZM523,162.82a4.81,4.81,0,0,0,3.74,1.74,18.33,18.33,0,0,0,7.82-2,1.37,1.37,0,0,1,.88-.27,5.68,5.68,0,0,1,2.69,1.09c.61.44.85.82.85,1.29,0,.78-.55,1.06-2.62,1.4a73.94,73.94,0,0,1-8.06.88c-2.65,0-4-1-5.68-3.91Z"/><path class="cls-1" d="M552.81,181.42a63.14,63.14,0,0,0,12.68-10.1c3.64-3.67,5.71-6.39,5.71-7.51,0-.72-.78-1.6-2-2.25a4.06,4.06,0,0,1,1.09-.13,6.81,6.81,0,0,1,3.43,1.15c1.57.92,2.49,1.94,2.49,2.72,0,.62-.17.82-1.36,1.67-.14.1-.14.1-2.21,2.07-2.38,2.21-2.38,2.21-4.8,4.29a8.21,8.21,0,0,1,2.35,2c.3.48.34.82.37,3.33,0,1.57,0,2,.24,8.47,0,.48,0,1,0,1.29,0,1.39-.44,2.08-1.39,2.08-1.26,0-3.13-2.08-3.13-3.51a3,3,0,0,1,.21-1.08,39.57,39.57,0,0,0,.75-8.78c0-1.73-.11-2.21-.58-2.85a57.49,57.49,0,0,1-7.28,4.83,41.88,41.88,0,0,1-6.39,2.68Z"/><path class="cls-1" d="M598.27,161.46a9.89,9.89,0,0,1,3.74,1c1.49.75,2.21,1.46,2.21,2.24a1.69,1.69,0,0,1-.31.92,4.29,4.29,0,0,0-.58,2.24c-.07.68-.13,2.89-.2,4.69a25.49,25.49,0,0,1,8.19,1.67c1.74.78,2.48,1.8,2.48,3.33s-.61,2.42-1.49,2.42c-.51,0-.72-.14-1.6-1.13a19.42,19.42,0,0,0-7.58-5.3v5.34c0,2.85,0,2.85.1,6.9,0,.58,0,1,0,1.63a6.16,6.16,0,0,1-.2,2,1.24,1.24,0,0,1-1.19.85A2.39,2.39,0,0,1,600,189.1a5.19,5.19,0,0,1-1.23-2.75,3.54,3.54,0,0,1,.31-1.36c.58-1.67.78-5.61.78-14.32,0-4.89-.1-6.18-.61-7.1a4.18,4.18,0,0,0-2.35-1.77A2.36,2.36,0,0,1,598.27,161.46Z"/><path class="cls-1" d="M628.12,169a7.17,7.17,0,0,0,4,1.19,22.39,22.39,0,0,0,5.47-1A22.35,22.35,0,0,0,636,164c-.58-1.06-1.33-1.43-3.13-1.6a3.44,3.44,0,0,1,2.62-.82,13,13,0,0,1,3.16.48c1.36.37,1.87.85,1.87,1.73a4.19,4.19,0,0,1-.17,1.06,5.23,5.23,0,0,0-.07,1,12.74,12.74,0,0,0,.27,2.42,15,15,0,0,0,4.29-2.18,1.73,1.73,0,0,1,1.32-.54,4.81,4.81,0,0,1,2,.47c.61.31.92.68.92,1.13s-.48,1-1.74,1.46c-1,.34-4.89,1.63-6.36,2.07.31,1.8.41,2.18,1,4.9,5.1-1.4,5.78-1.6,6.84-2.32a1.9,1.9,0,0,1,1.26-.51,7,7,0,0,1,3,.92,1.35,1.35,0,0,1,.85,1.26,1,1,0,0,1-.71.92,6.39,6.39,0,0,1-2,.24,52.7,52.7,0,0,0-8.8,1.42c1.36,5.38,1.7,6.77,2.24,8.71a9.21,9.21,0,0,1,.51,2.65c0,1-.51,1.73-1.32,1.73a3.2,3.2,0,0,1-1.94-1.12,4,4,0,0,1-1.4-2.45,6.22,6.22,0,0,1,.07-.85,3.14,3.14,0,0,0,0-.68,38.06,38.06,0,0,0-1-7.17,34.77,34.77,0,0,0-6.83,2.75c-1,.62-1.19.72-1.64.72-1.63,0-4.18-2.62-4.18-4.25a2.38,2.38,0,0,1,.07-.58,4.07,4.07,0,0,0,3.09,1.63,17.4,17.4,0,0,0,4.19-.88c1.73-.51,1.73-.51,3.43-1,.54-.13,1.05-.27,1.5-.41-.45-2.1-.75-3.6-1.09-4.93a20.08,20.08,0,0,1-5,.86c-2,0-3.71-1-5.34-2.93Z"/><path class="cls-1" d="M679.56,180a31.06,31.06,0,0,0,3.77-5.1,4.72,4.72,0,0,0,.48-1.09c0-.1-.07-.17-.27-.17a59.93,59.93,0,0,0-7.45,2.21c.89,3.81,1.3,5.3,3.13,11.86a5.53,5.53,0,0,1,.27,1.47c0,.78-.41,1.25-1.09,1.25-1.12,0-2.92-1.93-2.92-3.09v-.2a2.45,2.45,0,0,0,0-.48,64.67,64.67,0,0,0-1.71-10,18,18,0,0,0-3.91,1.91,1.83,1.83,0,0,1-1,.41c-1.22,0-3.4-2.49-3.4-3.88a3.63,3.63,0,0,1,.1-.58,2.9,2.9,0,0,0,2.52,1.46,24.08,24.08,0,0,0,5.2-1.22c-1.22-4.83-1.7-5.54-4-5.85a2.52,2.52,0,0,1,2-.68,10.67,10.67,0,0,1,3.46.62,1.23,1.23,0,0,1,.92,1.15c0,.14,0,.14-.13.54a3.75,3.75,0,0,0-.14,1,15.78,15.78,0,0,0,.34,2.58c.58-.2.58-.2,3.53-1s3.4-1,4.22-1.56a1.74,1.74,0,0,1,1-.38,5.13,5.13,0,0,1,2.61,1.5c.89.71,1.3,1.29,1.3,1.8s-.17.71-1.3,1.05a4.84,4.84,0,0,0-1.25.79c-1.81,1.29-4.56,3.12-6.06,4Z"/><path class="cls-1" d="M702,165.17c3.8.61,5.84,1.19,7.44,2.21a3.2,3.2,0,0,1,1.67,2.92c0,1.6-.79,2.82-1.84,2.82-.58,0-.92-.27-1.43-1.15a15.92,15.92,0,0,0-6-6.43Zm25.83,2a36.27,36.27,0,0,1-7.65,10.54,54.6,54.6,0,0,1-9.86,7.75,7.57,7.57,0,0,0-1.83,1.5,1.9,1.9,0,0,1-1.43.85c-.88,0-2.14-1-3.33-2.49a6.44,6.44,0,0,1-1.63-3.77,2.54,2.54,0,0,1,.17-.92c.92,1.57,2,2.52,3,2.52,1.42,0,5.88-2.35,9.92-5.24a66.85,66.85,0,0,0,12.28-10.94Z"/><path class="cls-1" d="M733.86,185.7a37,37,0,0,0,7.14-8.19c1.8-2.79,2.79-4.93,2.79-6,0-.78-.65-1.49-2.08-2.17a2.35,2.35,0,0,1,1-.27,7.2,7.2,0,0,1,3.81,1.49c1.43,1,2.11,1.74,2.11,2.42a1.38,1.38,0,0,1-.65,1.08,5.92,5.92,0,0,0-1.22,1.3c-3.6,4.93-8.33,8.87-12.75,10.6Zm18.7-16.49a28.35,28.35,0,0,1,8.84,6.19c2.14,2.31,2.85,3.67,2.85,5.51,0,2.11-1,3.7-2.17,3.7-.78,0-1-.3-1.53-1.87a29.11,29.11,0,0,0-8.3-13.22ZM763.85,166a3.66,3.66,0,0,1-3.64,3.68,3.68,3.68,0,1,1,0-7.35A3.66,3.66,0,0,1,763.85,166Zm-6.12,0a2.47,2.47,0,1,0,2.44-2.48A2.43,2.43,0,0,0,757.73,166Z"/><path class="cls-1" d="M771.6,188.42a46.46,46.46,0,0,0,10.1-8.67A54.73,54.73,0,0,0,790.13,167a35.65,35.65,0,0,0-9.11,2.65,2.49,2.49,0,0,1-1.29.41c-.79,0-1.57-.61-2.45-1.91a5.66,5.66,0,0,1-1.12-2.92,1.44,1.44,0,0,1,.23-.85c1,1.7,1.94,2.31,3.57,2.31a56.57,56.57,0,0,0,7.38-1.08c2.24-.45,2.45-.55,3.3-1.09a1.47,1.47,0,0,1,.92-.31,5.16,5.16,0,0,1,2.48,1.53c.75.72,1.09,1.23,1.09,1.7a1,1,0,0,1-.55.85,6.94,6.94,0,0,0-2,2.48,60.26,60.26,0,0,1-4.28,6c4.45,1.94,7.27,3.57,8.8,5.07a4.43,4.43,0,0,1,1.43,3.4c0,1.73-.78,3-1.84,3-.57,0-1-.41-1.39-1.36a24.32,24.32,0,0,0-7.61-9.35,36.61,36.61,0,0,1-8.13,7.45,30.73,30.73,0,0,1-7.79,3.8Z"/><path class="cls-1" d="M247.69,223.2v2.58H222.26V223.2Zm0,6.8v2.65H236.23V248h-2.54V232.65H222.26V230Z"/><path class="cls-1" d="M260,247c1.56,0,2-.1,2.55-.41.78-.41,1-1.29,1-3.47V227.51a9.57,9.57,0,0,0-.11-2c-.13-.74-.57-.91-2.31-.91h-.92v-1c3.23-.27,5.71-.61,8-1-.2,2.42-.31,5.27-.31,8.57v12c0,2.08.21,2.93.82,3.4s.88.44,2.62.48V248H260Z"/><path class="cls-1" d="M289,235c5.17.41,7.82,2.65,7.82,6.56,0,4.35-3.37,7-8.87,7-4.83,0-8.33-2.21-8.33-5.27,0-1.29,1-2,2.55-2a2.05,2.05,0,0,1,1.73.65c.2.27.2.34.27,1.9a5.28,5.28,0,0,0,.92,2.72,3.52,3.52,0,0,0,2.79,1.16c2.82,0,4.42-2.28,4.42-6.22,0-2.35-.65-4-1.87-4.93A8.11,8.11,0,0,0,286,235.4h-1v-1.05h1c3.84,0,5.85-2,5.85-5.88,0-3.3-1.26-5.07-3.67-5.07a2.81,2.81,0,0,0-2.69,1.43,6.24,6.24,0,0,0-.68,2.75c0,1.12-.1,1.36-.41,1.7a2.5,2.5,0,0,1-1.77.51c-1.56,0-2.38-.58-2.38-1.67,0-3.16,3.51-5.6,8-5.6a9.6,9.6,0,0,1,6.05,1.87,5.52,5.52,0,0,1,1.87,4.18c0,3.33-2.59,5.54-7.14,6.12Z"/><path class="cls-1" d="M305.53,247c1.56,0,2-.1,2.55-.41.78-.41,1-1.29,1-3.47V227.51a11.36,11.36,0,0,0-.1-2c-.14-.74-.58-.91-2.32-.91h-.91v-1c3.23-.27,5.71-.61,8-1-.2,2.42-.3,5.27-.3,8.57v12c0,2.08.2,2.93.81,3.4s.89.44,2.62.48V248H305.53Z"/><path class="cls-1" d="M325.9,236.62h8v2.86h-8Z"/><path class="cls-1" d="M345.44,225.88a8.17,8.17,0,0,1,13.16,0,17.28,17.28,0,0,1,2.48,9.66,17,17,0,0,1-2.48,9.62,8.12,8.12,0,0,1-13.16,0,17.63,17.63,0,0,1-2.48-9.62A17.34,17.34,0,0,1,345.44,225.88Zm3.13,18.84q1.13,3,3.47,2.95c1.73,0,2.92-1.15,3.67-3.53a29.4,29.4,0,0,0,.88-8.6c0-4.42-.34-7.24-1.08-9.18s-1.87-3-3.47-3c-3.16,0-4.56,3.71-4.56,12.14C347.48,239.85,347.82,242.78,348.57,244.72Z"/><path class="cls-1" d="M369.55,225.88a8.17,8.17,0,0,1,13.16,0,17.28,17.28,0,0,1,2.48,9.66,17,17,0,0,1-2.48,9.62,8.12,8.12,0,0,1-13.16,0,17.55,17.55,0,0,1-2.48-9.62A17.34,17.34,0,0,1,369.55,225.88Zm3.13,18.84c.75,2,1.9,2.95,3.47,2.95,1.73,0,2.92-1.15,3.67-3.53a29.4,29.4,0,0,0,.88-8.6c0-4.42-.34-7.24-1.09-9.18s-1.87-3-3.46-3c-3.17,0-4.56,3.71-4.56,12.14C371.59,239.85,371.93,242.78,372.68,244.72Z"/><path class="cls-1" d="M406,243.7c0,2.82.44,3.29,3.06,3.33V248H398.86v-.92c1.59-.07,2-.13,2.38-.47s.71-1.26.71-2.89v-2.42H391v-1.63l11.9-16.9H406v17h3.64v1.53H406ZM402,226.29l-9.45,13.46H402Z"/><path class="cls-1" d="M429.46,243.7c0,2.82.44,3.29,3.06,3.33V248H422.28v-.92c1.6-.07,2-.13,2.38-.47s.72-1.26.72-2.89v-2.42h-11v-1.63l11.9-16.9h3.16v17h3.63v1.53h-3.63Zm-4.08-17.41-9.45,13.46h9.45Z"/><path class="cls-1" d="M470.22,239.34a12.36,12.36,0,0,0,4.76,4A23.31,23.31,0,0,0,484.5,246v.37a4.17,4.17,0,0,0-2.24,2.41,7.88,7.88,0,0,0-.38,1.16c-.07.27-.17.38-.37.38a11.15,11.15,0,0,1-3-1.3,21.45,21.45,0,0,1-8.87-9.35l.07,4.15c.13,5.2.13,5.2.17,6.6,0,.4-.07.61-.28.74a4.89,4.89,0,0,1-2.41.34c-1.05,0-1.22-.1-1.26-.74.07-1.6.21-4.83.21-6.09l0-2.34a29,29,0,0,1-6.87,5.23,34.44,34.44,0,0,1-6.9,2.89l-.2-.44a33.38,33.38,0,0,0,12-10.68h-3.78v.51c0,.38-.1.55-.27.68a4.72,4.72,0,0,1-2.31.38c-.88,0-1.09-.14-1.12-.82.17-3.33.2-4.66.2-7.75a48.45,48.45,0,0,0-.17-5.51c1.74.79,2.25,1,4,1.87h5.34V225H455.81a14,14,0,0,0-2.59.21L453,224a12.68,12.68,0,0,0,2.86.34h10.37a19.73,19.73,0,0,0-.28-4.32c4.66.44,5.17.54,5.17,1,0,.31-.3.54-1.32.88v2.42h7.41c1.15-1.29,1.49-1.67,2.65-2.89,1.66,1.29,2.17,1.7,3.84,3.09.14.14.17.21.17.31s-.14.2-.34.2H469.75v3.67h5.88c.78-.85,1-1.12,1.83-1.9,1.23.82,1.6,1.09,2.72,1.94.38.27.51.44.51.64s-.3.55-1.26,1c0,5.44,0,5.71.11,9.22v.13a.67.67,0,0,1-.24.61,4.62,4.62,0,0,1-2.48.45c-.72,0-.89-.14-1-.65v-.82Zm-4-9.92h-5.72v4.14h5.72Zm0,4.86h-5.72v4.35h5.72Zm9.68-4.86h-6.11v4.14h6.11Zm0,4.86h-6.11v4.35h6.11Z"/><path class="cls-1" d="M488.89,249.75a30.86,30.86,0,0,0,5.3-6.12,23.25,23.25,0,0,0,2.31-4.18c4.25,1.53,4.76,1.73,4.76,2.1s-.3.38-1.63.51a27.94,27.94,0,0,1-4.52,4.42,28.26,28.26,0,0,1-6,3.57ZM514,225.27c1.12-1.26,1.46-1.67,2.58-2.86,1.77,1.3,2.31,1.67,4.12,3.06a.46.46,0,0,1,.13.24c0,.17-.17.27-.37.27H491.85a10.93,10.93,0,0,0-2.08.21l-.23-1.19a8.46,8.46,0,0,0,2.27.27h10.92v-2.45a15.14,15.14,0,0,0-.21-2.72l2.62.21c2.14.17,3,.37,3,.78s-.37.58-1.46.92v3.26Zm-7.17,17.41,0,5.44a2.21,2.21,0,0,1-1,2,6.7,6.7,0,0,1-2.52.88,6.34,6.34,0,0,1-1.29.17c-.34,0-.47-.1-.51-.48-.27-2-.71-2.38-4.62-3.4V247c.58,0,1.05.07,1.36.07,3.13.2,3.13.2,4.45.24.34,0,.48-.11.48-.41v-9.59h-5v.82c0,.34-.17.47-.51.57a8.86,8.86,0,0,1-2.25.24c-.88,0-1.08-.13-1.12-.64.07-1.74.1-2.69.1-4.9,0-3.13,0-4.21-.13-6a38.69,38.69,0,0,1,4.28,2.11h12.68c.78-.88,1-1.16,1.87-2a33.11,33.11,0,0,1,3,2.11c.2.13.3.27.3.41a1,1,0,0,1-.17.33c-.1.07-.44.31-1.08.69v1.76c0,1.74,0,2.59.1,5.41,0,.47-.14.64-.58.75a20.44,20.44,0,0,1-2.38.17c-.65,0-.85-.14-.88-.55v-1.29h-4.59Zm-8.67-6.12H511.4v-6.33H498.14Zm10.94,3.53a34.25,34.25,0,0,1,7.38,3.23,3.85,3.85,0,0,1,1.9,3.1c0,1.63-1,3.33-1.93,3.33-.41,0-.72-.34-1.19-1.29a23.54,23.54,0,0,0-6.36-8Z"/><path class="cls-1" d="M535.06,225.34c.65-.85.85-1.09,1.53-2,.95.88,1.09,1,2,1.9a22.38,22.38,0,0,0,1.56-3.67c3.54,1.63,4,1.9,4,2.24s-.3.44-1.29.51a47.87,47.87,0,0,1-5,7.07h1.49c.78-.95,1-1.22,1.84-2.14,1.12,1,1.46,1.29,2.51,2.35.14.13.17.2.17.3s-.17.21-.4.21H537.3a33.85,33.85,0,0,1-4.62,4.45h5c.75-.88,1-1.12,1.77-1.94,1.22.82,1.56,1.09,2.65,1.94.34.27.44.41.44.58s-.24.44-1,.85c0,7.07,0,8.57.1,12,0,.48-.1.65-.48.78a10.15,10.15,0,0,1-2.21.21c-.71,0-.88-.14-.92-.71v-1.4h-6v1.5c0,.34-.06.51-.23.61a4.74,4.74,0,0,1-2.32.34c-.88,0-1.12-.17-1.12-.85.11-3,.14-4.08.14-6.7v-4.35a32.23,32.23,0,0,1-3.57,1.84l-.2-.38a42.37,42.37,0,0,0,3.74-3,29.69,29.69,0,0,0-.11-3.23c1.23.54,2,.88,2.38,1.09a41.29,41.29,0,0,0,3.33-3.67h-6.52a14.36,14.36,0,0,0-2.32.2l-.2-1.15a14.56,14.56,0,0,0,2.52.23h3.6v-5.37h-2.72a13.45,13.45,0,0,0-2,.14l-.21-1.12a10.08,10.08,0,0,0,2.28.27h2.65v-2a24.88,24.88,0,0,0-.17-3.23,29,29,0,0,1,4.59.51c.27.1.44.27.44.44s-.34.51-1.39.85v3.47Zm2.92,12h-6V242h6Zm-6,5.38v5.54h6v-5.54Zm2.59-16.63v5.37h0a41.7,41.7,0,0,0,3.5-5.37Zm13.22,18.84c0,.3,0,1.25,0,2.72,0,.61,0,1.59,0,2.89,0,.84-.44,1-2.58,1-.89,0-1.12-.17-1.12-.81.06-3.77.13-12.1.13-17.34,0-6.59,0-11.08-.13-13.12,1.76.85,2.27,1.12,3.91,2h4a23.74,23.74,0,0,1,1.81-1.94c1.42,1,1.86,1.36,3.16,2.38.3.31.44.48.44.68s-.41.51-1.4.78a73.33,73.33,0,0,1-6,8.6,14.64,14.64,0,0,1,4.52,3.57,9,9,0,0,1,2.11,5.71c0,2.45-1.09,4.39-2.85,5.17a6.88,6.88,0,0,1-2.18.44c-.41,0-.51-.1-.58-.71-.17-1.7-.92-2.35-3.3-2.82Zm0-1.3c1.5.14,2.79.21,3.61.21s1-.07,1.15-.27a4.58,4.58,0,0,0,.51-2.45,11.76,11.76,0,0,0-1.15-5,8.92,8.92,0,0,0-2.59-3.13,65,65,0,0,0,2.79-10h-4.32Z"/><path class="cls-1" d="M585.58,244.75c.85-.88,1.64-1.73,2.38-2.52,1.6,1.19,2.11,1.6,3.64,2.79.14.14.17.21.17.27s-.14.17-.37.17H580.14v4.08h8.09c1.19-1.25,1.6-1.66,2.76-2.89,1.7,1.33,2.21,1.77,3.81,3.13.13.14.17.2.17.27s-.14.21-.34.21H565.76a12.61,12.61,0,0,0-2.72.27l-.23-1.36a11.73,11.73,0,0,0,3,.37h10.78v-4.08H569a11.16,11.16,0,0,0-2.35.21l-.2-1.23a10.53,10.53,0,0,0,2.55.31h7.51v-1.29a26,26,0,0,0-.1-2.89c1.09.1,1.9.2,2.45.24a11.85,11.85,0,0,1,2.34.34,10.78,10.78,0,0,0-1.15-3.78l.27-.17c2.51,1.16,4,2.55,4,3.71a2.6,2.6,0,0,1-2.18,2.28.8.8,0,0,1-.81-.65,3,3,0,0,1-.07-.68,4.45,4.45,0,0,1-1.16.41v2.48Zm-5.47-12.1h6.25c1-1,1.26-1.26,2.21-2.18,1.53,1,2,1.33,3.54,2.41.17.14.24.21.24.28s-.14.2-.34.2h-11.9v2.79h8.16c1.09-1.06,1.43-1.4,2.48-2.38a37.62,37.62,0,0,1,3.57,2.58c.14.1.24.21.24.31s-.17.2-.38.2H565.9a10,10,0,0,0-2.21.27l-.24-1.29a10,10,0,0,0,2.45.31h10.64v-2.79h-8.23a9.18,9.18,0,0,0-2.14.24l-.2-1.26a10.05,10.05,0,0,0,2.34.31h8.23v-2.82h-5.95v.4c0,.61-.41.75-2.35.75-1.15,0-1.32-.07-1.35-.61.13-3.26.13-3.74.13-5.07,0-2.1-.07-3.91-.17-5.5,1.77.71,2.28.95,4,1.8H586c.85-.78,1.09-1.06,1.91-1.8,1.18.74,1.52,1,2.71,1.8.31.2.41.34.41.51s-.3.51-1.26.95v1.26c0,1.36,0,3,.11,5.2v.07c0,.34,0,.47-.21.58a5.42,5.42,0,0,1-2.24.33c-1,0-1.16-.06-1.19-.47v-.2h-6.12Zm-11.19,4.86a8.92,8.92,0,0,1-1.15,4.72,3.25,3.25,0,0,1-2.48,1.6c-1.06,0-1.67-.75-1.67-2,0-1.05.37-1.5,1.46-1.77a4.42,4.42,0,0,0,3.47-2.62Zm7.62-15.2h-5.95v2.93h5.95Zm0,3.64h-5.95v3.16h5.95Zm-3.6,11.29c2,1.39,3.09,2.65,3.09,3.8a2.53,2.53,0,0,1-2.31,2.21c-.61,0-.92-.4-.92-1.19,0,0,0,0,.1-1.56a4.91,4.91,0,0,0,0-.78,14.25,14.25,0,0,0-.24-2.35Zm13.29-12v-2.93h-6.12v2.93Zm-6.12,3.87h6.12V226h-6.12Zm6.56,8.3c4.69,1.36,6.26,2.31,6.26,3.84,0,1.15-1,2.38-1.87,2.38-.58,0-.89-.34-1.43-1.5a11.62,11.62,0,0,0-3.2-4.45Z"/><path class="cls-1" d="M605.14,249.65c0,.78-.55,1-2.52,1-1.22,0-1.5-.13-1.5-.78.14-4.15.21-10.34.21-16.52,0-4.46-.07-8.74-.17-12.28,1.9.89,2.48,1.19,4.42,2.21h18.73c.92-1,1.19-1.29,2.17-2.24,1.33.95,1.74,1.22,3,2.18.27.23.38.37.38.61s-.11.47-1.3,1.15v8c0,5.54.07,11.86.21,16.56,0,.47-.14.68-.51.85a9.16,9.16,0,0,1-2.24.23c-1,0-1.26-.17-1.26-.85v-2H605.14Zm7.71-15.13V224h-7.71v10.54Zm0,.74h-7.71V247h7.71ZM624.72,224h-8.09v10.54h8.09Zm-8.09,11.28V247h8.09V235.26Z"/><path class="cls-1" d="M642,250.05c0,.65-.21.82-.82.95a11.75,11.75,0,0,1-1.8.11c-1.19,0-1.39-.14-1.39-.85.2-5.58.23-8.57.23-17,0-8.26,0-10.09-.23-12.81a34,34,0,0,1,4.48,2.24h17.48c1.08-1.19,1.42-1.56,2.55-2.75,1.7,1.22,2.21,1.63,3.94,3,.1.14.17.2.17.27s-.14.21-.34.21H642v24.51h18.42c1.19-1.19,1.53-1.6,2.69-2.89,1.7,1.26,2.24,1.7,4,3.09a.51.51,0,0,1,.13.27c0,.14-.17.24-.37.24H642Zm2.95-22.37a67.07,67.07,0,0,1,8.81,5.17,30.48,30.48,0,0,0,3.3-8.33c2.51.85,4.55,1.6,4.86,1.74s.34.27.34.47c0,.44-.44.61-1.67.61a53.3,53.3,0,0,1-4,7.41c3.84,2.89,3.84,2.89,4.48,3.71a4.18,4.18,0,0,1,.92,2.79c0,1.46-.71,2.79-1.53,2.79a1.17,1.17,0,0,1-.78-.48,22.69,22.69,0,0,1-1.39-2.07,36.42,36.42,0,0,0-3.44-4.36A32.15,32.15,0,0,1,643.35,246l-.24-.3a38.53,38.53,0,0,0,5.14-5,40.21,40.21,0,0,0,4.31-5.88,56.34,56.34,0,0,0-7.88-6.73Z"/><path class="cls-1" d="M698.19,227.38a39.69,39.69,0,0,1-1.84,5.74,24.89,24.89,0,0,1-5,8,27.08,27.08,0,0,0,5.74,3.23,26.31,26.31,0,0,0,8.06,2.08l0,.34a4.65,4.65,0,0,0-2.89,2.72,4.9,4.9,0,0,0-.45,1.25.4.4,0,0,1-.37.38,20.45,20.45,0,0,1-4.38-1.8,28.43,28.43,0,0,1-7.86-6,27.48,27.48,0,0,1-7.44,5.2,42.12,42.12,0,0,1-8.57,2.93l-.1-.38a36.8,36.8,0,0,0,9.75-5.88,33,33,0,0,0,4.25-4.28,28.9,28.9,0,0,1-6-13.53H676a19.46,19.46,0,0,0-2.55.2l-.24-1.26a16.5,16.5,0,0,0,2.75.34H686.5v-3.8c0-.72,0-1.33-.14-2.69,1.09.1,1.94.17,2.48.2,2.25.17,3.16.41,3.16.82s-.4.54-1.56.95v4.52h7c1.22-1.42,1.6-1.83,2.82-3.19,1.8,1.39,2.38,1.83,4.18,3.4.17.1.24.2.24.3a.23.23,0,0,1-.24.21Zm-16.49,0a20.07,20.07,0,0,0,2.59,6.08,28.94,28.94,0,0,0,4.42,5.44A28.58,28.58,0,0,0,694,227.38Z"/><path class="cls-1" d="M715.23,237.51a28.23,28.23,0,0,1-5.78,4.38l-.21-.27a43.53,43.53,0,0,0,5.17-7.17,18.61,18.61,0,0,0,2.52-5.95c4.59,1.39,5.2,1.63,5.2,2s-.48.51-1.6.54a28.52,28.52,0,0,1-3.16,4.15c2.41.48,2.79.58,2.79.92s-.34.47-1.26.68v13.46c0,.34,0,.48-.17.61a3.44,3.44,0,0,1-1.87.34c-1.63,0-1.84-.07-1.84-.68.11-3.09.21-6.63.21-8.26ZM728,224.25c0-1.29,0-1.53,0-2a20.49,20.49,0,0,0-.1-2.07c4.59.34,5,.44,5,.88s-.38.54-1.33.78v2.45h3.06c1.16-1.26,1.53-1.63,2.62-2.79,1.6,1.26,2.11,1.67,3.67,3a.74.74,0,0,1,.17.31c0,.13-.2.23-.4.23h-9.12c0,1.4,0,2.38,0,3s-.34.78-2.45.78c-1.12,0-1.22-.06-1.22-.64V225h-6.09c0,1.77,0,1.77,0,2.93,0,.64-.4.75-2.44.75-1.09,0-1.26-.11-1.26-.62,0-1.42,0-1.53,0-3.06h-5.78a14,14,0,0,0-2.44.21l-.17-1.23a11.46,11.46,0,0,0,2.61.31h5.78l0-.68v-1a20.82,20.82,0,0,0-.14-2.42l2.41.21c2,.17,2.69.3,2.69.68s-.41.54-1.36.78v2.48Zm.78,14.92a31,31,0,0,0,6.63-8.6,48.28,48.28,0,0,1,4.35,2.76c.2.13.3.27.3.4s-.27.41-.64.41a5.27,5.27,0,0,1-1-.1,45.56,45.56,0,0,1-9.65,6.12v6.29c0,.82,0,.82,3.4.82s3.81-.07,4.25-.75c.57-.92,1.19-2.48,2.72-6.84l.37.07-.37,5.41v.68c0,.47,0,.51.78.88a1.41,1.41,0,0,1,.85,1.43,1.93,1.93,0,0,1-1.5,1.9c-.88.31-2.65.41-6.83.41-4.66,0-5.44,0-6.19-.37s-1.15-.92-1.22-2.14l.07-6.26v-8.47c0-1.53-.07-3-.17-4.31l2.41.3c2.18.24,2.75.41,2.75.82s-.3.47-1.32.75Z"/><path class="cls-1" d="M763.68,247c1.56,0,2-.1,2.55-.41.78-.41,1-1.29,1-3.47V227.51a11.36,11.36,0,0,0-.1-2c-.14-.74-.58-.91-2.32-.91h-.92v-1a80.1,80.1,0,0,0,8-1c-.2,2.42-.31,5.27-.31,8.57v12c0,2.08.21,2.93.82,3.4s.88.44,2.62.48V248H763.68Z"/><path class="cls-1" d="M784,236.62h8v2.86h-8Z"/><path class="cls-1" d="M801.18,247c1.56,0,2-.1,2.55-.41.78-.41,1-1.29,1-3.47V227.51a11.36,11.36,0,0,0-.1-2c-.14-.74-.58-.91-2.32-.91h-.91v-1c3.23-.27,5.71-.61,8-1-.2,2.42-.31,5.27-.31,8.57v12c0,2.08.21,2.93.82,3.4s.88.44,2.62.48V248H801.18Z"/><path class="cls-1" d="M828.89,239.07c-4.52,0-7.62-3.19-7.62-7.88,0-5.21,3.5-8.67,8.77-8.67a7.69,7.69,0,0,1,6.77,3.33c1.5,2.21,2.14,4.93,2.14,8.8,0,9-3.33,13.87-9.59,13.87-4.14,0-7.24-1.83-7.24-4.31,0-1.33.92-2.11,2.45-2.11a2.41,2.41,0,0,1,1.87.64c.2.31.2.38.31,1.84.13,2,1.08,3.09,2.72,3.09,2,0,3.5-1.56,4.21-4.48a29.57,29.57,0,0,0,.72-6.46A7.25,7.25,0,0,1,828.89,239.07Zm4.89-3.5a6.7,6.7,0,0,0,.68-3.43,17.08,17.08,0,0,0-1.08-6.19,3.84,3.84,0,0,0-3.44-2.58c-2.58,0-4.15,2.89-4.15,7.71a8.89,8.89,0,0,0,1.33,5.31A3.55,3.55,0,0,0,830,238,4.53,4.53,0,0,0,833.78,235.57Z"/><path class="cls-1" d="M847.69,236.62h8v2.86h-8Z"/><path class="cls-1" d="M864.82,247c1.57,0,2-.1,2.56-.41.78-.41,1-1.29,1-3.47V227.51a9.57,9.57,0,0,0-.11-2c-.13-.74-.57-.91-2.31-.91h-.92v-1c3.23-.27,5.72-.61,8-1-.21,2.42-.31,5.27-.31,8.57v12c0,2.08.21,2.93.82,3.4s.88.44,2.62.48V248H864.82Z"/><path class="cls-1" d="M241.57,339.48c.07,6.7.07,6.7.17,11a.8.8,0,0,1-.3.75,6.83,6.83,0,0,1-2.32.3c-1,0-1.19-.13-1.22-.81.14-3.71.14-4.59.2-11.22h-3.8v1.6c0,.37-.11.51-.31.64a4.71,4.71,0,0,1-2.14.31c-.95,0-1.22-.14-1.22-.75.06-2.38.06-2.38.13-6.73a36.37,36.37,0,0,1-3.81,2.31v9.08c0,1.22,0,1.22,0,2.31,0,1.63-.48,2.38-1.84,2.86a9.65,9.65,0,0,1-2.38.44c-.37,0-.47-.14-.51-.61-.07-1.67-.81-2.35-3.53-3.2l0-.44c2.45.2,2.65.2,4.15.24h.1c.31,0,.41-.14.41-.48v-8.29c-.72.37-.72.37-2.14,1.05-.17,1-.34,1.33-.65,1.33s-.51-.51-1.56-4.59a25.27,25.27,0,0,0,4.35-.75v-7.34h-1.74a10.14,10.14,0,0,0-2.24.2l-.2-1.22a9.15,9.15,0,0,0,2.44.3h1.74v-3.57a36.52,36.52,0,0,0-.17-4c4.55.44,5.17.54,5.17,1.05,0,.34-.34.54-1.47.95v5.61h.21l1.53-2.34c.92,1.15,1.15,1.49,2,2.61l.07.17c0-5.71,0-5.71-.13-7.65a39.5,39.5,0,0,1,4,2h10.67c.82-.92,1.06-1.19,1.91-2.07,1.22.88,1.59,1.15,2.75,2.1.31.28.44.45.44.62s-.24.51-1.22,1.12c0,10.6,0,10.6.13,16.49a1,1,0,0,1-.13.64,4,4,0,0,1-2.35.44c-1.05,0-1.22-.06-1.22-.64v-1.77Zm-10.81-6.43v-4.72a.33.33,0,0,1-.3.14H227v6.66a39.2,39.2,0,0,0,3.81-1.06Zm7.34-9.79h-3.8v7.28h3.8Zm0,15v-7h-3.8v7.52h3.8Zm7.52-15h-4.05v7.28h4.05Zm0,8h-4.05v7.52h4.05Z"/><path class="cls-1" d="M277.82,332.65l2.75-3.3c1.87,1.49,2.45,1.94,4.18,3.43.14.17.21.27.21.34s-.17.24-.41.24H271.76V348.9h7.86c1.26-1.57,1.63-2,2.89-3.47,1.94,1.53,2.51,2,4.35,3.67a.74.74,0,0,1,.17.31c0,.13-.14.2-.34.2H258.3a12,12,0,0,0-2.68.24l-.28-1.29a10.5,10.5,0,0,0,3,.34h9.35V325.27a33.29,33.29,0,0,0-.27-4.9l2.72.31c2.51.27,3.26.48,3.26.92s-.44.58-1.6.92v10.13Z"/><path class="cls-1" d="M295.06,340.19a8.46,8.46,0,0,1,.61,3.3,6.49,6.49,0,0,1-.65,3.2,1.81,1.81,0,0,1-1.46,1.05c-.48,0-.78-.27-1.05-.88a3.87,3.87,0,0,1-.28-1.33,1.52,1.52,0,0,1,.75-1.39,5,5,0,0,0,1.77-3.91Zm9.34-13.25c.68-.85.92-1.09,1.64-1.91,1,.92,1.32,1.19,2.31,2.14.13.14.17.21.17.31s-.14.17-.37.17h-4.59v4.15h.74l1.74-2c1,.95,1.36,1.22,2.31,2.2a.5.5,0,0,1,.17.31c0,.1-.14.17-.34.17h-4.62v4.62h.81c.71-.78.92-1,1.6-1.73.92.78,1.19,1,2,1.8.27.27.37.44.37.61s-.27.48-1.16.85c-.37,6.26-.95,9.49-2,10.85A3.83,3.83,0,0,1,302.5,351a10.23,10.23,0,0,1-1.26.14c-.4,0-.47-.1-.54-.54a2.47,2.47,0,0,0-.78-1.77c-.44-.41-.51-.41-3.1-1.39l.07-.38a43.46,43.46,0,0,0,5,.41c.61,0,.78-.14,1-.61.58-1.46,1-4.86,1.12-9h-6v.68c0,.61-.45.75-2.18.75-1.09,0-1.26-.11-1.26-.62.14-3.26.17-6.49.17-12.13,0-2.93,0-4.49-.2-6.43,1.63.82,2.11,1.06,3.7,1.94h5.55l1.93-2.14a36.21,36.21,0,0,1,3,2.41.47.47,0,0,1,.17.27c0,.11-.13.17-.34.17h-4.92v4.19ZM296.62,340c1.43,1.57,2.31,3.17,2.31,4.29a2,2,0,0,1-1.7,1.9c-.3,0-.47-.27-.47-.71a3.54,3.54,0,0,1,0-.51c0-.34,0-1.4,0-1.77a9.93,9.93,0,0,0-.44-3.06Zm3.81-17.27H298v4.19h2.48Zm-2.48,4.9v4.15h2.48v-4.15Zm0,4.86v4.62h2.48v-4.62Zm.64,7.14c2,1.16,3.1,2.41,3.1,3.43,0,.79-.62,1.67-1.16,1.67-.34,0-.41-.14-.58-1a10.12,10.12,0,0,0-1.53-3.94Zm2.18-.65c2,.79,2.85,1.43,2.85,2.28,0,.68-.51,1.43-1,1.43-.17,0-.27-.14-.38-.51a7.21,7.21,0,0,0-1.66-3ZM313,333.36c-.24,4.79-.79,8-1.94,10.88a19.78,19.78,0,0,1-3.16,5.24,12.59,12.59,0,0,1-2,1.9l-.34-.24a18.77,18.77,0,0,0,2.72-6.49,52.51,52.51,0,0,0,1.19-11.15c0-9.93,0-11.39-.17-13.36a30.32,30.32,0,0,1,4,2.07h5.78l1.84-1.94c1.26.89,1.66,1.16,2.79,2,.3.24.4.41.4.58s-.3.51-1.22,1l0,4.82c0,1.91,0,2.45.13,5.58a1,1,0,0,1-.1.58c-.24.3-1,.44-2.31.44-1.09,0-1.23-.07-1.26-.65v-1.29H316.2a16.81,16.81,0,0,0,1.84,6.46,14.35,14.35,0,0,0,4.38,4.86,11.71,11.71,0,0,0,2.93,1.5v.37a3.32,3.32,0,0,0-1.63,1.5,8.67,8.67,0,0,0-.85,1.93c-.11.38-.21.52-.41.52s-.72-.34-1.47-1.09c-3.39-3.33-5.23-8.64-5.54-16.05Zm6.32-.71v-9.73h-6.19c0,5.82,0,6-.13,9.73Z"/><path class="cls-1" d="M344.83,335.74a3.62,3.62,0,1,1-3.6-3.6A3.58,3.58,0,0,1,344.83,335.74Z"/><path class="cls-1" d="M375.64,337.75a12.8,12.8,0,0,0,2.07,4.08,9.79,9.79,0,0,0,2.85-3.17c3.54,1.3,4.53,1.77,4.53,2.21s-.34.48-1.81.48a29.91,29.91,0,0,1-3.26,2.82c1.5,1.16,2.62,1.7,5.68,2.69a65,65,0,0,0,2.85-6.19l.34.07-.74,5.23a7.08,7.08,0,0,0-.07.85c0,.34.1.45.71.89a1.49,1.49,0,0,1,.72,1.39c0,1.16-.92,1.9-2.28,1.9a15,15,0,0,1-5-1.35,19.16,19.16,0,0,1-5.38-3.51,32,32,0,0,1-6.05,2.45,44.67,44.67,0,0,1-12.17,1.91l-.07-.41c7.38-1.67,11.73-3.33,16.26-6.19a18.92,18.92,0,0,1-2.69-6.15H365v1.7c0,.81-.41,1-2.48,1-1.19,0-1.4-.13-1.4-.78.14-3.06.17-5.24.17-9,0-3.19,0-4.35-.17-6.83a28.16,28.16,0,0,1,4.19,2.08H371a43,43,0,0,0-.2-5.72c4.66.41,5.3.51,5.3,1,0,.34-.34.55-1.46.85,0,1.91,0,2.52,0,3.85h6.57c.85-.92,1.12-1.23,2-2.08,1.29.82,1.66,1.09,2.89,2,.3.28.44.41.44.58s-.31.55-1.22,1v3.16c0,2.62,0,3,.17,7.31,0,.41-.11.58-.38.68a6.44,6.44,0,0,1-2.11.31c-1.12,0-1.32-.1-1.32-.65v-.47Zm-4.42-6.46c-.11-1.67-.14-2.69-.17-4.66H365v4.66Zm.71,5.74a45.19,45.19,0,0,1-.68-5H365v5Zm9.69-10.4h-7c0,1,0,2.55.14,4.66h6.87Zm0,5.37h-6.83a27.06,27.06,0,0,0,.64,5h6.19Z"/><path class="cls-1" d="M420.75,335.3c.92-1.29,1.19-1.7,2.18-2.92,1.46,1.25,1.94,1.66,3.4,3,.13.14.2.24.2.34s-.13.27-.37.27H420l0,3.95c0,2.41,0,2.41.07,4.48,0,1.84,0,1.84,0,3.47-.11,1.8-.62,2.55-2.15,3.09a8.33,8.33,0,0,1-2.65.51c-.34,0-.44-.1-.47-.54a4.73,4.73,0,0,0-.61-1.9,3.33,3.33,0,0,0-2.28-1.4l.06-.47c1.64.17,2.18.2,3.64.24.48,0,.61-.14.58-.55l0-10.88h-4.73v4.29c0,3.19,0,4.52.1,6.66,0,.41-.07.54-.41.71a10.48,10.48,0,0,1-2.68.28c-.48,0-.71-.21-.71-.68.1-2.15.13-3.91.13-7V336h-4c-.27,5.2-.78,7.45-2.27,9.86-1.33,2.11-2.86,3.61-6.12,5.82l-.24-.31a17.68,17.68,0,0,0,3.47-5.85c.88-2.48,1.22-4.72,1.39-9.52H397.7a25.3,25.3,0,0,0-2.65.17l-.24-1.19a21.31,21.31,0,0,0,3.13.31h2.21c0-1.7.07-4.25.07-6.36,0-3.19,0-3.77-.14-5.64a36.28,36.28,0,0,1,4.32,2.17h2.21a28.4,28.4,0,0,0,1.16-5.47c5.43,1,5.67,1.05,5.67,1.56,0,.34-.47.55-1.63.68-2.14,2-3.33,3-3.57,3.23h7.51l2-2.1c1.29.85,1.66,1.12,2.95,2,.34.27.48.44.48.61s-.2.44-1.22,1.05l0,8.23Zm-4.59-9.11H404.09v1.93c0,2.25-.06,5.75-.13,7.18H416.2Zm-9.59,1.12a22.55,22.55,0,0,1,4.66,1.9c1.29.75,1.74,1.33,1.74,2.31,0,1.36-1.09,2.72-2.18,2.72-.51,0-.75-.27-1.05-1.19a13,13,0,0,0-3.37-5.47Z"/><path class="cls-1" d="M433.1,340.19a8.46,8.46,0,0,1,.61,3.3,6.49,6.49,0,0,1-.65,3.2,1.81,1.81,0,0,1-1.46,1.05c-.48,0-.78-.27-1.05-.88a3.87,3.87,0,0,1-.28-1.33,1.52,1.52,0,0,1,.75-1.39,5,5,0,0,0,1.77-3.91Zm9.35-13.25c.68-.85.91-1.09,1.63-1.91,1,.92,1.32,1.19,2.31,2.14.13.14.17.21.17.31s-.14.17-.38.17H441.6v4.15h.74l1.74-2c1.05.95,1.36,1.22,2.31,2.2a.5.5,0,0,1,.17.31c0,.1-.14.17-.34.17H441.6v4.62h.81c.72-.78.92-1,1.6-1.73.92.78,1.19,1,2,1.8.28.27.38.44.38.61s-.27.48-1.16.85c-.37,6.26-1,9.49-2,10.85a3.81,3.81,0,0,1-2.72,1.49,10.23,10.23,0,0,1-1.26.14c-.4,0-.47-.1-.54-.54a2.47,2.47,0,0,0-.78-1.77c-.44-.41-.51-.41-3.1-1.39l.07-.38a43.46,43.46,0,0,0,5,.41c.61,0,.78-.14,1-.61.58-1.46,1-4.86,1.12-9h-6v.68c0,.61-.45.75-2.18.75-1.09,0-1.26-.11-1.26-.62.14-3.26.17-6.49.17-12.13,0-2.93,0-4.49-.2-6.43,1.63.82,2.11,1.06,3.7,1.94h5.55l1.93-2.14a36.21,36.21,0,0,1,3,2.41.47.47,0,0,1,.17.27c0,.11-.13.17-.34.17H441.6v4.19ZM434.66,340c1.43,1.57,2.31,3.17,2.31,4.29a2,2,0,0,1-1.7,1.9c-.3,0-.47-.27-.47-.71a3.54,3.54,0,0,1,0-.51c0-.34,0-1.4,0-1.77a9.93,9.93,0,0,0-.44-3.06Zm3.81-17.27H436v4.19h2.48Zm-2.48,4.9v4.15h2.48v-4.15Zm0,4.86v4.62h2.48v-4.62Zm.64,7.14c2,1.16,3.1,2.41,3.1,3.43,0,.79-.62,1.67-1.16,1.67-.34,0-.41-.14-.58-1a10.12,10.12,0,0,0-1.53-3.94Zm2.18-.65c2,.79,2.85,1.43,2.85,2.28,0,.68-.51,1.43-1,1.43-.17,0-.28-.14-.38-.51a7.21,7.21,0,0,0-1.66-3Zm12.24-5.64c-.24,4.79-.79,8-1.94,10.88a19.78,19.78,0,0,1-3.16,5.24,12.59,12.59,0,0,1-2,1.9l-.34-.24a19,19,0,0,0,2.72-6.49,52.51,52.51,0,0,0,1.19-11.15c0-9.93,0-11.39-.17-13.36a30.32,30.32,0,0,1,4,2.07h5.78l1.84-1.94c1.26.89,1.66,1.16,2.78,2,.31.24.41.41.41.58s-.3.51-1.22,1l0,4.82c0,1.91,0,2.45.14,5.58a1,1,0,0,1-.1.58c-.24.3-1,.44-2.31.44-1.09,0-1.23-.07-1.26-.65v-1.29h-3.13a16.81,16.81,0,0,0,1.84,6.46,14.35,14.35,0,0,0,4.38,4.86,11.71,11.71,0,0,0,2.93,1.5v.37a3.38,3.38,0,0,0-1.64,1.5,8.67,8.67,0,0,0-.85,1.93c-.1.38-.2.52-.4.52s-.72-.34-1.46-1.09c-3.4-3.33-5.24-8.64-5.55-16.05Zm6.32-.71v-9.73h-6.19c0,5.82,0,6-.13,9.73Z"/><path class="cls-1" d="M480.46,321.22a13.7,13.7,0,0,1,3.87.65c1.43.48,2,1.09,2,1.94,0,.44,0,.51-.54,1.7a12.59,12.59,0,0,0-.75,4.49,1.21,1.21,0,0,0,.82.3,9.64,9.64,0,0,0,5-2.24,1.45,1.45,0,0,1,1-.38,4.5,4.5,0,0,1,2.31.82,1.22,1.22,0,0,1,.61,1.05c0,.65-.51,1.09-1.94,1.67a14.46,14.46,0,0,1-4.55,1A4.7,4.7,0,0,1,485,331v1.16a80.83,80.83,0,0,0,.48,8.7c3.4.51,6.73,1.73,8.33,3.06a3.78,3.78,0,0,1,1.49,3.13c0,1.09-.54,1.87-1.32,1.87-.48,0-.78-.17-1.53-.85a17.18,17.18,0,0,0-6.67-4.12c0,.62,0,1,0,1.26a4.8,4.8,0,0,1-1.09,3.54c-1,1-3,1.6-5.44,1.6-4.08,0-6.66-1.71-6.66-4.39,0-3.16,3.7-5.37,8.94-5.37h.75c-.1-6.5-.27-12.27-.48-15.13-.1-1.53-.37-2.18-1.12-2.72a4.5,4.5,0,0,0-2.28-.78A2.69,2.69,0,0,1,480.46,321.22Zm-.65,21.86c-3.64,0-6,1.09-6,2.79,0,1.29,1.39,2.08,3.67,2.08,1.94,0,3.57-.55,4.18-1.43a3.05,3.05,0,0,0,.51-1.94,11.15,11.15,0,0,0,0-1.19v-.1A12.7,12.7,0,0,0,479.81,343.08Z"/><path class="cls-1" d="M513.71,351.31a17.44,17.44,0,0,0,7.48-7.1,21.07,21.07,0,0,0,2.21-9.83,16.31,16.31,0,0,0-1-6.39,2.54,2.54,0,0,0-2.31-1.8c-1.53,0-3,1.36-4.05,3.87a20.23,20.23,0,0,0-1.56,7.28,12.88,12.88,0,0,0,.13,2c0,.45.07.89.07,1a1.57,1.57,0,0,1-1.56,1.7,2.35,2.35,0,0,1-2.11-1.63,13.73,13.73,0,0,1-1-5.54,41.06,41.06,0,0,1,1.36-9.59,11.86,11.86,0,0,0,.38-2.65,2.89,2.89,0,0,0-1.91-2.51,2,2,0,0,1,.68-.14,6.81,6.81,0,0,1,3.61,1.46c1.15.89,1.7,1.67,1.7,2.48a2.3,2.3,0,0,1-.58,1.43,17.22,17.22,0,0,0-2.82,9,14.13,14.13,0,0,0,.1,1.46h0c1.26-4.45,2.52-7.07,4.25-8.94A5.37,5.37,0,0,1,521,325c3.7,0,6.36,4.25,6.36,10.2a16.76,16.76,0,0,1-4.32,11.49c-2.14,2.32-4.76,3.74-9.18,5Z"/><path class="cls-1" d="M542.61,336.86a28.93,28.93,0,0,1-3.84,2.79l-.27-.31A38.94,38.94,0,0,0,543,333a23.24,23.24,0,0,0,2.52-5.61c4.42,1.19,4.93,1.36,4.93,1.77s-.41.48-1.6.58a26.9,26.9,0,0,1-3.43,4.49c1.6.2,2,.34,2,.64s-.31.44-1.19.75v6.77c0,4.48,0,4.48,0,8,0,.44,0,.65-.17.78-.27.38-1.08.55-2.41.55-.92,0-1.16-.17-1.19-.79.1-3.09.17-6.42.17-8.32Zm-3.84-7.24a26.05,26.05,0,0,0,6.12-9.72l2.41.78c2.35.71,2.72.88,2.72,1.26s-.41.51-1.66.58a27.17,27.17,0,0,1-9.29,7.44Zm26.35,2.62c1-1.26,1.29-1.63,2.31-2.82,1.6,1.22,2.07,1.6,3.63,2.89.21.17.28.27.28.4s-.17.24-.44.24H560.8v5.61h3l2.41-2.82c1.57,1.26,2.08,1.63,3.64,3,.17.17.24.27.24.37s-.17.21-.41.21H560.8v7.54a29.31,29.31,0,0,0,3.67.21,57.42,57.42,0,0,0,6.76-.41V347a3.54,3.54,0,0,0-1.49,1.49,5.43,5.43,0,0,0-.51,1.64c-.07.61-.07.61-2.31.61a24.4,24.4,0,0,1-6.77-.79c-3-.91-5.2-3.16-7.34-7.47a20.08,20.08,0,0,1-5.92,8.87l-.3-.27a26.9,26.9,0,0,0,2.85-7.52,36.2,36.2,0,0,0,.85-7c0-.38,0-.75-.06-1.43l2.37.3c2.28.28,2.86.45,2.86.85s-.31.48-1.36.75a39.18,39.18,0,0,1-1,4.56,10.45,10.45,0,0,0,4,4.08V333H550.5a12.37,12.37,0,0,0-2.21.17l-.24-1.12a11.26,11.26,0,0,0,2.51.24h6.6v-5.47h-5a9.83,9.83,0,0,0-2,.17l-.24-1.19a8.2,8.2,0,0,0,2.35.3h4.89v-3a14.79,14.79,0,0,0-.2-2.75c4.72.31,5.3.41,5.3.92,0,.34-.44.58-1.46.88v3.91H564c1-1.22,1.32-1.56,2.28-2.72,1.56,1.19,2.07,1.6,3.67,2.86.13.17.2.27.2.34s-.17.24-.41.24h-9v5.47Z"/><path class="cls-1" d="M576.41,344.34a30.64,30.64,0,0,0,5.1-6.87,16.42,16.42,0,0,0,1.73-4.31c4.79,1.63,5.1,1.73,5.1,2.17s-.44.55-1.63.58c-3.64,4.69-5.31,6.12-10.07,8.7Zm18.05-9.62c0,3,0,3,0,4.83,0,2-.75,3-2.82,3.7a9.44,9.44,0,0,1-2.07.48c-.34,0-.45-.14-.48-.58a2.2,2.2,0,0,0-.78-1.7c-.51-.41-1.12-.64-3.27-1.22l0-.41c2.24.14,3,.17,5.1.2h.1c.37,0,.51-.13.51-.54V331.8H579.5A16.27,16.27,0,0,0,577,332l-.2-1.23a9.36,9.36,0,0,0,2.79.34h2.89v-5a33,33,0,0,0-.17-3.47c5,.47,5.2.51,5.2,1,0,.31-.34.48-1.39.82v6.66h4.72v-7.61c0-1.23,0-1.91-.14-3.37,5,.51,5.24.55,5.24,1s-.27.51-1.46.85v3.5h4.18c1.09-1.32,1.43-1.7,2.52-2.92,1.73,1.29,2.24,1.73,3.9,3.16.14.14.17.21.17.27s-.13.21-.37.21h-10.4v4.89h6.93c1.16-1.32,1.53-1.73,2.69-3,1.77,1.29,2.31,1.74,4,3.2a.55.55,0,0,1,.17.3c0,.1-.17.21-.34.21h-13.5Zm-17.17,16.35a45.3,45.3,0,0,0,13.53-5.5,23.43,23.43,0,0,0,7.75-7.72c3.74,2.38,4.25,2.72,4.25,3.09s-.34.41-.81.41a8.06,8.06,0,0,1-.82,0c-4.11,4-7.07,6-11.46,7.68a42.11,42.11,0,0,1-12.34,2.55Zm19.24-17.61a34.34,34.34,0,0,1,8.3,2.48c1.22.72,1.66,1.33,1.66,2.52,0,1.43-.64,2.69-1.39,2.69-.41,0-.51-.11-1.67-1.53a32.11,32.11,0,0,0-7.07-5.78Z"/><path class="cls-1" d="M625.2,347c1.56,0,2-.1,2.55-.41.78-.41,1-1.29,1-3.47V327.51a9.57,9.57,0,0,0-.11-2c-.13-.74-.57-.91-2.31-.91h-.92v-1c3.23-.27,5.72-.61,8-1-.2,2.42-.31,5.27-.31,8.57v12c0,2.08.21,2.93.82,3.4s.88.44,2.62.48v1H625.2Z"/><path class="cls-1" d="M655.52,332c4.56,0,7.62,3.16,7.62,7.85,0,5.21-3.5,8.67-8.74,8.67-5.78,0-8.91-4.25-8.91-12.13,0-4.59,1-8.33,2.69-10.64a8,8,0,0,1,6.9-3.23c4.11,0,7.21,1.83,7.21,4.28,0,1.22-.92,2-2.45,2a2.38,2.38,0,0,1-1.87-.65c-.2-.27-.2-.37-.31-1.76-.1-1.94-1.08-3-2.68-3-2.08,0-3.54,1.56-4.25,4.48a29.8,29.8,0,0,0-.71,6.46A7.15,7.15,0,0,1,655.52,332Zm-4.89,3.5a6.51,6.51,0,0,0-.68,3.4,16.15,16.15,0,0,0,1.09,6.19,3.83,3.83,0,0,0,3.43,2.58c2.58,0,4.15-2.89,4.15-7.71,0-4.22-1.6-6.84-4.22-6.84A4.42,4.42,0,0,0,650.63,335.5Z"/><path class="cls-1" d="M672.39,336.59a42.87,42.87,0,0,0,6.83-8.77,31.28,31.28,0,0,0,3.33-7.62,47.06,47.06,0,0,1,5,2.15.51.51,0,0,1,.17.3c0,.34-.44.51-1.66.61a35.19,35.19,0,0,1-6,8.23,29.69,29.69,0,0,1-7.45,5.41Zm15.4-2.52a26.11,26.11,0,0,1-.51,3.37c-1.53,7.34-5.2,11.08-13.74,14l-.17-.38c4.66-3,7.28-5.88,8.74-9.55a26.09,26.09,0,0,0,1.57-7.45H681.3a13.59,13.59,0,0,0-2.38.21l-.24-1.19a12.37,12.37,0,0,0,2.58.27h12.89c.68-.71.88-.92,1.56-1.53,1.33.92,1.7,1.19,3,2.11.27.24.41.41.41.58s-.17.37-.79.71a94.68,94.68,0,0,1-1,9.66c-.58,3.26-1.33,4.59-3,5.27a11.09,11.09,0,0,1-3.74.64c-.61,0-.68-.07-.71-.78a2.57,2.57,0,0,0-1.33-2,16.37,16.37,0,0,0-3.81-1.39l0-.45c2.58.31,5.44.58,6.35.58,1.47,0,1.91-.34,2.21-1.7a57.87,57.87,0,0,0,1.09-10.95Zm3.6-13.59a2.15,2.15,0,0,0,0,.34c0,1,1.26,2.95,3.13,4.82a20.92,20.92,0,0,0,6.18,4.25,22.69,22.69,0,0,0,4.36,1.43v.34a4.35,4.35,0,0,0-1.94,1.6,8.64,8.64,0,0,0-1,1.73c-.11.31-.24.44-.38.44a13.67,13.67,0,0,1-3.26-2.17,24.06,24.06,0,0,1-7.38-10.64,5,5,0,0,0-1-1.7Z"/><path class="cls-1" d="M732.57,322.55h2L723.29,354h-2Z"/><path class="cls-1" d="M752.83,344.85a46.13,46.13,0,0,0,4.56-9.93,26.29,26.29,0,0,0,1.53-6.93c5.47,1.5,5.64,1.56,5.64,2s-.44.64-1.6.74a36,36,0,0,1-4.38,8.47,27.41,27.41,0,0,1-5.44,5.91Zm14.11-20.43c0-1.16-.07-2.11-.24-4,4.42.51,4.8.55,5.27.75s.51.27.51.51-.34.58-1.53.95v15.27c0,1,0,5,.07,9,0,1.73-.44,2.51-1.7,3.23a9.78,9.78,0,0,1-3.84.95c-.34,0-.44-.14-.48-.65a2.43,2.43,0,0,0-.64-1.67,5,5,0,0,0-2.79-1.39l-2.86-.71.07-.48c5.1.38,5.1.38,7.62.44.44,0,.54-.13.54-.54Zm7.38,3.88a39.06,39.06,0,0,1,7.17,6.79c1.53,1.94,2.41,3.81,2.41,5.1,0,2-1.56,4.46-2.82,4.46a.9.9,0,0,1-.68-.51,6.24,6.24,0,0,1-.44-1.46c-.54-2.18-1-3.57-1.32-4.7a34.25,34.25,0,0,0-4.7-9.38Z"/><path class="cls-1" d="M799.58,327.85c.82-1.05,1.09-1.36,1.9-2.34a23.37,23.37,0,0,1,2.59,2.58c.13.14.17.21.17.27s-.14.21-.41.21h-5v2.68c3.12,1.77,4.72,3.57,4.72,5.34a3.16,3.16,0,0,1-.75,1.9,1.7,1.7,0,0,1-1.32.85c-.54,0-.68-.23-.85-1.8a12.62,12.62,0,0,0-1.8-5.57c0,12.1,0,14.34,0,18.25,0,.82-.37,1-2.38,1-1.39,0-1.56-.07-1.56-.71.07-2,.07-2,.13-4.83,0-1.57,0-1.57.17-5.07l.14-4.62c-2.14,4.08-3.23,5.54-5.68,7.68l-.3-.24a36.83,36.83,0,0,0,3.94-9.07,51.36,51.36,0,0,0,1.5-5.78h-2.72a10,10,0,0,0-2,.2l-.17-1.19a7.8,7.8,0,0,0,2.18.27h3.06v-3.09a31.09,31.09,0,0,0-.21-4.35c1.12.1,2,.2,2.58.24,2.08.17,2.73.37,2.73.74s-.35.48-1.43.82v5.64Zm4.62,3.54c4.36,2.68,6.33,4.69,6.33,6.56,0,1.56-1.3,3.37-2.45,3.37-.48,0-.71-.34-.85-1.16a21.94,21.94,0,0,0-3.3-8.57Zm12.31,6.76c0,4.66,0,4.66.07,9a3.85,3.85,0,0,1-.61,2.55,4.19,4.19,0,0,1-3,1.56,8.53,8.53,0,0,1-1.32.14c-.45,0-.51-.07-.58-.82-.21-1.66-1.13-2.24-5.1-3.33v-.41c.95,0,1.66.11,2.14.11,2.58.17,2.58.17,4,.2h.1a.47.47,0,0,0,.54-.54v-18h-5.78a13.43,13.43,0,0,0-2.1.17l-.17-1.16a7.77,7.77,0,0,0,2.27.27h5.78V325.3a39.72,39.72,0,0,0-.2-4.89,37,37,0,0,1,5,.61c.31.1.48.27.48.48s-.38.51-1.43.78v5.57h.31c.81-1.12,1.08-1.46,1.9-2.55,1.29,1.19,1.67,1.57,2.82,2.79a.61.61,0,0,1,.14.31c0,.1-.14.17-.31.17h-4.86Z"/><path class="cls-1" d="M844.94,328.57v-3.88a21.33,21.33,0,0,0-.28-3.94c4.9.34,5.58.44,5.58.88s-.37.65-1.46.92v6h2.07c1-1.26,1.33-1.63,2.42-2.86,1.63,1.26,2.14,1.67,3.8,3.06.1.14.14.21.14.27a.25.25,0,0,1-.24.24h-8.19c0,4.93,0,4.93,0,9.28h2.65c1.13-1.36,1.5-1.77,2.66-3.13,1.73,1.47,2.27,1.91,3.94,3.44,0,.1.07.17.07.2s-.14.21-.27.21h-9.05c.07,6.86.07,6.86.21,11v.1c0,.68-.41.78-3.54.78-.48,0-.61-.13-.65-.57.14-4.15.14-4.15.14-11.32H837.8a14.06,14.06,0,0,1-4.15,8.12,17,17,0,0,1-7.07,4.08l-.21-.27a16,16,0,0,0,5.21-5.27,16.88,16.88,0,0,0,2.34-6.66h-3.67c-.27,0-1.09,0-2.28.1-.3,0-.74,0-1.36.07l-.24-1.26a17.39,17.39,0,0,0,3.88.37H834a83.4,83.4,0,0,0,.34-9.28h-2.85a41.14,41.14,0,0,0-4.15.17l-.2-1.19a28.64,28.64,0,0,0,4.35.31h2.85a76.46,76.46,0,0,0-.27-7.82c5.31.37,5.75.44,5.75.92s-.28.51-1.5.91c0,.38,0,2.38-.07,6Zm-6.67.71a70.09,70.09,0,0,1-.34,9.28h7v-4.42s0-2.14,0-4.86Z"/><path class="cls-1" d="M864.83,340.19a8.46,8.46,0,0,1,.61,3.3,6.49,6.49,0,0,1-.65,3.2,1.79,1.79,0,0,1-1.46,1.05c-.47,0-.78-.27-1.05-.88a3.85,3.85,0,0,1-.27-1.33,1.51,1.51,0,0,1,.74-1.39,5,5,0,0,0,1.77-3.91Zm9.35-13.25c.68-.85.91-1.09,1.63-1.91,1,.92,1.33,1.19,2.31,2.14.14.14.17.21.17.31s-.14.17-.37.17h-4.59v4.15h.74l1.74-2c1.05.95,1.36,1.22,2.31,2.2a.45.45,0,0,1,.17.31c0,.1-.14.17-.34.17h-4.62v4.62h.81c.72-.78.92-1,1.6-1.73.92.78,1.19,1,2,1.8.27.27.37.44.37.61s-.27.48-1.15.85c-.38,6.26-1,9.49-2,10.85a3.81,3.81,0,0,1-2.72,1.49,10.31,10.31,0,0,1-1.25.14c-.41,0-.48-.1-.55-.54a2.47,2.47,0,0,0-.78-1.77c-.44-.41-.51-.41-3.09-1.39l.06-.38a43.63,43.63,0,0,0,5,.41c.61,0,.78-.14,1-.61.58-1.46,1-4.86,1.12-9h-6v.68c0,.61-.44.75-2.18.75-1.09,0-1.26-.11-1.26-.62.14-3.26.17-6.49.17-12.13,0-2.93,0-4.49-.2-6.43,1.63.82,2.11,1.06,3.71,1.94h5.54l1.93-2.14a38.11,38.11,0,0,1,3,2.41.53.53,0,0,1,.17.27c0,.11-.14.17-.34.17h-4.93v4.19ZM866.39,340c1.43,1.57,2.31,3.17,2.31,4.29a2,2,0,0,1-1.7,1.9c-.3,0-.47-.27-.47-.71a3.54,3.54,0,0,1,0-.51c0-.34,0-1.4,0-1.77a10,10,0,0,0-.45-3.06Zm3.81-17.27h-2.48v4.19h2.48Zm-2.48,4.9v4.15h2.48v-4.15Zm0,4.86v4.62h2.48v-4.62Zm.64,7.14c2,1.16,3.1,2.41,3.1,3.43,0,.79-.61,1.67-1.16,1.67-.34,0-.41-.14-.58-1a10.12,10.12,0,0,0-1.53-3.94Zm2.18-.65c2,.79,2.86,1.43,2.86,2.28,0,.68-.51,1.43-1,1.43-.17,0-.27-.14-.37-.51a7.24,7.24,0,0,0-1.67-3Zm12.24-5.64c-.24,4.79-.78,8-1.94,10.88a19.52,19.52,0,0,1-3.16,5.24,12.59,12.59,0,0,1-2,1.9l-.34-.24a18.58,18.58,0,0,0,2.72-6.49,51.86,51.86,0,0,0,1.19-11.15c0-9.93,0-11.39-.17-13.36a30.32,30.32,0,0,1,4,2.07h5.78l1.84-1.94c1.26.89,1.67,1.16,2.79,2,.3.24.41.41.41.58s-.31.51-1.23,1l0,4.82c0,1.91,0,2.45.13,5.58a1,1,0,0,1-.1.58c-.24.3-1,.44-2.31.44-1.09,0-1.22-.07-1.26-.65v-1.29H886a16.81,16.81,0,0,0,1.84,6.46,14.27,14.27,0,0,0,4.39,4.86,11.62,11.62,0,0,0,2.92,1.5v.37a3.32,3.32,0,0,0-1.63,1.5,8.67,8.67,0,0,0-.85,1.93c-.1.38-.21.52-.41.52s-.71-.34-1.46-1.09c-3.4-3.33-5.24-8.64-5.54-16.05Zm6.32-.71v-9.73h-6.19c0,5.82,0,6-.13,9.73Z"/><path class="cls-1" d="M911.51,321.22a13.83,13.83,0,0,1,3.88.65c1.42.48,2,1.09,2,1.94,0,.44,0,.51-.54,1.7a12.59,12.59,0,0,0-.75,4.49,1.21,1.21,0,0,0,.82.3,9.6,9.6,0,0,0,5-2.24,1.45,1.45,0,0,1,1-.38,4.5,4.5,0,0,1,2.31.82,1.2,1.2,0,0,1,.61,1.05c0,.65-.51,1.09-1.94,1.67a14.46,14.46,0,0,1-4.55,1,4.72,4.72,0,0,1-3.27-1.23v1.16a80.83,80.83,0,0,0,.48,8.7c3.4.51,6.73,1.73,8.33,3.06a3.79,3.79,0,0,1,1.5,3.13c0,1.09-.55,1.87-1.33,1.87-.48,0-.78-.17-1.53-.85a17.22,17.22,0,0,0-6.66-4.12c0,.62,0,1,0,1.26a4.8,4.8,0,0,1-1.09,3.54c-1,1-3,1.6-5.44,1.6-4.08,0-6.66-1.71-6.66-4.39,0-3.16,3.71-5.37,8.94-5.37h.75c-.1-6.5-.27-12.27-.48-15.13-.1-1.53-.37-2.18-1.12-2.72a4.47,4.47,0,0,0-2.28-.78A2.71,2.71,0,0,1,911.51,321.22Zm-.65,21.86c-3.63,0-6,1.09-6,2.79,0,1.29,1.39,2.08,3.67,2.08,1.94,0,3.57-.55,4.18-1.43a3.05,3.05,0,0,0,.51-1.94,11.15,11.15,0,0,0,0-1.19v-.1A12.7,12.7,0,0,0,910.86,343.08Z"/><path class="cls-1" d="M944.76,351.31a17.38,17.38,0,0,0,7.48-7.1,21.07,21.07,0,0,0,2.21-9.83,16.13,16.13,0,0,0-1-6.39,2.53,2.53,0,0,0-2.31-1.8c-1.53,0-3,1.36-4,3.87a20.23,20.23,0,0,0-1.56,7.28,12,12,0,0,0,.14,2c0,.45.06.89.06,1a1.57,1.57,0,0,1-1.56,1.7,2.36,2.36,0,0,1-2.11-1.63,13.75,13.75,0,0,1-1-5.54,41.06,41.06,0,0,1,1.36-9.59,12.33,12.33,0,0,0,.37-2.65,2.9,2.9,0,0,0-1.9-2.51,1.93,1.93,0,0,1,.67-.14,6.81,6.81,0,0,1,3.61,1.46c1.15.89,1.7,1.67,1.7,2.48a2.3,2.3,0,0,1-.58,1.43,17.22,17.22,0,0,0-2.82,9,14.13,14.13,0,0,0,.1,1.46h0c1.25-4.45,2.51-7.07,4.25-8.94a5.34,5.34,0,0,1,4.21-1.94c3.71,0,6.36,4.25,6.36,10.2a16.76,16.76,0,0,1-4.32,11.49c-2.14,2.32-4.76,3.74-9.18,5Z"/><path class="cls-1" d="M973.66,336.86a27.68,27.68,0,0,1-3.84,2.79l-.27-.31A39,39,0,0,0,974,333a23.54,23.54,0,0,0,2.51-5.61c4.42,1.19,4.93,1.36,4.93,1.77s-.41.48-1.6.58a26.37,26.37,0,0,1-3.43,4.49c1.6.2,2,.34,2,.64s-.3.44-1.19.75v6.77c0,4.48,0,4.48,0,8,0,.44,0,.65-.17.78-.28.38-1.09.55-2.42.55-.92,0-1.15-.17-1.19-.79.1-3.09.17-6.42.17-8.32Zm-3.84-7.24a26.05,26.05,0,0,0,6.12-9.72l2.41.78c2.35.71,2.72.88,2.72,1.26s-.41.51-1.66.58a27.23,27.23,0,0,1-9.28,7.44Zm26.35,2.62c1-1.26,1.29-1.63,2.31-2.82,1.6,1.22,2.07,1.6,3.64,2.89.2.17.27.27.27.4s-.17.24-.44.24h-10.1v5.61h3c1.06-1.22,1.4-1.63,2.42-2.82,1.56,1.26,2.07,1.63,3.63,3,.17.17.24.27.24.37s-.17.21-.41.21h-8.87v7.54a29.31,29.31,0,0,0,3.67.21,57.69,57.69,0,0,0,6.77-.41V347a3.52,3.52,0,0,0-1.5,1.49,5.43,5.43,0,0,0-.51,1.64c-.07.61-.07.61-2.31.61a24.4,24.4,0,0,1-6.77-.79c-3-.91-5.2-3.16-7.34-7.47a20.05,20.05,0,0,1-5.91,8.87l-.31-.27a26.9,26.9,0,0,0,2.85-7.52,35.5,35.5,0,0,0,.86-7c0-.38,0-.75-.07-1.43l2.38.3c2.27.28,2.85.45,2.85.85s-.3.48-1.36.75a41.67,41.67,0,0,1-1,4.56,10.43,10.43,0,0,0,4,4.08V333h-6.66a12.37,12.37,0,0,0-2.21.17L979.1,332a11.29,11.29,0,0,0,2.52.24h6.59v-5.47h-5a9.93,9.93,0,0,0-2,.17l-.24-1.19a8.24,8.24,0,0,0,2.35.3h4.89v-3a14.79,14.79,0,0,0-.2-2.75c4.72.31,5.3.41,5.3.92,0,.34-.44.58-1.46.88v3.91h3.23c1-1.22,1.33-1.56,2.28-2.72,1.56,1.19,2.07,1.6,3.67,2.86.13.17.2.27.2.34s-.17.24-.41.24h-9v5.47Z"/><path class="cls-1" d="M1006.78,344.34a30.34,30.34,0,0,0,5.1-6.87,16.42,16.42,0,0,0,1.73-4.31c4.79,1.63,5.1,1.73,5.1,2.17s-.44.55-1.63.58c-3.64,4.69-5.3,6.12-10.06,8.7Zm18-9.62c0,3,0,3,0,4.83,0,2-.74,3-2.82,3.7a9.44,9.44,0,0,1-2.07.48c-.34,0-.44-.14-.48-.58a2.17,2.17,0,0,0-.78-1.7c-.51-.41-1.12-.64-3.26-1.22l0-.41c2.25.14,3,.17,5.1.2h.1c.38,0,.51-.13.51-.54V331.8h-11.32a16,16,0,0,0-2.51.17l-.21-1.23a9.4,9.4,0,0,0,2.79.34h2.89v-5a30.46,30.46,0,0,0-.17-3.47c5,.47,5.2.51,5.2,1,0,.31-.34.48-1.39.82v6.66h4.72v-7.61c0-1.23,0-1.91-.13-3.37,5,.51,5.23.55,5.23,1s-.27.51-1.46.85v3.5H1029c1.09-1.32,1.43-1.7,2.52-2.92,1.73,1.29,2.24,1.73,3.91,3.16.13.14.17.21.17.27s-.14.21-.38.21h-10.4v4.89h6.94c1.15-1.32,1.53-1.73,2.68-3,1.77,1.29,2.31,1.74,4,3.2a.55.55,0,0,1,.17.3c0,.1-.17.21-.34.21h-13.5Zm-17.17,16.35a45.3,45.3,0,0,0,13.53-5.5,23.34,23.34,0,0,0,7.75-7.72c3.74,2.38,4.25,2.72,4.25,3.09s-.34.41-.81.41a8.16,8.16,0,0,1-.82,0c-4.11,4-7.07,6-11.46,7.68a42.11,42.11,0,0,1-12.34,2.55Zm19.24-17.61a34.34,34.34,0,0,1,8.3,2.48c1.22.72,1.67,1.33,1.67,2.52,0,1.43-.65,2.69-1.4,2.69-.41,0-.51-.11-1.66-1.53a32.2,32.2,0,0,0-7.08-5.78Z"/><path class="cls-1" d="M1057.3,326.7a2.55,2.55,0,0,0-2.68,1.36,9.36,9.36,0,0,0-1,3l-1.13-.13,1.06-7.89h16.25v2.41a44.69,44.69,0,0,0-5.41,10.24,39.35,39.35,0,0,0-1.63,6,28.18,28.18,0,0,0-.41,4.56,2.21,2.21,0,0,1-.68,1.84,3.7,3.7,0,0,1-2.17.54c-1.5,0-2.25-.54-2.25-1.63,0-2.25,1.81-6.84,4.69-11.8,1.37-2.41,2.79-4.62,5.51-8.53Z"/><path class="cls-1" d="M1079.33,336.59a42.58,42.58,0,0,0,6.84-8.77,31.28,31.28,0,0,0,3.33-7.62,48.13,48.13,0,0,1,5,2.15.51.51,0,0,1,.17.3c0,.34-.44.51-1.66.61a34.91,34.91,0,0,1-6,8.23,29.44,29.44,0,0,1-7.44,5.41Zm15.4-2.52a26.59,26.59,0,0,1-.5,3.37c-1.53,7.34-5.21,11.08-13.74,14l-.17-.38c4.66-3,7.28-5.88,8.74-9.55a26.14,26.14,0,0,0,1.56-7.45h-2.38a13.76,13.76,0,0,0-2.38.21l-.24-1.19a12.53,12.53,0,0,0,2.59.27h12.88c.68-.71.89-.92,1.57-1.53,1.32.92,1.7,1.19,2.95,2.11.28.24.41.41.41.58s-.17.37-.78.71a93.87,93.87,0,0,1-1,9.66c-.57,3.26-1.32,4.59-3,5.27a11.14,11.14,0,0,1-3.74.64c-.61,0-.68-.07-.72-.78a2.53,2.53,0,0,0-1.32-2,16.37,16.37,0,0,0-3.81-1.39l0-.45c2.59.31,5.44.58,6.36.58,1.46,0,1.9-.34,2.21-1.7a59.59,59.59,0,0,0,1.09-10.95Zm3.61-13.59a2.15,2.15,0,0,0,0,.34c0,1,1.25,2.95,3.12,4.82a21.1,21.1,0,0,0,6.19,4.25,22.57,22.57,0,0,0,4.35,1.43v.34a4.41,4.41,0,0,0-1.94,1.6,9.77,9.77,0,0,0-1,1.73c-.1.31-.24.44-.37.44a13.45,13.45,0,0,1-3.27-2.17,24.13,24.13,0,0,1-7.37-10.64,5.16,5.16,0,0,0-1-1.7Z"/><path class="cls-1" d="M69,15.71a40.87,40.87,0,0,0,7.88-7.38A25,25,0,0,0,81.8.07l2.69.54c2.45.48,3.19.72,3.19,1.09s-.27.44-1.39.68A17,17,0,0,0,93.12,8.3a25.2,25.2,0,0,0,8.4,2.54v.38a4.08,4.08,0,0,0-2.31,2.48c-.14.31-.31.85-.41,1.12s-.2.44-.41.44a10.53,10.53,0,0,1-2.92-1.36A24,24,0,0,1,88.7,7.75a17.78,17.78,0,0,1-2.92-5.1A34.1,34.1,0,0,1,69.22,16.08ZM85.07,19a55.58,55.58,0,0,1-6.53,7.55c6.32-.1,9.52-.27,12.95-.58a21.09,21.09,0,0,0-3.77-5.2l.27-.27a30.4,30.4,0,0,1,6.26,3.74c1.76,1.42,2.48,2.38,2.48,3.4,0,1.76-1.23,3.6-2.38,3.6-.44,0-.58-.17-.95-1.05A28.89,28.89,0,0,0,92,26.93l-.79.23c-3.46.92-9.92,2.21-16.86,3.3-.24,1-.41,1.36-.75,1.36s-.37,0-1.63-5.44a32.08,32.08,0,0,0,3.84.17H77A48.81,48.81,0,0,0,79.83,19H73a9.6,9.6,0,0,0-2.11.2L70.65,18a9.65,9.65,0,0,0,2.48.31H92.89C94,17,94.31,16.59,95.4,15.37c1.84,1.29,2.42,1.66,4.15,3.06a.43.43,0,0,1,.2.3c0,.14-.17.24-.37.24Zm-8.4-6.49a11,11,0,0,0,2.52.27h6.93c1-1.26,1.39-1.63,2.48-2.79,1.67,1.23,2.18,1.63,3.84,3,.17.13.24.24.24.34s-.13.2-.41.2H79a12.66,12.66,0,0,0-2,.17Z"/><path class="cls-1" d="M106.66,30.87a22.93,22.93,0,0,0,4.72-8.4c3.64,1.29,4.39,1.63,4.39,2s-.41.47-1.43.54a24.65,24.65,0,0,1-7.41,6.12Zm15.06-10.06A22.69,22.69,0,0,1,123.15,19a27.23,27.23,0,0,1,1.9,2,111.57,111.57,0,0,0,.54-13.6,54.11,54.11,0,0,0-.27-6.9,24.84,24.84,0,0,1,4.18,2h3.74c.75-.88,1-1.16,1.87-2,1.19.78,1.57,1.05,2.69,1.9.27.21.37.38.37.55,0,.34-.27.61-1,1.09V19.41c0,2.21,0,2.31,0,4.25.07,1.4.07,1.63.07,3.3v.37c0,1.4-.27,2.08-1.05,2.65a6.5,6.5,0,0,1-3.54,1c-.41,0-.51-.1-.58-.74a2.46,2.46,0,0,0-1.22-1.87,13.32,13.32,0,0,0-3-1.09l0-.41c3.36.17,3.43.17,5.13.21.48,0,.58-.17.58-.62V18h-4.86a19.23,19.23,0,0,1-1.26,5.65,17,17,0,0,1-3.5,5.37,22.8,22.8,0,0,1-2.79,2.48l-.34-.34A21.68,21.68,0,0,0,125,21.52H109.34a11.63,11.63,0,0,0-2.21.2l-.2-1.19a11.65,11.65,0,0,0,2.41.28h1V6.29h-1.16a9.21,9.21,0,0,0-1.9.2l-.17-1.19a9.06,9.06,0,0,0,2,.28h1.19V4.18a27.45,27.45,0,0,0-.21-3.91c4.56.34,4.93.41,4.93.92,0,.31-.37.51-1.39.82V5.58h4.42V3.84a34.64,34.64,0,0,0-.14-3.53c4.39.34,4.8.4,4.8.88,0,.27-.31.51-1.3.85V5.58h.34a18.21,18.21,0,0,1,1.5-1.77c.92.85,1.19,1.09,2,2a.63.63,0,0,1,.13.31c0,.1-.13.17-.34.17h-3.67V20.81Zm-8.09-10.48h4.42v-4h-4.42Zm0,5h4.42V11.05h-4.42Zm0,5.51h4.42V16h-4.42Zm3.16,1.93c3.81.85,5.44,1.84,5.44,3.23,0,1.23-.92,2.49-1.8,2.49-.55,0-.68-.21-1.23-1.4A11.5,11.5,0,0,0,116.62,23ZM129,10.54a66.68,66.68,0,0,1-.27,6.73h4.79V10.54Zm4.52-.71V3.26h-4.49c0,1.26,0,3.44,0,6.57Z"/><path class="cls-1" d="M69,175.71a40.87,40.87,0,0,0,7.88-7.38,25,25,0,0,0,4.93-8.26l2.69.54c2.45.48,3.19.72,3.19,1.09s-.27.44-1.39.68a17,17,0,0,0,6.83,5.92,25.2,25.2,0,0,0,8.4,2.54v.38a4.08,4.08,0,0,0-2.31,2.48c-.14.31-.31.85-.41,1.12s-.2.44-.41.44a10.53,10.53,0,0,1-2.92-1.36,24,24,0,0,1-6.77-6.15,17.78,17.78,0,0,1-2.92-5.1,34.1,34.1,0,0,1-16.56,13.43ZM85.07,179a55.58,55.58,0,0,1-6.53,7.55c6.32-.1,9.52-.27,12.95-.58a21.09,21.09,0,0,0-3.77-5.2l.27-.27a30.4,30.4,0,0,1,6.26,3.74c1.76,1.42,2.48,2.38,2.48,3.4,0,1.76-1.23,3.6-2.38,3.6-.44,0-.58-.17-.95-1.05A28.89,28.89,0,0,0,92,186.93l-.79.23c-3.46.92-9.92,2.21-16.86,3.3-.24,1-.41,1.36-.75,1.36s-.37,0-1.63-5.44a32.08,32.08,0,0,0,3.84.17H77A48.81,48.81,0,0,0,79.83,179H73a9.6,9.6,0,0,0-2.11.2L70.65,178a9.65,9.65,0,0,0,2.48.31H92.89c1.08-1.3,1.42-1.67,2.51-2.89,1.84,1.29,2.42,1.66,4.15,3.06a.43.43,0,0,1,.2.3c0,.14-.17.24-.37.24Zm-8.4-6.49a11,11,0,0,0,2.52.27h6.93c1-1.26,1.39-1.63,2.48-2.79,1.67,1.23,2.18,1.63,3.84,3,.17.13.24.24.24.34s-.13.2-.41.2H79a12.66,12.66,0,0,0-2,.17Z"/><path class="cls-1" d="M115,169.83c.72-1,1-1.3,1.67-2.25a30.11,30.11,0,0,1,2.45,2.48.76.76,0,0,1,.13.31c0,.1-.13.17-.37.17h-4.56V179c1.36-.47,2-.74,3.88-1.53l.17.38c-3,2.68-3.06,2.72-8.77,6.59-.07,1.16-.21,1.53-.55,1.53s-.4-.2-2.07-4.93a21.75,21.75,0,0,0,3.74-.88v-9.62H109a8.48,8.48,0,0,0-2,.2l-.17-1.19a6.65,6.65,0,0,0,2.14.28h1.7v-5.68a35.35,35.35,0,0,0-.14-3.54c5,.48,5.14.51,5.14,1,0,.3-.38.54-1.4.85v7.38Zm12.68,9a17.58,17.58,0,0,1-3.46,4.25c-2.32,2.11-4.46,3.23-9,4.83l-.17-.45a23.46,23.46,0,0,0,6.57-5.13,15.4,15.4,0,0,0,2.41-3.5h-1.57a25.16,25.16,0,0,1-8.19,5.3l-.24-.34a22.43,22.43,0,0,0,7.21-8.67h-2.48a7.93,7.93,0,0,0-2.11.21l-.2-1.19a8.14,8.14,0,0,0,2.31.27h14.55c1-1.12,1.33-1.43,2.38-2.48,1.5,1.08,1.94,1.46,3.37,2.65.13.17.2.27.2.34s-.17.2-.44.2H125.39a19.25,19.25,0,0,1-2.35,3h10.51c.75-.81,1-1.05,1.77-1.83,1.19.85,1.53,1.09,2.58,1.94.27.2.38.34.38.51s-.31.51-1.06.81c-.54,6.12-1.12,9-2,10.17a4.36,4.36,0,0,1-2.76,1.53,11.94,11.94,0,0,1-1.29.13c-.44,0-.54-.1-.54-.54a2.47,2.47,0,0,0-1-1.84,11.77,11.77,0,0,0-2.86-1.19l.07-.4c2,.17,3.4.27,4.15.27,1,0,1.36-.21,1.63-1a41.46,41.46,0,0,0,1.12-7.85h-.64a20,20,0,0,1-4.35,6.22c-2.83,2.75-5.88,4.42-11.15,6l-.24-.38c4.25-2.31,6.63-4.08,8.8-6.69a29.3,29.3,0,0,0,3.33-5.17Zm-4.35-6.66c0,.71-.37.84-2.28.84-1.15,0-1.32-.1-1.32-.74.07-2.25.1-3.2.1-6.05,0-4,0-4.46-.1-6.12a33.16,33.16,0,0,1,3.94,1.9h7.21c.78-.82,1-1,1.84-1.84,1.22.79,1.56,1.06,2.68,1.87.31.21.44.38.44.51,0,.31-.27.51-1.12.92v2c0,1.49,0,3.74.07,6.35,0,.35-.07.48-.24.62a6.06,6.06,0,0,1-2.31.27c-.92,0-1.09-.07-1.09-.54v-.72h-7.82Zm7.82-9.46h-7.82v3.57h7.82ZM123.28,167v3.74h7.82V167Z"/><path class="cls-1" d="M3.3,350.12A24.66,24.66,0,0,0,9.62,341a26.27,26.27,0,0,0,1.94-7.79,1.88,1.88,0,0,0-.85-1.67,4,4,0,0,0-1.5-.74,1.65,1.65,0,0,1,1.3-.45,11.05,11.05,0,0,1,5.23,2.28c2.69-1.87,6.39-5.5,6.39-6.22,0-.3-.3-.41-1.26-.41a58.91,58.91,0,0,0-9.31,1.3,23.43,23.43,0,0,0-6,2,2.94,2.94,0,0,1-1.5.47c-.88,0-2.07-.91-3-2.38a6.1,6.1,0,0,1-1-2.75,3,3,0,0,1,.2-1A3.83,3.83,0,0,0,4,325.81a50.44,50.44,0,0,0,6.42-.57c6-.72,7.82-.92,9.18-1.13a5.53,5.53,0,0,0,2-.54,1.48,1.48,0,0,1,.61-.14c.62,0,1.23.34,2.32,1.26,1.7,1.46,2.75,2.82,2.75,3.57a1.1,1.1,0,0,1-.68,1.05,2.55,2.55,0,0,1-1,.31,5.89,5.89,0,0,0-1.33.48c-2.95,1.39-4.11,1.87-8.36,3.5-.58,1.94-.95,3.23-1.19,3.87A21.52,21.52,0,0,1,8.57,347a20.6,20.6,0,0,1-5,3.44Z"/><path class="cls-1" d="M37,338a41.35,41.35,0,0,0,8.73-10.51c1.06-1.76,1.47-2.72,1.47-3.4a1.69,1.69,0,0,0-.48-1.19,3.54,3.54,0,0,0-1.63-1.15,2,2,0,0,1,.88-.21,8.79,8.79,0,0,1,4.52,1.81,2.16,2.16,0,0,1,1.09,1.56c0,.48-.07.61-.92,1.7l-.95,1.26c.31,0,.54.07.68.07a33.76,33.76,0,0,0,3.54-.48,6.67,6.67,0,0,0,2.34-.75c.61-.3.75-.37,1-.37a4.27,4.27,0,0,1,2.35,1.43c.88.85,1.32,1.52,1.32,2.07a1.33,1.33,0,0,1-.64,1.09c-.72.51-.75.54-1.74,2.21a41.1,41.1,0,0,1-6,8.19,33.25,33.25,0,0,1-14.75,9.08l-.17-.38a29.07,29.07,0,0,0,4.93-3.26,46.28,46.28,0,0,0,10.23-11.22A40.67,40.67,0,0,0,56,329.69c.06-.24.13-.38.13-.44a.5.5,0,0,0,.07-.17.29.29,0,0,0-.1-.17H56a.23.23,0,0,1-.14,0s-.07,0-.14.07a1.5,1.5,0,0,1-.37.07,18.31,18.31,0,0,0-2.58.58c-.72.24-.72.24-1.3.41a3.93,3.93,0,0,1-.44.06,3.3,3.3,0,0,1-2.11-1.15,31.25,31.25,0,0,1-11.66,9.45Z"/><path class="cls-1" d="M88.26,339.24a42.45,42.45,0,0,0,5-6.53,6.19,6.19,0,0,0,.64-1.22.23.23,0,0,0-.24-.2c-.85,0-7,2.17-9.75,3.46-.14,1.53-.21,3.44-.21,4.7,0,4.52.58,5.27,4.18,5.27A15.19,15.19,0,0,0,94,343.66a1.89,1.89,0,0,1,.82-.24,4.32,4.32,0,0,1,1.9.72,2.56,2.56,0,0,1,1.53,2A1.35,1.35,0,0,1,97,347.47a34.78,34.78,0,0,1-6.7.51c-5.13,0-7.61-1-8.56-3.47-.58-1.53-.82-3.77-.85-8.67a33.13,33.13,0,0,0-4.7,2.42,1.86,1.86,0,0,1-1.19.47c-1.63,0-4.11-2.92-4.11-4.86a2.5,2.5,0,0,1,.1-.54,3.7,3.7,0,0,0,3,1.87,32.47,32.47,0,0,0,6.84-1.81,54.29,54.29,0,0,0-.31-7.81c-.27-1.09-1.15-1.81-2.82-2.21a2.21,2.21,0,0,1,1.73-.51A11.34,11.34,0,0,1,83.84,324c1,.55,1.57,1.16,1.57,1.8,0,.34,0,.41-.41,1.13-.51.95-.75,2.24-1,5.47,1.87-.58,5.58-1.8,6.9-2.28a5.58,5.58,0,0,0,2.52-1.29,1.71,1.71,0,0,1,1.12-.48,6,6,0,0,1,3.3,1.81c1,.85,1.39,1.46,1.39,2s-.23.81-1.12,1.18a9.34,9.34,0,0,0-1.9,1.23,38.14,38.14,0,0,1-7.69,4.89Z"/><path class="cls-1" d="M108,348.42a46.46,46.46,0,0,0,10.1-8.67A54.42,54.42,0,0,0,126.48,327a35.65,35.65,0,0,0-9.11,2.65,2.49,2.49,0,0,1-1.29.41c-.79,0-1.57-.61-2.45-1.91a5.66,5.66,0,0,1-1.12-2.92,1.44,1.44,0,0,1,.23-.85c1,1.7,1.94,2.31,3.57,2.31a56.57,56.57,0,0,0,7.38-1.08c2.24-.45,2.45-.55,3.3-1.09a1.47,1.47,0,0,1,.92-.31,5.16,5.16,0,0,1,2.48,1.53c.75.72,1.09,1.23,1.09,1.7a1,1,0,0,1-.55.85,6.94,6.94,0,0,0-2,2.48,60.26,60.26,0,0,1-4.28,6c4.45,1.94,7.27,3.57,8.8,5.07a4.43,4.43,0,0,1,1.43,3.4c0,1.73-.78,3-1.84,3-.57,0-1-.41-1.39-1.36a24.26,24.26,0,0,0-7.62-9.35,36.36,36.36,0,0,1-8.12,7.45,30.73,30.73,0,0,1-7.79,3.8Z"/></g></g></svg>