<svg xmlns="http://www.w3.org/2000/svg" viewBox="0 0 844.55 509.82"><defs><style>.cls-1{fill:#fff;}</style></defs><g id="レイヤー_2" data-name="レイヤー 2"><g id="レイヤー_2-2" data-name="レイヤー 2"><path class="cls-1" d="M185.16,26a13.23,13.23,0,0,1,2.37-6.24c1.25-1.79,2.59-3.07,6.69-6.4a10,10,0,0,0,2.43-2.49,5.3,5.3,0,0,0,.7-2.69A4.21,4.21,0,0,0,193,3.65a3.72,3.72,0,0,0-3.81,2.49,8.94,8.94,0,0,0-.32,2.34c-.06,1.09-.41,1.38-1.53,1.38s-1.63-.39-1.63-1.32c0-3.29,3.19-5.76,7.48-5.76,2.69,0,4.93.87,6.15,2.4a5.2,5.2,0,0,1,1,3.4c0,2.65-1.18,4.28-4.74,6.46-4,2.46-4.86,3.1-6.27,4.48a9,9,0,0,0-2.62,4.06H196c2.3,0,3.1-.7,3.74-3.39l1,.22L199.82,26Z"/><path class="cls-1" d="M208,6.33a7.17,7.17,0,0,1,12.38,0,17.81,17.81,0,0,1,1.82,8.29,17.87,17.87,0,0,1-1.82,8.29,7.17,7.17,0,0,1-12.38,0,17.83,17.83,0,0,1-1.83-8.29A17.89,17.89,0,0,1,208,6.33Zm6.2,19.3c3.43,0,4.93-3.36,4.93-11s-1.5-11-4.93-11-4.92,3.39-4.92,11S210.76,25.63,214.18,25.63Z"/><path class="cls-1" d="M227.59,26A13.33,13.33,0,0,1,230,19.74c1.25-1.79,2.59-3.07,6.69-6.4a10,10,0,0,0,2.43-2.49,5.3,5.3,0,0,0,.7-2.69,4.21,4.21,0,0,0-4.35-4.51,3.72,3.72,0,0,0-3.81,2.49,8.94,8.94,0,0,0-.32,2.34c-.06,1.09-.41,1.38-1.53,1.38s-1.63-.39-1.63-1.32c0-3.29,3.2-5.76,7.48-5.76,2.69,0,4.93.87,6.15,2.4a5.2,5.2,0,0,1,1,3.4c0,2.65-1.18,4.28-4.73,6.46-4,2.46-4.87,3.1-6.28,4.48a9.18,9.18,0,0,0-2.62,4.06h9.25c2.3,0,3.1-.7,3.74-3.39l1,.22L242.25,26Z"/><path class="cls-1" d="M248.81,26a13.12,13.12,0,0,1,2.37-6.24c1.24-1.79,2.59-3.07,6.68-6.4a9.94,9.94,0,0,0,2.44-2.49,5.3,5.3,0,0,0,.7-2.69,4.21,4.21,0,0,0-4.35-4.51,3.71,3.71,0,0,0-3.81,2.49,8.53,8.53,0,0,0-.32,2.34c-.06,1.09-.42,1.38-1.54,1.38s-1.63-.39-1.63-1.32c0-3.29,3.2-5.76,7.49-5.76,2.69,0,4.93.87,6.14,2.4a5.15,5.15,0,0,1,1,3.4c0,2.65-1.19,4.28-4.74,6.46-4,2.46-4.86,3.1-6.27,4.48a9,9,0,0,0-2.62,4.06h9.24c2.31,0,3.11-.7,3.75-3.39l1,.22L263.46,26Z"/><path class="cls-1" d="M294.92,11.74h4.8l1.92-2c1.18,1,1.57,1.24,2.72,2.27a.49.49,0,0,1,.16.25c0,.13-.19.26-.39.26h-9.21v7.2h6.72c.86-1,1.15-1.28,2.05-2.24,1.34,1,1.76,1.34,3,2.4.13.13.19.22.19.29a.32.32,0,0,1-.35.28H294.92v4c0,.93,0,1.06.13,4.45-.07.51-.39.64-1.63.64-.71,0-.9-.09-.93-.51.06-1.12.16-3.55.16-4.58v-4H280.94c-.87,0-2.28.07-3,.13l-.2-1.12a20.21,20.21,0,0,0,3.24.26h2.75V13.5a27.58,27.58,0,0,0-.1-3.29,27.14,27.14,0,0,1,2.85,1.53h6.21V5.86h-7.3A30.78,30.78,0,0,1,278.82,13l-.32-.35a22,22,0,0,0,2.88-3.74A33.89,33.89,0,0,0,285.67.1c3.55,1.15,3.75,1.24,3.75,1.5a.42.42,0,0,1-.23.35,4.91,4.91,0,0,1-1.44.29l-1.92,2.88h15c.83-1,1.08-1.25,1.92-2.14,1.28,1,1.66,1.28,3,2.36a.48.48,0,0,1,.16.26c0,.16-.16.26-.35.26H294.92Zm-8.93.74v7.2h6.66v-7.2Z"/><path class="cls-1" d="M329.16,14.08a8.93,8.93,0,0,1,3.58.89,5.38,5.38,0,0,1,2.88,5c0,3.94-3.16,6.56-7.93,6.56-4.16,0-7.27-2-7.27-4.64,0-1,.58-1.5,1.83-1.5.93,0,1.28.32,1.34,1.22a4.22,4.22,0,0,0,.8,2.88,4,4,0,0,0,3.17,1.18c3.17,0,5-2.11,5-5.73,0-2.24-.76-3.9-2.14-4.64a8.4,8.4,0,0,0-3.71-.76h-1.41v-1h1.41a6.53,6.53,0,0,0,3.49-1A4.67,4.67,0,0,0,332,8.45a6.17,6.17,0,0,0-.8-3.2,3.53,3.53,0,0,0-3.33-1.6c-2.4,0-3.61,1.25-3.77,3.81-.07,1.21-.36,1.53-1.48,1.53S321,8.64,321,7.78c0-2.72,3.17-5,7-5,4.07,0,7,2.37,7,5.6a5.07,5.07,0,0,1-2.62,4.36,11.09,11.09,0,0,1-3.2,1Z"/><path class="cls-1" d="M357.8,17.57a19.15,19.15,0,0,1-2,6.49,16.22,16.22,0,0,1-4.48,5.38l-.28-.29a20,20,0,0,0,4.16-8.48,55.66,55.66,0,0,0,.76-11.1c0-4.39-.06-7.2-.19-9,1.28.74,1.7,1,2.95,1.76h11.93c.42-.51.83-1,1.22-1.44.93.61,1.18.8,2.08,1.44.41.32.48.39.48.48s-.1.23-1.25.93V16.83c0,5,0,5,0,9.5,0,1.64-.57,2.05-3.71,2.82a1.74,1.74,0,0,0-1.31-1.63,20.06,20.06,0,0,0-4.16-.8v-.51c2.59.12,2.85.12,6.24.22h.09l.13,0s0,0,.29-.13c.06,0,.1-.09.1-.32V17.57Zm13.06-7.3H358.22a56.27,56.27,0,0,1-.29,6.56h12.93Zm0-7.23H358.31c0,.51,0,2.69-.06,6.5h12.61Z"/><path class="cls-1" d="M395.46,25.05a5.49,5.49,0,0,0,2.12-.32c.7-.32.86-1,.86-3.29V8c-.06-2.79-.06-2.79-.32-3s-.64-.29-1.44-.29h-1.22V3.74a35.87,35.87,0,0,0,6.08-.83c-.16,2.53-.25,5.25-.25,9v9.51c0,2.14.13,2.78.57,3.17s.52.35,2.34.44V26h-8.74Z"/><path class="cls-1" d="M428.94,20.22c0,3.84-3.11,6.27-8,6.27s-7.75-2.3-7.75-5.92a6,6,0,0,1,2.4-4.64,13.3,13.3,0,0,1,3.08-1.56,15.67,15.67,0,0,1-2.85-1.7,4.55,4.55,0,0,1-1.7-3.87,5.92,5.92,0,0,1,1.22-3.71,7.84,7.84,0,0,1,5.92-2.31,7,7,0,0,1,5.85,2.6,5.12,5.12,0,0,1,.9,3.1,4.44,4.44,0,0,1-1.86,3.74,7.44,7.44,0,0,1-2.91,1.44C427.11,15.2,428.94,17.31,428.94,20.22Zm-11.49-4a5.39,5.39,0,0,0-1.86,4.16c0,3.17,2.24,5.28,5.57,5.28,3.1,0,5.22-1.92,5.22-4.74,0-1.53-.68-2.62-2.37-3.8a19.69,19.69,0,0,0-2.95-1.6l-1.28-.58A5.49,5.49,0,0,0,417.45,16.19Zm8.25-7.65c0-3.07-1.76-4.89-4.76-4.89a4.06,4.06,0,0,0-4.42,4.25c0,1.7.7,2.72,2.66,3.84a23.38,23.38,0,0,0,2.27,1.06c.22.13.54.25.93.48C424.65,12.29,425.7,10.78,425.7,8.54Z"/><path class="cls-1" d="M447.75,6.78c0-2.36,0-3.16-.09-5.28,1.12.64,1.47.87,2.56,1.6h13.4c.58-.64.74-.83,1.32-1.44.89.61,1.18.8,2,1.44.26.2.35.32.35.42s-.28.45-1.08.9l0,10.14q0,3.69.23,13.25v.09a.37.37,0,0,1-.26.35,6.58,6.58,0,0,1-1.72.23c-.45,0-.55,0-.55-.23V26H450v2.18a.37.37,0,0,1-.09.29,4.73,4.73,0,0,1-1.92.29c-.35,0-.45-.1-.48-.42.13-2.88.13-3.33.16-10.14Zm16.16-2.94H450V13.89h13.89ZM450,14.62V25.28h13.89V14.62Z"/><path class="cls-1" d="M492.2,2.59c-2.78,3.84-4.13,8.61-4.13,14.4s1.35,10.53,4.13,14.43l-.64.51A19.17,19.17,0,0,1,488,26.81,23.31,23.31,0,0,1,485.51,17a23.61,23.61,0,0,1,2.82-10.56,20.46,20.46,0,0,1,3.23-4.35Z"/><path class="cls-1" d="M502.25,21.92c0,2.94.19,3.2,2.72,3.26V26h-8v-.8c2.24-.06,2.43-.32,2.43-3.26V6.85a8.29,8.29,0,0,0-.16-2.37c-.22-.67-.8-.93-2.27-.93V2.78h16.25l.39,5.7-1,.06c-.73-3.9-1.88-4.8-6.17-4.8h-4.16V13.6h3.42c3.52,0,4.13-.45,4.48-3.23h.9v7.48h-.9c-.44-2.88-1-3.29-4.48-3.29h-3.42Z"/><path class="cls-1" d="M523,9.47c.06,1.6.09,2,.09,2.69v1c1.06-2.43,2.79-3.8,4.67-3.8a2.2,2.2,0,0,1,2.43,2c0,.8-.67,1.31-1.69,1.31-.71,0-1-.19-1.19-.8s-.38-.9-.89-.9a3.15,3.15,0,0,0-2.4,1.92,8.3,8.3,0,0,0-.87,4.07v5c0,3,.16,3.23,2.31,3.3V26h-7.33v-.7c2.15-.07,2.34-.32,2.34-3.3V13.41c0-2.4-.39-2.88-2.21-2.88V9.82Z"/><path class="cls-1" d="M538.89,9.47c-.1,1.86-.19,4.64-.19,6V22c0,3,.16,3.23,2.3,3.3V26h-7.29v-.7c2.2-.07,2.36-.32,2.36-3.3V13.44c0-1.6-.12-2.34-.48-2.62s-.76-.29-1.88-.29V9.82Zm-1.6-6.78a1.81,1.81,0,1,1-1.82,1.79A1.79,1.79,0,0,1,537.29,2.69Z"/><path class="cls-1" d="M545.54,31.42c2.79-3.9,4.13-8.57,4.13-14.43s-1.34-10.53-4.13-14.4l.64-.51A19.62,19.62,0,0,1,549.8,7.2,23.31,23.31,0,0,1,552.23,17a23.36,23.36,0,0,1-2.81,10.56,20.4,20.4,0,0,1-3.24,4.38Z"/><path class="cls-1" d="M571.72,16h7.07v1.76h-7.07Z"/><path class="cls-1" d="M606.31,14.08a8.93,8.93,0,0,1,3.58.89,5.38,5.38,0,0,1,2.88,5c0,3.94-3.16,6.56-7.93,6.56-4.16,0-7.26-2-7.26-4.64,0-1,.57-1.5,1.82-1.5.93,0,1.28.32,1.34,1.22a4.22,4.22,0,0,0,.8,2.88,4,4,0,0,0,3.17,1.18c3.17,0,5-2.11,5-5.73,0-2.24-.76-3.9-2.14-4.64a8.4,8.4,0,0,0-3.71-.76h-1.41v-1h1.41a6.53,6.53,0,0,0,3.49-1,4.67,4.67,0,0,0,1.82-4.06,6.17,6.17,0,0,0-.8-3.2,3.53,3.53,0,0,0-3.33-1.6c-2.4,0-3.61,1.25-3.77,3.81-.07,1.21-.35,1.53-1.47,1.53s-1.7-.35-1.7-1.21c0-2.72,3.17-5,7-5,4.07,0,7,2.37,7,5.6a5.07,5.07,0,0,1-2.62,4.36,11.09,11.09,0,0,1-3.2,1Z"/><path class="cls-1" d="M635,17.57a19.15,19.15,0,0,1-2,6.49,16.31,16.31,0,0,1-4.47,5.38l-.29-.29a20,20,0,0,0,4.16-8.48,55.66,55.66,0,0,0,.76-11.1c0-4.39-.06-7.2-.19-9,1.28.74,1.7,1,3,1.76h11.93c.42-.51.83-1,1.22-1.44.93.61,1.18.8,2.08,1.44.41.32.48.39.48.48s-.1.23-1.25.93V16.83c0,5,0,5,0,9.5,0,1.64-.57,2.05-3.71,2.82a1.74,1.74,0,0,0-1.31-1.63,20.06,20.06,0,0,0-4.16-.8v-.51c2.59.12,2.85.12,6.24.22h.09l.13,0s0,0,.29-.13c.06,0,.1-.09.1-.32V17.57ZM648,10.27H635.37a56.27,56.27,0,0,1-.29,6.56H648ZM648,3H635.46c0,.51,0,2.69-.06,6.5H648Z"/><path class="cls-1" d="M669.19,26a13.33,13.33,0,0,1,2.37-6.24c1.25-1.79,2.59-3.07,6.69-6.4a10,10,0,0,0,2.43-2.49,5.3,5.3,0,0,0,.7-2.69A4.21,4.21,0,0,0,677,3.65a3.72,3.72,0,0,0-3.81,2.49,8.94,8.94,0,0,0-.32,2.34c-.06,1.09-.41,1.38-1.53,1.38s-1.63-.39-1.63-1.32c0-3.29,3.2-5.76,7.48-5.76,2.69,0,4.93.87,6.15,2.4a5.2,5.2,0,0,1,1,3.4c0,2.65-1.18,4.28-4.73,6.46-4,2.46-4.87,3.1-6.28,4.48a9.18,9.18,0,0,0-2.62,4.06H680c2.3,0,3.1-.7,3.74-3.39l1,.22L683.85,26Z"/><path class="cls-1" d="M692,6.33a7.17,7.17,0,0,1,12.38,0,17.69,17.69,0,0,1,1.82,8.29,17.75,17.75,0,0,1-1.82,8.29,6.78,6.78,0,0,1-6.17,3.55A6.86,6.86,0,0,1,692,22.91a17.83,17.83,0,0,1-1.83-8.29A17.89,17.89,0,0,1,692,6.33Zm6.21,19.3c3.42,0,4.92-3.36,4.92-11s-1.5-11-4.92-11-4.93,3.39-4.93,11S694.79,25.63,698.22,25.63Z"/><path class="cls-1" d="M724.9,6.78c0-2.36,0-3.16-.09-5.28,1.12.64,1.47.87,2.56,1.6h13.4c.58-.64.74-.83,1.32-1.44.89.61,1.18.8,2,1.44.26.2.36.32.36.42s-.29.45-1.09.9l0,10.14c0,2.46.06,6.88.22,13.25v.09a.37.37,0,0,1-.26.35,6.58,6.58,0,0,1-1.72.23c-.45,0-.55,0-.55-.23V26H727.18v2.18a.37.37,0,0,1-.1.29,4.73,4.73,0,0,1-1.92.29c-.35,0-.45-.1-.48-.42.13-2.88.13-3.33.16-10.14Zm16.16-2.94H727.18V13.89h13.88ZM727.18,14.62V25.28h13.88V14.62Z"/><path class="cls-1" d="M769.35,2.59c-2.78,3.84-4.13,8.61-4.13,14.4s1.35,10.53,4.13,14.43l-.64.51a19.17,19.17,0,0,1-3.61-5.12A23.3,23.3,0,0,1,762.67,17a23.6,23.6,0,0,1,2.81-10.56,20.46,20.46,0,0,1,3.23-4.35Z"/><path class="cls-1" d="M775,19.58H776a6.12,6.12,0,0,0,1.31,4,6.1,6.1,0,0,0,4.8,1.83c2.91,0,4.64-1.54,4.64-4.16s-1.18-3.75-6-6.05c-2.72-1.31-3.71-1.92-4.61-2.88a5.29,5.29,0,0,1-1.41-3.77,6,6,0,0,1,2-4.64,6.51,6.51,0,0,1,4.57-1.54,13.11,13.11,0,0,1,3.78.54,6,6,0,0,0,1.18.16,5.85,5.85,0,0,0,1.92-.48l-.19,6.31H787a7.2,7.2,0,0,0-.89-3.36,5.11,5.11,0,0,0-4.61-2.27,4.16,4.16,0,0,0-3.39,1.34,4.54,4.54,0,0,0-.93,2.78c0,2.12,1,3.17,4.83,5,4,1.89,5.51,2.95,6.4,4.35a6.09,6.09,0,0,1,.9,3.52,5.4,5.4,0,0,1-1.82,4.36,7.67,7.67,0,0,1-5.22,1.76,18.89,18.89,0,0,1-4.29-.55,6.77,6.77,0,0,0-1-.09,11.24,11.24,0,0,0-2.21.32Z"/><path class="cls-1" d="M806.7,26.21a25.42,25.42,0,0,1-.16-3.3,6.52,6.52,0,0,1-5.7,3.46,4.28,4.28,0,0,1-4.26-2.69,15.71,15.71,0,0,1-.44-5V13.44c0-1.66-.13-2.34-.48-2.62-.2-.2-.48-.26-1.09-.29H794V9.82l5-.32c-.16,3-.19,3.75-.19,6v2.78c0,3.23.06,4.09.45,5.21a2.48,2.48,0,0,0,2.59,1.8A4.63,4.63,0,0,0,806,22.14a7.87,7.87,0,0,0,.58-3.77V13.44c0-1.7-.1-2.31-.49-2.59a1.6,1.6,0,0,0-1.08-.32h-.58V9.82l5-.32c-.1,2.4-.16,4.51-.16,6v6c0,3.2.29,3.78,1.95,3.78h.23V26Z"/><path class="cls-1" d="M820.62,12.77c1.4-2.47,3-3.39,5.63-3.39,2,0,3.33.6,4.19,2a6.9,6.9,0,0,1,.83,4V22c0,3,.16,3.23,2.34,3.3V26h-7.27v-.7c1.06,0,1.63-.16,1.89-.48a1.73,1.73,0,0,0,.32-1.06c0-.35.1-1.53.1-1.76V15.55a8.28,8.28,0,0,0-.52-3.46,2.84,2.84,0,0,0-2.81-1.69,4.1,4.1,0,0,0-3.62,2.14,7.8,7.8,0,0,0-1.08,3.91V22c0,3,.16,3.23,2.33,3.3V26h-7.29v-.7C817.8,25.21,818,25,818,22V13.41c0-2.4-.38-2.88-2.21-2.88V9.82l4.84-.35Z"/><path class="cls-1" d="M837.86,31.42C840.65,27.52,842,22.85,842,17s-1.34-10.53-4.13-14.4l.64-.51a19.62,19.62,0,0,1,3.62,5.12A23.31,23.31,0,0,1,844.55,17a23.36,23.36,0,0,1-2.81,10.56,20.4,20.4,0,0,1-3.24,4.38Z"/><path class="cls-1" d="M188.58,85.05a5.49,5.49,0,0,0,2.12-.32c.7-.32.86-1,.86-3.29V68c-.06-2.79-.06-2.79-.32-3s-.64-.29-1.44-.29h-1.22v-.93a35.87,35.87,0,0,0,6.08-.83c-.16,2.53-.25,5.25-.25,9v9.5c0,2.14.13,2.78.57,3.17s.52.35,2.34.44V86h-8.74Z"/><path class="cls-1" d="M209.8,85.05a5.38,5.38,0,0,0,2.11-.32c.71-.32.87-1,.87-3.29V68c-.07-2.79-.07-2.79-.32-3s-.64-.29-1.44-.29H209.8v-.93a36.16,36.16,0,0,0,6.08-.83c-.16,2.53-.26,5.25-.26,9v9.5c0,2.14.13,2.78.58,3.17s.51.35,2.34.44V86H209.8Z"/><path class="cls-1" d="M233.26,71.62A2.26,2.26,0,1,1,231,69.38,2.19,2.19,0,0,1,233.26,71.62Zm0,12.51A2.26,2.26,0,1,1,231,81.89,2.19,2.19,0,0,1,233.26,84.13Z"/><path class="cls-1" d="M241.64,66.34a7.16,7.16,0,0,1,12.38,0,17.62,17.62,0,0,1,1.83,8.28A17.74,17.74,0,0,1,254,82.91a6.77,6.77,0,0,1-6.17,3.55,6.86,6.86,0,0,1-6.21-3.55,18,18,0,0,1-1.82-8.29A17.94,17.94,0,0,1,241.64,66.34Zm6.21,19.29c3.42,0,4.93-3.36,4.93-11s-1.51-11-4.93-11-4.93,3.39-4.93,11S244.42,85.63,247.85,85.63Z"/><path class="cls-1" d="M262.86,66.34a7.16,7.16,0,0,1,12.38,0,17.74,17.74,0,0,1,1.82,8.28,17.87,17.87,0,0,1-1.82,8.29,7.17,7.17,0,0,1-12.38,0A17.83,17.83,0,0,1,261,74.62,17.82,17.82,0,0,1,262.86,66.34Zm6.2,19.29c3.43,0,4.93-3.36,4.93-11s-1.5-11-4.93-11-4.92,3.39-4.92,11S265.64,85.63,269.06,85.63Z"/><path class="cls-1" d="M295.69,76h7.07v1.76h-7.07Z"/><path class="cls-1" d="M325,85.05a5.47,5.47,0,0,0,2.11-.32c.7-.32.86-1,.86-3.29V68c-.06-2.79-.06-2.79-.32-3s-.64-.29-1.44-.29H325v-.93a36.16,36.16,0,0,0,6.08-.83c-.16,2.53-.26,5.25-.26,9v9.5c0,2.14.13,2.78.58,3.17s.51.35,2.33.44V86H325Z"/><path class="cls-1" d="M349.73,77.73a7.35,7.35,0,0,1-5.18-2,7.6,7.6,0,0,1-1.85-5.15c0-4.64,3.13-7.81,7.71-7.81,5.08,0,7.8,3.72,7.8,10.76,0,4.63-1,8.44-2.81,10.52a7.09,7.09,0,0,1-5.57,2.43c-3.33,0-6.24-1.72-6.24-3.74,0-1,.67-1.63,1.83-1.63s1.37.29,1.43,1.28c.2,2.24,1.16,3.29,3,3.29,2.21,0,3.78-1.5,4.64-4.41a24.2,24.2,0,0,0,.74-6.08A7,7,0,0,1,349.73,77.73ZM354,66a4.06,4.06,0,0,0-7.26-.25,10.45,10.45,0,0,0-1,4.8c0,3.93,1.73,6.36,4.48,6.36a5,5,0,0,0,3.4-1.4,5.39,5.39,0,0,0,1.63-4.26A11.08,11.08,0,0,0,354,66Z"/><path class="cls-1" d="M369.64,71.62a2.26,2.26,0,1,1-2.24-2.24A2.19,2.19,0,0,1,369.64,71.62Zm0,12.51a2.26,2.26,0,1,1-2.24-2.24A2.19,2.19,0,0,1,369.64,84.13Z"/><path class="cls-1" d="M378,66.34a7.17,7.17,0,0,1,12.39,0,17.74,17.74,0,0,1,1.82,8.28,17.87,17.87,0,0,1-1.82,8.29,6.8,6.8,0,0,1-6.18,3.55A6.87,6.87,0,0,1,378,82.91a18,18,0,0,1-1.82-8.29A17.94,17.94,0,0,1,378,66.34Zm6.21,19.29c3.42,0,4.93-3.36,4.93-11s-1.51-11-4.93-11-4.93,3.39-4.93,11S380.81,85.63,384.23,85.63Z"/><path class="cls-1" d="M399.24,66.34a7.16,7.16,0,0,1,12.38,0,17.74,17.74,0,0,1,1.83,8.28,17.87,17.87,0,0,1-1.83,8.29,6.78,6.78,0,0,1-6.17,3.55,6.86,6.86,0,0,1-6.21-3.55,17.83,17.83,0,0,1-1.83-8.29A17.82,17.82,0,0,1,399.24,66.34Zm6.21,19.29c3.42,0,4.92-3.36,4.92-11s-1.5-11-4.92-11-4.93,3.39-4.93,11S402,85.63,405.45,85.63Z"/><path class="cls-1" d="M200.81,193h8.44c.9-1,1.19-1.37,2.12-2.43.89.77,1.95,1.63,3.13,2.62a.46.46,0,0,1,.19.29.27.27,0,0,1-.25.26H200.81v6.17c0,3.27,0,5.6.13,8.48-.1.52-.45.64-1.57.68H199c-.48,0-.7-.2-.73-.61.13-1.73.16-4,.16-8.55v-6.17h-8.77a33.39,33.39,0,0,0-4.06.16l-.23-1.25a28.89,28.89,0,0,0,4.29.35h8.77v-7.77a69.61,69.61,0,0,1-10.72,1.28l-.1-.51a94.08,94.08,0,0,0,13.28-3.14,22.69,22.69,0,0,0,6.3-2.59c2.15,1.53,2.92,2.17,2.92,2.4s-.16.22-.39.22a7.89,7.89,0,0,1-1.41-.22,57.69,57.69,0,0,1-7.48,2.11Z"/><path class="cls-1" d="M232.71,199.71a15.55,15.55,0,0,0-.13-2.21c2.88.35,3.4.48,3.4.83s-.23.36-1.19.64v1.38h8.71c.83-.93,1.08-1.18,2-2,1.28,1,1.66,1.31,2.88,2.34.09.13.16.22.16.29s-.13.16-.32.16h-13a16.25,16.25,0,0,0,3.13,2.14c3.14,1.63,5.41,2.21,11.23,2.82v.48c-1.31.32-1.76.73-2.43,2.27a28.67,28.67,0,0,1-7.71-3.36,14.65,14.65,0,0,1-4.61-4.07V204c0,1.7,0,1.7.13,4.8,0,.51-.29.61-1.5.61-.68,0-.8-.07-.8-.45.09-3.33.09-3.33.09-4.77v-2.08a26.09,26.09,0,0,1-6.17,4.35,30.17,30.17,0,0,1-7.08,2.63l-.16-.42a38,38,0,0,0,7.88-4.25,27.32,27.32,0,0,0,3.9-3.36h-8a16.31,16.31,0,0,0-2.81.22l-.16-1.22a11.34,11.34,0,0,0,3,.26h9.6Zm.07-10.62c0-1.44,0-1.83-.1-3,3.07.45,3.23.48,3.23.8s-.13.29-1.12.58v1.57h5.28c0-1.19,0-1.63-.06-3a14.15,14.15,0,0,1,3,.52c.19.09.32.19.32.32s-.26.35-1.25.57v1.54h2.11c.74-.83,1-1.09,1.73-1.92,1.21.93,1.57,1.21,2.75,2.24a.31.31,0,0,1,.13.25c0,.1-.1.16-.29.16h-6.43c0,2.47,0,2.47,0,4.16v.1c0,.32-.32.42-1.41.42-.51,0-.67-.07-.67-.26v-.77h-5.28v.74c0,.35-.22.41-1.44.41-.57,0-.67-.06-.67-.35.06-1.47.06-1.47.06-4.45h-5.31v6.27h15.39c.84-.83,1.09-1.08,1.92-1.88a29,29,0,0,1,2.69,2.14c.13.13.19.23.19.29s-.13.19-.32.19H227.43v.38c0,.42-.19.48-1.37.48-.71,0-.77,0-.77-.35.09-3.52.09-3.52.09-6.3v-1.22h-3a16.34,16.34,0,0,0-2.6.2l-.16-1.25a11.66,11.66,0,0,0,2.88.32h2.88c0-1.6,0-1.89-.09-3,.86.13,1.82.26,2.53.39s.8.19.8.38-.29.42-1.19.61v1.57Zm-4.07-7.43c0-.6,0-.92-.06-1.76,3.36.45,3.36.45,3.36.77s-.26.39-1.28.67V183h6.4v-1.22a17.61,17.61,0,0,0-.07-1.95c3.2.45,3.46.51,3.46.83s-.39.45-1.38.68V183h4.39c.89-1,1.18-1.28,2-2.14,1.32,1,1.7,1.34,3,2.43.13.13.16.19.16.25s-.13.2-.35.2h-9.22v.44c0,.32,0,.74,0,1.32,0,.35-.19.41-1.56.41-.45,0-.51-.06-.51-.35,0-.86,0-1.15,0-1.82h-6.4v1.92c0,.35-.26.41-1.31.41-.68,0-.77,0-.77-.35s.06-1.12.06-2h-5.6a16.78,16.78,0,0,0-3,.19l-.2-1.19a14.65,14.65,0,0,0,3.17.26h5.6Zm6.08,8.16v2.92h5.28v-2.92Z"/><path class="cls-1" d="M269.19,190.08a25.4,25.4,0,0,0,3.78,8.25,22.51,22.51,0,0,0,6.75,6.28,15.1,15.1,0,0,0,4.19,1.79l-.06.45c-1.8.22-2.24.57-2.92,2.14a21,21,0,0,1-5.47-4.51,27.9,27.9,0,0,1-5.15-8.39,34.72,34.72,0,0,1-1.57-5.4A20.8,20.8,0,0,1,264.2,202a24.19,24.19,0,0,1-6.46,5.35,26,26,0,0,1-4.16,1.88l-.26-.44a30.91,30.91,0,0,0,5.92-4.07,21.77,21.77,0,0,0,7.3-14.62h-9.28a14.42,14.42,0,0,0-3,.22l-.19-1.21a16.58,16.58,0,0,0,3.29.25h9.19c.16-1.88.25-4.35.25-6.3a13.6,13.6,0,0,0-.16-2.21c3.72.35,4,.39,4,.77s-.42.58-1.37.9c-.13,3.71-.2,5-.36,6.84h9c.77-1.12,1-1.47,1.86-2.52a35.09,35.09,0,0,1,3.17,2.68c.13.13.19.23.19.29a.33.33,0,0,1-.35.29Z"/><path class="cls-1" d="M312.49,198.33c.83-1.05,1.12-1.4,2.05-2.46,1.28,1.12,1.66,1.47,2.91,2.66a.68.68,0,0,1,.13.32c0,.12-.16.22-.39.22H304v3.74c0,1.38,0,2.31,0,4.32a1.83,1.83,0,0,1-1.15,1.83,7.17,7.17,0,0,1-2.78.7c-.36-1.73-.55-1.82-5-2.53v-.48c2.43.2,2.66.2,6.05.36.42,0,.51-.1.51-.45v-7.49H291a22.32,22.32,0,0,0-2.62.13l-.19-1.12a13.22,13.22,0,0,0,2.75.25h10.78v-.54c0-.64,0-.83-.06-2.62.64.09,1.44.22,2.43.41a20.12,20.12,0,0,0,3.39-3.84H296.2a15.08,15.08,0,0,0-2.3.16l-.2-1.12a13.68,13.68,0,0,0,2.47.23h11.49c.6-.64.8-.83,1.4-1.44,1,.73,1.32,1,2.24,1.69.29.23.42.39.42.55s-.39.41-1.63.51a34.84,34.84,0,0,1-5.22,3.45c.29.1.42.2.42.36s-.32.38-1.25.57v1.63ZM313,187a22.08,22.08,0,0,1,1.57-1.63c1.15.77,1.5,1,2.62,1.85.32.23.45.39.45.55,0,.38-.55.57-2,.61-.64.67-.64.67-1.6,1.76-.6.67-.6.67-1.28,1.34l-.32-.13a18.22,18.22,0,0,0,.9-3.61h-20.9A7.26,7.26,0,0,1,291,192a2.25,2.25,0,0,1-1.41,1c-.23,0-.45-.16-.58-.51a3.89,3.89,0,0,1-.35-1.31c0-.45.16-.67,1-1.28,1.28-1,1.92-2.34,2.24-4.7h.61c0,1,0,1.15,0,1.82h14.46a28.22,28.22,0,0,0,3.46-6.37c3,1.19,3.36,1.35,3.36,1.63s-.39.48-.9.48c-.16,0-.45,0-.71,0a36.39,36.39,0,0,1-4.41,4.29Zm-18.75-6a21.08,21.08,0,0,1,3,2.28,1.83,1.83,0,0,1,.76,1.34,3.43,3.43,0,0,1-.67,1.82.6.6,0,0,1-.48.26c-.32,0-.45-.19-.77-1.09a15.36,15.36,0,0,0-2.2-4.35Zm6.52-.73c2.76,2,3.91,3.2,3.91,4a4.08,4.08,0,0,1-.61,1.76.8.8,0,0,1-.67.42c-.39,0-.48-.16-.8-1.32a12,12,0,0,0-2.18-4.6Z"/><path class="cls-1" d="M329.48,204a11.24,11.24,0,0,0-2.46.22l-.19-1.18a13,13,0,0,0,2.65.22H336v-1.44c0-.67,0-1.24-.13-2.59,2.66.26,3.42.42,3.42.77s-.35.45-1.28.67v2.59h6.56c.87-.89,1.09-1.18,1.83-2,1.21,1,1.57,1.31,2.72,2.33.09.1.12.16.12.2s-.16.22-.28.22H338v3.55h9.48c.92-1.05,1.21-1.37,2.11-2.33,1.31,1.05,1.72,1.4,3,2.49.16.13.23.23.23.32a.34.34,0,0,1-.29.26H326.15a16.64,16.64,0,0,0-3.1.25l-.26-1.34a14.25,14.25,0,0,0,3.36.35H336V204Zm8.42-11.87H345c.8-.8,1.06-1.06,1.76-1.79,1.06.86,1.34,1.15,2.4,2a.92.92,0,0,1,.16.28c0,.1-.16.2-.32.2H337.9v2.72h9.47l1.88-2c1.25.9,1.64,1.19,2.82,2.18.16.09.22.19.22.29s-.22.22-.44.22H326.12a13.07,13.07,0,0,0-2.59.29l-.26-1.31a12.38,12.38,0,0,0,2.85.29H336V192.9h-7.27a9.69,9.69,0,0,0-2.43.22l-.22-1.25a8.9,8.9,0,0,0,2.65.29H336v-2.75h-7.07v.7c0,.42-.32.51-1.57.51-.35,0-.48-.09-.51-.38.12-1.92.16-2.85.16-4.51,0-2.11-.07-3.75-.16-5.35l2.27,1.32H345c.57-.64.57-.64,1.15-1.32.77.58,1,.74,1.76,1.32.25.22.38.35.38.44s-.28.42-1.12.87v1.15c0,1,0,1.47.13,5.41a.53.53,0,0,1-.25.45,8,8,0,0,1-1.48.12c-.19,0-.28-.06-.35-.28v-.45H337.9Zm-9.41,5.12a7.47,7.47,0,0,1-1.73,4,3.51,3.51,0,0,1-2.18,1.41c-.44,0-.73-.55-.73-1.35a1.14,1.14,0,0,1,1-1.31,5,5,0,0,0,3.26-2.88ZM336,182.43h-7.07v2.69H336Zm0,3.43h-7.07v2.81H336Zm-3.78,11a6.46,6.46,0,0,1,2,3.3c0,.8-.77,1.89-1.34,1.89-.23,0-.36-.19-.36-.61a15.84,15.84,0,0,0-.67-4.38Zm13-11.77v-2.69H337.9v2.69Zm-7.29,3.55h7.29v-2.81H337.9Zm1.72,8.06c1.92,1.73,2.69,2.76,2.69,3.56S341.48,202,341,202c-.32,0-.45-.22-.55-1.21a9.88,9.88,0,0,0-1.15-3.87Zm6.15.23c3.71,1.89,4.89,2.81,4.89,3.9,0,.8-.57,1.86-1,1.86-.29,0-.42-.16-.93-1.25a16.54,16.54,0,0,0-3.26-4.19Z"/><path class="cls-1" d="M361.48,208.09c0,.29-.06.39-.32.48a6.25,6.25,0,0,1-1.31.13c-.45,0-.58-.09-.58-.51.07-2.72.1-9.15.1-16.93,0-3.61-.07-8-.16-9.28a18,18,0,0,1,2.69,1.38H381c.61-.7.8-.93,1.44-1.57.93.67,1.22.9,2.11,1.57a.57.57,0,0,1,.26.45c0,.25-.16.38-1.22.93l0,6.62c0,6.49.1,12.16.26,16.64-.1.45-.52.61-1.67.61-.54,0-.73-.1-.76-.48v-2.44H361.48Zm8.9-14.55V184.1h-8.9v9.44Zm0,.76h-8.9V205h8.9Zm11-10.2h-9v9.44h9Zm-9,10.2V205h9V194.3Z"/><path class="cls-1" d="M401.45,208a16.75,16.75,0,0,0,6.14-6.53c1.15-2.43,1.63-5.15,1.79-10.27a49.63,49.63,0,0,0-7.13,1v1.09c0,.13,0,1.38.06,3.65,0,.09,0,.54,0,1.21a6.3,6.3,0,0,1,0,.8c0,1.15-.29,1.76-.84,1.76s-1.63-1.6-1.63-2.56a1.41,1.41,0,0,1,.16-.64,5.79,5.79,0,0,0,.35-1.53c0-.32.1-1.47.13-3.43a16.17,16.17,0,0,0-4.13,1.25,3.34,3.34,0,0,1-1.18.35c-1,0-2.88-2.2-2.88-3.39a.7.7,0,0,1,.1-.29,3.42,3.42,0,0,0,2.62,1.51c.35,0,1.31-.13,2.24-.26s.86-.13,2.11-.35c.64-.13.64-.13,1.06-.19a21,21,0,0,0-.45-4.32,2.92,2.92,0,0,0-1.06-1.47c-.09-.07-.38-.23-.89-.52a.75.75,0,0,1,.7-.25,6,6,0,0,1,2.72,1c.77.45,1.12.93,1.12,1.47a2.43,2.43,0,0,1-.13.71,13.18,13.18,0,0,0-.28,3.13c2.72-.38,2.72-.38,7.16-.86,0-.8,0-.93,0-2.05,0-2.53-.13-3.52-.55-4.06a3.68,3.68,0,0,0-2.17-1.19,2.34,2.34,0,0,1,1.24-.35,8.17,8.17,0,0,1,3,.74c.74.32,1.12.76,1.12,1.24a1.39,1.39,0,0,1-.16.58,16.73,16.73,0,0,0-.61,4.9c2.47-.2,3.05-.32,3.88-.68a1.73,1.73,0,0,1,.89-.22c1.06,0,2.88,1.22,2.88,1.89a.61.61,0,0,1-.67.57,4.25,4.25,0,0,1-.57,0,34.8,34.8,0,0,0-3.75-.26h-1.18c-1,0-1,0-1.51,0-.19,6-.76,8.86-2.2,11.26a16.4,16.4,0,0,1-7.36,6Z"/><path class="cls-1" d="M433.93,208.09a23.22,23.22,0,0,0,4.61-7.55,21.92,21.92,0,0,0,1.53-6.53,1.63,1.63,0,0,0-.8-1.56,25.44,25.44,0,0,0-7.1,2,2,2,0,0,1-1,.32,3.89,3.89,0,0,1-2.49-1.82,3.36,3.36,0,0,1-.64-1.41,2.1,2.1,0,0,1,.13-.61,3,3,0,0,0,2.68,1.54c.87,0,1.06,0,5.48-.8,1.95-.32,5.56-.77,9.85-1.18a14.81,14.81,0,0,0,2.5-.55,1.87,1.87,0,0,1,.8-.16,4.05,4.05,0,0,1,1.69.48c.87.42,1.51,1,1.51,1.47s-.36.64-.9.64a3.07,3.07,0,0,1-.8-.09,29.77,29.77,0,0,0-5.15-.42,38.24,38.24,0,0,0-5.25.32c1.47.83,2.08,1.47,2.08,2.21a19.28,19.28,0,0,1-2,6.27,18.9,18.9,0,0,1-6.34,7.81Zm-.61-24.7a5,5,0,0,0,3.81,1.73,16.8,16.8,0,0,0,6.75-1.57,1.89,1.89,0,0,1,1-.25c.83,0,2.17,1,2.17,1.69,0,.39-.38.58-1.66.87a49.82,49.82,0,0,1-7.29.83c-2.4,0-3.65-.71-5.19-3Z"/><path class="cls-1" d="M468.68,207.77a37,37,0,0,0,7.3-7.13,30.47,30.47,0,0,0,5.37-9.76,55.21,55.21,0,0,0-9.31,1.47,16,16,0,0,0-3.33,1,1.7,1.7,0,0,1-1,.29c-1.12,0-2.94-2.3-2.94-3.71a.75.75,0,0,1,.19-.54,3.07,3.07,0,0,0,2.78,1.85c1.25,0,6.66-.67,10.82-1.37a6,6,0,0,0,2.62-.74,1.14,1.14,0,0,1,.52-.19c.28,0,.76.32,1.5,1,.89.83,1.28,1.34,1.28,1.76a1.16,1.16,0,0,1-.48.8c-.45.32-.64.6-1.18,1.66-3.46,6.53-8.61,11.71-13.89,14ZM468.26,183a4.17,4.17,0,0,0,3.43,1.73,20.83,20.83,0,0,0,7.23-1.54,1.29,1.29,0,0,1,.67-.19c.9,0,2.5,1.12,2.5,1.76,0,.38-.29.57-1.22.7a58.94,58.94,0,0,1-8.16.83c-2.4,0-3.36-.6-4.89-3Z"/><path class="cls-1" d="M496.26,199.52a54,54,0,0,0,12-9.09c3.17-3.1,5.22-5.69,5.22-6.62,0-.61-.51-1.12-1.79-1.83a1.46,1.46,0,0,1,.64-.12,4.71,4.71,0,0,1,2.75,1c1.09.73,1.66,1.47,1.66,2.08,0,.28,0,.35-1.28,1.4-.32.26-.32.26-2.59,2.44s-2.43,2.3-3.81,3.45c1.25.93,1.8,1.41,2,1.79a29.62,29.62,0,0,1,.22,4.71c0,2.24.1,4.28.16,6.11,0,.7,0,1.63,0,1.82,0,1.12-.22,1.6-.73,1.6-.74,0-2.18-1.76-2.18-2.69a2.14,2.14,0,0,1,.19-.83,43.28,43.28,0,0,0,.58-7.87,15.56,15.56,0,0,0-.19-3c-.1-.32-.23-.48-.71-1a61.81,61.81,0,0,1-6.14,4.38,39.21,39.21,0,0,1-5.76,2.79Z"/><path class="cls-1" d="M538.38,181.79a6.33,6.33,0,0,1,2.36.55c1.35.51,2.12,1.15,2.12,1.76,0,.22,0,.22-.2.7-.38.86-.57,3.26-.57,7a28.64,28.64,0,0,1,7.45,1.79c1.44.67,2,1.31,2,2.46,0,.93-.29,1.47-.77,1.47-.32,0-.35,0-1.18-.77a18.46,18.46,0,0,0-7.52-4.15c0,2,0,3,0,4v4.67c0,1,0,1,.06,3.65,0,.67,0,1.22,0,1.7a2,2,0,0,1-.16,1.09.7.7,0,0,1-.57.28c-.77,0-2.05-1.72-2.05-2.78a2.41,2.41,0,0,1,.16-.9c.48-1.53.67-5.69.67-13.85a51.86,51.86,0,0,0-.22-5.5,3.29,3.29,0,0,0-2.43-2.85A1.25,1.25,0,0,1,538.38,181.79Z"/><path class="cls-1" d="M567.27,189a5.54,5.54,0,0,0,3.3,1.09,19.7,19.7,0,0,0,5.5-1.22c-.64-2.78-1.12-4.19-1.63-4.92s-1.06-1-2.59-1.12a2.17,2.17,0,0,1,1.85-.61,11.71,11.71,0,0,1,2.6.32c.8.22,1.24.61,1.24,1.12a1.44,1.44,0,0,1,0,.32,4.56,4.56,0,0,0-.13,1,19.15,19.15,0,0,0,.39,3.36,17.88,17.88,0,0,0,4.83-2.18c.42-.35.51-.38.8-.38a4.4,4.4,0,0,1,1.5.32c.48.19.71.45.71.74,0,.48-.42.73-1.79,1.18-3.62,1.18-3.94,1.28-5.76,1.82.28,1.64.67,3.43,1.08,5.09a51.12,51.12,0,0,0,4.9-1.5,10.41,10.41,0,0,0,2.05-.93,1,1,0,0,1,.64-.23c1.28,0,2.85.77,2.85,1.38a.53.53,0,0,1-.36.51,11.44,11.44,0,0,1-2.24.32,54.62,54.62,0,0,0-7.52,1.7c1.06,4.26,1.83,7.23,2.31,9a6.6,6.6,0,0,1,.35,1.89c0,.73-.26,1.08-.74,1.08-.76,0-2.36-1.76-2.36-2.62,0,0,0,0,.06-.45,0-.19,0-.64,0-.8a46.33,46.33,0,0,0-1.21-7.55,38.4,38.4,0,0,0-6.63,2.62,3.11,3.11,0,0,1-1.41.55c-1.18,0-3.39-1.92-3.39-2.91a1,1,0,0,1,.1-.39,3.43,3.43,0,0,0,2.4,1.19c1,0,1.5-.13,5.92-1.51.29-.09.86-.29,2.72-.83-.39-1.73-.9-4-1.19-5.12-3.36.93-4.06,1.09-5.28,1.09a5.67,5.67,0,0,1-4.12-2Z"/><path class="cls-1" d="M615.17,198.5c1.89-2,4.39-5.19,4.39-5.67,0-.09-.06-.13-.16-.13a50.83,50.83,0,0,0-7.87,2.18c.7,3,2.3,9.09,2.94,11.26a3.6,3.6,0,0,1,.23,1.19c0,.51-.23.8-.65.8a2.65,2.65,0,0,1-1.24-.84,2,2,0,0,1-.9-1.56,1.23,1.23,0,0,1,0-.32v-.32a69.72,69.72,0,0,0-1.79-9.8,15.41,15.41,0,0,1-1.66.61,21.36,21.36,0,0,0-2.56,1.19,2.15,2.15,0,0,1-1,.35c-.58,0-1.31-.58-2-1.54a3.09,3.09,0,0,1-.73-1.57.67.67,0,0,1,.16-.44,2.94,2.94,0,0,0,2.33,1.37c.58,0,1.63-.25,5.12-1.25-1.15-4.6-1.47-5.08-3.52-5.56.26-.39.51-.45,1.38-.45a7,7,0,0,1,2.88.74.88.88,0,0,1,.45.76,1.13,1.13,0,0,1-.1.45,3.34,3.34,0,0,0-.06.58,16.27,16.27,0,0,0,.41,3.1c.58-.19.58-.19,2.21-.64,1-.29,1-.29,3.26-1a7.52,7.52,0,0,0,2.56-1,1.32,1.32,0,0,1,.58-.19c.38,0,1,.44,2,1.27.67.61.92.93.92,1.29s-.12.48-1,.76c-.32.1-.32.1-3.42,2.56-1,.77-1.73,1.31-3,2.15Z"/><path class="cls-1" d="M636.52,185.7a18.08,18.08,0,0,1,6.18,2.4,2.45,2.45,0,0,1,1.08,2.17c0,1.06-.35,1.79-.89,1.79-.35,0-.51-.16-1.38-1.28a16.66,16.66,0,0,0-5.21-4.7Zm22.75,1.82a33.35,33.35,0,0,1-6.72,8.61,63.93,63.93,0,0,1-9,7.29,9.19,9.19,0,0,0-1.89,1.47c-.51.61-.7.77-1.12.77-1.31,0-3.74-3.07-3.74-4.7a1.5,1.5,0,0,1,.16-.64,5,5,0,0,0,1.15,1.41,2.12,2.12,0,0,0,1.28.67,7.94,7.94,0,0,0,3.1-1.35,45.59,45.59,0,0,0,7.65-5.28,50.11,50.11,0,0,0,8.61-8.54Z"/><path class="cls-1" d="M666.47,203.26a33.21,33.21,0,0,0,7.87-8.86c1-1.7,1.32-2.46,1.32-3.17,0-.51-.45-1-1.6-1.82a2.23,2.23,0,0,1,.7-.13,6,6,0,0,1,2.62,1.09c1.09.73,1.54,1.21,1.54,1.72a.91.91,0,0,1-.38.71,6.25,6.25,0,0,0-1.35,1.47,30.7,30.7,0,0,1-6.72,7,19,19,0,0,1-3.74,2.33Zm17.15-14a29.45,29.45,0,0,1,8.42,7.45,5.32,5.32,0,0,1,1.34,3.42c0,1.32-.51,2.34-1.21,2.34-.45,0-.58-.19-1.06-1.47a28.06,28.06,0,0,0-7.84-11.33Zm10.66-3.17a3.51,3.51,0,0,1-3.49,3.52,3.55,3.55,0,0,1-3.52-3.52,3.51,3.51,0,0,1,7,0Zm-5.95,0a2.48,2.48,0,0,0,2.46,2.46,2.45,2.45,0,1,0-2.46-2.46Z"/><path class="cls-1" d="M702.73,205.92a46.24,46.24,0,0,0,8.61-7,57,57,0,0,0,6.11-8,21.06,21.06,0,0,0,2.17-4.12,33.58,33.58,0,0,0-6.75,1.4,17.07,17.07,0,0,0-2.69.87,1.57,1.57,0,0,1-.54.09c-.7,0-1.38-.57-2.08-1.82a3.94,3.94,0,0,1-.67-1.92,1.27,1.27,0,0,1,.22-.64c.93,1.66,1.6,2.14,3,2.14a50.53,50.53,0,0,0,6.72-.89,8.28,8.28,0,0,0,3-.9,1.3,1.3,0,0,1,.73-.29c.67,0,2.5,1.64,2.5,2.24a.74.74,0,0,1-.42.61c-.67.45-.67.45-1.82,2.18-1.54,2.3-1.54,2.3-4,5.57,4.51,2.36,7,4,8.28,5.4a4.23,4.23,0,0,1,1.22,3.17c0,1-.32,1.66-.86,1.66-.23,0-.48-.16-.74-.51a9.06,9.06,0,0,1-.77-1.28,27.51,27.51,0,0,0-7.61-7.84,34.46,34.46,0,0,1-7.75,7.2,28.11,28.11,0,0,1-5.6,3.14Z"/><path class="cls-1" d="M211.53,243.07v2.43H187.59v-2.43Zm0,6.4V252H200.74v14.46h-2.4V252H187.59v-2.5Z"/><path class="cls-1" d="M223,265.05a5.49,5.49,0,0,0,2.12-.32c.7-.32.86-1,.86-3.29V248c-.06-2.79-.06-2.79-.32-3s-.64-.29-1.44-.29H223v-.93a35.87,35.87,0,0,0,6.08-.83c-.16,2.53-.25,5.25-.25,9v9.5c0,2.14.13,2.78.57,3.17s.52.35,2.34.44V266H223Z"/><path class="cls-1" d="M249.51,254.08a9,9,0,0,1,3.59.89,5.4,5.4,0,0,1,2.88,5c0,3.94-3.17,6.56-7.94,6.56-4.16,0-7.26-2-7.26-4.64,0-1,.57-1.5,1.82-1.5.93,0,1.28.32,1.34,1.22a4.22,4.22,0,0,0,.8,2.88,4,4,0,0,0,3.17,1.18c3.17,0,5-2.11,5-5.73,0-2.24-.77-3.9-2.15-4.64a8.4,8.4,0,0,0-3.71-.76h-1.41v-1h1.41a6.53,6.53,0,0,0,3.49-1,4.67,4.67,0,0,0,1.82-4.06,6.17,6.17,0,0,0-.8-3.2,3.53,3.53,0,0,0-3.33-1.6c-2.4,0-3.61,1.25-3.77,3.81-.07,1.21-.35,1.53-1.47,1.53s-1.7-.35-1.7-1.21c0-2.72,3.17-5,7-5,4.06,0,7,2.37,7,5.6a5.06,5.06,0,0,1-2.62,4.36,11,11,0,0,1-3.2,1Z"/><path class="cls-1" d="M265.42,265.05a5.47,5.47,0,0,0,2.11-.32c.7-.32.86-1,.86-3.29V248c-.06-2.79-.06-2.79-.32-3s-.64-.29-1.44-.29h-1.21v-.93a36.16,36.16,0,0,0,6.08-.83c-.16,2.53-.26,5.25-.26,9v9.5c0,2.14.13,2.78.58,3.17s.51.35,2.33.44V266h-8.73Z"/><path class="cls-1" d="M283.37,256h7.07v1.76h-7.07Z"/><path class="cls-1" d="M297.77,246.34a7.16,7.16,0,0,1,12.38,0,19.77,19.77,0,0,1,0,16.57,6.78,6.78,0,0,1-6.17,3.55,6.86,6.86,0,0,1-6.21-3.55,19.67,19.67,0,0,1,0-16.57ZM304,265.63c3.42,0,4.92-3.36,4.92-11s-1.5-11-4.92-11-4.93,3.39-4.93,11S300.55,265.63,304,265.63Z"/><path class="cls-1" d="M319,246.34a7.17,7.17,0,0,1,12.39,0,19.77,19.77,0,0,1,0,16.57,6.8,6.8,0,0,1-6.18,3.55,6.87,6.87,0,0,1-6.21-3.55,19.77,19.77,0,0,1,0-16.57Zm6.21,19.29c3.43,0,4.93-3.36,4.93-11s-1.5-11-4.93-11-4.93,3.39-4.93,11S321.77,265.63,325.19,265.63Z"/><path class="cls-1" d="M351.37,262.05c0,1.53.16,2.3.57,2.62s.55.32,1.79.35v1h-7.67v-1c1.4,0,1.66-.09,2-.35s.58-1.09.58-2.62v-2.31H337.8v-1.5l11.55-15.46h2v15.55h3.32v1.41h-3.32Zm-2.72-16.35-9.38,12.63h9.38Z"/><path class="cls-1" d="M372.58,262.05c0,1.53.16,2.3.58,2.62s.54.32,1.79.35v1h-7.68v-1c1.41,0,1.66-.09,2-.35s.57-1.09.57-2.62v-2.31H359v-1.5l11.55-15.46h2v15.55h3.33v1.41h-3.33Zm-2.72-16.35-9.37,12.63h9.37Z"/><path class="cls-1" d="M410.05,258.5a14.83,14.83,0,0,0,4.55,4.12,21.87,21.87,0,0,0,9.12,3.36v.35a2.63,2.63,0,0,0-2.08,2.31,14.61,14.61,0,0,1-4-1.92,24.77,24.77,0,0,1-8.1-7.87v3.52c0,1.34.07,4.54.16,6.81,0,.26-.06.32-.28.39a13.64,13.64,0,0,1-1.73.16c-.32,0-.45-.13-.48-.42,0-.8.12-3.07.22-6.78V259.9a31.56,31.56,0,0,1-6.59,5.63,32.69,32.69,0,0,1-6.78,3.36l-.26-.44a31.91,31.91,0,0,0,8-5.51A27,27,0,0,0,406,258.5h-5.44v.83c0,.25-.1.32-.29.38a8.07,8.07,0,0,1-1.34.16c-.39,0-.58-.13-.58-.35a.82.82,0,0,1,0-.23c.13-2.33.16-4.35.16-8.25,0-1.34-.06-2.46-.19-3.9a12.47,12.47,0,0,1,2.43,1.28h6.69v-3.36H397.22a19.14,19.14,0,0,0-2.75.19l-.25-1.31a19.46,19.46,0,0,0,3.42.38h9.79v-.19a19.31,19.31,0,0,0-.26-3.91c3,.36,3.62.48,3.62.84s-.25.41-1.25.83v2.43h8.29c.86-1,1.15-1.31,2-2.27,1.34,1,1.79,1.41,3.13,2.53a.36.36,0,0,1,.13.25.26.26,0,0,1-.29.23H409.54v3.36h6.79c.54-.58.73-.77,1.28-1.28a16.46,16.46,0,0,1,1.82,1.28c.26.16.35.28.35.44s-.25.45-1.15.84c0,5.21,0,5.66.1,9.47,0,.25-.07.38-.29.44a12.7,12.7,0,0,1-1.51.13c-.28,0-.38-.09-.38-.41v-.83Zm-2.62-9.35h-6.91v3.9h6.91Zm0,4.64h-6.91v4h6.91Zm9.12-4.64h-7v3.9h7Zm0,4.64h-7v4h7Z"/><path class="cls-1" d="M428.26,267.9a27.62,27.62,0,0,0,5.51-5.44,17.09,17.09,0,0,0,2.24-3.52c2.43,1,3.13,1.35,3.13,1.57s-.44.42-1.63.45a24.6,24.6,0,0,1-9,7.33Zm24-22.94a16.49,16.49,0,0,1,1.92-2.3,40.18,40.18,0,0,1,3.23,2.65.29.29,0,0,1,.1.16c0,.13-.16.23-.35.23H431.08a10.36,10.36,0,0,0-2.21.22l-.32-1.25a15.88,15.88,0,0,0,2.5.29H441.7V242.4a13.48,13.48,0,0,0-.16-2.18c3.24.29,3.88.42,3.88.8s-.32.42-1.38.74V245ZM444,261.6v2.33l0,2.24v.48c-.09,1.41-.61,1.73-3.68,2.31-.29-1-.54-1.28-1.31-1.6a13.14,13.14,0,0,0-3.07-.61v-.61c4,.23,4,.23,5.47.26h.06c.29,0,.36-.1.36-.42v-9.69h-6v1.31c0,.35-.51.48-1.66.48-.42,0-.58-.1-.58-.39.07-2.33.07-3.29.07-5.66,0-2.62,0-3.29-.07-4.61a17.48,17.48,0,0,1,2.5,1.51h13.25c.51-.58.67-.74,1.18-1.31a12.64,12.64,0,0,1,1.95,1.4c.19.16.26.26.26.36s-.29.44-1.06.89c0,3.59,0,4.51.1,7.23a.34.34,0,0,1-.29.39,8.21,8.21,0,0,1-1.54.19c-.31,0-.44-.1-.44-.35v-1.44H444Zm-8.1-6.05h13.67v-5.89H435.94Zm11.2,3.84a33.06,33.06,0,0,1,6.72,3.81c1.35,1,1.7,1.57,1.7,2.62,0,1.22-.35,2.08-.87,2.08-.25,0-.41-.16-.8-.8a31.31,31.31,0,0,0-2.78-3.42,31.82,31.82,0,0,0-4.22-3.94Z"/><path class="cls-1" d="M471.75,250.94a36.42,36.42,0,0,0,5.5-9.28c2.34,1,2.95,1.35,2.95,1.67s-.26.35-.93.35h-.48a49.86,49.86,0,0,1-5,7.26H476c.64-.89.83-1.15,1.53-2a30.12,30.12,0,0,1,2.43,2.24c.1.12.16.19.16.25s-.19.26-.38.26h-6.56a39.15,39.15,0,0,1-4,4h6.15c.45-.55.57-.71,1-1.25.8.54,1,.73,1.76,1.25.26.19.35.32.35.44s-.22.39-.86.71c0,4.29,0,9.85.06,11.71,0,.42-.32.54-1.44.54-.54,0-.64-.06-.64-.35v-1.6h-7.1V269c0,.48-.26.57-1.47.57-.55,0-.64-.06-.64-.48.06-2.78.06-2.78.06-11.13a34.64,34.64,0,0,1-4.09,2.65l-.23-.41a48.93,48.93,0,0,0,4.32-3.58c0-.81,0-1.09-.09-2,.8.35,1,.41,1.56.67a37.43,37.43,0,0,0,3.24-3.52h-6.05a12.84,12.84,0,0,0-2.34.16l-.22-1.12a18.07,18.07,0,0,0,2.56.22H469v-5.05h-3A10.93,10.93,0,0,0,464,246l-.19-1.12a9.48,9.48,0,0,0,2.3.25H469v-2.3a21.84,21.84,0,0,0-.13-2.63c.71.1,1.28.16,1.63.23,1.51.16,1.86.29,1.86.57s-.35.45-1.34.74v3.39h1c.64-.89.64-.89,1.21-1.73l2,2a.45.45,0,0,1,.1.25c0,.13-.16.23-.32.23H471v5.05Zm3.87,5.44h-7.1v4.13h7.1Zm-7.1,4.87v5.12h7.1v-5.12Zm12.67-16.87c0-1.24,0-2.08,0-3.42a25.79,25.79,0,0,1,2.43,1.41h5c.55-.61.74-.8,1.28-1.35.9.64,1.19.87,2,1.51.32.32.41.45.41.57s-.35.42-1.25.64a69.51,69.51,0,0,1-4.83,8.58,10.11,10.11,0,0,1,4,3.26,9.41,9.41,0,0,1,1.7,5.38,5.17,5.17,0,0,1-1.54,4,5,5,0,0,1-2.75,1.09c-.19-1.06-.39-1.41-1.06-1.67a16.43,16.43,0,0,0-2.62-.61l0-.48c2.82.13,3.42.16,4.38.16.71,0,1-.19,1.16-.7a8.58,8.58,0,0,0,.32-2.27,10.78,10.78,0,0,0-1.35-4.93,11,11,0,0,0-3-3.1,80.34,80.34,0,0,0,3.36-9.35H483.3v21.15c0,.23,0,.9,0,2,0,.64,0,1.6,0,2.85,0,.22,0,.29-.16.38a4.32,4.32,0,0,1-1.51.19c-.45,0-.54-.09-.54-.41,0-2,0-2.66,0-4.35V244.38Z"/><path class="cls-1" d="M504,264a11.38,11.38,0,0,0-2.47.22l-.19-1.18a13.13,13.13,0,0,0,2.66.22h6.53v-1.44c0-.67,0-1.24-.13-2.59,2.65.26,3.42.42,3.42.77s-.35.45-1.28.67v2.59h6.56c.86-.89,1.09-1.18,1.82-2,1.22,1,1.57,1.31,2.72,2.33.1.1.13.16.13.2s-.16.22-.29.22H512.55v3.55H522c.93-1.05,1.22-1.37,2.11-2.33,1.32,1.05,1.73,1.4,3,2.49.16.13.22.23.22.32a.34.34,0,0,1-.28.26H500.68a16.64,16.64,0,0,0-3.1.25l-.26-1.34a14.19,14.19,0,0,0,3.36.35h9.86V264Zm8.41-11.87h7.14c.8-.8,1.05-1.06,1.76-1.79,1.06.86,1.34,1.15,2.4,2a.92.92,0,0,1,.16.28c0,.1-.16.2-.32.2H512.42v2.72h9.47l1.89-2c1.25.9,1.63,1.19,2.82,2.18.16.09.22.19.22.29s-.22.22-.45.22H500.65a13.07,13.07,0,0,0-2.59.29l-.26-1.31a12.26,12.26,0,0,0,2.85.29h9.89V252.9h-7.27a9.63,9.63,0,0,0-2.43.22l-.22-1.25a8.9,8.9,0,0,0,2.65.29h7.27v-2.75h-7.08v.7c0,.42-.32.51-1.56.51-.36,0-.48-.09-.52-.38.13-1.92.16-2.85.16-4.51,0-2.11-.06-3.75-.16-5.35l2.28,1.32H519.5c.57-.64.57-.64,1.15-1.32.77.58,1,.74,1.76,1.32.25.22.38.35.38.44s-.29.42-1.12.87v1.15c0,1,0,1.47.13,5.41a.51.51,0,0,1-.26.45,8,8,0,0,1-1.47.12c-.19,0-.29-.06-.35-.28v-.45h-7.3Zm-9.4,5.12a7.55,7.55,0,0,1-1.73,4,3.54,3.54,0,0,1-2.18,1.41c-.45,0-.73-.55-.73-1.35a1.14,1.14,0,0,1,1-1.31,5,5,0,0,0,3.26-2.88Zm7.52-14.85h-7.08v2.69h7.08Zm0,3.43h-7.08v2.81h7.08Zm-3.78,11a6.46,6.46,0,0,1,2.05,3.3c0,.8-.77,1.89-1.35,1.89-.22,0-.35-.19-.35-.61a15.84,15.84,0,0,0-.67-4.38Zm13-11.77v-2.69h-7.3v2.69Zm-7.3,3.55h7.3v-2.81h-7.3Zm1.73,8.06c1.92,1.73,2.69,2.76,2.69,3.56S516,262,515.5,262c-.33,0-.45-.22-.55-1.21a10,10,0,0,0-1.15-3.87Zm6.14.23c3.72,1.89,4.9,2.81,4.9,3.9,0,.8-.58,1.86-1,1.86-.29,0-.42-.16-.93-1.25a16.86,16.86,0,0,0-3.27-4.19Z"/><path class="cls-1" d="M536,268.09c0,.29-.07.39-.32.48a6.25,6.25,0,0,1-1.31.13c-.45,0-.58-.09-.58-.51.06-2.72.1-9.15.1-16.93,0-3.61-.07-8-.16-9.28a17.46,17.46,0,0,1,2.68,1.38h19.14c.61-.7.8-.93,1.44-1.57.93.67,1.21.9,2.11,1.57a.57.57,0,0,1,.26.45c0,.25-.16.38-1.22.93l0,6.62c0,6.49.09,12.16.25,16.64-.09.45-.51.61-1.66.61-.54,0-.74-.1-.77-.48v-2.44H536Zm8.89-14.55V244.1H536v9.44Zm0,.76H536V265h8.89Zm11-10.2h-9v9.44h9Zm-9,10.2V265h9V254.3Z"/><path class="cls-1" d="M570.63,268.29c0,.25-.06.35-.32.44a10.86,10.86,0,0,1-1.34.13c-.55,0-.74-.13-.74-.41v-.07c.13-3.36.19-12.13.19-20.57,0-2.82-.06-4.55-.19-6.75a16.49,16.49,0,0,1,2.72,1.37h17.92c.64-.93.86-1.18,1.6-2.11,1.25,1,1.63,1.34,2.91,2.46.1.1.13.16.13.23a.15.15,0,0,1-.16.16H570.63v22.75h18.85a23.42,23.42,0,0,1,1.79-2.24c1.38,1.09,1.79,1.41,3.1,2.56a.37.37,0,0,1,.13.22c0,.1-.13.19-.25.19H570.63Zm3.75-21.19a61.06,61.06,0,0,1,8,5.48,36.58,36.58,0,0,0,2.39-4.36,17.35,17.35,0,0,0,1.54-3.84c3.07,1.12,3.52,1.32,3.52,1.64s-.51.51-1.73.51a42,42,0,0,1-4.09,7.29c1,.74,3.61,3.17,4.44,4a2.15,2.15,0,0,1,.68,1.48,7.57,7.57,0,0,1,.06.86c0,1-.22,1.5-.61,1.5s-.48-.12-.86-.8a35.91,35.91,0,0,0-4.8-5.66A29.3,29.3,0,0,1,579.3,259a30.4,30.4,0,0,1-6.88,4.83l-.25-.39a41,41,0,0,0,9.31-9.63,94.09,94.09,0,0,0-7.36-6.33Z"/><path class="cls-1" d="M622.54,246.91a29.56,29.56,0,0,1-2,6.18,28.37,28.37,0,0,1-3.87,6.24,29.15,29.15,0,0,0,6.53,4.35,22.56,22.56,0,0,0,7,2.21l0,.32c-1.5.35-2,.83-2.46,2.52a26.67,26.67,0,0,1-7.17-3.55,31.12,31.12,0,0,1-5.12-4.41,26.49,26.49,0,0,1-4.73,3.93,32.69,32.69,0,0,1-10.21,4.67l-.13-.51a32.32,32.32,0,0,0,10.11-5.95,29.27,29.27,0,0,0,3.65-3.65,29.83,29.83,0,0,1-4.9-8.57,28.17,28.17,0,0,1-1.12-3.78h-4.41a18.87,18.87,0,0,0-2.85.23l-.26-1.32a16.39,16.39,0,0,0,3,.36h9.83v-3.65c0-.87,0-1.31-.1-2.31,3.71.48,4,.55,4,.9s-.29.42-1.44.86v4.2H624l2.11-2.53c1.41,1.15,1.82,1.5,3.2,2.72.13.16.19.25.19.35a.2.2,0,0,1-.22.19Zm-13.76,0a27.33,27.33,0,0,0,6.43,11,30.55,30.55,0,0,0,4.77-11Z"/><path class="cls-1" d="M634.63,260.64a40.32,40.32,0,0,0,5.22-6.72,25.74,25.74,0,0,0,2.59-5.57c1.15.39,2.85,1,3.2,1.15.13.07.26.2.26.29,0,.26-.45.42-1.28.42a.79.79,0,0,1-.23,0,36.71,36.71,0,0,1-2.85,4.09c2,.39,2.47.55,2.47.8s-.26.42-1.25.67v12.9c-.1.38-.29.45-1.18.48-.26,0-.42,0-.52,0H641c-.35,0-.51-.13-.51-.42.12-6.62.12-6.62.12-7.71v-5.5a28.17,28.17,0,0,1-5.66,5.5Zm17.44-16.45v-2a18.86,18.86,0,0,0-.06-1.89c3.42.48,3.42.48,3.42.77s-.38.48-1.28.67v2.46h4.26c.89-1,1.21-1.31,2.08-2.27,1.34,1.09,1.76,1.44,3.07,2.59a.3.3,0,0,1,.09.19c0,.13-.16.23-.28.23h-9.22c0,1.69,0,1.69,0,2.91,0,.22-.09.35-.22.42a5.15,5.15,0,0,1-1.38.16c-.38,0-.51-.1-.54-.42,0-1.38,0-1.38,0-3.07h-6.43v2.91c-.06.35-.26.42-1.09.45-.16,0-.32,0-.45,0H644c-.35,0-.51-.13-.54-.42.06-1.18.06-1.18.06-3h-5.63a13.24,13.24,0,0,0-2.69.25l-.19-1.31a12,12,0,0,0,2.88.32h5.63v-.48c0-1.41,0-2.75-.1-3.49,3.49.42,3.49.42,3.49.74s-.09.32-1.31.77v2.46Zm-.29,14.34a25,25,0,0,0,3.46-3.11,21.63,21.63,0,0,0,3.93-5c3,1.72,3.08,1.76,3.08,2s-.26.32-.55.32-.57,0-.93-.06a38.36,38.36,0,0,1-9,6.62v6.85c0,.16.19.26.51.29s3.62.16,4.42.16a21.83,21.83,0,0,0,3.07-.19c.35-.1.45-.26.8-1.19.51-1.37.93-2.72,1.63-5.31h.42l-.42,5.12c0,.51,0,.77,0,.8,0,.22.07.29.51.45s.71.41.71.8-.39.89-1.25,1.09a52.77,52.77,0,0,1-5.79.25c-3.94,0-5.19-.09-5.89-.48s-.83-.8-.86-1.82c0-5.25,0-5.25,0-5.95v-8.19c0-1-.06-2.4-.16-3.24,3.26.48,3.58.55,3.58.8s-.45.52-1.28.71Z"/><path class="cls-1" d="M680.71,265.05a5.38,5.38,0,0,0,2.11-.32c.71-.32.87-1,.87-3.29V248c-.07-2.79-.07-2.79-.32-3s-.64-.29-1.44-.29h-1.22v-.93a36.16,36.16,0,0,0,6.08-.83c-.16,2.53-.25,5.25-.25,9v9.5c0,2.14.12,2.78.57,3.17s.51.35,2.34.44V266h-8.74Z"/><path class="cls-1" d="M698.66,256h7.08v1.76h-7.08Z"/><path class="cls-1" d="M714.89,265.05a5.47,5.47,0,0,0,2.11-.32c.7-.32.86-1,.86-3.29V248c-.06-2.79-.06-2.79-.32-3s-.64-.29-1.44-.29h-1.21v-.93a36.16,36.16,0,0,0,6.08-.83c-.16,2.53-.26,5.25-.26,9v9.5c0,2.14.13,2.78.58,3.17s.51.35,2.33.44V266h-8.73Z"/><path class="cls-1" d="M739.66,257.73a7.37,7.37,0,0,1-5.19-2,7.6,7.6,0,0,1-1.85-5.15c0-4.64,3.13-7.81,7.71-7.81,5.09,0,7.8,3.72,7.8,10.76,0,4.63-1,8.44-2.81,10.52a7.08,7.08,0,0,1-5.57,2.43c-3.33,0-6.24-1.72-6.24-3.74,0-1,.67-1.63,1.83-1.63s1.37.29,1.44,1.28c.19,2.24,1.15,3.29,3,3.29,2.21,0,3.78-1.5,4.64-4.41a24.2,24.2,0,0,0,.74-6.08A7,7,0,0,1,739.66,257.73ZM743.94,246a4.06,4.06,0,0,0-7.26-.25,10.45,10.45,0,0,0-1,4.8c0,3.93,1.72,6.36,4.48,6.36a4.94,4.94,0,0,0,3.39-1.4,5.39,5.39,0,0,0,1.63-4.26A11.08,11.08,0,0,0,743.94,246Z"/><path class="cls-1" d="M754.06,256h7.07v1.76h-7.07Z"/><path class="cls-1" d="M770.28,265.05a5.38,5.38,0,0,0,2.11-.32c.71-.32.86-1,.86-3.29V248c-.06-2.79-.06-2.79-.31-3s-.65-.29-1.44-.29h-1.22v-.93a36.16,36.16,0,0,0,6.08-.83c-.16,2.53-.26,5.25-.26,9v9.5c0,2.14.13,2.78.58,3.17s.51.35,2.33.44V266h-8.73Z"/><path class="cls-1" d="M192.46,367.46a22.23,22.23,0,0,1,1.08-2c.9,1,1.16,1.25,2,2.24a.71.71,0,0,1,.16.35c0,.13-.13.19-.29.19h-3.52v6.5c1.47-.48,2-.68,3.39-1.25l.19.48c-1.34.8-1.88,1.12-3.58,2v5.57c0,.16,0,.71,0,1.51,0,.54,0,.86,0,4.32a1.57,1.57,0,0,1-1.08,1.53,10.73,10.73,0,0,1-2.47.67c-.25-1.4-.83-1.76-3.52-2.2l0-.58c2,.22,2.72.29,4.45.35.35,0,.42-.09.42-.51v-9.7c-1,.52-1.09.55-2.72,1.28-.19,1.12-.26,1.29-.55,1.29s-.32-.23-.44-.65c0-.06-.2-.54-.39-1.08-.09-.29-.22-.74-.41-1.28a35.76,35.76,0,0,0,4.51-1.16v-7.1h-2a10.88,10.88,0,0,0-2.21.19l-.19-1.15a10.74,10.74,0,0,0,2.4.23h2v-4.07a23.46,23.46,0,0,0-.16-3.2,24,24,0,0,1,3.33.58.39.39,0,0,1,.22.29c0,.25-.26.38-1.28.73v5.67Zm12.48,10c0,7.23,0,7.46.16,11.26v.07c0,.25-.07.32-.26.38a6.6,6.6,0,0,1-1.6.19c-.38,0-.51-.09-.54-.41.06-3.81.06-5.31.09-11.49H198v1.86c0,.25-.09.35-.28.41a7.47,7.47,0,0,1-1.51.13c-.32,0-.45-.1-.45-.41.13-5.32.13-5.32.13-6.95,0-5.92,0-9.73-.13-11.33a19.46,19.46,0,0,1,2.4,1.51h11.68a19.13,19.13,0,0,1,1.35-1.47c.83.6,1.08.8,1.92,1.47.29.19.38.32.38.48s-.22.41-1.18,1.05v3.27c0,5.56,0,9.56.13,11.77v.1c0,.32-.52.48-1.7.48-.48,0-.58-.07-.58-.38v-2Zm-2.15-14.05h-4.73v6.18h4.73Zm0,6.91h-4.73v6.4h4.73Zm7.39-.73v-6.18h-5.24v6.18Zm-5.24,7.13h5.24v-6.4h-5.24Z"/><path class="cls-1" d="M241.32,372.25l2.05-2.49c1.4,1.22,1.85,1.57,3.2,2.78a.42.42,0,0,1,.12.26c0,.1-.16.19-.31.19H234.12v13.82h9.31c.9-1.18,1.19-1.53,2-2.59,1.47,1.22,1.92,1.6,3.33,2.88a.4.4,0,0,1,.12.26c0,.09-.12.19-.25.19H222.79a11.52,11.52,0,0,0-2.65.26l-.26-1.25a12.38,12.38,0,0,0,2.91.25h9v-22a21.08,21.08,0,0,0-.26-3.91c.77.1,1.34.2,1.7.23,1.72.22,2,.32,2,.57s-.28.42-1.18.68v9.91Z"/><path class="cls-1" d="M255.75,379.42a13.31,13.31,0,0,1,.1,1.47,9.65,9.65,0,0,1-.64,4c-.42.93-.93,1.47-1.41,1.47s-.64-.64-.64-1.6c0-.67.1-.86.7-1.37a5.23,5.23,0,0,0,1.44-3.94ZM264,366.91c.58-.7.74-.93,1.31-1.57a25.5,25.5,0,0,1,2.15,1.89,1,1,0,0,1,.12.26c0,.13-.09.16-.35.16H262.5v3.84h1.35c.64-.71.83-.9,1.5-1.6.93.83,1.19,1.09,2,1.92a1,1,0,0,1,.13.22c0,.13-.13.19-.39.19H262.5v4.26h2.05c.67-.67.67-.67,1.25-1.22.67.61.9.8,1.54,1.41.22.29.28.38.28.48s-.12.29-1,.74c-.19,4.41-.74,7.8-1.47,9.18a3.73,3.73,0,0,1-1.47,1.34,7.19,7.19,0,0,1-2.28.45c-.22-1.44-.44-1.6-3.55-2.37l.07-.51c1.6.26,4.19.58,4.92.58.48,0,.8-.45,1.06-1.57a34.75,34.75,0,0,0,.83-7.78h-7.17v.68c0,.38-.32.48-1.37.48-.48,0-.64-.1-.64-.36v-.12c.09-2.88.13-4.1.13-8.07,0-5.85,0-7.13-.16-8.89a24.78,24.78,0,0,1,2.17,1.37h6.24c.61-.8.8-1.05,1.44-1.85a23,23,0,0,1,2.47,2.17.73.73,0,0,1,.16.26c0,.13-.07.16-.39.16H262.5v3.87Zm-6.78,12.35c1.18,2,1.53,2.88,1.53,4,0,.61-.7,1.54-1.18,1.54-.26,0-.39-.23-.39-.71v-.19c.07-1,.1-1.54.1-1.79a8.72,8.72,0,0,0-.42-2.66ZM260.68,363h-3.14v3.87h3.14Zm-3.14,4.61v3.84h3.14v-3.84Zm0,4.57v4.26h3.14v-4.26Zm1.73,6.56c1.44,1.41,2.31,2.69,2.31,3.43s-.52,1.5-.93,1.5c-.19,0-.32-.13-.35-.45A12.44,12.44,0,0,0,259,379Zm2.18-.45c1.5,1.28,2.3,2.28,2.3,2.95s-.51,1.34-.89,1.34c-.13,0-.23-.13-.29-.41s-.16-.71-.32-1.28a6.79,6.79,0,0,0-1.09-2.34Zm9.72-5.37a33.49,33.49,0,0,1-1.11,8.7,20.22,20.22,0,0,1-2.53,5.54,10.41,10.41,0,0,1-1.86,2.11l-.35-.29a20.13,20.13,0,0,0,3.17-8.19,68.12,68.12,0,0,0,.77-9.82c0-6.21,0-8.71-.1-10.27,1,.67,1.34.86,2.37,1.56h7.16c.55-.57.71-.76,1.28-1.37.84.64,1.06.83,1.8,1.47.25.19.35.35.35.48s-.07.22-1.15.74c0,.76,0,1.37,0,1.85v1.31c0,1.19,0,2.37,0,3.49,0,.29,0,.51,0,2,0,1,0,1,.06,1.82v.19c0,.39-.41.52-1.69.52-.42,0-.52-.07-.55-.36V373H275a15.22,15.22,0,0,0,2.05,7.1,16.36,16.36,0,0,0,4.06,4.71,9.19,9.19,0,0,0,2.79,1.53v.48c-1.25.26-1.48.45-2.44,2a15.52,15.52,0,0,1-4.22-5,22.21,22.21,0,0,1-2.69-8.15c-.06-.71-.12-1.12-.25-2.66Zm7.65-.74V363H271.3c0,1,0,1.92,0,2.4,0,2.27,0,4.19-.12,6.78Z"/><path class="cls-1" d="M300,362a9.57,9.57,0,0,1,2.56.38c1.09.29,1.6.74,1.6,1.38,0,.25,0,.25-.26.89a16.55,16.55,0,0,0-.64,4.61v.61a1,1,0,0,0,.87.35,10.47,10.47,0,0,0,4.86-1.89c.35-.25.51-.35.71-.35a4,4,0,0,1,1.37.42c.51.28.67.48.67.76,0,.48-.41.74-1.88,1.28a13.69,13.69,0,0,1-4.45,1,2.86,2.86,0,0,1-2.15-.8v1.4c0,2.53.16,6.27.36,8.36a20.4,20.4,0,0,1,6.75,2.33c1.37.77,2,1.63,2,2.75,0,.77-.22,1.22-.64,1.22-.22,0-.42-.13-.77-.42a17,17,0,0,0-7.2-4.06c.07,1.5.07,1.5.07,2.08a3.12,3.12,0,0,1-2.27,3.17,11,11,0,0,1-3.27.48c-3.36,0-5.47-1.35-5.47-3.49,0-1.54,1.09-2.75,3.1-3.52a13.7,13.7,0,0,1,4.64-.77c.26,0,.68,0,1.22,0-.19-12.86-.19-12.86-.45-15-.22-1.86-.7-2.37-2.78-2.72A1.93,1.93,0,0,1,300,362Zm-.7,19.67c-3.3,0-5.67,1.12-5.67,2.72,0,1.28,1.31,2,3.59,2,1.85,0,3.39-.51,4-1.31.41-.51.51-1.19.51-3.36C300.74,381.69,300.36,381.69,299.34,381.69Z"/><path class="cls-1" d="M333.67,389.12a16.77,16.77,0,0,0,8.45-15.26c0-2.79-.48-5.41-1.18-6.6a2.64,2.64,0,0,0-2.28-1.4c-1.6,0-3.07,1.37-4.22,4a17.94,17.94,0,0,0-1.5,6.87c0,.55,0,.9.12,2a3.6,3.6,0,0,1,0,.67c0,.61-.29,1-.84,1-1.21,0-2-2.59-2-6.56a38.32,38.32,0,0,1,1-8.57,12.89,12.89,0,0,0,.35-2.34c0-1-.44-1.63-1.72-2.27a1.78,1.78,0,0,1,.57-.16A4.94,4.94,0,0,1,333,361.5c.9.64,1.25,1.16,1.25,1.8a1.87,1.87,0,0,1-.45,1.21,23.12,23.12,0,0,0-2.3,9.54c0,.28,0,.61,0,1.18h.06c1-4.1,2.15-6.75,3.72-8.38a5.17,5.17,0,0,1,3.9-1.89c3.07,0,5.25,3.78,5.25,9.12A15.86,15.86,0,0,1,341,384.54a16.23,16.23,0,0,1-7.07,5.06Z"/><path class="cls-1" d="M360.62,374.78a23.8,23.8,0,0,1-4.2,3.81l-.41-.42a31.6,31.6,0,0,0,4.54-5.82c.48-.8,1.44-2.62,1.89-3.55a10.3,10.3,0,0,0,.61-1.66c2.62.92,3.52,1.34,3.49,1.56s-.64.48-1.25.48h-.35a34.36,34.36,0,0,1-3.17,4.26c1.53.19,2,.32,2,.57s-.19.39-1.08.68v8.64c0,.54,0,1.72,0,3.48v.93c0,.29,0,.64,0,1.15a.29.29,0,0,0,0,.1.36.36,0,0,1-.23.38,7.6,7.6,0,0,1-1.56.16c-.36,0-.45-.09-.48-.35.06-2.14.06-2.27.16-8.48Zm-4.2-5.79a29.26,29.26,0,0,0,4.71-5.69,14.67,14.67,0,0,0,1.69-3.4l1.6.71c1.28.54,1.76.83,1.76,1.05s-.35.39-1.53.45a28.72,28.72,0,0,1-3.39,3.75,25.45,25.45,0,0,1-4.36,3.58Zm25.47,2.5c.71-1,.93-1.28,1.7-2.21l2.88,2.37a.76.76,0,0,1,.22.35c0,.16-.12.22-.38.22h-9.95v5.22h4.13c.73-1,1-1.25,1.72-2.15,1.19,1,1.57,1.35,2.72,2.4a.6.6,0,0,1,.16.26c0,.13-.16.22-.38.22h-8.35v7.52a24.77,24.77,0,0,0,5.6.48,40.45,40.45,0,0,0,4.8-.28v.48a2.38,2.38,0,0,0-1.89,2.11c-1.22,0-2,.06-2.46.06-4.29,0-6.79-.61-8.83-2.14a17,17,0,0,1-4.55-5.51,20.91,20.91,0,0,1-5.31,8.52l-.42-.32a26,26,0,0,0,3.52-7.14,29.82,29.82,0,0,0,1.06-6.91c0-.1,0-.51-.06-1,2.94.42,3.61.58,3.61.93s-.13.32-1.31.64a31.18,31.18,0,0,1-.8,4.32,12.22,12.22,0,0,0,4.93,4.92V372.22h-7a11.35,11.35,0,0,0-2.33.2l-.29-1.19a11.14,11.14,0,0,0,2.78.26h6.82v-5.28h-5.31a9,9,0,0,0-2,.19l-.22-1.22a7.89,7.89,0,0,0,2.24.29h5.31v-2.75a18.36,18.36,0,0,0-.23-2.5c2.82.32,3.52.52,3.52.9s-.32.42-1.18.64v3.71h4.41c.74-1,1-1.28,1.67-2.14l2.75,2.37a.63.63,0,0,1,.16.32c0,.12-.13.19-.35.19h-8.64v5.28Z"/><path class="cls-1" d="M391.69,383a28.84,28.84,0,0,0,5.25-6,10.64,10.64,0,0,0,1.85-3.67c3,1.18,3.43,1.4,3.43,1.69s-.36.39-1.48.45c-3.42,4.19-5.15,5.73-8.76,7.81Zm15.87-7.91v1.57c0,.58,0,.58,0,3.1-.06,1.76-.89,2.44-3.9,3-.19-1.08-.35-1.34-.87-1.63a8.33,8.33,0,0,0-3-.61v-.48c3.17.2,3.23.2,5,.26.51,0,.64-.1.64-.38v-8.16H394.86a11.54,11.54,0,0,0-2.66.19l-.19-1.25a11.08,11.08,0,0,0,3.13.32H398V365.6a21.45,21.45,0,0,0-.13-2.82c3,.32,3.52.42,3.52.74s-.38.45-1.28.74v6.81h5.35v-7.61a29.7,29.7,0,0,0-.13-3c.64.1,1.15.16,1.47.19,1.54.16,2,.29,2,.58s-.32.41-1.22.73v3.75h5.15c.87-1,1.12-1.35,2-2.31,1.27,1.09,1.69,1.44,2.94,2.63a.46.46,0,0,1,.1.22c0,.13-.13.19-.32.19h-9.86v4.61h8.1c.89-1.12,1.18-1.44,2.08-2.46,1.43,1.12,1.88,1.5,3.26,2.72a.51.51,0,0,1,.09.25c0,.1-.16.23-.35.23H407.56Zm-15,14.15a34.87,34.87,0,0,0,12.83-4.61,20.49,20.49,0,0,0,6.91-6.85c2.15,1.15,2.95,1.67,2.95,1.92s-.29.35-.8.35a6.38,6.38,0,0,1-.71,0,25.62,25.62,0,0,1-5.31,4.74c-4.29,2.94-8.57,4.32-15.74,5.05Zm18-15.59a28.67,28.67,0,0,1,6.91,2.82,2.78,2.78,0,0,1,1.5,2.59c0,.77-.25,1.31-.61,1.31s-.45-.16-.76-.54a22.3,22.3,0,0,0-2.88-2.79,32.57,32.57,0,0,0-4.32-3Z"/><path class="cls-1" d="M437.38,385.05a5.49,5.49,0,0,0,2.12-.32c.7-.32.86-1,.86-3.29V368c-.06-2.79-.06-2.79-.32-3s-.64-.29-1.44-.29h-1.22v-.93a35.87,35.87,0,0,0,6.08-.83c-.16,2.53-.25,5.25-.25,9v9.5c0,2.14.13,2.78.57,3.17s.52.35,2.34.44V386h-8.74Z"/><path class="cls-1" d="M463.78,371.55a7.24,7.24,0,0,1,5.19,2,7.6,7.6,0,0,1,1.85,5.15,7.39,7.39,0,0,1-7.71,7.8c-5.09,0-7.81-3.74-7.81-10.72,0-4.64,1-8.47,2.82-10.55a7,7,0,0,1,5.6-2.44c3.3,0,6.21,1.73,6.21,3.72,0,.83-.67,1.31-1.86,1.31-1,0-1.31-.29-1.41-1.19-.22-2.08-1.15-3-2.94-3-2.24,0-3.81,1.51-4.67,4.39a24.45,24.45,0,0,0-.74,6.11A6.89,6.89,0,0,1,463.78,371.55Zm-4.28,11.78a4.07,4.07,0,0,0,7.26.25,10.49,10.49,0,0,0,1-4.83c0-3.9-1.72-6.33-4.48-6.33a4.94,4.94,0,0,0-3.39,1.4,5.41,5.41,0,0,0-1.63,4.29A11,11,0,0,0,459.5,383.33Z"/><path class="cls-1" d="M483.75,374.88a31.85,31.85,0,0,0,6.59-7.49,24.71,24.71,0,0,0,3.3-6.81c.67.25,1.25.44,1.6.54,1.63.58,1.92.7,1.92.93s-.35.41-1.54.57a32,32,0,0,1-5.34,7.62,28,28,0,0,1-6.24,5Zm14.08-1.09A21.94,21.94,0,0,1,495.4,382a15.5,15.5,0,0,1-6.3,5.92,22.55,22.55,0,0,1-3.72,1.6l-.22-.45c4.42-2.43,7-5,8.61-8.64a21.34,21.34,0,0,0,1.66-6.59h-4.06a18.43,18.43,0,0,0-2.56.22l-.23-1.21a14.65,14.65,0,0,0,2.76.25H505c.57-.54.77-.7,1.34-1.21a15.16,15.16,0,0,1,2,1.41c.26.22.36.35.36.48s-.23.41-1.12.86c-.32,6.75-.9,10.94-1.7,12.61-.64,1.34-1.79,1.76-5.57,1.85a1.67,1.67,0,0,0-1-1.63,16.38,16.38,0,0,0-3.81-.89l0-.58c4.71.54,6.05.67,7.14.67,1.25,0,1.6-.51,2-3a83.77,83.77,0,0,0,.7-9.82Zm4-13.09a1.89,1.89,0,0,0,.13.8c.54,1.7,2.81,4.61,4.89,6.24a19.88,19.88,0,0,0,7.23,3.72l0,.41a3.39,3.39,0,0,0-2.59,2.21,26.8,26.8,0,0,1-6.08-5.15,24.53,24.53,0,0,1-3.88-6.24,3.9,3.9,0,0,0-1-1.47Z"/><path class="cls-1" d="M201.22,436.93a15,15,0,0,0,2.24,4.38,14.22,14.22,0,0,0,3.43-3.07l2.2,1c.42.23.65.42.65.58a.36.36,0,0,1-.2.28c-.22.1-.25.13-1.5.16a25.31,25.31,0,0,1-3.2,2.56,17.45,17.45,0,0,0,6.53,3.56c.54-1.25,1.63-4,2.36-5.83l.39.07-.87,4.89q-.09.87-.09,1c0,.26.13.45.54.67s.61.52.61.9-.51.93-1.22.93c-1.28,0-4.47-1.15-6.68-2.47a16.1,16.1,0,0,1-3.36-2.56,35,35,0,0,1-6.31,2.76,34.54,34.54,0,0,1-10.68,1.88l-.13-.51a41.77,41.77,0,0,0,11.23-3.17,37.35,37.35,0,0,0,4.64-2.46,17.16,17.16,0,0,1-2.72-5.5h-8.42v1.85c0,.32-.06.35-.28.45a11.55,11.55,0,0,1-1.32.1c-.51,0-.7-.07-.7-.29V439c.13-2.78.16-4.09.16-6.17,0-5.34,0-7-.16-8.67,1.09.61,1.41.83,2.46,1.5h7.11a51.44,51.44,0,0,0-.16-5.41c2.75.26,3.52.42,3.52.74s-.26.42-1.22.8l0,3.23v.64h7.55a13.2,13.2,0,0,1,1.38-1.5c.89.64,1.15.86,2,1.5.23.19.32.32.32.45s-.16.35-1.09.83v4.16c0,2.4,0,3.43.13,6.08v0c0,.32-.06.39-.29.45a5.58,5.58,0,0,1-1.5.16c-.38,0-.48-.06-.51-.25v-.61Zm-3.1-6.05c-.06-.93-.1-2.43-.16-4.51h-7.3v4.51Zm.77,5.31a25.51,25.51,0,0,1-.71-4.57h-7.52v4.57Zm9.15-9.82h-8c0,1.69,0,2.43.13,4.51H208Zm0,5.25h-7.78a24,24,0,0,0,.74,4.57h7Z"/><path class="cls-1" d="M243.94,434.75c.71-1.09.93-1.41,1.7-2.43,1.25,1,1.66,1.34,3,2.43a.77.77,0,0,1,.19.38.39.39,0,0,1-.39.36h-5.88l0,2.72c0,.38,0,1.28.06,2.59.07,2.27.07,2.27.07,5.95a2,2,0,0,1-1.25,1.86,7.24,7.24,0,0,1-2.75.73c-.58-1.73-.87-1.89-4.58-2.46v-.51c1.25.06,1.25.06,3.17.19,1.28.06,1.28.06,2.5.09.54-.06.7-.22.7-.64l-.1-10.52H234.7v3.93c.06,4.1.06,4.1.12,5.31-.06.52-.35.64-1.44.68h-.32c-.38,0-.54-.13-.57-.45.06-1.63.09-3.14.09-5.54v-3.93H227.5c-.23,3.52-.48,4.89-1.44,7a15.42,15.42,0,0,1-5.57,6.81l-.35-.25a18.86,18.86,0,0,0,4.6-8.52,23.23,23.23,0,0,0,.61-5.08h-2.43a28.5,28.5,0,0,0-3,.16l-.19-1.19a21.25,21.25,0,0,0,3.46.29h2.17c.07-1.63.13-4.86.13-7.36,0-1.57,0-2.17-.09-3.55a16.69,16.69,0,0,1,2.68,1.57h3.36a24,24,0,0,0,1.48-5.19c1.5.29,3.13.61,3.42.74s.29.16.29.32c0,.32-.16.38-1.57.7-1.76,2.28-1.76,2.28-2.75,3.43h7.52l1.37-1.44,2,1.31c.35.29.45.38.45.48s0,.22-1.19,1.12l.1,7.87Zm-3.61-8.61H227.72c0,3.68-.06,6.21-.19,8.61h12.86Zm-9.44,1.44a17.54,17.54,0,0,1,5.15,2.75,2.15,2.15,0,0,1,.54,1.57c0,1-.32,1.7-.76,1.7s-.52-.16-1-1.09a17.12,17.12,0,0,0-2.4-3.17,9.32,9.32,0,0,0-1.73-1.44Z"/><path class="cls-1" d="M255.75,439.42a13.31,13.31,0,0,1,.1,1.47,9.65,9.65,0,0,1-.64,4c-.42.93-.93,1.47-1.41,1.47s-.64-.64-.64-1.6c0-.67.1-.86.7-1.37a5.23,5.23,0,0,0,1.44-3.94ZM264,426.91c.58-.7.74-.93,1.31-1.57a25.5,25.5,0,0,1,2.15,1.89,1,1,0,0,1,.12.26c0,.13-.09.16-.35.16H262.5v3.84h1.35c.64-.71.83-.9,1.5-1.6.93.83,1.19,1.09,2,1.92a1,1,0,0,1,.13.22c0,.13-.13.19-.39.19H262.5v4.26h2.05c.67-.67.67-.67,1.25-1.22.67.61.9.8,1.54,1.41.22.29.28.38.28.48s-.12.29-1,.74c-.19,4.41-.74,7.8-1.47,9.18a3.73,3.73,0,0,1-1.47,1.34,7.19,7.19,0,0,1-2.28.45c-.22-1.44-.44-1.6-3.55-2.37l.07-.51c1.6.26,4.19.58,4.92.58.48,0,.8-.45,1.06-1.57a34.75,34.75,0,0,0,.83-7.78h-7.17v.68c0,.38-.32.48-1.37.48-.48,0-.64-.1-.64-.36v-.12c.09-2.88.13-4.1.13-8.07,0-5.85,0-7.13-.16-8.89a24.78,24.78,0,0,1,2.17,1.37h6.24c.61-.8.8-1.05,1.44-1.85a23,23,0,0,1,2.47,2.17.73.73,0,0,1,.16.26c0,.13-.07.16-.39.16H262.5v3.87Zm-6.78,12.35c1.18,2,1.53,2.88,1.53,4,0,.61-.7,1.54-1.18,1.54-.26,0-.39-.23-.39-.71v-.19c.07-1,.1-1.54.1-1.79a8.72,8.72,0,0,0-.42-2.66ZM260.68,423h-3.14v3.87h3.14Zm-3.14,4.61v3.84h3.14v-3.84Zm0,4.57v4.26h3.14v-4.26Zm1.73,6.56c1.44,1.41,2.31,2.69,2.31,3.43s-.52,1.5-.93,1.5c-.19,0-.32-.13-.35-.45A12.44,12.44,0,0,0,259,439Zm2.18-.45c1.5,1.28,2.3,2.28,2.3,2.95s-.51,1.34-.89,1.34c-.13,0-.23-.13-.29-.41s-.16-.71-.32-1.28a6.79,6.79,0,0,0-1.09-2.34Zm9.72-5.37a33.49,33.49,0,0,1-1.11,8.7,20.22,20.22,0,0,1-2.53,5.54,10.41,10.41,0,0,1-1.86,2.11l-.35-.29a20.13,20.13,0,0,0,3.17-8.19,68.12,68.12,0,0,0,.77-9.82c0-6.21,0-8.71-.1-10.27,1,.67,1.34.86,2.37,1.56h7.16c.55-.57.71-.76,1.28-1.37.84.64,1.06.83,1.8,1.47.25.19.35.35.35.48s-.07.22-1.15.74c0,.76,0,1.37,0,1.85v1.31c0,1.19,0,2.37,0,3.49,0,.29,0,.51,0,2,0,1,0,1,.06,1.82v.19c0,.39-.41.52-1.69.52-.42,0-.52-.07-.55-.36V433H275a15.22,15.22,0,0,0,2.05,7.1,16.36,16.36,0,0,0,4.06,4.71,9.19,9.19,0,0,0,2.79,1.53v.48c-1.25.26-1.48.45-2.44,2a15.52,15.52,0,0,1-4.22-5,22.21,22.21,0,0,1-2.69-8.15c-.06-.71-.12-1.12-.25-2.66Zm7.65-.74V423H271.3c0,1,0,1.92,0,2.4,0,2.27,0,4.19-.12,6.78Z"/><path class="cls-1" d="M300,422a9.57,9.57,0,0,1,2.56.38c1.09.29,1.6.74,1.6,1.38,0,.25,0,.25-.26.89a16.55,16.55,0,0,0-.64,4.61v.61a1,1,0,0,0,.87.35,10.47,10.47,0,0,0,4.86-1.89c.35-.25.51-.35.71-.35a4,4,0,0,1,1.37.42c.51.28.67.48.67.76,0,.48-.41.74-1.88,1.28a13.69,13.69,0,0,1-4.45,1,2.86,2.86,0,0,1-2.15-.8v1.4c0,2.53.16,6.27.36,8.36a20.4,20.4,0,0,1,6.75,2.33c1.37.77,2,1.63,2,2.75,0,.77-.22,1.22-.64,1.22-.22,0-.42-.13-.77-.42a17,17,0,0,0-7.2-4.06c.07,1.5.07,1.5.07,2.08a3.12,3.12,0,0,1-2.27,3.17,11,11,0,0,1-3.27.48c-3.36,0-5.47-1.35-5.47-3.49,0-1.54,1.09-2.75,3.1-3.52a13.7,13.7,0,0,1,4.64-.77c.26,0,.68,0,1.22,0-.19-12.86-.19-12.86-.45-15-.22-1.86-.7-2.37-2.78-2.72A1.93,1.93,0,0,1,300,422Zm-.7,19.67c-3.3,0-5.67,1.12-5.67,2.72,0,1.28,1.31,2,3.59,2,1.85,0,3.39-.51,4-1.31.41-.51.51-1.19.51-3.36C300.74,441.69,300.36,441.69,299.34,441.69Z"/><path class="cls-1" d="M333.67,449.12a16.77,16.77,0,0,0,8.45-15.26c0-2.79-.48-5.41-1.18-6.6a2.64,2.64,0,0,0-2.28-1.4c-1.6,0-3.07,1.37-4.22,4a17.94,17.94,0,0,0-1.5,6.87c0,.55,0,.9.12,2a3.6,3.6,0,0,1,0,.67c0,.61-.29,1-.84,1-1.21,0-2-2.59-2-6.56a38.32,38.32,0,0,1,1-8.57,12.89,12.89,0,0,0,.35-2.34c0-1-.44-1.63-1.72-2.27a1.78,1.78,0,0,1,.57-.16A4.94,4.94,0,0,1,333,421.5c.9.64,1.25,1.16,1.25,1.8a1.87,1.87,0,0,1-.45,1.21,23.12,23.12,0,0,0-2.3,9.54c0,.28,0,.61,0,1.18h.06c1-4.1,2.15-6.75,3.72-8.38a5.17,5.17,0,0,1,3.9-1.89c3.07,0,5.25,3.78,5.25,9.12A15.86,15.86,0,0,1,341,444.54a16.23,16.23,0,0,1-7.07,5.06Z"/><path class="cls-1" d="M360.62,434.78a23.8,23.8,0,0,1-4.2,3.81l-.41-.42a31.6,31.6,0,0,0,4.54-5.82c.48-.8,1.44-2.62,1.89-3.55a10.3,10.3,0,0,0,.61-1.66c2.62.92,3.52,1.34,3.49,1.56s-.64.48-1.25.48h-.35a34.36,34.36,0,0,1-3.17,4.26c1.53.19,2,.32,2,.57s-.19.39-1.08.68v8.64c0,.54,0,1.72,0,3.48v.93c0,.29,0,.64,0,1.15a.29.29,0,0,0,0,.1.36.36,0,0,1-.23.38,7.6,7.6,0,0,1-1.56.16c-.36,0-.45-.09-.48-.35.06-2.14.06-2.27.16-8.48Zm-4.2-5.79a29.26,29.26,0,0,0,4.71-5.69,14.67,14.67,0,0,0,1.69-3.4l1.6.71c1.28.54,1.76.83,1.76,1.05s-.35.39-1.53.45a28.72,28.72,0,0,1-3.39,3.75,25.45,25.45,0,0,1-4.36,3.58Zm25.47,2.5c.71-1,.93-1.28,1.7-2.21l2.88,2.37a.76.76,0,0,1,.22.35c0,.16-.12.22-.38.22h-9.95v5.22h4.13c.73-1,1-1.25,1.72-2.15,1.19,1,1.57,1.35,2.72,2.4a.6.6,0,0,1,.16.26c0,.13-.16.22-.38.22h-8.35v7.52a24.77,24.77,0,0,0,5.6.48,40.45,40.45,0,0,0,4.8-.28v.48a2.38,2.38,0,0,0-1.89,2.11c-1.22,0-2,.06-2.46.06-4.29,0-6.79-.61-8.83-2.14a17,17,0,0,1-4.55-5.51,20.91,20.91,0,0,1-5.31,8.52l-.42-.32a26,26,0,0,0,3.52-7.14,29.82,29.82,0,0,0,1.06-6.91c0-.1,0-.51-.06-1,2.94.42,3.61.58,3.61.93s-.13.32-1.31.64a31.18,31.18,0,0,1-.8,4.32,12.22,12.22,0,0,0,4.93,4.92V432.22h-7a11.35,11.35,0,0,0-2.33.2l-.29-1.19a11.14,11.14,0,0,0,2.78.26h6.82v-5.28h-5.31a9,9,0,0,0-2,.19l-.22-1.22a7.89,7.89,0,0,0,2.24.29h5.31v-2.75a18.36,18.36,0,0,0-.23-2.5c2.82.32,3.52.52,3.52.9s-.32.42-1.18.64v3.71h4.41c.74-1,1-1.28,1.67-2.14l2.75,2.37a.63.63,0,0,1,.16.32c0,.12-.13.19-.35.19h-8.64v5.28Z"/><path class="cls-1" d="M391.69,443a28.84,28.84,0,0,0,5.25-6,10.64,10.64,0,0,0,1.85-3.67c3,1.18,3.43,1.4,3.43,1.69s-.36.39-1.48.45c-3.42,4.19-5.15,5.73-8.76,7.81Zm15.87-7.91v1.57c0,.58,0,.58,0,3.1-.06,1.76-.89,2.44-3.9,3-.19-1.08-.35-1.34-.87-1.63a8.33,8.33,0,0,0-3-.61v-.48c3.17.2,3.23.2,5,.26.51,0,.64-.1.64-.38v-8.16H394.86a11.54,11.54,0,0,0-2.66.19l-.19-1.25a11.08,11.08,0,0,0,3.13.32H398V425.6a21.45,21.45,0,0,0-.13-2.82c3,.32,3.52.42,3.52.74s-.38.45-1.28.74v6.81h5.35v-7.61a29.7,29.7,0,0,0-.13-3c.64.1,1.15.16,1.47.19,1.54.16,2,.29,2,.58s-.32.41-1.22.73v3.75h5.15c.87-1,1.12-1.35,2-2.31,1.27,1.09,1.69,1.44,2.94,2.63a.46.46,0,0,1,.1.22c0,.13-.13.19-.32.19h-9.86v4.61h8.1c.89-1.12,1.18-1.44,2.08-2.46,1.43,1.12,1.88,1.5,3.26,2.72a.51.51,0,0,1,.09.25c0,.1-.16.23-.35.23H407.56Zm-15,14.15a34.87,34.87,0,0,0,12.83-4.61,20.49,20.49,0,0,0,6.91-6.85c2.15,1.15,2.95,1.67,2.95,1.92s-.29.35-.8.35a6.38,6.38,0,0,1-.71,0,25.62,25.62,0,0,1-5.31,4.74c-4.29,2.94-8.57,4.32-15.74,5.05Zm18-15.59a28.67,28.67,0,0,1,6.91,2.82,2.78,2.78,0,0,1,1.5,2.59c0,.77-.25,1.31-.61,1.31s-.45-.16-.76-.54a22.3,22.3,0,0,0-2.88-2.79,32.57,32.57,0,0,0-4.32-3Z"/><path class="cls-1" d="M437.38,445.05a5.49,5.49,0,0,0,2.12-.32c.7-.32.86-1,.86-3.29V428c-.06-2.79-.06-2.79-.32-3s-.64-.29-1.44-.29h-1.22v-.93a35.87,35.87,0,0,0,6.08-.83c-.16,2.53-.25,5.25-.25,9v9.5c0,2.14.13,2.78.57,3.17s.52.35,2.34.44V446h-8.74Z"/><path class="cls-1" d="M463.78,431.55a7.24,7.24,0,0,1,5.19,2,7.6,7.6,0,0,1,1.85,5.15,7.39,7.39,0,0,1-7.71,7.8c-5.09,0-7.81-3.74-7.81-10.72,0-4.64,1-8.47,2.82-10.55a7,7,0,0,1,5.6-2.44c3.3,0,6.21,1.73,6.21,3.72,0,.83-.67,1.31-1.86,1.31-1,0-1.31-.29-1.41-1.19-.22-2.08-1.15-3-2.94-3-2.24,0-3.81,1.51-4.67,4.39a24.45,24.45,0,0,0-.74,6.11A6.89,6.89,0,0,1,463.78,431.55Zm-4.28,11.78a4.07,4.07,0,0,0,7.26.25,10.49,10.49,0,0,0,1-4.83c0-3.9-1.72-6.33-4.48-6.33a4.94,4.94,0,0,0-3.39,1.4,5.41,5.41,0,0,0-1.63,4.29A11,11,0,0,0,459.5,443.33Z"/><path class="cls-1" d="M483.75,434.88a31.85,31.85,0,0,0,6.59-7.49,24.71,24.71,0,0,0,3.3-6.81c.67.25,1.25.44,1.6.54,1.63.58,1.92.7,1.92.93s-.35.41-1.54.57a32,32,0,0,1-5.34,7.62,28,28,0,0,1-6.24,5Zm14.08-1.09A21.94,21.94,0,0,1,495.4,442a15.5,15.5,0,0,1-6.3,5.92,22.55,22.55,0,0,1-3.72,1.6l-.22-.45c4.42-2.43,7-5,8.61-8.64a21.34,21.34,0,0,0,1.66-6.59h-4.06a18.43,18.43,0,0,0-2.56.22l-.23-1.21a14.65,14.65,0,0,0,2.76.25H505c.57-.54.77-.7,1.34-1.21a15.16,15.16,0,0,1,2,1.41c.26.22.36.35.36.48s-.23.41-1.12.86c-.32,6.75-.9,10.94-1.7,12.61-.64,1.34-1.79,1.76-5.57,1.85a1.67,1.67,0,0,0-1-1.63,16.38,16.38,0,0,0-3.81-.89l0-.58c4.71.54,6.05.67,7.14.67,1.25,0,1.6-.51,2-3a83.77,83.77,0,0,0,.7-9.82Zm4-13.09a1.89,1.89,0,0,0,.13.8c.54,1.7,2.81,4.61,4.89,6.24a19.88,19.88,0,0,0,7.23,3.72l0,.41a3.39,3.39,0,0,0-2.59,2.21,26.8,26.8,0,0,1-6.08-5.15,24.53,24.53,0,0,1-3.88-6.24,3.9,3.9,0,0,0-1-1.47Z"/><path class="cls-1" d="M184.68,502.69a39.71,39.71,0,0,0,4.9-8.61,38.65,38.65,0,0,0,1.92-5.66,28.44,28.44,0,0,1,3.42,1.24c.19.1.29.2.29.32,0,.39-.42.55-1.41.55h-.16a41.68,41.68,0,0,1-4.06,7.26,27.42,27.42,0,0,1-4.52,5.25Zm13.7-18.4c0-1.25,0-2-.16-3.39,3.77.51,4,.57,4,1s-.39.57-1.48.83V498c0,1.38,0,4,.07,7.65-.1,2.08-.93,2.69-4.39,3.27-.09-1.76-.73-2.12-5.31-2.95v-.54a65,65,0,0,0,6.75.54c.42,0,.52-.13.52-.54Zm6.62,4.35a43.42,43.42,0,0,1,6.24,6.62c1.53,1.95,2,3,2,4.1,0,1.69-.55,3.29-1.16,3.29-.28,0-.48-.28-.73-1.08a56.57,56.57,0,0,0-2.94-6.82,32.32,32.32,0,0,0-3.91-5.82Z"/><path class="cls-1" d="M228.33,487.52a23.32,23.32,0,0,1,1.63-1.89,23.67,23.67,0,0,1,2.46,2.24.34.34,0,0,1,.1.23c0,.09-.13.16-.38.16H227.3V491c3.4,2.14,4.45,3.2,4.45,4.38s-.48,2.08-1,2.08c-.22,0-.38-.16-.54-.58a16.21,16.21,0,0,0-2.95-5.24c0,8.7,0,11.13.07,17.05,0,.45-.23.51-1.92.51-.32,0-.42-.09-.42-.35l.23-11.68.35-5.63a39.79,39.79,0,0,1-2.85,6.37,22.9,22.9,0,0,1-3,4.35l-.32-.22a47.52,47.52,0,0,0,3.84-8.48,37.67,37.67,0,0,0,1.5-5.31h-2.36a12.53,12.53,0,0,0-2.21.12l-.16-1.12a8.88,8.88,0,0,0,2.37.26h2.84v-3a30.79,30.79,0,0,0-.12-3.93c3.39.38,3.58.41,3.58.73s-.42.48-1.38.8v5.41Zm15.45,11c0,5.4,0,5.4.07,7.93,0,1.06-.19,1.5-.71,1.95a6.26,6.26,0,0,1-3,1.09c-.45-1.79-.77-2-4.45-2.5l0-.51,3.07.16c1.12.07,1.12.07,2.15.1h.09c.36,0,.48-.16.48-.55V488.26h-6.21a14,14,0,0,0-2.2.16l-.16-1.19a7.56,7.56,0,0,0,2.36.29h6.21v-2.37c0-2.24,0-3.1-.12-4.67,3.13.42,3.74.58,3.74.9s-.19.38-1.38.7v5.44h.64c.71-.93.93-1.18,1.7-2.08,1.18,1,1.57,1.34,2.69,2.43a.45.45,0,0,1,.09.23c0,.06-.13.16-.25.16h-4.87Zm-10.49-6.95c3.49,2.78,5.47,5.09,5.47,6.34a4.26,4.26,0,0,1-.7,2,1,1,0,0,1-.71.48c-.32,0-.45-.22-.61-.86a23.5,23.5,0,0,0-1.24-3.36,29.41,29.41,0,0,0-2.53-4.32Z"/><path class="cls-1" d="M271.75,487.68a55.88,55.88,0,0,0-.22-7.26,21.72,21.72,0,0,1,3.32.41c.2.1.32.23.32.35s-.25.39-1.24.77c0,.55,0,2.47,0,5.73h3.46l1.75-2.3a34.19,34.19,0,0,1,2.95,2.59.67.67,0,0,1,.06.19.31.31,0,0,1-.29.26H274l.09,8.6h4.26c.9-1.09,1.19-1.44,2.08-2.56,1.31,1.19,1.7,1.57,3,2.82a.43.43,0,0,1,.12.22.32.32,0,0,1-.32.26h-9.12c.07,7.33.07,7.33.13,10.4,0,.25,0,.35-.13.45a6.64,6.64,0,0,1-1.85.19c-.35,0-.51-.13-.54-.42.09-4.89.12-7.71.12-8.48v-2.14h-7.71a13,13,0,0,1-3.2,6.85,15.42,15.42,0,0,1-6.46,4.25l-.29-.38a15.33,15.33,0,0,0,5.86-5.41,14.4,14.4,0,0,0,1.82-5.31h-3.1a40.64,40.64,0,0,0-4.55.22l-.19-1.25a31.6,31.6,0,0,0,4.74.29h3.2a44.39,44.39,0,0,0,.32-5.5v-3.1H260a43.24,43.24,0,0,0-5.12.22l-.13-1.25a46.32,46.32,0,0,0,5.22.29h2.21c0-1,0-1.89,0-2.37a37.57,37.57,0,0,0-.16-4.89c3.62.38,3.94.44,3.94.76s-.22.39-1.41.84v5.66Zm-7.2.74a52.46,52.46,0,0,1-.38,8.6h7.61v-8.6Z"/><path class="cls-1" d="M290.15,499.42a13.31,13.31,0,0,1,.1,1.47,9.65,9.65,0,0,1-.64,4c-.42.93-.93,1.47-1.41,1.47s-.64-.64-.64-1.6c0-.67.1-.86.7-1.37a5.27,5.27,0,0,0,1.45-3.94Zm8.29-12.51c.58-.7.74-.93,1.31-1.57a25.5,25.5,0,0,1,2.15,1.89,1,1,0,0,1,.12.26c0,.13-.09.16-.35.16H296.9v3.84h1.35c.64-.71.83-.9,1.5-1.6.93.83,1.19,1.09,2,1.92a1,1,0,0,1,.13.22c0,.13-.13.19-.39.19H296.9v4.26H299c.67-.67.67-.67,1.25-1.22.67.61.9.8,1.54,1.41.22.29.28.38.28.48s-.12.29-1,.74c-.19,4.41-.74,7.8-1.47,9.18a3.73,3.73,0,0,1-1.47,1.34,7.19,7.19,0,0,1-2.28.45c-.22-1.44-.44-1.6-3.55-2.37l.07-.51c1.6.26,4.19.58,4.92.58.48,0,.8-.45,1.06-1.57a34.75,34.75,0,0,0,.83-7.78h-7.17v.68c0,.38-.32.48-1.37.48-.48,0-.64-.1-.64-.36v-.12c.09-2.88.13-4.1.13-8.07,0-5.85,0-7.13-.16-8.89a24.78,24.78,0,0,1,2.17,1.37h6.24c.61-.8.8-1.05,1.44-1.85a23,23,0,0,1,2.47,2.17.73.73,0,0,1,.16.26c0,.13-.07.16-.39.16H296.9v3.87Zm-6.78,12.35c1.18,2,1.53,2.88,1.53,4,0,.61-.7,1.54-1.18,1.54-.26,0-.39-.23-.39-.71v-.19c.07-1,.1-1.54.1-1.79a8.72,8.72,0,0,0-.42-2.66ZM295.08,483h-3.14v3.87h3.14Zm-3.14,4.61v3.84h3.14v-3.84Zm0,4.57v4.26h3.14v-4.26Zm1.73,6.56c1.44,1.41,2.31,2.69,2.31,3.43s-.52,1.5-.93,1.5c-.19,0-.32-.13-.35-.45a12.44,12.44,0,0,0-1.35-4.29Zm2.18-.45c1.5,1.28,2.3,2.28,2.3,2.95s-.51,1.34-.89,1.34c-.13,0-.23-.13-.29-.41s-.16-.71-.32-1.28a6.79,6.79,0,0,0-1.09-2.34Zm9.73-5.37a33.85,33.85,0,0,1-1.12,8.7,20.22,20.22,0,0,1-2.53,5.54,10.41,10.41,0,0,1-1.86,2.11l-.35-.29a20.13,20.13,0,0,0,3.17-8.19,68.12,68.12,0,0,0,.77-9.82c0-6.21,0-8.71-.1-10.27,1,.67,1.34.86,2.37,1.56h7.16c.55-.57.71-.76,1.29-1.37.83.64,1.05.83,1.79,1.47.25.19.35.35.35.48s-.06.22-1.15.74c0,.76,0,1.37,0,1.85v1.31c0,1.19,0,2.37,0,3.49,0,.29,0,.51,0,2,0,1,0,1,.06,1.82v.19c0,.39-.41.52-1.69.52-.42,0-.52-.07-.55-.36V493h-3.87a15.22,15.22,0,0,0,2,7.1,16.36,16.36,0,0,0,4.06,4.71,9.19,9.19,0,0,0,2.79,1.53v.48c-1.25.26-1.47.45-2.43,2a15.43,15.43,0,0,1-4.23-5,22.21,22.21,0,0,1-2.69-8.15c-.06-.71-.12-1.12-.25-2.66Zm7.64-.74V483H305.7c0,1,0,1.92,0,2.4,0,2.27,0,4.19-.13,6.78Z"/><path class="cls-1" d="M334.44,482a9.57,9.57,0,0,1,2.56.38c1.09.29,1.6.74,1.6,1.38,0,.25,0,.25-.26.89a16.55,16.55,0,0,0-.64,4.61v.61a1,1,0,0,0,.87.35,10.47,10.47,0,0,0,4.86-1.89c.35-.25.51-.35.71-.35a4,4,0,0,1,1.37.42c.51.28.67.48.67.76,0,.48-.41.74-1.88,1.28a13.69,13.69,0,0,1-4.45,1,2.86,2.86,0,0,1-2.15-.8v1.4c0,2.53.16,6.27.36,8.36a20.4,20.4,0,0,1,6.75,2.33c1.37.77,2,1.63,2,2.75,0,.77-.22,1.22-.64,1.22-.22,0-.41-.13-.77-.42a17,17,0,0,0-7.2-4.06c.07,1.5.07,1.5.07,2.08a3.12,3.12,0,0,1-2.27,3.17,11,11,0,0,1-3.27.48c-3.36,0-5.47-1.35-5.47-3.49,0-1.54,1.09-2.75,3.1-3.52a13.7,13.7,0,0,1,4.64-.77c.26,0,.68,0,1.22,0-.19-12.86-.19-12.86-.45-15-.22-1.86-.7-2.37-2.78-2.72A1.93,1.93,0,0,1,334.44,482Zm-.7,19.67c-3.3,0-5.67,1.12-5.67,2.72,0,1.28,1.31,2,3.59,2,1.85,0,3.39-.51,4-1.31.41-.51.51-1.19.51-3.36C335.14,501.69,334.76,501.69,333.74,501.69Z"/><path class="cls-1" d="M368.07,509.12a16.77,16.77,0,0,0,8.45-15.26c0-2.79-.48-5.41-1.19-6.6a2.62,2.62,0,0,0-2.27-1.4c-1.6,0-3.07,1.37-4.22,4a17.94,17.94,0,0,0-1.5,6.87c0,.55,0,.9.12,2a3.6,3.6,0,0,1,0,.67c0,.61-.29,1-.84,1-1.21,0-2-2.59-2-6.56a38.32,38.32,0,0,1,1-8.57,12.89,12.89,0,0,0,.35-2.34c0-1-.44-1.63-1.72-2.27a1.78,1.78,0,0,1,.57-.16,4.94,4.94,0,0,1,2.56,1.05c.9.64,1.25,1.16,1.25,1.8a1.87,1.87,0,0,1-.45,1.21,23.12,23.12,0,0,0-2.3,9.54c0,.28,0,.61,0,1.18H366c1-4.1,2.15-6.75,3.72-8.38a5.17,5.17,0,0,1,3.9-1.89c3.07,0,5.25,3.78,5.25,9.12a15.86,15.86,0,0,1-3.49,10.46,16.23,16.23,0,0,1-7.07,5.06Z"/><path class="cls-1" d="M395,494.78a24.09,24.09,0,0,1-4.19,3.81l-.42-.42a31.6,31.6,0,0,0,4.54-5.82c.48-.8,1.44-2.62,1.89-3.55a10.3,10.3,0,0,0,.61-1.66c2.62.92,3.52,1.34,3.49,1.56s-.64.48-1.25.48h-.35a34.36,34.36,0,0,1-3.17,4.26c1.53.19,2,.32,2,.57s-.19.39-1.08.68v8.64c0,.54,0,1.72,0,3.48v.93c0,.29,0,.64,0,1.15a.29.29,0,0,0,0,.1.36.36,0,0,1-.23.38,7.6,7.6,0,0,1-1.56.16c-.36,0-.45-.09-.48-.35.06-2.14.06-2.27.16-8.48ZM390.83,489a29.6,29.6,0,0,0,4.7-5.69,14.67,14.67,0,0,0,1.69-3.4l1.6.71c1.28.54,1.76.83,1.76,1.05s-.35.39-1.53.45a28.72,28.72,0,0,1-3.39,3.75,25.45,25.45,0,0,1-4.36,3.58Zm25.46,2.5c.71-1,.93-1.28,1.7-2.21l2.88,2.37a.76.76,0,0,1,.22.35c0,.16-.12.22-.38.22h-9.95v5.22h4.13c.73-1,1-1.25,1.73-2.15,1.18,1,1.56,1.35,2.71,2.4a.67.67,0,0,1,.17.26c0,.13-.17.22-.39.22h-8.35v7.52a24.77,24.77,0,0,0,5.6.48,40.45,40.45,0,0,0,4.8-.28v.48a2.38,2.38,0,0,0-1.89,2.11c-1.22,0-2,.06-2.46.06-4.29,0-6.79-.61-8.83-2.14a17,17,0,0,1-4.55-5.51,20.91,20.91,0,0,1-5.31,8.52l-.42-.32a26,26,0,0,0,3.52-7.14,29.82,29.82,0,0,0,1.06-6.91c0-.1,0-.51-.06-1,2.94.42,3.61.58,3.61.93s-.13.32-1.31.64a31.18,31.18,0,0,1-.8,4.32,12.22,12.22,0,0,0,4.93,4.92V492.22h-7a11.35,11.35,0,0,0-2.33.2l-.29-1.19a11.14,11.14,0,0,0,2.78.26h6.82v-5.28h-5.31a9,9,0,0,0-2,.19l-.22-1.22a7.89,7.89,0,0,0,2.24.29h5.31v-2.75a18.36,18.36,0,0,0-.23-2.5c2.82.32,3.52.52,3.52.9s-.32.42-1.18.64v3.71h4.41c.74-1,1-1.28,1.67-2.14l2.75,2.37a.63.63,0,0,1,.16.32c0,.12-.13.19-.35.19h-8.64v5.28Z"/><path class="cls-1" d="M426.09,503a28.84,28.84,0,0,0,5.25-6,10.64,10.64,0,0,0,1.85-3.67c3,1.18,3.43,1.4,3.43,1.69s-.36.39-1.48.45c-3.42,4.19-5.15,5.73-8.76,7.81ZM442,495.1v1.57c0,.58,0,.58,0,3.1-.06,1.76-.9,2.44-3.9,3-.19-1.08-.35-1.34-.87-1.63a8.33,8.33,0,0,0-3-.61v-.48c3.17.2,3.23.2,5,.26.51,0,.64-.1.64-.38v-8.16H429.26a11.54,11.54,0,0,0-2.66.19l-.19-1.25a11,11,0,0,0,3.13.32h2.85V485.6a21.45,21.45,0,0,0-.13-2.82c3,.32,3.52.42,3.52.74s-.38.45-1.28.74v6.81h5.35v-7.61a29.7,29.7,0,0,0-.13-3c.64.1,1.15.16,1.47.19,1.54.16,2,.29,2,.58s-.31.41-1.21.73v3.75h5.15c.86-1,1.12-1.35,2-2.31,1.28,1.09,1.7,1.44,3,2.63a.42.42,0,0,1,.09.22c0,.13-.12.19-.32.19H442v4.61h8.09c.9-1.12,1.19-1.44,2.08-2.46,1.44,1.12,1.89,1.5,3.27,2.72a.51.51,0,0,1,.09.25c0,.1-.16.23-.35.23H442Zm-15,14.15a34.87,34.87,0,0,0,12.83-4.61,20.49,20.49,0,0,0,6.91-6.85c2.15,1.15,2.95,1.67,2.95,1.92s-.29.35-.8.35a6.38,6.38,0,0,1-.71,0,25.62,25.62,0,0,1-5.31,4.74c-4.29,2.94-8.57,4.32-15.74,5.05Zm18-15.59a28.6,28.6,0,0,1,6.92,2.82,2.78,2.78,0,0,1,1.5,2.59c0,.77-.26,1.31-.61,1.31s-.45-.16-.77-.54a21.68,21.68,0,0,0-2.88-2.79,31.31,31.31,0,0,0-4.32-3Z"/><path class="cls-1" d="M473,485.7c-1.51,0-2.05.25-2.66,1.31a10.42,10.42,0,0,0-.89,2.72l-1-.07.9-6.4h14.59v1.89a44.6,44.6,0,0,0-4.86,9.12,41.83,41.83,0,0,0-1.95,6.05,23.05,23.05,0,0,0-.61,4.67c0,1.18-.48,1.54-2,1.54-1,0-1.5-.36-1.5-1.09,0-2.88,4.16-11.9,9.09-19.74Z"/><path class="cls-1" d="M496.94,494.88a32.31,32.31,0,0,0,6.59-7.49,24.68,24.68,0,0,0,3.29-6.81c.68.25,1.25.44,1.6.54,1.64.58,1.92.7,1.92.93s-.35.41-1.53.57a32,32,0,0,1-5.35,7.62,27.58,27.58,0,0,1-6.24,5ZM511,493.79a21.93,21.93,0,0,1-2.44,8.16,15.5,15.5,0,0,1-6.3,5.92,22,22,0,0,1-3.71,1.6l-.23-.45c4.42-2.43,7-5,8.61-8.64a21.31,21.31,0,0,0,1.67-6.59h-4.07A18.43,18.43,0,0,0,502,494l-.22-1.21a14.55,14.55,0,0,0,2.75.25h13.63c.58-.54.77-.7,1.35-1.21a16.64,16.64,0,0,1,2,1.41c.25.22.35.35.35.48s-.22.41-1.12.86c-.32,6.75-.9,10.94-1.7,12.61-.63,1.34-1.79,1.76-5.56,1.85a1.67,1.67,0,0,0-1-1.63,16.38,16.38,0,0,0-3.8-.89l0-.58c4.7.54,6.05.67,7.13.67,1.25,0,1.6-.51,2-3a81.62,81.62,0,0,0,.7-9.82Zm4-13.09a2.06,2.06,0,0,0,.13.8,17,17,0,0,0,4.9,6.24,19.72,19.72,0,0,0,7.23,3.72l0,.41a3.43,3.43,0,0,0-2.59,2.21,27,27,0,0,1-6.08-5.15,24.55,24.55,0,0,1-3.87-6.24,4,4,0,0,0-1-1.47Z"/><path class="cls-1" d="M65.28,14.78A26.56,26.56,0,0,0,70,11a45.34,45.34,0,0,0,7-8.63A8.87,8.87,0,0,0,78.08,0c3.52.8,3.78.9,3.78,1.15s-.52.55-1.22.58a21.12,21.12,0,0,0,6.94,6.91,22.38,22.38,0,0,0,7.71,3.2v.32c-1.31.35-1.69.8-2.3,2.62a27.46,27.46,0,0,1-7.13-5.12,37,37,0,0,1-4.42-5.24A11.26,11.26,0,0,1,80.1,2a37.94,37.94,0,0,1-6.92,8,33.93,33.93,0,0,1-7.58,5.18ZM79.1,18.21c-3.23,4.76-3.58,5.28-5.47,7.42,5-.06,9.86-.32,13-.67a31.93,31.93,0,0,0-4.16-5l.25-.32a36.08,36.08,0,0,1,6.4,4.8,3.13,3.13,0,0,1,1.22,2.24,5,5,0,0,1-.51,2,.73.73,0,0,1-.55.32c-.22,0-.35-.13-.54-.48a28.45,28.45,0,0,0-1.67-2.91,156.16,156.16,0,0,1-17.18,2.46c-.32,1-.42,1.12-.67,1.12s-.26-.06-.39-.6c-.19-.87-.48-2.18-.64-3.08.77,0,.77,0,2.6.1.54,0,1,0,1.34,0a5,5,0,0,0,.58,0,44.89,44.89,0,0,0,3.42-7.42h-6.5a10.23,10.23,0,0,0-2.27.19l-.25-1.19a9.81,9.81,0,0,0,2.52.26H88.13c.77-1,1-1.31,1.76-2.24,1.37,1,1.79,1.38,3.1,2.46.06.13.16.26.16.29a.26.26,0,0,1-.29.23ZM71.84,11.9a14.22,14.22,0,0,0,2.59.26H82.5c.76-1,1-1.25,1.79-2.15,1.28,1,1.69,1.35,2.94,2.41a.37.37,0,0,1,.19.28c0,.13-.13.19-.41.19H74.27c-.54,0-1,0-2.21.13Z"/><path class="cls-1" d="M99.81,28.48a20.19,20.19,0,0,0,3.36-4.19,18,18,0,0,0,1.53-3c2.5.86,3,1.05,3,1.34s-.26.35-1.22.51a26.51,26.51,0,0,1-6.24,5.79Zm11.1-23.14V3.46c0-.93,0-2-.13-2.95,3.08.29,3.4.35,3.4.74,0,.22-.26.38-1.19.7V5.34h.74l1.44-1.72c.93.86,1.21,1.12,2.11,2a.43.43,0,0,1,.13.29c0,.13-.1.19-.42.19h-4v13.5h.55a13.6,13.6,0,0,1,1.37-1.89c.83.9,1.12,1.19,2,2.12a1.54,1.54,0,0,1,.07.28c0,.16-.07.23-.35.23H102.43a16,16,0,0,0-2.27.16L100,19.33a9.52,9.52,0,0,0,2.62.25h.93V6.08h-1.5a6.05,6.05,0,0,0-1.89.22L100,5.09a7,7,0,0,0,2,.25h1.5V4c0-1.09-.06-2.59-.16-3.61,3.11.32,3.55.41,3.55.76s-.28.45-1.34.71V5.34ZM105.6,9.86h5.31V6.08H105.6Zm0,4.57h5.31V10.59H105.6Zm0,5.15h5.31V15.17H105.6Zm4,2c3.07,1.12,4.35,2,4.35,3.13,0,.87-.42,1.73-.83,1.73s-.42-.1-1-1.18a19.32,19.32,0,0,0-1.51-2.18,14.12,14.12,0,0,0-1.31-1.34Zm10.05-4.39a19.77,19.77,0,0,1-1.92,6.75,17.39,17.39,0,0,1-4.16,5.38L113,29a18.63,18.63,0,0,0,4-7.78c.64-2.59.86-6,.86-12.67a60.34,60.34,0,0,0-.19-7.58,21.58,21.58,0,0,1,2.59,1.5H125c.52-.64.71-.86,1.22-1.5.86.57,1.12.73,1.92,1.34.26.19.35.32.35.48s-.29.55-1,.93v18l0,1.86c0,.57,0,1.28,0,2.17a3.29,3.29,0,0,1-.26,1.67c-.45.83-1,1.12-3.23,1.47a2.15,2.15,0,0,0-.8-1.44c-.54-.45-1.28-.64-2.94-.8l0-.54c3.17.22,3.17.22,4.51.22.35,0,.48-.19.48-.61V17.18Zm.32-7.1a61.21,61.21,0,0,1-.23,6.37h5.6V10.08Zm5.37-.74V3.17h-5.37c0,1.15,0,1.76,0,2.3,0,.26,0,1.73,0,3.87Z"/><path class="cls-1" d="M65.28,194.78A26.93,26.93,0,0,0,70,191a45.7,45.7,0,0,0,7-8.64A8.87,8.87,0,0,0,78.08,180c3.52.8,3.78.9,3.78,1.15s-.52.55-1.22.58a21.12,21.12,0,0,0,6.94,6.91,22.38,22.38,0,0,0,7.71,3.2v.32c-1.31.35-1.69.8-2.3,2.62a27.46,27.46,0,0,1-7.13-5.12,37,37,0,0,1-4.42-5.24A11.26,11.26,0,0,1,80.1,182a37.94,37.94,0,0,1-6.92,8,33.93,33.93,0,0,1-7.58,5.18Zm13.82,3.43c-3.23,4.76-3.58,5.28-5.47,7.42,5-.06,9.86-.32,13-.67a31.93,31.93,0,0,0-4.16-5l.25-.32a36.08,36.08,0,0,1,6.4,4.8,3.13,3.13,0,0,1,1.22,2.24,5,5,0,0,1-.51,2,.73.73,0,0,1-.55.32c-.22,0-.35-.13-.54-.48a28.45,28.45,0,0,0-1.67-2.91,156.16,156.16,0,0,1-17.18,2.46c-.32,1-.42,1.12-.67,1.12s-.26-.06-.39-.6c-.19-.87-.48-2.18-.64-3.08.77,0,.77,0,2.6.1.54,0,1,0,1.34,0a5,5,0,0,0,.58,0,44.89,44.89,0,0,0,3.42-7.42h-6.5a10.23,10.23,0,0,0-2.27.19l-.25-1.19a9.81,9.81,0,0,0,2.52.26H88.13c.77-1,1-1.31,1.76-2.24,1.37,1,1.79,1.38,3.1,2.46.06.13.16.26.16.29a.26.26,0,0,1-.29.23Zm-7.26-6.31a14.22,14.22,0,0,0,2.59.26H82.5c.76-1,1-1.25,1.79-2.14,1.28,1,1.69,1.34,2.94,2.4a.37.37,0,0,1,.19.28c0,.13-.13.2-.41.2H74.27c-.54,0-1,0-2.21.12Z"/><path class="cls-1" d="M107.55,189.89c.67-.8.87-1.06,1.54-1.79,1,.83,1.31,1.12,2.24,2,.13.16.19.22.19.32s-.13.19-.35.19h-5.09v8.1c1.41-.58,2-.87,3.65-1.63l.22.45c-1.82,1.31-2.85,2-3.71,2.52-3.26,2-3.26,2-4.06,2.53-.07,1.18-.16,1.57-.48,1.57-.13,0-.26-.1-.36-.32,0-.07-.44-1.09-1.24-3.11a39.87,39.87,0,0,0,3.9-1.24v-8.87h-1.86a9.61,9.61,0,0,0-2,.16l-.23-1.15a8,8,0,0,0,2.27.26H104v-5.67c0-1.15,0-1.79-.13-3,3.11.38,3.49.48,3.49.8s-.29.41-1.28.67v7.17Zm11,8.64a19.8,19.8,0,0,1-3.49,4.28,21.69,21.69,0,0,1-7.93,4.55l-.26-.48a22.27,22.27,0,0,0,6.78-4.67,16.5,16.5,0,0,0,2.63-3.68h-2.75a26.88,26.88,0,0,1-7.43,5.05l-.25-.48a21.73,21.73,0,0,0,5.44-4.57,17.17,17.17,0,0,0,2.59-3.65h-2.72a12.6,12.6,0,0,0-2.66.19l-.22-1.21a11.29,11.29,0,0,0,2.88.28h13.76c.8-.86,1-1.12,1.85-1.92,1.15.87,1.51,1.16,2.63,2.15.12.13.19.22.19.32s-.13.19-.39.19H116.32a30.63,30.63,0,0,1-2.11,2.91h10.94a9.38,9.38,0,0,1,1.18-1.18,14.83,14.83,0,0,1,1.86,1.4c.19.13.26.26.26.36,0,.25-.29.48-1,.8a32.45,32.45,0,0,1-1.69,8.48c-.48.92-1.73,1.6-3.52,1.88-.29-1.63-.64-1.85-3.81-2.3l0-.54c1.95.19,3.3.28,4.13.28s1.15-.16,1.44-.8a31.13,31.13,0,0,0,1.28-7.64h-1.66A17.49,17.49,0,0,1,120,204a25.14,25.14,0,0,1-5.66,4.19,32.25,32.25,0,0,1-3.2,1.5l-.32-.44a24.58,24.58,0,0,0,7.48-5.86,15.36,15.36,0,0,0,3.08-4.86Zm-4-6.44c0,.45-.35.58-1.51.58-.44,0-.57-.09-.57-.42.06-2.27.09-3.42.09-4.47,0-3.81,0-5.76-.09-6.92a25.79,25.79,0,0,1,2.43,1.41h7.45c.55-.57.71-.77,1.25-1.31.84.58,1.09.77,1.83,1.34.22.2.32.32.32.45s-.1.29-1,.77v1.89c0,1.31,0,3,.07,6.43a.41.41,0,0,1-.32.48,7.82,7.82,0,0,1-1.35.16c-.28,0-.41-.1-.41-.35v-.8h-8.16Zm8.16-9.08h-8.16v3.29h8.16Zm-8.16,4v3.55h8.16V187Z"/><path class="cls-1" d="M3,387.68a21.35,21.35,0,0,0,5.79-8.07,23.24,23.24,0,0,0,1.92-7c0-.86-.61-1.51-1.89-2.05a.9.9,0,0,1,.74-.32,7.64,7.64,0,0,1,2.46.93c.83.45,1.15.7,1.38,1.12a38.92,38.92,0,0,0,5.72-4.58c.74-.7,1-1.05,1-1.28s-.38-.48-1.88-.48a61.76,61.76,0,0,0-11,1.76,22.21,22.21,0,0,0-3.27,1.12,1.81,1.81,0,0,1-.73.16c-.71,0-1.86-1-2.56-2.14A4.34,4.34,0,0,1,0,365.15a1.44,1.44,0,0,1,.22-.73,3.11,3.11,0,0,0,3.17,1.92c1.15,0,1.73-.07,7.71-.84l2.21-.25c5-.58,5.22-.64,5.89-1a1,1,0,0,1,.42-.1,3.56,3.56,0,0,1,1.69.93c1.38,1.06,2.3,2.14,2.3,2.69s-.19.61-1.15.86a7.76,7.76,0,0,0-1.57.67c-2.65,1.51-4.09,2.24-7.55,3.87-.19.55-.22.61-.48,1.45-1.44,4.38-2.68,6.87-4.6,9.15a19.79,19.79,0,0,1-5,4.28Z"/><path class="cls-1" d="M35.3,376A35.94,35.94,0,0,0,42,368.19c1.31-2,2.11-3.61,2.11-4.32,0-.41-.13-.67-.61-1.09a4.83,4.83,0,0,0-.77-.57,4.14,4.14,0,0,1-.57-.29,1.05,1.05,0,0,1,.6-.19,5.91,5.91,0,0,1,2.63.86c1,.58,1.5,1.12,1.5,1.63s0,.42-1.73,2.92a3.75,3.75,0,0,0,.84.12,22,22,0,0,0,3.84-.64,9.82,9.82,0,0,0,2.52-.86.87.87,0,0,1,.55-.19c.76,0,2.59,1.66,2.59,2.37,0,.28-.1.44-.48.8A6.57,6.57,0,0,0,53.5,371a37.33,37.33,0,0,1-9.44,12,29,29,0,0,1-7.93,5l-.23-.45A35.69,35.69,0,0,0,43,381.85a39.29,39.29,0,0,0,8.73-12.67,5.34,5.34,0,0,0,.51-1.63c0-.13-.09-.22-.29-.22a24.65,24.65,0,0,0-4.06,1,3,3,0,0,1-1,.23,2.92,2.92,0,0,1-2-.93,32.11,32.11,0,0,1-9.21,8.77Z"/><path class="cls-1" d="M81.92,378.24a47.62,47.62,0,0,0,4.93-5.86,5.42,5.42,0,0,0,.8-1.31.22.22,0,0,0-.23-.22,20.37,20.37,0,0,0-4.32,1.31c-3.84,1.34-4.38,1.57-5.66,2.08-.06,1.47-.06,2-.06,2.94,0,3.24.16,4.74.64,5.47s1.6,1.12,3.61,1.12a18,18,0,0,0,5.79-.83,1.68,1.68,0,0,1,.64-.19,2.68,2.68,0,0,1,1.25.51,1.76,1.76,0,0,1,1,1.35c0,.38-.26.64-.74.73a23.56,23.56,0,0,1-5.28.42c-4.54,0-6.65-.67-7.61-2.47-.7-1.24-.93-3.23-1-8.44a11.5,11.5,0,0,1-1.57.67c-.22.1-.64.29-1.25.54l-1,.48a5.18,5.18,0,0,0-.9.48,1.83,1.83,0,0,1-1,.36,3.68,3.68,0,0,1-2.34-1.67,3.86,3.86,0,0,1-.89-1.92,2.59,2.59,0,0,1,.06-.38c1,1.18,1.67,1.6,2.59,1.6a34.88,34.88,0,0,0,6.34-1.67c-.06-6-.06-6.33-.29-7.13s-1-1.41-2.37-1.79a1.24,1.24,0,0,1,1.09-.42,8.11,8.11,0,0,1,3.55,1c.64.35,1,.77,1,1.18,0,.2,0,.2-.25.77a21.18,21.18,0,0,0-.83,5.89c3.71-1.25,5.92-2,6.88-2.37a7.09,7.09,0,0,0,2.36-1.12,1.17,1.17,0,0,1,.83-.32,4.64,4.64,0,0,1,2.5,1.38c.7.64,1,1,1,1.41s-.16.57-.89.86a24.22,24.22,0,0,0-3.36,2.62,54.74,54.74,0,0,1-4.61,3.36Z"/><path class="cls-1" d="M101.73,385.92a46.24,46.24,0,0,0,8.61-7,57,57,0,0,0,6.11-8,21.06,21.06,0,0,0,2.17-4.12,33.58,33.58,0,0,0-6.75,1.4,17.07,17.07,0,0,0-2.69.87,1.57,1.57,0,0,1-.54.09c-.7,0-1.38-.57-2.08-1.82a3.94,3.94,0,0,1-.67-1.92,1.27,1.27,0,0,1,.22-.64c.93,1.66,1.6,2.14,3,2.14a50.53,50.53,0,0,0,6.72-.89,8.28,8.28,0,0,0,3-.9,1.3,1.3,0,0,1,.73-.29c.67,0,2.5,1.64,2.5,2.24a.74.74,0,0,1-.42.61c-.67.45-.67.45-1.82,2.18-1.54,2.3-1.54,2.3-4,5.57,4.51,2.36,7,4,8.28,5.4a4.23,4.23,0,0,1,1.22,3.17c0,1-.32,1.66-.86,1.66-.23,0-.48-.16-.74-.51a9.06,9.06,0,0,1-.77-1.28,27.51,27.51,0,0,0-7.61-7.84,34.46,34.46,0,0,1-7.75,7.2,28.11,28.11,0,0,1-5.6,3.14Z"/></g></g></svg>