<svg xmlns="http://www.w3.org/2000/svg" xmlns:xlink="http://www.w3.org/1999/xlink" viewBox="0 0 126.83 146.43"><defs><style>.cls-1{fill:none;}.cls-2{clip-path:url(#clip-path);}.cls-3{fill:#fff;}.cls-4{fill:#231815;}.cls-5{fill:#2c8ac8;}</style><clipPath id="clip-path" transform="translate(2.05 2.35)"><polygon class="cls-1" points="61.37 0 122.74 35.43 122.74 106.3 61.37 141.73 0 106.3 0 35.43 61.37 0"/></clipPath></defs><g id="レイヤー_2" data-name="レイヤー 2"><g id="レイヤー_2-2" data-name="レイヤー 2"><g class="cls-2"><polygon class="cls-3" points="40.02 49.52 40.02 49.53 40.01 49.53 34.25 46.2 40.02 49.52"/><path class="cls-3" d="M22.38,31.5h0l5.77,3.33ZM30.19,45h0l2.89,1.65Zm0-9h0l5.76,3.32Zm78-9h0ZM22.38,31.5h0l5.77,3.33ZM14.58,27h0l5.77,3.33ZM30.19,45h0l2.89,1.65Zm0-9h0l5.76,3.32Z" transform="translate(2.05 2.35)"/><path class="cls-4" d="M117,55.6V38.75s-14.56-8.41-14.59-8.41l-2-1.18h0l-2,1.18c.51.29,1.53.88,2,1.16L115,39.93V56.77l-5.76,3.33V43.26L94.61,34.84h0c-.5-.3-1.52-.89-2-1.17l-2,1.17,2,1.17h0l14.58,8.43V61.27l-5.77,3.34V47.76c-1.24-.72-15.86-9.15-16.6-9.6h0l-2,1.18,2,1.17h0l14.58,8.42v7.83c-.71.41-6.22,3.6-6.78,3.91l-6.78-3.9h0L61.37,42.68,39,55.6V47.76l-1-.58h0L32.2,43.85,40,39.34,22.37,29.16h0l-5.75-3.33-2,1.18,5.76,3.33L5.76,38.75V58l2,1.17V39.93L22.37,31.5l5.77,3.34L13.56,43.26V62.45l2,1.17V44.44L30.17,36l5.76,3.33L21.36,47.76V66.94l2,1.17V48.94L30.17,45C32.09,46.1,35,47.85,37,48.93V85L59.34,97.88l-5.76,3.34s-1,.58-1,.58v7.83l-7.81-4.5v27l2,1.18v-6.67l14.59,8.42L78,125.48v-2.34c-.5.3-1.52.88-2,1.17h0l-14.58,8.41-14.59-8.42v-6.66l14.59,8.41L78,116.49v-2.35l-16.61,9.59L46.78,115.3v-6.65c4.07,2.33,10.52,6.06,14.59,8.43L78,107.48v-2.35l-16.61,9.59-6.78-3.92V103s1-.58,1-.58C60.88,99.33,80.17,88.21,85.78,85V59.12l5.77,3.32h0l1,.58c.54-.29,6.1-3.52,6.78-3.91v9L117,58h0l5.77-3.33V52.26ZM76,133.32l.46-.27-.46.26Z" transform="translate(2.05 2.35)"/><path class="cls-1" d="M110.2,25.83,61.37-2.35-2,34.25v73.23l63.42,36.6,63.41-36.6V34.25Zm12.55,80.47L77,132.73l-.56.32-.46.27-14.58,8.42-14.59-8.42-2-1.18L0,106.3V35.43L14.57,27h0l2-1.18L61.37,0l44.77,25.84c.13.07.29.16.46.27l.55.32.56.32.46.26,14.58,8.43Z" transform="translate(2.05 2.35)"/><polygon class="cls-3" points="63.42 144.09 48.83 135.67 48.83 135.66 63.42 144.09"/><polygon class="cls-3" points="78 135.66 78 135.67 63.42 144.09 78 135.66"/><path class="cls-3" d="M61.38,141.74,76,133.32h0Z" transform="translate(2.05 2.35)"/><polygon class="cls-3" points="22.39 32.69 16.62 29.36 2.04 37.78 16.62 29.35 22.39 32.69"/><path class="cls-3" d="M7.8,39.93l14.58-8.42h0Z" transform="translate(2.05 2.35)"/><path class="cls-3" d="M122.76,35.43S108.16,27,108.17,27h0Z" transform="translate(2.05 2.35)"/><path class="cls-3" d="M100.38,31.5h0L115,39.93Z" transform="translate(2.05 2.35)"/><polygon class="cls-3" points="78 126.66 78 126.67 63.42 135.08 78 126.66"/><path class="cls-3" d="M61.38,132.73,76,124.32h0Z" transform="translate(2.05 2.35)"/><polygon class="cls-3" points="30.19 37.19 24.42 33.86 9.84 42.28 24.42 33.85 30.19 37.19"/><path class="cls-3" d="M15.6,44.44,30.18,36h0Z" transform="translate(2.05 2.35)"/><polygon class="cls-3" points="78 111 78 111.01 63.42 119.43 78 111"/><polygon class="cls-3" points="37.98 41.69 32.22 38.37 17.64 46.79 32.22 38.36 37.98 41.69"/><path class="cls-3" d="M23.4,48.94,30.18,45h0Z" transform="translate(2.05 2.35)"/><polygon class="cls-3" points="111.24 64.79 111.24 64.8 109.2 65.97 111.24 64.79"/><path class="cls-3" d="M61.38,117.08,76,108.66h0Z" transform="translate(2.05 2.35)"/><path class="cls-3" d="M39,48.93h0l0,0Z" transform="translate(2.05 2.35)"/><path class="cls-3" d="M39,48.93h0l0,0Zm0,0h0l0,0Zm0,0h0l0,0Zm0,0h0l0,0Zm0,0h0l0,0Zm0,0h0l0,0Zm0,0h0l0,0Zm0,0h0l0,0Zm0,0h0l0,0Zm0,0h0l0,0Zm0,0h0l0,0Z" transform="translate(2.05 2.35)"/><polygon class="cls-3" points="93.6 64.79 93.6 64.8 87.83 61.47 93.6 64.79"/><path class="cls-3" d="M85.79,59.12l5.77,3.33h0Zm0,0,5.77,3.33h0Zm0,0,5.77,3.33h0Zm0,0,5.77,3.33h0Zm0,0,5.77,3.33h0Zm0,0,5.77,3.33h0ZM53.58,101.21h0l5.76-3.34ZM85.79,59.12l5.77,3.33h0Zm0,0,5.77,3.33h0Zm0,0,5.77,3.33h0Zm0,0,5.77,3.33h0Zm0,0,5.77,3.33h0Zm0,0,5.77,3.33h0Zm0,0,5.77,3.33h0Zm0,0,5.77,3.33h0Z" transform="translate(2.05 2.35)"/><path class="cls-3" d="M122.76,54.61V106.3c-12,6.94-50.06,28.88-61.38,35.44l-14.59-8.43v-6.66l14.59,8.42L78,125.48v-2.34l-16.61,9.59-14.59-8.42v-6.66l14.59,8.41L78,116.49v-2.35l-16.61,9.59L46.79,115.3v-6.65l14.59,8.43L76,108.66h0l2-1.17v-2.35l-16.61,9.59L54.6,110.8V103l6.78,3.91,31.19-18V63c.53-.29,6.09-3.51,6.78-3.91v9l9.85-5.67h0L117,58h0Z" transform="translate(2.05 2.35)"/><path class="cls-3" d="M33.07,46.68,30.18,45,23.4,48.94,30.18,45S33.06,46.68,33.07,46.68Z" transform="translate(2.05 2.35)"/><path class="cls-3" d="M32.21,43.85,38,47.18h0Z" transform="translate(2.05 2.35)"/><polygon class="cls-3" points="61.39 100.23 55.63 103.57 55.62 103.57 55.62 103.56 61.39 100.23"/><path class="cls-3" d="M52.57,101.8v7.83l-7.81-4.5v27L0,106.3V35.43L14.58,27l5.77,3.33L5.77,38.75V58l2,1.17V39.93l14.58-8.42,5.77,3.33L13.57,43.26V62.45l2,1.17V44.44L30.18,36l5.76,3.32c-4.06,2.34-10.5,6.08-14.57,8.42V66.94l2,1.17V48.94L30.18,45c1.91,1.08,4.87,2.82,6.78,3.9h0l-6.78,3.91v36Z" transform="translate(2.05 2.35)"/><polygon class="cls-5" points="61.39 100.23 54.61 104.15 32.22 91.22 32.22 55.2 39 51.29 39 87.31 61.39 100.23"/><polygon class="cls-3" points="117 42.28 102.41 33.86 102.41 33.85 102.42 33.85 117 42.28"/><path class="cls-3" d="M107.16,63.62l2-1.17h0Z" transform="translate(2.05 2.35)"/><path class="cls-3" d="M107.16,63.62l2-1.17h0Z" transform="translate(2.05 2.35)"/><path class="cls-3" d="M122.76,35.43V52.26L117,55.6V38.75s-16.11-9.3-16.61-9.59h0l-2,1.18L115,39.93V56.77L109.2,60.1V43.26L92.58,33.67l-2,1.17,16.61,9.6V61.27l-5.77,3.34V47.76c-1.24-.72-15.87-9.15-16.6-9.6h0l-2,1.18,16.61,9.6v7.83c-.72.41-6.22,3.6-6.78,3.91V52.85c-8.28-4.77-22.92-13.23-31.19-18L39,47.76l-6.78-3.91L40,39.34c-5.19-3-12.49-7.2-17.63-10.18h0l-5.75-3.33L61.38,0Z" transform="translate(2.05 2.35)"/><path class="cls-5" d="M92.57,63V88.87l-31.19,18L54.6,103h0L85.79,85V59.12Z" transform="translate(2.05 2.35)"/><path class="cls-5" d="M92.57,52.85v7.83l-6.78-3.9h0L61.38,42.68,39,55.6V48.94l0,0h0V47.76L61.38,34.84C69.65,39.62,84.29,48.08,92.57,52.85Z" transform="translate(2.05 2.35)"/><line class="cls-1" x1="16.63" y1="29.36" x2="16.63" y2="29.35"/><polygon class="cls-1" points="124.8 37.78 124.8 108.65 79.02 135.08 78.46 135.4 78 135.67 63.42 144.09 48.83 135.67 46.8 134.49 2.04 108.65 2.04 37.78 16.63 29.36 18.66 28.18 63.42 2.34 108.65 28.45 109.2 28.77 109.76 29.09 124.8 37.78"/></g></g></g></svg>