<svg xmlns="http://www.w3.org/2000/svg" viewBox="0 0 131.9 141.73"><defs><style>.cls-1{fill:#fff;}.cls-2{fill:#2c8ac8;}.cls-3{fill:#231815;}.cls-4{fill:#5f5f5f;}</style></defs><g id="レイヤー_2" data-name="レイヤー 2"><g id="レイヤー_2-2" data-name="レイヤー 2"><path class="cls-1" d="M34.81,81.7c12.87-.74,17.07,5.37,30.68,3.89,10.12-1.1,17.12-5.66,30.69-14.73a211.75,211.75,0,0,0,30.68-25v60.4L65.49,141.73,4.12,106.29V96C16.53,85,27.14,82.15,34.81,81.7Z"/><path class="cls-2" d="M34.81,81.7C27.14,82.15,16.53,85,4.12,96V35.43L65.49,0l61.37,35.43V45.89a211.75,211.75,0,0,1-30.68,25C82.61,79.93,75.61,84.49,65.49,85.59,51.88,87.07,47.68,81,34.81,81.7Z"/><path class="cls-3" d="M131.13,45.88l-4.25-4.24c-.71.71-1.41,1.42-2.12,2.11A210.89,210.89,0,0,1,99.18,65.14V42h-6V69.26C82,76.68,75.79,80.57,68.49,82.09V70.86h-6V82.79a36.88,36.88,0,0,1-12.43-1.93,45.05,45.05,0,0,0-12.25-2.2V60.07h-6V79c-10.06,1.28-20,6.23-29.68,14.77C1.43,94.37.71,95,0,95.7l4.11,4.36c.67-.62,1.33-1.23,2-1.81C14.58,90.74,23.22,86.32,31.81,85v15.09h6V84.66a40.07,40.07,0,0,1,10.59,2A41.91,41.91,0,0,0,62.49,88.8v11.32h6V88.18c8.39-1.48,15.24-5.48,24.69-11.72v23.66h6V72.44A215.56,215.56,0,0,0,129,48C129.67,47.34,130.4,46.61,131.13,45.88Z"/><polygon class="cls-4" points="126.86 40.91 131.9 45.94 126.86 50.61 126.86 40.91"/></g></g></svg>