<svg xmlns="http://www.w3.org/2000/svg" xmlns:xlink="http://www.w3.org/1999/xlink" viewBox="0 0 128.88 160.66"><defs><style>.cls-1{fill:none;}.cls-2{fill:#fff;}.cls-3{clip-path:url(#clip-path);}.cls-4{fill:#2c8ac8;}.cls-5{fill:#231815;}</style><clipPath id="clip-path" transform="translate(6.14 18.93)"><polygon class="cls-1" points="122.74 106.3 122.74 35.43 61.37 0 0 35.43 0 106.3 61.37 141.73 122.74 106.3"/></clipPath></defs><g id="レイヤー_2" data-name="レイヤー 2"><g id="レイヤー_2-2" data-name="レイヤー 2"><polygon class="cls-2" points="128.88 125.23 128.88 54.36 67.51 18.93 6.14 54.36 6.14 125.23 67.51 160.66 128.88 125.23"/><g class="cls-3"><path class="cls-4" d="M30.65,79.73c0,4.84-3.38,6.77-7.6,4.32a17,17,0,0,1-7.67-13.2c0-4.84,3.38-6.77,7.6-4.32A17,17,0,0,1,30.65,79.73Z" transform="translate(6.14 18.93)"/><rect class="cls-4" x="0.05" y="46.7" width="36.77" height="101.74"/><rect class="cls-4" x="28.72" y="-28.44" width="36.77" height="101.74" transform="translate(49.12 -10.65) rotate(60)"/></g><path class="cls-4" d="M92.06,17.72,30.69,53.15,15.34,44.29,76.71,8.86Z" transform="translate(6.14 18.93)"/><path class="cls-2" d="M107.4,26.58,46,62,30.69,53.15,92.06,17.72Z" transform="translate(6.14 18.93)"/><path class="cls-2" d="M29.48,40.64c2.12,1.23,1.55,3.54-1.28,5.17s-6.83,2-8.95.74S17.71,43,20.53,41.38,27.36,39.42,29.48,40.64Z" transform="translate(6.14 18.93)"/><path class="cls-4" d="M62.58,47.94c2.12,1.22,1.54,3.54-1.28,5.17s-6.83,2-8.95.74-1.55-3.54,1.28-5.17S60.46,46.72,62.58,47.94Z" transform="translate(6.14 18.93)"/><path class="cls-2" d="M70.4,17c2.11,1.22,1.54,3.54-1.28,5.17s-6.84,2-9,.74-1.55-3.54,1.28-5.17S68.28,15.8,70.4,17Z" transform="translate(6.14 18.93)"/><path class="cls-2" d="M49.94,28.83c2.12,1.22,1.54,3.54-1.28,5.17s-6.83,2-8.95.74S38.16,31.2,41,29.57,47.82,27.61,49.94,28.83Z" transform="translate(6.14 18.93)"/><path class="cls-4" d="M83,36.13c2.11,1.22,1.54,3.54-1.28,5.17s-6.84,2-9,.73-1.55-3.53,1.27-5.16S80.92,34.91,83,36.13Z" transform="translate(6.14 18.93)"/><path class="cls-4" d="M103.49,24.32c2.12,1.22,1.55,3.53-1.28,5.17s-6.83,2-8.95.73-1.54-3.53,1.28-5.16S101.37,23.1,103.49,24.32Z" transform="translate(6.14 18.93)"/><path class="cls-4" d="M78,21.41l15.46,8.92,10.23-5.9L88.22,15.5Z" transform="translate(6.14 18.93)"/><path class="cls-2" d="M60.17,22.93l15.27,8.81,10.23-5.9L70.4,17Z" transform="translate(6.14 18.93)"/><path class="cls-4" d="M57.54,33.22,73,42.14l10.23-5.9L67.77,27.31Z" transform="translate(6.14 18.93)"/><path class="cls-2" d="M39.71,34.74,55,43.55l10.23-5.9L49.94,28.83Z" transform="translate(6.14 18.93)"/><path class="cls-4" d="M37.08,45,52.54,54l10.22-5.9L47.31,39.12Z" transform="translate(6.14 18.93)"/><path class="cls-2" d="M19.25,46.55l15.27,8.81,10.23-5.9L29.48,40.64Z" transform="translate(6.14 18.93)"/><path class="cls-5" d="M95.37,29.23c1.32.76,3.83.55,5.59-.47s2.13-2.46.8-3.23" transform="translate(6.14 18.93)"/><path class="cls-5" d="M74.91,41c1.32.76,3.83.55,5.6-.47s2.12-2.46.8-3.23" transform="translate(6.14 18.93)"/><path class="cls-5" d="M54.45,52.85c1.33.76,3.83.56,5.6-.46s2.12-2.47.8-3.24" transform="translate(6.14 18.93)"/><path class="cls-5" d="M62.08,21.82c-1.32-.77-1-2.21.8-3.23s4.27-1.23,5.6-.46" transform="translate(6.14 18.93)"/><path class="cls-5" d="M41.62,33.63c-1.32-.76-1-2.21.8-3.23s4.28-1.23,5.6-.46" transform="translate(6.14 18.93)"/><path class="cls-5" d="M21.17,45.44c-1.33-.76-1-2.21.8-3.23s4.27-1.23,5.59-.46" transform="translate(6.14 18.93)"/><path class="cls-2" d="M30.69,124,46,132.87V62L30.69,53.15Z" transform="translate(6.14 18.93)"/><path class="cls-4" d="M15.34,115.16,30.69,124V53.15L15.34,44.29Z" transform="translate(6.14 18.93)"/><path class="cls-4" d="M46,70.87c0,4.89-3.44,6.87-7.67,4.42A16.93,16.93,0,0,1,30.69,62c0-4.89,3.43-6.88,7.67-4.43A17,17,0,0,1,46,70.87Z" transform="translate(6.14 18.93)"/><path class="cls-2" d="M30.69,79.72c0,4.9-3.44,6.88-7.68,4.43a17,17,0,0,1-7.67-13.28c0-4.9,3.44-6.88,7.67-4.43A16.94,16.94,0,0,1,30.69,79.72Z" transform="translate(6.14 18.93)"/><path class="cls-4" d="M46,106.3c0,4.89-3.44,6.88-7.67,4.43a17,17,0,0,1-7.67-13.29c0-4.89,3.43-6.87,7.67-4.43A17,17,0,0,1,46,106.3Z" transform="translate(6.14 18.93)"/><path class="cls-2" d="M30.69,115.16c0,4.89-3.44,6.87-7.68,4.43a17,17,0,0,1-7.67-13.29c0-4.89,3.44-6.88,7.67-4.43A17,17,0,0,1,30.69,115.16Z" transform="translate(6.14 18.93)"/><path class="cls-2" d="M30.69,115.16,15.34,106.3V70.87l15.35,8.85Z" transform="translate(6.14 18.93)"/><path class="cls-4" d="M46,106.3,30.69,97.44V62L46,70.87Z" transform="translate(6.14 18.93)"/><path class="cls-2" d="M23,119.59V101.87l13.54,7.81V127.4Z" transform="translate(6.14 18.93)"/><path class="cls-4" d="M24.82,67.48V49.77l13.54,7.81V75.29Z" transform="translate(6.14 18.93)"/><path class="cls-5" d="M43.09,104.6c0,3-2.12,4.25-4.73,2.74a10.46,10.46,0,0,1-4.74-8.2" transform="translate(6.14 18.93)"/><path class="cls-5" d="M18.28,72.09c0-3,2.12-4.25,4.73-2.74a10.46,10.46,0,0,1,4.74,8.2" transform="translate(6.14 18.93)"/><polygon class="cls-1" points="128.88 125.23 128.88 54.36 67.51 18.93 6.14 54.36 6.14 125.23 67.51 160.66 128.88 125.23"/></g></g></svg>