<svg xmlns="http://www.w3.org/2000/svg" viewBox="0 0 122.57 141.54"><defs><style>.cls-1{fill:#fff;}.cls-2{fill:#2c8ac8;}.cls-3{fill:#231815;}</style></defs><g id="レイヤー_2" data-name="レイヤー 2"><g id="レイヤー_2-2" data-name="レイヤー 2"><path class="cls-1" d="M61.29,141.54,0,106.15V35.38L23.43,21.86a4.5,4.5,0,1,1,4.5,7.79L9,40.58V101l52.29,30.18,18.93-10.93a4.5,4.5,0,1,1,4.5,7.8Z"/><path class="cls-1" d="M96.91,120.27a4.5,4.5,0,0,1-2.25-8.39L113.57,101V40.58L61.29,10.39,42.35,21.33a4.5,4.5,0,0,1-4.5-7.8L61.29,0l61.28,35.38v70.77L99.16,119.67A4.47,4.47,0,0,1,96.91,120.27Z"/><polygon class="cls-2" points="61.3 9.92 8.41 40.45 8.41 101.53 61.3 132.06 114.19 101.53 114.19 40.45 61.3 9.92"/><path class="cls-3" d="M44.76,34,60.85,61.88a3.94,3.94,0,0,0,5.38,1.44L95.45,46.46a3.93,3.93,0,0,0,0-6.82L63.27,21.06a4,4,0,0,0-3.94,0L46.21,28.62A3.93,3.93,0,0,0,44.76,34Z"/><path class="cls-3" d="M52.2,71.43,23,88.3a3.94,3.94,0,0,1-5.91-3.41V47.73a3.93,3.93,0,0,1,2-3.41l13.13-7.58a3.93,3.93,0,0,1,5.37,1.44l16.1,27.87A4,4,0,0,1,52.2,71.43Z"/><path class="cls-3" d="M27.15,102.34l32.18,18.58a4,4,0,0,0,3.94,0l13.12-7.58A3.93,3.93,0,0,0,77.83,108L61.74,80.09a3.94,3.94,0,0,0-5.38-1.44L27.15,95.52A3.93,3.93,0,0,0,27.15,102.34Z"/><path class="cls-3" d="M105.52,57.09V94.25a3.93,3.93,0,0,1-2,3.4l-13.12,7.59a3.93,3.93,0,0,1-5.38-1.44L69,75.92a3.94,3.94,0,0,1,1.44-5.38L99.61,53.68A3.94,3.94,0,0,1,105.52,57.09Z"/></g></g></svg>