<svg xmlns="http://www.w3.org/2000/svg" viewBox="0 0 213.51 200.05"><defs><style>.cls-1{fill:#fff;}</style></defs><g id="レイヤー_2" data-name="レイヤー 2"><g id="レイヤー_2-2" data-name="レイヤー 2"><path class="cls-1" d="M85.52,10A8,8,0,0,1,84.46,7.9a8.14,8.14,0,0,1-.41-2.6,8.14,8.14,0,0,1,.41-2.6A8.17,8.17,0,0,1,85.52.62l.63.4a7.09,7.09,0,0,0-1,2,7.36,7.36,0,0,0-.34,2.26,7.43,7.43,0,0,0,.34,2.27,7.05,7.05,0,0,0,1,2Z"/><path class="cls-1" d="M90.4,3.64a2.88,2.88,0,0,1-.08.45,2.43,2.43,0,0,1,1.75-.69,2.51,2.51,0,0,1,1.8.68,2.32,2.32,0,0,1,.67,1.76,2.49,2.49,0,0,1-2.7,2.64,2.7,2.7,0,0,1-1.91-.68,3.11,3.11,0,0,1-.62-.94l.81-.24a1.52,1.52,0,0,0,.32.58,1.86,1.86,0,0,0,1.42.59,1.78,1.78,0,0,0,1.87-1.91A1.68,1.68,0,0,0,92,4.06a2.08,2.08,0,0,0-1.31.42,1.28,1.28,0,0,0-.46.6L89.46,5a6.54,6.54,0,0,0,.15-1l.22-2.26c0-.29,0-.41,0-.6a4,4,0,0,0,0-.43A6.8,6.8,0,0,0,90.9.74H93A6.57,6.57,0,0,0,94.13.66v.85A6.94,6.94,0,0,0,93,1.43H90.61Z"/><path class="cls-1" d="M96.66,7.78a2.48,2.48,0,0,1-.6-.92,6.91,6.91,0,0,1-.37-2.31,6,6,0,0,1,.57-2.72,2.68,2.68,0,0,1,4.07-.52,2.52,2.52,0,0,1,.6.92,6.88,6.88,0,0,1,.38,2.32,5.21,5.21,0,0,1-.7,2.89,2.44,2.44,0,0,1-2.12,1A2.5,2.5,0,0,1,96.66,7.78Zm.58-6a2,2,0,0,0-.45.73,6.2,6.2,0,0,0-.31,2A5.53,5.53,0,0,0,97,6.93a1.7,1.7,0,0,0,1.55.87,1.67,1.67,0,0,0,1.23-.47,2,2,0,0,0,.47-.78,6.2,6.2,0,0,0,.31-2,5.67,5.67,0,0,0-.45-2.33,1.69,1.69,0,0,0-1.57-.91A1.63,1.63,0,0,0,97.24,1.8Z"/><path class="cls-1" d="M108.86.68A4.18,4.18,0,0,0,108.8,0h.76a3.82,3.82,0,0,0-.06.68V1H112A7.2,7.2,0,0,0,113.1.93v.66a10.37,10.37,0,0,0-1,0h-.5a14.14,14.14,0,0,1-.78,1.65h1.79a7.53,7.53,0,0,0,1.17-.06v.68a8.09,8.09,0,0,0-1.17,0H106a8.27,8.27,0,0,0-1.17,0V3.14a8.12,8.12,0,0,0,1.19.06h1.54a8.41,8.41,0,0,0-.67-1.65h-.52a9.62,9.62,0,0,0-1,0V.93a6.31,6.31,0,0,0,1,.06h2.41Zm2.59,3.89c.33,0,.57,0,.91,0a6.79,6.79,0,0,0,0,.78V8.25a5.8,5.8,0,0,0,.06.88h-.7v-.5h-4.81v.5h-.68a6.09,6.09,0,0,0,.06-.88V5.31a7.15,7.15,0,0,0,0-.78c.33,0,.57,0,.9,0Zm-4.58,1.7h4.81V5.13h-4.81Zm0,1.81h4.81V6.83h-4.81Zm3.25-4.88a9.33,9.33,0,0,0,.75-1.65H107.6a13,13,0,0,1,.66,1.65Z"/><path class="cls-1" d="M115.88.27a5.93,5.93,0,0,0,0,1V3.77a11.16,11.16,0,0,1-.78,5,2.39,2.39,0,0,0-.53-.45,4.51,4.51,0,0,0,.56-1.68,22.36,22.36,0,0,0,.18-2.94V1.28a6.55,6.55,0,0,0-.06-1Zm1.3.3a6.13,6.13,0,0,0,0,1v5a8.28,8.28,0,0,0,0,1h-.66a8.88,8.88,0,0,0,0-1v-5a8.12,8.12,0,0,0,0-1ZM118.5.28a7.25,7.25,0,0,0,0,1.18V7.62a9.34,9.34,0,0,0,0,1.18h-.66a7.33,7.33,0,0,0,0-1.18V1.46a7.66,7.66,0,0,0,0-1.18Zm2.29,7.33a5.85,5.85,0,0,1-1.89,1.51,1.77,1.77,0,0,0-.42-.5,4.06,4.06,0,0,0,1.76-1.34ZM119.8,1a5.32,5.32,0,0,0-1,.05V.4a5,5,0,0,0,1,0h3a5.49,5.49,0,0,0,1-.06v.69a4.89,4.89,0,0,0-1-.06H121.6a8.52,8.52,0,0,1-.39,1.06h1.25a6.65,6.65,0,0,0,.92,0,7.56,7.56,0,0,0,0,.91V6.19a8.54,8.54,0,0,0,0,.95,7.83,7.83,0,0,0-.87,0h-2.46a7.49,7.49,0,0,0-.87,0,8.19,8.19,0,0,0,0-.92V3a8.23,8.23,0,0,0,0-.94,6.56,6.56,0,0,0,.87,0h.54A6.17,6.17,0,0,0,121,1Zm0,2.54h2.93v-1h-2.93Zm0,1.46h2.93V4.07h-2.93Zm0,1.54h2.93v-1h-2.93Zm2.33.71a5,5,0,0,0,1.91,1.28,2.81,2.81,0,0,0-.38.55,6.62,6.62,0,0,1-2-1.51Z"/><path class="cls-1" d="M128.09.62a8.17,8.17,0,0,1,1.06,2.08,7.87,7.87,0,0,1,.41,2.6,7.83,7.83,0,0,1-.41,2.6A8,8,0,0,1,128.09,10l-.63-.4a7.05,7.05,0,0,0,1-2,7.38,7.38,0,0,0,.34-2.27A7.32,7.32,0,0,0,128.46,3a7.09,7.09,0,0,0-1-2Z"/><path class="cls-1" d="M2.3,49.86a5.62,5.62,0,0,0,1,1.85,3,3,0,0,0-.35.53,5.7,5.7,0,0,1-.72-1.62c0,.74,0,.74,0,1.62v3a8.11,8.11,0,0,0,.06,1.16H1.58a6.92,6.92,0,0,0,.07-1.16V52.39c0-.51,0-.93.06-1.59a8,8,0,0,1-1.35,3A2,2,0,0,0,0,53.25a8.39,8.39,0,0,0,1.55-3.39H1a4.31,4.31,0,0,0-.7,0v-.63a4.08,4.08,0,0,0,.7,0h.66v-1a5.91,5.91,0,0,0,0-1h.72a6.52,6.52,0,0,0-.05,1v1h.33a3.49,3.49,0,0,0,.62,0v.62a6,6,0,0,0-.62,0Zm2-.15A6.85,6.85,0,0,1,3.65,51a2,2,0,0,0-.5-.37,6.24,6.24,0,0,0,1-2.25,2.85,2.85,0,0,0,.08-.57l.64.16a4.86,4.86,0,0,0-.16.54c-.06.23-.13.47-.2.67H5.7V48.2a5.07,5.07,0,0,0-.06-.89h.71a4.87,4.87,0,0,0-.06.88v1H7.75a5.65,5.65,0,0,0,1-.06v.67a7.87,7.87,0,0,0-1,0H6.29v1.65H8.08a6.7,6.7,0,0,0,1-.06V52c-.31,0-.62,0-1,0H6.49a7,7,0,0,0,1,1.39,7.54,7.54,0,0,0,1.81,1.5,2.5,2.5,0,0,0-.44.6,7.88,7.88,0,0,1-2.6-3c0,.2,0,.2,0,.53s0,.43,0,.66v1.81a7.24,7.24,0,0,0,.06,1H5.64a7.69,7.69,0,0,0,.06-1.06V53.58c0-.09,0-.49,0-1.2a7,7,0,0,1-1.43,2,6.32,6.32,0,0,1-1.21,1,2.57,2.57,0,0,0-.42-.53,7.18,7.18,0,0,0,2.78-3H4.38a7.05,7.05,0,0,0-1,.06V51.3a7,7,0,0,0,1,.06H5.7V49.71Z"/><path class="cls-1" d="M18.07,49.24a6.06,6.06,0,0,0,1-.06v.72a7.42,7.42,0,0,0-1-.06H16.22a14.49,14.49,0,0,0,.21,2.1,9.71,9.71,0,0,0,.5,1.88,3.62,3.62,0,0,0,.83,1.42.66.66,0,0,0,.32.19c.22,0,.4-.54.56-1.64a1.73,1.73,0,0,0,.59.39,5,5,0,0,1-.49,1.56.75.75,0,0,1-.64.42c-.37,0-.81-.34-1.2-.91A8.88,8.88,0,0,1,15.77,52a18.64,18.64,0,0,1-.21-2.12H11.38a8.05,8.05,0,0,0-1,.06v-.72a7.12,7.12,0,0,0,1,.06h4.16c0-.31,0-.31,0-1a4.58,4.58,0,0,0-.06-.78h.77a5.44,5.44,0,0,0-.06.93c0,.21,0,.41,0,.86Zm-6.42,2.7a5.69,5.69,0,0,0-.9.05v-.67a5.38,5.38,0,0,0,.91,0h2.59a5.32,5.32,0,0,0,.9,0V52a5.55,5.55,0,0,0-.89-.05h-1v2.7c.74-.15,1.17-.26,2.25-.55v.61c-1.48.39-2.82.68-4.48,1l-.45.1-.15-.71a11.29,11.29,0,0,0,2.19-.31V51.94ZM17.91,49a6.44,6.44,0,0,0-1.26-1.12l.46-.34a8.25,8.25,0,0,1,1.27,1.08Z"/><path class="cls-1" d="M25,47.34a6.72,6.72,0,0,0,1.68,1.79,10.92,10.92,0,0,0,2.75,1.6,2.07,2.07,0,0,0-.38.64,13.74,13.74,0,0,1-2.78-1.74,8.3,8.3,0,0,1-1.6-1.71,8.65,8.65,0,0,1-1.5,1.64,11,11,0,0,1-2.7,1.76,2,2,0,0,0-.42-.57,10.49,10.49,0,0,0,2.65-1.63,7.35,7.35,0,0,0,1.59-1.78Zm-3.38,5.58a8.58,8.58,0,0,0-1.14.06v-.72a8.58,8.58,0,0,0,1.14.06h6.16a8.47,8.47,0,0,0,1.14-.06V53a8.68,8.68,0,0,0-1.14-.06H24.16a15,15,0,0,1-1.25,2.36c1.38-.09,2.42-.19,3.9-.37-.6-.65-.78-.83-1.22-1.24l.52-.32A21.63,21.63,0,0,1,28.53,56L28,56.4c-.39-.55-.52-.72-.73-1-1.78.24-3.29.4-4.85.52a12,12,0,0,0-1.69.18l-.12-.76a4.63,4.63,0,0,0,.51,0l1.06-.06a15.08,15.08,0,0,0,1.27-2.41Zm.64-2.49a5.28,5.28,0,0,0,.79,0h3.23a6.06,6.06,0,0,0,.84,0v.67a6.16,6.16,0,0,0-.84,0H23a5.75,5.75,0,0,0-.78,0Z"/><path class="cls-1" d="M32.37,55.39a6.47,6.47,0,0,0,.06,1h-.74a6.81,6.81,0,0,0,.06-1V52.27a10.25,10.25,0,0,1-1.38,1.18,1.88,1.88,0,0,0-.37-.56,8.61,8.61,0,0,0,1.8-1.48A6.78,6.78,0,0,0,33,49.55H31.17a6.91,6.91,0,0,0-.8,0v-.66a6.57,6.57,0,0,0,.78,0h.59V48a5.74,5.74,0,0,0,0-.77h.75a4.26,4.26,0,0,0-.06.78V49H33a3.64,3.64,0,0,0,.58,0l.31.35c-.07.11-.13.22-.24.43a8.62,8.62,0,0,1-1.1,1.7,6.06,6.06,0,0,0,1.61,1.36,2.4,2.4,0,0,0-.34.55,6.5,6.5,0,0,1-1.41-1.26Zm3.47-7.18a5.94,5.94,0,0,0-.07-.91h.79a4.71,4.71,0,0,0-.07.91v2.16H37.8a6.47,6.47,0,0,0,1-.06V51c-.31,0-.63,0-1,0H36.49v4.27h1.58a7,7,0,0,0,1.08-.06v.75a6.82,6.82,0,0,0-1.08-.07h-3.6a6.61,6.61,0,0,0-1.07.07v-.75a7,7,0,0,0,1.08.06h1.36V51h-1c-.34,0-.67,0-1,0v-.7a6.38,6.38,0,0,0,1,.06h1Z"/><path class="cls-1" d="M41.16,48.17a4.59,4.59,0,0,0-.07-.89h.77a4.28,4.28,0,0,0-.07.88v1.66h.13a3.21,3.21,0,0,0,.72,0v.66a4.78,4.78,0,0,0-.71,0h-.14v4.88a7.44,7.44,0,0,0,.07,1.08h-.77a6.71,6.71,0,0,0,.07-1.09V50.39H40.9a6.67,6.67,0,0,0-.83,0v-.66a4.44,4.44,0,0,0,.83,0h.26Zm3.51,3.91a6.16,6.16,0,0,0,.84,0c0,.19,0,.3,0,.56a19.58,19.58,0,0,1-.2,2.4c-.15,1-.3,1.09-1.19,1.09l-.48,0a1.91,1.91,0,0,0-.13-.63,3.62,3.62,0,0,0,.75.09c.25,0,.35-.07.4-.26a13.4,13.4,0,0,0,.25-2.64H44a5.94,5.94,0,0,1-1.5,3.62,2.33,2.33,0,0,0-.43-.52,4.59,4.59,0,0,0,1.36-3.1H43a3.27,3.27,0,0,0-.59,0V52a2.42,2.42,0,0,0,.62,0h.49c0-.22,0-.38,0-.55a3.23,3.23,0,0,0,0-.48h.66a5.17,5.17,0,0,0-.06.65c0,.14,0,.19,0,.38Zm3-3.85a5.91,5.91,0,0,0,.79,0,3.66,3.66,0,0,0,0,.42,6.71,6.71,0,0,1-.29,1.67.72.72,0,0,1-.43.39,2.24,2.24,0,0,1-.64.06c-.28,0-.62,0-1,0a2.36,2.36,0,0,0-.13-.63,6,6,0,0,0,1.22.12c.27,0,.38-.07.45-.27a4.79,4.79,0,0,0,.17-1.12h-2.2A4,4,0,0,1,43.15,51a1.91,1.91,0,0,0-.39-.54A3.26,3.26,0,0,0,45,48.78h-1a6.12,6.12,0,0,0-1,0v-.65a6.64,6.64,0,0,0,1,0h1.17a3.37,3.37,0,0,0,.11-.82,1,1,0,0,0,0-.17l.73,0a4,4,0,0,0-.12.53l-.09.42Zm.5,3.85A6.37,6.37,0,0,0,49,52q0,.27,0,.6a10.71,10.71,0,0,1-.39,3c-.13.29-.4.4-1,.4a4.18,4.18,0,0,1-.67,0,1.91,1.91,0,0,0-.13-.63,4.64,4.64,0,0,0,.9.1c.26,0,.35-.05.4-.22a11.87,11.87,0,0,0,.27-2.68H47.3A7.45,7.45,0,0,1,46.67,55a4.46,4.46,0,0,1-.87,1.26,1.83,1.83,0,0,0-.44-.48,4.65,4.65,0,0,0,1.37-3.13h-.27a3.37,3.37,0,0,0-.61,0V52a2.6,2.6,0,0,0,.64,0h.29c0-.3,0-.44,0-.62s0-.27,0-.42h.65a5.92,5.92,0,0,0-.07.81c0,.09,0,.13,0,.23Z"/><path class="cls-1" d="M50.66,48.63a7.82,7.82,0,0,0,0-.9,7.87,7.87,0,0,0,1,0h6.17a7.54,7.54,0,0,0,.92,0,7.78,7.78,0,0,0,0,.91v6.78c0,.6-.2.72-1.22.72-.37,0-.81,0-1.3,0a3.05,3.05,0,0,0-.15-.65,10.14,10.14,0,0,0,1.54.12c.38,0,.47,0,.47-.22v-7H51.32v6.91a6.21,6.21,0,0,0,.07,1.07H50.6a8.38,8.38,0,0,0,.06-1.07Zm1.34.75a4.07,4.07,0,0,0,.81,0h3.72a4.07,4.07,0,0,0,.81,0v.67a4.16,4.16,0,0,0-.79,0H52.8a4.4,4.4,0,0,0-.8,0Zm4.57,4.21a5,5,0,0,0,0,.58,6,6,0,0,0-.62,0H53.32V55h-.65a8,8,0,0,0,0-.92V51.7a5.79,5.79,0,0,0,0-.61c.21,0,.41,0,.67,0h2.52a7.18,7.18,0,0,0,.73,0,4.33,4.33,0,0,0,0,.6Zm-3.25,0H56V51.67H53.32Z"/><path class="cls-1" d="M62,49a9.52,9.52,0,0,0-1.15.06v-.76a8.7,8.7,0,0,0,1.16.06h5.32a8.91,8.91,0,0,0,1.16-.06v.76A9.64,9.64,0,0,0,67.33,49H64.92v5.71h3a7.24,7.24,0,0,0,1.16-.07v.78a7.24,7.24,0,0,0-1.16-.07H61.37a7.72,7.72,0,0,0-1.17.07v-.78a7.52,7.52,0,0,0,1.18.07H64.2V49Z"/><path class="cls-1" d="M72.84,48.13a4,4,0,0,0-.06-.71h.74a4.08,4.08,0,0,0-.06.71v.34h2.29v-.34a4.17,4.17,0,0,0-.06-.71h.74a4,4,0,0,0-.06.71v.34h1.56a8,8,0,0,0,1.12-.06v.68A8.34,8.34,0,0,0,77.93,49H76.37v.33a4.33,4.33,0,0,0,0,.66h-.7a4.55,4.55,0,0,0,0-.67V49H73.46v.32a4.3,4.3,0,0,0,0,.67h-.7a4.59,4.59,0,0,0,0-.66V49h-1.5a8.26,8.26,0,0,0-1.11.05v-.68a8,8,0,0,0,1.11.06h1.5ZM71.32,53a7.52,7.52,0,0,0-1,.06v-.7a7.12,7.12,0,0,0,1,.06H78a6.78,6.78,0,0,0,1-.06V53A7,7,0,0,0,78,53h-3.9a16.19,16.19,0,0,1-1.32,2.24c2-.1,2.9-.18,4.08-.34a13.92,13.92,0,0,0-1.22-1.17l.52-.33a20.39,20.39,0,0,1,2.47,2.57l-.58.41a11.28,11.28,0,0,0-.75-1c-1.43.21-3.4.4-5.4.51-.75,0-1,.06-1.25.1l-.13-.73q.31,0,.63,0l.86,0A12,12,0,0,0,73.38,53Zm6.59-1.77a7.05,7.05,0,0,0-1-.06H72.36a7,7,0,0,0-1,.06v-.7a6.78,6.78,0,0,0,1,.06h4.55a6.31,6.31,0,0,0,1-.06Z"/><path class="cls-1" d="M82.37,55.39a6.47,6.47,0,0,0,.06,1h-.74a6.81,6.81,0,0,0,.06-1V52.27a10.25,10.25,0,0,1-1.38,1.18,1.88,1.88,0,0,0-.37-.56,8.61,8.61,0,0,0,1.8-1.48A6.78,6.78,0,0,0,83,49.55H81.17a6.91,6.91,0,0,0-.8,0v-.66a6.57,6.57,0,0,0,.78,0h.59V48a5.74,5.74,0,0,0,0-.77h.75a4.26,4.26,0,0,0-.06.78V49H83a3.64,3.64,0,0,0,.58,0l.31.35c-.07.11-.13.22-.24.43a8.62,8.62,0,0,1-1.1,1.7,6.06,6.06,0,0,0,1.61,1.36,2.4,2.4,0,0,0-.34.55,6.5,6.5,0,0,1-1.41-1.26Zm3.47-7.18a5.94,5.94,0,0,0-.07-.91h.79a4.71,4.71,0,0,0-.07.91v2.16H87.8a6.47,6.47,0,0,0,1-.06V51c-.31,0-.63,0-1,0H86.49v4.27h1.58a7,7,0,0,0,1.08-.06v.75a6.82,6.82,0,0,0-1.08-.07h-3.6a6.61,6.61,0,0,0-1.07.07v-.75a7,7,0,0,0,1.08.06h1.36V51h-1c-.34,0-.67,0-1,0v-.7a6.38,6.38,0,0,0,1,.06h1Z"/><path class="cls-1" d="M128.05,49.62a3.41,3.41,0,0,0-.22-.85l.79-.13a5.15,5.15,0,0,0,.11.85l.2,1.1,2.26-.35a4.7,4.7,0,0,0,.88-.2l.14.72-.89.13-2.27.35.38,2,2.48-.4a6.14,6.14,0,0,0,1-.23l.14.74a2.81,2.81,0,0,0-.44.05l-.31,0-.23,0-2.51.4.41,2.21a5.43,5.43,0,0,0,.22,1l-.8.15a8,8,0,0,0-.12-1L128.85,54l-2.68.43a5.3,5.3,0,0,0-1,.2l-.13-.76a5.26,5.26,0,0,0,1-.09l2.66-.43-.36-2-2.06.32a8.24,8.24,0,0,0-1,.22l-.14-.76a7.49,7.49,0,0,0,1-.1l2-.32Z"/><path class="cls-1" d="M137,56.74a4.47,4.47,0,0,0-.87,0v-.7a5.14,5.14,0,0,0,.87.06h3.84V54.26h-3.52a4.4,4.4,0,0,0-.86,0v-.68a5,5,0,0,0,.87.06h3.51V51.94h-3.74a4.52,4.52,0,0,0-.87,0v-.69a5,5,0,0,0,.87.06h3.72l.68,0c0,.26,0,.42,0,.77v4.52a3.15,3.15,0,0,0,0,.62h-.69v-.5Z"/><path class="cls-1" d="M144.87,52.45a7.07,7.07,0,0,0,1.24.06h5.81a7.65,7.65,0,0,0,1.2,0v.81a11.1,11.1,0,0,0-1.21,0h-5.8a10.92,10.92,0,0,0-1.24,0Z"/><path class="cls-1" d="M155.38,51.45a7.2,7.2,0,0,0,1.17.06h5.13a1.69,1.69,0,0,0,.65-.07l.37.43a2.9,2.9,0,0,0-.28.63A6.82,6.82,0,0,1,157.6,57a2.18,2.18,0,0,0-.43-.69,6.86,6.86,0,0,0,3-1.52,6.16,6.16,0,0,0,1.62-2.62h-5.22a9.21,9.21,0,0,0-1.16.05Zm.86-2.32a4.59,4.59,0,0,0,1,.07h3.34a4.59,4.59,0,0,0,1.05-.07v.77a6.66,6.66,0,0,0-1,0h-3.36a6.66,6.66,0,0,0-1,0Z"/><path class="cls-1" d="M169.07,48.76a1.91,1.91,0,0,0-.22.41,9.56,9.56,0,0,1-.46.89c.13,0,.13,0,3-.08a1,1,0,0,0,.52-.07l.43.42c-.09.12-.09.13-.2.49a10.58,10.58,0,0,1-2,3.76,9.79,9.79,0,0,1-3.48,2.5,1.51,1.51,0,0,0-.5-.59A8.51,8.51,0,0,0,169.71,54a9.19,9.19,0,0,0,1.72-3.35l-3.37.06a9.64,9.64,0,0,1-2.39,2.6,1.49,1.49,0,0,0-.56-.52A7.41,7.41,0,0,0,167.62,50a4.53,4.53,0,0,0,.63-1.46Z"/><path class="cls-1" d="M176.67,51a5.62,5.62,0,0,0,1,1.85,3,3,0,0,0-.35.53,5.7,5.7,0,0,1-.72-1.62c0,.74,0,.74,0,1.62v3a8.11,8.11,0,0,0,.06,1.16H176a6.92,6.92,0,0,0,.07-1.16V53.48c0-.51,0-.93.06-1.59a8,8,0,0,1-1.35,3,2,2,0,0,0-.36-.58A8.39,8.39,0,0,0,175.92,51h-.57a4.31,4.31,0,0,0-.7,0v-.63a4.08,4.08,0,0,0,.7,0H176v-1a5.91,5.91,0,0,0,0-1h.72a6.52,6.52,0,0,0-.05,1v1H177a3.49,3.49,0,0,0,.62,0V51a6,6,0,0,0-.62,0Zm2-.15a6.85,6.85,0,0,1-.65,1.26,2,2,0,0,0-.5-.37,6.24,6.24,0,0,0,1-2.25,2.86,2.86,0,0,0,.08-.56l.64.15a4.86,4.86,0,0,0-.16.54c-.06.23-.13.47-.2.67h1.19v-1a4.87,4.87,0,0,0-.06-.88h.71a4.75,4.75,0,0,0-.06.87v1h1.46a5.44,5.44,0,0,0,1-.06v.67a7.69,7.69,0,0,0-1-.05h-1.46v1.65h1.79a6.8,6.8,0,0,0,1-.06v.67c-.31,0-.63-.05-1-.05h-1.58a7,7,0,0,0,1,1.39,7.54,7.54,0,0,0,1.81,1.5,2.85,2.85,0,0,0-.45.6,7.94,7.94,0,0,1-2.59-3c0,.2,0,.2,0,.53s0,.43,0,.66v1.81a7.24,7.24,0,0,0,.06,1H180a7.69,7.69,0,0,0,.06-1.06V54.67c0-.09,0-.49,0-1.2a7,7,0,0,1-1.43,2.05,6.32,6.32,0,0,1-1.21,1,2.57,2.57,0,0,0-.42-.53,7.18,7.18,0,0,0,2.78-3h-1.08a7.05,7.05,0,0,0-1,.06v-.68a7,7,0,0,0,1,.06h1.32V50.8Z"/><path class="cls-1" d="M192.44,50.33a6.06,6.06,0,0,0,1-.06V51a7.52,7.52,0,0,0-1-.06h-1.79a14.49,14.49,0,0,0,.21,2.1,9.71,9.71,0,0,0,.5,1.88,3.62,3.62,0,0,0,.83,1.42.66.66,0,0,0,.32.19c.22,0,.4-.54.55-1.64a1.84,1.84,0,0,0,.59.39,5,5,0,0,1-.48,1.56.75.75,0,0,1-.64.42c-.37,0-.81-.34-1.2-.91a8.88,8.88,0,0,1-1.13-3.29,18.64,18.64,0,0,1-.21-2.12h-4.18a8.05,8.05,0,0,0-1,.06v-.72a7.12,7.12,0,0,0,1,.06h4.16c0-.31,0-.31,0-1a4.58,4.58,0,0,0-.06-.78h.77a5.44,5.44,0,0,0-.06.93c0,.21,0,.41,0,.86ZM186,53a5.69,5.69,0,0,0-.9,0v-.67a5.38,5.38,0,0,0,.91.05h2.59a5.32,5.32,0,0,0,.9-.05v.67a5.55,5.55,0,0,0-.89,0h-1v2.7c.74-.15,1.17-.26,2.25-.55v.61c-1.48.39-2.82.68-4.48,1l-.45.1-.15-.71a11.29,11.29,0,0,0,2.19-.31V53Zm6.26-2.94A6.44,6.44,0,0,0,191,49l.46-.34a8.25,8.25,0,0,1,1.27,1.08Z"/><path class="cls-1" d="M199.34,48.43A6.72,6.72,0,0,0,201,50.22a10.92,10.92,0,0,0,2.75,1.6,2.34,2.34,0,0,0-.39.64,13.94,13.94,0,0,1-2.77-1.74A8.3,8.3,0,0,1,199,49a8.65,8.65,0,0,1-1.5,1.64,11,11,0,0,1-2.7,1.76,2,2,0,0,0-.42-.57A10.49,10.49,0,0,0,197,50.21a7.35,7.35,0,0,0,1.59-1.78ZM196,54a8.58,8.58,0,0,0-1.14.06v-.72a8.58,8.58,0,0,0,1.14.06h6.16a8.21,8.21,0,0,0,1.13-.06v.72a8.41,8.41,0,0,0-1.13-.06h-3.59a15,15,0,0,1-1.25,2.36c1.38-.09,2.42-.19,3.9-.37-.6-.65-.78-.83-1.22-1.24l.52-.32a21.63,21.63,0,0,1,2.42,2.64l-.55.41c-.39-.55-.52-.72-.73-1-1.78.24-3.29.4-4.85.52a12,12,0,0,0-1.69.18l-.12-.76.51,0,1.06-.06A15.08,15.08,0,0,0,197.8,54Zm.64-2.49a5.28,5.28,0,0,0,.79,0h3.23a6.06,6.06,0,0,0,.84,0v.67a6.16,6.16,0,0,0-.84,0h-3.24a5.75,5.75,0,0,0-.78,0Z"/><path class="cls-1" d="M206.74,56.48a6.47,6.47,0,0,0,.06,1h-.74a6.81,6.81,0,0,0,.06-1V53.36a10.25,10.25,0,0,1-1.38,1.18,1.88,1.88,0,0,0-.37-.56,8.61,8.61,0,0,0,1.8-1.48,6.78,6.78,0,0,0,1.24-1.86h-1.87a6.91,6.91,0,0,0-.8,0V50a6.57,6.57,0,0,0,.78,0h.59v-.93a5.47,5.47,0,0,0-.05-.76h.75a4.15,4.15,0,0,0-.06.77v.92h.58a3.64,3.64,0,0,0,.58,0l.31.35c-.07.11-.13.22-.24.43a8.62,8.62,0,0,1-1.1,1.7,6.06,6.06,0,0,0,1.61,1.36,2.4,2.4,0,0,0-.34.55,6.5,6.5,0,0,1-1.41-1.26Zm3.47-7.18a5.94,5.94,0,0,0-.07-.91h.79a4.77,4.77,0,0,0-.07.91v2.16h1.31a6.47,6.47,0,0,0,1-.06v.7c-.32,0-.63-.05-1-.05h-1.31v4.27h1.58a6.81,6.81,0,0,0,1.07-.06V57a6.61,6.61,0,0,0-1.07-.07h-3.6a6.61,6.61,0,0,0-1.07.07v-.75a7,7,0,0,0,1.08.06h1.36V52.05h-1c-.34,0-.67,0-1,.05v-.7a6.38,6.38,0,0,0,1,.06h1Z"/><path class="cls-1" d="M27.08,98.17a5.62,5.62,0,0,0,1,1.85,3,3,0,0,0-.35.53A5.7,5.7,0,0,1,27,98.93c0,.74,0,.74,0,1.62v3a8.11,8.11,0,0,0,.06,1.16h-.74a6.92,6.92,0,0,0,.07-1.16V100.7c0-.51,0-.93.06-1.59a8,8,0,0,1-1.35,3,2,2,0,0,0-.36-.58,8.39,8.39,0,0,0,1.55-3.39h-.57a4.31,4.31,0,0,0-.7,0v-.63a4.08,4.08,0,0,0,.7,0h.66v-1a5.91,5.91,0,0,0-.05-1h.72a6.52,6.52,0,0,0-.05,1v1h.33a3.49,3.49,0,0,0,.62,0v.62a6,6,0,0,0-.62,0Zm2-.15a6.85,6.85,0,0,1-.65,1.26,2,2,0,0,0-.5-.37,6.24,6.24,0,0,0,1-2.25,2.85,2.85,0,0,0,.08-.57l.64.16a4.86,4.86,0,0,0-.16.54c-.06.23-.13.47-.2.67h1.19v-.95a5.07,5.07,0,0,0-.06-.89h.71a4.87,4.87,0,0,0-.06.88v1h1.46a5.65,5.65,0,0,0,1-.06v.67a7.87,7.87,0,0,0-1,0H31.07v1.65h1.79a6.7,6.7,0,0,0,1-.06v.67c-.31,0-.62,0-1,0H31.27a7,7,0,0,0,1,1.39,7.69,7.69,0,0,0,1.8,1.5,2.52,2.52,0,0,0-.44.59,7.84,7.84,0,0,1-2.59-3c0,.2,0,.2,0,.53,0,.18,0,.43,0,.66v1.8a7.24,7.24,0,0,0,.06,1h-.71a7.69,7.69,0,0,0,.06-1.06v-1.76c0-.09,0-.49,0-1.2a7,7,0,0,1-1.43,2,6.67,6.67,0,0,1-1.21,1,2.23,2.23,0,0,0-.42-.52,7.18,7.18,0,0,0,2.78-3H29.16a7.05,7.05,0,0,0-1,.06v-.68a7,7,0,0,0,1,.06h1.32V98Z"/><path class="cls-1" d="M42.85,97.55a5.92,5.92,0,0,0,1-.06v.72a7.16,7.16,0,0,0-1-.06H41a14.49,14.49,0,0,0,.21,2.1,9.4,9.4,0,0,0,.5,1.87,3.62,3.62,0,0,0,.83,1.42.66.66,0,0,0,.32.19c.22,0,.4-.54.56-1.63a2,2,0,0,0,.58.39,4.76,4.76,0,0,1-.48,1.55.75.75,0,0,1-.64.42c-.37,0-.81-.34-1.2-.91a8.83,8.83,0,0,1-1.13-3.28,18.64,18.64,0,0,1-.21-2.12H36.16a8.05,8.05,0,0,0-1,.06v-.72a7.12,7.12,0,0,0,1,.06h4.16c0-.31,0-.31,0-1a4.58,4.58,0,0,0-.06-.78H41a5.44,5.44,0,0,0-.06.93c0,.21,0,.41,0,.86Zm-6.42,2.7a5.69,5.69,0,0,0-.9,0v-.67a5.38,5.38,0,0,0,.91.05H39a5.32,5.32,0,0,0,.9-.05v.67a5.55,5.55,0,0,0-.89,0H38V103c.74-.16,1.17-.27,2.25-.55v.6c-1.48.39-2.82.68-4.48,1l-.45.1-.15-.7a11.73,11.73,0,0,0,2.19-.32v-2.81Zm6.26-2.94a6.44,6.44,0,0,0-1.26-1.12l.46-.34a8.25,8.25,0,0,1,1.27,1.08Z"/><path class="cls-1" d="M49.75,95.65a6.72,6.72,0,0,0,1.68,1.79A10.92,10.92,0,0,0,54.18,99a2.12,2.12,0,0,0-.39.64A13.94,13.94,0,0,1,51,97.94a8.3,8.3,0,0,1-1.6-1.71,8.65,8.65,0,0,1-1.5,1.64,11,11,0,0,1-2.7,1.76,2,2,0,0,0-.42-.57,10.49,10.49,0,0,0,2.65-1.63A7.35,7.35,0,0,0,49,95.65Zm-3.38,5.58a8.58,8.58,0,0,0-1.14.06v-.72a8.58,8.58,0,0,0,1.14.06h6.16a8.47,8.47,0,0,0,1.14-.06v.72a8.68,8.68,0,0,0-1.14-.06H48.94a15.34,15.34,0,0,1-1.25,2.35c1.38-.09,2.42-.19,3.9-.37-.6-.64-.78-.83-1.22-1.23l.52-.32a20.86,20.86,0,0,1,2.42,2.63l-.55.41c-.39-.55-.52-.72-.73-1-1.78.24-3.29.4-4.85.52a12,12,0,0,0-1.69.18l-.12-.76a4.63,4.63,0,0,0,.51,0l1.06-.06a14.57,14.57,0,0,0,1.27-2.4ZM47,98.74a5.28,5.28,0,0,0,.79,0H51a6.06,6.06,0,0,0,.84,0v.67a6.16,6.16,0,0,0-.84,0H47.79a5.75,5.75,0,0,0-.78,0Z"/><path class="cls-1" d="M57.15,103.69a6.47,6.47,0,0,0,.06,1h-.74a6.81,6.81,0,0,0,.06-1v-3.1a10.25,10.25,0,0,1-1.38,1.18,1.88,1.88,0,0,0-.37-.56,8.61,8.61,0,0,0,1.8-1.48,6.78,6.78,0,0,0,1.24-1.86H56a6.91,6.91,0,0,0-.8,0v-.66a6.57,6.57,0,0,0,.78,0h.59v-.93a5.74,5.74,0,0,0-.05-.77h.75a4.26,4.26,0,0,0-.06.78v.92h.58a3.64,3.64,0,0,0,.58,0l.31.35c-.07.11-.13.22-.24.43a8.62,8.62,0,0,1-1.1,1.7,6.06,6.06,0,0,0,1.61,1.36,2.4,2.4,0,0,0-.34.55,6.5,6.5,0,0,1-1.41-1.26Zm3.47-7.17a5.94,5.94,0,0,0-.07-.91h.79a4.71,4.71,0,0,0-.07.91v2.16h1.31a6.47,6.47,0,0,0,1-.06v.7c-.31,0-.63,0-1,0H61.27v4.26h1.58a6.72,6.72,0,0,0,1.07-.06v.75a6.61,6.61,0,0,0-1.07-.07h-3.6a6.61,6.61,0,0,0-1.07.07v-.75a7,7,0,0,0,1.08.06h1.36V99.27h-1c-.34,0-.67,0-1,0v-.7a6.38,6.38,0,0,0,1,.06h1Z"/><path class="cls-1" d="M71.22,96.26a6.05,6.05,0,0,0-.08,1.12v4.46a2.33,2.33,0,0,1-.41,1.5,1.94,1.94,0,0,1-1.61.63,2.27,2.27,0,0,1-1.65-.59,2.84,2.84,0,0,1-.5-.76l.79-.33a1.72,1.72,0,0,0,.35.59,1.33,1.33,0,0,0,1,.39c.85,0,1.23-.44,1.23-1.43V97.38a6.05,6.05,0,0,0-.08-1.12Z"/><path class="cls-1" d="M75.35,102.4c0,.1.14.39.24.69l.23-.69,1.88-5.12a4.21,4.21,0,0,0,.29-1h1a7.21,7.21,0,0,0-.51,1.16l-2.14,5.5a7.5,7.5,0,0,0-.31.93h-1a5,5,0,0,0-.32-.93l-2.14-5.5a8.87,8.87,0,0,0-.51-1.16h1a7,7,0,0,0,.29,1Z"/><path class="cls-1" d="M85.33,98.42a2.33,2.33,0,0,0-.47-.88,2.19,2.19,0,0,0-1.73-.72c-1.62,0-2.64,1.24-2.64,3.23s1,3.23,2.64,3.23a2.3,2.3,0,0,0,1.87-.83,2.23,2.23,0,0,0,.4-1l.83.2a3.17,3.17,0,0,1-.54,1.18A3.1,3.1,0,0,1,83.1,104a3.22,3.22,0,0,1-2.34-.87A4.82,4.82,0,0,1,80.82,97a3.16,3.16,0,0,1,2.29-.85,2.95,2.95,0,0,1,3,2.07Z"/><path class="cls-1" d="M95.7,98.43a7.75,7.75,0,0,1-.54,2.81,5.18,5.18,0,0,1-1.71,2.09,9.31,9.31,0,0,1-1.54.89,1.42,1.42,0,0,0-.49-.64,5.77,5.77,0,0,0,2.11-1.29A5.2,5.2,0,0,0,95,98.43H92.2a9.18,9.18,0,0,1-1.74,2.12,1.43,1.43,0,0,0-.59-.47A7.36,7.36,0,0,0,92,97.32a5.68,5.68,0,0,0,.51-1.4l.76.24a5.48,5.48,0,0,0-.25.55,9.83,9.83,0,0,1-.52,1.09h4.65a8.2,8.2,0,0,0,1.23-.06v.73c-.27,0-.27,0-1.24,0Z"/><path class="cls-1" d="M100.63,103a8.67,8.67,0,0,0,2.91-.76,7.56,7.56,0,0,0,4.08-4.45,2,2,0,0,0,.61.59,8.77,8.77,0,0,1-3,3.82,10.26,10.26,0,0,1-3.73,1.48,5.25,5.25,0,0,0-.6.16Zm.64-6.19a13,13,0,0,1,2.41,1.88l-.52.62a11,11,0,0,0-2.38-2Z"/><path class="cls-1" d="M116.65,97.54a2.23,2.23,0,0,0,.84-.06l.41.39c-.09.16-.09.16-.22,1a6.23,6.23,0,0,1-1.81,3.65,8,8,0,0,1-2.93,1.65,2,2,0,0,0-.46-.68,6.8,6.8,0,0,0,2.21-1A5.49,5.49,0,0,0,117,98.17h-5.46v1.5a7.12,7.12,0,0,0,0,.74h-.82c0-.17,0-.49,0-.75V98.31a6.54,6.54,0,0,0,0-.81,8.54,8.54,0,0,0,.92,0h2.12v-1a3.14,3.14,0,0,0,0-.64h.84a3.93,3.93,0,0,0,0,.63v1Z"/><path class="cls-1" d="M121.72,98.43a11,11,0,0,1,1,2.22l-.68.23a8.25,8.25,0,0,0-.94-2.24Zm5.64-.06a5.9,5.9,0,0,0-.22.81,9,9,0,0,1-.88,2.24A7.29,7.29,0,0,1,123,104.3a2,2,0,0,0-.46-.56,6.4,6.4,0,0,0,3.17-2.6,7.54,7.54,0,0,0,.85-2.15,4.2,4.2,0,0,0,.11-.68v-.1Zm-3.6-.34a10,10,0,0,1,1,2.15l-.66.23a8.77,8.77,0,0,0-.92-2.19Z"/><path class="cls-1" d="M132.18,104.22a6.63,6.63,0,0,0,.06-1V97a5.88,5.88,0,0,0-.06-1H133a5.69,5.69,0,0,0,0,1v1.87a26.25,26.25,0,0,1,4.45,2.11l-.43.74a20.83,20.83,0,0,0-3.73-2,1.27,1.27,0,0,1-.31-.17h0a3.34,3.34,0,0,1,0,.59v3a6.12,6.12,0,0,0,0,1ZM136,96.35a7.59,7.59,0,0,1,1,1.55l-.5.3a7.41,7.41,0,0,0-1-1.59Zm1.13-.55a8.42,8.42,0,0,1,1,1.56l-.5.29a7.3,7.3,0,0,0-1-1.58Z"/><path class="cls-1" d="M145,100.12a.82.82,0,1,1-.82-.82A.82.82,0,0,1,145,100.12Z"/><path class="cls-1" d="M154.72,99.56c-.12,2.59-1,3.8-3.22,4.68a1.75,1.75,0,0,0-.47-.65c2.07-.68,2.85-1.75,2.93-4h-2.71a7.86,7.86,0,0,0-1.15,0v-.74a6.63,6.63,0,0,0,1.16.06h5.85a6.37,6.37,0,0,0,1.15-.06v.74a7.62,7.62,0,0,0-1.14,0Zm-3.61-3.17a5.19,5.19,0,0,0,1.15.07h3a9,9,0,0,0,1.15,0v.72l-1.14,0h-3a7,7,0,0,0-1.14.05Zm5.86-.84a7.78,7.78,0,0,1,1,1.58l-.51.28a7.62,7.62,0,0,0-1-1.62Zm1.23-.38a8.81,8.81,0,0,1,1,1.58l-.5.28a8.3,8.3,0,0,0-1-1.61Z"/><path class="cls-1" d="M165.65,98.12v-1a7,7,0,0,0,0-1h.78a7.64,7.64,0,0,0,0,.95v1.05h.86a6.7,6.7,0,0,0,1.16-.06v.76a7.77,7.77,0,0,0-1.15,0h-.88a7,7,0,0,1-.49,3.39,4.68,4.68,0,0,1-2.79,2.15,1.79,1.79,0,0,0-.45-.63,3.8,3.8,0,0,0,2.72-2.11,8.14,8.14,0,0,0,.3-2.8h-3v1.67a5.24,5.24,0,0,0,0,.81h-.81a4.81,4.81,0,0,0,0-.84V98.77H161a8,8,0,0,0-1.16,0v-.76a6.84,6.84,0,0,0,1.17.06h.83V97a4.88,4.88,0,0,0,0-.84h.81a5.33,5.33,0,0,0,0,.81v1.19Zm1.66-2.63a8.52,8.52,0,0,1,.71,1.64l-.53.18a7.72,7.72,0,0,0-.71-1.67Zm1.15-.33a8.26,8.26,0,0,1,.7,1.63l-.52.18a8,8,0,0,0-.69-1.64Z"/><path class="cls-1" d="M177.74,96.47a2,2,0,0,0-.44.42,17.61,17.61,0,0,1-2.34,2v4.25a6.64,6.64,0,0,0,0,1.06h-.87a5.21,5.21,0,0,0,.06-1V99.38a15.63,15.63,0,0,1-3.86,1.75,2.32,2.32,0,0,0-.39-.67,14.08,14.08,0,0,0,5.19-2.59A8.39,8.39,0,0,0,177.05,96Z"/><path class="cls-1" d="M180.63,103a8.67,8.67,0,0,0,2.91-.76,7.56,7.56,0,0,0,4.08-4.45,2.09,2.09,0,0,0,.6.59,8.68,8.68,0,0,1-3,3.82,10.26,10.26,0,0,1-3.73,1.48,5.25,5.25,0,0,0-.6.16Zm.64-6.19a13,13,0,0,1,2.41,1.88l-.52.62a11,11,0,0,0-2.38-2Z"/><path class="cls-1" d="M24.73,145.38a5.62,5.62,0,0,0,1,1.85,3,3,0,0,0-.35.53,5.7,5.7,0,0,1-.72-1.62c0,.74,0,.74,0,1.62v3a8.11,8.11,0,0,0,.06,1.16H24a6.92,6.92,0,0,0,.07-1.16v-2.84c0-.51,0-.93.06-1.59a8,8,0,0,1-1.35,3,2,2,0,0,0-.36-.58A8.39,8.39,0,0,0,24,145.38h-.57a4.31,4.31,0,0,0-.7,0v-.63a4.08,4.08,0,0,0,.7,0h.66v-1a5.91,5.91,0,0,0-.05-1h.72a6.52,6.52,0,0,0,0,1v1H25a3.49,3.49,0,0,0,.62,0v.62a6,6,0,0,0-.62,0Zm2-.15a6.85,6.85,0,0,1-.65,1.26,2,2,0,0,0-.5-.37,6.24,6.24,0,0,0,1-2.25,2.85,2.85,0,0,0,.08-.57l.64.16a4.86,4.86,0,0,0-.16.54c-.06.23-.13.47-.2.67h1.19v-.95a5.07,5.07,0,0,0-.06-.89h.71a4.87,4.87,0,0,0-.06.88v1h1.46a5.65,5.65,0,0,0,1-.06v.67a7.87,7.87,0,0,0-1-.05H28.72v1.65h1.79a6.7,6.7,0,0,0,1-.06v.67c-.31,0-.63-.05-1-.05H28.92a7,7,0,0,0,1,1.39,7.69,7.69,0,0,0,1.8,1.5,2.8,2.8,0,0,0-.44.6,7.94,7.94,0,0,1-2.59-3.05c0,.2,0,.2,0,.53s0,.43,0,.66v1.81a7.24,7.24,0,0,0,.06,1.05h-.71a7.69,7.69,0,0,0,.06-1.06V149.1c0-.09,0-.49,0-1.2a7,7,0,0,1-1.43,2,6.32,6.32,0,0,1-1.21,1,2.57,2.57,0,0,0-.42-.53,7.18,7.18,0,0,0,2.78-3H26.81a7.05,7.05,0,0,0-1,.06v-.68a7,7,0,0,0,1,.06h1.32v-1.65Z"/><path class="cls-1" d="M40.5,144.76a5.92,5.92,0,0,0,1-.06v.72a7.26,7.26,0,0,0-1-.06H38.65a14.49,14.49,0,0,0,.21,2.1,9.71,9.71,0,0,0,.5,1.88,3.62,3.62,0,0,0,.83,1.42.66.66,0,0,0,.32.19c.22,0,.4-.54.55-1.64a2,2,0,0,0,.59.39,5,5,0,0,1-.48,1.56.75.75,0,0,1-.64.42c-.37,0-.81-.34-1.2-.91a8.88,8.88,0,0,1-1.13-3.29,18.64,18.64,0,0,1-.21-2.12H33.81a8.05,8.05,0,0,0-1,.06v-.72a7.12,7.12,0,0,0,1,.06H38c0-.31,0-.31,0-1a4.58,4.58,0,0,0-.06-.78h.77a5.44,5.44,0,0,0-.06.93c0,.21,0,.41,0,.86Zm-6.42,2.7a5.69,5.69,0,0,0-.9,0v-.67a5.38,5.38,0,0,0,.91,0h2.59a5.32,5.32,0,0,0,.9,0v.67a5.55,5.55,0,0,0-.89,0h-1v2.7c.74-.15,1.17-.26,2.25-.55v.61c-1.48.39-2.82.68-4.48,1l-.45.1-.15-.71a11.29,11.29,0,0,0,2.19-.31v-2.82Zm6.26-2.94a6.44,6.44,0,0,0-1.26-1.12l.46-.34a8.25,8.25,0,0,1,1.27,1.08Z"/><path class="cls-1" d="M47.4,142.86a6.72,6.72,0,0,0,1.68,1.79,10.92,10.92,0,0,0,2.75,1.6,2.12,2.12,0,0,0-.39.64,13.94,13.94,0,0,1-2.77-1.74,8.3,8.3,0,0,1-1.6-1.71,8.65,8.65,0,0,1-1.5,1.64,11,11,0,0,1-2.7,1.76,2,2,0,0,0-.42-.57,10.49,10.49,0,0,0,2.65-1.63,7.35,7.35,0,0,0,1.59-1.78ZM44,148.44a8.58,8.58,0,0,0-1.14.06v-.72a8.58,8.58,0,0,0,1.14.06h6.16a8.21,8.21,0,0,0,1.13-.06v.72a8.41,8.41,0,0,0-1.13-.06H46.59a15,15,0,0,1-1.25,2.36c1.38-.09,2.42-.19,3.9-.37-.6-.65-.78-.83-1.22-1.24l.52-.32A21.63,21.63,0,0,1,51,151.51l-.55.41c-.39-.55-.52-.72-.73-1-1.78.24-3.29.4-4.85.52a12,12,0,0,0-1.69.18l-.12-.76a4.63,4.63,0,0,0,.51,0l1.06-.06a15.08,15.08,0,0,0,1.27-2.41Zm.64-2.49a5.28,5.28,0,0,0,.79,0h3.23a6.06,6.06,0,0,0,.84,0v.67a6.16,6.16,0,0,0-.84,0H45.44a5.75,5.75,0,0,0-.78,0Z"/><path class="cls-1" d="M54.8,150.91a6.47,6.47,0,0,0,.06,1h-.74a6.81,6.81,0,0,0,.06-1v-3.11A10.25,10.25,0,0,1,52.8,149a1.88,1.88,0,0,0-.37-.56,8.61,8.61,0,0,0,1.8-1.48,6.78,6.78,0,0,0,1.24-1.86H53.6a6.91,6.91,0,0,0-.8,0v-.66a6.57,6.57,0,0,0,.78,0h.59v-.93a5.74,5.74,0,0,0-.05-.77h.75a4.26,4.26,0,0,0-.06.78v.92h.58a3.64,3.64,0,0,0,.58,0l.31.35c-.07.11-.13.22-.24.43a8.62,8.62,0,0,1-1.1,1.7,6.06,6.06,0,0,0,1.61,1.36,2.4,2.4,0,0,0-.34.55,6.5,6.5,0,0,1-1.41-1.26Zm3.47-7.18a5.94,5.94,0,0,0-.07-.91H59a4.71,4.71,0,0,0-.07.91v2.16h1.31a6.47,6.47,0,0,0,1-.06v.7c-.31,0-.63-.05-1-.05H58.92v4.27H60.5a6.81,6.81,0,0,0,1.07-.06v.75a6.61,6.61,0,0,0-1.07-.07H56.9a6.61,6.61,0,0,0-1.07.07v-.75a7,7,0,0,0,1.08.06h1.36v-4.27h-1c-.34,0-.67,0-1,.05v-.7a6.38,6.38,0,0,0,1,.06h1Z"/><path class="cls-1" d="M63.2,147.16h.1c.4-.54.4-.54.69-1a8.94,8.94,0,0,0-1.41-1.6l.35-.46.46.47a7,7,0,0,0,.89-1.86l.62.3a4.59,4.59,0,0,0-.32.57,12,12,0,0,1-.83,1.38c.27.31.31.36.57.7a8.4,8.4,0,0,0,1-1.79l.6.33a4.33,4.33,0,0,0-.32.48,23.72,23.72,0,0,1-1.65,2.41,15.16,15.16,0,0,0,1.57-.12,6.44,6.44,0,0,0-.46-.87l.42-.21a9,9,0,0,1,.87,1.82l-.49.22c-.07-.23-.1-.32-.15-.47l-1,.1v3.32a6.9,6.9,0,0,0,.06,1h-.7a7.2,7.2,0,0,0,.06-1v-3.26l-.73.05a6.06,6.06,0,0,0-.79.07l-.09-.66a2.71,2.71,0,0,0,.47,0Zm.47,1.17a10,10,0,0,1-.58,2.94l-.53-.25a8,8,0,0,0,.55-2.79Zm1.93-.21A11.89,11.89,0,0,1,66,150l-.52.19a8.83,8.83,0,0,0-.36-1.88Zm2.52-5a3.52,3.52,0,0,0-.18.33,8.53,8.53,0,0,1-.76,1.2,5.22,5.22,0,0,1-1,1,1.52,1.52,0,0,0-.46-.45,4.25,4.25,0,0,0,1.34-1.33,3.35,3.35,0,0,0,.46-1ZM65.79,151a5.88,5.88,0,0,0,.7-2.46l.56.12a8.37,8.37,0,0,1-.71,2.63Zm4.9-3.3c-.25-.46-.33-.6-.5-.87-1.24.17-1.54.21-3.28.36a2.79,2.79,0,0,0-.57.08l-.12-.65h.3l.52,0a9.63,9.63,0,0,0,1.19-2.43l.63.25c-.51,1-.85,1.64-1.17,2.14.92-.07,1.39-.12,2.19-.22a9.56,9.56,0,0,0-.72-.94l.48-.27a18.41,18.41,0,0,1,1.59,2.23Zm-2.57.82a5.74,5.74,0,0,0-.05.77v1.58c0,.12,0,.16.07.19a1.38,1.38,0,0,0,.55.08c.52,0,.77,0,.85-.17s.13-.4.16-1.14a1.26,1.26,0,0,0,.56.21c-.14,1.55-.22,1.64-1.62,1.64-.93,0-1.15-.12-1.15-.63v-1.72a5.13,5.13,0,0,0-.06-.81Zm-.1-1.2a7.63,7.63,0,0,1,1.49,1.2l-.43.45a5.76,5.76,0,0,0-1.49-1.27Zm1.6-4.47A5.23,5.23,0,0,0,71.69,145a2,2,0,0,0-.38.53,6.89,6.89,0,0,1-2-2c-.12-.19-.15-.23-.23-.34Zm.93,5.53a12.2,12.2,0,0,1,1.07,2.38l-.58.3a9,9,0,0,0-1-2.46Z"/><path class="cls-1" d="M77.4,142.84a6.87,6.87,0,0,0,1.65,1.81,10.6,10.6,0,0,0,2.73,1.64,2.59,2.59,0,0,0-.4.63,14.19,14.19,0,0,1-2.81-1.84A8.4,8.4,0,0,1,77,143.4a9.32,9.32,0,0,1-2.1,2.19,11.56,11.56,0,0,1-2.12,1.3,1.74,1.74,0,0,0-.42-.57,10.43,10.43,0,0,0,2.72-1.74,7.27,7.27,0,0,0,1.54-1.74Zm-3.49,8.94a7.26,7.26,0,0,0,.06-1v-2.21a6.29,6.29,0,0,0,0-.92,5.3,5.3,0,0,0,.78,0h4.69a5.3,5.3,0,0,0,.78,0,6,6,0,0,0,0,.92v2.21a7,7,0,0,0,.06,1h-.72v-.58H74.63v.58Zm.72-1.17h4.83v-2.29H74.63Zm.07-4.73a5.11,5.11,0,0,0,.79,0h3.1a6,6,0,0,0,.84,0v.68a6.16,6.16,0,0,0-.84,0H75.48a5.75,5.75,0,0,0-.78,0Z"/><path class="cls-1" d="M86,150.8a8.76,8.76,0,0,1-3,1.07,2,2,0,0,0-.37-.55A9.25,9.25,0,0,0,84,151a5.45,5.45,0,0,0,1.42-.6Zm-.55-5.31c-.76.34-1.15.5-2,.82a2.88,2.88,0,0,0-.45.19l-.25-.65a10.71,10.71,0,0,0,2.54-.88Zm-.73-1a6.28,6.28,0,0,0-1.63-1l.39-.46a9.48,9.48,0,0,1,1.63,1Zm4.49,2a8.62,8.62,0,0,0,1,0c0,.3,0,.61,0,1.09v1.75a7.91,7.91,0,0,0,0,1,11,11,0,0,0-1.12,0H85a11,11,0,0,0-1.12,0,7.75,7.75,0,0,0,0-1v-1.79c0-.46,0-.78,0-1.06.27,0,.56,0,1,0Zm-4.63,1.1h5V147h-5Zm0,1.1h5v-.63h-5Zm0,1.11h5v-.64h-5Zm1.93-5.74a5.75,5.75,0,0,1-.94.88,1.36,1.36,0,0,0-.44-.39,4,4,0,0,0,1.57-1.87l.61.19a3.19,3.19,0,0,0-.2.33l-.24.37h3.41a3,3,0,0,0,.67-.05l.38.32-.11.15-.14.18a4.18,4.18,0,0,1-.92.91,2.81,2.81,0,0,0-.56-.25,2.62,2.62,0,0,0,.89-.77H88.39a2.41,2.41,0,0,0,1.14,1.33,5.4,5.4,0,0,0,2.14.66,2.14,2.14,0,0,0-.33.57A6.59,6.59,0,0,1,89.4,146a3.38,3.38,0,0,1-1.31-1.29A2.53,2.53,0,0,1,87,145.87a5.39,5.39,0,0,1-1.59.52,1.75,1.75,0,0,0-.34-.51c1.56-.16,2.42-.73,2.68-1.77Zm2.1,6.33a7.54,7.54,0,0,0,3,.86,2.44,2.44,0,0,0-.36.57,8.5,8.5,0,0,1-3.07-1.07Z"/><path class="cls-1" d="M94.13,143.82a6,6,0,0,0,0-1h.7a6.76,6.76,0,0,0,0,1v1h.45a3.75,3.75,0,0,0,.64,0v.61a6.05,6.05,0,0,0-.63,0h-.44a5.35,5.35,0,0,0,.43.84,6.08,6.08,0,0,0,.76,1.07,3.21,3.21,0,0,0-.39.46,7.22,7.22,0,0,1-.86-1.59c0,.57,0,1.16,0,1.61v3a8.2,8.2,0,0,0,.06,1.16h-.72a8.4,8.4,0,0,0,.06-1.16v-2.82c0-.35,0-.74.06-1.56a10,10,0,0,1-.59,1.86,5.34,5.34,0,0,1-.62,1.16,1.87,1.87,0,0,0-.42-.52,9.54,9.54,0,0,0,1.49-3.54h-.54a4.84,4.84,0,0,0-.72,0v-.62a4.41,4.41,0,0,0,.73,0h.61Zm5.37-.1a4.93,4.93,0,0,0,.94-.05l.39.4a4.07,4.07,0,0,0-.24.39,8.06,8.06,0,0,1-1.5,2A9.47,9.47,0,0,0,102,148a2.26,2.26,0,0,0-.37.61l-.73-.32a5.69,5.69,0,0,0,0,.84v1.81a6,6,0,0,0,.05,1h-.66v-.58H97.1v.58h-.66a6.09,6.09,0,0,0,0-1v-1.82a7.47,7.47,0,0,0,0-.81l-.7.33a1.81,1.81,0,0,0-.41-.51,9.65,9.65,0,0,0,2.87-1.63A7.91,7.91,0,0,1,97,145.05a7.77,7.77,0,0,1-1,1.22,1.4,1.4,0,0,0-.45-.42,6.68,6.68,0,0,0,1.91-3.09l.66.16a2.9,2.9,0,0,0-.16.37c-.06.14-.09.2-.2.43Zm.53,4.52a7.68,7.68,0,0,0,.78,0,9.71,9.71,0,0,1-2.15-1.37,9.49,9.49,0,0,1-2.11,1.37,6.68,6.68,0,0,0,.72,0Zm-2.93,2.53h3.11v-2H97.1Zm.42-6.5-.16.28a7.09,7.09,0,0,0,1.29,1.53,6.23,6.23,0,0,0,1.34-1.81Z"/><path class="cls-1" d="M132.75,145.38a5.62,5.62,0,0,0,1,1.85,3,3,0,0,0-.35.53,5.7,5.7,0,0,1-.72-1.62c0,.74,0,.74,0,1.62v3a8.11,8.11,0,0,0,.06,1.16H132a6.92,6.92,0,0,0,.07-1.16v-2.84c0-.51,0-.93.06-1.59a8,8,0,0,1-1.35,3,2,2,0,0,0-.36-.58,8.39,8.39,0,0,0,1.55-3.39h-.57a4.31,4.31,0,0,0-.7,0v-.63a4.08,4.08,0,0,0,.7,0h.66v-1a5.91,5.91,0,0,0-.05-1h.72a6.52,6.52,0,0,0,0,1v1H133a3.49,3.49,0,0,0,.62,0v.62a6,6,0,0,0-.62,0Zm2-.15a6.85,6.85,0,0,1-.65,1.26,2,2,0,0,0-.5-.37,6.24,6.24,0,0,0,1-2.25,2.85,2.85,0,0,0,.08-.57l.64.16a4.86,4.86,0,0,0-.16.54c-.06.23-.13.47-.2.67h1.19v-.95a5.07,5.07,0,0,0-.06-.89h.71a4.87,4.87,0,0,0-.06.88v1h1.46a5.65,5.65,0,0,0,1-.06v.67a7.87,7.87,0,0,0-1-.05h-1.46v1.65h1.79a6.7,6.7,0,0,0,1-.06v.67c-.31,0-.62-.05-1-.05h-1.58a7,7,0,0,0,1,1.39,7.69,7.69,0,0,0,1.8,1.5,2.8,2.8,0,0,0-.44.6,7.94,7.94,0,0,1-2.59-3.05c0,.2,0,.2,0,.53s0,.43,0,.66v1.81a7.24,7.24,0,0,0,.06,1.05h-.71a7.69,7.69,0,0,0,.06-1.06V149.1c0-.09,0-.49,0-1.2a7,7,0,0,1-1.43,2,6.32,6.32,0,0,1-1.21,1,2.57,2.57,0,0,0-.42-.53,7.18,7.18,0,0,0,2.78-3h-1.08a7.05,7.05,0,0,0-1,.06v-.68a7,7,0,0,0,1,.06h1.32v-1.65Z"/><path class="cls-1" d="M148.52,144.76a6.06,6.06,0,0,0,1-.06v.72a7.42,7.42,0,0,0-1-.06h-1.79a14.49,14.49,0,0,0,.21,2.1,9.71,9.71,0,0,0,.5,1.88,3.62,3.62,0,0,0,.83,1.42.66.66,0,0,0,.32.19c.22,0,.4-.54.55-1.64a2,2,0,0,0,.59.39,4.75,4.75,0,0,1-.48,1.56.75.75,0,0,1-.64.42c-.37,0-.81-.34-1.2-.91a8.88,8.88,0,0,1-1.13-3.29,18.64,18.64,0,0,1-.21-2.12h-4.18a8.05,8.05,0,0,0-1,.06v-.72a7.12,7.12,0,0,0,1,.06H146c0-.31,0-.31,0-1a4.58,4.58,0,0,0-.06-.78h.77a5.44,5.44,0,0,0-.06.93c0,.21,0,.41,0,.86Zm-6.42,2.7a5.69,5.69,0,0,0-.9,0v-.67a5.38,5.38,0,0,0,.91,0h2.59a5.32,5.32,0,0,0,.9,0v.67a5.55,5.55,0,0,0-.89,0h-1v2.7c.74-.15,1.17-.26,2.25-.55v.61c-1.48.39-2.82.68-4.48,1l-.45.1-.15-.71a11.29,11.29,0,0,0,2.19-.31v-2.82Zm6.26-2.94a6.44,6.44,0,0,0-1.26-1.12l.46-.34a8.25,8.25,0,0,1,1.27,1.08Z"/><path class="cls-1" d="M155.42,142.86a6.72,6.72,0,0,0,1.68,1.79,10.92,10.92,0,0,0,2.75,1.6,2.34,2.34,0,0,0-.39.64,13.94,13.94,0,0,1-2.77-1.74,8.3,8.3,0,0,1-1.6-1.71,8.65,8.65,0,0,1-1.5,1.64,11,11,0,0,1-2.7,1.76,2,2,0,0,0-.42-.57,10.49,10.49,0,0,0,2.65-1.63,7.35,7.35,0,0,0,1.59-1.78ZM152,148.44a8.58,8.58,0,0,0-1.14.06v-.72a8.58,8.58,0,0,0,1.14.06h6.16a8.21,8.21,0,0,0,1.13-.06v.72a8.41,8.41,0,0,0-1.13-.06h-3.59a15,15,0,0,1-1.25,2.36c1.38-.09,2.42-.19,3.9-.37-.6-.65-.78-.83-1.22-1.24l.52-.32a21.63,21.63,0,0,1,2.42,2.64l-.55.41c-.39-.55-.52-.72-.73-1-1.78.24-3.29.4-4.85.52a12,12,0,0,0-1.69.18l-.12-.76a4.63,4.63,0,0,0,.51,0l1.06-.06a15.08,15.08,0,0,0,1.27-2.41Zm.64-2.49a5.28,5.28,0,0,0,.79,0h3.23a6.06,6.06,0,0,0,.84,0v.67a6.16,6.16,0,0,0-.84,0h-3.24a5.75,5.75,0,0,0-.78,0Z"/><path class="cls-1" d="M162.82,150.91a6.47,6.47,0,0,0,.06,1h-.74a6.81,6.81,0,0,0,.06-1v-3.11a10.25,10.25,0,0,1-1.38,1.18,1.88,1.88,0,0,0-.37-.56,8.61,8.61,0,0,0,1.8-1.48,6.78,6.78,0,0,0,1.24-1.86h-1.87a6.91,6.91,0,0,0-.8,0v-.66a6.57,6.57,0,0,0,.78,0h.59v-.93a5.74,5.74,0,0,0-.05-.77h.75a4.26,4.26,0,0,0-.06.78v.92h.58a3.64,3.64,0,0,0,.58,0l.31.35c-.07.11-.13.22-.24.43a8.62,8.62,0,0,1-1.1,1.7,6.06,6.06,0,0,0,1.61,1.36,2.4,2.4,0,0,0-.34.55,6.5,6.5,0,0,1-1.41-1.26Zm3.47-7.18a5.94,5.94,0,0,0-.07-.91H167a4.71,4.71,0,0,0-.07.91v2.16h1.31a6.47,6.47,0,0,0,1-.06v.7c-.31,0-.63-.05-1-.05h-1.31v4.27h1.58a6.81,6.81,0,0,0,1.07-.06v.75a6.61,6.61,0,0,0-1.07-.07h-3.6a6.61,6.61,0,0,0-1.07.07v-.75a7,7,0,0,0,1.08.06h1.36v-4.27h-1c-.34,0-.67,0-1,.05v-.7a6.38,6.38,0,0,0,1,.06h1Z"/><path class="cls-1" d="M176.21,149.94a6.17,6.17,0,0,0,.08,1.13h-.94a6,6,0,0,0,.08-1.13v-5.77h-1.56a7.19,7.19,0,0,0-1.15.07v-.84a7.05,7.05,0,0,0,1.14.07h3.9a7,7,0,0,0,1.18-.07v.84a7.19,7.19,0,0,0-1.18-.07h-1.55Z"/><path class="cls-1" d="M179.53,148.38a2.67,2.67,0,1,1,2.68,2.82A2.57,2.57,0,0,1,179.53,148.38Zm.77,0c0,1.36.73,2.19,1.9,2.19s1.89-.83,1.89-2.18-.72-2.19-1.87-2.19S180.3,147,180.3,148.36Z"/><path class="cls-1" d="M185.78,148.38a2.67,2.67,0,1,1,2.68,2.82A2.57,2.57,0,0,1,185.78,148.38Zm.77,0c0,1.36.73,2.19,1.9,2.19s1.89-.83,1.89-2.18-.72-2.19-1.87-2.19S186.55,147,186.55,148.36Z"/><path class="cls-1" d="M7.37,190.66a4.37,4.37,0,0,0-.06-.72h.77a4.11,4.11,0,0,0-.06.72v.08h3a9.78,9.78,0,0,0,1,0,4.22,4.22,0,0,0,0,.67v.48a4.44,4.44,0,0,0,0,.68h-.64v-1.25h-7v1.25H3.64a4.66,4.66,0,0,0,0-.69v-.47a4.38,4.38,0,0,0,0-.67,9.86,9.86,0,0,0,1,0H7.37ZM4.1,196.37a7.32,7.32,0,0,0,0-1c.22,0,.42,0,1,0h5.57c.53,0,.73,0,.95,0a7.52,7.52,0,0,0,0,1v1.71a6.57,6.57,0,0,0,.06,1h-.67v-.46H4.71v.46H4a6.84,6.84,0,0,0,.06-1Zm.61.39H7.4v-.82H4.71Zm0,1.38H7.4v-.87H4.71Zm0-6.28a4.65,4.65,0,0,0,.82,0h4.5a4.59,4.59,0,0,0,.81,0v.61a4.81,4.81,0,0,0-.81-.05H5.56a4.86,4.86,0,0,0-.82.05Zm5.9,2.31a4.61,4.61,0,0,0,0,.68,7.46,7.46,0,0,0-.85,0H5.77a7.28,7.28,0,0,0-.84,0,4.79,4.79,0,0,0,0-.68v-.49a5.07,5.07,0,0,0,0-.68,6.85,6.85,0,0,0,.84,0H9.84a7,7,0,0,0,.84,0,4.7,4.7,0,0,0,0,.68Zm-5.07-.65v.81H10v-.81ZM8,196.76h2.89v-.82H8Zm0,1.38h2.89v-.87H8Z"/><path class="cls-1" d="M17.35,191.14a6.8,6.8,0,0,0-.07-1h.84a6.89,6.89,0,0,0-.07,1v2.06h3a8.06,8.06,0,0,0,1.13-.07v.77a7.92,7.92,0,0,0-1.12-.07h-3v4h2.43a5.82,5.82,0,0,0,1.07-.06v.75a7.17,7.17,0,0,0-1.07-.06H15.11a7.14,7.14,0,0,0-1.08.06v-.75a6.81,6.81,0,0,0,1.07.06h2.25v-4H14.66a9.22,9.22,0,0,0-1.2.07v-.77a8.92,8.92,0,0,0,1.2.07h2.69Z"/><path class="cls-1" d="M31.41,191.68c-.07.11-.07.11-.21.62a8.52,8.52,0,0,1-2.51,4.34,9.18,9.18,0,0,1-3.14,1.88,1.89,1.89,0,0,0-.49-.7A7.63,7.63,0,0,0,30.47,192H25.38a7,7,0,0,0-1.12.06v-.81a6,6,0,0,0,1.13.07h4.92a1.34,1.34,0,0,0,.64-.08Z"/><path class="cls-1" d="M41.32,190.89a2.26,2.26,0,0,0-.44.42,17.61,17.61,0,0,1-2.34,2v4.26a6.64,6.64,0,0,0,.05,1.06h-.87a5.21,5.21,0,0,0,.06-1v-3.8a15.63,15.63,0,0,1-3.86,1.75,2.32,2.32,0,0,0-.39-.67,14.08,14.08,0,0,0,5.19-2.59,8.39,8.39,0,0,0,1.91-1.89Z"/><path class="cls-1" d="M46.32,190.77a5,5,0,0,0-.06.86c-.08,2.71-.16,3.45-.54,4.46A6.11,6.11,0,0,1,44,198.56a1.85,1.85,0,0,0-.6-.54,5,5,0,0,0,1.69-2.3,13.64,13.64,0,0,0,.45-4.29,4.45,4.45,0,0,0,0-.71Zm2.48-.11a3.88,3.88,0,0,0-.06.88l-.06,6a4.62,4.62,0,0,0,1.86-1.16,5,5,0,0,0,1.18-2,2.8,2.8,0,0,0,.56.58,5.68,5.68,0,0,1-2,2.57,6.59,6.59,0,0,1-1.43.73l-.32.12-.23.11-.4-.46a1.69,1.69,0,0,0,.07-.68l.06-5.85a4,4,0,0,0,0-.89Z"/><path class="cls-1" d="M57.88,190.6a4,4,0,0,0-.27.72,54.18,54.18,0,0,1-2.08,5.85c1.33-.09,3.68-.4,4.86-.63A19.45,19.45,0,0,0,58.85,194l.62-.34A25.9,25.9,0,0,1,62,198.13l-.7.38a13.57,13.57,0,0,0-.59-1.35,61.77,61.77,0,0,1-6.15.83,7,7,0,0,0-.85.11l-.1-.83h.28l.85-.05a38.14,38.14,0,0,0,1.51-4,19,19,0,0,0,.79-2.88Z"/><path class="cls-1" d="M65.47,192.59a5.62,5.62,0,0,0,1,1.85,3,3,0,0,0-.35.53,5.7,5.7,0,0,1-.72-1.62c0,.74,0,.74,0,1.62v3a8.11,8.11,0,0,0,.06,1.16h-.74a6.92,6.92,0,0,0,.07-1.16v-2.84c0-.51,0-.93.06-1.59a8,8,0,0,1-1.35,3,2,2,0,0,0-.36-.58,8.39,8.39,0,0,0,1.55-3.39h-.57a4.31,4.31,0,0,0-.7,0V192a4.08,4.08,0,0,0,.7,0h.66v-1a5.91,5.91,0,0,0,0-1h.72a6.52,6.52,0,0,0,0,1v1h.33a3.49,3.49,0,0,0,.62,0v.62a6,6,0,0,0-.62,0Zm2-.15a6.85,6.85,0,0,1-.65,1.26,2,2,0,0,0-.5-.37,6.24,6.24,0,0,0,1-2.25,2.85,2.85,0,0,0,.08-.57l.64.16a4.86,4.86,0,0,0-.16.54c-.06.23-.13.47-.2.67h1.19v-.95a5.07,5.07,0,0,0-.06-.89h.71a4.87,4.87,0,0,0-.06.88v1h1.46a5.65,5.65,0,0,0,1-.06v.67a7.87,7.87,0,0,0-1-.05H69.46v1.65h1.79a6.7,6.7,0,0,0,1-.06v.67c-.31,0-.62,0-1,0H69.66a7,7,0,0,0,1,1.39,7.54,7.54,0,0,0,1.81,1.5,2.5,2.5,0,0,0-.44.6,7.88,7.88,0,0,1-2.6-3c0,.2,0,.2,0,.53,0,.18,0,.43,0,.66v1.81a7.24,7.24,0,0,0,.06,1h-.71a7.69,7.69,0,0,0,.06-1.06v-1.77c0-.09,0-.49,0-1.2a7,7,0,0,1-1.43,2,6.32,6.32,0,0,1-1.21,1,2.57,2.57,0,0,0-.42-.53,7.18,7.18,0,0,0,2.78-3H67.55a7.05,7.05,0,0,0-1,.06V194a7,7,0,0,0,1,.06h1.32v-1.65Z"/><path class="cls-1" d="M81.24,192a6.06,6.06,0,0,0,1-.06v.72a7.42,7.42,0,0,0-1-.06H79.39a14.49,14.49,0,0,0,.21,2.1,9.71,9.71,0,0,0,.5,1.88,3.62,3.62,0,0,0,.83,1.42.66.66,0,0,0,.32.19c.22,0,.4-.54.56-1.64a1.73,1.73,0,0,0,.59.39,5,5,0,0,1-.49,1.56.75.75,0,0,1-.64.42c-.37,0-.81-.34-1.2-.91a8.88,8.88,0,0,1-1.13-3.29,18.64,18.64,0,0,1-.21-2.12H74.55a8.05,8.05,0,0,0-1,.06v-.72a7.12,7.12,0,0,0,1,.06h4.16c0-.31,0-.31,0-1a4.58,4.58,0,0,0-.06-.78h.77a5.44,5.44,0,0,0-.06.93c0,.21,0,.41,0,.86Zm-6.42,2.7a5.69,5.69,0,0,0-.9.05v-.67a5.38,5.38,0,0,0,.91,0h2.59a5.32,5.32,0,0,0,.9,0v.67a5.55,5.55,0,0,0-.89-.05h-1v2.7c.74-.15,1.17-.26,2.25-.55v.61c-1.48.39-2.82.68-4.48,1l-.45.1-.15-.71a11.29,11.29,0,0,0,2.19-.31v-2.82Zm6.26-2.94a6.44,6.44,0,0,0-1.26-1.12l.46-.34a8.25,8.25,0,0,1,1.27,1.08Z"/><path class="cls-1" d="M88.14,190.07a6.72,6.72,0,0,0,1.68,1.79,10.8,10.8,0,0,0,2.76,1.6,2.12,2.12,0,0,0-.39.64,13.74,13.74,0,0,1-2.78-1.74,8.3,8.3,0,0,1-1.6-1.71,8.65,8.65,0,0,1-1.5,1.64,11,11,0,0,1-2.7,1.76,2,2,0,0,0-.42-.57,10.49,10.49,0,0,0,2.65-1.63,7.35,7.35,0,0,0,1.59-1.78Zm-3.38,5.58a8.58,8.58,0,0,0-1.14.06V195a8.58,8.58,0,0,0,1.14.06h6.16a8.47,8.47,0,0,0,1.14-.06v.72a8.68,8.68,0,0,0-1.14-.06H87.33A15,15,0,0,1,86.08,198c1.38-.09,2.42-.19,3.9-.37-.6-.65-.78-.83-1.22-1.24l.52-.32a21.63,21.63,0,0,1,2.42,2.64l-.55.41c-.39-.55-.52-.72-.73-1-1.78.24-3.29.4-4.85.52a12,12,0,0,0-1.69.18l-.12-.76a4.63,4.63,0,0,0,.51,0l1.06-.06a15.08,15.08,0,0,0,1.27-2.41Zm.64-2.49a5.28,5.28,0,0,0,.79,0h3.23a6.06,6.06,0,0,0,.84,0v.67a6.16,6.16,0,0,0-.84,0H86.18a5.75,5.75,0,0,0-.78,0Z"/><path class="cls-1" d="M95.54,198.12a6.47,6.47,0,0,0,.06,1h-.74a6.81,6.81,0,0,0,.06-1V195a10.25,10.25,0,0,1-1.38,1.18,1.88,1.88,0,0,0-.37-.56,8.61,8.61,0,0,0,1.8-1.48,6.78,6.78,0,0,0,1.24-1.86H94.34a6.91,6.91,0,0,0-.8,0v-.66a6.57,6.57,0,0,0,.78,0h.59v-.93a5.74,5.74,0,0,0,0-.77h.75a4.26,4.26,0,0,0-.06.78v.92h.58a3.64,3.64,0,0,0,.58,0L97,192c-.07.11-.13.22-.24.43a8.62,8.62,0,0,1-1.1,1.7,6.06,6.06,0,0,0,1.61,1.36,2.4,2.4,0,0,0-.34.55,6.5,6.5,0,0,1-1.41-1.26ZM99,190.94a5.94,5.94,0,0,0-.07-.91h.79a4.71,4.71,0,0,0-.07.91v2.16H101a6.47,6.47,0,0,0,1-.06v.7c-.31,0-.63-.05-1-.05H99.66V198h1.58a7,7,0,0,0,1.08-.06v.75a6.82,6.82,0,0,0-1.08-.07h-3.6a6.61,6.61,0,0,0-1.07.07v-.75a7,7,0,0,0,1.08.06H99v-4.27H98c-.34,0-.67,0-1,.05V193a6.38,6.38,0,0,0,1,.06h1Z"/><path class="cls-1" d="M134,193.4l-.52,0h-.34a4.86,4.86,0,0,0,1.11,1.86,3.48,3.48,0,0,0-.38.49,6,6,0,0,1-.81-1.54c0,.41,0,1,.05,1.66v3a8.2,8.2,0,0,0,.06,1.16h-.72a8.4,8.4,0,0,0,.06-1.16v-2.78q0-.37.06-1.65a9.49,9.49,0,0,1-.56,1.65,5.66,5.66,0,0,1-.56,1,2.05,2.05,0,0,0-.4-.54,7.53,7.53,0,0,0,1.38-3.17h-.39a5.88,5.88,0,0,0-.7,0v-.62a4.08,4.08,0,0,0,.7,0h.47v-.92a6,6,0,0,0-.05-1h.7a6.53,6.53,0,0,0,0,1v.93h.36a3.67,3.67,0,0,0,.64,0v.59a8.09,8.09,0,0,0,.89,0h.67v-1h-.45a8.12,8.12,0,0,0-1,0v-.62a9.31,9.31,0,0,0,1,.05h.44v-.2a4,4,0,0,0-.05-.77h.68a5.32,5.32,0,0,0,0,.77v.2h1.65v-.18a6,6,0,0,0,0-.79h.68a4.09,4.09,0,0,0-.05.79v.18h.58a9.37,9.37,0,0,0,1-.05v.62a8.22,8.22,0,0,0-1,0h-.6v1h.82a7.86,7.86,0,0,0,1-.05V194a7.83,7.83,0,0,0-1,0h-2v.73H139a7,7,0,0,0,.74,0,6.83,6.83,0,0,0,0,.72v2a7.2,7.2,0,0,0,0,.75,7.26,7.26,0,0,0-.74,0h-3.81a7.18,7.18,0,0,0-.73,0,7,7,0,0,0,0-.71v-2c0-.27,0-.52,0-.72a6.78,6.78,0,0,0,.73,0h1.53V194H135a9,9,0,0,0-1,0Zm2.42,5.24a4.76,4.76,0,0,1-2.32,1.35,2.57,2.57,0,0,0-.38-.55,4.7,4.7,0,0,0,1.39-.51,2.91,2.91,0,0,0,.86-.69Zm-1.31-3.44v.89h1.64v-.89Zm0,1.4v1h1.64v-1Zm2.8-4.17h-1.65v1h1.65Zm1.24,3.66v-.89h-1.83v.89Zm0,1.49v-1h-1.83v1Zm-1,.66a5.18,5.18,0,0,0,2.2,1.22,3.12,3.12,0,0,0-.37.58,7,7,0,0,1-2.26-1.41Z"/><path class="cls-1" d="M141.61,193.39a10.53,10.53,0,0,1,1.77,1.35l-.41.55a7.52,7.52,0,0,0-1.76-1.42Zm1.79,3.26a15.7,15.7,0,0,1-1.32,2.75c-.06.1-.12.22-.23.4l-.58-.53a9.46,9.46,0,0,0,1.6-3ZM142.08,191a9.27,9.27,0,0,1,1.67,1.35l-.4.52a8.45,8.45,0,0,0-1.68-1.43Zm2.78,1a7.43,7.43,0,0,0-1.05.06v-.72a7.2,7.2,0,0,0,1.06.06h4.33a8.12,8.12,0,0,0,1.1-.06v.7a5.59,5.59,0,0,0-.81,0v7c0,.61-.25.78-1.12.78-.28,0-.65,0-1.16-.06a2.34,2.34,0,0,0-.16-.67,8.48,8.48,0,0,0,1.33.12c.38,0,.46,0,.46-.27V192Zm-.45,6a6.6,6.6,0,0,0,.05-.83v-3a6.54,6.54,0,0,0,0-.84,6.44,6.44,0,0,0,.84,0h1.44a6.44,6.44,0,0,0,.84,0,6.18,6.18,0,0,0,0,.83v2.2a5,5,0,0,0,0,.75c-.22,0-.44,0-.76,0h-1.69V198Zm.68-1.48h1.78V194h-1.78Z"/><path class="cls-1" d="M153.18,191.72a9.7,9.7,0,0,0-1,0v-.62a7.89,7.89,0,0,0,1,.06h5.2a6.81,6.81,0,0,0,1-.06v.62a8.62,8.62,0,0,0-1,0H156v.61H159a7.49,7.49,0,0,0,1.1-.05,5.62,5.62,0,0,0,0,.76v.59a3.51,3.51,0,0,0,.06.75h-.65v-1.56H156V194a6,6,0,0,0,.05,1h-.72a5.87,5.87,0,0,0,.06-1v-1.2h-3.22v1.56h-.66a4.25,4.25,0,0,0,.07-.75V193a5.92,5.92,0,0,0,0-.76,7.1,7.1,0,0,0,1.08.05h2.77v-.61ZM153,198.3v.56h-.66a5.48,5.48,0,0,0,.05-.85v-1.85a7.74,7.74,0,0,0,0-.89,6.68,6.68,0,0,0,.86,0h5a7.25,7.25,0,0,0,.91,0,7.21,7.21,0,0,0,0,.89v1.46a6.83,6.83,0,0,0,0,.72,7.71,7.71,0,0,0-.9,0H156V199c0,.24.21.27,1.61.27,1.19,0,1.72-.05,1.89-.19s.17-.4.18-1.18a2.45,2.45,0,0,0,.62.28c0,.79-.13,1.18-.38,1.36s-.85.27-2.41.27c-1.86,0-2.12-.08-2.12-.66v-.83Zm-.33-5a4.82,4.82,0,0,0,.61,0h.93a4.51,4.51,0,0,0,.58,0v.48a3.22,3.22,0,0,0-.58,0h-.93a3.52,3.52,0,0,0-.61,0Zm0,1a3.24,3.24,0,0,0,.61,0h.93a3.15,3.15,0,0,0,.58,0v.49a3.15,3.15,0,0,0-.58,0h-.93a3.37,3.37,0,0,0-.61,0Zm.33,1.55v.71h2.33v-.71Zm0,1.19v.81h2.33V197Zm5.51-.48v-.71H156v.71Zm0,1.29V197H156v.81Zm-1.94-4.52a3.24,3.24,0,0,0,.61,0h1.09a3.09,3.09,0,0,0,.58,0v.49a3.15,3.15,0,0,0-.58,0h-1.09a3.37,3.37,0,0,0-.61,0Zm0,1a3.24,3.24,0,0,0,.61,0h1.09a3.15,3.15,0,0,0,.58,0v.49a3.15,3.15,0,0,0-.58,0h-1.09a3.37,3.37,0,0,0-.61,0Z"/><path class="cls-1" d="M162.38,192a5.81,5.81,0,0,0-.06-1H163a8.43,8.43,0,0,0,0,1v1h.27a3.65,3.65,0,0,0,.65,0v.63a4.31,4.31,0,0,0-.64,0H163a3.9,3.9,0,0,0,.74,1.21,3.4,3.4,0,0,0-.28.52,3.46,3.46,0,0,1-.54-1.07c0,.69,0,1.12,0,1.47v3.28a8.11,8.11,0,0,0,.05,1.16h-.7a8.4,8.4,0,0,0,.06-1.16v-2.73c0-.39,0-1.17.1-1.93a8.83,8.83,0,0,1-1.12,3.13,2.11,2.11,0,0,0-.36-.58,8.5,8.5,0,0,0,1.29-3.3h-.35a4.41,4.41,0,0,0-.69,0v-.63a4.1,4.1,0,0,0,.69,0h.44Zm2.92,4.57c0,.26,0,.28,0,.48a4,4,0,0,0,1.3,1.07,2.11,2.11,0,0,0-.33.48,4.46,4.46,0,0,1-1.09-1,4.12,4.12,0,0,1-1.37,2.26,1.52,1.52,0,0,0-.48-.43,3.42,3.42,0,0,0,1.44-2.91h-.11a5.92,5.92,0,0,0-.9,0v-.63a5.54,5.54,0,0,0,.9.05h2.28a11.44,11.44,0,0,1-.17-1.25,25.94,25.94,0,0,1-.15-3.13,3.93,3.93,0,0,0-.05-.63h.7a5.38,5.38,0,0,0,0,1,25.65,25.65,0,0,0,.28,4h1.77a5.26,5.26,0,0,0,1.06-.06v.65a6.31,6.31,0,0,0-1.06-.06h-1.67a4.72,4.72,0,0,0,.5,1.34,3.59,3.59,0,0,0,.93-1.12l.51.35a11.87,11.87,0,0,1-1.16,1.22c.43.61.84,1,1.1,1s.18-.08.27-.34a4.56,4.56,0,0,0,.18-1,2,2,0,0,0,.51.35c-.23,1.26-.43,1.63-.9,1.63s-1-.42-1.6-1.24a7.84,7.84,0,0,1-2.48,1.26,1.51,1.51,0,0,0-.4-.51,7,7,0,0,0,2.59-1.21,5.74,5.74,0,0,1-.61-1.69Zm.33-5.3a9.13,9.13,0,0,1-.94,1.54,4.91,4.91,0,0,1,.48.58,8.21,8.21,0,0,0,.6-1.1l.48.34a18.05,18.05,0,0,1-1.55,2.2c.49-.06.93-.12,1.25-.18a3.73,3.73,0,0,0-.33-.62l.4-.15a6.27,6.27,0,0,1,.65,1.43l-.45.19c-.05-.2-.07-.26-.12-.44-.42.09-.95.19-1.91.34l-.28.05-.12-.57h.29c.36-.44.54-.67.8-1.05a6.58,6.58,0,0,0-1.18-1.25l.36-.4.28.27a5.16,5.16,0,0,0,.76-1.44Zm1.83,3.33h.25c.34-.39.42-.49.74-.9a5.75,5.75,0,0,0-1.15-1.21l.33-.42.31.3a5.56,5.56,0,0,0,.73-1.32l.52.28a11.38,11.38,0,0,1-.91,1.38c.2.22.29.33.48.57a10.19,10.19,0,0,0,.77-1.2l.46.36c-.91,1.22-1.19,1.58-1.68,2.13a10.92,10.92,0,0,0,1.22-.14,3.37,3.37,0,0,0-.3-.56l.41-.16a8.56,8.56,0,0,1,.73,1.54l-.46.18c-.09-.3-.13-.41-.2-.59-.23.05-.89.14-2,.28l-.17,0Zm1.08.48a3.45,3.45,0,0,1,.76.61l-.36.34a3.63,3.63,0,0,0-.75-.66Z"/><path class="cls-1" d="M173.49,193.47a5.62,5.62,0,0,0,1,1.85,3,3,0,0,0-.35.53,5.7,5.7,0,0,1-.72-1.62c0,.74,0,.74,0,1.62v3a8.11,8.11,0,0,0,.06,1.16h-.74a6.92,6.92,0,0,0,.07-1.16V196c0-.51,0-.93.06-1.59a8,8,0,0,1-1.35,3,1.83,1.83,0,0,0-.35-.58,8.39,8.39,0,0,0,1.54-3.39h-.57a4.39,4.39,0,0,0-.7,0v-.63a4.08,4.08,0,0,0,.7,0h.66v-1a5.91,5.91,0,0,0-.05-1h.72a6.52,6.52,0,0,0-.05,1v1h.33a3.49,3.49,0,0,0,.62,0v.62a6,6,0,0,0-.62,0Zm2-.15a6.85,6.85,0,0,1-.65,1.26,2,2,0,0,0-.5-.37,6.24,6.24,0,0,0,1-2.25,2.85,2.85,0,0,0,.08-.57l.64.16a4.86,4.86,0,0,0-.16.54c-.06.23-.13.47-.2.67h1.19v-.95a5.07,5.07,0,0,0-.06-.89h.71a4.87,4.87,0,0,0-.06.88v1h1.46a5.65,5.65,0,0,0,1-.06v.67a7.87,7.87,0,0,0-1-.05h-1.46V195h1.79a6.7,6.7,0,0,0,1-.06v.67c-.31,0-.62-.05-1-.05h-1.58a7,7,0,0,0,1,1.39,7.54,7.54,0,0,0,1.81,1.5,2.5,2.5,0,0,0-.44.6,7.88,7.88,0,0,1-2.6-3.05c0,.2,0,.2,0,.53,0,.18,0,.43,0,.66V199a7.24,7.24,0,0,0,.06,1.05h-.71a7.69,7.69,0,0,0,.06-1.06v-1.77c0-.09,0-.49,0-1.2a7,7,0,0,1-1.43,2,6.32,6.32,0,0,1-1.21,1,2.57,2.57,0,0,0-.42-.53,7.18,7.18,0,0,0,2.78-3h-1.08a7.05,7.05,0,0,0-1,.06v-.68a7,7,0,0,0,1,.06h1.32v-1.65Z"/><path class="cls-1" d="M189.26,192.85a6.06,6.06,0,0,0,1-.06v.72a7.42,7.42,0,0,0-1-.06h-1.79a14.49,14.49,0,0,0,.21,2.1,9.71,9.71,0,0,0,.5,1.88,3.62,3.62,0,0,0,.83,1.42.66.66,0,0,0,.32.19c.22,0,.4-.54.56-1.64a1.73,1.73,0,0,0,.59.39,5,5,0,0,1-.49,1.56.75.75,0,0,1-.64.42c-.37,0-.81-.34-1.2-.91a8.88,8.88,0,0,1-1.13-3.29,18.64,18.64,0,0,1-.21-2.12h-4.18a8.17,8.17,0,0,0-1,.06v-.72a7.22,7.22,0,0,0,1,.06h4.16c0-.31,0-.31,0-1a4.58,4.58,0,0,0-.06-.78h.77a5.44,5.44,0,0,0-.06.93c0,.21,0,.41,0,.86Zm-6.42,2.7a5.69,5.69,0,0,0-.9,0v-.67a5.38,5.38,0,0,0,.91,0h2.59a5.32,5.32,0,0,0,.9,0v.67a5.55,5.55,0,0,0-.89,0h-1v2.7c.74-.15,1.17-.26,2.25-.55v.61c-1.48.39-2.82.68-4.47,1l-.46.1-.14-.71a11.24,11.24,0,0,0,2.18-.31v-2.82Zm6.26-2.94a6.44,6.44,0,0,0-1.26-1.12l.46-.34a8.25,8.25,0,0,1,1.27,1.08Z"/><path class="cls-1" d="M196.16,191a6.72,6.72,0,0,0,1.68,1.79,10.8,10.8,0,0,0,2.76,1.6,2.12,2.12,0,0,0-.39.64,13.74,13.74,0,0,1-2.78-1.74,8.3,8.3,0,0,1-1.6-1.71,8.65,8.65,0,0,1-1.5,1.64,11,11,0,0,1-2.7,1.76,1.69,1.69,0,0,0-.42-.57,10.32,10.32,0,0,0,2.65-1.63,7.35,7.35,0,0,0,1.59-1.78Zm-3.38,5.58a8.58,8.58,0,0,0-1.14.06v-.72a8.68,8.68,0,0,0,1.14.06h6.16a8.47,8.47,0,0,0,1.14-.06v.72a8.68,8.68,0,0,0-1.14-.06h-3.59a15,15,0,0,1-1.25,2.36c1.38-.09,2.42-.19,3.9-.37-.6-.65-.78-.83-1.22-1.24l.52-.32a21.63,21.63,0,0,1,2.42,2.64l-.55.41c-.39-.55-.52-.72-.73-1-1.78.24-3.29.4-4.85.52a11.47,11.47,0,0,0-1.68.18l-.12-.76.5,0,1.06-.06a15.08,15.08,0,0,0,1.27-2.41Zm.64-2.49a5.28,5.28,0,0,0,.79,0h3.23a6.06,6.06,0,0,0,.84,0v.67a6.16,6.16,0,0,0-.84,0H194.2a5.75,5.75,0,0,0-.78,0Z"/><path class="cls-1" d="M203.56,199a6.47,6.47,0,0,0,.06,1h-.74a6.81,6.81,0,0,0,.06-1v-3.11a10.79,10.79,0,0,1-1.37,1.18,1.88,1.88,0,0,0-.37-.56A8.82,8.82,0,0,0,203,195a6.78,6.78,0,0,0,1.24-1.86h-1.87a6.63,6.63,0,0,0-.79,0v-.66a6.29,6.29,0,0,0,.77,0h.59v-.93a5.74,5.74,0,0,0-.05-.77h.75a4.26,4.26,0,0,0-.06.78v.92h.58a3.64,3.64,0,0,0,.58,0l.31.35c-.07.11-.13.22-.24.43a8.62,8.62,0,0,1-1.1,1.7,6.06,6.06,0,0,0,1.61,1.36,2.4,2.4,0,0,0-.34.55,6.5,6.5,0,0,1-1.41-1.26Zm3.47-7.18a5.94,5.94,0,0,0-.07-.91h.79a4.71,4.71,0,0,0-.07.91V194H209a6.47,6.47,0,0,0,1-.06v.7c-.31,0-.63-.05-1-.05h-1.31v4.27h1.58a7,7,0,0,0,1.08-.06v.75a6.82,6.82,0,0,0-1.08-.07h-3.6a6.61,6.61,0,0,0-1.07.07v-.75a7,7,0,0,0,1.08.06H207v-4.27h-1c-.34,0-.67,0-1,.05v-.7a6.38,6.38,0,0,0,1,.06h1Z"/></g></g></svg>