<svg xmlns="http://www.w3.org/2000/svg" viewBox="0 0 576.17 498.88"><defs><style>.cls-1{fill:#fff;}</style></defs><g id="レイヤー_2" data-name="レイヤー 2"><g id="レイヤー_2-2" data-name="レイヤー 2"><path class="cls-1" d="M230,27a22.37,22.37,0,0,1-2.86-19.68A22.39,22.39,0,0,1,230,1.67l1.7,1.08A19.32,19.32,0,0,0,229,8.21a19.84,19.84,0,0,0-.91,6.1,20,20,0,0,0,.91,6.12,19.45,19.45,0,0,0,2.7,5.46Z"/><path class="cls-1" d="M244.13,9.83a7.47,7.47,0,0,1-.21,1.21,6.55,6.55,0,0,1,4.72-1.86A6.8,6.8,0,0,1,253.5,11a6.29,6.29,0,0,1,1.81,4.75c0,4.35-2.84,7.13-7.29,7.13a7.27,7.27,0,0,1-5.15-1.84,8.3,8.3,0,0,1-1.71-2.53l2.22-.65a4.11,4.11,0,0,0,.86,1.56,5,5,0,0,0,3.83,1.6,4.82,4.82,0,0,0,5.05-5.16c0-3-1.86-4.91-4.72-4.91a5.64,5.64,0,0,0-3.54,1.13,3.5,3.5,0,0,0-1.24,1.62l-2-.19a22.94,22.94,0,0,0,.4-2.78l.59-6.1c.06-.78.09-1.1.09-1.62a9.75,9.75,0,0,0-.06-1.16,18,18,0,0,0,2.86.14H251a17.88,17.88,0,0,0,3.16-.22v2.3A17.87,17.87,0,0,0,251,3.86H244.7Z"/><path class="cls-1" d="M263.06,21a6.83,6.83,0,0,1-1.62-2.48,18.77,18.77,0,0,1-1-6.24A15.82,15.82,0,0,1,262,4.94a7.23,7.23,0,0,1,11-1.4A6.91,6.91,0,0,1,274.59,6a18.68,18.68,0,0,1,1,6.26c0,3.27-.7,6.16-1.89,7.8A6.6,6.6,0,0,1,268,22.92,6.73,6.73,0,0,1,263.06,21Zm1.57-16.14a5.49,5.49,0,0,0-1.22,2,16.93,16.93,0,0,0-.83,5.45,15.1,15.1,0,0,0,1.26,6.43A4.61,4.61,0,0,0,268,21.05a4.52,4.52,0,0,0,3.32-1.26,5.55,5.55,0,0,0,1.27-2.11,16.93,16.93,0,0,0,.83-5.45,15.33,15.33,0,0,0-1.21-6.29A4.57,4.57,0,0,0,268,3.48,4.38,4.38,0,0,0,264.63,4.86Z"/><path class="cls-1" d="M293.16,1.83A11,11,0,0,0,293,0h2.05a11.12,11.12,0,0,0-.16,1.83v.84h6.78a19.22,19.22,0,0,0,2.94-.16V4.29c-.87-.08-1.62-.11-2.81-.11h-1.35a39.62,39.62,0,0,1-2.1,4.46h4.83a21.56,21.56,0,0,0,3.16-.16v1.83a21.87,21.87,0,0,0-3.16-.13H285.52a22,22,0,0,0-3.15.13V8.48a23.2,23.2,0,0,0,3.21.16h4.16a23.21,23.21,0,0,0-1.81-4.46h-1.41a26.17,26.17,0,0,0-2.64.11V2.51a16.82,16.82,0,0,0,2.78.16h6.5Zm7,10.5c.89,0,1.54,0,2.46-.1a18.47,18.47,0,0,0-.11,2.1v8a15.52,15.52,0,0,0,.17,2.37h-1.89V23.32h-13v1.35H286a17.55,17.55,0,0,0,.16-2.37v-8a19.47,19.47,0,0,0-.11-2.1c.89.08,1.54.1,2.43.1Zm-12.36,4.59h13V13.85h-13Zm0,4.89h13V18.44h-13Zm8.77-13.17a24.51,24.51,0,0,0,2-4.46h-8.83a33.94,33.94,0,0,1,1.78,4.46Z"/><path class="cls-1" d="M314.14.73A17.06,17.06,0,0,0,314,3.46v6.72c0,6.69-.59,10.5-2.11,13.6a5.84,5.84,0,0,0-1.43-1.24A12.37,12.37,0,0,0,312,18a61.65,61.65,0,0,0,.48-7.93V3.46a17.45,17.45,0,0,0-.16-2.73Zm3.51.81a16.26,16.26,0,0,0-.11,2.78V17.84a22.38,22.38,0,0,0,.11,2.7h-1.78a24,24,0,0,0,.14-2.73V4.32a21.88,21.88,0,0,0-.11-2.78Zm3.57-.78a19,19,0,0,0-.14,3.18V20.57a25.77,25.77,0,0,0,.11,3.21h-1.78a20.14,20.14,0,0,0,.13-3.21V3.94a20.47,20.47,0,0,0-.13-3.18Zm6.18,19.78a15.84,15.84,0,0,1-5.1,4.08,5,5,0,0,0-1.14-1.33,10.89,10.89,0,0,0,4.75-3.64ZM324.73,2.75a14,14,0,0,0-2.62.14V1.08a13.59,13.59,0,0,0,2.62.13h8.17a14.66,14.66,0,0,0,2.62-.16V2.92a12.71,12.71,0,0,0-2.62-.17h-3.32a21.68,21.68,0,0,1-1.05,2.86h3.38a18.45,18.45,0,0,0,2.48-.1A20.53,20.53,0,0,0,334.28,8v8.75a23.07,23.07,0,0,0,.11,2.56,21.44,21.44,0,0,0-2.35-.11H325.4a20.49,20.49,0,0,0-2.35.11,22.23,22.23,0,0,0,.11-2.48V8a22.25,22.25,0,0,0-.11-2.53,18.16,18.16,0,0,0,2.35.1h1.46a16.16,16.16,0,0,0,1-2.86Zm0,6.86h7.91V7h-7.91Zm0,3.94h7.91V11h-7.91Zm0,4.16h7.91V14.93h-7.91ZM331,19.62a13.88,13.88,0,0,0,5.16,3.49,6.68,6.68,0,0,0-1,1.48,18,18,0,0,1-5.53-4.1Z"/><path class="cls-1" d="M346.44,1.67a22.39,22.39,0,0,1,2.86,5.62,21.39,21.39,0,0,1,1.1,7,21.24,21.24,0,0,1-1.1,7A22,22,0,0,1,346.44,27l-1.7-1.08a19.45,19.45,0,0,0,2.7-5.46,19.93,19.93,0,0,0,.91-6.12,19.75,19.75,0,0,0-.91-6.1,19.32,19.32,0,0,0-2.7-5.46Z"/><path class="cls-1" d="M6.21,125.64a15.12,15.12,0,0,0,2.67,5,8,8,0,0,0-.94,1.43A15.22,15.22,0,0,1,6,127.7c.06,2,.06,2,.11,4.37v8.07a21.62,21.62,0,0,0,.16,3.13h-2a19.42,19.42,0,0,0,.18-3.13v-7.67c0-1.37,0-2.51.17-4.29A21.74,21.74,0,0,1,1,136.36a5.59,5.59,0,0,0-1-1.57,22.51,22.51,0,0,0,4.18-9.15H2.65a11.64,11.64,0,0,0-1.89.11v-1.7a10.94,10.94,0,0,0,1.89.11H4.43v-2.67a15.5,15.5,0,0,0-.14-2.78h2a17.13,17.13,0,0,0-.14,2.78v2.67H7a9.58,9.58,0,0,0,1.68-.11v1.67c-.52,0-1.09-.08-1.68-.08Zm5.4-.4a18.64,18.64,0,0,1-1.76,3.4,5,5,0,0,0-1.35-1,16.8,16.8,0,0,0,2.7-6.07,7.43,7.43,0,0,0,.22-1.54l1.73.43a12.48,12.48,0,0,0-.44,1.46c-.16.62-.35,1.27-.54,1.81h3.22v-2.57a13.4,13.4,0,0,0-.17-2.4h1.92a13,13,0,0,0-.16,2.37v2.6h3.94a14.89,14.89,0,0,0,2.62-.17v1.81a21.73,21.73,0,0,0-2.62-.13H17v4.45h4.83a17.83,17.83,0,0,0,2.62-.16v1.81c-.84-.08-1.67-.14-2.65-.14H17.52A19,19,0,0,0,20.19,135a20.43,20.43,0,0,0,4.89,4,7,7,0,0,0-1.19,1.62,21.22,21.22,0,0,1-7-8.23l.08,1.43c0,.49,0,1.16,0,1.78v4.89a19.19,19.19,0,0,0,.16,2.83H15.22a20.2,20.2,0,0,0,.17-2.86v-4.78c0-.24,0-1.32.1-3.23A18.73,18.73,0,0,1,11.63,138a16.8,16.8,0,0,1-3.26,2.7,6.63,6.63,0,0,0-1.14-1.43,19.44,19.44,0,0,0,7.51-8.05H11.82a18.67,18.67,0,0,0-2.7.17v-1.84a18.63,18.63,0,0,0,2.7.16h3.57v-4.45Z"/><path class="cls-1" d="M50.81,124a16.24,16.24,0,0,0,2.62-.16v1.94a19.85,19.85,0,0,0-2.78-.16H45.81a41,41,0,0,0,.57,5.67,27,27,0,0,0,1.35,5.07A9.73,9.73,0,0,0,50,140.17a1.77,1.77,0,0,0,.87.51c.59,0,1.08-1.46,1.51-4.43a4.54,4.54,0,0,0,1.59,1.05,13.63,13.63,0,0,1-1.32,4.22,2,2,0,0,1-1.73,1.13c-1,0-2.19-.92-3.24-2.46a23.93,23.93,0,0,1-3-8.88,51.24,51.24,0,0,1-.57-5.72H32.75a21.38,21.38,0,0,0-2.78.16v-1.94a19,19,0,0,0,2.78.16H44c0-.84,0-.84,0-2.73a12.06,12.06,0,0,0-.17-2.1h2.08a14.52,14.52,0,0,0-.16,2.51c0,.56,0,1.1,0,2.32Zm-17.33,7.29a16.4,16.4,0,0,0-2.43.13v-1.81a14.27,14.27,0,0,0,2.46.14h7a14.09,14.09,0,0,0,2.43-.14v1.81a16.19,16.19,0,0,0-2.41-.13H37.77v7.29c2-.41,3.16-.71,6.07-1.49v1.65c-4,1-7.61,1.83-12.09,2.64l-1.21.27-.41-1.91c1.27,0,1.95-.11,5.91-.84v-7.61Zm16.9-7.94a17.32,17.32,0,0,0-3.41-3l1.25-.92a22.09,22.09,0,0,1,3.42,2.92Z"/><path class="cls-1" d="M71.46,118.84A18.08,18.08,0,0,0,76,123.67,28.92,28.92,0,0,0,83.45,128a5.69,5.69,0,0,0-1,1.73,37.35,37.35,0,0,1-7.51-4.7,22.31,22.31,0,0,1-4.32-4.61,23.23,23.23,0,0,1-4,4.42,29.73,29.73,0,0,1-7.29,4.75A5.46,5.46,0,0,0,58.1,128a28.27,28.27,0,0,0,7.16-4.39,20.1,20.1,0,0,0,4.29-4.81ZM62.34,133.9a24.75,24.75,0,0,0-3.08.16v-1.94a22.94,22.94,0,0,0,3.08.16H79a22.64,22.64,0,0,0,3.08-.16v1.94A25.1,25.1,0,0,0,79,133.9H69.28a40.58,40.58,0,0,1-3.38,6.37c3.73-.24,6.54-.51,10.53-1-1.62-1.75-2.1-2.24-3.29-3.34l1.4-.87a58.25,58.25,0,0,1,6.53,7.13l-1.48,1.11c-1-1.49-1.4-2-2-2.65-4.81.65-8.88,1.08-13.09,1.4a32.08,32.08,0,0,0-4.56.49l-.33-2a13.54,13.54,0,0,0,1.38.08c.43,0,.43,0,2.86-.16a40.28,40.28,0,0,0,3.43-6.51Zm1.73-6.72a14.28,14.28,0,0,0,2.13.11h8.72a16.58,16.58,0,0,0,2.27-.11V129a16.78,16.78,0,0,0-2.27-.11H66.17a15.65,15.65,0,0,0-2.1.11Z"/><path class="cls-1" d="M93.47,140.57a18.49,18.49,0,0,0,.16,2.64h-2a18,18,0,0,0,.16-2.67v-8.39a27.22,27.22,0,0,1-3.73,3.18,5.12,5.12,0,0,0-1-1.51,23.46,23.46,0,0,0,4.85-4,18.18,18.18,0,0,0,3.35-5h-5a19,19,0,0,0-2.16.1v-1.78a18,18,0,0,0,2.11.11h1.59v-2.51a15.85,15.85,0,0,0-.13-2.08h2a11.4,11.4,0,0,0-.16,2.11v2.48h1.57a10.26,10.26,0,0,0,1.56-.08l.84.94c-.19.3-.35.6-.65,1.17a23.19,23.19,0,0,1-3,4.58,16.33,16.33,0,0,0,4.35,3.68,6.31,6.31,0,0,0-.92,1.48,17.79,17.79,0,0,1-3.81-3.4Zm9.37-19.38a15.48,15.48,0,0,0-.19-2.46h2.13a12.93,12.93,0,0,0-.19,2.46V127h3.54a17.35,17.35,0,0,0,2.65-.16v1.89c-.84-.08-1.71-.14-2.65-.14h-3.54v11.53h4.27a19.85,19.85,0,0,0,2.91-.16v2a18.91,18.91,0,0,0-2.91-.19H99.14a18.46,18.46,0,0,0-2.89.19v-2a20,20,0,0,0,2.92.16h3.67V128.61h-2.67c-.92,0-1.81.06-2.65.14v-1.89a17,17,0,0,0,2.65.16h2.67Z"/><path class="cls-1" d="M119.23,121.08a12,12,0,0,0-.19-2.4h2.08a11.85,11.85,0,0,0-.19,2.37v4.49h.35a8.58,8.58,0,0,0,2-.14v1.78a13.08,13.08,0,0,0-1.92-.11h-.38v13.18a20.82,20.82,0,0,0,.19,2.91H119a17.57,17.57,0,0,0,.19-2.94V127.07h-.7a18.19,18.19,0,0,0-2.24.11V125.4a11.68,11.68,0,0,0,2.24.14h.7Zm9.48,10.56a16.61,16.61,0,0,0,2.26-.11c-.05.51-.05.81-.08,1.51a52.92,52.92,0,0,1-.54,6.48c-.4,2.56-.81,2.94-3.21,2.94-.35,0-.86,0-1.3-.05a4.87,4.87,0,0,0-.35-1.7,10,10,0,0,0,2,.24c.67,0,.94-.19,1.08-.7a36.13,36.13,0,0,0,.67-7.13H126.9c-.52,4.35-1.65,7.1-4.05,9.77a6.3,6.3,0,0,0-1.16-1.4c2.13-2,3.16-4.32,3.67-8.37h-1.27a8.84,8.84,0,0,0-1.59.11V131.5a6.33,6.33,0,0,0,1.67.14h1.32c0-.6.06-1,.06-1.49a9.14,9.14,0,0,0-.08-1.29h1.78a12.81,12.81,0,0,0-.16,1.75c0,.38,0,.51-.06,1Zm8.12-10.4a14.5,14.5,0,0,0,2.13-.11,8.81,8.81,0,0,0-.1,1.14,17.87,17.87,0,0,1-.79,4.51,2,2,0,0,1-1.16,1,6,6,0,0,1-1.73.16c-.75,0-1.67,0-2.7-.13a6,6,0,0,0-.35-1.7,16.72,16.72,0,0,0,3.3.32c.73,0,1-.19,1.21-.73a12.84,12.84,0,0,0,.46-3h-5.94c-1.13,2.83-3,4.53-6.56,6.07a5.08,5.08,0,0,0-1-1.46c3.19-1.08,4.91-2.43,5.91-4.61h-2.72a16.35,16.35,0,0,0-2.62.13v-1.75a17.72,17.72,0,0,0,2.7.13H130a8.89,8.89,0,0,0,.3-2.21,2.37,2.37,0,0,0,0-.46l2,.11a13.56,13.56,0,0,0-.32,1.43c-.08.4-.13.65-.24,1.13Zm1.35,10.4a17.26,17.26,0,0,0,2.24-.11c0,.48,0,1-.08,1.62-.22,4.5-.54,7.12-1.05,8.23-.35.78-1.08,1.08-2.65,1.08a11.45,11.45,0,0,1-1.81-.08,5.1,5.1,0,0,0-.35-1.7,12.54,12.54,0,0,0,2.43.27c.7,0,1-.14,1.08-.6a31.57,31.57,0,0,0,.73-7.23H135.8a19.68,19.68,0,0,1-1.7,6.34,12,12,0,0,1-2.34,3.41,4.76,4.76,0,0,0-1.19-1.3c2-1.78,3.18-4.37,3.7-8.45h-.73a9.14,9.14,0,0,0-1.65.11V131.5a6.85,6.85,0,0,0,1.73.14h.78c.06-.81.08-1.19.08-1.68s0-.73,0-1.13h1.75A17.86,17.86,0,0,0,136,131c0,.25,0,.36-.05.63Z"/><path class="cls-1" d="M146.91,122.32a21.28,21.28,0,0,0-.11-2.43,21.37,21.37,0,0,0,2.56.11H166a20.43,20.43,0,0,0,2.48-.11,21.27,21.27,0,0,0-.11,2.46v18.3c0,1.62-.54,1.94-3.29,1.94-1,0-2.19-.05-3.51-.13a8.5,8.5,0,0,0-.4-1.75,27.67,27.67,0,0,0,4.15.32c1,0,1.27-.11,1.27-.59V121.57H148.69v18.65a16.27,16.27,0,0,0,.19,2.89h-2.14a22.26,22.26,0,0,0,.17-2.89Zm3.61,2a11,11,0,0,0,2.19.13h10a11,11,0,0,0,2.19-.13v1.81a11,11,0,0,0-2.13-.14H152.68a11.65,11.65,0,0,0-2.16.14Zm12.34,11.36a14.52,14.52,0,0,0,.08,1.57,14.61,14.61,0,0,0-1.67-.08h-7.18v2.37h-1.76a21.65,21.65,0,0,0,.11-2.48v-6.48c0-.57,0-1.16-.08-1.65a16.62,16.62,0,0,0,1.81.08H161a17.75,17.75,0,0,0,2-.08,12.5,12.5,0,0,0-.08,1.62Zm-8.77,0h7.1v-5.18h-7.1Z"/><path class="cls-1" d="M179.52,123.35a25.19,25.19,0,0,0-3.1.16v-2.05a23.16,23.16,0,0,0,3.13.16h14.36a23.77,23.77,0,0,0,3.13-.16v2.05a25.52,25.52,0,0,0-3.1-.16h-6.51v15.41h8.15a19.52,19.52,0,0,0,3.16-.19v2.11a19.52,19.52,0,0,0-3.16-.19H177.85a20.17,20.17,0,0,0-3.16.19v-2.11a19.69,19.69,0,0,0,3.19.19h7.61V123.35Z"/><path class="cls-1" d="M210.84,121a10.54,10.54,0,0,0-.16-1.91h2a10.77,10.77,0,0,0-.17,1.91v.92h6.19V121a11,11,0,0,0-.17-1.91h2a10.54,10.54,0,0,0-.16,1.91v.92h4.21a21.19,21.19,0,0,0,3-.16v1.83a24,24,0,0,0-3-.13h-4.21v.89a11.7,11.7,0,0,0,.11,1.78h-1.89a12.38,12.38,0,0,0,.11-1.81v-.86h-6.19v.86a11.6,11.6,0,0,0,.11,1.81h-1.89a12.41,12.41,0,0,0,.11-1.78v-.89h-4.05a23.79,23.79,0,0,0-3,.13v-1.83a21.19,21.19,0,0,0,3,.16h4.05Zm-4.1,13a19.77,19.77,0,0,0-2.78.17v-1.89a20.4,20.4,0,0,0,2.78.16h18.14a20.29,20.29,0,0,0,2.78-.16v1.89a19.08,19.08,0,0,0-2.78-.17H214.35a43.65,43.65,0,0,1-3.56,6.05c5.34-.27,7.83-.49,11-.92a37.41,37.41,0,0,0-3.29-3.15l1.4-.9a54.57,54.57,0,0,1,6.67,6.94L225,143.11a31.84,31.84,0,0,0-2-2.65c-3.86.57-9.18,1.08-14.58,1.38-2,.11-2.64.16-3.37.27l-.35-2c.56.05,1.13.08,1.7.08s.89,0,2.32-.08A32.3,32.3,0,0,0,212.3,134Zm17.79-4.77a18.67,18.67,0,0,0-2.7-.17H209.54a18.34,18.34,0,0,0-2.75.17v-1.89a19.5,19.5,0,0,0,2.75.16h12.29a18.22,18.22,0,0,0,2.7-.16Z"/><path class="cls-1" d="M238.6,140.57a17.12,17.12,0,0,0,.16,2.64h-2a18,18,0,0,0,.16-2.67v-8.39a27.72,27.72,0,0,1-3.72,3.18,5.16,5.16,0,0,0-1-1.51,23.52,23.52,0,0,0,4.86-4,18.63,18.63,0,0,0,3.35-5h-5a19,19,0,0,0-2.16.1v-1.78a17.88,17.88,0,0,0,2.1.11h1.6v-2.51a15.72,15.72,0,0,0-.14-2.08h2a11.3,11.3,0,0,0-.17,2.11v2.48h1.57a10.52,10.52,0,0,0,1.57-.08l.83.94c-.19.3-.35.6-.64,1.17a24.13,24.13,0,0,1-3,4.58,16.29,16.29,0,0,0,4.34,3.68,6.66,6.66,0,0,0-.92,1.48,17.72,17.72,0,0,1-3.8-3.4ZM248,121.19a16.68,16.68,0,0,0-.18-2.46h2.13a12.93,12.93,0,0,0-.19,2.46V127h3.53a17.27,17.27,0,0,0,2.65-.16v1.89c-.84-.08-1.7-.14-2.65-.14h-3.53v11.53H254a19.91,19.91,0,0,0,2.92-.16v2a19.05,19.05,0,0,0-2.92-.19h-9.71a18.37,18.37,0,0,0-2.89.19v-2a19.85,19.85,0,0,0,2.91.16H248V128.61h-2.67c-.92,0-1.81.06-2.64.14v-1.89a17,17,0,0,0,2.64.16H248Z"/><path class="cls-1" d="M329.21,122.05a9.78,9.78,0,0,0-.59-2.29l2.13-.35a13.51,13.51,0,0,0,.29,2.29l.54,3,6.1-.94a13.27,13.27,0,0,0,2.38-.54l.38,1.94c-.73.08-.73.08-2.4.35l-6.13,1,1,5.45,6.7-1.08a17.65,17.65,0,0,0,2.67-.62l.38,2a7.35,7.35,0,0,0-1.19.13,7,7,0,0,0-.84.14c-.29.05-.43.08-.62.1l-6.77,1.08,1.1,6a15.06,15.06,0,0,0,.6,2.56l-2.16.41a21.93,21.93,0,0,0-.33-2.59l-1.1-6-7.24,1.16a14.16,14.16,0,0,0-2.59.54l-.35-2a14,14,0,0,0,2.67-.24l7.18-1.16-1-5.46-5.56.87a21.56,21.56,0,0,0-2.7.59l-.38-2.05a20.37,20.37,0,0,0,2.81-.27l5.51-.86Z"/><path class="cls-1" d="M355.45,141.27a11.93,11.93,0,0,0-2.35.11v-1.89a13.79,13.79,0,0,0,2.35.16h10.37v-5.07h-9.5a11.63,11.63,0,0,0-2.32.11v-1.84a13.12,13.12,0,0,0,2.34.16h9.48v-4.69h-10.1a13,13,0,0,0-2.34.1v-1.86a13.12,13.12,0,0,0,2.34.16h10c.87,0,1.35,0,1.84,0,0,.7,0,1.13,0,2.08V141a8.55,8.55,0,0,0,.11,1.67h-1.86v-1.35Z"/><path class="cls-1" d="M378.67,129.69a18.78,18.78,0,0,0,3.35.16h15.69a21.24,21.24,0,0,0,3.26-.13v2.19a28.33,28.33,0,0,0-3.29-.11H382a27.32,27.32,0,0,0-3.35.11Z"/><path class="cls-1" d="M409.08,127a18.85,18.85,0,0,0,3.15.16h13.85a4.68,4.68,0,0,0,1.76-.18l1,1.16a7.21,7.21,0,0,0-.76,1.7c-2.29,6.29-6,9.74-13,12.09a5.75,5.75,0,0,0-1.16-1.86,18.63,18.63,0,0,0,8-4.1,16.74,16.74,0,0,0,4.37-7.08H412.21a24.23,24.23,0,0,0-3.13.14Zm2.32-6.26a12.44,12.44,0,0,0,2.83.19h9a12.44,12.44,0,0,0,2.83-.19v2.08a17.5,17.5,0,0,0-2.8-.14h-9.07a17.56,17.56,0,0,0-2.81.14Z"/><path class="cls-1" d="M448.06,119.73a5.21,5.21,0,0,0-.59,1.11c-.7,1.46-1,1.91-1.24,2.4.35-.08.35-.08,8.15-.21a2.67,2.67,0,0,0,1.4-.19l1.16,1.13c-.24.32-.24.35-.54,1.32a28.36,28.36,0,0,1-5.4,10.15,26.31,26.31,0,0,1-9.39,6.75,4.08,4.08,0,0,0-1.35-1.59,23,23,0,0,0,9.53-6.83,24.72,24.72,0,0,0,4.64-9l-9.09.16a26.16,26.16,0,0,1-6.46,7,3.9,3.9,0,0,0-1.51-1.41,20,20,0,0,0,6.78-7.39,12.61,12.61,0,0,0,1.7-3.94Z"/><path class="cls-1" d="M470.61,125.64a15.12,15.12,0,0,0,2.67,5,8,8,0,0,0-.94,1.43,15.22,15.22,0,0,1-1.95-4.37c.06,2,.06,2,.11,4.37v8.07a21.62,21.62,0,0,0,.16,3.13h-2a19.42,19.42,0,0,0,.18-3.13v-7.67c0-1.37,0-2.51.17-4.29a21.74,21.74,0,0,1-3.65,8.18,5.59,5.59,0,0,0-1-1.57,22.51,22.51,0,0,0,4.18-9.15H467a11.66,11.66,0,0,0-1.88.11v-1.7a11,11,0,0,0,1.88.11h1.79v-2.67a15.5,15.5,0,0,0-.14-2.78h1.94a18.73,18.73,0,0,0-.13,2.78v2.67h.89a9.38,9.38,0,0,0,1.67-.11v1.67c-.51,0-1.08-.08-1.67-.08Zm5.4-.4a18.64,18.64,0,0,1-1.76,3.4,5,5,0,0,0-1.35-1,16.64,16.64,0,0,0,2.7-6.07,7.43,7.43,0,0,0,.22-1.54l1.72.43c-.1.24-.13.41-.43,1.46-.16.62-.35,1.27-.54,1.81h3.22v-2.57a13.4,13.4,0,0,0-.17-2.4h1.92a13,13,0,0,0-.16,2.37v2.6h3.94a14.89,14.89,0,0,0,2.62-.17v1.81a21.73,21.73,0,0,0-2.62-.13h-3.94v4.45h4.83a17.83,17.83,0,0,0,2.62-.16v1.81c-.84-.08-1.68-.14-2.65-.14h-4.26a19,19,0,0,0,2.67,3.76,20.43,20.43,0,0,0,4.89,4,7,7,0,0,0-1.19,1.62,21.22,21.22,0,0,1-7-8.23l.08,1.43c0,.49,0,1.16,0,1.78v4.89a19.19,19.19,0,0,0,.16,2.83h-1.92a20.2,20.2,0,0,0,.17-2.86v-4.78c0-.24,0-1.32.1-3.23A18.73,18.73,0,0,1,476,138a16.8,16.8,0,0,1-3.26,2.7,6.63,6.63,0,0,0-1.14-1.43,19.37,19.37,0,0,0,7.51-8.05h-2.92a18.67,18.67,0,0,0-2.7.17v-1.84a18.63,18.63,0,0,0,2.7.16h3.57v-4.45Z"/><path class="cls-1" d="M515.21,124a16.24,16.24,0,0,0,2.62-.16v1.94a19.85,19.85,0,0,0-2.78-.16h-4.84a41,41,0,0,0,.57,5.67,27,27,0,0,0,1.35,5.07,9.73,9.73,0,0,0,2.24,3.84,1.77,1.77,0,0,0,.87.51c.59,0,1.07-1.46,1.51-4.43a4.54,4.54,0,0,0,1.59,1.05,13.63,13.63,0,0,1-1.32,4.22,2,2,0,0,1-1.73,1.13c-1,0-2.19-.92-3.24-2.46a23.93,23.93,0,0,1-3-8.88,51.24,51.24,0,0,1-.57-5.72H497.15a21.38,21.38,0,0,0-2.78.16v-1.94a18.9,18.9,0,0,0,2.78.16h11.23c0-.84,0-.84-.05-2.73a12.06,12.06,0,0,0-.17-2.1h2.08a14.52,14.52,0,0,0-.16,2.51c0,.56,0,1.1.05,2.32Zm-17.33,7.29a16.4,16.4,0,0,0-2.43.13v-1.81a14.27,14.27,0,0,0,2.46.14h7a14.09,14.09,0,0,0,2.43-.14v1.81a16.19,16.19,0,0,0-2.41-.13h-2.75v7.29c2-.41,3.16-.71,6.07-1.49v1.65c-4,1-7.61,1.83-12.09,2.64l-1.21.27-.41-1.91c1.27,0,1.94-.11,5.91-.84v-7.61Zm16.9-7.94a17.55,17.55,0,0,0-3.4-3l1.24-.92A22.09,22.09,0,0,1,516,122.3Z"/><path class="cls-1" d="M535.87,118.84a17.87,17.87,0,0,0,4.53,4.83,28.92,28.92,0,0,0,7.45,4.32,5.69,5.69,0,0,0-1.05,1.73,37.35,37.35,0,0,1-7.51-4.7,22.58,22.58,0,0,1-4.32-4.61,23.23,23.23,0,0,1-4,4.42,29.73,29.73,0,0,1-7.29,4.75A5.46,5.46,0,0,0,522.5,128a28.09,28.09,0,0,0,7.16-4.39,20.1,20.1,0,0,0,4.29-4.81Zm-9.13,15.06a24.45,24.45,0,0,0-3.07.16v-1.94a22.67,22.67,0,0,0,3.07.16h16.63a22.64,22.64,0,0,0,3.08-.16v1.94a25.1,25.1,0,0,0-3.08-.16h-9.69a39.75,39.75,0,0,1-3.38,6.37c3.73-.24,6.54-.51,10.53-1-1.62-1.75-2.1-2.24-3.29-3.34l1.4-.87a58.25,58.25,0,0,1,6.53,7.13L544,143.3c-1-1.49-1.4-2-2-2.65-4.81.65-8.88,1.08-13.09,1.4a32.08,32.08,0,0,0-4.56.49l-.33-2a13.54,13.54,0,0,0,1.38.08c.43,0,.43,0,2.86-.16a40.28,40.28,0,0,0,3.43-6.51Zm1.73-6.72a14.28,14.28,0,0,0,2.13.11h8.72a16.58,16.58,0,0,0,2.27-.11V129a16.78,16.78,0,0,0-2.27-.11h-8.74a15.72,15.72,0,0,0-2.11.11Z"/><path class="cls-1" d="M557.87,140.57a16.94,16.94,0,0,0,.17,2.64h-2a19.48,19.48,0,0,0,.16-2.67v-8.39a27.22,27.22,0,0,1-3.73,3.18,5,5,0,0,0-1-1.51,23,23,0,0,0,4.86-4,18.18,18.18,0,0,0,3.35-5h-5a19,19,0,0,0-2.16.1v-1.78a18,18,0,0,0,2.11.11h1.59v-2.51a15.85,15.85,0,0,0-.13-2.08h2a11.4,11.4,0,0,0-.16,2.11v2.48h1.56a10.33,10.33,0,0,0,1.57-.08l.84.94c-.19.3-.35.6-.65,1.17a23.19,23.19,0,0,1-3,4.58,16.33,16.33,0,0,0,4.35,3.68,6.31,6.31,0,0,0-.92,1.48,17.79,17.79,0,0,1-3.81-3.4Zm9.37-19.38a15.48,15.48,0,0,0-.19-2.46h2.13a12.93,12.93,0,0,0-.19,2.46V127h3.54a17.12,17.12,0,0,0,2.64-.16v1.89c-.83-.08-1.7-.14-2.64-.14H569v11.53h4.27a19.85,19.85,0,0,0,2.91-.16v2a18.91,18.91,0,0,0-2.91-.19h-9.72a18.46,18.46,0,0,0-2.89.19v-2a19.91,19.91,0,0,0,2.92.16h3.67V128.61h-2.67c-.92,0-1.81.06-2.65.14v-1.89a17,17,0,0,0,2.65.16h2.67Z"/><path class="cls-1" d="M6.21,362.62a15.12,15.12,0,0,0,2.67,5,8,8,0,0,0-.94,1.43A15.22,15.22,0,0,1,6,364.68c.06,2,.06,2,.11,4.37v8.07a21.62,21.62,0,0,0,.16,3.13h-2a18.13,18.13,0,0,0,.19-3.13v-7.67c0-1.37,0-2.51.17-4.29A21.67,21.67,0,0,1,1,373.34a5.39,5.39,0,0,0-1-1.56,22.55,22.55,0,0,0,4.18-9.16H2.64a11.58,11.58,0,0,0-1.88.11V361a10.88,10.88,0,0,0,1.88.11H4.43v-2.67a15.57,15.57,0,0,0-.14-2.78H6.23a18.73,18.73,0,0,0-.13,2.78v2.67H7A9.38,9.38,0,0,0,8.66,361v1.68A14.51,14.51,0,0,0,7,362.62Zm5.4-.4a18.32,18.32,0,0,1-1.76,3.4,5.2,5.2,0,0,0-1.35-1,16.8,16.8,0,0,0,2.7-6.07,7.43,7.43,0,0,0,.22-1.54l1.72.43c-.1.25-.13.41-.43,1.46-.16.62-.35,1.27-.54,1.81h3.22v-2.57a13.4,13.4,0,0,0-.17-2.4h1.92a13,13,0,0,0-.16,2.38v2.59h3.94a16.21,16.21,0,0,0,2.62-.16v1.8a21.73,21.73,0,0,0-2.62-.13H17v4.45h4.83a17.83,17.83,0,0,0,2.62-.16v1.81c-.84-.08-1.68-.13-2.65-.13H17.52a19.17,19.17,0,0,0,2.67,3.75A20.51,20.51,0,0,0,25.08,376a6.56,6.56,0,0,0-1.19,1.62,21.31,21.31,0,0,1-7-8.24L17,370.8c0,.49,0,1.16,0,1.78v4.89a19.19,19.19,0,0,0,.16,2.83H15.22a20.1,20.1,0,0,0,.17-2.86v-4.77c0-.25,0-1.33.1-3.24A18.6,18.6,0,0,1,11.63,375a16.8,16.8,0,0,1-3.26,2.7,6.63,6.63,0,0,0-1.14-1.43,19.47,19.47,0,0,0,7.51-8H11.82a18.82,18.82,0,0,0-2.7.16v-1.84a18.63,18.63,0,0,0,2.7.16h3.57v-4.45Z"/><path class="cls-1" d="M50.81,361a16.24,16.24,0,0,0,2.62-.16v1.94a19.85,19.85,0,0,0-2.78-.16H45.81a40.78,40.78,0,0,0,.57,5.67,26.57,26.57,0,0,0,1.35,5.07A9.73,9.73,0,0,0,50,377.15a1.79,1.79,0,0,0,.86.51c.6,0,1.08-1.46,1.52-4.43a4.72,4.72,0,0,0,1.59,1.06,13.64,13.64,0,0,1-1.32,4.21,2,2,0,0,1-1.73,1.13c-1,0-2.19-.92-3.24-2.46a23.93,23.93,0,0,1-3-8.88,51.24,51.24,0,0,1-.57-5.72H32.75a21.38,21.38,0,0,0-2.78.16v-1.94a18.9,18.9,0,0,0,2.78.16H44c0-.84,0-.84-.06-2.73a11.21,11.21,0,0,0-.16-2.1h2.08a14.52,14.52,0,0,0-.16,2.51c0,.57,0,1.11,0,2.32Zm-17.33,7.29a16.4,16.4,0,0,0-2.43.13v-1.8a15.53,15.53,0,0,0,2.46.13h7a15.42,15.42,0,0,0,2.43-.13v1.8a16.19,16.19,0,0,0-2.41-.13H37.77v7.29c2-.41,3.16-.7,6.07-1.49v1.65c-4,1.05-7.61,1.84-12.09,2.64l-1.21.27-.41-1.91c1.27,0,1.94-.11,5.91-.84v-7.61Zm16.9-7.94a17.32,17.32,0,0,0-3.41-3l1.25-.92a22.65,22.65,0,0,1,3.42,2.92Z"/><path class="cls-1" d="M71.46,355.82A17.93,17.93,0,0,0,76,360.65,28.92,28.92,0,0,0,83.45,365a5.69,5.69,0,0,0-1,1.73,36.91,36.91,0,0,1-7.51-4.7,22.31,22.31,0,0,1-4.32-4.61,23.23,23.23,0,0,1-4,4.42,29.77,29.77,0,0,1-7.29,4.76A5.19,5.19,0,0,0,58.1,365a28.58,28.58,0,0,0,7.16-4.4,19.91,19.91,0,0,0,4.29-4.81Zm-9.12,15.06a22.68,22.68,0,0,0-3.08.17V369.1a22.94,22.94,0,0,0,3.08.16H79a22.64,22.64,0,0,0,3.08-.16v1.95a23,23,0,0,0-3.08-.17H69.28a40.58,40.58,0,0,1-3.38,6.37c3.73-.24,6.54-.51,10.53-1-1.62-1.76-2.1-2.24-3.29-3.35l1.4-.87a58.25,58.25,0,0,1,6.53,7.13l-1.48,1.11c-1-1.49-1.4-1.95-2-2.65-4.81.65-8.88,1.08-13.09,1.41a33.14,33.14,0,0,0-4.56.48l-.33-2a11.17,11.17,0,0,0,1.38.08c.43,0,.43,0,2.86-.16a40.28,40.28,0,0,0,3.43-6.51Zm1.73-6.72a14.28,14.28,0,0,0,2.13.11h8.72a16.58,16.58,0,0,0,2.27-.11V366a16.78,16.78,0,0,0-2.27-.11H66.17a15.65,15.65,0,0,0-2.1.11Z"/><path class="cls-1" d="M93.47,377.55a18.65,18.65,0,0,0,.16,2.65h-2a19.7,19.7,0,0,0,.16-2.67v-8.4a27.22,27.22,0,0,1-3.73,3.18,5,5,0,0,0-1-1.51,23,23,0,0,0,4.86-4,18.18,18.18,0,0,0,3.35-5h-5a16.88,16.88,0,0,0-2.16.11v-1.79a16.1,16.1,0,0,0,2.11.11h1.59v-2.51a15.85,15.85,0,0,0-.13-2.08h2a11.4,11.4,0,0,0-.16,2.11v2.48h1.56a9.13,9.13,0,0,0,1.57-.08l.84.95c-.19.29-.35.59-.65,1.16a23.55,23.55,0,0,1-3,4.59,16.48,16.48,0,0,0,4.35,3.67,6.31,6.31,0,0,0-.92,1.48,17.79,17.79,0,0,1-3.81-3.4Zm9.37-19.38a15.48,15.48,0,0,0-.19-2.46h2.13a12.93,12.93,0,0,0-.19,2.46V364h3.54a17.12,17.12,0,0,0,2.64-.16v1.89c-.83-.08-1.7-.14-2.64-.14h-3.54v11.53h4.27a18.52,18.52,0,0,0,2.91-.16v2a18.91,18.91,0,0,0-2.91-.19H99.14a18.46,18.46,0,0,0-2.89.19v-2a18.58,18.58,0,0,0,2.92.16h3.67V365.59h-2.67c-.92,0-1.81.06-2.65.14v-1.89a17,17,0,0,0,2.65.16h2.67Z"/><path class="cls-1" d="M118.18,367.43a.74.74,0,0,1,.27,0c1.08-1.45,1.08-1.45,1.86-2.56a23.48,23.48,0,0,0-3.81-4.32l1-1.24c.62.65.73.75,1.24,1.27a18.89,18.89,0,0,0,2.4-5l1.68.81a12.36,12.36,0,0,0-.87,1.53,31.74,31.74,0,0,1-2.24,3.73c.73.84.84,1,1.54,1.89a22.34,22.34,0,0,0,2.67-4.83l1.62.89a11.26,11.26,0,0,0-.86,1.29,66,66,0,0,1-4.45,6.51,38.77,38.77,0,0,0,4.23-.33,17,17,0,0,0-1.24-2.34l1.14-.57a24.59,24.59,0,0,1,2.34,4.91l-1.32.6c-.19-.62-.27-.87-.4-1.27l-2.57.27v9a19.91,19.91,0,0,0,.16,2.67h-1.89a18.92,18.92,0,0,0,.17-2.67v-8.8l-2,.13a18.79,18.79,0,0,0-2.14.19l-.24-1.78a7.44,7.44,0,0,0,1.27.11Zm1.27,3.16a26.92,26.92,0,0,1-1.57,7.93l-1.43-.67a21.51,21.51,0,0,0,1.49-7.53Zm5.21-.57a33.41,33.41,0,0,1,1.08,4.94l-1.41.51a23.39,23.39,0,0,0-1-5.07Zm6.8-13.44a9.7,9.7,0,0,0-.49.89,23.13,23.13,0,0,1-2.05,3.24,14.19,14.19,0,0,1-2.72,2.56,4.24,4.24,0,0,0-1.25-1.21,11.49,11.49,0,0,0,3.62-3.59,9,9,0,0,0,1.24-2.57Zm-6.29,21.19a16,16,0,0,0,1.89-6.64l1.51.32a22.31,22.31,0,0,1-1.92,7.1Zm13.23-8.91c-.68-1.24-.9-1.62-1.35-2.35-3.35.46-4.16.57-8.86,1a7.57,7.57,0,0,0-1.54.22l-.32-1.75c.35,0,.54,0,.81,0s.46,0,1.4-.05a26,26,0,0,0,3.22-6.56l1.7.67c-1.38,2.73-2.3,4.43-3.16,5.78,2.48-.19,3.75-.32,5.91-.59a25.5,25.5,0,0,0-1.94-2.54l1.29-.73a48.44,48.44,0,0,1,4.29,6Zm-6.94,2.21a15.6,15.6,0,0,0-.14,2.08v4.27c0,.32.06.43.19.51a3.83,3.83,0,0,0,1.49.22c1.4,0,2.08-.14,2.29-.46s.35-1.08.43-3.08a3.52,3.52,0,0,0,1.52.57c-.38,4.18-.6,4.42-4.38,4.42-2.51,0-3.1-.32-3.1-1.7v-4.64a15,15,0,0,0-.16-2.19Zm-.27-3.24a20.75,20.75,0,0,1,4,3.24l-1.16,1.22a15.44,15.44,0,0,0-4-3.43Zm4.32-12.06a14,14,0,0,0,5.61,5.83,5.41,5.41,0,0,0-1.05,1.43,18.6,18.6,0,0,1-5.45-5.51c-.33-.51-.41-.62-.62-.91ZM138,370.7a31.24,31.24,0,0,1,2.91,6.42l-1.56.81a24.89,24.89,0,0,0-2.76-6.64Z"/><path class="cls-1" d="M158.54,355.77a18.67,18.67,0,0,0,4.45,4.88,28.61,28.61,0,0,0,7.4,4.43,6.9,6.9,0,0,0-1.08,1.7,37.11,37.11,0,0,1-7.61-5,22.76,22.76,0,0,1-4.16-4.53,24.93,24.93,0,0,1-5.67,5.91,30.41,30.41,0,0,1-5.72,3.51,4.74,4.74,0,0,0-1.13-1.54,27.86,27.86,0,0,0,7.34-4.7,19.58,19.58,0,0,0,4.16-4.69Zm-9.42,24.13a19.35,19.35,0,0,0,.16-2.65v-6a18.12,18.12,0,0,0-.13-2.48,14.53,14.53,0,0,0,2.1.1h12.66a14.77,14.77,0,0,0,2.11-.1,16,16,0,0,0-.14,2.48v6a20,20,0,0,0,.16,2.65H164.1v-1.57h-13v1.57Zm1.94-3.16h13v-6.18h-13Zm.19-12.77a13.93,13.93,0,0,0,2.13.11h8.37A16.3,16.3,0,0,0,164,364v1.84a16.68,16.68,0,0,0-2.27-.11h-8.39a15.72,15.72,0,0,0-2.11.11Z"/><path class="cls-1" d="M183.68,377.25a23.69,23.69,0,0,1-8.05,2.89,5.21,5.21,0,0,0-1-1.48,26.71,26.71,0,0,0,3.87-.78,14.93,14.93,0,0,0,3.83-1.62Zm-1.49-14.33c-2.05.92-3.1,1.35-5.4,2.21a8.32,8.32,0,0,0-1.21.52l-.67-1.76a28.88,28.88,0,0,0,6.85-2.37Zm-2-2.67a16.88,16.88,0,0,0-4.4-2.7l1.06-1.24a25.83,25.83,0,0,1,4.4,2.59Zm12.12,5.51a23.41,23.41,0,0,0,2.81-.11c-.05.81-.08,1.64-.08,2.94v4.72a21.36,21.36,0,0,0,.11,2.78c-.73-.08-1.73-.1-3-.1h-11c-1.32,0-2.26,0-3,.1a20.87,20.87,0,0,0,.11-2.72v-4.83c0-1.25,0-2.11-.08-2.87.73.06,1.51.09,2.8.09Zm-12.49,3h13.57v-1.64H179.85Zm0,3h13.57V370H179.85Zm0,3h13.57V373H179.85Zm5.2-15.49a15,15,0,0,1-2.53,2.37,3.61,3.61,0,0,0-1.19-1.05,10.72,10.72,0,0,0,4.24-5l1.64.51a8.91,8.91,0,0,0-.54.9s-.24.35-.64,1h9.2a8,8,0,0,0,1.81-.13l1.05.86-.32.41a3.15,3.15,0,0,0-.38.48,11.13,11.13,0,0,1-2.48,2.46,7.25,7.25,0,0,0-1.51-.67,7.29,7.29,0,0,0,2.4-2.08h-5.56a6.51,6.51,0,0,0,3.07,3.59,14.7,14.7,0,0,0,5.81,1.78,5.16,5.16,0,0,0-.89,1.54,17.92,17.92,0,0,1-5.27-1.84,9.15,9.15,0,0,1-3.53-3.48,6.88,6.88,0,0,1-3,3.16,14.4,14.4,0,0,1-4.29,1.4,5,5,0,0,0-.92-1.38c4.21-.43,6.53-2,7.24-4.77Zm5.67,17.08a20.22,20.22,0,0,0,8,2.32,7.08,7.08,0,0,0-1,1.54,22.82,22.82,0,0,1-8.28-2.89Z"/><path class="cls-1" d="M207.76,358.41a16,16,0,0,0-.13-2.8h1.89a17.76,17.76,0,0,0-.14,2.78V361h1.22a10.29,10.29,0,0,0,1.73-.11v1.65c-.52-.05-1.08-.08-1.71-.08h-1.18a14.56,14.56,0,0,0,1.16,2.27,16.69,16.69,0,0,0,2.05,2.89,8.16,8.16,0,0,0-1.05,1.24,19.41,19.41,0,0,1-2.32-4.29c.05,1.53.1,3.13.1,4.34v8.18a23.4,23.4,0,0,0,.16,3.13H207.6a22.38,22.38,0,0,0,.16-3.13v-7.61c0-.95,0-2,.17-4.21a26.87,26.87,0,0,1-1.6,5,14.37,14.37,0,0,1-1.67,3.13,5.34,5.34,0,0,0-1.13-1.41,25.66,25.66,0,0,0,4-9.55h-1.46a13,13,0,0,0-1.94.11v-1.68a12,12,0,0,0,2,.11h1.64Zm14.5-.27a13.36,13.36,0,0,0,2.54-.13l1,1.08a9.76,9.76,0,0,0-.65,1.05,21.88,21.88,0,0,1-4,5.37,25.19,25.19,0,0,0,7.75,4.05,6.12,6.12,0,0,0-1,1.65c-1.08-.46-1.46-.62-2-.87a15.67,15.67,0,0,0-.08,2.27v4.89a15.7,15.7,0,0,0,.14,2.72h-1.79v-1.56h-8.39v1.56H214a16.16,16.16,0,0,0,.13-2.69v-4.92a18.55,18.55,0,0,0-.08-2.18l-1.89.89a4.82,4.82,0,0,0-1.1-1.38,26.08,26.08,0,0,0,7.74-4.4,21.2,21.2,0,0,1-3.18-3.81A21.29,21.29,0,0,1,213,365a3.71,3.71,0,0,0-1.22-1.14,18,18,0,0,0,5.16-8.34l1.78.43a8.16,8.16,0,0,0-.43,1c-.17.38-.25.54-.54,1.16Zm1.43,12.2c1.11,0,1.56,0,2.1,0a26.28,26.28,0,0,1-5.8-3.7,25.49,25.49,0,0,1-5.7,3.7c.68,0,.79,0,2,0Zm-7.91,6.83h8.39V371.8h-8.39Zm1.13-17.54c-.19.35-.24.43-.43.75a19.31,19.31,0,0,0,3.48,4.13,16.64,16.64,0,0,0,3.62-4.88Z"/><path class="cls-1" d="M301.59,357.42a11.67,11.67,0,0,0-.17-1.95h2.08a11,11,0,0,0-.16,1.95v.21h8a26.51,26.51,0,0,0,2.7-.11,11.75,11.75,0,0,0-.1,1.81v1.3a12.11,12.11,0,0,0,.1,1.83h-1.72v-3.37h-19v3.37h-1.75a12.65,12.65,0,0,0,.11-1.86v-1.27a12,12,0,0,0-.11-1.81,26.67,26.67,0,0,0,2.72.11h7.35Zm-8.83,15.41a19.76,19.76,0,0,0-.11-2.62c.6.05,1.14.08,2.57.08h15c1.43,0,2,0,2.57-.08a18.65,18.65,0,0,0-.11,2.62v4.61a17.48,17.48,0,0,0,.16,2.78h-1.81V379H294.41v1.24H292.6a18.18,18.18,0,0,0,.16-2.78Zm1.65,1.05h7.26v-2.21h-7.26Zm0,3.73h7.26v-2.35h-7.26Zm.08-17a12.25,12.25,0,0,0,2.21.14h12.15a12,12,0,0,0,2.18-.14v1.65a12.75,12.75,0,0,0-2.18-.13H296.7a12.92,12.92,0,0,0-2.21.13Zm15.92,6.24a12.4,12.4,0,0,0,.11,1.83,20.44,20.44,0,0,0-2.29-.1h-11a20,20,0,0,0-2.27.1,13,13,0,0,0,.11-1.83v-1.32a13.89,13.89,0,0,0-.11-1.84,18.71,18.71,0,0,0,2.27.11h11a18.93,18.93,0,0,0,2.27-.11,12.82,12.82,0,0,0-.11,1.84Zm-13.68-1.76v2.19h12v-2.19Zm6.53,8.75h7.8v-2.21h-7.8Zm0,3.73h7.8v-2.35h-7.8Z"/><path class="cls-1" d="M330.56,358.71a19.1,19.1,0,0,0-.19-2.81h2.27a18.07,18.07,0,0,0-.19,2.81v5.56h8a21.07,21.07,0,0,0,3.05-.19v2.08a22.18,22.18,0,0,0-3-.19h-8v10.77H339a16.08,16.08,0,0,0,2.88-.16v2a20.46,20.46,0,0,0-2.88-.16h-14.5a20.34,20.34,0,0,0-2.91.16v-2a18.08,18.08,0,0,0,2.88.16h6.08V366H323.3a25.79,25.79,0,0,0-3.24.19v-2.08a23.26,23.26,0,0,0,3.24.19h7.26Z"/><path class="cls-1" d="M370.54,360.17c-.19.29-.19.29-.57,1.67-1.43,5.18-3.48,8.72-6.77,11.72a24.8,24.8,0,0,1-8.48,5.07,5.06,5.06,0,0,0-1.32-1.89,20.18,20.18,0,0,0,6.1-2.86c4.43-2.94,7-6.8,8.5-12.85H354.27a19.46,19.46,0,0,0-3,.16V359a16.43,16.43,0,0,0,3.05.19h13.28a3.61,3.61,0,0,0,1.73-.22Z"/><path class="cls-1" d="M399.32,358a6,6,0,0,0-1.18,1.13,48.25,48.25,0,0,1-6.32,5.43v11.49A17.65,17.65,0,0,0,392,379h-2.35a14.62,14.62,0,0,0,.16-2.81V365.89a42.43,42.43,0,0,1-10.42,4.73,6.15,6.15,0,0,0-1.05-1.81,38.17,38.17,0,0,0,14-7,22.39,22.39,0,0,0,5.15-5.1Z"/><path class="cls-1" d="M414.85,357.71a13,13,0,0,0-.16,2.32c-.22,7.32-.43,9.32-1.46,12a16.41,16.41,0,0,1-4.67,6.67,5,5,0,0,0-1.62-1.46,13.3,13.3,0,0,0,4.57-6.21c.83-2.35,1.21-5.88,1.21-11.58a12,12,0,0,0-.11-1.91Zm6.7-.29a10,10,0,0,0-.17,2.37l-.16,16.3a12.38,12.38,0,0,0,5-3.13,13.33,13.33,0,0,0,3.19-5.4,7.49,7.49,0,0,0,1.51,1.57,15.34,15.34,0,0,1-5.43,6.94,17.41,17.41,0,0,1-3.86,2c-.48.19-.48.19-.86.32a4.52,4.52,0,0,0-.62.3l-1.08-1.24a4.61,4.61,0,0,0,.19-1.84l.16-15.79a10.64,10.64,0,0,0-.11-2.4Z"/><path class="cls-1" d="M448.09,357.25a11,11,0,0,0-.73,1.95A148.77,148.77,0,0,1,441.75,375c3.58-.25,9.93-1.08,13.11-1.7a52,52,0,0,0-4.15-7l1.67-.92a69.59,69.59,0,0,1,6.72,12.2l-1.89,1a36.57,36.57,0,0,0-1.59-3.64A167.11,167.11,0,0,1,439,377.2a18.26,18.26,0,0,0-2.3.3l-.26-2.24.75,0c.19,0,1.67-.08,2.29-.13a101,101,0,0,0,4.08-10.69,51.09,51.09,0,0,0,2.13-7.77Z"/><path class="cls-1" d="M470.61,362.62a15.12,15.12,0,0,0,2.67,5,8,8,0,0,0-.94,1.43,15.22,15.22,0,0,1-1.95-4.37c.06,2,.06,2,.11,4.37v8.07a21.62,21.62,0,0,0,.16,3.13h-2a18.13,18.13,0,0,0,.19-3.13v-7.67c0-1.37,0-2.51.17-4.29a21.67,21.67,0,0,1-3.65,8.18,5.39,5.39,0,0,0-1-1.56,22.55,22.55,0,0,0,4.18-9.16H467a11.58,11.58,0,0,0-1.88.11V361a10.88,10.88,0,0,0,1.88.11h1.79v-2.67a15.57,15.57,0,0,0-.14-2.78h1.94a18.73,18.73,0,0,0-.13,2.78v2.67h.89a9.38,9.38,0,0,0,1.67-.11v1.68a14.51,14.51,0,0,0-1.67-.09Zm5.4-.4a18.32,18.32,0,0,1-1.76,3.4,5.2,5.2,0,0,0-1.35-1,16.64,16.64,0,0,0,2.7-6.07,7.43,7.43,0,0,0,.22-1.54l1.72.43c-.1.25-.13.41-.43,1.46-.16.62-.35,1.27-.54,1.81h3.22v-2.57a13.4,13.4,0,0,0-.17-2.4h1.92a13,13,0,0,0-.16,2.38v2.59h3.94a16.21,16.21,0,0,0,2.62-.16v1.8a21.73,21.73,0,0,0-2.62-.13h-3.94v4.45h4.83a17.92,17.92,0,0,0,2.62-.16v1.81c-.84-.08-1.68-.13-2.65-.13h-4.26a19.17,19.17,0,0,0,2.67,3.75,20.51,20.51,0,0,0,4.89,4.05,6.56,6.56,0,0,0-1.19,1.62,21.31,21.31,0,0,1-7-8.24l.08,1.43c0,.49,0,1.16,0,1.78v4.89a19.19,19.19,0,0,0,.16,2.83h-1.92a20.1,20.1,0,0,0,.17-2.86v-4.77c0-.25,0-1.33.1-3.24A18.6,18.6,0,0,1,476,375a16.8,16.8,0,0,1-3.26,2.7,6.63,6.63,0,0,0-1.14-1.43,19.47,19.47,0,0,0,7.51-8h-2.92a18.82,18.82,0,0,0-2.7.16v-1.84a18.63,18.63,0,0,0,2.7.16h3.57v-4.45Z"/><path class="cls-1" d="M515.21,361a16.24,16.24,0,0,0,2.62-.16v1.94a19.85,19.85,0,0,0-2.78-.16h-4.84a40.78,40.78,0,0,0,.57,5.67,26.57,26.57,0,0,0,1.35,5.07,9.73,9.73,0,0,0,2.24,3.84,1.79,1.79,0,0,0,.86.51c.6,0,1.08-1.46,1.52-4.43a4.72,4.72,0,0,0,1.59,1.06A13.64,13.64,0,0,1,517,378.5a2,2,0,0,1-1.73,1.13c-1,0-2.19-.92-3.24-2.46a23.93,23.93,0,0,1-3-8.88,51.24,51.24,0,0,1-.57-5.72H497.15a21.38,21.38,0,0,0-2.78.16v-1.94a18.9,18.9,0,0,0,2.78.16h11.23c0-.84,0-.84-.06-2.73a11.21,11.21,0,0,0-.16-2.1h2.08a14.52,14.52,0,0,0-.16,2.51c0,.57,0,1.11.05,2.32Zm-17.33,7.29a16.4,16.4,0,0,0-2.43.13v-1.8a15.53,15.53,0,0,0,2.46.13h7a15.42,15.42,0,0,0,2.43-.13v1.8a16.19,16.19,0,0,0-2.41-.13h-2.75v7.29c2-.41,3.16-.7,6.07-1.49v1.65c-4,1.05-7.61,1.84-12.09,2.64l-1.21.27-.41-1.91c1.27,0,1.94-.11,5.91-.84v-7.61Zm16.9-7.94a17.55,17.55,0,0,0-3.4-3l1.24-.92a22.65,22.65,0,0,1,3.42,2.92Z"/><path class="cls-1" d="M535.87,355.82a17.73,17.73,0,0,0,4.53,4.83,28.92,28.92,0,0,0,7.45,4.32,5.69,5.69,0,0,0-1.05,1.73,36.91,36.91,0,0,1-7.51-4.7,22.31,22.31,0,0,1-4.32-4.61,23.23,23.23,0,0,1-4,4.42,29.77,29.77,0,0,1-7.29,4.76A5.19,5.19,0,0,0,522.5,365a28.58,28.58,0,0,0,7.16-4.4,19.91,19.91,0,0,0,4.29-4.81Zm-9.13,15.06a22.68,22.68,0,0,0-3.08.17V369.1a22.94,22.94,0,0,0,3.08.16h16.63a22.64,22.64,0,0,0,3.08-.16v1.95a23,23,0,0,0-3.08-.17h-9.69a40.58,40.58,0,0,1-3.38,6.37c3.73-.24,6.54-.51,10.53-1-1.62-1.76-2.1-2.24-3.29-3.35l1.4-.87a58.25,58.25,0,0,1,6.53,7.13L544,380.28c-1-1.49-1.4-1.95-2-2.65-4.81.65-8.88,1.08-13.09,1.41a33.14,33.14,0,0,0-4.56.48l-.33-2a11.17,11.17,0,0,0,1.38.08c.43,0,.43,0,2.86-.16a40.28,40.28,0,0,0,3.43-6.51Zm1.73-6.72a14.28,14.28,0,0,0,2.13.11h8.72a16.58,16.58,0,0,0,2.27-.11V366a16.78,16.78,0,0,0-2.27-.11h-8.75a15.65,15.65,0,0,0-2.1.11Z"/><path class="cls-1" d="M557.87,377.55a18.65,18.65,0,0,0,.16,2.65h-2a19.7,19.7,0,0,0,.16-2.67v-8.4a27.22,27.22,0,0,1-3.73,3.18,5,5,0,0,0-1-1.51,23,23,0,0,0,4.86-4,18.18,18.18,0,0,0,3.35-5h-5a16.88,16.88,0,0,0-2.16.11v-1.79a16.1,16.1,0,0,0,2.11.11h1.59v-2.51a15.85,15.85,0,0,0-.13-2.08h2a11.4,11.4,0,0,0-.16,2.11v2.48h1.56a9.2,9.2,0,0,0,1.57-.08l.84.95c-.19.29-.35.59-.65,1.16a23.55,23.55,0,0,1-3,4.59,16.48,16.48,0,0,0,4.35,3.67,6.31,6.31,0,0,0-.92,1.48,17.79,17.79,0,0,1-3.81-3.4Zm9.37-19.38a16.75,16.75,0,0,0-.19-2.46h2.13a12.93,12.93,0,0,0-.19,2.46V364h3.54a17.12,17.12,0,0,0,2.64-.16v1.89c-.83-.08-1.7-.14-2.64-.14H569v11.53h4.27a18.52,18.52,0,0,0,2.91-.16v2a18.91,18.91,0,0,0-2.91-.19h-9.72a18.46,18.46,0,0,0-2.89.19v-2a18.58,18.58,0,0,0,2.92.16h3.67V365.59h-2.67c-.92,0-1.81.06-2.65.14v-1.89a17,17,0,0,0,2.65.16h2.67Z"/><path class="cls-1" d="M56.75,244.13a15.3,15.3,0,0,0,2.67,5,8,8,0,0,0-.94,1.43,15.51,15.51,0,0,1-1.94-4.37c.05,2,.05,2,.1,4.37v8.07a21.29,21.29,0,0,0,.17,3.13h-2a19.2,19.2,0,0,0,.19-3.13V251c0-1.37,0-2.51.16-4.29a21.57,21.57,0,0,1-3.64,8.18,5.61,5.61,0,0,0-1-1.57,22.64,22.64,0,0,0,4.19-9.15H53.19a11.72,11.72,0,0,0-1.89.11v-1.7a11.09,11.09,0,0,0,1.89.11H55V240a16.93,16.93,0,0,0-.13-2.78h1.94a17.13,17.13,0,0,0-.14,2.78v2.67h.9a9.53,9.53,0,0,0,1.67-.11v1.67c-.51-.05-1.08-.08-1.67-.08Zm5.4-.4a18.58,18.58,0,0,1-1.75,3.4,5.56,5.56,0,0,0-1.35-1,16.8,16.8,0,0,0,2.7-6.07,8,8,0,0,0,.21-1.54l1.73.43a11.47,11.47,0,0,0-.43,1.46c-.16.62-.35,1.27-.54,1.81h3.21v-2.57a13.57,13.57,0,0,0-.16-2.4h1.91a14,14,0,0,0-.16,2.38v2.59h3.94a16.21,16.21,0,0,0,2.62-.16v1.8a21.61,21.61,0,0,0-2.62-.13H67.52v4.45h4.83A17.83,17.83,0,0,0,75,248v1.81c-.83-.08-1.67-.14-2.64-.14H68.06a19.37,19.37,0,0,0,2.67,3.76,20.71,20.71,0,0,0,4.89,4.05,6.7,6.7,0,0,0-1.19,1.61,21.3,21.3,0,0,1-7-8.23c0,.54,0,.54.09,1.43,0,.49,0,1.16,0,1.78V259a20.69,20.69,0,0,0,.16,2.83H65.77a20.4,20.4,0,0,0,.16-2.86v-4.78c0-.24,0-1.32.11-3.23a19,19,0,0,1-3.86,5.53,17.17,17.17,0,0,1-3.27,2.7,6.63,6.63,0,0,0-1.13-1.43,19.35,19.35,0,0,0,7.5-8.05H62.37a18.57,18.57,0,0,0-2.7.17V248a18.45,18.45,0,0,0,2.7.16h3.56v-4.45Z"/><path class="cls-1" d="M101.35,242.46a16.16,16.16,0,0,0,2.62-.16v1.94a19.75,19.75,0,0,0-2.78-.16H96.36a38,38,0,0,0,.57,5.67,25.53,25.53,0,0,0,1.35,5.07,9.73,9.73,0,0,0,2.24,3.84,1.79,1.79,0,0,0,.86.51c.59,0,1.08-1.46,1.51-4.43a4.54,4.54,0,0,0,1.59,1,13.35,13.35,0,0,1-1.32,4.22,2,2,0,0,1-1.73,1.13c-1,0-2.18-.92-3.24-2.46a24.11,24.11,0,0,1-3-8.88,49.25,49.25,0,0,1-.56-5.72H83.29a21.49,21.49,0,0,0-2.78.16V242.3a19.08,19.08,0,0,0,2.78.16H94.52c0-.84,0-.84,0-2.73a13.2,13.2,0,0,0-.16-2.1h2.08a14.33,14.33,0,0,0-.17,2.51c0,.57,0,1.11.06,2.32ZM84,249.75a16.57,16.57,0,0,0-2.43.13v-1.81a14.27,14.27,0,0,0,2.46.14h7a14.09,14.09,0,0,0,2.43-.14v1.81a16.13,16.13,0,0,0-2.4-.13H88.31V257c2-.41,3.16-.71,6.08-1.49v1.65c-4,1.05-7.61,1.83-12.1,2.64l-1.21.27-.4-1.91c1.26,0,1.94-.11,5.91-.84v-7.61Zm16.9-7.94a17.55,17.55,0,0,0-3.4-3l1.24-.92a21.73,21.73,0,0,1,3.43,2.92Z"/><path class="cls-1" d="M122,237.33a18.19,18.19,0,0,0,4.53,4.83,28.92,28.92,0,0,0,7.45,4.32,5.69,5.69,0,0,0-1.05,1.73,37,37,0,0,1-7.5-4.7,22.31,22.31,0,0,1-4.32-4.61,23.29,23.29,0,0,1-4.05,4.42,29.44,29.44,0,0,1-7.29,4.75,5.43,5.43,0,0,0-1.13-1.53,28.52,28.52,0,0,0,7.15-4.4,19.88,19.88,0,0,0,4.29-4.81Zm-9.12,15.06a22.57,22.57,0,0,0-3.08.17v-1.95a22.94,22.94,0,0,0,3.08.16h16.62a22.64,22.64,0,0,0,3.08-.16v1.95a22.89,22.89,0,0,0-3.08-.17h-9.69a39.82,39.82,0,0,1-3.37,6.37c3.72-.24,6.53-.51,10.53-1-1.62-1.75-2.11-2.24-3.3-3.34l1.41-.87a59.07,59.07,0,0,1,6.53,7.13l-1.49,1.11c-1-1.49-1.4-2-2-2.65-4.8.65-8.88,1.08-13.09,1.4a34.25,34.25,0,0,0-4.56.49l-.32-2a13.52,13.52,0,0,0,1.37.08c.44,0,.44,0,2.86-.16a39.5,39.5,0,0,0,3.43-6.51Zm1.72-6.72a14.43,14.43,0,0,0,2.14.11h8.71a16.4,16.4,0,0,0,2.27-.11v1.81a16.68,16.68,0,0,0-2.27-.11h-8.74a15.72,15.72,0,0,0-2.11.11Z"/><path class="cls-1" d="M144,259.06a17.35,17.35,0,0,0,.16,2.65h-2a18.24,18.24,0,0,0,.16-2.68v-8.39a27.72,27.72,0,0,1-3.72,3.18,5.16,5.16,0,0,0-1-1.51,23.52,23.52,0,0,0,4.86-4,18.63,18.63,0,0,0,3.35-5h-5.05a16.79,16.79,0,0,0-2.16.11v-1.79a17.88,17.88,0,0,0,2.1.11h1.6v-2.51a15.72,15.72,0,0,0-.14-2.08h2a11.3,11.3,0,0,0-.17,2.11v2.48h1.57a10.26,10.26,0,0,0,1.56-.08l.84.94c-.19.3-.35.6-.65,1.17a23.19,23.19,0,0,1-3,4.58,16.49,16.49,0,0,0,4.35,3.68,6.66,6.66,0,0,0-.92,1.48,17.48,17.48,0,0,1-3.8-3.4Zm9.36-19.38a15.48,15.48,0,0,0-.19-2.46h2.14a12.17,12.17,0,0,0-.19,2.46v5.83h3.53a17.35,17.35,0,0,0,2.65-.16v1.89c-.84-.08-1.7-.14-2.65-.14h-3.53v11.53h4.26a18.58,18.58,0,0,0,2.92-.16v2a19.05,19.05,0,0,0-2.92-.19h-9.71a18.37,18.37,0,0,0-2.89.19v-2a18.52,18.52,0,0,0,2.91.16h3.67V247.1h-2.67c-.92,0-1.81.06-2.64.14v-1.89a17,17,0,0,0,2.64.16h2.67Z"/><path class="cls-1" d="M184,239a16.44,16.44,0,0,0-.22,3v12a6.38,6.38,0,0,1-1.1,4.08,5.26,5.26,0,0,1-4.35,1.7,6,6,0,0,1-4.45-1.62,6.8,6.8,0,0,1-1.35-2.05l2.13-.9a4.85,4.85,0,0,0,.94,1.62,3.59,3.59,0,0,0,2.76,1.06c2.29,0,3.32-1.19,3.32-3.89V242a16.44,16.44,0,0,0-.22-3Z"/><path class="cls-1" d="M197.21,255.55c.1.3.37,1.08.64,1.89.27-.84.44-1.32.62-1.89l5.08-13.82a11.11,11.11,0,0,0,.78-2.75h2.81a19.83,19.83,0,0,0-1.38,3.13L200,257a19.87,19.87,0,0,0-.84,2.51h-2.62a14.53,14.53,0,0,0-.86-2.51l-5.78-14.87a21.87,21.87,0,0,0-1.38-3.13h2.78a20.29,20.29,0,0,0,.79,2.75Z"/><path class="cls-1" d="M226.17,244.81a6.36,6.36,0,0,0-1.26-2.38,5.9,5.9,0,0,0-4.67-1.94c-4.38,0-7.13,3.35-7.13,8.72s2.78,8.74,7.13,8.74a6.15,6.15,0,0,0,5-2.26,6,6,0,0,0,1.08-2.7l2.24.54a8.85,8.85,0,0,1-1.45,3.21,8.4,8.4,0,0,1-7,3.13,8.61,8.61,0,0,1-6.32-2.37,13,13,0,0,1,.16-16.61,8.54,8.54,0,0,1,6.18-2.29,8.23,8.23,0,0,1,6,2.19,8.12,8.12,0,0,1,2.1,3.4Z"/><path class="cls-1" d="M256.2,244.84c-.3,4-.6,5.58-1.46,7.58a14.08,14.08,0,0,1-4.62,5.67,24.55,24.55,0,0,1-4.15,2.4,3.85,3.85,0,0,0-1.32-1.73,15.59,15.59,0,0,0,5.69-3.51c2.48-2.37,3.62-5.39,3.86-10.41h-7.45a24.74,24.74,0,0,1-4.7,5.72,3.8,3.8,0,0,0-1.59-1.27,19.82,19.82,0,0,0,5.78-7.45,15.53,15.53,0,0,0,1.38-3.78l2,.65a12.64,12.64,0,0,0-.68,1.48,27,27,0,0,1-1.4,2.94c.43,0,.43,0,12.55,0a22.9,22.9,0,0,0,3.32-.16v2c-.73-.06-.73-.06-3.35-.08Z"/><path class="cls-1" d="M271.54,257.31a23.5,23.5,0,0,0,7.85-2.08,20.42,20.42,0,0,0,11-12,5.48,5.48,0,0,0,1.64,1.59,23.75,23.75,0,0,1-8.23,10.31,27.1,27.1,0,0,1-10.07,4,15.32,15.32,0,0,0-1.62.43Zm1.73-16.74a35.32,35.32,0,0,1,6.5,5.08l-1.4,1.67a29.8,29.8,0,0,0-6.43-5.29Z"/><path class="cls-1" d="M316.81,242.43a6.09,6.09,0,0,0,2.27-.16l1.11,1c-.25.44-.25.44-.6,2.73a16.74,16.74,0,0,1-4.88,9.85,21.1,21.1,0,0,1-7.91,4.48,5.5,5.5,0,0,0-1.24-1.83,18,18,0,0,0,6-2.62c3.78-2.62,5.75-6.32,6.27-11.8H303.05v4.05a17.66,17.66,0,0,0,.08,2h-2.22a18.57,18.57,0,0,0,.11-2v-3.65a15.83,15.83,0,0,0-.11-2.18,23.58,23.58,0,0,0,2.49.1h5.72v-2.72A8.3,8.3,0,0,0,309,238h2.27a10.69,10.69,0,0,0-.13,1.7v2.75Z"/><path class="cls-1" d="M332.53,244.84a29.64,29.64,0,0,1,2.67,6l-1.83.62a22.39,22.39,0,0,0-2.54-6Zm15.22-.17a17.26,17.26,0,0,0-.59,2.19,24.4,24.4,0,0,1-2.37,6,19.67,19.67,0,0,1-8.94,7.8,5.21,5.21,0,0,0-1.24-1.51c4.16-1.87,6.69-3.95,8.56-7a20.6,20.6,0,0,0,2.29-5.8,11.26,11.26,0,0,0,.3-1.84v-.27Zm-9.71-.91a27.4,27.4,0,0,1,2.62,5.8l-1.79.62a23.34,23.34,0,0,0-2.48-5.91Z"/><path class="cls-1" d="M362.8,260.49a19.52,19.52,0,0,0,.16-2.83V240.89a17.26,17.26,0,0,0-.16-2.75h2.32A15.05,15.05,0,0,0,365,241V246a70.8,70.8,0,0,1,12,5.69l-1.17,2a56.72,56.72,0,0,0-10.06-5.35,3.6,3.6,0,0,1-.84-.45l-.05,0a9.24,9.24,0,0,1,.1,1.59v8.13a16.3,16.3,0,0,0,.14,2.86Zm10.36-21.27a20.19,20.19,0,0,1,2.78,4.19l-1.35.8a19.88,19.88,0,0,0-2.78-4.29Zm3-1.48A22.39,22.39,0,0,1,379,242l-1.35.78a19.65,19.65,0,0,0-2.75-4.27Z"/><path class="cls-1" d="M399.54,249.4a2.21,2.21,0,1,1-2.21-2.22A2.22,2.22,0,0,1,399.54,249.4Z"/><path class="cls-1" d="M427.7,247.89c-.32,7-2.59,10.28-8.69,12.65a4.69,4.69,0,0,0-1.27-1.75c5.59-1.86,7.7-4.75,7.91-10.9h-7.31a21.24,21.24,0,0,0-3.11.13v-2a17.21,17.21,0,0,0,3.13.17h15.79a17.2,17.2,0,0,0,3.14-.17v2a21.24,21.24,0,0,0-3.11-.13ZM418,239.33a14.1,14.1,0,0,0,3.1.19h8.15a23.89,23.89,0,0,0,3.11-.14v2c-.35,0-1.38-.06-3.08-.08H421a18.71,18.71,0,0,0-3.08.13Zm15.82-2.27a20.73,20.73,0,0,1,2.64,4.27l-1.38.75a20.59,20.59,0,0,0-2.61-4.37Zm3.32-1a22.07,22.07,0,0,1,2.64,4.26l-1.37.76a21,21,0,0,0-2.62-4.35Z"/><path class="cls-1" d="M459.24,244v-2.65a19,19,0,0,0-.08-2.75h2.1a20,20,0,0,0-.1,2.56V244h2.32a18.88,18.88,0,0,0,3.15-.16v2a21.08,21.08,0,0,0-3.13-.14h-2.37c0,5.21-.33,7.21-1.32,9.15-1.46,2.7-3.89,4.59-7.54,5.83a4.85,4.85,0,0,0-1.21-1.7c3.54-.89,6.26-3,7.34-5.72.6-1.62.76-3.24.81-7.56H451v4.51a14.58,14.58,0,0,0,.1,2.19h-2.18a13.07,13.07,0,0,0,.11-2.27v-4.43h-2.27a21.08,21.08,0,0,0-3.13.14v-2a18.88,18.88,0,0,0,3.15.16H449v-3.13a13.22,13.22,0,0,0-.11-2.27h2.18a14.83,14.83,0,0,0-.1,2.19V244Zm4.48-7.1a21.42,21.42,0,0,1,1.92,4.43l-1.43.48a21,21,0,0,0-1.92-4.51Zm3.1-.89a20.7,20.7,0,0,1,1.92,4.4l-1.4.48a22.43,22.43,0,0,0-1.89-4.42Z"/><path class="cls-1" d="M493.91,239.54a6.18,6.18,0,0,0-1.19,1.14,47.47,47.47,0,0,1-6.32,5.42v11.5a17.43,17.43,0,0,0,.14,2.86h-2.35a14.44,14.44,0,0,0,.16-2.8V247.4a42.06,42.06,0,0,1-10.42,4.72,6.23,6.23,0,0,0-1.05-1.8,38.17,38.17,0,0,0,14-7,22.39,22.39,0,0,0,5.15-5.1Z"/><path class="cls-1" d="M503.74,257.31a23.5,23.5,0,0,0,7.85-2.08,20.42,20.42,0,0,0,11-12,5.48,5.48,0,0,0,1.64,1.59A23.75,23.75,0,0,1,516,255.12a27.1,27.1,0,0,1-10.07,4,15.32,15.32,0,0,0-1.62.43Zm1.73-16.74a35.32,35.32,0,0,1,6.5,5.08l-1.4,1.67a29.8,29.8,0,0,0-6.43-5.29Z"/><path class="cls-1" d="M61.23,481.12a15.39,15.39,0,0,0,2.68,5,8,8,0,0,0-.95,1.43A15.51,15.51,0,0,1,61,483.17l.11,4.37v8.07a21.62,21.62,0,0,0,.16,3.13h-2a18.13,18.13,0,0,0,.19-3.13v-7.67c0-1.37,0-2.51.16-4.29A21.44,21.44,0,0,1,56,491.83a5.61,5.61,0,0,0-1-1.56,22.84,22.84,0,0,0,4.18-9.15H57.67a11.93,11.93,0,0,0-1.89.1v-1.7a11.09,11.09,0,0,0,1.89.11h1.78V477a15.9,15.9,0,0,0-.13-2.78h1.94a17.43,17.43,0,0,0-.13,2.78v2.67H62a9.45,9.45,0,0,0,1.67-.11v1.68a14.61,14.61,0,0,0-1.67-.08Zm5.4-.41a18.27,18.27,0,0,1-1.75,3.4,5.37,5.37,0,0,0-1.35-1,16.8,16.8,0,0,0,2.7-6.07,8,8,0,0,0,.21-1.54l1.73.43a14.77,14.77,0,0,0-.43,1.46c-.16.62-.35,1.27-.54,1.81h3.21v-2.57a13.57,13.57,0,0,0-.16-2.4h1.92a12.85,12.85,0,0,0-.17,2.38v2.59h4a16.06,16.06,0,0,0,2.61-.16v1.8a21.43,21.43,0,0,0-2.61-.13H72v4.45h4.84a17.92,17.92,0,0,0,2.62-.16v1.81c-.84-.08-1.68-.13-2.65-.13H72.54a19.21,19.21,0,0,0,2.68,3.75,20.46,20.46,0,0,0,4.88,4.05,6.52,6.52,0,0,0-1.18,1.62,21.23,21.23,0,0,1-7-8.24c0,.54,0,.54.08,1.43,0,.49,0,1.17,0,1.79V496a19.21,19.21,0,0,0,.17,2.84H70.25a20.56,20.56,0,0,0,.16-2.87v-4.77c0-.25,0-1.33.11-3.24a19,19,0,0,1-3.86,5.53,17.17,17.17,0,0,1-3.27,2.7,6.89,6.89,0,0,0-1.13-1.43,19.39,19.39,0,0,0,7.5-8H66.85a18.82,18.82,0,0,0-2.7.16V485a18.54,18.54,0,0,0,2.7.16h3.56v-4.45Z"/><path class="cls-1" d="M105.83,479.44a16.08,16.08,0,0,0,2.62-.16v1.94a21.27,21.27,0,0,0-2.78-.16h-4.83a37.9,37.9,0,0,0,.57,5.67,25.16,25.16,0,0,0,1.35,5.07,9.73,9.73,0,0,0,2.24,3.84,1.79,1.79,0,0,0,.86.51c.6,0,1.08-1.46,1.51-4.43a4.76,4.76,0,0,0,1.6,1.06,13.3,13.3,0,0,1-1.33,4.21,2,2,0,0,1-1.72,1.13c-1,0-2.19-.92-3.24-2.46a23.75,23.75,0,0,1-3.05-8.88,49,49,0,0,1-.57-5.72H87.78a23.17,23.17,0,0,0-2.78.16v-1.94a18.9,18.9,0,0,0,2.78.16H99c0-.84,0-.84-.06-2.73a13.2,13.2,0,0,0-.16-2.1h2.08a14.52,14.52,0,0,0-.16,2.51c0,.57,0,1.11.05,2.32Zm-17.32,7.29a16.4,16.4,0,0,0-2.43.13v-1.8a15.38,15.38,0,0,0,2.45.13h7a15.34,15.34,0,0,0,2.43-.13v1.8a16,16,0,0,0-2.4-.13H92.8V494c2-.41,3.16-.7,6.07-1.49v1.65c-4,1.05-7.61,1.84-12.09,2.65l-1.22.26-.4-1.91c1.27,0,1.94-.11,5.91-.84v-7.61Zm16.89-7.94a17.26,17.26,0,0,0-3.4-3l1.24-.92a22.27,22.27,0,0,1,3.43,2.92Z"/><path class="cls-1" d="M126.49,474.31a17.93,17.93,0,0,0,4.54,4.83,28.92,28.92,0,0,0,7.45,4.32,5.94,5.94,0,0,0-1.06,1.73,36.83,36.83,0,0,1-7.5-4.7,22.31,22.31,0,0,1-4.32-4.61,23.65,23.65,0,0,1-4,4.43,29.83,29.83,0,0,1-7.29,4.75,5.34,5.34,0,0,0-1.13-1.54,28.52,28.52,0,0,0,7.15-4.4,19.75,19.75,0,0,0,4.3-4.81Zm-9.12,15.07a22.84,22.84,0,0,0-3.08.16v-2a22.94,22.94,0,0,0,3.08.16H134a22.47,22.47,0,0,0,3.07-.16v2a23,23,0,0,0-3.07-.16h-9.7a40.71,40.71,0,0,1-3.37,6.37c3.73-.25,6.53-.52,10.53-1-1.62-1.76-2.11-2.24-3.29-3.35l1.4-.86a57.48,57.48,0,0,1,6.53,7.12l-1.48,1.11c-1.06-1.49-1.41-1.94-2-2.65-4.81.65-8.88,1.08-13.1,1.41A33.67,33.67,0,0,0,115,498l-.32-2.05A11.13,11.13,0,0,0,116,496c.44,0,.44,0,2.87-.16a40.54,40.54,0,0,0,3.42-6.5Zm1.73-6.73a14.28,14.28,0,0,0,2.13.11H130a16.33,16.33,0,0,0,2.26-.11v1.81a16.52,16.52,0,0,0-2.26-.11H121.2a15.56,15.56,0,0,0-2.1.11Z"/><path class="cls-1" d="M148.5,496a17.27,17.27,0,0,0,.16,2.65h-2a18,18,0,0,0,.17-2.67v-8.4a29.31,29.31,0,0,1-3.73,3.19,5.08,5.08,0,0,0-1-1.52,23,23,0,0,0,4.86-4,18.63,18.63,0,0,0,3.35-5h-5.05a18.92,18.92,0,0,0-2.16.11V478.6a16,16,0,0,0,2.11.11h1.59V476.2a15.72,15.72,0,0,0-.14-2.08h2a11.4,11.4,0,0,0-.16,2.11v2.48h1.56a9.28,9.28,0,0,0,1.57-.08l.83.95a11.94,11.94,0,0,0-.64,1.16,23.55,23.55,0,0,1-3,4.59,16.44,16.44,0,0,0,4.34,3.67,7,7,0,0,0-.92,1.48,17.72,17.72,0,0,1-3.8-3.4Zm9.37-19.38a16.52,16.52,0,0,0-.19-2.45h2.13a12.77,12.77,0,0,0-.19,2.45v5.83h3.54a17.21,17.21,0,0,0,2.64-.16v1.89c-.84-.08-1.7-.14-2.64-.14h-3.54v11.53h4.26a18.58,18.58,0,0,0,2.92-.16v2a19.05,19.05,0,0,0-2.92-.19h-9.71a18.37,18.37,0,0,0-2.89.19v-2a18.52,18.52,0,0,0,2.91.16h3.68V484.08h-2.68c-.91,0-1.81.06-2.64.14v-1.89a17,17,0,0,0,2.64.16h2.68Z"/><path class="cls-1" d="M186.68,493.42a16.81,16.81,0,0,0,.21,3.05h-2.53a16.27,16.27,0,0,0,.21-3.05V477.85h-4.21a18.72,18.72,0,0,0-3.1.19v-2.27a18.33,18.33,0,0,0,3.07.19h10.53a18.33,18.33,0,0,0,3.18-.19V478a18.78,18.78,0,0,0-3.18-.19h-4.18Z"/><path class="cls-1" d="M197.67,489.21c0-4.67,2.8-7.64,7.2-7.64s7.18,3,7.18,7.62-2.8,7.64-7.15,7.64S197.67,493.88,197.67,489.21Zm2.08,0c0,3.67,2,5.91,5.12,5.91s5.11-2.24,5.11-5.88-1.95-5.92-5-5.92S199.75,485.51,199.75,489.16Z"/><path class="cls-1" d="M216.57,489.21c0-4.67,2.8-7.64,7.2-7.64s7.18,3,7.18,7.62-2.8,7.64-7.15,7.64S216.57,493.88,216.57,489.21Zm2.08,0c0,3.67,2,5.91,5.12,5.91s5.11-2.24,5.11-5.88-1.95-5.92-5-5.92S218.65,485.51,218.65,489.16Z"/><path class="cls-1" d="M300.89,480.93c-.54,0-.95-.06-1.41-.06h-.92a13.15,13.15,0,0,0,3,5,9.6,9.6,0,0,0-1,1.33,16,16,0,0,1-2.19-4.16c0,1.11.08,2.59.13,4.48v8.12a21.74,21.74,0,0,0,.17,3.14H296.7a22.54,22.54,0,0,0,.16-3.14v-7.5c0-.67.06-2.16.17-4.45a25.83,25.83,0,0,1-1.52,4.45,14.69,14.69,0,0,1-1.51,2.73,5.14,5.14,0,0,0-1.08-1.46,20.35,20.35,0,0,0,3.73-8.56h-1a16.54,16.54,0,0,0-1.89.11v-1.67a11.09,11.09,0,0,0,1.89.11h1.26v-2.49a16.11,16.11,0,0,0-.13-2.78h1.89a17.25,17.25,0,0,0-.14,2.75v2.52h1a9.86,9.86,0,0,0,1.72-.11v1.59a22.21,22.21,0,0,0,2.41.11h1.8v-2.7h-1.21a20.14,20.14,0,0,0-2.65.11v-1.68a25.42,25.42,0,0,0,2.68.14h1.18v-.54a10.68,10.68,0,0,0-.13-2.08h1.83a14.73,14.73,0,0,0-.1,2.08v.54h4.45v-.49a16.34,16.34,0,0,0-.11-2.13h1.84a10.79,10.79,0,0,0-.14,2.13v.49h1.57a25.38,25.38,0,0,0,2.7-.14v1.68a20.42,20.42,0,0,0-2.65-.11H313V481h2.22a21.12,21.12,0,0,0,2.75-.14v1.7a21.46,21.46,0,0,0-2.7-.13h-5.45v2h4.61c1,0,1.43,0,2-.08,0,.48-.08,1.13-.08,1.94v5.37c0,.89,0,1.51.08,2a18,18,0,0,0-2-.08H304.18a17.75,17.75,0,0,0-2,.08c.05-.54.08-1.14.08-1.92v-5.48c0-.73,0-1.4-.08-1.94a19.42,19.42,0,0,0,2,.08h4.13v-2h-4.7a22.13,22.13,0,0,0-2.72.11Zm6.53,14.14a12.81,12.81,0,0,1-6.26,3.64,7.42,7.42,0,0,0-1-1.48,12.34,12.34,0,0,0,3.75-1.38A7.59,7.59,0,0,0,306.2,494Zm-3.54-9.28v2.4h4.43v-2.4Zm0,3.77v2.65h4.43v-2.65Zm7.56-11.25H307V481h4.45Zm3.35,9.88v-2.4h-4.94v2.4Zm0,4v-2.65h-4.94v2.65ZM312,494a13.92,13.92,0,0,0,5.94,3.29,8.92,8.92,0,0,0-1,1.57,18.8,18.8,0,0,1-6.1-3.81Z"/><path class="cls-1" d="M323.41,480.9a27.76,27.76,0,0,1,4.8,3.64L327.1,486a20.32,20.32,0,0,0-4.77-3.83Zm4.85,8.8a41.47,41.47,0,0,1-3.56,7.42l-.62,1.08-1.59-1.43c1.38-1.43,3-4.48,4.34-8.12Zm-3.56-15.2a24.48,24.48,0,0,1,4.51,3.65l-1.08,1.4a22.71,22.71,0,0,0-4.54-3.86Zm7.51,2.7a19.81,19.81,0,0,0-2.84.16v-1.94a19.28,19.28,0,0,0,2.86.16h11.69a21.65,21.65,0,0,0,3-.16v1.89a15.21,15.21,0,0,0-2.19-.11V496c0,1.64-.67,2.1-3,2.1-.76,0-1.75-.05-3.13-.16a6.27,6.27,0,0,0-.43-1.81,23.05,23.05,0,0,0,3.59.32c1,0,1.24-.13,1.24-.72V477.2ZM331,493.4a18.17,18.17,0,0,0,.13-2.24v-8.07a18,18,0,0,0-.1-2.27,17.46,17.46,0,0,0,2.27.11h3.88a17.56,17.56,0,0,0,2.27-.11,16.76,16.76,0,0,0-.11,2.24V489a13.5,13.5,0,0,0,.11,2c-.59,0-1.19-.08-2.05-.08h-4.56v2.46Zm1.84-4h4.8v-7h-4.8Z"/><path class="cls-1" d="M356.7,476.39a26.61,26.61,0,0,0-2.68.11v-1.67a23,23,0,0,0,2.76.16h14a19.48,19.48,0,0,0,2.67-.16v1.67a23.3,23.3,0,0,0-2.59-.11h-6.58V478h8a19.86,19.86,0,0,0,3-.14,15.35,15.35,0,0,0-.11,2.05v1.6a9.79,9.79,0,0,0,.16,2h-1.75v-4.21h-9.23v3.24a16.26,16.26,0,0,0,.13,2.65H362.5a15.75,15.75,0,0,0,.16-2.65v-3.24h-8.72v4.21h-1.75a11.33,11.33,0,0,0,.16-2V480a16.16,16.16,0,0,0-.11-2.05,19.16,19.16,0,0,0,2.94.14h7.48v-1.65Zm-.38,17.76v1.51h-1.81a14.26,14.26,0,0,0,.16-2.29v-5a21.14,21.14,0,0,0-.11-2.41,18.22,18.22,0,0,0,2.32.11h13.61A19.85,19.85,0,0,0,373,486a17.87,17.87,0,0,0-.11,2.41v3.94a16.94,16.94,0,0,0,.08,1.94,21.05,21.05,0,0,0-2.43-.11h-6.24V496c0,.65.57.73,4.35.73,3.21,0,4.64-.14,5.1-.52s.46-1.08.49-3.18a6.53,6.53,0,0,0,1.67.75c-.05,2.14-.35,3.19-1,3.68s-2.29.72-6.5.72c-5,0-5.72-.21-5.72-1.78v-2.24Zm-.89-13.52a13.68,13.68,0,0,0,1.64.08h2.51a13,13,0,0,0,1.57-.08v1.29a8.92,8.92,0,0,0-1.57-.1h-2.51a9.58,9.58,0,0,0-1.64.1Zm0,2.59a8.73,8.73,0,0,0,1.64.11h2.51a8.6,8.6,0,0,0,1.57-.11v1.32a8.72,8.72,0,0,0-1.57-.1h-2.51a9.23,9.23,0,0,0-1.64.1Zm.89,4.18v1.92h6.29V487.4Zm0,3.22v2.18h6.29v-2.18Zm14.87-1.3V487.4h-6.94v1.92Zm0,3.48v-2.18h-6.94v2.18ZM366,480.6a8.85,8.85,0,0,0,1.65.11h2.94a8.39,8.39,0,0,0,1.57-.11v1.32a8.72,8.72,0,0,0-1.57-.1H367.6a9.35,9.35,0,0,0-1.65.1Zm0,2.62a8.85,8.85,0,0,0,1.65.11h2.94a8.6,8.6,0,0,0,1.57-.11v1.32a8.72,8.72,0,0,0-1.57-.1H367.6a9.35,9.35,0,0,0-1.65.1Z"/><path class="cls-1" d="M383.53,477a16.39,16.39,0,0,0-.13-2.8h1.86a22.72,22.72,0,0,0-.11,2.78v2.67h.73a9.92,9.92,0,0,0,1.76-.11v1.7a11.8,11.8,0,0,0-1.73-.11h-.65a10.3,10.3,0,0,0,2,3.27,9.51,9.51,0,0,0-.76,1.4,9.42,9.42,0,0,1-1.46-2.89c.06,1.87.11,3,.11,4v8.86a21.51,21.51,0,0,0,.14,3.13H383.4a22.47,22.47,0,0,0,.16-3.13v-7.37c0-1.06.11-3.16.27-5.21a23.39,23.39,0,0,1-3.05,8.45,5.48,5.48,0,0,0-1-1.57,23,23,0,0,0,3.51-8.91h-.95a11.79,11.79,0,0,0-1.86.11v-1.7a10.77,10.77,0,0,0,1.86.11h1.16Zm7.91,12.34c-.05.7-.05.75-.11,1.29a10.79,10.79,0,0,0,3.51,2.89,5.69,5.69,0,0,0-.89,1.3,12.25,12.25,0,0,1-2.94-2.57,11.05,11.05,0,0,1-3.7,6.1A4.21,4.21,0,0,0,386,497.2c2.48-1.72,3.61-4,3.88-7.85h-.29a17.18,17.18,0,0,0-2.43.13v-1.7a14.6,14.6,0,0,0,2.43.14h6.15a32.88,32.88,0,0,1-.46-3.38,70.79,70.79,0,0,1-.4-8.45,10.71,10.71,0,0,0-.14-1.7h1.89a14.57,14.57,0,0,0-.13,2.65,69.69,69.69,0,0,0,.75,10.88h4.78a13.61,13.61,0,0,0,2.86-.17v1.76a17.52,17.52,0,0,0-2.86-.16h-4.51a13,13,0,0,0,1.35,3.61,9.53,9.53,0,0,0,2.51-3l1.38.95a32.39,32.39,0,0,1-3.13,3.29c1.16,1.65,2.27,2.62,3,2.62.32,0,.48-.22.73-.92a12.63,12.63,0,0,0,.48-2.73,5.6,5.6,0,0,0,1.38,1c-.62,3.4-1.16,4.4-2.43,4.4s-2.78-1.13-4.32-3.35a21,21,0,0,1-6.69,3.4,4.08,4.08,0,0,0-1.08-1.37,18.87,18.87,0,0,0,7-3.27,15.65,15.65,0,0,1-1.65-4.56Zm.89-14.31a24.84,24.84,0,0,1-2.53,4.16,14.56,14.56,0,0,1,1.29,1.56,21.46,21.46,0,0,0,1.62-3l1.3.92a47.5,47.5,0,0,1-4.19,5.94c1.33-.16,2.51-.32,3.38-.48a10.5,10.5,0,0,0-.89-1.68l1.08-.4a16.92,16.92,0,0,1,1.75,3.86l-1.21.51c-.14-.54-.19-.7-.33-1.19-1.13.24-2.56.52-5.15.92a4.85,4.85,0,0,0-.76.14l-.32-1.54.32,0a4.21,4.21,0,0,0,.46,0c1-1.19,1.46-1.81,2.16-2.84a17.67,17.67,0,0,0-3.19-3.37l1-1.08c.21.21.45.46.75.73a14,14,0,0,0,2-3.89Zm4.94,9a2.29,2.29,0,0,0,.41,0,.93.93,0,0,0,.27,0c.92-1,1.13-1.32,2-2.43a15.58,15.58,0,0,0-3.11-3.27l.89-1.13c.43.41.54.51.84.81a14.93,14.93,0,0,0,2-3.56l1.4.75a30.87,30.87,0,0,1-2.45,3.73c.54.59.78.89,1.29,1.54a28,28,0,0,0,2.08-3.24l1.24,1c-2.45,3.29-3.21,4.26-4.53,5.75a29.81,29.81,0,0,0,3.29-.38,9.22,9.22,0,0,0-.81-1.51l1.11-.43a23.57,23.57,0,0,1,2,4.16l-1.24.48c-.25-.81-.35-1.11-.54-1.59-.62.13-2.41.38-5.32.75l-.46.08Zm2.92,1.3a9.64,9.64,0,0,1,2.05,1.64l-1,.92a9.83,9.83,0,0,0-2-1.78Z"/><path class="cls-1" d="M415.58,481.12a15.36,15.36,0,0,0,2.67,5,8,8,0,0,0-.94,1.43,15.51,15.51,0,0,1-1.94-4.37c.05,2,.05,2,.1,4.37v8.07a21.29,21.29,0,0,0,.17,3.13h-2a19.2,19.2,0,0,0,.19-3.13v-7.67c0-1.37,0-2.51.16-4.29a21.44,21.44,0,0,1-3.64,8.18,5.41,5.41,0,0,0-1-1.56,22.71,22.71,0,0,0,4.19-9.15H412a11.93,11.93,0,0,0-1.89.1v-1.7a11.09,11.09,0,0,0,1.89.11h1.78V477a17,17,0,0,0-.13-2.78h1.94a17.13,17.13,0,0,0-.14,2.78v2.67h.9a9.53,9.53,0,0,0,1.67-.11v1.68a14.61,14.61,0,0,0-1.67-.08Zm5.4-.41a18.27,18.27,0,0,1-1.75,3.4,5.56,5.56,0,0,0-1.35-1,16.8,16.8,0,0,0,2.7-6.07,8,8,0,0,0,.21-1.54l1.73.43a12.13,12.13,0,0,0-.43,1.46c-.16.62-.35,1.27-.54,1.81h3.21v-2.57a13.57,13.57,0,0,0-.16-2.4h1.91a14,14,0,0,0-.16,2.38v2.59h3.94a16.21,16.21,0,0,0,2.62-.16v1.8a21.61,21.61,0,0,0-2.62-.13h-3.94v4.45h4.83a17.83,17.83,0,0,0,2.62-.16v1.81c-.83-.08-1.67-.13-2.64-.13h-4.27a19.6,19.6,0,0,0,2.67,3.75,20.71,20.71,0,0,0,4.89,4.05,6.56,6.56,0,0,0-1.19,1.62,21.4,21.4,0,0,1-7-8.24c0,.54,0,.54.09,1.43,0,.49,0,1.17,0,1.79V496a21,21,0,0,0,.16,2.84H424.6a20.56,20.56,0,0,0,.16-2.87v-4.77c0-.25,0-1.33.11-3.24a19,19,0,0,1-3.86,5.53,17.17,17.17,0,0,1-3.27,2.7,6.89,6.89,0,0,0-1.13-1.43,19.39,19.39,0,0,0,7.5-8H421.2a18.73,18.73,0,0,0-2.7.16V485a18.45,18.45,0,0,0,2.7.16h3.56v-4.45Z"/><path class="cls-1" d="M460.18,479.44a16.16,16.16,0,0,0,2.62-.16v1.94a21.39,21.39,0,0,0-2.78-.16h-4.83a37.9,37.9,0,0,0,.57,5.67,25.16,25.16,0,0,0,1.35,5.07,9.73,9.73,0,0,0,2.24,3.84,1.79,1.79,0,0,0,.86.51c.59,0,1.08-1.46,1.51-4.43a4.72,4.72,0,0,0,1.59,1.06A13.36,13.36,0,0,1,462,497a2,2,0,0,1-1.73,1.13c-1,0-2.18-.92-3.24-2.46a24.11,24.11,0,0,1-3-8.88,49.25,49.25,0,0,1-.56-5.72H442.12a23.43,23.43,0,0,0-2.78.16v-1.94a19.08,19.08,0,0,0,2.78.16h11.23c0-.84,0-.84-.05-2.73a13.2,13.2,0,0,0-.16-2.1h2.08a14.33,14.33,0,0,0-.17,2.51c0,.57,0,1.11.06,2.32Zm-17.33,7.29a16.57,16.57,0,0,0-2.43.13v-1.8a15.61,15.61,0,0,0,2.46.13h7a15.42,15.42,0,0,0,2.43-.13v1.8a16.13,16.13,0,0,0-2.4-.13h-2.76V494c2-.41,3.16-.7,6.08-1.49v1.65c-4,1.05-7.61,1.84-12.1,2.65-.37.08-.89.18-1.21.26l-.4-1.91c1.26,0,1.94-.11,5.91-.84v-7.61Zm16.9-7.94a17.55,17.55,0,0,0-3.4-3l1.24-.92a22.27,22.27,0,0,1,3.43,2.92Z"/><path class="cls-1" d="M480.84,474.31a18,18,0,0,0,4.53,4.83,28.92,28.92,0,0,0,7.45,4.32,5.69,5.69,0,0,0-1.05,1.73,36.56,36.56,0,0,1-7.5-4.7,22.31,22.31,0,0,1-4.32-4.61,23.65,23.65,0,0,1-4.05,4.43,30,30,0,0,1-7.29,4.75,5.34,5.34,0,0,0-1.13-1.54,28.52,28.52,0,0,0,7.15-4.4,19.7,19.7,0,0,0,4.29-4.81Zm-9.12,15.07a22.84,22.84,0,0,0-3.08.16v-2a22.94,22.94,0,0,0,3.08.16h16.62a22.64,22.64,0,0,0,3.08-.16v2a23.14,23.14,0,0,0-3.08-.16h-9.69a40.71,40.71,0,0,1-3.37,6.37c3.72-.25,6.53-.52,10.53-1-1.62-1.76-2.11-2.24-3.3-3.35l1.41-.86a58.27,58.27,0,0,1,6.53,7.12L489,498.77c-1-1.49-1.4-1.94-2-2.65-4.8.65-8.88,1.08-13.09,1.41a33.4,33.4,0,0,0-4.56.48L469,496a11.13,11.13,0,0,0,1.37.08c.44,0,.44,0,2.86-.16a39.82,39.82,0,0,0,3.43-6.5Zm1.72-6.73a14.43,14.43,0,0,0,2.14.11h8.71a16.4,16.4,0,0,0,2.27-.11v1.81a16.68,16.68,0,0,0-2.27-.11h-8.74a15.72,15.72,0,0,0-2.11.11Z"/><path class="cls-1" d="M502.85,496a17.27,17.27,0,0,0,.16,2.65h-2a18.19,18.19,0,0,0,.16-2.67v-8.4a28.51,28.51,0,0,1-3.72,3.19,5.27,5.27,0,0,0-1-1.52,23.2,23.2,0,0,0,4.86-4,18.38,18.38,0,0,0,3.34-5h-5a18.81,18.81,0,0,0-2.16.11V478.6a16,16,0,0,0,2.1.11h1.6V476.2a15.72,15.72,0,0,0-.14-2.08h2a11.3,11.3,0,0,0-.17,2.11v2.48h1.57a9.06,9.06,0,0,0,1.56-.08l.84.95c-.19.29-.35.59-.65,1.16a23.55,23.55,0,0,1-3,4.59,16.64,16.64,0,0,0,4.35,3.67,6.66,6.66,0,0,0-.92,1.48,17.48,17.48,0,0,1-3.8-3.4Zm9.36-19.38a15.27,15.27,0,0,0-.19-2.45h2.14a12,12,0,0,0-.19,2.45v5.83h3.53a17.35,17.35,0,0,0,2.65-.16v1.89c-.84-.08-1.7-.14-2.65-.14H514v11.53h4.26a18.58,18.58,0,0,0,2.92-.16v2a19.05,19.05,0,0,0-2.92-.19h-9.72a18.32,18.32,0,0,0-2.88.19v-2a18.52,18.52,0,0,0,2.91.16h3.67V484.08h-2.67c-.92,0-1.81.06-2.65.14v-1.89a17.18,17.18,0,0,0,2.65.16h2.67Z"/></g></g></svg>