<svg xmlns="http://www.w3.org/2000/svg" xmlns:xlink="http://www.w3.org/1999/xlink" viewBox="0 0 122.74 141.73"><defs><style>.cls-1{fill:none;}.cls-2{clip-path:url(#clip-path);}.cls-3{fill:#fff;}.cls-4{fill:#231815;}.cls-5{fill:#2c8ac8;}</style><clipPath id="clip-path" transform="translate(0)"><polygon class="cls-1" points="0 35.43 0 106.3 61.37 141.73 122.74 106.3 122.74 35.43 61.37 0 0 35.43"/></clipPath></defs><g id="レイヤー_2" data-name="レイヤー 2"><g id="レイヤー_2-2" data-name="レイヤー 2"><g class="cls-2"><polygon class="cls-3" points="122.74 106.3 122.74 35.43 61.37 0 0 35.43 0 106.3 61.37 141.73 122.74 106.3"/><polygon class="cls-4" points="107.39 44.3 107.39 62.02 92.05 70.87 92.05 88.59 76.71 97.44 61.37 106.3 61.37 141.72 76.71 132.87 92.05 124.01 107.39 115.16 122.73 106.3 122.73 35.45 107.39 44.3"/><polygon class="cls-4" points="61.37 35.44 76.71 26.59 76.71 8.88 61.37 17.74 46.03 26.59 46.03 44.3 30.69 53.16 30.68 53.16 15.35 62.01 15.35 79.73 15.36 79.73 30.69 70.88 46.03 79.73 30.69 88.58 30.69 106.3 46.03 97.45 46.03 97.44 61.37 88.59 61.37 35.44"/><polygon class="cls-5" points="92.05 70.87 107.39 62.02 107.39 62.01 92.06 53.16 92.05 53.16 76.71 62.02 92.05 70.87"/><polygon class="cls-5" points="122.73 35.45 107.39 26.59 92.05 35.45 107.39 44.3 122.73 35.45"/><polygon class="cls-5" points="61.37 88.59 46.03 97.44 61.37 106.3 76.71 97.44 92.05 88.59 92.05 88.58 76.71 79.73 61.37 88.59"/><polygon class="cls-5" points="76.71 26.59 61.37 35.44 76.71 44.3 92.05 53.16 92.05 35.45 76.71 26.59"/><polygon class="cls-5" points="46.03 115.16 46.03 97.45 30.69 106.3 46.03 115.16"/><polygon class="cls-5" points="61.37 17.74 76.71 8.88 61.37 0.02 46.03 8.88 30.69 17.73 46.03 26.59 61.37 17.74"/><polygon class="cls-5" points="46.03 79.73 30.69 70.88 15.36 79.73 30.69 88.58 46.03 79.73"/><polygon class="cls-5" points="30.69 53.16 46.03 44.3 30.69 35.45 15.35 44.3 15.35 44.31 0.01 53.16 15.35 62.01 30.68 53.16 30.69 53.16"/><polygon class="cls-3" points="92.05 35.45 92.05 53.16 92.06 53.16 107.39 62.01 107.39 44.3 92.05 35.45"/><polygon class="cls-3" points="61.37 35.44 61.37 88.59 76.71 79.73 92.05 88.58 92.05 70.87 76.71 62.02 92.05 53.16 76.71 44.3 61.37 35.44"/><polygon class="cls-3" points="46.03 26.59 30.69 17.73 30.69 35.45 46.03 44.3 46.03 26.59"/><polygon class="cls-3" points="46.03 115.16 30.69 106.3 30.69 88.58 15.36 79.73 15.35 79.73 15.35 62.01 0.01 53.16 0.01 106.3 15.35 115.16 30.69 124.01 46.03 132.87 61.37 141.72 61.37 106.3 46.03 97.44 46.03 115.16"/><circle class="cls-5" cx="61.37" cy="70.87" r="21.07"/><polygon class="cls-3" points="76.71 62.01 76.71 79.72 92.05 88.57 92.05 70.87 92.05 70.86 76.71 62.01"/><polygon class="cls-4" points="30.69 88.57 30.69 88.58 30.69 106.29 46.03 97.44 46.03 97.43 46.03 79.72 30.69 88.57"/><polygon class="cls-5" points="92.06 53.15 92.05 53.15 76.71 62.01 92.05 70.86 107.39 62.01 107.39 62 92.06 53.15"/><polygon class="cls-5" points="61.37 88.58 46.03 97.43 61.37 106.29 76.71 97.43 92.05 88.58 92.05 88.57 76.71 79.72 61.37 88.58"/><polygon class="cls-5" points="46.03 115.15 46.03 115.14 46.03 97.44 30.69 106.29 46.03 115.15"/><polygon class="cls-5" points="46.03 79.72 30.69 70.87 15.36 79.72 30.69 88.57 46.03 79.72"/><polygon class="cls-5" points="15.35 44.3 0.01 53.15 15.35 62 30.68 53.15 15.35 44.3"/></g></g></g></svg>