<svg xmlns="http://www.w3.org/2000/svg" viewBox="0 0 122.75 141.74"><defs><style>.cls-1{fill:#231815;}.cls-2{fill:#fff;}.cls-3{fill:#2c8ac8;}</style></defs><g id="レイヤー_2" data-name="レイヤー 2"><g id="レイヤー_2-2" data-name="レイヤー 2"><rect class="cls-1" x="56.63" y="124.01" width="70.87" height="0.01" transform="translate(-49.68 62.65) rotate(-30)"/><polygon class="cls-2" points="61.37 141.73 107.4 115.16 107.39 115.14 107.39 97.45 46.03 132.88 61.37 141.73"/><path class="cls-2" d="M61.37,17.71l-46,26.57V26.57L61.37,0l61.37,35.43V70.86L61.37,106.3Zm46,44.3h0V44.29L76.72,26.57V79.72h0Z"/><polygon class="cls-1" points="30.69 106.3 30.69 70.87 30.68 70.86 15.34 79.72 15.34 97.44 30.69 106.3"/><polygon class="cls-1" points="76.72 79.73 107.4 62.01 107.4 62 107.4 44.29 76.72 26.57 76.71 79.72 76.72 79.73"/><polygon class="cls-3" points="107.4 115.16 122.74 106.3 122.74 70.86 61.37 106.3 61.37 17.71 15.35 44.28 15.34 26.57 0 35.43 0 70.87 46.03 44.29 46.03 132.88 107.39 97.45 107.39 115.14 107.4 115.16"/><path class="cls-2" d="M0,106.3V70.87L46,44.29v88.59ZM30.69,70.87h0L15.34,79.72V97.44l15.35,8.86Z"/></g></g></svg>