<svg xmlns="http://www.w3.org/2000/svg" xmlns:xlink="http://www.w3.org/1999/xlink" viewBox="0 0 122.74 141.73"><defs><style>.cls-1{fill:none;}.cls-2{clip-path:url(#clip-path);}.cls-3{fill:#fff;}.cls-4{fill:#2c8ac8;}.cls-5{fill:#231815;}</style><clipPath id="clip-path" transform="translate(0 0)"><polygon class="cls-1" points="122.74 106.3 122.74 35.43 61.37 0 0 35.43 0 106.3 61.37 141.73 122.74 106.3"/></clipPath></defs><g id="レイヤー_2" data-name="レイヤー 2"><g id="レイヤー_2-2" data-name="レイヤー 2"><g id="人間生活工学_白"><g class="cls-2"><polygon class="cls-3" points="122.74 106.3 122.74 35.43 61.37 0 0 35.43 0 106.3 61.37 141.73 122.74 106.3"/><polyline class="cls-4" points="45.56 27.38 45.56 61.74 61.37 70.87 77.18 61.74 77.18 27.38"/><polygon class="cls-5" points="77.18 27.38 77.18 9.13 61.37 0 45.56 9.13 45.56 27.38 61.37 36.5 77.18 27.38"/><polygon class="cls-5" points="45.56 35.43 45.56 53.69 61.37 62.81 77.18 53.69 77.18 35.43 61.37 44.56 45.56 35.43"/><polygon class="cls-5" points="61.37 70.87 45.56 61.74 45.56 79.99 61.37 89.12 77.18 79.99 77.18 61.74 61.37 70.87"/><polygon class="cls-5" points="45.56 35.43 45.56 27.38 0 53.69 0 61.74 0 61.74 15.81 70.87 0 79.99 0 88.05 45.56 114.35 45.56 106.3 6.98 84.02 22.78 74.89 45.56 88.05 45.56 79.99 29.76 70.87 45.56 61.74 45.56 53.69 22.78 66.84 6.98 57.71 45.56 35.43"/><polygon class="cls-5" points="77.18 35.43 77.18 27.38 122.74 53.69 122.74 61.74 122.74 61.74 106.94 70.87 122.74 79.99 122.74 88.05 77.18 114.35 77.18 106.3 115.77 84.02 99.96 74.89 77.18 88.05 77.18 79.99 92.98 70.87 77.18 61.74 77.18 53.69 99.96 66.84 115.77 57.71 77.18 35.43"/></g></g></g></g></svg>