<svg xmlns="http://www.w3.org/2000/svg" viewBox="0 0 167 188"><defs><style>.cls-1{fill:#fff;fill-rule:evenodd;}</style></defs><g id="レイヤー_2" data-name="レイヤー 2"><g id="レイヤー_1-2" data-name="レイヤー 1"><g id="white_logo_symbol" data-name="white/logo_symbol"><path id="Shape" class="cls-1" d="M63.889,63.7V49.318a14.144,14.144,0,0,1,.539-4.838,9.546,9.546,0,0,1,18.06,0,14.108,14.108,0,0,1,.541,4.838V71.491a18.3,18.3,0,0,1-.27,3.9,9.833,9.833,0,0,1-7.144,7.122,18.476,18.476,0,0,1-3.909.269H49.467a14.261,14.261,0,0,1-4.853-.538,9.5,9.5,0,0,1,0-18.007,14.267,14.267,0,0,1,4.853-.537Zm79.254,100.518H23.857V59.464a4.658,4.658,0,0,1,1.416-3.427L56.206,25.2a4.687,4.687,0,0,1,3.437-1.41h83.5ZM156.689.134A25.314,25.314,0,0,0,153.724,0H56.475c-1.077,0-2.155.067-2.9.134A18.807,18.807,0,0,0,41.986,5.778L5.8,41.86A18.711,18.711,0,0,0,.136,53.417C.067,54.155,0,55.23,0,56.305V174.763a24.584,24.584,0,0,0,.136,2.957,11.988,11.988,0,0,0,10.175,10.145,25.029,25.029,0,0,0,2.965.135H153.724a25.016,25.016,0,0,0,2.965-.135,11.992,11.992,0,0,0,10.177-10.145,25.4,25.4,0,0,0,.134-2.957V13.237a25.4,25.4,0,0,0-.134-2.957A11.993,11.993,0,0,0,156.689.134Z"/></g></g></g></svg>