<svg xmlns="http://www.w3.org/2000/svg" viewBox="0 0 125.05 141.73"><defs><style>.cls-1{fill:#fff;}.cls-2{fill:#231815;}.cls-3{fill:#2c8ac8;}.cls-4{fill:none;}</style></defs><g id="レイヤー_2" data-name="レイヤー 2"><g id="レイヤー_2-2" data-name="レイヤー 2"><polygon class="cls-1" points="125.05 106.3 125.05 35.43 63.67 0 2.3 35.43 2.3 106.3 63.67 141.73 125.05 106.3"/><rect class="cls-2" x="11.33" y="24.52" width="74.27" height="4" transform="translate(-6.76 27.78) rotate(-29.99)"/><rect class="cls-3" x="26.82" y="33.27" width="74.27" height="4" transform="translate(-9.07 36.7) rotate(-29.99)"/><rect class="cls-2" x="107.68" y="42.41" width="4" height="74.27"/><rect class="cls-2" x="92.35" y="51.45" width="4" height="74.27"/><rect class="cls-2" x="31.33" y="51.45" width="4" height="74.65" transform="translate(-60.22 73.25) rotate(-60)"/><rect class="cls-2" x="31.49" y="69.33" width="4" height="74.65" transform="translate(-75.62 82.33) rotate(-60)"/><polygon class="cls-1" points="14.32 42.37 36.53 55.2 125.05 35.43 72.54 65.75 73.2 122.51 63.67 134.57 63.67 77.19 18.73 58.48 14.32 42.37"/><polygon class="cls-4" points="125.05 106.3 125.05 35.43 63.67 0 2.3 35.43 2.3 106.3 63.67 141.73 125.05 106.3"/><polygon class="cls-2" points="90.04 15.22 97.96 19.8 100.4 17.36 92.96 13.17 90.04 15.22"/></g></g></svg>