<?xml version="1.0" encoding="utf-8"?>
<!-- Generator: Adobe Illustrator 25.3.1, SVG Export Plug-In . SVG Version: 6.00 Build 0)  -->
<svg version="1.1" id="レイヤー_1" xmlns="http://www.w3.org/2000/svg" xmlns:xlink="http://www.w3.org/1999/xlink" x="0px"
	 y="0px" viewBox="0 0 840 1100.7" style="enable-background:new 0 0 840 1100.7;" xml:space="preserve">
<style type="text/css">
	.st0{fill:#FFFFFF;}
	.st1{clip-path:url(#SVGID_2_);}
	.st2{fill:#2B89C7;}
	.st3{fill:#231815;}
</style>
<path class="st0" d="M183.6,756.1c0.9-1.1,1.1-1.3,1.9-2.2c-0.9,0.4-1.8,0.6-2.7,0.6c-0.3,0-0.4-0.1-0.4-0.4
	c-0.2-1.9-0.8-2.2-4.4-3.3v-0.4c1.8,0.1,2.4,0.2,5.2,0.2c0.5,0,0.6-0.2,0.6-0.8v-11.3c-0.1-2.3-0.1-3.6-0.1-4
	c1.2,0.1,2.1,0.2,2.7,0.3c2.2,0.2,3,0.4,3,0.8s-0.3,0.6-1.6,1.1l0.1,14.4c-0.1,1.3-0.4,1.7-1.7,2.5c1.7,1.1,2.1,1.4,3.9,2.7
	c0.1,0.1,0.1,0.2,0.1,0.3c0,0.2-0.2,0.3-0.4,0.3h-15.5c1,1.8,2.3,3.3,4,4.4c1.3-1.3,2.4-2.7,3.4-4.3c4.6,2.1,4.6,2.1,4.6,2.5
	c0,0.3-0.2,0.4-0.6,0.4h-0.2c-0.1,0-0.3,0-0.4,0h-0.4c-1.7,0.8-3.4,1.5-5.2,2.1c2.7,1.5,5.5,2.2,11.3,2.7v0.4
	c-1.6,0.5-2.8,1.8-3.2,3.4c-0.1,0.3-0.2,0.4-0.5,0.4c-0.9-0.2-1.9-0.5-2.7-0.8c-3.6-1.4-6.6-3.8-8.7-7c-0.8-1.3-1.5-2.7-2.1-4.2
	h-0.3c-1.1,0.9-2.2,1.8-3.5,2.5v4.6c2.2-0.2,4.4-0.4,6.5-0.8l0.1,0.6c-4.2,1.8-6.8,2.7-13.9,4.6c-0.2,1-0.4,1.4-0.8,1.4
	s-0.5-0.3-1.6-5.2h1.1c1,0,2.7-0.1,4.6-0.2v-3.1c-3.5,1.5-7.1,2.4-10.8,2.9l-0.1-0.4c3.2-1.1,6.2-2.5,9.1-4.3
	c1.3-0.8,2.6-1.7,3.7-2.7h-9c-0.8,0-1.6,0.1-2.4,0.2l-0.3-1.4c0.3,0.1,1.3,0.2,2.7,0.3H171v-1.2c0-0.3-0.1-1.3-0.1-1.7
	c-0.2,0-0.3,0-0.4,0c-0.1,0-0.3,0-0.4,0c-0.2,0-0.3-0.1-0.3-0.3c0-1.5-0.4-2-1.5-2.5V750c0.6,0.1,1.1,0.1,1.7,0.1
	c0.4,0,0.5-0.2,0.5-0.7v-3h-2.7c0,5.2,0,5.2,0.1,7c0,0.4-0.2,0.6-0.5,0.7c-0.8,0.2-1.6,0.2-2.5,0.3c-0.5,0-0.8-0.2-0.9-0.7l0.1-7.3
	h-2.7v6.5c-0.1,0.6-0.4,0.8-2,0.8c-0.3,0-0.5,0-0.8,0h-0.1c-0.6,0-0.8-0.2-0.8-0.7c0.1-2.8,0.1-3.8,0.1-5.4s0-2.2-0.1-3.7
	c1.8,0.7,2.4,0.9,4.2,1.7h2.2v-2.7h-5.9c-0.8,0-1.5,0.1-2.3,0.3l-0.3-1.4c0.9,0.2,1.7,0.3,2.6,0.3h5.9v-2.9h-3.9
	c-0.9,0.9-1.8,1.7-2.8,2.5l-0.4-0.3c1-2.1,1.7-4.4,2-6.8c4.5,1.2,4.6,1.2,4.6,1.6s-0.4,0.5-1.2,0.6c-0.4,0.6-0.9,1.1-1.3,1.6h3.1
	c0.1-1.4,0-2.8-0.1-4.3c1,0.1,1.7,0.2,2.2,0.2c2.4,0.2,3,0.4,3,0.8s-0.3,0.5-1.4,1v2.3h1.9l2-2.3c1.4,1.1,1.8,1.5,3.2,2.7
	c0.1,0,0.1,0.1,0.1,0.2c0,0.2-0.2,0.3-0.5,0.3h-6.7v2.9h2.8c0.8-1,1.1-1.2,2-2.2c1,0.8,2,1.6,3,2.5c0.1,0,0.1,0.1,0.1,0.2
	c0,0.1-0.2,0.2-0.4,0.2h-7.6v2.7h2.6l1.6-1.7c1.2,0.8,1.6,1,2.8,1.8c0.2,0.2,0.3,0.3,0.3,0.5c0,0.3-0.2,0.5-0.9,1c0,0.7,0,0.7,0,2.1
	v1.6c-0.2,1.2-0.5,1.5-2.1,2c1.3,0.1,3.7,0.4,4,0.5s0.5,0.2,0.5,0.4c0,0.3-0.4,0.6-1.5,0.9v1.4L183.6,756.1z M181.8,737.1
	c0,0.3-0.3,0.6-1.4,1c0,2.6,0,6.2,0.1,10.3c0,0.4-0.1,0.5-0.5,0.7c-0.9,0.2-1.8,0.2-2.7,0.3c-0.5,0-0.6-0.2-0.6-0.6
	c0.1-2.3,0.1-2.7,0.1-6.6c0-3.1,0-4.7-0.1-6C181.3,736.5,181.8,736.7,181.8,737.1L181.8,737.1z"/>
<path class="st0" d="M201.9,767.6c0,0.5-0.1,0.7-0.3,0.8c-0.8,0.3-1.6,0.4-2.5,0.3c-1.1,0-1.4-0.2-1.4-0.9c0.1-4.4,0.1-5.5,0.1-6.9
	c0-7.3,0-8.2-0.1-10.3c2.1,1,2.6,1.3,4.5,2.4h5.3c0.9-1.1,1.2-1.4,2.1-2.4c1.3,1,1.7,1.3,2.9,2.2c0.4,0.3,0.5,0.5,0.5,0.7
	s-0.3,0.5-1.2,1.1c0,3,0,8.8,0.1,12.4c0,0.9-0.7,1.1-2.8,1.1c-1,0-1.3-0.2-1.3-0.8v-1.9h-5.9L201.9,767.6z M201.9,764.8h5.9v-10.9
	h-5.9V764.8z M207.5,748.9c0,0.4-0.1,0.6-0.3,0.8c-0.8,0.3-1.7,0.4-2.5,0.3c-1.2,0-1.4-0.2-1.5-0.8c0.1-3.2,0.1-4.8,0.1-8.6
	c0-3.1,0-3.9-0.1-6.2c1.7,0.7,3.3,1.4,4.8,2.3h11.3c0.9-1,1.2-1.3,2.2-2.3c1.4,1,1.9,1.3,3.1,2.4c0.3,0.3,0.5,0.5,0.5,0.7
	s-0.2,0.5-1.4,1.1v1.9c0,1.4,0,3.1,0.1,8.1c0,0.5-0.1,0.8-0.6,0.9c-0.8,0.2-1.7,0.3-2.5,0.3c-0.9,0-1.2-0.2-1.2-0.8v-1.9h-12.1
	L207.5,748.9z M207.5,746.5h12.1v-8.9h-12.1V746.5z M219.1,767.4c0,0.5-0.1,0.7-0.6,0.8c-0.7,0.2-1.5,0.2-2.3,0.2
	c-0.9,0-1.2-0.2-1.2-0.8c0.1-4.5,0.1-5.4,0.1-7.3c0-5.7,0-7.6-0.1-9.6c1.5,0.7,3,1.5,4.4,2.4h5.4c0.9-1,1.2-1.4,2.1-2.3
	c1.4,1.1,1.8,1.4,3.1,2.4c0.3,0.3,0.5,0.5,0.5,0.7s-0.3,0.5-1.3,1c0,5.4,0,10.4,0.1,12.6c0,0.4-0.1,0.6-0.3,0.7
	c-0.7,0.3-1.5,0.5-2.4,0.4c-1.2,0-1.4-0.1-1.5-0.8v-2.1h-6.2L219.1,767.4z M219.1,764.8h6.2v-10.9h-6.2V764.8z"/>
<path class="st0" d="M245.4,768.7c2.5-2.6,4.4-5.7,5.7-9.1c1-2.6,1.7-5.3,1.9-8.1c0.1-0.7-0.1-1.3-0.6-1.8c-2.7,0.4-5.4,1.2-7.9,2.3
	c-0.5,0.3-1.1,0.5-1.6,0.5c-1,0-2.1-0.8-3.4-2.5c-0.6-0.6-1-1.5-1.1-2.4c0-0.3,0.1-0.5,0.1-0.8c0.8,1.3,2.1,2.1,3.6,2.1
	c1.2,0,1.5,0,7.2-0.9c3.4-0.5,5.1-0.8,11.6-1.5c1.1-0.1,2.3-0.3,3.3-0.8c0.3-0.2,0.7-0.3,1.1-0.3c0.9,0.1,1.7,0.4,2.4,0.8
	c1.4,0.7,2.2,1.5,2.2,2.3s-0.6,1.3-1.6,1.3c-0.2,0-0.5,0-0.7-0.1c-4.2-0.7-8.4-0.8-12.6-0.3c2.2,1.2,2.6,1.7,2.6,2.7
	c0,1.7-1.6,5.8-3.4,8.6c-2.1,3.4-5.1,6.3-8.6,8.2L245.4,768.7z M244.8,737.8c1.2,1.3,2.9,2.1,4.6,2.1c1.8,0,3.6-0.3,5.3-0.9
	c1.2-0.3,2.3-0.8,3.3-1.4c0.4-0.2,0.8-0.4,1.2-0.3c0.7,0.1,1.4,0.3,2,0.8c1,0.6,1.4,1.2,1.4,1.9s-0.5,1.1-2.2,1.5
	c-3.1,0.7-6.3,1-9.4,1.1c-3,0-4.9-1.3-6.6-4.5L244.8,737.8z M263.1,735.4c3.9,1.4,6.3,3.5,6.3,5.5c0,1-0.5,1.6-1.2,1.6
	s-0.7-0.1-1.7-1.9c-1-1.7-2.3-3.2-3.8-4.5L263.1,735.4z M267,732.8c1.6,0.4,3,1,4.4,1.9c1.4,1,2,1.9,2,3c0,0.9-0.5,1.5-1.1,1.5
	c-0.5,0-0.7-0.2-1.2-1.1c-1.1-1.8-2.6-3.4-4.3-4.7L267,732.8z"/>
<path class="st0" d="M289.6,768.6c3.2-1.8,5.7-4.6,7.2-8c1.3-3.1,1.9-6.9,2-12.4c-2.6,0.1-5.1,0.4-7.7,1v2c0,1.2,0,4.3,0.1,5.4v0.3
	c0,1.9-0.5,2.8-1.6,2.8c-0.6,0-1.3-0.5-1.9-1.4c-0.5-0.7-0.8-1.4-0.8-2.2c0-0.4,0.1-0.7,0.3-1.1c0.5-1.6,0.7-3.3,0.6-5
	c-1.4,0.3-2.7,0.8-4,1.4c-0.5,0.3-1,0.4-1.5,0.5c-1,0-2.4-1.3-3.4-3c-0.4-0.6-0.6-1.3-0.7-2c0-0.2,0-0.3,0.1-0.5
	c0.8,1.2,2.2,2,3.7,1.9c2-0.1,3.9-0.4,5.9-0.8c0-5.7-0.5-6.7-3.1-8c0.4-0.3,0.8-0.4,1.3-0.4c1.7,0.2,3.2,0.7,4.6,1.6
	c1,0.7,1.3,1.1,1.3,1.8c0,0.4-0.1,0.8-0.3,1.2c-0.3,1.1-0.4,2.2-0.5,3.3c1.8-0.3,4.3-0.6,7.7-1c0-0.6,0-1.5,0-3
	c0-2.7-0.2-3.8-0.8-4.5c-0.7-0.8-1.7-1.3-2.8-1.5c0.5-0.4,1.2-0.6,1.8-0.5c1.7,0,3.3,0.4,4.8,1.1c1.1,0.5,1.6,1.1,1.6,1.9
	c0,0.3-0.1,0.6-0.2,0.9c-0.6,1.3-0.6,1.9-0.8,5.2c1.5,0,2.9-0.3,4.2-0.8c0.3-0.2,0.7-0.3,1-0.3c1,0.1,1.9,0.4,2.7,1
	c1,0.6,1.4,1.2,1.4,1.8s-0.5,1.1-1.1,1.1h-0.1c-0.2,0-0.4,0-0.6,0c-2.1-0.2-4.2-0.3-6.4-0.3h-1.2c-0.2,8.1-0.8,11.2-3,14.2
	c-2.4,3.2-5.8,5.5-9.6,6.7L289.6,768.6z M304.6,734.7c1.3,0.5,2.5,1.2,3.5,2.1c1,0.8,1.6,2,1.7,3.3c0,1-0.5,1.6-1.2,1.6
	c-0.5,0-0.8-0.3-1.2-1.4c-0.8-1.9-1.9-3.7-3.4-5.1L304.6,734.7z M308.6,732.9c1.3,0.4,2.5,1,3.5,1.9c1.1,0.7,1.8,1.9,1.9,3.3
	c0,0.9-0.4,1.5-1.1,1.5c-0.5,0-0.7-0.2-1.2-1.3c-0.8-1.9-2.1-3.5-3.6-4.8L308.6,732.9z"/>
<path class="st0" d="M319.9,758c5.2-3.1,9.9-6.9,14.2-11.3c4.1-4.1,6.4-7.1,6.4-8.4c0-0.8-0.9-1.8-2.3-2.5c0.4-0.1,0.8-0.2,1.2-0.2
	c1.4,0.1,2.7,0.5,3.8,1.3c1.7,1,2.8,2.2,2.8,3c0,0.7-0.2,0.9-1.5,1.9c-0.1,0.1-0.1,0.1-2.5,2.3c-2.7,2.5-2.7,2.5-5.4,4.8
	c1,0.6,1.9,1.3,2.6,2.2c0.4,0.5,0.4,0.9,0.4,3.7c0,1.8,0,2.2,0.3,9.5c0,0.5,0,1.1,0,1.4c0,1.6-0.5,2.3-1.6,2.3
	c-1.4,0-3.5-2.3-3.5-3.9c0-0.4,0.1-0.8,0.2-1.2c0.6-3.2,0.9-6.5,0.8-9.8c0-1.9-0.1-2.5-0.6-3.2c-2.6,2-5.3,3.8-8.1,5.4
	c-2.3,1.2-4.7,2.2-7.1,3L319.9,758z"/>
<path class="st0" d="M364.1,739.9c4.2,0.7,6.5,1.3,8.3,2.5c1.2,0.6,1.9,1.9,1.9,3.3c0,1.8-0.9,3.2-2,3.2c-0.6,0-1-0.3-1.6-1.3
	c-1.5-3-3.9-5.5-6.7-7.2L364.1,739.9z M393,742.1c-2.1,4.4-5,8.4-8.5,11.8c-3.3,3.3-7,6.2-11,8.7c-0.7,0.5-1.4,1-2,1.7
	c-0.4,0.5-0.9,0.9-1.6,1c-1,0-2.4-1.1-3.7-2.8c-1.1-1.2-1.7-2.7-1.8-4.2c0-0.3,0.1-0.7,0.2-1c1,1.8,2.3,2.8,3.3,2.8
	c1.6,0,6.6-2.6,11.1-5.8c5.1-3.5,9.7-7.6,13.7-12.2H393z"/>
<path class="st0" d="M409.3,738c-0.6,3.5-1.7,6.9-3.4,10l0.3,0.3h3.1c0.8-1,1.1-1.3,2-2.2c1.1,1,1.5,1.2,2.5,2.2
	c0.3,0.3,0.4,0.4,0.4,0.6s-0.2,0.4-1,0.8v5.4c0,4.8,0,4.8,0.1,9c0,0.4-0.3,0.8-0.7,0.8c-0.7,0.2-1.3,0.3-2,0.3
	c-0.9,0-1.1-0.2-1.1-0.8v-1.3h-3v3.6c0,0.4-0.2,0.7-0.6,0.8c-0.7,0.2-1.5,0.3-2.2,0.3c-0.8,0-1.1-0.2-1.1-0.7
	c0.1-5.5,0.2-8.4,0.2-8.7v-5.6c-1,1.4-2.2,2.7-3.5,3.8l-0.3-0.3c3.1-5.6,5.1-11.8,5.7-18.2h-2.3c-0.7,0-1.5,0.1-2.2,0.2L400,737
	c0.8,0.2,1.6,0.3,2.4,0.3h6.1c1.1-1.3,1.4-1.7,2.5-2.8c1.6,1.3,2,1.7,3.5,3.1c0.1,0.2,0.2,0.2,0.2,0.3s-0.1,0.2-0.4,0.2L409.3,738z
	 M406.6,762.4h3.1v-13.2h-3.1V762.4z M430.7,749.4h0.4c0.9-1.2,1.2-1.6,2.1-2.7c1.3,1.2,1.7,1.7,3,3c0.1,0.2,0.2,0.2,0.2,0.3
	s-0.1,0.2-0.4,0.2h-5.3v4.7c0,4.7,0,5.2,0.2,13.2c0.1,0.4-0.2,0.8-0.6,0.9c0,0,0,0-0.1,0c-0.9,0.2-1.8,0.2-2.6,0.2
	c-1,0-1.3-0.2-1.3-0.8c0.2-8.1,0.2-8.7,0.2-13.5v-4.7h-4.6c-0.3,6.7-1,9.7-3.1,12.8s-4.5,4.8-8.8,6.6l-0.2-0.4
	c1.6-1.1,3.1-2.5,4.3-4.1c1.9-2.7,3-5.8,3.3-9c0.2-1.4,0.3-3.4,0.4-5.9h-1.1c-0.7,0-1.3,0.1-2,0.2l-0.2-1.2c0.8,0.2,1.6,0.3,2.4,0.3
	h1.1v-12h-0.2c-0.8,0-1.7,0.1-2.5,0.2l-0.2-1.3c0.9,0.2,1.8,0.3,2.7,0.3h11.5c0.9-1,1.8-1.9,2.7-2.8c1.6,1.2,2,1.6,3.6,3
	c0.2,0.2,0.3,0.3,0.3,0.4s-0.2,0.3-0.5,0.3h-4.6L430.7,749.4z M422.1,737.4c0,6.6,0,9.6-0.1,12h4.6v-12H422.1z"/>
<path class="st0" d="M453.5,754.7c0.2-1.3,0.3-2.7,0.3-4.1c0-0.7,0-1.1-0.1-1.9c1.3,0.1,2.3,0.2,2.9,0.3h0.1
	c2.3,0.2,3.2,0.5,3.2,0.8s-0.5,0.7-1.7,1c-0.2,2-0.4,2.7-0.5,3.8l4.8-0.1l2.2-2.2l1.7,1.2c0.3,0.3,0.8,0.6,1.5,1.1
	c0.4,0.3,0.5,0.5,0.5,0.7s-0.3,0.5-0.7,0.8c-0.3,0.1-0.5,0.3-0.8,0.5v7.6c0,0.7,0.1,0.8,1.1,0.8c1.1,0.1,2.1,0,3.2-0.3
	c0.6-0.2,1.1-1.1,1.7-3.1c0.4-1.3,0.4-1.4,1.3-4.5l0.5,0.1l-0.2,6c0,0,0,0.1,0,0.2c0,0.8,0.1,0.9,0.6,1.1c0.8,0.2,1.4,1,1.3,1.8
	c0,1.3-1,2-2.9,2.1c-1.7,0.2-4.3,0.2-6.1,0.2c-1.3,0.1-2.5-0.1-3.7-0.5c-0.7-0.5-1.1-1.3-1-2.2l0.1-10.5l-5.3,0.1
	c-0.9,4.1-2.4,6.8-5.2,9.2c-1.9,1.6-4.1,2.7-6.4,3.5c-1.1,0.3-1.7,0.5-4.5,1.2l-0.2-0.3c7.5-3.3,10.6-6.9,12-13.4l-6.8,0.1
	c-0.7,0-1.5,0.1-2.2,0.2l-0.4-1.3c0.8,0.1,1.7,0.2,2.5,0.2h0.2L453.5,754.7z M456.5,740.2c-0.1,1.4-0.4,2.7-0.9,4
	c-1.8,4.4-6.5,7.3-13.6,8.2l-0.2-0.4c4.3-1.5,6.5-2.9,8.3-5.4c1.4-1.8,2.2-4.1,2.2-6.4H447v0.6c0.1,1.2-0.2,2.4-0.6,3.5
	c-0.5,1.2-1.7,2.1-3,2.2c-1.1,0-2-1.1-2-2.7c-0.1-0.8,0.4-1.6,1.2-1.9c2.1-1.1,2.9-2.2,3.5-5.1h0.4c0.2,0.8,0.3,1.6,0.4,2.4h9.2V737
	c0-0.8,0-1.7-0.2-2.5c4.8,0.5,5.1,0.5,5.6,0.7s0.6,0.3,0.6,0.5c0,0.4-0.5,0.7-1.6,1v2.8h8.4c1-1,1.3-1.3,2.3-2.3
	c1.8,1.4,2.3,1.8,4.1,3.3c0.3,0.3,0.5,0.5,0.5,0.6c0,0.4-0.5,0.6-1.2,0.6c-0.3,0-0.8,0-1.5-0.1c-1.9,1.1-4,2.3-5.1,2.9l-0.4-0.2
	c0.7-1.3,1.2-2.7,1.7-4.1H464v5.8c0,0.6,0.2,0.7,1.2,0.8h3.4c1.8,0,2.4-0.2,2.8-0.7c0.7-1.1,1.3-2.3,1.8-3.6h0.4l-0.1,2.6v0.3
	c0,0.7,0,0.7,1,1.1c0.5,0.2,0.9,0.7,0.9,1.2c0,1.1-0.7,1.7-2.6,1.9c-0.5,0.1-3.6,0.2-4.7,0.2h-0.5c-0.5,0-1.7,0-3.6-0.1
	c-2.9,0-3.8-0.6-3.8-2.4v-7.2L456.5,740.2z"/>
<path class="st0" d="M499.6,744.9c-1.7,2.1-3.5,4.1-5.5,6c4.4-0.1,5.1-0.1,13-0.6c-1.2-1.5-2.6-2.8-4.1-4l0.2-0.3
	c2.3,0.6,4.6,1.4,6.8,2.5c2.3,1.2,3.2,2.2,3.2,3.7s-0.9,3.1-1.8,3.1c-0.5,0-0.8-0.3-1.6-1.7c-0.5-0.9-1.2-1.7-1.8-2.5
	c-5.4,1.3-5.4,1.3-7.8,1.7c-2.9,0.5-9,1.4-11.9,1.8c-0.1,1.1-0.4,1.5-0.8,1.5s-0.8-1-1.7-5.5c2.2,0.2,4.4,0.3,6.6,0.2
	c0.9-1.9,1.6-3.9,2.1-6H491c-0.8,0-1.7,0.1-2.5,0.3l-0.3-1.3c0.9,0.2,1.9,0.3,2.8,0.3h15.6c1-1.2,1.4-1.5,2.4-2.6l1.2,0.8
	c0.2-0.8,0.4-1.7,0.5-2.6H488c0.1,1.5-0.2,3-0.7,4.3c-0.4,1.2-1.5,2-2.7,2.2c-1.3-0.1-2.3-1.3-2.2-2.7c0-0.5,0.2-1,0.6-1.4
	c0.1-0.1,0.1-0.1,1.1-0.7c1-0.5,1.8-1.3,2.4-2.3c0.4-0.9,0.6-1.8,0.7-2.7h0.5c0.3,0.8,0.5,1.6,0.5,2.5h9.2v-2.1c0-1,0-1.9-0.2-2.9
	c5.2,0.3,6.2,0.5,6.2,1.1c0,0.4-0.5,0.7-1.8,1v2.9h9c0.9-1,1.2-1.3,2.2-2.3c1.9,1.3,2.5,1.7,4.3,3.1c0.3,0.3,0.4,0.4,0.4,0.7
	c0,0.2-0.1,0.3-0.3,0.4c-0.3,0.1-0.7,0.2-1,0.2h-0.7c-0.2,0-0.5,0-0.7,0c-0.5,0.3-0.9,0.5-1.1,0.6c-1.8,1-1.8,1-2.4,1.2l2,1.5
	c0.2,0.1,0.2,0.2,0.2,0.3s-0.1,0.2-0.2,0.2L499.6,744.9z M507.3,759.5c1.5-1.6,1.5-1.6,2.8-3c1.8,1.3,2.4,1.7,4.2,3.3
	c0.1,0.1,0.2,0.2,0.2,0.3s-0.2,0.2-0.3,0.2h-12.8v6.7h8.5c1.2-1.4,1.6-1.8,2.9-3.2c1.8,1.3,2.4,1.8,4.4,3.4c0.2,0.2,0.3,0.3,0.3,0.4
	s-0.1,0.2-0.3,0.2h-31.1c-1,0-2.1,0.1-3.1,0.3l-0.3-1.4c1.1,0.2,2.3,0.3,3.5,0.3h11v-6.7h-8.3c-0.9,0-1.9,0.1-2.8,0.2l-0.3-1.3
	c1,0.2,2.1,0.3,3.1,0.3h8.3v-1.6c0-1.3,0-2.6-0.2-3.8c1.1,0.1,2.1,0.2,2.7,0.3c2.8,0.3,3.3,0.4,3.3,0.8s-0.2,0.5-1.6,1v3.4h5.9
	V759.5z"/>
<image style="overflow:visible;enable-background:new    ;" width="5203" height="3909" xlink:href="79E518F3B70B5455.jpeg"  transform="matrix(0.1613 0 0 0.1613 0.2615 -0.3483)">
</image>
<path class="st0" d="M47.7,852.6c-1.1,0-2.2,0.1-3.3,0.2v-2.2c1.1,0.2,2.2,0.2,3.3,0.2h8.4v-2.5c0-0.9-0.1-1.8-0.2-2.7h2.4
	c-0.1,0.9-0.2,1.8-0.2,2.7v2.6H67c1.1,0,2.2,0,3.4-0.2v2.2c-1.1-0.1-2.2-0.2-3.4-0.2h-8.1c3.4,6.1,7.4,10.3,12.4,13
	c-0.6,0.6-1,1.2-1.4,2c-2.3-1.5-4.4-3.3-6.2-5.2c-2.4-2.5-4.3-5.3-5.6-8.4c0.1,1.8,0.1,2.9,0.1,3.9v6.8h3.3c1,0,1.9,0,2.9-0.2v2.1
	c-1-0.2-2-0.2-3-0.2H58v2.8c0,1.2,0.1,2.3,0.2,3.5h-2.4c0.2-1.2,0.2-2.3,0.2-3.5v-2.8h-2.9c-1,0-2,0-3,0.2v-2.1c1,0.1,2,0.2,3,0.2
	H56V858c0-1.1,0-2.2,0.1-3.9c-1.3,3.2-3.3,6.2-5.7,8.7c-1.7,1.9-3.6,3.6-5.7,5c-0.3-0.7-0.8-1.3-1.4-1.8c2.7-1.6,5-3.7,7-6.1
	c1.9-2.1,3.6-4.5,4.9-7.1L47.7,852.6z"/>
<path class="st0" d="M78.3,848.5c-0.9,0-1.7,0-2.6,0.2v-2c0.9,0.1,1.8,0.2,2.7,0.2h4.9c0.8,0,1.7,0,2.5-0.2v2
	c-0.8-0.1-1.6-0.1-2.4-0.1h-1.9c-0.3,2.6-1,5.2-2.1,7.6h3.8c0.6,0,1.2,0,1.9-0.1c-0.1,0.8-0.1,1.6-0.1,2.4v9.3c0,0.8,0,1.7,0.1,2.5
	h-1.9v-1.5h-3.7v3.2h-2c0.1-1,0.2-1.9,0.2-2.9v-6.7c0-1.1,0-2,0.1-3.4c-0.6,1.3-1.3,2.6-2.2,3.7c-0.2-0.7-0.6-1.3-1.1-1.8
	c1.9-2.2,3.3-4.8,4.1-7.6c0.5-1.5,0.8-3.1,1-4.7L78.3,848.5z M79.5,867.1h3.7v-9.4h-3.7V867.1z M89.9,848.5c-1,0-1.9,0-2.9,0.2v-2.1
	c1,0.1,2,0.2,3,0.2h9.5c1,0,2,0,3-0.2v2.1c-1-0.1-1.9-0.2-2.9-0.2h-0.7v8.3h1c1,0,2,0,3-0.2v2.1c-1-0.1-2-0.2-3-0.2h-1v10.8
	c0,1.1,0.1,2.1,0.2,3.2h-2.3c0.1-1.1,0.2-2.1,0.2-3.2v-10.8h-5c-0.3,6.7-1.6,10.3-5,14.3c-0.5-0.6-1.1-1-1.7-1.3
	c3.2-3,4.6-6.8,4.8-12.9h-0.8c-1,0-2,0-3,0.2v-2.1c1,0.1,2,0.2,3,0.2h0.9v-8.3L89.9,848.5z M92.1,855.8v1H97v-8.3h-4.9V855.8z"/>
<path class="st0" d="M123.2,860.5c1.1,0,2.2,0,3.4-0.2c-0.1,0.7-0.1,1.3-0.1,2.6l-0.1,6.1c0,0.9,0.3,1,2.7,1c2.1,0,2.7-0.2,2.9-0.7
	c0.4-1.5,0.5-3,0.5-4.5c0.6,0.4,1.3,0.6,1.9,0.8c-0.5,6-0.7,6.2-5.5,6.2c-3.7,0-4.4-0.4-4.4-2.4v-0.2l0.1-7H119
	c-0.4,1.8-1.2,3.5-2.3,5c-0.9,1.1-2,2.1-3.2,2.9c-1.5,1-3.2,1.9-5,2.5c-0.3-0.7-0.8-1.3-1.3-1.7c2.1-0.6,4-1.5,5.8-2.7
	c2.1-1.4,3.6-3.5,4.2-5.9h-4.8c-1.1,0-2.2,0-3.2,0.2v-2.1c1.1,0.1,2.1,0.2,3.2,0.2h5.2c0.1-0.8,0.2-1.7,0.2-2.5c0-0.5,0-1.1-0.1-1.6
	h2.3c-0.1,0.6-0.2,1.3-0.2,1.9c-0.1,0.7-0.1,1.5-0.2,2.2L123.2,860.5z M119.2,847.8c0-0.7-0.1-1.5-0.2-2.2h2.3
	c-0.2,0.7-0.2,1.4-0.2,2.2v0.9h8.9c1,0,2,0,3-0.2c-0.1,0.7-0.1,1.4-0.1,2.1v1.5c0,0.7,0,1.4,0.1,2.1h-2v-3.8h-7.5v4.3
	c0,0.4,0.1,0.5,0.2,0.6c0.6,0.2,1.3,0.2,1.9,0.2c0.8,0.1,1.7,0,2.4-0.3c0.3-0.2,0.5-1,0.5-2.4c0.6,0.3,1.2,0.5,1.8,0.6
	c-0.1,1.9-0.4,2.7-0.9,3.2s-1.7,0.7-3.9,0.7c-3.2,0-3.9-0.3-3.9-1.7v-5.2h-3.7c-0.1,1.2-0.5,2.3-1.1,3.3c-1.1,1.8-2.7,3.2-4.7,3.8
	c-0.9,0.3-1.8,0.6-2.8,0.9c-0.3-0.6-0.7-1.1-1.1-1.7c3.2-0.6,4.7-1.2,6-2.4c1.1-1,1.8-2.5,1.8-4h-6.4v3.8h-2
	c0.1-0.7,0.1-1.4,0.1-2.1v-1.5c0-0.7,0-1.4-0.1-2.1c1,0.1,2,0.2,3,0.2h8.3L119.2,847.8z"/>
<path class="st0" d="M159.1,863.8c1.1,0,2.1,0,3.2-0.2v2c-1.1-0.1-2.1-0.2-3.2-0.2h-6.4v4.2h8.8c1.3,0,2.5,0,3.8-0.2v2.1
	c-1.3-0.1-2.6-0.2-3.9-0.2h-18.7c-1.3,0-2.6,0-3.9,0.2v-2.1c1.3,0.2,2.5,0.2,3.8,0.2h8.2v-4.2H145c-1.1,0-2.1,0-3.2,0.2v-2
	c1.1,0.1,2.1,0.2,3.2,0.2h5.8v-0.5c0-0.8-0.1-1.6-0.2-2.4h2.3c-0.1,0.8-0.2,1.6-0.2,2.4v0.5H159.1z M150.8,847.4
	c0-0.7-0.1-1.3-0.2-2h2.3c-0.1,0.7-0.2,1.3-0.2,2v0.8h7.8c2,0,3,0,4-0.1c-0.1,0.7-0.1,1.4-0.1,2.1v1.5c0,0.7,0,1.3,0.1,2h-2v-3.9
	h-21v3.9h-2v-0.4c0.1-0.6,0.1-1.1,0.1-1.7V850c0-0.7,0-1.3-0.1-2c1.2,0.1,2.5,0.1,3.7,0.1h7.5L150.8,847.4z M146.4,854.4
	c-1.2,0-2.3,0-3.5,0.2v-1.9c1.1,0.1,2.3,0.2,3.4,0.2h11.6c1.2,0,2.3,0,3.4-0.2v1.9c-1.1-0.1-2.3-0.2-3.4-0.2h-7.7
	c-0.7,1.5-1.5,2.8-2.4,4.2c3.3-0.1,5.9-0.2,10-0.5c-0.9-0.8-1.8-1.5-2.8-2.1l1.4-0.9c2.3,1.6,4.4,3.4,6.4,5.4l-1.4,1.2
	c-0.6-0.8-1.3-1.5-2.1-2.1c-5.3,0.5-11.5,0.8-17.1,1c-0.4,0-0.8,0-1.1,0.1l-0.3-1.9c0.6,0.1,1.2,0.1,1.9,0.1c1,0,1.7,0,3.1-0.1
	c0.9-1.3,1.8-2.8,2.5-4.3L146.4,854.4z"/>
<path class="st0" d="M176.6,847.3c-1.3,3-2.3,9.2-2.3,14.1c0,1,0.1,2.8,0.1,4.2c0,0.2,0,0.3,0,0.8v0.6h0.1c0.4-1.8,1-3.6,1.8-5.3
	c0.1-0.2,0.2-0.4,0.2-0.6l1.5,0.7c-1.4,2.9-2.6,6.8-2.6,8.5c0,0.2,0,0.4,0.1,0.6l-2.1,0.2c0-0.3-0.1-0.4-0.2-1.1
	c-0.6-2.9-0.8-5.9-0.8-8.9c0-4.2,0.6-8.3,1.6-12.3c0.2-0.6,0.3-1.3,0.3-1.9L176.6,847.3z M179.6,852.9c1.8,0.4,3.6,0.6,5.4,0.5
	c1.2,0,2,0,3.2-0.1c0-2.8,0-2.8,0-5.1c0-0.4,0-0.8-0.1-1.2h2.2c-0.2,1.6-0.3,3.1-0.2,4.7c0,0.3,0,0.8,0,1.5c1.8-0.1,3.5-0.5,5.2-1.1
	l0.1,2c-0.1,0-0.1,0-2.1,0.4c-1.1,0.2-2.1,0.4-3.2,0.5c0,3,0.1,4.5,0.3,8.5c1.8,0.8,3.5,1.7,5,2.9c0.4,0.2,0.4,0.3,0.8,0.5l-0.9,2.1
	c-1.2-1.3-2.7-2.3-4.3-3.1c-0.1-0.1-0.2-0.1-0.3-0.2l-0.3-0.2c0,0.3,0.1,0.5,0.1,0.8c0,0.7-0.1,1.4-0.4,2c-0.7,1.6-2.6,2.5-5,2.5
	c-3.5,0-5.7-1.7-5.7-4.3s2.4-4.3,5.7-4.3c1.1,0,2.3,0.2,3.3,0.6c-0.1-0.6-0.2-3.5-0.3-7.8c-1.4,0.1-2.3,0.1-3.4,0.1s-2.3,0-3.4-0.1
	c-0.3,0-0.7-0.1-1-0.1c-0.2,0-0.3,0-0.5,0c-0.1,0-0.2,0-0.3,0h-0.1L179.6,852.9z M185.4,864.1c-2.3,0-3.9,1-3.9,2.5s1.4,2.4,3.5,2.4
	c1.1,0.1,2.2-0.3,3.1-1c0.5-0.7,0.7-1.5,0.6-2.3c0-0.2,0-0.9,0-0.9C187.6,864.3,186.5,864.1,185.4,864.1L185.4,864.1z"/>
<path class="st0" d="M209,871.4c0.1-1,0.2-2.1,0.2-3.2v-18.6c0-1,0-2-0.2-3.1h2.6c-0.1,1-0.2,2.1-0.1,3.1v5.6
	c4.6,1.7,9.1,3.8,13.4,6.3l-1.3,2.2c-3.5-2.4-7.3-4.4-11.2-5.9c-0.3-0.1-0.6-0.3-0.9-0.5h-0.1c0.1,0.6,0.1,1.2,0.1,1.8v9
	c0,1.1,0,2.1,0.1,3.2L209,871.4z"/>
<path class="st0" d="M235.9,854.7c1.2,0.2,2.3,0.2,3.5,0.2h15.4c0.7,0.1,1.3,0,1.9-0.2l1.1,1.3c-0.4,0.6-0.6,1.2-0.8,1.9
	c-2.6,7-6.7,10.8-14.5,13.4c-0.3-0.8-0.7-1.5-1.3-2.1c4-1.1,6.7-2.5,8.9-4.6s3.5-4.2,4.9-7.9h-15.6c-1.2,0-2.3,0-3.5,0.2
	L235.9,854.7L235.9,854.7z M238.4,847.7c1,0.2,2.1,0.3,3.2,0.2h10c1.1,0.1,2.1,0,3.1-0.2v2.3c-1-0.1-2.1-0.2-3.1-0.2h-10.1
	c-1,0-2.1,0-3.1,0.2L238.4,847.7L238.4,847.7z"/>
<path class="st0" d="M267.5,867.8c3-0.3,6-1,8.7-2.3c5.8-2.6,9.8-7,12.2-13.3c0.5,0.7,1.1,1.3,1.8,1.8c-2.4,5.2-5.2,8.7-9.1,11.5
	c-3.1,2.1-6.2,3.3-11.2,4.5c-0.6,0.1-1.2,0.3-1.8,0.5L267.5,867.8z M269.4,849.2c2.6,1.6,5,3.5,7.2,5.6l-1.6,1.9
	c-2.1-2.3-4.5-4.3-7.1-5.9L269.4,849.2z"/>
<path class="st0" d="M320.2,870.7c-2.8-3.5-6-6.6-9.6-9.3c-1.7,2-3.6,3.8-5.7,5.4c-1.9,1.4-3.8,2.6-5.9,3.6c-0.4-0.8-0.9-1.4-1.5-2
	c2.2-0.9,4.2-2,6.1-3.5c4.7-3.5,8.4-8.1,10.7-13.5c0.1-0.2,0.1-0.2,0.1-0.4c0.1-0.1,0.1-0.1,0.1-0.2c-0.2,0-0.5,0-0.7,0l-10,0.2
	c-1,0-2.1,0.1-3.1,0.2l-0.1-2.4c0.8,0.1,1.6,0.2,2.3,0.2h0.8l10.7-0.1c0.6,0,1.3-0.1,1.9-0.2l1.2,1.3c-0.4,0.4-0.6,0.9-0.8,1.5
	c-1.3,3-3,5.8-5,8.4c3.6,2.7,6.9,5.7,10,9L320.2,870.7z"/>
<path class="st0" d="M335.9,857.1c-0.1,0.2-0.1,0.3-0.2,0.5l-0.2,0.6l-0.1,0.7c-1,3.8-2.8,7.3-5.2,10.3c-0.6-0.5-1.3-1-2-1.3
	c2-2.1,3.5-4.6,4.4-7.4c0.5-1.3,0.9-2.7,1-4.1L335.9,857.1z M340.1,849.8c0.1-1,0-2.1-0.2-3.1h2.5c-0.1,1-0.2,2.1-0.1,3.1v2h7.6
	c1.2,0,2.3,0,3.5-0.2v2.3c-1.1-0.1-2.3-0.2-3.5-0.2h-7.6v14.9c0,1.1,0,2.1,0.1,3.2H340c0.2-1,0.2-2.1,0.2-3.2v-15h-7.4
	c-1.2,0-2.3,0-3.5,0.2v-2.3c1.2,0.2,2.3,0.2,3.5,0.2h7.3V849.8z M348.6,856.5c0.3,1.2,0.6,2.3,1.1,3.4c1.1,2.9,2.6,5.6,4.6,8
	c-0.7,0.4-1.4,0.8-1.9,1.4c-2.3-3.1-4-6.6-5.2-10.3c-0.3-0.8-0.5-1.5-0.8-2L348.6,856.5z M355.2,847.6c0,1.9-1.5,3.4-3.4,3.4
	s-3.4-1.5-3.4-3.4s1.5-3.4,3.4-3.4l0,0C353.7,844.2,355.2,845.7,355.2,847.6C355.3,847.6,355.3,847.6,355.2,847.6z M349.7,847.6
	c0,1.2,0.9,2.2,2.1,2.2s2.2-0.9,2.2-2.1c0-1.2-0.9-2.2-2.1-2.2l0,0C350.7,845.5,349.7,846.4,349.7,847.6z"/>
<path class="st0" d="M360.6,857.7c1.2,0.2,2.5,0.2,3.7,0.2h17.4c1.2,0,2.4,0,3.6-0.2v2.4c-1.2-0.1-2.4-0.1-3.7-0.1h-17.4
	c-1.2,0-2.5,0-3.7,0.1v-2.4H360.6z"/>
<path class="st0" d="M406.1,857.4c0,1.1-0.2,2.1-0.3,3.2c-0.3,3.1-1.7,5.9-4,7.9c-1.6,1.3-3.4,2.3-5.3,3c-0.3-0.8-0.8-1.5-1.4-2
	c3.9-1.3,6.4-3.2,7.6-5.9c0.8-2,1.2-4.1,1.2-6.2h-8.1c-1.2,0-2.3,0-3.5,0.2v-2.2c1.2,0.2,2.3,0.2,3.5,0.2h17.5c1.2,0,2.3,0,3.5-0.2
	v2.2c-1.1-0.1-2.3-0.2-3.5-0.2H406.1z M395.3,847.9c1.1,0.2,2.3,0.3,3.5,0.2h11.7c1.2,0.1,2.3,0,3.5-0.2v2.3
	c-1.1-0.1-2.3-0.2-3.4-0.2h-11.7c-1.1,0-2.3,0-3.4,0.2L395.3,847.9z"/>
<path class="st0" d="M423.7,857.7c1.2,0.2,2.5,0.2,3.7,0.2h17.4c1.2,0,2.4,0,3.6-0.2v2.4c-1.2-0.1-2.4-0.1-3.7-0.1h-17.4
	c-1.2,0-2.5,0-3.7,0.1v-2.4H423.7z"/>
<path class="st0" d="M458.2,854.5c2.7,1.1,5.2,2.4,7.6,3.9l-1.2,2c-2.4-1.7-4.9-3.1-7.6-4.1L458.2,854.5z M457.4,868.3
	c2.8-0.2,5.5-0.8,8.1-1.9c3.6-1.3,6.7-3.6,9-6.7c1.6-2,2.8-4.3,3.6-6.7c0.5,0.6,1.2,1.1,1.9,1.6c-2.6,6.2-6.3,10.3-11.5,12.9
	c-2.4,1.2-5,2-7.6,2.6l-1.6,0.3c-0.4,0.1-0.8,0.2-1.2,0.3L457.4,868.3z M460.5,847.4c2.6,1,5.1,2.3,7.4,3.8l-1.2,2
	c-2.3-1.7-4.8-3-7.4-4L460.5,847.4z"/>
<path class="st0" d="M493.3,870.6c-0.9,0-1.7,0-2.6,0.1v-2.1c0.9,0.1,1.7,0.2,2.6,0.2h11.5v-5.6h-10.6c-0.9,0-1.7,0-2.6,0.1v-2
	c0.9,0.1,1.7,0.2,2.6,0.2h10.5v-5.2h-11.2c-0.9,0-1.7,0-2.6,0.1v-2.1c0.9,0.1,1.7,0.2,2.6,0.2h11.1c1,0,1.5,0,2-0.1
	c0,0.8,0,1.3,0,2.3v13.6c0,0.6,0,1.2,0.1,1.9h-2.1v-1.5L493.3,870.6z"/>
<path class="st0" d="M520,867.8c3-0.3,6-1,8.7-2.3c5.8-2.6,9.8-7,12.2-13.3c0.5,0.7,1.1,1.3,1.8,1.8c-2.4,5.2-5.2,8.7-9.2,11.5
	c-3.1,2.1-6.2,3.3-11.2,4.5c-0.6,0.1-1.2,0.3-1.8,0.5L520,867.8z M521.9,849.2c2.6,1.6,5,3.5,7.2,5.6l-1.6,1.9
	c-2.1-2.3-4.5-4.3-7.1-5.9L521.9,849.2z"/>
<path class="st0" d="M563.9,857.4c-0.4,7.8-2.9,11.4-9.7,14.1c-0.3-0.8-0.8-1.5-1.4-2c6.2-2.1,8.5-5.3,8.8-12.1h-8.1
	c-1.2,0-2.3,0-3.5,0.2v-2.2c1.2,0.2,2.3,0.2,3.5,0.2H571c1.2,0,2.3,0,3.5-0.2v2.2c-1.1-0.1-2.3-0.2-3.5-0.2H563.9z M553,847.9
	c1.1,0.2,2.3,0.3,3.5,0.2h9.1c1.2,0,2.3,0,3.5-0.2v2.2c-0.4,0-1.5,0-3.4-0.1h-9.1c-1.1,0-2.3,0-3.4,0.2L553,847.9z M570.6,845.3
	c1.2,1.5,2.2,3,2.9,4.7l-1.5,0.8c-0.8-1.7-1.7-3.4-2.9-4.9L570.6,845.3z M574.3,844.2c1.2,1.5,2.1,3.1,2.9,4.7l-1.5,0.8
	c-0.8-1.7-1.7-3.3-2.9-4.8L574.3,844.2z"/>
<path class="st0" d="M598.2,853v-2.9c0-1,0-2-0.1-3.1h2.3c-0.1,0.9-0.1,1.9-0.1,2.8v3.2h2.6c1.2,0,2.3,0,3.5-0.2v2.3
	c-1.1-0.1-2.3-0.2-3.5-0.2h-2.6c0,5.8-0.4,8-1.5,10.2c-1.6,3-4.3,5.1-8.4,6.5c-0.3-0.7-0.8-1.4-1.3-1.9c3.9-1,7-3.3,8.2-6.4
	c0.7-1.8,0.8-3.6,0.9-8.4h-9.1v5c0,0.8,0,1.6,0.1,2.4h-2.4c0.1-0.8,0.2-1.7,0.1-2.5V855h-2.5c-1.2,0-2.3,0-3.5,0.2v-2.3
	c1.2,0.2,2.3,0.2,3.5,0.2h2.5v-3.5c0-0.8,0-1.7-0.1-2.5h2.4c-0.1,0.8-0.1,1.6-0.1,2.4v3.6h9.1V853z M603.2,845.2
	c0.9,1.6,1.6,3.2,2.1,4.9l-1.6,0.5c-0.5-1.7-1.2-3.4-2.1-5L603.2,845.2z M606.7,844.2c0.9,1.5,1.6,3.2,2.1,4.9l-1.6,0.5
	c-0.5-1.7-1.2-3.4-2.1-4.9L606.7,844.2z"/>
<path class="st0" d="M636.1,848.1c-0.5,0.4-0.9,0.8-1.3,1.3c-2.2,2.2-4.5,4.2-7,6v12.8c0,1.1,0,2.1,0.2,3.2h-2.6
	c0.2-1,0.2-2.1,0.2-3.1v-11.4c-3.6,2.3-7.5,4-11.6,5.2c-0.3-0.7-0.7-1.4-1.2-2c5.7-1.5,11-4.1,15.6-7.8c2.2-1.6,4.1-3.5,5.7-5.7
	L636.1,848.1z"/>
<path class="st0" d="M646.3,867.8c3-0.3,6-1,8.7-2.3c5.8-2.6,9.8-7,12.2-13.3c0.5,0.7,1.1,1.4,1.8,1.8c-2.4,5.2-5.2,8.7-9.2,11.5
	c-3.1,2.1-6.2,3.3-11.2,4.5c-0.6,0.1-1.2,0.3-1.8,0.5L646.3,867.8z M648.2,849.2c2.6,1.6,5,3.5,7.2,5.6l-1.6,1.9
	c-2.1-2.3-4.5-4.3-7.1-5.9L648.2,849.2z"/>
<path class="st0" d="M684.5,850.3c0.7-1.3,1.2-2.7,1.4-4.1l2.4,0.4c-0.3,0.5-0.6,1-0.8,1.6c-0.4,1-0.8,1.8-0.9,2c0.2,0,0.4,0,0.6,0
	c4.8-0.2,7.8-0.6,9.5-1.1l0.2,2c-0.4,0-0.8,0.1-1.2,0.2c-3.3,0.4-6.6,0.7-9.9,0.8c-0.7,1.5-1.6,2.9-2.7,4.3c-0.3,0.4-0.9,1-1,1.1
	s-0.4,0.3-0.4,0.3l0,0l0,0c0,0,0,0.1,0.1,0.1c1.1-0.8,1.1-0.8,1.4-1c1.3-0.9,2.9-1.5,4.5-1.5c2-0.2,3.8,1.2,4,3.2v0.1
	c2.2-0.9,3.9-1.5,5.2-2c0.7-0.2,1.4-0.5,2-0.9l1,2.1c-2.7,0.7-5.4,1.5-8,2.6c0.1,0.8,0.1,1.1,0.1,1.8c0,0.4,0,1,0,1.7s0,1.1,0,1.3
	c0,0.4,0,0.7,0.1,1.1h-2c0.1-1.4,0.2-2.9,0.2-4.3c0-0.3,0-0.6,0-0.9c-4.1,1.9-5.6,3.3-5.6,5.1c0,2,1.9,2.8,6.1,2.8
	c2.7,0,5.4-0.4,8-1.2l0.3,2.3c-0.4,0-0.8,0.1-1.2,0.2c-2.4,0.4-4.8,0.6-7.3,0.6c-5.4,0-8-1.5-8-4.6c0-1.7,1-3.2,3.1-4.7
	c1.4-1,2.9-1.8,4.5-2.4c-0.2-1.7-1-2.4-2.4-2.4c-1.9,0-4.3,1.1-6.7,3.2c-0.9,0.7-1.7,1.5-2.3,2.5l-1.9-1.6c2.7-2.4,5-5.3,6.7-8.6
	l0.3-0.5c-0.2,0-0.4,0.1-0.6,0.1l-4.4-0.1h-0.5c-0.2,0-0.4,0-0.7,0v-2.1c2.1,0.3,4.3,0.4,6.4,0.3L684.5,850.3z"/>
<path class="st0" d="M711.2,853.3c-1.1,0-2.1,0-3.2,0.2v-2.1c1,0.1,2.1,0.2,3.2,0.2H729c1.1,0,2.1,0,3.2-0.2v2.1
	c-1-0.1-2.1-0.2-3.2-0.2h-8v6.4h6.5c1,0,1.9,0,2.9-0.2v2.1c-1-0.1-1.9-0.2-2.9-0.2H721v7.8h9.4c1.1,0,2.2,0,3.2-0.2v2.2
	c-1.1-0.1-2.2-0.2-3.2-0.2h-20.2c-1.1,0-2.2,0.1-3.3,0.2V869c1.1,0.1,2.2,0.2,3.3,0.2h8.7v-7.8H713c-1,0-2,0-3,0.2v-2.1
	c1,0.1,1.9,0.2,2.9,0.2h6v-6.4H711.2z M716.7,845.3c2.5,1,4.9,2.2,7.2,3.7l-1.2,1.6c-2.2-1.6-4.7-2.9-7.3-3.9L716.7,845.3z"/>
<path class="st0" d="M748.4,846.5c0.4,3.4,1.2,6.7,2.2,9.9c1.8-0.7,2.6-1,7.3-2.7c0.7-0.2,1.3-0.5,1.9-0.8l0.9,2.3
	c-3.1,0.8-6.1,1.7-9,2.9c-5.1,2-7.3,4-7.3,6.5c0,2.7,2.3,3.8,8.2,3.8c2.9,0.1,5.8-0.3,8.6-1l0.2,2.5c-0.7,0-1.5,0.1-2.2,0.2
	c-2.2,0.3-4.4,0.4-6.6,0.4c-2.2,0.1-4.5-0.2-6.7-0.8c-2.5-0.9-3.7-2.5-3.7-4.9c0-2,1-3.9,2.7-5.1c1.2-1,2.5-1.8,3.9-2.4
	c-0.9-2.7-1.7-5.6-2.2-8.4c-0.1-0.6-0.3-1.3-0.5-1.9L748.4,846.5z"/>
<path class="st0" d="M784.9,848.1c0-0.6,0-1.2-0.1-1.7h2.3c-0.1,1.2-0.2,2.5-0.2,3.8v0.3c5.7,0,8-0.1,9-0.2v2.1
	c-1.9-0.2-3.8-0.2-5.7-0.2c-0.5,0-0.8,0-3.2,0.1v5.9c0.5,1.1,0.7,2.3,0.7,3.5c0,3.1-1.5,6-4,7.8c-1.5,1-3.1,1.8-4.7,2.4
	c-0.3-0.7-0.8-1.3-1.3-1.9c1.7-0.5,3.4-1.2,4.9-2.2c2.1-1.4,3.3-3.8,3.4-6.3c-0.2,0.5-0.4,1-0.8,1.5c-1.9,2-5,2.2-7.1,0.3
	c-1-0.9-1.6-2.1-1.6-3.5c0-2.8,2.3-5,5-5c0.1,0,0.2,0,0.3,0c1.3-0.1,2.6,0.4,3.5,1.3c0-0.4,0-0.5,0-1.7c0-0.1,0-0.4,0-0.8V852
	c-6,0.1-12.1,0.4-14.1,0.8l-0.1-2.2c0.5,0,0.8,0,1.2,0c0.9,0,0.9,0,5.7-0.2c2.9-0.1,5.2-0.2,7.3-0.2L784.9,848.1z M783.6,857.1
	c-0.6-0.3-1.3-0.5-2-0.5c-1.7-0.1-3.2,1.3-3.3,3v0.1c-0.1,1.6,1.2,2.9,2.8,3c0.1,0,0.2,0,0.3,0c1.9,0.1,3.4-1.3,3.5-3.2
	c0-0.1,0-0.2,0-0.3C784.9,858.3,784.4,857.5,783.6,857.1L783.6,857.1z"/>
<path class="st0" d="M49.4,905.1c0.9,0.2,1.9,0.2,2.8,0.2c2.5,0,6.5-0.2,9.2-0.4c0.5,0,1-0.1,1.4-0.3l1.3,1.7
	c-0.6,0.3-1.1,0.8-1.5,1.3c-3,3.1-6.3,6-9.9,8.5l0.1,0.1c2.3-1.2,4.8-1.9,7.3-1.9c5,0,8.2,2.5,8.2,6.3c0,4.7-4.3,7.8-11,7.8
	c-4.2,0-6.7-1.6-6.7-4.3c0-2,1.9-3.5,4.3-3.5c2-0.1,3.8,0.9,5,2.5c0.6,0.9,1.1,1.8,1.4,2.9c3.2-0.9,4.8-2.7,4.8-5.2
	c0-2.9-2.4-4.6-6.5-4.6c-4.7,0.1-9.2,1.9-12.6,5.1l-1.3-1.9c1.5-0.9,2.9-1.9,4.2-3.1c3.2-2.5,8-6.7,10-8.8l0.4-0.4l0.1-0.1l0.1-0.1
	l-0.1-0.1h-0.3c-1,0.2-4.6,0.4-9.1,0.5c-0.5,0-1.1,0.1-1.6,0.2L49.4,905.1z M55.1,922.2c-1.5,0-2.4,0.7-2.4,1.9
	c0,0.8,0.5,1.5,1.2,1.8c1.1,0.5,2.2,0.7,3.4,0.7c0.7,0,1.5-0.1,2.2-0.2C58.7,923.6,57.2,922.2,55.1,922.2z"/>
<path class="st0" d="M78.5,905.5c-0.9,0-1.7,0-2.6,0.2v-2c0.9,0.1,1.8,0.2,2.7,0.2h4.9c0.8,0,1.7,0,2.5-0.2v2
	c-0.8-0.1-1.6-0.1-2.4-0.1h-1.9c-0.3,2.6-1,5.2-2.1,7.6h3.8c0.6,0,1.2,0,1.9-0.1c-0.1,0.8-0.1,1.6-0.1,2.4v9.3c0,0.8,0,1.7,0.1,2.5
	h-1.9v-1.5h-3.7v3.2h-2c0.1-1,0.2-1.9,0.2-2.9v-6.7c0-1.1,0-2,0.1-3.4c-0.6,1.3-1.3,2.6-2.2,3.7c-0.2-0.7-0.6-1.3-1.1-1.8
	c1.9-2.2,3.3-4.8,4.1-7.6c0.5-1.5,0.8-3.1,1-4.7L78.5,905.5z M79.7,924.1h3.7v-9.4h-3.7V924.1z M90.1,905.5c-1,0-1.9,0-2.9,0.2v-2.1
	c1,0.1,2,0.2,3,0.2h9.5c1,0,2,0,3-0.2v2.1c-1-0.1-1.9-0.2-2.9-0.2H99v8.3h1c1,0,2,0,3-0.2v2.1c-1-0.1-2-0.2-3-0.2h-1v10.8
	c0,1.1,0.1,2.1,0.2,3.2H97c0.1-1.1,0.2-2.1,0.2-3.2v-10.8h-5c-0.3,6.7-1.6,10.3-5,14.3c-0.5-0.6-1.1-1-1.7-1.3
	c3.2-3,4.6-6.8,4.8-12.9h-0.8c-1,0-2,0-3,0.2v-2.1c1,0.1,2,0.2,3,0.2h0.9v-8.3L90.1,905.5z M92.3,912.8v1h4.9v-8.3h-4.9V912.8z"/>
<path class="st0" d="M123.6,917.5c1.1,0,2.2,0,3.4-0.2c-0.1,0.7-0.1,1.3-0.1,2.6l-0.1,6.1c0,0.9,0.3,1,2.7,1c2.1,0,2.7-0.2,2.9-0.7
	c0.4-1.5,0.5-3,0.5-4.5c0.6,0.4,1.3,0.6,1.9,0.8c-0.5,6-0.7,6.2-5.5,6.2c-3.7,0-4.4-0.4-4.4-2.4v-0.2l0.1-7h-5.6
	c-0.4,1.8-1.2,3.5-2.3,5c-0.9,1.1-2,2.1-3.2,2.9c-1.5,1-3.2,1.9-5,2.5c-0.3-0.7-0.8-1.3-1.3-1.7c2.1-0.6,4-1.5,5.8-2.7
	c2.1-1.4,3.6-3.5,4.2-5.9h-4.7c-1.1,0-2.2,0-3.2,0.2v-2.1c1.1,0.1,2.1,0.2,3.2,0.2h5.2c0.1-0.8,0.2-1.7,0.2-2.5c0-0.5,0-1.1-0.1-1.6
	h2.3c-0.1,0.6-0.2,1.3-0.2,1.9c-0.1,0.7-0.1,1.5-0.2,2.2L123.6,917.5z M119.6,904.8c0-0.7-0.1-1.5-0.2-2.2h2.3
	c-0.2,0.7-0.2,1.4-0.2,2.2v0.9h8.9c1,0,2,0,3-0.2c-0.1,0.7-0.1,1.4-0.1,2.1v1.5c0,0.7,0,1.4,0.1,2.1h-2v-3.8H124v4.3
	c0,0.4,0.1,0.5,0.2,0.6c0.6,0.2,1.3,0.2,1.9,0.2c0.8,0.1,1.7,0,2.4-0.3c0.3-0.2,0.5-1,0.5-2.4c0.6,0.3,1.2,0.5,1.8,0.6
	c-0.1,1.9-0.4,2.7-0.9,3.2s-1.7,0.7-3.9,0.7c-3.2,0-3.9-0.3-3.9-1.7v-5.2h-3.7c-0.1,1.2-0.4,2.3-1,3.3c-1.1,1.8-2.7,3.2-4.7,3.8
	c-0.9,0.3-1.8,0.6-2.8,0.9c-0.3-0.6-0.7-1.1-1.1-1.7c3.2-0.6,4.7-1.2,6-2.4c1.1-1,1.8-2.5,1.8-4h-6.4v3.8h-2
	c0.1-0.7,0.1-1.4,0.1-2.1v-1.5c0-0.7,0-1.4-0.1-2.1c1,0.1,2,0.2,3,0.2h8.3L119.6,904.8z"/>
<path class="st0" d="M159.6,920.8c1.1,0,2.1,0,3.2-0.2v2c-1.1-0.1-2.1-0.2-3.2-0.2h-6.4v4.2h8.8c1.3,0,2.5,0,3.8-0.2v2.1
	c-1.3-0.1-2.6-0.2-3.9-0.2h-18.7c-1.3,0-2.6,0-3.9,0.2v-2.1c1.3,0.2,2.5,0.2,3.8,0.2h8.2v-4.2h-5.8c-1.1,0-2.1,0-3.2,0.2v-2
	c1.1,0.1,2.1,0.2,3.2,0.2h5.8v-0.5c0-0.8-0.1-1.6-0.2-2.4h2.2c-0.1,0.8-0.2,1.6-0.2,2.4v0.5H159.6z M151.3,904.4
	c0-0.7-0.1-1.3-0.2-2h2.3c-0.1,0.7-0.2,1.3-0.2,2v0.8h7.8c2,0,3,0,4-0.1c-0.1,0.7-0.1,1.4-0.1,2.1v1.5c0,0.7,0,1.3,0.1,2h-2v-3.9
	h-21v3.9h-2v-0.4c0.1-0.6,0.1-1.1,0.1-1.7V907c0-0.7,0-1.3-0.1-2c1.2,0.1,2.5,0.1,3.7,0.1h7.5L151.3,904.4z M146.9,911.4
	c-1.2,0-2.3,0-3.5,0.2v-1.9c1.1,0.1,2.3,0.2,3.4,0.2h11.6c1.2,0,2.3,0,3.4-0.2v1.9c-1.1-0.1-2.3-0.2-3.4-0.2h-7.7
	c-0.7,1.5-1.5,2.8-2.4,4.2c3.3-0.1,5.9-0.2,10-0.5c-0.9-0.8-1.8-1.5-2.8-2.2l1.4-0.9c2.3,1.6,4.4,3.4,6.4,5.4l-1.4,1.2
	c-0.6-0.8-1.3-1.5-2.1-2.1c-5.3,0.5-11.5,0.8-17.1,1c-0.4,0-0.8,0-1.1,0.1l-0.3-1.9c0.6,0.1,1.2,0.1,1.9,0.1c1,0,1.7,0,3.1-0.1
	c0.9-1.3,1.8-2.8,2.5-4.3H146.9z"/>
<path class="st0" d="M172,907.6c0.6,0,0.9,0,1.1,0c0.4,0,0.8,0,1.7-0.1c1.7-0.1,1.9-0.2,5.6-0.4l4.7-0.3c3.7-0.2,4.1-0.2,5.1-0.3
	l1.7-0.1c1.2,0,2.4-0.1,3.6-0.3l0.2,2.2c-1.1,0-2.3,0.1-3.4,0.4c-2.1,0.6-4.1,1.6-5.8,3c-2.2,1.6-3.6,4.2-3.7,6.9
	c0,2.5,1.5,4.5,4.2,5.5c1.4,0.6,3,0.9,4.5,1h0.3l-0.4,2.4c-0.3-0.1-0.4-0.1-0.9-0.2c-2.3-0.3-4.5-1.1-6.5-2.3
	c-2.1-1.3-3.3-3.6-3.3-6.1c0-3.5,2-6.8,5.6-9.2c0.9-0.6,1.9-1.1,2.9-1.6c-2.2,0.3-4.4,0.6-6.6,0.7c-3.5,0.2-6.9,0.5-10.4,1
	L172,907.6z M192.1,912.1c1.2,1.4,2.3,3,3.1,4.7l-1.5,0.9c-0.8-1.7-1.8-3.3-3.1-4.8L192.1,912.1z M195.5,910.4
	c1.2,1.4,2.2,3,3.1,4.7l-1.5,0.8c-0.8-1.7-1.9-3.3-3.1-4.7L195.5,910.4z"/>
<path class="st0" d="M205.2,907c1.8,0.4,3.7,0.6,5.6,0.5h0.8c0-0.7,0-0.7,0.1-2.2c0-0.3,0.1-1.5,0.1-1.7c0-0.1,0-0.3,0-0.5l2.3,0.2
	c-0.4,1.4-0.6,2.8-0.6,4.2c3.9-0.1,7.7-0.6,11.4-1.7l0.1,2.1l-1,0.2c-3.5,0.6-7.1,1-10.6,1.2c-0.2,2.5-0.2,2.5-0.2,4
	c1.4-0.4,2.9-0.6,4.4-0.6c0.6,0,1,0,1.7,0.1c0.3-0.9,0.5-1.8,0.6-2.7l2.1,0.6c-0.1,0.2-0.4,1-0.9,2.4c4.1,1,6.4,3.5,6.4,7
	c0,2.9-1.6,5.3-4.7,6.9c-1.9,1-4,1.5-6.1,1.7c-0.2-0.7-0.5-1.4-1-2c1.5,0,3.1-0.3,4.5-0.8c3.3-1.1,5.2-3.3,5.2-6s-1.7-4.4-4.9-5.2
	c-1.3,3.3-3.2,6.4-5.7,9c-2.3,2.4-4.6,3.6-6.7,3.6c-2.2,0-3.9-1.9-3.9-4.6c0-3.7,2.6-7,7-8.9c0-2.2,0-2.3,0.2-4.5h-1.2
	c-0.3,0-1.6-0.1-4-0.2c-0.2,0-0.4,0-0.5,0c-0.2,0-0.3,0-0.5,0L205.2,907z M208.1,918.1c-1.1,1.2-1.8,2.8-1.8,4.5s0.9,2.7,2.2,2.7
	c1.3-0.1,2.5-0.6,3.4-1.5c-0.5-2.7-0.7-5.4-0.6-8.1C210,916.3,209,917.1,208.1,918.1L208.1,918.1z M213.6,922.5
	c0.2-0.3,0.3-0.5,0.6-0.8c1.9-2.2,3.5-4.8,4.6-7.5c-1-0.1-1.1-0.1-1.4-0.1c-1.4,0-2.8,0.2-4.2,0.7c0,2.3,0.1,4.6,0.3,6.9
	c0,0.1,0,0.3,0,0.4L213.6,922.5L213.6,922.5z"/>
<path class="st0" d="M239.9,905.1c0.9,0.2,1.9,0.2,2.8,0.2c2.5,0,6.5-0.2,9.2-0.4c0.5,0,1-0.1,1.4-0.3l1.3,1.7
	c-0.6,0.3-1.1,0.8-1.5,1.3c-3,3.1-6.3,6-9.9,8.5l0.1,0.1c2.3-1.2,4.8-1.9,7.4-1.9c5,0,8.2,2.5,8.2,6.3c0,4.7-4.4,7.8-11,7.8
	c-4.2,0-6.7-1.6-6.7-4.3c0-2,1.9-3.5,4.4-3.5c2,0,3.8,0.9,4.9,2.5c0.6,0.9,1.1,1.8,1.4,2.9c3.1-0.9,4.8-2.7,4.8-5.2
	c0-2.9-2.4-4.6-6.4-4.6c-4.7,0.1-9.2,1.9-12.6,5.1l-1.4-1.9c1.5-0.9,2.9-1.9,4.2-3.1c3.2-2.5,7.9-6.7,10-8.8l0.4-0.4l0.1-0.1
	l0.1-0.1l-0.1-0.1h-0.3c-1,0.2-4.6,0.4-9.1,0.5c-0.5,0-1.1,0.1-1.6,0.2L239.9,905.1z M245.5,922.2c-1.5,0-2.4,0.7-2.4,1.9
	c0,0.8,0.5,1.5,1.2,1.8c1.1,0.5,2.2,0.7,3.4,0.7c0.7,0,1.5-0.1,2.2-0.2C249.2,923.6,247.7,922.2,245.5,922.2z"/>
<path class="st0" d="M274.1,924.9c0,2.5-2,4.5-4.5,4.5s-4.5-2-4.5-4.5s2-4.5,4.5-4.5S274.1,922.4,274.1,924.9L274.1,924.9z
	 M266.9,924.9c0,1.5,1.2,2.8,2.8,2.8s2.8-1.2,2.8-2.8c0-1.5-1.2-2.8-2.8-2.8l0,0C268.1,922.1,266.9,923.4,266.9,924.9z"/>
<path class="st0" d="M301.6,910.7c-1.1,2.3-2.5,4.5-4.1,6.4c-0.5-0.5-1.1-0.9-1.7-1.3c2.4-2.6,4.3-5.8,5.4-9.2
	c0.4-0.9,0.6-1.9,0.7-2.8l2.2,0.6c-0.2,0.5-0.4,1-0.6,1.6c-0.1,0.3-0.5,1.3-1.1,2.9h6.3v-3.2c0-1.1-0.1-2.1-0.2-3.2h2.4
	c-0.2,1.1-0.2,2.1-0.2,3.2v3.2h7.3c1.1,0,2.3-0.1,3.4-0.2v2.1c-1.1-0.1-2.3-0.2-3.4-0.2h-7.4v6.5h6.1c1.1,0,2.1,0,3.2-0.2v2.1
	c-1.1-0.1-2.1-0.2-3.2-0.2h-6.1v7.9h8.4c1.2,0,2.4,0,3.5-0.2v2.2c-1.2-0.2-2.3-0.2-3.5-0.2h-19.3c-1.2,0-2.4,0.1-3.5,0.2v-2.2
	c1.2,0.2,2.3,0.2,3.5,0.2h8.9v-7.9h-5.5c-1.1,0-2.1,0-3.2,0.2v-2.1c1.1,0.1,2.1,0.2,3.2,0.2h5.5v-6.5L301.6,910.7z"/>
<path class="st0" d="M328.4,910.5c2,0.9,3.8,2.1,5.5,3.5l-1,1.7c-1.7-1.5-3.5-2.7-5.5-3.7L328.4,910.5z M334.2,920.2
	c-1.4,3.1-3.1,6.1-5,8.9l-1.7-1.6c0.3-0.3,0.6-0.6,0.9-1c1.8-2.3,3.2-4.9,4.2-7.6L334.2,920.2z M329.7,902.9c1.8,1.2,3.6,2.5,5.2,4
	l-1.2,1.6c-1.6-1.6-3.3-3-5.2-4.2L329.7,902.9z M343.5,906.7c-2.3,0.4-4.6,0.6-6.9,0.8c-0.2-0.6-0.4-1.3-0.8-1.8
	c4.3-0.1,8.5-0.6,12.7-1.7c1.2-0.2,2.4-0.7,3.5-1.2l1.4,1.8l-1,0.3c-1.7,0.5-4.1,1-7,1.6v5.2h5.9c1,0,2,0,3.1-0.2v2.1
	c-1-0.1-2-0.2-3.1-0.2h-5.9v5.1h4.8c0.8,0,1.5,0,2.3-0.1c-0.1,0.9-0.1,1.8-0.1,2.7v5.7c0,1,0,1.9,0.1,2.9h-2V928H339v1.7h-2
	c0.1-1,0.2-2,0.1-2.9V921c0-0.9,0-1.8-0.1-2.6c0.7,0.1,1.5,0.1,2.2,0.1h4.4v-5.1h-5.7c-1,0-2,0.1-3,0.2v-2.1c1,0.1,2,0.2,3,0.2h5.7
	L343.5,906.7z M339,926.2h11.6v-6H339V926.2z"/>
<path class="st0" d="M371.4,919.5c-1.7,4-3.5,5.8-5.7,5.8c-2.9,0-5-3.1-5-7.3c-0.1-6.7,5.3-12.2,12.1-12.3c0.3,0,0.5,0,0.8,0
	c3-0.1,6,1,8.2,3c1.9,1.9,3,4.6,2.9,7.3c0.1,4.5-2.6,8.7-6.9,10.3c-1.5,0.6-3,1.1-4.6,1.4c-0.2-0.7-0.5-1.4-1-2
	c1.7-0.2,3.4-0.7,5-1.4c3.3-1.5,5.4-4.8,5.3-8.4c0.1-3.3-1.8-6.2-4.8-7.5c-1.1-0.5-2.3-0.7-3.5-0.8
	C373.9,911.7,372.9,915.7,371.4,919.5z M367.7,909c-3.1,1.9-4.9,5.3-4.9,8.9c0,2.9,1.3,5.1,2.9,5.1c1.3,0,2.5-1.4,3.8-4.3
	c1.4-3.6,2.3-7.3,2.7-11.1C370.6,907.7,369.1,908.2,367.7,909z"/>
<path class="st0" d="M400.1,927.4c-0.5-0.8-1-1.6-1.6-2.2l1.7-0.7c0.7,0.9,1.3,1.9,1.8,2.9h5.3c0.7-0.9,1.2-1.9,1.6-2.9l1.8,0.7
	c-0.4,0.8-0.9,1.5-1.4,2.2h5.5c1.1,0,2.1,0,3.1-0.2v2c-1-0.2-2.1-0.2-3.1-0.2h-20.2c-1.1,0-2.2,0-3.3,0.2v-2
	c1.1,0.1,2.2,0.2,3.3,0.2H400.1z M417.5,917.2c-1.1-0.1-2.2-0.2-3.3-0.2h-19.4c-1.1,0-2.1,0-3.2,0.2v-2c1.1,0.2,2.1,0.2,3.2,0.2
	h19.4c1.1,0,2.2,0,3.3-0.2V917.2z M412.3,904.5c1.1,0,2.2,0,3.3-0.2c-0.1,0.8-0.1,1.6-0.1,2.4v4.7c0,0.8,0,1.6,0.1,2.4
	c-1.1-0.1-2.1-0.1-3.2-0.1h-15.5c-1.1,0-2.1,0-3.2,0.1c0.1-0.8,0.1-1.6,0.1-2.4v-4.7c0-0.8,0-1.6-0.1-2.4c1.1,0.1,2.2,0.2,3.2,0.2
	h3.4c0-0.8,0-1.6-0.2-2.4h2.1c-0.2,0.7-0.2,1.5-0.2,2.3v0.2h4.8c0-0.8,0-1.6-0.2-2.4h2.1c-0.2,0.8-0.2,1.6-0.2,2.4L412.3,904.5z
	 M395.1,920.7c0-0.7,0-1.4-0.1-2.1c1.2,0.1,2.3,0.2,3.5,0.2h12.1c1.1,0,2.3,0,3.4-0.2c-0.1,0.7-0.2,1.4-0.1,2.1v1.7
	c0,0.7,0,1.4,0.1,2.1c-1-0.1-2-0.1-3.4-0.1h-12.2c-1.1,0-2.3,0-3.4,0.1c0.1-0.7,0.2-1.4,0.1-2.1V920.7z M395.6,905.9v2.3h4.7v-2.3
	H395.6z M395.6,909.6v2.6h4.7v-2.6H395.6z M397,922.9h14.9v-2.6H397V922.9z M402,908.2h4.8v-2.3H402V908.2z M402,912.2h4.8v-2.6H402
	V912.2z M408.5,908.2h5.1v-2.3h-5.1V908.2z M408.5,912.2h5.1v-2.6h-5.1V912.2z"/>
<path class="st0" d="M423.9,910.9c1.1,0,4.2-0.4,6.6-0.8c0.5-2.1,0.8-4.2,0.9-6.4v-0.4l2.4,0.3c-0.3,0.9-0.5,1.9-0.6,2.9
	c-0.1,0.9-0.4,2-0.6,3.4c0.6-0.1,1.2-0.1,1.8-0.1c2.1,0,3.4,0.4,4.3,1.3s1.5,2.4,1.5,4.8c0,4.6-0.8,8.6-2,10.3
	c-0.6,1-1.8,1.5-2.9,1.4c-1.6-0.1-3.1-0.5-4.5-1.2c0-0.3,0.1-0.7,0.1-1c0-0.4,0-0.8-0.1-1.2c1.4,0.8,2.9,1.2,4.5,1.4
	c0.8,0,1.3-0.5,1.7-1.4c0.9-2.7,1.4-5.5,1.3-8.3c0-3.2-0.9-4.2-3.7-4.2c-0.7,0-1.4,0.1-2.2,0.2c-1,4.4-2.5,8.7-4.5,12.7
	c-0.4,0.7-1,1.9-2,3.6l-2-1.2c1.2-1.7,2.3-3.5,3.1-5.4c1.4-3,2.5-6.2,3.3-9.5c-2.6,0.4-4,0.6-4.3,0.7c-0.6,0.1-1.2,0.2-1.7,0.4
	L423.9,910.9z M443.6,908.1c2.9,3,5,6.6,6.3,10.6l-1.9,1.1c-1.1-4.1-3.2-7.8-6.1-10.8L443.6,908.1z"/>
<path class="st0" d="M457.4,909.4c0.8,0.1,1.5,0.2,2.3,0.2c3,0,6-0.2,8.9-0.6c-0.5-1-0.9-2.2-1.5-3.6c-0.3-0.8-0.5-1.2-0.8-1.7
	l2.4-0.3c0.2,0.9,0.4,1.8,0.9,2.7c0.3,0.9,0.7,1.8,1.1,2.6c2.5-0.4,4.9-1,7.3-1.9l0.3,2.1c-0.6,0.1-0.9,0.2-1.8,0.4
	c-1.8,0.5-2.2,0.6-4,0.9l-1,0.2c1.5,3.1,3.3,6,5.4,8.7l-2,1.1c-0.6-0.5-1.3-1-2.1-1.2c-1.7-0.5-3.5-0.8-5.2-0.8
	c-2-0.1-4,0.3-5.7,1.3c-1,0.6-1.6,1.6-1.6,2.8c0,0.9,0.4,1.8,1.1,2.3c1.1,0.9,3.3,1.4,5.9,1.4c2.9,0,5.9-0.7,8.5-1.9l0.3,2.3
	c-2.8,1.1-5.8,1.6-8.8,1.6c-3.7,0-6.4-0.8-7.8-2.2c-0.9-0.9-1.3-2.1-1.4-3.3c0.1-2.1,1.4-4,3.4-4.9c1.8-0.8,3.8-1.2,5.8-1.1
	c2.1-0.1,4.2,0.3,6.2,1.1c-1.4-1.8-2.6-3.8-3.6-5.9c-0.3-0.6-0.3-0.7-0.5-1c-3.5,0.5-7.1,0.7-10.7,0.8c-0.4,0-0.8,0-1.2,0.1
	L457.4,909.4z"/>
<path class="st0" d="M495.6,907.3c0.7-1.3,1.2-2.7,1.4-4.1l2.4,0.4c-0.3,0.5-0.6,1-0.8,1.6c-0.3,0.7-0.6,1.4-0.9,2
	c0.2,0,0.4,0,0.6,0c4.8-0.2,7.8-0.6,9.4-1.1l0.2,2c-0.4,0-0.8,0.1-1.2,0.2c-3.3,0.4-6.6,0.7-9.9,0.8c-0.7,1.5-1.6,2.9-2.7,4.3
	c-0.3,0.4-0.9,1-1,1.1s-0.3,0.2-0.4,0.3l0,0l0,0v0.1c1.1-0.8,1.1-0.8,1.4-1c1.3-0.9,2.9-1.4,4.5-1.5c2-0.2,3.8,1.2,4,3.2v0.1
	c2.2-0.9,3.9-1.5,5.2-2c0.7-0.2,1.4-0.5,2-0.9l1,2.1c-2.7,0.7-5.4,1.5-8,2.6c0.1,0.6,0.1,1.2,0.1,1.8c0,0.4,0,1,0,1.7s0,1.1,0,1.3
	c0,0.4,0,0.7,0.1,1.1h-2c0.1-1.4,0.2-2.9,0.2-4.3c0-0.3,0-0.6,0-0.9c-4.1,1.9-5.6,3.3-5.6,5.1c0,2,1.9,2.8,6.1,2.8
	c2.7,0,5.4-0.4,8-1.2l0.3,2.3c-0.4,0-0.8,0.1-1.2,0.2c-2.4,0.4-4.8,0.6-7.3,0.6c-5.4,0-8-1.5-8-4.6c0-1.7,1-3.2,3.1-4.7
	c1.4-1,2.9-1.8,4.5-2.4c-0.2-1.7-1-2.4-2.4-2.4c-1.9,0-4.3,1.1-6.7,3.2c-0.9,0.7-1.7,1.5-2.3,2.5l-1.8-1.6c2.1-1.6,4.6-4.7,6.7-8.6
	l0.3-0.5c-0.2,0-0.4,0.1-0.6,0.1l-4.4-0.1h-0.5c-0.2,0-0.4,0-0.7,0v-2.1c2.1,0.3,4.3,0.4,6.4,0.3L495.6,907.3z"/>
<path class="st0" d="M538.1,904c1,0,2.1,0,3.1-0.2c-0.1,0.9-0.2,1.8-0.2,2.8v19.6c0,1.1,0,2.1,0.2,3.2H539v-2h-15.4v2h-2.2
	c0.1-1,0.2-2,0.2-3.1v-19.5c0-1,0-2-0.2-3c1.1,0.1,2.1,0.2,3.2,0.2H538.1z M539.1,911v-5.2h-15.5v5.2H539.1z M523.7,918.2h15.5v-5.4
	h-15.5V918.2z M523.7,925.6h15.5V920h-15.5V925.6z"/>
<path class="st0" d="M554.3,905.5c0-1-0.1-2-0.2-3.1h2.3c-0.2,1-0.2,2-0.2,3v3h1.1c0.8,0,1.6,0,2.4-0.2v2c-0.8-0.1-1.6-0.2-2.5-0.2
	h-1v6.1c1.1-0.3,1.8-0.6,3.5-1.3v1.7c-1.5,0.6-2,0.8-3.6,1.4v9.2c0,1.6-0.7,2.1-3.3,2.1c-0.7,0-1.4,0-2.2-0.1c0-0.7-0.1-1.4-0.4-2
	c1,0.2,2,0.3,3,0.3c0.8,0,1-0.2,1-0.8v-8l-2.1,0.7c-0.7,0.2-1.3,0.4-1.9,0.6l-0.5-2.1c1.5-0.2,3-0.6,4.5-1.1V910h-1.8
	c-0.8,0-1.6,0-2.5,0.2v-2c0.8,0.1,1.6,0.2,2.4,0.2h1.8L554.3,905.5z M562.9,906.5c4.9-0.7,9.2-1.9,10.9-3.1l1.5,1.7
	c-4,1.5-8.1,2.5-12.4,3v2c0,1.2,0.5,1.3,5.4,1.3c5.8,0,5.8,0,6.1-3.8c0.6,0.4,1.2,0.6,1.8,0.8c-0.3,2.4-0.7,3.5-1.6,4
	s-2.2,0.7-6.8,0.7c-5.8,0-6.8-0.4-6.8-2.6v-5.2c0-1,0-2-0.2-3h2.2c-0.1,1-0.2,1.9-0.2,2.9L562.9,906.5L562.9,906.5z M561,918
	c0-0.8,0-1.6-0.1-2.3c0.9,0.1,1.8,0.1,2.6,0.1h8.4c0.9,0,1.8,0,2.6-0.1c-0.1,0.8-0.1,1.6-0.1,2.4v8.5c0,1,0,2,0.2,3h-2v-1.7h-9.8
	v1.7h-2c0.1-1,0.2-2,0.2-3L561,918z M562.9,920.9h9.8v-3.4h-9.8V920.9z M562.9,926.2h9.8v-3.8h-9.8V926.2z"/>
<path class="st0" d="M589.5,904c-0.3,2.1-0.4,4.2-0.4,6.3c-0.1,3.6-0.2,7.7-0.2,9c0,0.4,0,1.1,0.1,1.8c-0.1,1.3,0.4,2.7,1.4,3.6
	c1.1,0.8,2.4,1.2,3.8,1.2c3.5,0,6.6-2,8-5.2c0.7-1.5,1.2-3.1,1.5-4.7c0.6,0.6,1.4,1.1,2.2,1.4c-1.2,3.5-2,5.3-3.3,6.8
	c-2.1,2.5-5.2,3.9-8.5,3.8c-2.5,0-4.5-0.7-5.6-2.1s-1.7-3-1.7-6.2c0-2,0-2.8,0.3-12.2c0-0.9,0-1.5,0-2s0-1.1-0.1-1.6L589.5,904z"/>
<path class="st0" d="M613.6,921.5c2.3,1.8,4.3,4,6,6.4l-1.7,1.6c-1.6-2.5-3.6-4.7-5.9-6.5L613.6,921.5z"/>
<path class="st0" d="M662.2,915.2c-2.4,4-2.9,4.7-4.4,6.4c1.2,1,2.4,1.9,3.8,2.7c2.6,1.5,5.4,2.6,8.3,3.2c-0.5,0.6-0.9,1.3-1.1,2
	c-3-0.8-5.9-2.1-8.6-3.7c-1.4-0.8-2.6-1.8-3.8-2.9c-1.2,1.1-2.5,2.1-3.9,3c-2.5,1.6-5.2,2.8-8,3.6c-0.2-0.7-0.6-1.3-1.1-1.9
	c2.6-0.6,5.1-1.6,7.4-2.9c1.6-0.9,3.1-1.9,4.3-3.2c-2-2.2-2.4-2.7-4.4-6.5l1.8-0.9c0.2,0.6,0.5,1.2,0.8,1.8c0.9,1.5,1.9,3,3.1,4.3
	c1.1-1.2,2-2.4,2.8-3.8c0.4-0.7,0.8-1.5,1-2.2L662.2,915.2z M655.2,905c0-0.8-0.1-1.7-0.2-2.5h2.4c-0.2,0.8-0.2,1.7-0.2,2.5v1.3h8.9
	c1.1,0,2.3,0,3.4-0.2v2.2c-1.1-0.1-2.3-0.2-3.4-0.2H647c-1.1,0-2.2,0-3.4,0.2v-2.2c1.1,0.2,2.2,0.2,3.4,0.2h8.4L655.2,905z
	 M652.9,910.1c-1.1,1.8-2.4,3.5-3.9,4.9c-1.2,1.2-2.6,2.2-4,3.2c-0.4-0.6-0.9-1.1-1.5-1.5c1.6-0.9,3-2,4.3-3.3
	c1.3-1.2,2.4-2.7,3.3-4.3L652.9,910.1z M661,909.1c0.9,1.5,2.1,2.8,3.5,3.9c1.5,1.3,3.1,2.3,4.9,3.2c-0.5,0.5-1,1.1-1.3,1.7
	c-1.7-1-3.3-2.1-4.7-3.4c-1.4-1.3-2.7-2.7-3.8-4.3L661,909.1z"/>
<path class="st0" d="M674.4,914.4c0.7,0.1,1.4,0.2,2.1,0.2h1.4c0.8,0,1.5,0,2.2-0.2c-0.1,1-0.2,2.1-0.2,3.2v5.9
	c0.5,1.1,1.3,2,2.4,2.6c1.3,0.8,3.3,1,7.4,1c4,0,8-0.2,12-0.6c-0.3,0.7-0.5,1.5-0.7,2.2c-3.3,0.1-6.9,0.2-9.7,0.2
	c-5.9,0-7.7-0.2-9.6-1.2c-1.2-0.6-2.2-1.5-3-2.6c-0.6,0.8-1.3,1.5-2,2.2c-0.5,0.4-0.6,0.5-1.1,1c-0.3,0.3-0.4,0.4-0.8,0.7l-1-2
	c1.6-0.9,3.1-2.1,4.3-3.5v-7.2h-1.8c-0.7,0-1.3,0-2,0.2L674.4,914.4z M676.1,903c1.8,1.6,3.4,3.4,4.8,5.3l-1.5,1.4
	c-1.3-2-2.9-3.8-4.7-5.5L676.1,903z M690.6,909.1c-1.3-0.9-2.6-1.8-4-2.5l1.3-1c1.4,0.8,2.7,1.7,4,2.7c1.7-0.9,3.2-1.9,4.7-3.2
	h-11.1c-1,0-2,0-3,0.2v-1.9c1.1,0.2,2.1,0.2,3.2,0.2h10.5c1,0,2,0,3.1-0.1l0.8,1.1c-0.3,0.2-0.5,0.4-0.8,0.6c-1.9,1.5-3.9,2.9-6,4
	h3.9c1.1,0,2.2,0,3.3-0.2c-0.1,1.2-0.1,2.5-0.1,3.7v9.9c0,1.9-0.5,2.3-2.6,2.3c-0.7,0-1.2,0-2.1-0.1c-0.1-0.6-0.2-1.2-0.4-1.7
	c0.8,0.1,1.7,0.2,2.5,0.2c0.7,0,0.8-0.1,0.8-0.8v-2.8h-6.3v1.9c0,1.1,0,2.2,0.2,3.2h-2c0.1-1.1,0.2-2.2,0.2-3.2v-1.9h-5.6v2.3
	c0,1.1,0,2.1,0.2,3.2H683c0.1-1,0.2-2.1,0.2-3.2v-9.5c0-1.1,0-2.3-0.1-3.4c1.1,0.1,2.2,0.2,3.2,0.2L690.6,909.1z M684.9,910.6v3h5.6
	v-3H684.9z M684.9,918h5.6v-3h-5.6V918z M692.3,913.5h6.3v-3h-6.3V913.5z M698.6,915h-6.3v3h6.3V915z"/>
<path class="st0" d="M713,904.5c0.1,0.6,0.3,1.2,0.6,1.8c0.6,1.8,0.9,2.6,1.3,4c2.1-0.7,4.3-1.3,6.5-1.7c0.1-1.8,0-3.5-0.1-5.3h2.2
	c-0.1,1.3-0.2,2.7-0.2,4c0,0,0,0.6,0,1c0.7-0.1,1.5-0.2,2.2-0.2c4,0,6.6,2.2,6.6,5.5c0,3.6-2.9,6.2-7,6.2c-1.7,0-3.5-0.4-5.1-1.1
	c0-0.2,0-0.4,0-0.5c0-0.6-0.1-1.1-0.2-1.7c1.5,0.9,3.2,1.4,5,1.4c1.3,0,2.6-0.4,3.6-1.2c1-0.7,1.5-1.9,1.4-3.1
	c0-2.3-1.8-3.6-4.8-3.6c-2.2,0-5.4,0.7-9.8,2.1c1.5,5.1,2.6,9.3,3.9,15c0.1,0.4,0.2,0.9,0.4,1.3l-2.4,0.5c-0.2-2.5-1.8-9.7-3.8-16.2
	c-0.5,0.2-1.1,0.4-1.6,0.5c-1.4,0.4-2.8,1-4.1,1.7l-0.8-2.1c1.5-0.4,3-0.8,4.4-1.4c0.8-0.3,1-0.3,1.5-0.5c-0.5-2-1.2-3.9-2.2-5.7
	L713,904.5z"/>
<path class="st0" d="M742.9,904.7c0-0.8-0.1-1.5-0.2-2.3h2c-0.1,0.8-0.2,1.5-0.2,2.3v1h1.9c0.8,0,1.6,0,2.4-0.2v1.8
	c-0.8-0.1-1.6-0.1-2.4-0.1h-2v2.6h1.2c0.9,0,1.8,0,2.7-0.1v0.2c1.2-0.6,2.2-1.4,3.2-2.2c1.6-1.3,3-3,3.9-4.9h1.8
	c2,3.1,4.9,5.4,8.3,6.8c-0.5,0.5-0.8,1-1.2,1.6c-3.1-1.6-5.8-3.9-8-6.8c-1.8,2.8-4.1,5.1-6.9,6.9c-0.3-0.5-0.7-1-1.2-1.4
	c-0.1,0.8-0.1,1.7-0.1,2.5v5c0,1,0,1.9,0.1,2.9c-0.2,0-0.2,0-0.8-0.1c-0.2,0-1.3,0-2,0h-1.1v2.8h1.9c0.8,0,1.6,0,2.4-0.2v1.9
	c-0.8-0.1-1.6-0.2-2.4-0.2h-1.9v2.3c0,0.9,0.1,1.9,0.2,2.8h-2c0.1-0.9,0.2-1.9,0.2-2.8v-2.2h-2.4c-0.8,0-1.7,0-2.5,0.2V923
	c0.8,0.1,1.7,0.2,2.5,0.2h2.4v-2.8h-1c-1,0-1.9,0-2.9,0.1c0.1-1,0.1-2,0.1-3v-4.8c0-1,0-1.9-0.1-2.9c0.9,0.1,1.9,0.1,2.8,0.1h1.1
	v-2.6h-2.2c-0.8,0-1.6,0-2.5,0.2v-1.9c0.8,0.1,1.6,0.2,2.5,0.2h2.2L742.9,904.7z M740.6,911.3v3h2.3v-3H740.6z M740.6,915.7v3.2h2.3
	v-3.2H740.6z M746.8,914.3v-3h-2.3v3H746.8z M746.8,918.9v-3.2h-2.3v3.2H746.8z M751.5,926.9c0,0.9,0,1.8,0.2,2.7h-1.9
	c0.1-0.9,0.1-1.8,0.2-2.8V916c0-1.1,0-1.9-0.1-2.8c0.8,0.1,1.6,0.1,2.4,0.1h2.1c0.8,0,1.6,0,2.4-0.1c-0.1,0.7-0.1,1.6-0.1,2.8v11.4
	c0,1-0.2,1.3-0.8,1.7c-0.5,0.2-1,0.3-1.6,0.2c-0.5,0-0.7,0-1.3,0c0-0.6-0.1-1.2-0.4-1.7c0.6,0.1,1.2,0.2,1.8,0.2
	c0.4,0,0.6-0.2,0.6-0.6v-3.8h-3.5L751.5,926.9L751.5,926.9z M755,917.6v-2.9h-3.5v2.9H755z M755,921.9v-2.8h-3.5v2.9L755,921.9z
	 M752.6,909.2c0.8,0.1,1.5,0.1,2.3,0.1h3.8c0.8,0,1.5,0,2.2-0.1v1.8c-0.7-0.1-1.5-0.1-2.2-0.1h-3.8c-0.8,0-1.5,0-2.3,0.1V909.2z
	 M760.5,913.4c-0.1,0.8-0.2,1.5-0.2,2.3v6.2c0,0.9,0,1.7,0.2,2.6h-2c0.1-0.9,0.2-1.7,0.2-2.6v-6.2c0-0.8,0-1.5-0.2-2.3H760.5z
	 M764.2,926.9c0,1.9-0.5,2.4-2.5,2.4c-0.7,0-1.4,0-2.1-0.1c0-0.6-0.1-1.3-0.4-1.9c0.8,0.2,1.6,0.3,2.5,0.3c0.8,0,0.9-0.2,0.9-0.9
	v-11.1c0-1-0.1-2-0.2-3h2c-0.1,1-0.2,2-0.2,3V926.9z"/>
<path class="st0" d="M770,914.1c0.8,0.1,1.5,0.2,2.3,0.2h1.6c0.8,0,1.5-0.1,2.3-0.2c-0.1,1.1-0.2,2.1-0.2,3.2v5.8
	c0.6,1.4,1.8,2.5,3.2,3.1c1.2,0.5,3.2,0.6,6.6,0.6c3.9,0.1,7.8-0.1,11.6-0.6c-0.3,0.7-0.6,1.4-0.7,2.2c-4.1,0.2-6.6,0.2-9.6,0.2
	c-4.6,0-6.4-0.1-7.9-0.6c-1.8-0.5-3.4-1.7-4.3-3.3c-1.1,1.2-2.3,2.2-3.6,3.2c-0.3,0.2-0.7,0.6-1.1,0.9l-1-2c1.8-0.9,3.4-2.2,4.8-3.7
	v-7.2h-2c-0.7,0-1.5,0-2.2,0.2L770,914.1z M772.1,903.1c1.8,1.6,3.4,3.4,4.8,5.3l-1.5,1.3c-1.3-2-2.9-3.8-4.7-5.4L772.1,903.1z
	 M781.6,909.8c-1,0-1.9,0.1-2.8,0.2v-2c0.9,0.1,1.9,0.2,2.8,0.2h6.4c1.1-1.8,2-3.6,2.8-5.6l1.8,0.8c-0.8,1.7-1.7,3.3-2.6,4.8h2.7
	c0.9,0,1.9,0,2.8-0.2v2c-1-0.1-1.9-0.2-2.9-0.2h-5.1c0,1.6-0.1,3.2-0.3,4.7h6.3c1,0,1.9,0,2.9-0.2v2.1c-1-0.1-2-0.2-3-0.2H788
	c0.6,1.2,1.3,2.4,2.3,3.4c1.7,1.8,3.9,3.1,6.2,3.8c-0.5,0.5-0.9,1.1-1.1,1.8c-2.1-0.8-3.9-1.9-5.5-3.4c-1.4-1.3-2.5-2.8-3.2-4.6
	c-1.1,3.3-3.4,5.7-7.3,7.8c-0.3-0.6-0.8-1.2-1.3-1.6c4-1.8,6.1-3.9,7-7.1h-4.2c-1,0-2,0-2.9,0.2v-2.1c1,0.1,2,0.2,2.9,0.2h4.6
	c0.2-1.6,0.3-3.1,0.3-4.7h-4.2V909.8z M782.4,902.4c1,1.4,1.9,2.9,2.6,4.4l-1.6,0.9c-0.7-1.6-1.6-3.1-2.6-4.5L782.4,902.4z"/>
<path class="st0" d="M47,962.6c0-1,0-2.1-0.2-3.1h2.1c-0.1,1-0.1,2.1-0.1,3.1v3h0.8c0.7,0,1.3,0,2-0.1v1.9c-0.6-0.1-1.3-0.1-1.9-0.1
	H49c0.5,1.3,1.3,2.6,2.2,3.6c-0.3,0.5-0.6,1-0.8,1.6c-0.7-1-1.3-2.1-1.6-3.2c0.1,2.1,0.1,3.4,0.1,4.4v9.8c0,1.2,0,2.3,0.2,3.5H47
	c0.1-1.2,0.2-2.3,0.2-3.5v-8.2c0-1.2,0.1-3.5,0.3-5.8c-0.5,3.3-1.7,6.5-3.4,9.4c-0.3-0.6-0.6-1.2-1.1-1.7c2-3,3.3-6.4,3.9-9.9h-1.1
	c-0.7,0-1.4,0-2.1,0.1v-1.9c0.7,0.1,1.4,0.1,2.1,0.1H47V962.6z M55.8,976.4c-0.1,0.8-0.1,0.8-0.1,1.4c1.1,1.3,2.4,2.4,3.9,3.2
	c-0.4,0.4-0.7,0.9-1,1.4c-1.2-0.8-2.3-1.7-3.3-2.8c-0.6,2.7-2,5-4.1,6.8c-0.4-0.5-0.9-1-1.4-1.3c2.8-1.9,4-4.4,4.3-8.7h-0.3
	c-0.9,0-1.8,0-2.7,0.2v-1.9c0.9,0.1,1.8,0.2,2.7,0.2h6.8c-0.2-1.2-0.4-2.5-0.5-3.8c-0.3-3.1-0.5-6.3-0.5-9.4c0-0.6,0-1.3-0.2-1.9
	h2.1c-0.1,1-0.2,2-0.2,2.9c0,4,0.2,8.1,0.8,12.1h5.3c1.1,0,2.1,0,3.2-0.2v2c-1.1-0.1-2.1-0.2-3.2-0.2h-5c0.3,1.4,0.8,2.8,1.5,4
	c1.1-0.9,2.1-2.1,2.8-3.4l1.5,1c-1.1,1.3-2.2,2.5-3.5,3.7c1.3,1.8,2.5,2.9,3.3,2.9c0.4,0,0.5-0.2,0.8-1c0.3-1,0.5-2,0.5-3
	c0.5,0.4,1,0.7,1.5,1c-0.7,3.8-1.3,4.9-2.7,4.9s-3.1-1.3-4.8-3.7c-2.2,1.7-4.8,3-7.4,3.8c-0.3-0.6-0.7-1.1-1.2-1.5
	c2.8-0.7,5.5-1.9,7.8-3.6c-0.9-1.6-1.5-3.3-1.8-5.1L55.8,976.4z M56.8,960.5c-0.8,1.6-1.7,3.2-2.8,4.6c0.5,0.5,1,1.1,1.4,1.7
	c0.7-1.1,1.3-2.2,1.8-3.3l1.4,1c-1.4,2.3-2.9,4.5-4.7,6.6c1.5-0.2,2.8-0.4,3.8-0.5c-0.3-0.7-0.6-1.3-1-1.9l1.2-0.5
	c0.8,1.3,1.5,2.8,2,4.3l-1.3,0.6c-0.2-0.6-0.2-0.8-0.4-1.3c-1.3,0.3-2.8,0.6-5.7,1c-0.3,0-0.6,0.1-0.8,0.2l-0.4-1.7
	c0.1,0,0.2,0,0.4,0s0.3,0,0.5,0c1.1-1.3,1.6-2,2.4-3.2c-1-1.4-2.2-2.6-3.6-3.7l1.1-1.2c0.2,0.2,0.5,0.5,0.8,0.8
	c1-1.3,1.8-2.8,2.3-4.3L56.8,960.5z M62.3,970.5c0.1,0,0.3,0,0.5,0c0.1,0,0.2,0,0.3,0c1-1.2,1.3-1.5,2.2-2.7c-1-1.4-2.1-2.6-3.5-3.6
	l1-1.3c0.5,0.5,0.6,0.6,0.9,0.9c0.9-1.2,1.6-2.6,2.2-4l1.6,0.8c-0.8,1.4-1.7,2.8-2.7,4.1c0.6,0.7,0.9,1,1.4,1.7
	c0.9-1.1,1.6-2.3,2.3-3.6l1.3,1.1c-2.7,3.7-3.6,4.7-5,6.4c1.2-0.1,2.4-0.2,3.7-0.4c-0.2-0.6-0.5-1.1-0.9-1.7l1.2-0.5
	c0.9,1.5,1.6,3,2.2,4.6l-1.4,0.5c-0.3-0.9-0.4-1.2-0.6-1.8c-0.7,0.2-2.7,0.4-5.9,0.8c-0.2,0-0.3,0.1-0.5,0.1L62.3,970.5z
	 M65.5,971.9c0.8,0.5,1.6,1.1,2.3,1.8l-1.1,1c-0.7-0.8-1.4-1.4-2.2-2L65.5,971.9z"/>
<path class="st0" d="M85.6,970.9c0.7-0.8,1.2-1.6,1.7-2.5c-0.6-0.1-1.1-0.1-2.4-0.1h-4.7c-0.8,0-1.7,0-2.5,0.1
	c0.1-0.8,0.1-1.6,0.1-2.3v-3.3c0-0.8,0-1.6-0.1-2.5c0.8,0.1,1.7,0.1,2.6,0.1H85c0.9,0,1.7,0,2.6-0.1c-0.1,0.7-0.1,1.4-0.1,2.4v3.5
	c0,1.1,0,1.4,0,2c0.1-0.3,0.1-0.4,0.2-0.6l2,0.5c-0.8,1.2-1,1.7-1.9,2.7h11.6c1,0,2,0,3-0.2v2c-1-0.1-2-0.2-3-0.2h-6
	c2.8,2.6,6.2,4.4,9.9,5.2c-0.4,0.5-0.7,1.1-1,1.7c-1.3-0.5-1.7-0.7-2.7-1.1v5.6c0,0.9,0,1.8,0.2,2.6h-2V985h-5.9v1.4H90
	c0.1-0.7,0.2-1.5,0.2-2.2v-5.6c0-0.8,0-1.6-0.1-2.4c0.8,0.1,1.7,0.1,2.5,0.1h3.6c-1.8-1.1-3.5-2.4-4.9-4h-4.6c-1.4,1.5-3,2.9-4.7,4
	h3.5c0.8,0,1.6,0,2.5-0.1c-0.1,0.8-0.1,1.6-0.1,2.4v5.3c0,0.8,0,1.5,0.2,2.3h-1.9V985h-5.4v1.5h-2c0.1-0.9,0.2-1.8,0.2-2.7v-5.7
	c-0.9,0.5-1.3,0.6-2.4,1.1c-0.2-0.6-0.5-1.2-1-1.6c3.4-1,6.5-2.8,9.1-5.3h-5.4c-1,0-2,0-3,0.2v-2c1,0.1,2,0.2,3,0.2L85.6,970.9z
	 M79.5,966.8h6V962h-6V966.8z M80.3,983.6h5.4V978h-5.4V983.6z M100,966.1c0,0.8,0,1.6,0.1,2.3c-0.9-0.1-1.7-0.1-2.6-0.1h-4.9
	c-0.9,0-1.7,0-2.6,0.1c0.1-0.7,0.1-1.4,0.1-2.2v-3.5c0-0.8,0-1.6-0.1-2.4c0.8,0.1,1.7,0.1,2.6,0.1h4.9c0.9,0,1.7,0,2.6-0.1
	c-0.1,0.8-0.1,1.6-0.1,2.5V966.1z M91.6,983.6h5.9V978h-5.9V983.6z M91.9,966.8h6.3V962H92L91.9,966.8z"/>
<path class="st0" d="M113.8,961.4c-0.5,1.6-0.9,3.2-1.3,4.8c-0.6,3.1-0.9,6.2-0.9,9.4c0,2.3,0.1,4.1,0.2,5.7c0.4-2,1.1-4,2-5.8
	l1.4,0.7c-1.3,3-2.4,6.6-2.4,8.2v0.5l-2.2,0.2c-0.1-0.5-0.1-0.6-0.2-1.2c-0.5-2.8-0.8-5.6-0.8-8.5c-0.1-4,0.4-8,1.3-11.9
	c0.2-0.8,0.3-1.6,0.4-2.4L113.8,961.4z M121.5,973.5c-1.5,1.7-2.2,3.1-2.2,4.4c0,2.2,1.9,3.3,5.8,3.3c2.3,0.1,4.7-0.3,6.9-1l0.3,2.3
	c-0.4,0-0.4,0.1-1,0.2c-2,0.4-4.1,0.6-6.2,0.6c-3.4,0-5.6-0.7-6.9-2.3c-0.6-0.8-0.9-1.8-0.9-2.8c0-1.8,0.8-3.5,2.6-5.6L121.5,973.5z
	 M117.7,964.6c1.7,0.4,3.4,0.5,5.1,0.5c2.7,0.1,5.4-0.2,8-0.8l0.1,2.1l-2.1,0.3c-2.1,0.3-4.3,0.4-6.4,0.4c-1.6,0-3.2-0.1-4.8-0.3
	L117.7,964.6z"/>
<path class="st0" d="M142.1,983.2c0,1.1,0,2.2,0.2,3.4H140c0.1-1.1,0.2-2.2,0.2-3.4v-19.6c0-1.5,0-2.3-0.1-3.3
	c1,0.1,2.1,0.1,3.1,0.1h4.5c1,0,2,0,3.1-0.1c-0.1,0.8-0.1,1.7-0.1,2.8v3.3c0,1.2,0,2,0.1,2.8c-0.8-0.1-1.8-0.1-3-0.1h-5.7V983.2z
	 M142.1,964h6.9v-2.2h-6.9V964z M142.1,967.6h6.9v-2.3h-6.9V967.6z M153.2,978.5c1.4,2,3.5,3.4,6.7,4.2c-0.4,0.5-0.7,1.1-0.9,1.7
	c0.9,0.1,1.7,0.2,2.6,0.2c0.8,0,1-0.2,1-0.9V969h-6.2c-1.3,0-2.2,0-3.1,0.1c0.1-0.8,0.1-1.7,0.1-2.8V963c0-1,0-2-0.1-2.8
	c1,0.1,2,0.1,3.1,0.1h5.1c1.1,0,2.1,0,3.1-0.1c-0.1,1.1-0.2,2.2-0.1,3.3v20.2c0,2-0.5,2.5-2.9,2.5c-0.8,0-1.8-0.1-2.8-0.1
	c0-0.7-0.2-1.3-0.4-1.9c0.2,0,0.4,0.1,0.7,0.1c-2.8-0.9-5.2-2.6-6.9-5c-1.1,2.9-3,4.4-7.3,6c-0.3-0.6-0.6-1.1-1.1-1.6
	c1.9-0.4,3.8-1.3,5.3-2.5c0.8-0.7,1.4-1.7,1.7-2.7H147c-0.9,0-1.8,0-2.7,0.2v-1.8c0.9,0.1,1.8,0.2,2.7,0.2h4.2
	c0.1-0.9,0.2-1.8,0.2-2.7h-3.8c-0.9,0-1.7,0-2.6,0.1v-1.7c0.8,0.1,1.7,0.2,2.6,0.2h1.5c-0.5-0.9-1.1-1.7-1.8-2.5l1.5-0.6
	c0.8,1,1.5,2,2.1,3.2h3.1c0.7-1,1.3-2.1,1.8-3.2l1.7,0.5c-0.5,0.9-1.1,1.8-1.7,2.7h1.7c0.9,0,1.7,0,2.6-0.2v1.7
	c-0.8-0.1-1.7-0.1-2.6-0.1H153c0,0.9-0.1,1.8-0.2,2.7h5.1c0.9,0,1.8,0,2.7-0.2v1.8c-0.9-0.1-1.8-0.2-2.7-0.2L153.2,978.5z
	 M155.2,964h7.4v-2.2h-7.4V964z M155.2,967.6h7.4v-2.3h-7.4V967.6z"/>
<path class="st0" d="M185.4,962.1c0-0.6,0-1.2-0.1-1.7h2.2c-0.1,1.2-0.2,2.5-0.1,3.8v0.3c5.7,0,8-0.1,9-0.2v2.1
	c-1.9-0.2-3.8-0.2-5.7-0.2c-0.4,0-0.8,0-3.2,0.1v5.9c0.5,1.1,0.7,2.3,0.7,3.5c0,3.1-1.5,6-4,7.8c-1.5,1-3.1,1.8-4.8,2.4
	c-0.3-0.7-0.8-1.3-1.3-1.9c1.7-0.5,3.4-1.2,4.9-2.2c2.1-1.4,3.3-3.8,3.4-6.3c-0.2,0.5-0.4,1-0.8,1.5c-1.9,2-5,2.2-7.1,0.3
	c-1-0.9-1.6-2.1-1.6-3.5c0-2.8,2.3-5,5-5c0.1,0,0.2,0,0.3,0c1.3-0.1,2.6,0.4,3.5,1.3c0-0.4,0-0.5,0-1.7c0-0.1,0-0.4,0-0.8v-1.5
	c-6,0.1-12.1,0.4-14.1,0.8l-0.1-2.2c0.5,0,0.8,0,1.2,0c0.9,0,0.9,0,5.7-0.2c2.9-0.1,5.2-0.2,7.3-0.2L185.4,962.1z M184.1,971.1
	c-0.6-0.3-1.3-0.5-2-0.5c-1.7-0.1-3.2,1.3-3.3,3v0.1c-0.1,1.6,1.2,2.9,2.8,3c0.1,0,0.2,0,0.3,0c1.9,0.1,3.4-1.3,3.5-3.2
	c0-0.1,0-0.2,0-0.3C185.5,972.3,185,971.5,184.1,971.1L184.1,971.1z"/>
<path class="st0" d="M207.7,962.1c0.9,0.2,1.9,0.2,2.8,0.2c2.5,0,6.5-0.2,9.2-0.4c0.5,0,1-0.1,1.4-0.3l1.3,1.7
	c-0.6,0.3-1.1,0.8-1.5,1.3c-3,3.1-6.3,6-9.8,8.5l0.1,0.1c2.3-1.2,4.8-1.9,7.4-1.9c5,0,8.2,2.5,8.2,6.3c0,4.7-4.4,7.8-11,7.8
	c-4.2,0-6.7-1.6-6.7-4.3c0-2,1.9-3.5,4.4-3.5c2,0,3.8,0.9,4.9,2.5c0.6,0.9,1.1,1.8,1.4,2.9c3.1-0.9,4.8-2.7,4.8-5.2
	c0-2.9-2.4-4.6-6.4-4.6c-4.7,0.1-9.2,1.9-12.6,5.1l-1.4-1.9c1.5-0.9,2.9-1.9,4.2-3.1c3.2-2.5,8-6.7,10-8.8l0.4-0.4l0.1-0.1l0.1-0.1
	l-0.1-0.1h-0.3c-1,0.2-4.6,0.4-9.1,0.5c-0.5,0-1.1,0.1-1.6,0.2L207.7,962.1z M213.3,979.2c-1.5,0-2.4,0.7-2.4,1.9
	c0,0.8,0.5,1.5,1.2,1.8c1.1,0.5,2.2,0.7,3.4,0.7c0.7,0,1.5-0.1,2.2-0.2C217,980.6,215.5,979.2,213.3,979.2z"/>
<path class="st0" d="M236.6,962.5c-0.9,0-1.7,0-2.6,0.2v-2c0.9,0.1,1.8,0.2,2.7,0.2h4.9c0.8,0,1.7,0,2.5-0.2v2
	c-0.8-0.1-1.6-0.1-2.4-0.1h-1.9c-0.3,2.6-1,5.2-2.1,7.6h3.8c0.6,0,1.2,0,1.9-0.1c-0.1,0.8-0.1,1.6-0.1,2.4v9.3c0,0.8,0,1.7,0.1,2.5
	h-1.9v-1.5h-3.7v3.2h-2c0.1-1,0.2-2,0.2-3v-6.7c0-1.1,0-2,0.1-3.4c-0.6,1.3-1.3,2.6-2.2,3.7c-0.2-0.7-0.6-1.3-1.1-1.8
	c1.9-2.2,3.3-4.8,4.1-7.6c0.5-1.5,0.8-3.1,1-4.7L236.6,962.5z M237.8,981.1h3.7v-9.4h-3.7V981.1z M248.2,962.5c-1,0-1.9,0-2.9,0.2
	v-2.1c1,0.1,2,0.2,3,0.2h9.5c1,0,2,0,3-0.2v2.1c-1-0.1-1.9-0.2-2.9-0.2h-0.7v8.3h1c1,0,2,0,3-0.2v2.1c-1-0.1-2-0.2-3-0.2h-1v10.8
	c0,1.1,0.1,2.1,0.2,3.2H255c0.1-1.1,0.2-2.1,0.2-3.2v-10.8h-4.9c-0.3,6.7-1.6,10.3-5,14.3c-0.5-0.6-1.1-1-1.7-1.3
	c3.1-3,4.6-6.8,4.8-12.9h-0.8c-1,0-2,0-3,0.2v-2.1c1,0.1,2,0.2,3,0.2h0.9v-8.3L248.2,962.5z M250.4,969.8v1h4.9v-8.3h-4.9V969.8z"/>
<path class="st0" d="M281.6,974.5c1.1,0,2.2,0,3.4-0.2c-0.1,0.7-0.1,1.3-0.1,2.6l-0.1,6.1c0,0.9,0.3,1,2.7,1c2.1,0,2.7-0.2,2.9-0.7
	c0.4-1.5,0.5-3,0.5-4.5c0.6,0.4,1.3,0.6,2,0.8c-0.5,6-0.7,6.2-5.5,6.2c-3.7,0-4.4-0.4-4.4-2.4v-0.2l0.1-7h-5.6
	c-0.4,1.8-1.2,3.5-2.3,5c-0.9,1.1-2,2.1-3.2,2.9c-1.5,1-3.2,1.9-5,2.5c-0.3-0.7-0.8-1.3-1.3-1.7c2.1-0.6,4-1.5,5.8-2.7
	c2.1-1.4,3.6-3.5,4.2-5.9H271c-1.1,0-2.2,0-3.2,0.2v-2.1c1.1,0.1,2.1,0.2,3.2,0.2h5.2c0.1-0.8,0.2-1.7,0.2-2.5c0-0.5,0-1.1-0.1-1.6
	h2.3c-0.1,0.6-0.2,1.3-0.2,1.9c-0.1,0.7-0.1,1.5-0.2,2.2L281.6,974.5z M277.6,961.8c0-0.7-0.1-1.5-0.2-2.2h2.3
	c-0.2,0.7-0.2,1.4-0.2,2.2v0.9h8.9c1,0,2,0,3-0.2c-0.1,0.7-0.1,1.4-0.1,2.1v1.5c0,0.7,0,1.4,0.1,2.1h-2v-3.8H282v4.3
	c0,0.4,0.1,0.5,0.2,0.6c0.6,0.2,1.3,0.2,1.9,0.2c0.8,0.1,1.7,0,2.4-0.3c0.3-0.2,0.5-1,0.5-2.4c0.6,0.3,1.2,0.5,1.8,0.6
	c-0.1,1.9-0.4,2.7-0.9,3.2s-1.7,0.7-3.9,0.7c-3.1,0-3.9-0.3-3.9-1.7v-5.2h-3.7c-0.1,1.2-0.4,2.3-1,3.3c-1.1,1.8-2.7,3.2-4.7,3.8
	c-0.9,0.3-1.8,0.6-2.8,0.9c-0.3-0.6-0.7-1.1-1.1-1.7c3.2-0.6,4.7-1.2,6-2.4c1.1-1,1.8-2.5,1.8-4h-6.4v3.8h-2
	c0.1-0.7,0.1-1.4,0.1-2.1v-1.5c0-0.7,0-1.4-0.1-2.1c1,0.1,2,0.2,3,0.2h8.3L277.6,961.8z"/>
<path class="st0" d="M312,973c0,1.4-1.1,2.5-2.5,2.5s-2.5-1.1-2.5-2.5s1.1-2.5,2.5-2.5C310.9,970.6,312,971.7,312,973z"/>
<path class="st0" d="M330.1,983.2c0,1.1,0,2.2,0.2,3.4H328c0.1-1.1,0.2-2.2,0.2-3.4v-19.7c0-1.5,0-2.3-0.1-3.3
	c1,0.1,2.1,0.1,3.1,0.1h4.6c1,0,2,0,3-0.1c-0.1,0.8-0.1,1.7-0.1,2.8v3.7c0,1.2,0,2,0.1,2.8c-0.7-0.1-1.7-0.1-3-0.1H330L330.1,983.2z
	 M330.1,964.1h7v-2.3h-7V964.1z M330.1,968h7v-2.4h-7V968z M335.6,973.3c-1,0-1.9,0-2.9,0.1v-1.8c0.9,0.1,1.9,0.2,2.9,0.2h9.5
	c1,0,1.9,0,2.9-0.2v1.8c-0.9-0.1-1.9-0.1-2.9-0.1H344v3.7h1.5c1,0,1.9,0,2.9-0.2v1.8c-1-0.1-1.9-0.2-2.9-0.2H344v4.6
	c0,0.9,0,1.7,0.2,2.6h-2.1c0.2-0.9,0.2-1.7,0.2-2.6v-4.6h-4.5c-0.2,2.9-1.6,5.7-4,7.4c-0.4-0.5-0.9-0.9-1.5-1.2
	c2.2-1.4,3.6-3.7,3.8-6.2h-1c-1,0-1.9,0-2.9,0.2v-1.8c1,0.1,1.9,0.2,2.9,0.2h1.2c0.1-1.4,0.1-1.4,0.1-3.7H335.6z M338.1,973.3v0.7
	c0,0.9-0.1,2-0.1,3h4.4v-3.7H338.1z M352.5,983.6c0,1.3-0.3,1.9-1.1,2.2c-0.7,0.2-1.4,0.3-2.1,0.2c-0.4,0-2-0.1-2.5-0.1
	c-0.1-0.7-0.3-1.3-0.6-1.9c1.1,0.2,2.2,0.3,3.3,0.3c1,0,1.2-0.2,1.2-0.8v-14.1h-6.1c-1.3,0-2.2,0-3.1,0.1c0.1-0.9,0.1-1.6,0.1-2.8
	V963c0-1.1,0-1.9-0.1-2.8c1,0.1,2.1,0.1,3.1,0.1h5c1.1,0,2.1,0,3.1-0.1c-0.1,1.1-0.2,2.2-0.1,3.3L352.5,983.6z M343.3,964.1h7.4
	v-2.3h-7.4V964.1z M343.3,968h7.4v-2.4h-7.4V968z"/>
<path class="st0" d="M367.4,976c0.2-1.4,0.2-2.9,0.2-4.3c-0.8,0-1.6,0-2.5,0.1v-1.5c-1.8,1.4-3.7,2.6-5.8,3.5
	c-0.3-0.6-0.7-1.1-1.2-1.6c2.5-0.9,4.8-2.3,6.8-4.1c-1.4-1.5-2.9-2.8-4.5-3.9l1.4-1.2c1.6,1.2,3.1,2.5,4.4,3.9
	c1.5-1.4,2.8-2.9,3.8-4.7h-5.7c-0.7,0-1.3,0.1-2,0.2v-1.9c0.7,0.1,1.4,0.2,2.2,0.2h5.7c0.9,0,1.8,0,2.7-0.1c0.4,1.5,1.2,3,2.3,4.1
	c1.2-1.1,2.3-2.4,3.1-3.8l1.6,1.1c-0.2,0.2-0.4,0.4-0.6,0.7c-0.9,1.2-2,2.2-3.1,3.2c0.8,0.8,1.6,1.5,2.5,2.3
	c1.4-1.2,2.6-2.6,3.6-4.1l1.6,1.1l-1.5,1.6c-0.8,0.9-1.6,1.7-2.5,2.4c1.7,1.3,3.6,2.3,5.6,3c-0.5,0.5-0.9,1.1-1.2,1.7
	c-2-0.9-4-2-5.7-3.4v1.4c-0.8-0.1-1.7-0.1-2.5-0.1h-0.5v4.3h5.3c1,0,2,0,3-0.2v2c-1-0.1-2-0.2-3-0.2h-5.3v5.7c0,0.5,0.1,0.7,0.6,0.8
	c0.8,0.1,1.5,0.2,2.3,0.2c2.3,0,3.2-0.2,3.6-0.6s0.6-1.5,0.8-3.4c0.6,0.4,1.2,0.7,1.9,0.9c-0.4,2.2-0.7,3.3-1.3,4s-1.9,1-5.2,1
	c-3.7,0-4.6-0.4-4.6-2.2v-6.2h-5c-0.3,1.7-1,3.3-2.1,4.7c-1,1.1-2.1,2.1-3.4,2.8c-1,0.6-2,1-3,1.4c-0.4-0.6-0.8-1.2-1.4-1.7
	c1.6-0.4,3.2-1.2,4.6-2.1c1.8-1.1,3.1-3,3.5-5.1h-4.4c-1,0-2,0-3,0.2v-2c1,0.1,2,0.2,3,0.2L367.4,976z M376.3,970.1
	c0.7,0,1.4,0,2.1-0.1c-2.7-2-4.9-4.5-6.5-7.5c-1.6,2.9-3.8,5.4-6.4,7.5c0.7,0.1,1.5,0.1,2.2,0.1H376.3z M369.5,971.7
	c0,1.4,0,2.9-0.2,4.3h4.7v-4.3H369.5z"/>
<path class="st0" d="M399.5,964.3c0.7-1.3,1.2-2.7,1.4-4.1l2.4,0.4c-0.3,0.5-0.6,1-0.8,1.6c-0.4,1-0.8,1.8-0.9,2c0.2,0,0.4,0,0.6,0
	c4.8-0.2,7.8-0.6,9.5-1.1l0.2,2c-0.4,0-0.8,0.1-1.2,0.2c-3.3,0.4-6.6,0.7-9.9,0.8c-0.7,1.5-1.6,2.9-2.7,4.3c-0.3,0.4-0.9,1-1,1.1
	s-0.4,0.3-0.4,0.3l0,0l0,0c0,0,0,0.1,0.1,0.1c1.1-0.8,1.1-0.8,1.4-1c1.3-0.9,2.9-1.5,4.5-1.5c2-0.2,3.8,1.2,4,3.2v0.1
	c2.2-0.9,3.9-1.5,5.2-2c0.7-0.2,1.4-0.5,2-0.9l1,2.1c-2.7,0.7-5.4,1.5-8,2.6c0.1,0.8,0.1,1.1,0.1,1.8c0,0.4,0,1,0,1.7s0,1.1,0,1.3
	c0,0.4,0,0.7,0.1,1.1h-2c0.1-1.4,0.2-2.9,0.2-4.3c0-0.3,0-0.6,0-0.9c-4.1,1.9-5.6,3.3-5.6,5.1c0,2,1.9,2.8,6.1,2.8
	c2.7,0,5.4-0.4,8-1.2l0.3,2.3c-0.4,0-0.8,0.1-1.2,0.2c-2.4,0.4-4.8,0.6-7.3,0.6c-5.4,0-8-1.5-8-4.6c0-1.7,1-3.2,3.1-4.7
	c1.4-1,2.9-1.8,4.5-2.4c-0.2-1.7-1-2.4-2.4-2.4c-1.9,0-4.3,1.1-6.7,3.2c-0.9,0.7-1.7,1.5-2.3,2.5l-1.9-1.6c2.7-2.4,5-5.3,6.7-8.6
	l0.3-0.5c-0.2,0-0.4,0.1-0.6,0.1l-4.4-0.1h-0.5c-0.2,0-0.4,0-0.7,0v-2.1c2.1,0.3,4.3,0.4,6.4,0.3L399.5,964.3z"/>
<path class="st0" d="M426.4,976.3c0-1.3,0-2.2,0.1-3.6c-1,1.3-2.1,2.4-3.4,3.4c-0.3-0.6-0.7-1.2-1.2-1.7c2.3-1.6,4.4-3.6,6.1-5.9
	c0.6-0.8,1.1-1.7,1.4-2.6l1.9,1c-0.3,0.4-0.6,0.8-0.9,1.3c-0.6,1-1.3,1.9-2,2.7V983c0,1.2,0,2.4,0.2,3.7h-2.4
	c0.2-1.2,0.2-2.4,0.2-3.7L426.4,976.3z M430.5,960.6c-0.2,0.2-0.4,0.4-0.5,0.7c-1.9,2.5-4.1,4.7-6.7,6.5c-0.4-0.6-0.8-1.1-1.4-1.5
	c1.5-0.9,2.8-2,4-3.2c1.1-1,2.1-2.3,2.7-3.7L430.5,960.6z M434.9,970.6c-1.1,0-2.2,0-3.3,0.2v-2.1c1.1,0.1,2.2,0.2,3.3,0.2h10.5
	c1.1,0,2.2,0,3.3-0.2v2.1c-1.1-0.1-2.2-0.2-3.3-0.2h-1.7v13.1c0,1.9-0.7,2.4-3.4,2.4c-1,0-2.4-0.1-3.7-0.2c-0.1-0.7-0.2-1.4-0.5-2.1
	c1.4,0.2,2.8,0.3,4.2,0.4c1,0,1.3-0.1,1.3-0.7v-13L434.9,970.6z M432.8,961.2c1,0.1,2.1,0.2,3.1,0.2h8.4c1,0,2.1,0,3.1-0.2v2.1
	c-1-0.1-2.1-0.2-3.1-0.2h-8.4c-1,0-2.1,0.1-3.1,0.2V961.2z"/>
<path class="st0" d="M458.5,963.2c-0.2,1.2-0.3,2.4-0.2,3.6c0,3.1,0.2,6.3,0.8,9.3c0.6,3.1,1.9,5.1,3,5.1c0.5,0,1-0.5,1.5-1.5
	c0.7-1.6,1.3-3.4,1.6-5.1c0.5,0.6,1.1,1.2,1.8,1.7c-1.5,5.2-2.8,7.3-5,7.3c-1.7,0-3.2-1.7-4.3-4.6s-1.5-6.7-1.6-14.1
	c0-1.1,0-1.2-0.1-1.8L458.5,963.2z M473,964.8c1.8,2,3.2,4.4,4.3,6.8c1.1,2.5,1.9,5.2,2.2,8l-2.1,0.9c-0.5-5.5-2.7-10.6-6.2-14.8
	L473,964.8z"/>
<path class="st0" d="M485.3,978.4c1,0.1,2.1,0.2,3.1,0.2h20.5c1,0,2.1,0,3.1-0.2v2.1c-1-0.1-2-0.2-3.1-0.2h-20.5c-1,0-2.1,0-3.1,0.2
	V978.4z M495.8,982.1c-2.8,2.4-4.6,3.3-8.7,4.5c-0.4-0.6-0.8-1.2-1.4-1.7c1.8-0.4,3.6-0.9,5.2-1.7c1.1-0.6,2.2-1.3,3.1-2.2
	L495.8,982.1z M504.7,960.8c1,0,2.1,0,3.1-0.2c-0.1,1-0.2,2-0.1,2.9v9.9c0,1,0,2,0.1,3c-1-0.1-2-0.2-3.2-0.2h-12
	c-1.1,0-2.2,0.1-3.2,0.2c0.1-1,0.2-2.1,0.1-3.1v-10c0-0.9,0-1.9-0.1-2.8c1.1,0.1,2.2,0.2,3.4,0.2L504.7,960.8z M491.4,962.5v2.9
	h14.4v-2.9H491.4z M491.4,967v3h14.4v-3H491.4z M491.4,971.7v3.1h14.4v-3.1H491.4z M502.7,981c2.6,1.9,4.4,2.7,8.8,3.8
	c-0.5,0.5-0.9,1.1-1.3,1.7c-3.3-0.9-6.4-2.4-9.1-4.4L502.7,981z"/>
<path class="st0" d="M520.2,973.5c0-1.3,0-2.2,0.1-3.7c-0.9,1.6-1.9,3-3.1,4.4c-0.3-0.6-0.7-1.2-1.2-1.7c2.5-2.7,4.5-5.8,5.8-9.2
	c0.5-1.3,0.9-2.6,1.1-3.9l2.1,0.6c-0.3,0.6-0.4,1-0.8,2.1c-0.6,1.7-1.3,3.4-2.2,5v16c0,1.2,0,2.3,0.2,3.5H520
	c0.1-1.2,0.2-2.4,0.2-3.6V973.5z M530,980.6c-0.8,0-1.6,0-2.4,0.2v-2c0.8,0.1,1.6,0.2,2.4,0.2h2.5v-6.3c0-1.4,0-2.4,0.1-3.7
	c-1.9,4.6-4.8,8.7-8.7,11.8c-0.4-0.6-0.9-1.2-1.4-1.6c2.4-1.7,4.6-3.9,6.2-6.4c1.2-1.6,2.2-3.4,3-5.2H527c-1,0-2,0.1-3,0.2v-2.1
	c1,0.1,2,0.2,3,0.2h5.5v-3.3c0-1-0.1-2-0.2-2.9h2.2c-0.2,1-0.3,2-0.2,2.9v3.3h6.4c1,0,2.1,0,3.1-0.2v2.1c-1-0.1-2-0.2-3.1-0.2H535
	c1.2,2.4,2.6,4.6,4.2,6.6c1.6,1.9,3.4,3.6,5.4,5c-0.6,0.5-1.1,1-1.5,1.7c-3.9-3.2-7-7.3-9-12c0.1,1.7,0.1,2.5,0.1,3.8v6.3h2.7
	c0.8,0,1.6,0,2.4-0.2v2c-0.8-0.1-1.6-0.2-2.4-0.2h-2.7v2.9c0,1,0.1,2.1,0.2,3.1h-2.2c0.1-1,0.2-2.1,0.2-3.1v-2.9L530,980.6z"/>
<path class="st0" d="M552.7,964.1c0.6-1.5,1-3,1.3-4.5l2.1,0.4c-0.6,1.7-1,2.8-1.5,4.1h2l2.6-0.1c-0.1,0.8-0.1,1.6-0.1,2.6V982
	c0,1,0,2.1,0.2,3.1h-2v-1.9h-5.8v2.6h-2c0.1-1.2,0.2-2.4,0.2-3.7v-15.3c0-1,0-1.9-0.1-2.8c0.6,0.1,1.2,0.1,1.8,0.1L552.7,964.1
	L552.7,964.1z M551.4,972.5h5.8v-6.7h-5.8V972.5z M551.4,981.5h5.8v-7.3h-5.8V981.5z M564,965.9c-0.9,1.9-2.1,3.8-3.5,5.5
	c-0.4-0.5-0.9-1-1.4-1.3c2-2.2,3.5-4.8,4.4-7.6c0.4-0.9,0.6-1.9,0.8-2.9l2.1,0.4c-0.2,0.4-0.3,0.8-0.4,1.1c-0.4,1.2-0.7,1.9-1.1,3.1
	h7.3c0.9,0,1.8,0,2.6-0.1c-0.1,0.6-0.1,1.3-0.1,1.9c-0.3,11.9-0.7,15.9-1.7,18.3c-0.6,1.4-1.6,1.9-3.3,1.9c-1.1,0-1.9-0.1-3.8-0.2
	c0-0.7-0.2-1.5-0.5-2.1c1.4,0.3,2.8,0.5,4.3,0.5c1.1,0,1.5-0.3,1.9-1.2c0.7-2.7,1.1-5.5,1.1-8.3c0.2-2.4,0.2-4.5,0.2-8.9L564,965.9z
	 M567.3,978.3c-1.2-2.7-2.7-5.3-4.6-7.6l1.5-0.9c1.9,2.3,3.5,4.8,4.7,7.5L567.3,978.3z"/>
<path class="st0" d="M590.8,960.5c-0.2,0.6-0.4,1.3-0.5,1.9c-0.2,1-0.4,1.7-0.8,3.3c1.8-0.1,3.6-0.5,5.4-1l0.1,2.1l-1,0.2
	c-1.6,0.3-3.3,0.5-4.9,0.6c-0.9,3-2,5.9-3.3,8.8c-0.7,1.4-1,2-2.1,3.9c-0.3,0.4-0.5,0.8-0.6,1l-2-1.2c1.1-1.5,2.1-3,2.9-4.7
	c1.3-2.5,2.3-5.1,3.1-7.7c-0.8,0-1.8,0.1-2.2,0.1h-2c-0.3,0-0.6,0-0.7,0h-0.4v-2.1c1.2,0.2,2.4,0.3,3.6,0.2h2.2
	c0.5-1.8,0.8-3.7,1-5.6L590.8,960.5z M605,983.7c-1.5-1.7-3.3-3.1-5.2-4.1c0,0.3,0.1,0.7,0.1,1c0,3.1-2,4.8-5.7,4.8
	s-5.8-1.7-5.8-4.3c0.1-1.7,1.2-3.2,2.8-3.8c1.1-0.5,2.3-0.7,3.5-0.7c1,0,2,0.1,3,0.5c-0.2-2-0.2-3.4-0.2-4.1c0-1,0.1-2,0.3-2.9
	l2,0.2c-0.3,0.9-0.4,1.8-0.4,2.8c0,1.5,0.1,3,0.3,4.6c2.1,0.9,4.1,2.1,5.9,3.6c0.2,0.2,0.3,0.3,0.5,0.5L605,983.7z M594.4,978.4
	c-2.5,0-4.2,1-4.2,2.7s1.4,2.5,3.8,2.5c2.6,0,3.8-1,3.8-3.3c0-0.4-0.1-1.3-0.1-1.3C596.7,978.5,595.6,978.3,594.4,978.4z M605,970.2
	c-2.5-1.7-5.2-3.1-8-4.1l1.1-1.7c2.8,1,5.4,2.4,7.9,4L605,970.2z"/>
<path class="st0" d="M626.6,971.4c-0.4,7.8-2.9,11.4-9.7,14.1c-0.3-0.8-0.8-1.5-1.4-2c6.2-2.1,8.5-5.3,8.8-12.1h-8.1
	c-1.2,0-2.3,0-3.5,0.2v-2.2c1.2,0.2,2.3,0.2,3.5,0.2h17.5c1.2,0,2.3,0,3.5-0.2v2.2c-1.1-0.1-2.3-0.2-3.5-0.2H626.6z M615.8,961.9
	c1.1,0.2,2.3,0.3,3.5,0.2h9.1c1.2,0,2.3,0,3.5-0.2v2.2c-0.4,0-1.5,0-3.4-0.1h-9.1c-1.1,0-2.3,0-3.4,0.2L615.8,961.9z M633.4,959.3
	c1.2,1.5,2.2,3,2.9,4.7l-1.5,0.8c-0.8-1.7-1.7-3.4-2.9-4.9L633.4,959.3z M637.1,958.2c1.2,1.5,2.1,3.1,2.9,4.7l-1.5,0.8
	c-0.8-1.7-1.7-3.3-2.9-4.8L637.1,958.2z"/>
<path class="st0" d="M661,967v-2.9c0-1,0-2-0.1-3.1h2.3c-0.1,0.9-0.1,1.9-0.1,2.8v3.2h2.6c1.2,0,2.3,0,3.5-0.2v2.3
	c-1.2-0.1-2.3-0.2-3.5-0.2h-2.6c0,5.8-0.4,8-1.5,10.2c-1.6,3-4.3,5.1-8.4,6.5c-0.3-0.7-0.8-1.4-1.3-1.9c3.9-1,7-3.3,8.2-6.4
	c0.7-1.8,0.8-3.6,0.9-8.4h-9.1v5c0,0.8,0,1.6,0.1,2.4h-2.4c0.1-0.8,0.2-1.7,0.1-2.5V969h-2.5c-1.2,0-2.3,0-3.5,0.2v-2.3
	c1.2,0.2,2.3,0.2,3.5,0.2h2.5v-3.5c0-0.8,0-1.7-0.1-2.5h2.4c-0.1,0.8-0.1,1.6-0.1,2.4v3.6h9.1V967z M666,959.2
	c0.9,1.6,1.6,3.2,2.1,4.9l-1.6,0.5c-0.5-1.7-1.2-3.4-2.1-5L666,959.2z M669.5,958.2c0.9,1.5,1.6,3.2,2.1,4.9l-1.6,0.5
	c-0.5-1.7-1.2-3.4-2.1-4.9L669.5,958.2z"/>
<path class="st0" d="M699,962.1c-0.5,0.4-0.9,0.8-1.3,1.3c-2.2,2.2-4.5,4.2-7,6v12.8c0,1.1,0,2.1,0.2,3.2h-2.6
	c0.2-1,0.2-2.1,0.2-3.1v-11.4c-3.6,2.3-7.5,4-11.6,5.2c-0.3-0.7-0.7-1.4-1.2-2c5.7-1.5,11-4.1,15.6-7.8c2.2-1.6,4.1-3.5,5.7-5.7
	L699,962.1z"/>
<path class="st0" d="M709.3,981.8c3-0.3,6-1,8.7-2.3c5.8-2.6,9.8-7,12.2-13.3c0.5,0.7,1.1,1.3,1.8,1.8c-2.4,5.2-5.2,8.7-9.2,11.5
	c-3.1,2.1-6.2,3.3-11.2,4.5c-0.6,0.1-1.2,0.3-1.8,0.5L709.3,981.8z M711.2,963.2c2.6,1.6,5,3.5,7.2,5.6l-1.6,1.9
	c-2.1-2.3-4.5-4.3-7.1-5.9L711.2,963.2z"/>
<path class="st0" d="M744.8,982.3c-1.1,0-2.1,0-3.2,0.1V980c1.1,0.2,2.2,0.3,3.3,0.2h14.3v-14.5h-13.7c-1.2,0-2.3,0-3.5,0.2v-2.4
	c1.1,0.2,2.3,0.3,3.5,0.2h14.4c0.4,0,0.8,0,1.6-0.1c-0.1,0.8-0.1,1.3-0.1,2.3v15.4c0,0.9,0,1.8,0.2,2.7h-2.4v-1.8L744.8,982.3z"/>
<path class="st0" d="M772.6,981.8c3-0.3,6-1,8.7-2.3c5.8-2.6,9.8-7,12.2-13.3c0.5,0.7,1.1,1.3,1.8,1.8c-2.4,5.2-5.2,8.7-9.2,11.5
	c-3.1,2.1-6.2,3.3-11.2,4.5c-0.6,0.1-1.2,0.3-1.8,0.5L772.6,981.8z M774.5,963.2c2.6,1.6,5,3.5,7.2,5.6l-1.6,1.9
	c-2.1-2.3-4.5-4.3-7.1-5.9L774.5,963.2z"/>
<path class="st0" d="M51.5,1020.9c0-0.9,0-1.8-0.1-2.8h2.4c-0.1,0.9-0.2,1.8-0.2,2.8v4.4l12.2-1.6c0.6,0,1.2-0.1,1.7-0.4l1.5,1.2
	c-0.2,0.3-0.3,0.6-0.5,0.8c-0.6,1.4-1.4,2.6-2.3,3.8c-1.5,1.8-3.2,3.4-5.1,4.7c-0.5-0.6-1.1-1.1-1.8-1.4c2.9-1.6,5.3-4,6.8-7
	l-0.7,0.2l-0.4,0.1c-4.2,0.6-8,1.1-11.5,1.6v7.1c0,2.8,0.1,3.4,0.8,4s1.9,0.8,4.3,0.8c2.9,0,5.9-0.3,8.7-1l0.2,2.4
	c-0.8,0-1,0.1-1.8,0.2c-2.4,0.3-4.7,0.5-7.1,0.5c-3.4,0-5.2-0.4-6.1-1.4s-1.1-1.9-1.1-5v-7.2l-3.6,0.5c-1,0.1-2,0.3-2.9,0.5
	l-0.3-2.2h0.5c0.5,0,1.6-0.1,2.6-0.2l3.8-0.5L51.5,1020.9z"/>
<path class="st0" d="M97,1020.5c-0.1-0.3-0.1-0.6-0.1-0.9c0-1.9,1.5-3.4,3.4-3.4s3.4,1.5,3.4,3.4s-1.5,3.4-3.4,3.4l0,0
	c-0.3,0-0.7-0.1-1-0.2l-0.1,0.2c-1.5,5.3-3.4,9.1-6.1,11.9c-3,3.2-6.8,5.6-10.9,7.1c-0.3-0.8-0.8-1.5-1.5-2.1c4.2-1.2,8-3.6,11-6.8
	c2.6-3.1,4.4-6.7,5.2-10.7H81.6c-1.1,0-2.2,0-3.4,0.2v-2.4c1.1,0.2,2.3,0.2,3.4,0.2L97,1020.5L97,1020.5z M98.1,1019.6
	c0,1.2,0.9,2.2,2.1,2.2s2.2-0.9,2.2-2.1c0-1.2-0.9-2.2-2.1-2.2l0,0C99.1,1017.4,98.1,1018.4,98.1,1019.6L98.1,1019.6L98.1,1019.6z"
	/>
<path class="st0" d="M114.7,1042.4c0.1-1,0.2-2.1,0.2-3.2v-18.6c0-1,0-2-0.2-3.1h2.6c-0.1,1-0.2,2.1-0.2,3.1v5.6
	c4.6,1.7,9.1,3.8,13.3,6.3l-1.3,2.2c-3.5-2.4-7.3-4.4-11.2-5.9c-0.3-0.1-0.6-0.3-0.9-0.5h0c0.1,0.6,0.1,1.2,0.1,1.8v9
	c0,1.1,0,2.1,0.2,3.2L114.7,1042.4z"/>
<path class="st0" d="M154,1030.1c0,1.4-1.1,2.5-2.5,2.5s-2.5-1.1-2.5-2.5s1.1-2.5,2.5-2.5l0,0C152.9,1027.6,154,1028.7,154,1030.1z"
	/>
<path class="st0" d="M169,1028.6c0.8,0.1,1.5,0.2,2.3,0.2h1.6c0.8,0,1.5,0,2.3-0.2c-0.1,1.1-0.2,2.1-0.1,3.2v5.9
	c0.4,1.3,1.4,2.3,2.7,2.7c1.5,0.7,3.2,0.9,6.8,0.9c4,0.1,8.1-0.1,12.1-0.6c-0.3,0.7-0.6,1.4-0.7,2.2c-3.1,0.2-6.6,0.2-10.1,0.2
	c-5.1,0-6.8-0.2-8.6-1c-1.3-0.6-2.4-1.6-3.1-2.8c-1.1,1.2-2.3,2.2-3.6,3.2c-0.3,0.2-0.6,0.5-1.1,0.9l-1-2c1.8-1,3.4-2.2,4.8-3.6
	v-7.2h-2c-0.7,0-1.5,0-2.2,0.2L169,1028.6z M170.9,1017.2c1.8,1.6,3.4,3.4,4.9,5.3l-1.5,1.3c-1.3-2-2.9-3.9-4.7-5.5L170.9,1017.2z
	 M180.4,1022.4c-0.6,1.1-1.2,2.1-2,3c-0.5-0.4-1-0.8-1.6-1c1.6-1.7,2.7-3.6,3.5-5.8c0.2-0.5,0.3-1,0.4-1.5l1.9,0.6
	c0,0.1-0.1,0.2-0.1,0.3c-0.2,0.4-0.2,0.4-0.5,1.2c-0.2,0.5-0.4,1.1-0.7,1.6h4v-1c0-1,0-2.1-0.2-3.1h2.2c-0.2,1-0.2,2.1-0.2,3.1v1
	h4.3c1,0,1.9,0,2.9-0.2v2c-0.9-0.1-1.9-0.1-2.8-0.1H187v4h5.6c0.9,0,1.8,0,2.7-0.2v2c-0.9-0.1-1.8-0.1-2.7-0.2h-13.3
	c-0.9,0-1.8,0.1-2.7,0.2v-2c0.9,0.1,1.8,0.2,2.7,0.2h5.8v-4L180.4,1022.4z M182,1038.4c-1,0-2,0-3,0.2c0.1-1,0.2-1.9,0.1-2.9v-2.5
	c0-0.9,0-1.8-0.1-2.7c1.1,0.1,2.1,0.2,3.2,0.2h7.9c1.1,0,2.1,0,3.2-0.2c-0.1,1-0.2,1.9-0.1,2.9v2.3c0,1,0,1.9,0.1,2.9
	c-1-0.1-2.1-0.2-3.1-0.2L182,1038.4z M181,1036.7h10.4v-4.4H181V1036.7z"/>
<path class="st0" d="M204.1,1019.6c-0.9,0-1.7,0-2.6,0.2v-2.1c0.9,0.1,1.8,0.2,2.7,0.2h9.4c0.9,0,1.8-0.1,2.7-0.2v2.1
	c-0.8-0.1-1.7-0.2-2.6-0.2H213v7.4h0.9c0.9,0,1.8,0,2.6-0.2v2.1c-0.9-0.1-1.8-0.2-2.6-0.2H213v11.2c0,1,0,2.1,0.2,3.1H211
	c0.1-1,0.2-2.1,0.2-3.1v-11.3h-4.5c0,1.8-0.2,3.7-0.5,5.5c-0.6,3.4-2.1,6.5-4.5,9c-0.4-0.5-1-1-1.6-1.3c3.3-3.2,4.6-6.9,4.7-13.2
	h-1.2c-0.9,0-1.8,0-2.7,0.2v-2.2c0.9,0.1,1.8,0.2,2.7,0.2h1.2v-7.4L204.1,1019.6z M206.7,1027.1h4.5v-7.4h-4.5V1027.1z
	 M228.4,1033.4c-0.7,0.7-1.4,1.5-2.1,2.2c-1.5,1.7-3.2,3.2-5.1,4.6c-1.7,1.2-3.4,2.3-5.3,3.1c-0.3-0.6-0.7-1.2-1.2-1.7
	c3.7-1.5,7.1-3.9,9.8-6.8c0.8-0.9,1.5-1.8,2.1-2.8L228.4,1033.4z M226.2,1018c-0.4,0.3-0.6,0.5-1.6,1.4c-2.3,2.3-5,4.3-7.9,5.8
	c-0.3-0.6-0.7-1.2-1.2-1.7c2.6-1.1,4.9-2.7,6.9-4.6c0.8-0.7,1.4-1.4,2-2.2L226.2,1018z M227.3,1025.6c-0.5,0.4-0.9,0.7-1.3,1.2
	c-2.7,2.8-5.8,5.2-9.2,6.9c-0.3-0.6-0.7-1.2-1.2-1.8c2.9-1.2,5.5-2.9,7.7-5.1c0.9-0.8,1.6-1.7,2.3-2.6L227.3,1025.6z"/>
<path class="st0" d="M241.5,1017c-0.4,0.8-0.4,1.1-0.7,1.7c-0.6,1.7-1.4,3.4-2.2,5v16.3c0,1.2,0.1,2.4,0.2,3.6h-2.3
	c0.2-1.2,0.2-2.4,0.2-3.7v-10c0-1.3,0-2.1,0.1-3.9c-1,1.7-2.3,3.3-3.7,4.7c-0.3-0.6-0.8-1.1-1.3-1.6c2.7-2.5,4.9-5.6,6.3-9
	c0.6-1.3,1-2.6,1.3-4L241.5,1017z M246.1,1022.9c-1.3,2.6-2.9,5.1-4.8,7.3c-0.4-0.6-0.9-1.1-1.5-1.4c2.3-2.4,4.1-5.2,5.3-8.2
	c0.6-1.4,1-2.8,1.3-4.3l2.1,0.7c-0.2,0.5-0.4,1-0.6,1.5c-0.4,1.2-0.6,1.6-1,2.7h9.5c0.9,0,1.8,0,2.7-0.2v2c-0.9-0.1-1.8-0.2-2.7-0.2
	h-7v4.9h6.1c0.9,0,1.8-0.1,2.6-0.2v2.1c-0.9-0.1-1.8-0.2-2.6-0.2h-6.1v4.9h6.2c0.9,0,1.8-0.1,2.6-0.2v2.1c-0.9-0.1-1.8-0.2-2.6-0.2
	h-6.2v4.6c0,1.1,0,2.1,0.2,3.2h-2.3c0.1-1,0.2-2.1,0.2-3.2v-17.7L246.1,1022.9z"/>
<path class="st0" d="M265,1033.4c0-1,0-1.9-0.1-2.9c0.9,0.1,1.8,0.1,2.8,0.1h5.7c1,0,1.6,0,2.4-0.1c-0.1,0.9-0.1,1.9-0.1,2.8v6.9
	c0,1,0,2,0.1,2.9h-2v-1.3h-7v1.9h-2c0.1-1,0.2-2.1,0.1-3.1L265,1033.4z M266.9,1040.2h7v-7.9h-7V1040.2z M269.3,1019.9
	c0-0.8,0-1.7-0.1-2.5c1.1,0.1,2.2,0.2,3.4,0.2h9.8c1.1,0,2.3,0,3.4-0.2c-0.1,0.8-0.1,1.7-0.1,2.5v5.1c0,0.9,0,1.8,0.1,2.6
	c-1-0.1-2.1-0.1-3.1-0.1h-10.2c-1.1,0-2.1,0-3.2,0.1c0.1-0.9,0.1-1.7,0.1-2.6L269.3,1019.9z M271.2,1025.8h12.5v-6.5h-12.5V1025.8z
	 M278.6,1033.1c0-0.9,0-1.7-0.1-2.6c0.8,0.1,1.4,0.1,2.4,0.1h6.6c0.9,0,1.7,0,2.6-0.1c-0.1,1-0.1,2-0.1,2.9v7.2c0,1,0,2.1,0.1,3.1
	h-2v-1.9h-7.7v1.9h-2c0.1-1,0.1-2,0.1-2.9L278.6,1033.1z M280.4,1040.2h7.7v-7.9h-7.7V1040.2z"/>
<path class="st0" d="M305.1,1021.3c0.7-1.3,1.2-2.7,1.4-4.1l2.4,0.4c-0.3,0.5-0.6,1-0.8,1.6c-0.4,1-0.8,1.8-0.9,2c0.2,0,0.4,0,0.6,0
	c4.8-0.2,7.8-0.6,9.5-1.1l0.2,2c-0.4,0-0.8,0.1-1.2,0.2c-3.3,0.4-6.6,0.7-9.9,0.8c-0.7,1.5-1.6,2.9-2.7,4.3c-0.3,0.4-0.9,1-1,1.1
	s-0.4,0.3-0.4,0.3l0,0l0,0c0,0,0,0.1,0.1,0.1c1.1-0.8,1.1-0.8,1.4-1.1c1.3-0.9,2.9-1.5,4.5-1.5c2-0.2,3.8,1.2,4,3.2v0.1
	c2.2-0.9,3.9-1.5,5.2-2c0.7-0.2,1.4-0.5,2-0.9l1,2.1c-2.7,0.7-5.4,1.5-8,2.6c0.1,0.8,0.1,1.1,0.1,1.8c0,0.4,0,1,0,1.7s0,1.1,0,1.3
	c0,0.4,0,0.7,0.1,1.1h-2c0.1-1.4,0.2-2.9,0.2-4.3c0-0.3,0-0.6,0-0.9c-4.1,1.9-5.6,3.3-5.6,5.1c0,2,1.9,2.8,6.1,2.8
	c2.7,0,5.4-0.4,8-1.2l0.3,2.3c-0.4,0-0.8,0.1-1.2,0.2c-2.4,0.4-4.8,0.6-7.3,0.6c-5.4,0-8-1.5-8-4.6c0-1.7,1-3.2,3.1-4.7
	c1.4-1,2.9-1.8,4.5-2.4c-0.2-1.7-1-2.4-2.4-2.4c-1.9,0-4.3,1.1-6.7,3.2c-0.9,0.7-1.7,1.5-2.3,2.5l-1.7-1.7c2.7-2.4,5-5.3,6.7-8.6
	l0.3-0.5c-0.2,0-0.4,0.1-0.6,0.1l-4.4-0.1h-0.5c-0.2,0-0.4,0-0.7,0v-2.1c2.1,0.3,4.3,0.4,6.4,0.3L305.1,1021.3z"/>
<path class="st0" d="M344.3,1031.5h-5.4c-0.8,0-1.6,0-2.4,0.2v-1.7c-1.2,0.6-1.8,0.9-3,1.4v9.8c0,1.7-0.7,2.1-2.9,2.1
	c-0.7,0-1.3,0-2.4-0.1c0-0.6-0.2-1.3-0.4-1.9c0.9,0.2,1.9,0.2,2.8,0.2s1.1-0.2,1.1-0.8v-8.6c-2,0.8-3.2,1.3-3.6,1.5l-0.5-2
	c1.4-0.3,2.8-0.8,4.2-1.4v-6.3h-1.7c-0.7,0-1.5,0.1-2.2,0.2v-2c0.7,0.1,1.5,0.2,2.2,0.2h1.7v-2.7c0-1,0-2-0.2-3h2.2
	c-0.1,1-0.2,2-0.2,3v2.8h1.3c0.7,0,1.4,0,2.1-0.2v2c-0.7-0.1-1.3-0.1-2-0.1h-1.4v5.5c1.1-0.5,2.2-1,3.2-1.6v1.7
	c0.8,0.1,1.5,0.1,2.3,0.1h12.5c0.9,0,1.8,0,2.7-0.2v2c-0.9-0.1-1.8-0.2-2.7-0.2h-5.4v3.4h4c0.9,0,1.7,0,2.6-0.2v1.9
	c-0.9-0.1-1.7-0.2-2.6-0.2h-4v4.3c1.3,0.2,2.5,0.3,3.8,0.3c1.5,0,3.1-0.1,4.9-0.2c-0.3,0.6-0.5,1.3-0.6,2h-2.7
	c-5.1,0-7.9-0.5-9.8-1.9c-1-0.7-1.8-1.6-2.5-2.5c-0.9,1.9-2,3.6-3.5,5.2c-0.4-0.5-0.9-0.9-1.5-1.1c1.6-1.5,2.9-3.4,3.8-5.5
	c0.6-1.3,1-2.7,1.1-4.1l2,0.5c-0.2,0.5-0.4,1-0.5,1.5c-0.2,0.7-0.4,1.3-0.6,1.9c1,1.7,2.6,2.9,4.4,3.6L344.3,1031.5z M341,1027.6
	c-1.1,0-2,0-2.7,0.1c0.1-0.9,0.1-1.7,0.1-2.8v-4.3c0-1.1,0-2.1-0.1-2.8c0.9,0.1,1.9,0.1,2.8,0.1h8.2c0.9,0,1.9,0,2.8-0.1
	c-0.1,0.8-0.1,1.6-0.1,2.4v4.8c0,1,0,1.6,0.1,2.7c-0.7-0.1-1.7-0.1-2.9-0.1H341z M340.2,1022h10v-2.5h-10V1022z M340.2,1026.1h10
	v-2.5h-10V1026.1z"/>
<path class="st0" d="M382.4,1033.9c1.1,0,2.2-0.1,3.3-0.2v2c-1.1-0.1-2.2-0.2-3.3-0.2h-7.7c3.4,2.9,7.4,5,11.7,6
	c-0.5,0.5-0.9,1.1-1.2,1.8c-1.8-0.6-3.5-1.3-5.2-2.2c-2.5-1.3-4.9-2.9-6.9-4.9c0.1,1.2,0.1,2.6,0.1,3.2v1.3c0,1,0,2,0.2,2.9h-2.2
	c0.1-1,0.2-2,0.2-2.9v-1.3c0-0.6,0-1.5,0.1-3.2c-1.9,1.9-4.1,3.5-6.5,4.7c-1.6,0.8-3.3,1.6-5,2.2c-0.3-0.6-0.8-1.2-1.3-1.7
	c2.4-0.7,4.6-1.6,6.8-2.8c1.6-0.9,3.1-2,4.5-3.2h-7.1c-1.1,0-2.2,0-3.3,0.2v-2c1.1,0.1,2.2,0.2,3.3,0.2h8.6v-0.4c0-0.7,0-1.3-0.1-2
	h2c-0.1,0.7-0.1,1.3-0.1,2v0.4L382.4,1033.9z M379.2,1024.9c-0.9,1.4-2.1,2.5-3.5,3.4c2.9,0.7,5.8,1.6,8.5,2.7l-1.2,1.5
	c-3-1.3-6.1-2.3-9.3-3.1c-3.5,1.7-7.1,2.5-13,2.8c-0.2-0.6-0.4-1.1-0.8-1.6c3.8,0,7.6-0.6,11.2-1.8c-2-0.4-3.6-0.7-6.8-1.1
	c1-0.9,2-1.8,2.9-2.8H363c-1,0-2,0.1-3,0.2v-1.9c1,0.1,2,0.2,2.9,0.2h5.7c0.7-0.9,1.3-1.8,1.8-2.8l2,0.5l-1.7,2.3h11.7
	c1,0,2,0,3-0.2v1.9c-1-0.1-2-0.2-3-0.2H379.2z M371.5,1018.4c0-0.7-0.1-1.5-0.2-2.2h2.3c-0.2,0.7-0.2,1.5-0.2,2.2v0.2h8.8
	c1,0,2,0,3-0.1c-0.1,0.6-0.1,1.2-0.1,1.7v0.6c0,0.6,0,1.1,0.1,1.7h-1.9v-2.3h-21v2.3h-1.9c0.1-0.5,0.1-1.1,0.1-1.7v-0.6
	c0-0.6,0-1.2-0.1-1.7c1,0.1,1.8,0.1,3,0.1h8.1L371.5,1018.4z M369.5,1024.9c-0.7,0.8-0.9,1-1.7,1.9c2.1,0.3,3.8,0.6,5.7,1.1
	c1.4-0.7,2.6-1.7,3.5-2.9L369.5,1024.9z"/>
<path class="st0" d="M406,1019.1c0-0.6,0-1.2-0.1-1.7h2.2c-0.1,1.2-0.2,2.5-0.1,3.8v0.3c5.7,0,8-0.1,9-0.2v2.1
	c-1.9-0.2-3.8-0.2-5.7-0.2c-0.5,0-0.8,0-3.2,0.1v5.9c0.5,1.1,0.7,2.3,0.7,3.5c0,3.1-1.5,6-4,7.8c-1.5,1-3.1,1.8-4.8,2.4
	c-0.3-0.7-0.8-1.3-1.3-1.9c1.7-0.5,3.4-1.2,4.9-2.2c2.1-1.4,3.3-3.8,3.4-6.3c-0.2,0.5-0.4,1-0.8,1.5c-1.9,2-5,2.2-7.1,0.3
	c-1-0.9-1.6-2.1-1.6-3.5c0-2.8,2.2-5,5-5c0.1,0,0.2,0,0.3,0c1.3-0.1,2.6,0.4,3.5,1.3c0-0.4,0-0.5,0-1.7c0-0.1,0-0.4,0-0.8v-1.6
	c-6,0.1-12.1,0.4-14.1,0.8l-0.1-2.2c0.5,0,0.8,0,1.2,0c0.9,0,0.9,0,5.7-0.2c2.9-0.1,5.2-0.2,7.3-0.2L406,1019.1z M404.7,1028.1
	c-0.6-0.3-1.3-0.5-2-0.5c-1.7-0.1-3.2,1.3-3.3,3v0.1c-0.1,1.6,1.2,2.9,2.8,3c0.1,0,0.2,0,0.3,0c1.9,0.1,3.4-1.3,3.5-3.2
	c0-0.1,0-0.2,0-0.3C406,1029.3,405.5,1028.5,404.7,1028.1L404.7,1028.1z"/>
<path class="st0" d="M428.3,1019.1c0.9,0.2,1.9,0.2,2.8,0.2c2.5,0,6.5-0.2,9.2-0.4c0.5,0,1-0.1,1.4-0.3l1.3,1.7
	c-0.6,0.3-1.1,0.8-1.5,1.3c-3,3.1-6.3,6-9.9,8.5l0.1,0.1c2.3-1.2,4.8-1.9,7.4-1.9c5,0,8.2,2.5,8.2,6.3c0,4.7-4.4,7.8-11,7.8
	c-4.2,0-6.7-1.6-6.7-4.3c0-2,1.9-3.5,4.4-3.5c2,0,3.8,0.9,5,2.5c0.6,0.9,1.1,1.8,1.4,2.9c3.1-0.9,4.8-2.7,4.8-5.2
	c0-2.9-2.4-4.6-6.5-4.6c-4.7,0.1-9.2,1.9-12.6,5.1l-1.4-1.9c1.5-0.9,2.9-1.9,4.2-3.1c3.2-2.6,8-6.7,10-8.8l0.4-0.4l0.1-0.1l0.1-0.1
	l-0.1-0.1h-0.3c-1,0.2-4.6,0.4-9.1,0.5c-0.5,0-1.1,0.1-1.6,0.2L428.3,1019.1z M434,1036.2c-1.5,0-2.4,0.7-2.4,1.9
	c0,0.8,0.5,1.5,1.2,1.8c1.1,0.5,2.2,0.7,3.4,0.7c0.7,0,1.5-0.1,2.2-0.2C437.6,1037.6,436.1,1036.2,434,1036.2L434,1036.2z"/>
<path class="st0" d="M462.6,1038.9c0,2.5-2,4.5-4.5,4.5s-4.5-2-4.5-4.5s2-4.5,4.5-4.5S462.6,1036.4,462.6,1038.9L462.6,1038.9z
	 M455.3,1038.9c0,1.5,1.2,2.8,2.8,2.8c1.5,0,2.8-1.2,2.8-2.8c0-1.5-1.2-2.8-2.8-2.8C456.6,1036.1,455.3,1037.4,455.3,1038.9z"/>
<path class="st0" d="M486.8,1032.9c-0.8,0-1.6,0-2.5,0.2v-2c0.8,0.2,1.7,0.2,2.5,0.2h3.7v-1.6c0-0.4-0.1-0.8-0.1-1.2h2
	c-0.1,0.4-0.1,0.8-0.1,1.2v1.6h3.3c0.8,0,1.6,0,2.4-0.2v2c-0.8-0.1-1.6-0.2-2.4-0.2h-2.9c1.1,1.6,2.5,2.9,4.2,3.8
	c-0.4,0.5-0.8,1-1,1.6c-1.5-1.1-2.8-2.5-3.8-4.1c0.1,0.7,0.1,1.5,0.1,2.6v4.3c0,0.9,0,1.7,0.1,2.6h-2.1c0.1-0.9,0.2-1.7,0.2-2.6
	v-4.3c0-0.7,0-1.5,0.1-2.5c-1.3,2.7-3.3,4.9-5.7,6.7c-0.3-0.6-0.7-1.2-1.1-1.7c1.4-0.9,2.7-2,3.9-3.3c0.9-1,1.6-2,2.2-3.2
	L486.8,1032.9z M492.1,1026.2c0.9-1.5,1.6-3.2,2-4.9l1.8,0.6c-0.6,1.5-1.2,3-2,4.3h1.8c0.8,0,1.6,0,2.4-0.2v2
	c-0.8-0.1-1.6-0.2-2.4-0.2h-8.9c-0.8,0-1.7,0-2.5,0.2v-2c0.8,0.1,1.7,0.2,2.5,0.2H492.1z M495.1,1019.3c0.8,0,1.7,0,2.5-0.2v2
	c-0.8-0.1-1.7-0.2-2.5-0.2h-7.7c-0.9,0-1.7,0-2.6,0.2v-2c0.9,0.1,1.8,0.2,2.6,0.2h3v-0.8c0-0.7,0-1.4-0.1-2.1h2.2
	c-0.1,0.7-0.2,1.4-0.1,2.1v0.8H495.1z M488.3,1025.9c-0.4-1.4-1-2.7-1.7-4l1.6-0.6c0.7,1.3,1.3,2.6,1.7,4L488.3,1025.9z M508.8,1026
	c0.9,0,1.8,0,2.8-0.2v2.1c-0.9-0.1-1.8-0.2-2.6-0.2h-1.1v13.1c0,1,0,2,0.2,3h-2.3c0.1-1,0.2-2,0.2-3v-13.1h-4.7v1.2
	c0,3.7-0.5,7.3-1.7,10.8c-0.5,1.5-1.3,2.9-2.2,4.1c-0.5-0.5-1.1-0.9-1.7-1.3c2.9-3.5,3.8-7.7,3.8-17.8c0-3.4-0.1-4.7-0.1-5.5h0.4
	c2.4-0.2,4.8-0.6,7.1-1.4c1-0.3,1.9-0.7,2.8-1.3l1.5,1.7c-0.4,0.1-0.7,0.3-1.1,0.4c-2.8,1.1-5.7,1.8-8.6,2.2v5.2H508.8z"/>
<path class="st0" d="M524,1018c-0.3,2.1-0.4,4.2-0.4,6.3c-0.1,3.6-0.2,7.7-0.2,9c0,0.4,0,1.1,0.1,1.8c-0.1,1.3,0.4,2.7,1.4,3.6
	c1.1,0.8,2.4,1.2,3.8,1.2c3.5,0,6.6-2,8-5.2c0.7-1.5,1.2-3.1,1.5-4.7c0.6,0.6,1.4,1.1,2.2,1.4c-1.1,3.5-2,5.3-3.3,6.8
	c-2.1,2.5-5.2,3.9-8.5,3.8c-2.5,0-4.4-0.7-5.6-2.1s-1.7-3-1.7-6.2c0-2,0-2.8,0.3-12.2c0-0.9,0-1.5,0-2s0-1.1-0.1-1.6L524,1018z"/>
<path class="st0" d="M552.8,1020.2c-0.2,1.2-0.2,2.4-0.2,3.6c0,3.1,0.2,6.3,0.8,9.3c0.7,3.1,1.9,5.1,3,5.1c0.5,0,1-0.5,1.5-1.5
	c0.7-1.6,1.3-3.4,1.5-5.1c0.5,0.6,1.1,1.2,1.8,1.7c-1.5,5.2-2.8,7.3-5,7.3c-1.7,0-3.2-1.7-4.3-4.6s-1.5-6.7-1.6-14.1
	c0-0.6,0-1.2-0.1-1.8L552.8,1020.2z M567.3,1021.8c1.8,2,3.2,4.4,4.3,6.8c1.1,2.5,1.9,5.2,2.2,8l-2.1,0.9
	c-0.5-5.5-2.7-10.6-6.2-14.8L567.3,1021.8z"/>
<path class="st0" d="M594.4,1028.4c-0.4,7.8-2.9,11.4-9.7,14.1c-0.3-0.8-0.8-1.5-1.4-2c6.2-2.1,8.5-5.3,8.8-12.1H584
	c-1.2,0-2.3,0-3.5,0.2v-2.2c1.2,0.2,2.3,0.2,3.5,0.2h17.5c1.2,0,2.3,0,3.5-0.2v2.2c-1.1-0.1-2.3-0.2-3.5-0.2H594.4z M583.6,1018.9
	c1.1,0.2,2.3,0.3,3.5,0.2h9.1c1.2,0,2.3,0,3.5-0.2v2.2c-0.4,0-1.5,0-3.4-0.1H587c-1.1,0-2.3,0-3.4,0.2V1018.9z M601.2,1016.3
	c1.2,1.5,2.2,3,2.9,4.7l-1.5,0.8c-0.8-1.7-1.7-3.4-2.9-4.9L601.2,1016.3z M604.8,1015.2c1.2,1.5,2.1,3.1,2.9,4.7l-1.5,0.8
	c-0.8-1.7-1.7-3.3-2.9-4.8L604.8,1015.2z"/>
<path class="st0" d="M628.9,1024.1v-2.9c0-1,0-2-0.1-3.1h2.3c-0.1,0.9-0.1,1.9-0.1,2.8v3.2h2.6c1.2,0,2.3,0,3.5-0.2v2.3
	c-1.2-0.1-2.3-0.2-3.5-0.2H631c0,5.8-0.4,8-1.5,10.2c-1.6,3-4.3,5.1-8.4,6.5c-0.3-0.7-0.8-1.4-1.3-1.9c3.9-1,7-3.3,8.2-6.4
	c0.7-1.8,0.8-3.6,0.9-8.4h-9.1v5c0,0.8,0,1.6,0.1,2.4h-2.4c0.1-0.8,0.2-1.7,0.1-2.5v-4.9H615c-1.2,0-2.3,0-3.5,0.2v-2.3
	c1.2,0.2,2.3,0.2,3.5,0.2h2.5v-3.5c0-0.8,0-1.7-0.1-2.5h2.4c-0.1,0.8-0.1,1.6-0.1,2.4v3.6L628.9,1024.1L628.9,1024.1z M633.9,1016.2
	c0.9,1.6,1.6,3.2,2.1,4.9l-1.6,0.5c-0.5-1.7-1.2-3.4-2.1-5L633.9,1016.2z M637.4,1015.2c0.9,1.5,1.6,3.2,2.1,4.9l-1.6,0.5
	c-0.5-1.7-1.2-3.4-2.1-4.9L637.4,1015.2z"/>
<path class="st0" d="M666.9,1019.1c-0.5,0.4-0.9,0.8-1.3,1.3c-2.2,2.2-4.5,4.2-7,6v12.8c0,1.1,0,2.1,0.2,3.2h-2.6
	c0.2-1,0.2-2.1,0.2-3.1v-11.4c-3.6,2.3-7.5,4-11.6,5.2c-0.3-0.7-0.7-1.4-1.2-2c5.7-1.5,11-4.1,15.6-7.8c2.2-1.6,4.1-3.5,5.7-5.7
	L666.9,1019.1z"/>
<path class="st0" d="M677.3,1038.8c3-0.3,6-1,8.7-2.3c5.8-2.6,9.8-7,12.2-13.3c0.5,0.7,1.1,1.3,1.8,1.8c-2.4,5.2-5.2,8.7-9.2,11.5
	c-3.1,2.1-6.2,3.3-11.2,4.5c-0.6,0.1-1.2,0.3-1.8,0.5L677.3,1038.8z M679.3,1020.2c2.6,1.6,5,3.5,7.2,5.6l-1.6,1.9
	c-2.1-2.3-4.5-4.3-7.1-5.9L679.3,1020.2z"/>
<path class="st0" d="M719,1020.7c-3.3,0.4-6.5,0.7-9.8,0.8c-0.1-0.7-0.4-1.3-0.8-1.9c4.2,0,8.3-0.3,12.4-1c2.6-0.3,5.2-1,7.7-2
	l1.7,1.8c-3,0.9-6,1.6-9.2,2v5h7.3c1.1,0,2.1,0,3.2-0.2v2.1c-1.1-0.1-2.1-0.2-3.2-0.2H721v4.7h8.6c1.1,0,2.1,0,3.2-0.2v2.1
	c-1-0.1-2.1-0.2-3.2-0.2H721v6.9c0,1.9-0.7,2.4-3.3,2.4c-1.5,0-3-0.1-4.5-0.3c-0.1-0.7-0.3-1.4-0.5-2.1c1.7,0.3,3.4,0.5,5.1,0.5
	c1,0,1.3-0.2,1.3-0.9v-6.6h-9.2c-1.1,0-2.1,0-3.2,0.2v-2.1c1,0.1,2.1,0.2,3.2,0.2h9.2v-4.7h-7.6c-1.1,0-2.1,0.1-3.2,0.2v-2.1
	c1.1,0.1,2.1,0.2,3.2,0.2h7.6L719,1020.7L719,1020.7z"/>
<path class="st0" d="M739.1,1024c1.8,1.1,3.5,2.4,5.1,3.8l-1.2,1.7c-1.5-1.6-3.2-2.9-5.1-4L739.1,1024z M744.4,1033.8
	c-1.1,2.8-2.4,5.5-3.9,8.1c-0.2,0.3-0.3,0.5-0.6,1.1l-1.7-1.6c0.7-0.8,1.3-1.7,1.8-2.6c1.1-2,2.1-4.1,2.9-6.2L744.4,1033.8z
	 M740.9,1016.9c1.8,1.1,3.4,2.4,4.8,3.9l-1.2,1.6c-1.4-1.6-3-3-4.8-4.2L740.9,1016.9z M749.4,1023.3c-1,0-1.9,0.1-2.9,0.2v-2.1
	c1,0.1,2,0.2,2.9,0.2h4.2v-2.1c0-1,0-2-0.2-3h2.3c-0.2,1-0.2,2-0.2,3v2.1h5.7c0.9,0,1.8,0,2.7-0.2v2.1c-0.9-0.1-1.8-0.2-2.7-0.2
	h-5.7v5.5h6.8c0.9,0,1.8,0,2.8-0.2v2.1c-0.9-0.1-1.8-0.2-2.7-0.2h-7.8c-1.2,3.2-2.6,6.4-4.2,9.4c5.2-0.5,7.3-0.8,10.3-1.3
	c-1.1-1.8-2.3-3.5-3.7-5.1l1.6-0.9c2.4,2.9,4.6,6.1,6.4,9.4l-1.8,1.1c-0.8-1.6-1-2-1.6-3.1c-2.4,0.4-2.4,0.4-5.4,0.9
	c-2.2,0.3-2.2,0.3-8.8,1c-1.2,0.1-1.7,0.2-2.3,0.3l-0.5-2.2c0.3,0,0.7,0.1,1,0.1c0.8,0,1.7-0.1,2.5-0.2c1.8-3,3.2-6.2,4.3-9.5H748
	c-1,0-2,0.1-2.9,0.2v-2.1c1,0.1,2,0.2,3,0.2h5.5v-5.5L749.4,1023.3z"/>
<path class="st0" d="M782,1033.5c-1.7,4-3.5,5.8-5.7,5.8c-2.8,0-5-3.1-5-7.3c-0.1-6.7,5.3-12.2,12.1-12.3c0.3,0,0.5,0,0.8,0
	c3-0.1,6,1,8.2,3c1.9,1.9,3,4.6,2.9,7.3c0.1,4.5-2.6,8.7-6.9,10.3c-1.5,0.6-3,1.1-4.6,1.4c-0.2-0.7-0.5-1.4-1-2
	c1.7-0.2,3.4-0.7,5-1.4c3.3-1.5,5.4-4.8,5.3-8.4c0.1-3.3-1.8-6.2-4.8-7.5c-1.1-0.5-2.3-0.7-3.5-0.8
	C784.5,1025.7,783.5,1029.7,782,1033.5z M778.3,1023c-3.1,1.9-4.9,5.3-4.9,8.9c0,2.9,1.3,5.1,2.9,5.1c1.3,0,2.5-1.4,3.8-4.3
	c1.4-3.6,2.3-7.3,2.7-11.1C781.2,1021.7,779.7,1022.2,778.3,1023z"/>
<path class="st0" d="M60.6,1088.5h-5.4c-0.8,0-1.6,0-2.4,0.2v-1.7c-1.2,0.6-1.8,0.9-3,1.4v9.8c0,1.7-0.7,2.1-2.9,2.1
	c-0.7,0-1.3,0-2.4-0.1c0-0.6-0.2-1.3-0.4-1.9c0.9,0.2,1.9,0.2,2.8,0.2c0.9,0,1.1-0.2,1.1-0.8v-8.6c-2,0.8-3.2,1.3-3.6,1.5l-0.5-2
	c1.4-0.3,2.8-0.8,4.2-1.4v-6.3h-1.7c-0.7,0-1.5,0.1-2.2,0.2v-2c0.7,0.1,1.5,0.2,2.2,0.2H48v-2.7c0-1,0-2-0.2-3H50
	c-0.1,1-0.2,2-0.2,3v2.8h1.3c0.7,0,1.4,0,2.1-0.2v2c-0.7-0.1-1.3-0.1-2-0.1h-1.4v5.5c1.1-0.5,2.2-1.1,3.2-1.7v1.7
	c0.8,0.1,1.5,0.1,2.3,0.1h12.5c0.9,0,1.8,0,2.7-0.2v2c-0.9-0.1-1.8-0.2-2.7-0.2h-5.4v3.5h4c0.9,0,1.7,0,2.6-0.2v1.9
	c-0.9-0.1-1.7-0.2-2.6-0.2h-4v4.3c1.3,0.2,2.5,0.3,3.8,0.3c1.5,0,3.1-0.1,4.9-0.2c-0.3,0.6-0.5,1.3-0.6,2h-2.7
	c-5.1,0-7.9-0.5-9.8-1.9c-1-0.7-1.8-1.6-2.5-2.5c-0.9,1.9-2,3.6-3.5,5.2c-0.4-0.5-0.9-0.9-1.5-1.1c1.6-1.5,2.9-3.4,3.8-5.5
	c0.6-1.3,1-2.7,1.1-4.1l2,0.5c-0.2,0.5-0.4,1-0.5,1.5c-0.2,0.7-0.4,1.3-0.6,1.9c1,1.7,2.6,2.9,4.4,3.6L60.6,1088.5z M57.3,1084.6
	c-1.1,0-2,0-2.7,0.1c0.1-0.9,0.1-1.7,0.1-2.8v-4.3c0-1.1,0-2.1-0.1-2.8c0.9,0.1,1.9,0.1,2.8,0.1h8.2c0.9,0,1.9,0,2.8-0.1
	c-0.1,0.8-0.1,1.6-0.1,2.4v4.8c0,1,0,1.6,0.1,2.7c-0.7-0.1-1.7-0.1-2.9-0.1L57.3,1084.6z M56.5,1079h10v-2.5h-10V1079z M56.5,1083.1
	h10v-2.6h-10V1083.1z"/>
<path class="st0" d="M97.7,1090.9c1.1,0,2.2-0.1,3.3-0.2v2c-1.1-0.1-2.2-0.2-3.3-0.2H90c3.4,2.9,7.4,5,11.7,6
	c-0.5,0.5-0.9,1.1-1.2,1.8c-1.8-0.6-3.5-1.3-5.2-2.2c-2.5-1.3-4.9-2.9-6.9-4.9c0.1,1.2,0.1,2.6,0.1,3.2v1.3c0,1,0,2,0.2,2.9h-2.2
	c0.1-1,0.2-2,0.2-2.9v-1.3c0-0.6,0-1.5,0.1-3.2c-1.9,1.9-4.1,3.6-6.6,4.8c-1.6,0.8-3.3,1.6-5,2.2c-0.3-0.6-0.8-1.2-1.3-1.7
	c2.4-0.7,4.6-1.6,6.8-2.8c1.6-0.9,3.1-2,4.5-3.2h-7c-1.1,0-2.2,0-3.3,0.2v-2c1.1,0.1,2.2,0.2,3.3,0.2h8.6v-0.4c0-0.7,0-1.3-0.1-2h2
	c-0.1,0.7-0.1,1.3-0.1,2v0.4L97.7,1090.9z M94.5,1081.9c-0.9,1.4-2.1,2.5-3.4,3.4c2.9,0.7,5.8,1.6,8.6,2.7l-1.2,1.5
	c-3-1.3-6.1-2.3-9.3-3.1c-3.4,1.7-7.1,2.5-13,2.8c-0.2-0.6-0.4-1.1-0.8-1.6c3.8,0,7.6-0.6,11.2-1.8c-2-0.4-3.6-0.7-6.8-1.1
	c1-0.9,2-1.8,2.8-2.8h-4.3c-1,0-2,0.1-3,0.2v-1.9c1,0.1,2,0.2,2.9,0.2H84c0.7-0.9,1.3-1.8,1.8-2.8l2,0.5l-1.7,2.3h11.7
	c1,0,2,0,3-0.2v1.9c-1-0.1-2-0.2-3-0.2H94.5z M86.8,1075.4c0-0.7-0.1-1.5-0.2-2.2h2.3c-0.2,0.7-0.2,1.5-0.2,2.2v0.2h8.8
	c1,0,2,0,3-0.1c-0.1,0.6-0.1,1.2-0.1,1.7v0.6c0,0.6,0,1.1,0.1,1.7h-1.9v-2.3h-21v2.3h-1.9c0.1-0.5,0.1-1.1,0.1-1.7v-0.6
	c0-0.6,0-1.2-0.1-1.7c1,0.1,1.8,0.1,3,0.1h8.1L86.8,1075.4z M84.9,1082c-0.7,0.8-0.9,1-1.7,1.9c2.1,0.3,3.8,0.6,5.7,1.1
	c1.4-0.7,2.6-1.7,3.5-2.9L84.9,1082L84.9,1082z"/>
<path class="st0" d="M107.8,1086.3c1.7,0.6,3.5,1,5.4,1.2c0.2-1.5,0.4-3.8,0.7-5.4c-1.5-0.2-3-0.5-4.5-0.8l-0.9-0.2l0.3-2
	c1.7,0.6,3.6,1,5.4,1.2c0.4-1.9,0.6-3.7,0.7-5.6v-0.2l2.4,0.3c-0.2,0.7-0.4,1.3-0.5,2c0,0.3,0,0.3-0.3,1.9c-0.1,0.7-0.2,1-0.3,1.8
	c0.8,0,1.3,0,1.7,0c1.8,0,3.7-0.1,5.5-0.5l-0.1,2.1l-2.1,0.2c-0.9,0.1-1.8,0.1-2.7,0.1c-0.5,0-1,0-2.6-0.1c-0.5,3.4-0.5,3.8-0.7,5.4
	c1.1,0,1.6,0,2,0c1.9,0,3.7-0.1,5.5-0.5l-0.1,2l-0.8,0.1c-1.4,0.2-2.8,0.2-4.2,0.2c-0.8,0-1.2,0-2.6-0.1c0,0.2,0,0.4,0,0.6
	c-0.1,0.7-0.1,1.7-0.1,2.2c-0.1,1.3,0.4,2.7,1.4,3.6c1.2,0.9,2.7,1.4,4.2,1.3c4,0,6.6-2.1,6.6-5.2c0-1.9-0.9-3.6-2.8-5.2
	c0.8-0.1,1.5-0.3,2.2-0.6c2.1,2.3,2.8,3.8,2.8,6c0,4.2-3.5,7.1-8.8,7.1c-3.2,0-5.6-1.1-6.7-3c-0.7-1.3-1-2.7-0.9-4.1
	c0-0.7,0-1.3,0.1-2c0-0.4,0-0.4,0.1-0.7c-1.5-0.1-3-0.4-4.5-0.8c-0.3-0.1-0.6-0.2-0.9-0.2L107.8,1086.3z"/>
<path class="st0" d="M140.7,1090.3c0-1.3,0-2.2,0.1-3.6c-1,1.3-2.1,2.4-3.4,3.4c-0.3-0.6-0.7-1.2-1.2-1.7c2.3-1.6,4.4-3.6,6.1-5.9
	c0.6-0.8,1.1-1.7,1.4-2.6l1.9,1c-0.3,0.4-0.6,0.8-0.9,1.3c-0.6,1-1.3,1.9-2,2.7v12.2c0,1.2,0,2.4,0.2,3.7h-2.4
	c0.2-1.2,0.2-2.4,0.2-3.7L140.7,1090.3z M144.8,1074.6c-0.2,0.2-0.4,0.4-0.5,0.7c-1.9,2.5-4.1,4.7-6.7,6.5c-0.4-0.6-0.8-1.1-1.4-1.5
	c1.5-0.9,2.8-2,4-3.2c1.1-1,2.1-2.3,2.7-3.7L144.8,1074.6z M149.2,1084.6c-1.1,0-2.2,0-3.3,0.2v-2.1c1.1,0.1,2.2,0.2,3.3,0.2h10.5
	c1.1,0,2.2,0,3.3-0.2v2.1c-1.1-0.1-2.2-0.2-3.3-0.2H158v13.1c0,1.9-0.7,2.4-3.4,2.4c-1,0-2.4-0.1-3.7-0.2c-0.1-0.7-0.2-1.4-0.5-2.1
	c1.4,0.2,2.8,0.3,4.2,0.4c1,0,1.3-0.1,1.3-0.7v-13L149.2,1084.6z M147.1,1075.2c1,0.1,2.1,0.2,3.1,0.2h8.4c1,0,2.1,0,3.1-0.2v2.1
	c-1-0.1-2.1-0.2-3.1-0.2h-8.4c-1,0-2.1,0.1-3.1,0.2V1075.2z"/>
<path class="st0" d="M170,1084.2c1-0.1,2-0.3,3-0.5c3-0.6,6.1-1,9.1-1.1c1.8-0.1,3.6,0.3,5.2,1.1c1.7,1,2.6,2.8,2.6,4.8
	c0,3.2-1.8,6.1-5.2,8.1c-2.3,1.4-4.2,2-8.7,2.8c-0.2-0.8-0.6-1.5-1-2.2c3-0.1,5.8-1,8.4-2.4c1-0.5,1.9-1.2,2.6-2.1
	c0.9-1.2,1.5-2.6,1.5-4.1c0.1-1.4-0.7-2.7-1.9-3.4c-1.2-0.5-2.4-0.7-3.7-0.7c-3.9,0.1-7.7,0.8-11.4,2L170,1084.2z M174.4,1074.8
	c3.9,1.3,8.1,1.9,12.2,1.9l-0.3,2.2c-4.3-0.2-8.5-0.8-12.6-2L174.4,1074.8z"/>
<path class="st0" d="M206.7,1095.9c0,2.5-2,4.5-4.5,4.5s-4.5-2-4.5-4.5s2-4.5,4.5-4.5S206.7,1093.4,206.7,1095.9L206.7,1095.9z
	 M199.4,1095.9c0,1.5,1.2,2.8,2.8,2.8c1.5,0,2.8-1.2,2.8-2.8c0-1.5-1.2-2.8-2.8-2.8C200.7,1093.1,199.4,1094.4,199.4,1095.9z"/>
<polygon class="st0" points="77,710.3 111.6,730.3 111.6,770.3 77,790.3 42.4,770.3 42.4,730.3 "/>
<g>
	<g>
		<defs>
			<polygon id="SVGID_1_" points="77,710.3 111.6,730.3 111.6,770.3 77,790.3 42.4,770.3 42.4,730.3 			"/>
		</defs>
		<clipPath id="SVGID_2_">
			<use xlink:href="#SVGID_1_"  style="overflow:visible;"/>
		</clipPath>
		<g class="st1">
			<polygon class="st0" points="59.3,709.3 59.3,729.7 41.6,739.9 41.6,719.5 			"/>
			<polygon class="st2" points="59.3,729.7 59.3,750.1 41.6,760.3 41.6,739.9 			"/>
			<polygon class="st0" points="59.3,750.1 59.3,770.6 41.6,780.8 41.6,760.3 			"/>
			<polygon class="st0" points="59.3,770.6 59.3,791 41.6,801.2 41.6,780.8 			"/>
			<polygon class="st0" points="112.4,699.1 112.4,719.5 94.7,729.7 94.7,709.3 			"/>
			<polygon class="st0" points="112.4,719.5 112.4,739.9 94.7,750.1 94.7,729.7 			"/>
			<polygon class="st0" points="112.4,739.9 112.4,760.3 94.7,770.6 94.7,750.1 			"/>
			<polygon class="st0" points="112.4,760.3 112.4,780.8 94.7,791 94.7,770.6 			"/>
			<polygon class="st0" points="112.4,780.8 112.4,801.2 94.7,811.4 94.7,791 			"/>
			<polygon class="st0" points="94.7,729.7 94.7,750.1 77,739.9 77,719.5 			"/>
			<polygon class="st0" points="94.7,750.1 94.7,770.6 77,760.3 77,739.9 			"/>
			<polygon class="st0" points="94.7,770.6 94.7,791 77,780.8 77,760.3 			"/>
			<polygon class="st2" points="77,739.9 77,760.3 59.3,750.1 59.3,729.7 			"/>
			<polygon class="st0" points="77,780.8 77,801.2 59.3,791 59.3,770.6 			"/>
			<polygon class="st0" points="59.3,688.8 59.3,709.3 41.6,719.5 41.6,699.1 			"/>
			<polygon class="st0" points="77,699.1 77,719.5 59.3,709.3 59.3,688.8 			"/>
			<polygon class="st0" points="94.7,709.3 94.7,729.7 77,719.5 77,699.1 			"/>
			<polygon class="st0" points="77,719.5 77,739.9 59.3,729.7 59.3,709.3 			"/>
			<polygon class="st0" points="77,760.3 77,780.8 59.3,770.6 59.3,750.1 			"/>
			<polygon class="st0" points="94.7,791 94.7,811.4 77,801.2 77,780.8 			"/>
			<path class="st3" d="M94.7,708.6l-18.3-10.5l0,0l-16.6-9.6v-0.7l-0.6,0.3l-0.6-0.3v0.7L41,698.7v103.5l18.2-10.5l18.3,10.5l0,0
				l16.6,9.6v0.7l0.6-0.3l0.6,0.3v-0.7l17.7-10.2V698.1L94.7,708.6z M94.1,730.7v18.5l-8.3-4.8l-8.3-4.8v-19.1l8.3,4.8l8.3,4.8
				V730.7z M94.1,751.1v18.5l-8.3-4.8l-8.3-4.8v-19.1l8.3,4.8l8.3,4.8V751.1z M94.1,771.5V790l-8.3-4.8l-8.3-4.8v-19.1l8.3,4.8
				l8.3,4.8V771.5z M59.9,770.2v-19.1l8.3,4.8l8.3,4.8v19.1l-8.3-4.8L59.9,770.2z M59.9,749.1v-18.5l8.3,4.8l8.3,4.8v19.1l-8.3-4.8
				l-8.3-4.8C59.9,749.7,59.9,749.1,59.9,749.1z M59.9,728.7v-18.5l8.3,4.8l8.3,4.8v19.1l-8.3-4.8l-8.3-4.8
				C59.9,729.3,59.9,728.7,59.9,728.7z M94.1,728.7l-8.3-4.8l-8.3-4.8V700l16.6,9.6C94.1,709.6,94.1,728.7,94.1,728.7z M76.4,699.4
				v19.1l-8.3-4.8l-8.3-4.8v-19.1L76.4,699.4z M42.2,718.5v-19.1l16.6-9.6v19.1l-8.3,4.8L42.2,718.5z M42.2,738.9v-19.1l8.3-4.8
				l8.3-4.8v19.1l-8.3,4.8L42.2,738.9z M42.2,759.4v-19.1l8.3-4.8l8.3-4.8v19.1l-8.3,4.8L42.2,759.4z M42.2,760.7l8.3-4.8l8.3-4.8
				v19.1l-8.3,4.8l-8.3,4.8V760.7z M42.2,781.1l8.3-4.8l8.3-4.8v19.1l-16.6,9.6C42.2,800.2,42.2,781.1,42.2,781.1z M59.9,771.5
				l8.3,4.8l8.3,4.8v19.1l-16.6-9.6C59.9,790.6,59.9,771.5,59.9,771.5z M77.6,800.9v-19.1l8.3,4.8l8.3,4.8v19.1L77.6,800.9z
				 M111.8,781.8v19.1l-16.6,9.6v-19.1l8.3-4.8L111.8,781.8z M111.8,761.3v19.1l-8.3,4.8l-8.3,4.8v-19.1l8.3-4.8L111.8,761.3z
				 M111.8,740.9V760l-8.3,4.8l-8.3,4.8v-19.1l8.3-4.8L111.8,740.9z M111.8,720.5v19.1l-8.3,4.8l-8.3,4.8V730l8.3-4.8L111.8,720.5z
				 M103.5,723.9l-8.3,4.8v-19.1l16.6-9.6v19.1L103.5,723.9z"/>
		</g>
	</g>
</g>
</svg>
