<svg xmlns="http://www.w3.org/2000/svg" xmlns:xlink="http://www.w3.org/1999/xlink" viewBox="0 0 127.38 220.64"><defs><style>.cls-1{fill:#fff;}.cls-2{clip-path:url(#clip-path);}.cls-3{fill:#2c8ac8;}.cls-4{fill:#231815;}</style><clipPath id="clip-path" transform="translate(2.32 39.84)"><polygon class="cls-1" points="61.37 0 122.74 35.43 122.74 106.3 61.37 141.73 0 106.3 0 35.43 61.37 0"/></clipPath></defs><g id="レイヤー_2" data-name="レイヤー 2"><g id="レイヤー_2-2" data-name="レイヤー 2"><polygon class="cls-1" points="63.69 39.84 125.06 75.27 125.06 146.14 63.69 181.57 2.32 146.14 2.32 75.27 63.69 39.84"/><g class="cls-2"><polygon class="cls-1" points="32.34 37.93 32.34 74.12 1 92.22 1 56.02 32.34 37.93"/><polygon class="cls-3" points="32.34 74.12 32.34 110.31 1 128.41 1 92.22 32.34 74.12"/><polygon class="cls-1" points="32.34 110.31 32.34 146.51 1 164.62 1 128.41 32.34 110.31"/><polygon class="cls-1" points="32.34 146.51 32.34 182.72 1 200.81 1 164.62 32.34 146.51"/><polygon class="cls-1" points="126.38 19.83 126.38 56.02 95.03 74.12 95.03 37.93 126.38 19.83"/><polygon class="cls-1" points="126.38 56.02 126.38 92.22 95.03 110.31 95.03 74.12 126.38 56.02"/><polygon class="cls-1" points="126.38 92.22 126.38 128.41 95.03 146.51 95.03 110.31 126.38 92.22"/><polygon class="cls-1" points="126.38 128.41 126.38 164.62 95.03 182.72 95.03 146.51 126.38 128.41"/><polygon class="cls-1" points="126.38 164.62 126.38 200.81 95.03 218.91 95.03 182.72 126.38 164.62"/><polygon class="cls-1" points="95.03 74.12 95.03 110.31 63.69 92.22 63.69 56.02 95.03 74.12"/><polygon class="cls-1" points="95.03 110.31 95.03 146.51 63.69 128.41 63.69 92.22 95.03 110.31"/><polygon class="cls-1" points="95.03 146.51 95.03 182.72 63.69 164.62 63.69 128.41 95.03 146.51"/><polygon class="cls-3" points="63.69 92.22 63.69 128.41 32.34 110.31 32.34 74.12 63.69 92.22"/><polygon class="cls-1" points="63.69 164.62 63.69 200.81 32.34 182.72 32.34 146.51 63.69 164.62"/><polygon class="cls-1" points="32.34 1.73 32.34 37.93 1 56.02 1 19.83 32.34 1.73"/><polygon class="cls-1" points="63.69 19.83 63.69 56.02 32.34 37.93 32.34 1.73 63.69 19.83"/><polygon class="cls-1" points="95.03 37.93 95.03 74.12 63.69 56.02 63.69 19.83 95.03 37.93"/><polygon class="cls-1" points="63.69 56.02 63.69 92.22 32.34 74.12 32.34 37.93 63.69 56.02"/><polygon class="cls-1" points="63.69 128.41 63.69 164.62 32.34 146.51 32.34 110.31 63.69 128.41"/><polygon class="cls-1" points="95.03 182.72 95.03 218.91 63.69 200.81 63.69 164.62 95.03 182.72"/><path class="cls-4" d="M92.71-3.07,60.37-21.74h0L31-38.68v-1.16l-1,.58-1-.58v1.16L-2.32-20.59V162.7L30,144,62.37,162.7h0l29.34,17v1.15l1-.58,1,.58v-1.15l31.35-18.1V-21.74ZM91.71,36V68.74L77,60.27,62.37,51.8V17.92L77,26.39l14.67,8.47Zm0,36.2v32.73L77,96.46,62.37,88V54.11L77,62.58l14.67,8.47Zm0,36.19v32.74L77,132.67,62.37,124.2V90.3L77,98.77l14.67,8.48ZM31,106.09V72.21L45.7,80.68l14.67,8.47v33.9L45.7,114.57Zm0-37.35V36L45.7,44.48,60.37,53V86.84L45.7,78.37,31,69.9Zm0-36.19V-.18L45.7,8.29l14.67,8.47V50.65L45.7,42.17,31,33.7Zm60.68,0L77,24.08,62.37,15.61V-18.28L91.71-1.34Zm-31.34-52V14.45L45.7,6,31-2.49V-36.37ZM-.32,14.45V-19.43L29-36.37V-2.49L14.35,6Zm0,36.2V16.76L14.35,8.29,29-.18V33.7L14.35,42.17Zm0,36.19V53l14.67-8.48L29,36V69.9L14.35,78.37Zm0,2.31,14.67-8.47L29,72.21v33.88l-14.68,8.48L-.32,123.05Zm0,36.21,14.67-8.48L29,108.4v33.9L-.32,159.24ZM31,108.4l14.67,8.48,14.67,8.48v33.88L31,142.3Zm31.34,52V126.51L77,135l14.67,8.47v33.89Zm60.69-33.89V160.4L93.71,177.34V143.45L108.39,135Zm0-36.21v33.9l-14.67,8.47-14.68,8.47V107.25l14.68-8.48Zm0-36.19V88l-14.67,8.47-14.68,8.48V71.05l14.68-8.47Zm0-36.19V51.8l-14.67,8.47L93.71,68.74V34.86l14.68-8.47Zm-14.67,6.16L93.71,32.55V-1.34l29.35-16.94V15.61Z" transform="translate(2.32 39.84)"/></g></g></g></svg>