<svg xmlns="http://www.w3.org/2000/svg" width="591.9" height="139.63" viewBox="0 0 591.9 139.63">
  <defs>
    <style>
      .cls-1 {
        fill: #fff;
      }
    </style>
  </defs>
  <g id="レイヤー_2" data-name="レイヤー 2">
    <g id="レイヤー_2-2" data-name="レイヤー 2">
      <g>
        <path class="cls-1" d="M2.86,2.29,9.78,9.22l6.93-6.93.61.61L10.39,9.83l6.93,6.92-.61.61L9.78,10.43l-6.95,7-.61-.6,7-7L2.25,2.9ZM3.8,11.4A1.58,1.58,0,1,1,5.38,9.83,1.59,1.59,0,0,1,3.8,11.4ZM8.21,3.84a1.58,1.58,0,0,1,3.15,0,1.58,1.58,0,1,1-3.15,0Zm3.15,12a1.58,1.58,0,1,1-1.58-1.58A1.59,1.59,0,0,1,11.36,15.81Zm4.41-7.56a1.58,1.58,0,1,1-1.58,1.58A1.58,1.58,0,0,1,15.77,8.25Z"/>
        <path class="cls-1" d="M41.58,6.07H33.91a19.45,19.45,0,0,0,8.38,8.84,5.79,5.79,0,0,0-1.07,1.24A21.18,21.18,0,0,1,33,7.2v6.89h4.2v1.43H33v4.07H31.54V15.52H27.28V14.09h4.26V7.24a22.84,22.84,0,0,1-8.17,9,8,8,0,0,0-1-1.16,20.67,20.67,0,0,0,8.27-9H23.06V4.64h8.48V.1l1.89.11c0,.15-.13.25-.42.29V4.64h8.57Z"/>
        <path class="cls-1" d="M57,13.25a8.86,8.86,0,0,0,1.85,2.41,26.84,26.84,0,0,0,3.29-2.2l1.26.92a.38.38,0,0,1-.42.11c-.82.56-2.1,1.34-3.21,1.93a12.55,12.55,0,0,0,4.87,2,4.17,4.17,0,0,0-.86,1.15,11.38,11.38,0,0,1-8.1-6.36H52.92v4.18l4.81-.7,0,1.14c-2.81.5-5.82,1-7.69,1.3a.29.29,0,0,1-.25.29L49.22,18c.67-.08,1.49-.21,2.38-.33V13.25H48.68V12h4V9.64h-3.3V8.4h3.3V6.24H48.61V7.35c0,3.61-.29,8.75-2.49,12.24a6.63,6.63,0,0,0-1.24-.71c2.14-3.39,2.33-8.11,2.33-11.53V1.11H63.08V6.24H59.89v0h.36c0,.14-.15.25-.42.29V8.4h3.65V9.64H59.83V12h4.53v1.24ZM48.61,2.37V5h13V2.37Zm5.8,3.89c0,.14-.13.25-.4.29V8.4H58.5V6.24H54.07v0ZM54,9.64V12H58.5V9.64Z"/>
        <path class="cls-1" d="M69.66,18.41c-.65-1.51-.91-4.64-.91-7.39a52.83,52.83,0,0,1,1.14-9.8l2,.4a.53.53,0,0,1-.54.37,40.16,40.16,0,0,0-1.22,9,24.65,24.65,0,0,0,.19,4c.46-1.26,1.3-3.27,1.74-4.26l1,.88c-.7,1.43-2.17,4.62-2.17,5.61a3.08,3.08,0,0,0,.21,1ZM75,6.05c1.76,0,3.53,0,5.29-.09-.08-1.8-.15-3.36-.19-4.91l2.12.06c0,.21-.21.38-.54.44,0,1.35.06,2.71.1,4.31A18.71,18.71,0,0,0,85.89,5l.19,1.47a20.21,20.21,0,0,1-4.25.75c.09,2.33.19,4.79.26,6.13A15.66,15.66,0,0,1,86.37,16l-.82,1.34A12.65,12.65,0,0,0,82.15,15c0,1.79-.36,3.78-3.51,3.78-2.45,0-4.09-1.18-4.09-3,0-2.14,2.16-3.09,4.09-3.09a7.24,7.24,0,0,1,2,.27c-.07-1.32-.19-3.52-.3-5.58-.65,0-1.53.06-2.14.06H75Zm5.75,8.25a7.07,7.07,0,0,0-2.08-.38c-1.28,0-2.81.46-2.81,1.79,0,1.17,1.26,1.76,2.79,1.76s2.12-.76,2.12-2.44Z"/>
        <path class="cls-1" d="M104.91,17.8h-9.3V16.73l1.53-1.61c3.74-3.78,5.63-6.07,5.63-8.63,0-1.68-.73-3.24-3-3.24a5.27,5.27,0,0,0-3.15,1.31L96,3.34a6.18,6.18,0,0,1,4.08-1.54,4.2,4.2,0,0,1,4.43,4.48c0,3-2.08,5.48-5.34,8.75L98,16.33v.05h7Z"/>
        <path class="cls-1" d="M108.51,10c0-5.5,2.14-8.16,5.08-8.16s4.81,2.81,4.81,8c0,5.46-1.92,8.28-5,8.28C110.5,18.06,108.51,15.24,108.51,10Zm8.12-.12c0-3.93-.94-6.64-3.15-6.64-1.87,0-3.19,2.5-3.19,6.64s1.16,6.76,3.13,6.76C115.75,16.63,116.63,13.61,116.63,9.87Z"/>
        <path class="cls-1" d="M131.08,17.8h-9.3V16.73l1.53-1.61c3.74-3.78,5.63-6.07,5.63-8.63,0-1.68-.74-3.24-3-3.24a5.24,5.24,0,0,0-3.15,1.31l-.59-1.22a6.14,6.14,0,0,1,4.07-1.54,4.2,4.2,0,0,1,4.43,4.48c0,3-2.08,5.48-5.33,8.75l-1.24,1.3v.05h7Z"/>
        <path class="cls-1" d="M144.16,17.8h-9.3V16.73l1.53-1.61c3.74-3.78,5.63-6.07,5.63-8.63,0-1.68-.73-3.24-3-3.24a5.24,5.24,0,0,0-3.15,1.31l-.59-1.22a6.16,6.16,0,0,1,4.07-1.54,4.2,4.2,0,0,1,4.43,4.48c0,3-2.07,5.48-5.33,8.75l-1.24,1.3v.05h6.95Z"/>
        <path class="cls-1" d="M172.3,13.39v1.39h-7.85v4.81H163V14.78h-10V13.39h3.53V7.62H163V4.18H157.6a19.16,19.16,0,0,1-3.36,4.24,8.07,8.07,0,0,0-1.13-.92A19.34,19.34,0,0,0,158,0l1.79.57a.4.4,0,0,1-.49.19,18.54,18.54,0,0,1-.94,2h12.93V4.18h-6.84V7.62h6.38V9h-6.38v4.43Zm-14.28,0h5V9h-5Z"/>
        <path class="cls-1" d="M186.52,9.3a4,4,0,0,1,3.42,4.07c0,2.5-1.8,4.69-5.33,4.69a7,7,0,0,1-3.72-1l.53-1.34a6.3,6.3,0,0,0,3.21.94,3.19,3.19,0,0,0,3.51-3.3c0-2.31-2-3.36-4-3.36h-1V8.69h1c1.51,0,3.46-.94,3.46-2.92a2.43,2.43,0,0,0-2.71-2.54,5.14,5.14,0,0,0-2.87,1L181.48,3a6.59,6.59,0,0,1,3.74-1.18c2.87,0,4.16,1.83,4.16,3.72a4,4,0,0,1-2.86,3.72Z"/>
        <path class="cls-1" d="M215.5,1.22V17.51c0,1.09-.3,1.57-1.07,1.83a17.82,17.82,0,0,1-4.47.25,8.36,8.36,0,0,0-.61-1.49c1,0,2,.06,2.73.06,1.82,0,1.95,0,1.95-.65V12.83h-10.4a11.89,11.89,0,0,1-3.86,6.8,5,5,0,0,0-1.05-1.05c3.61-3.06,4-7.41,4-10.9V1.22ZM204.12,7.68a27.9,27.9,0,0,1-.23,3.78H214V7.68ZM214,2.6h-9.91V6.34H214Z"/>
        <path class="cls-1" d="M236.35,17.8h-9.3V16.73l1.53-1.61c3.74-3.78,5.63-6.07,5.63-8.63,0-1.68-.74-3.24-3-3.24a5.24,5.24,0,0,0-3.15,1.31l-.59-1.22a6.16,6.16,0,0,1,4.07-1.54A4.2,4.2,0,0,1,236,6.28c0,3-2.08,5.48-5.33,8.75l-1.24,1.3v.05h6.95Z"/>
        <path class="cls-1" d="M239.94,10c0-5.5,2.15-8.16,5.09-8.16s4.8,2.81,4.8,8c0,5.46-1.91,8.28-5,8.28C241.94,18.06,239.94,15.24,239.94,10Zm8.13-.12c0-3.93-.95-6.64-3.15-6.64-1.87,0-3.19,2.5-3.19,6.64s1.15,6.76,3.13,6.76C247.19,16.63,248.07,13.61,248.07,9.87Z"/>
        <path class="cls-1" d="M261.24,1.45h13.62V19.13h-1.47V17.87h-10.7v1.38h-1.45Zm12.15,1.43h-10.7v6h10.7Zm-10.7,13.56h10.7V10.29h-10.7Z"/>
        <path class="cls-1" d="M299.2,9.07a.28.28,0,0,1-.12,0,.57.57,0,0,1-.32-.12c-1.59.52-3.92,1.38-5.67,2.14,0,.48.07,1,.07,1.64s0,1.42-.07,2.24l-1.53.09c.06-.76.11-1.73.11-2.55a7.23,7.23,0,0,0,0-.84c-2.37,1.16-4.3,2.57-4.3,3.83s1.45,1.8,4.35,1.8a46.69,46.69,0,0,0,5.27-.21l0,1.41c-1.24.13-3.13.17-5.29.17-4,0-5.82-1-5.82-3.11,0-1.85,2.44-3.63,5.59-5.21-.13-1.32-.72-2-1.56-2-1.53,0-3.13.86-5,3-.59.65-1.4,1.47-2.31,2.29l-1-1c2.1-1.85,4.08-3.61,5.3-7.75l-1.18,0h-3.51V3.55c1.28,0,2.78,0,3.64,0l1.42,0a26,26,0,0,0,.57-3l2.06.26c0,.21-.21.33-.53.38-.14.84-.33,1.57-.52,2.33A29.19,29.19,0,0,0,296,2.29l.25,1.41a31.86,31.86,0,0,1-7.87,1.17,15.08,15.08,0,0,1-1.51,3.55h0a5.58,5.58,0,0,1,3.38-1.37c1.43,0,2.33,1,2.6,2.73,1.77-.79,4-1.66,5.67-2.31Z"/>
        <path class="cls-1" d="M310.23,9.41l.19,1.21-2.54.91v6.34c0,1.51-.69,1.74-3.49,1.7a5.64,5.64,0,0,0-.46-1.3c1,0,1.89,0,2.16,0s.4-.11.4-.4V12c-1,.34-1.89.65-2.6.88a.35.35,0,0,1-.25.34l-.59-1.66c.94-.25,2.14-.61,3.44-1V5.65H303.3V4.32h3.19V.08l1.81.11c0,.17-.13.25-.42.29V4.32h2.41V5.65h-2.41v4.49Zm12.45-1H320a.47.47,0,0,1-.42.27v2.4h2.8v1.3h-2.8v5.52c0,1.62-.81,1.66-3.8,1.66a4.92,4.92,0,0,0-.48-1.32c.59,0,1.13,0,1.57,0h.93c.29,0,.38-.09.38-.36V12.41h-7.65v-1.3h7.65V8.44h-8.13V7.12h5.54v-3h-4.15V2.79h4.15V.06l1.83.13c0,.15-.15.25-.42.29V2.79h4.33v1.3H317v3h5.67Zm-8.27,9a18.9,18.9,0,0,0-2.65-3.62l1.07-.67a21.61,21.61,0,0,1,2.69,3.49Z"/>
        <path class="cls-1" d="M342.34,4.32a47.5,47.5,0,0,1-9,1.22,25.69,25.69,0,0,1-1,5.57,10.66,10.66,0,0,1,6-2.23c3.12,0,5,1.68,5,4.51,0,4.18-4.22,5.59-11,5.76a6,6,0,0,0-.42-1.39c6-.12,9.93-1.15,9.93-4.32,0-1.89-1.26-3.19-3.69-3.19-1.87,0-5.08,1.13-6.47,3.21l-1.47-.69c.67-.76,1.36-3.76,1.68-7.21h-4.91V4.09c.88,0,3.46,0,5,0,.09-1.2.13-2.55.13-3.81l2.23.21c0,.36-.3.42-.68.47,0,1.05-.1,2.12-.18,3.1a40.17,40.17,0,0,0,8.6-1.28Z"/>
        <path class="cls-1" d="M349.92,3.34c1.3.08,3,.08,4.47.08.95,0,2,0,2.9,0,0-1,0-2.18,0-2.92l2.12.11c0,.25-.21.37-.57.44,0,.33,0,2,0,2.31a41.9,41.9,0,0,0,7-.82L366,3.88a41.57,41.57,0,0,1-7.16.8c0,1.26,0,2.56.09,3.86a34.82,34.82,0,0,0,5.92-.81L365,9.09a40.18,40.18,0,0,1-6.06.74l.17,3.5a23.29,23.29,0,0,1,6.17,3.28l-.93,1.28a20.6,20.6,0,0,0-5.2-3.09c0,.34,0,.72,0,1,0,2-1.22,3.15-3.76,3.15s-4.62-1.09-4.62-3.07,2.29-3.13,4.64-3.13a9.28,9.28,0,0,1,2.21.26c0-.91-.07-2-.09-3.13-.67,0-1.43,0-2,0-3.59,0-4.59-.57-4.59-1.79,0-.79.61-1.44,1.95-2.3l1,.65c-1,.52-1.45,1-1.45,1.4,0,.63,1,.76,3.65.76.46,0,.95,0,1.41,0l-.13-3.89c-.9,0-1.95,0-2.89,0-1.35,0-3.26,0-4.52,0Zm7.77,10.94a8.89,8.89,0,0,0-2.35-.34c-1.6,0-3.22.65-3.22,1.91s1.48,1.85,3.3,1.85c1.66,0,2.29-.74,2.29-2.21Z"/>
        <path class="cls-1" d="M377.62,1c0,.25-.23.39-.65.46-.17,2.43-.38,8-.38,11.1s1.55,4.65,4.2,4.65,5.16-1.29,7.56-4a9.37,9.37,0,0,0,.94,1.24,11.38,11.38,0,0,1-8.52,4.26c-3.82,0-5.78-2.21-5.78-6.18,0-2.64.19-9.15.34-11.73Z"/>
        <path class="cls-1" d="M394.23,2.92c1.57-.06,14.51-1,17.24-1l0,1.57c-.27,0-.53,0-.78,0a6,6,0,0,0-3.59,1.08c-3.15,1.88-6.19,5.26-6.19,8,0,2.94,2.06,4.69,7.26,5.36l-.69,1.47c-6-.86-8.19-3.09-8.19-6.83,0-3,2.92-6.55,6.76-9-2.22.15-8.5.63-11.21.88a.65.65,0,0,1-.46.34Z"/>
        <path class="cls-1" d="M426.76.15a.56.56,0,0,1-.44.31,24.09,24.09,0,0,0,9.15,7.1,6,6,0,0,0-.9,1.26,26.33,26.33,0,0,1-9.13-7.35,25.08,25.08,0,0,1-8.93,7.43,6.18,6.18,0,0,0-.82-1.13,22.64,22.64,0,0,0,9-7.75Zm-10,12V10.79H434.4v1.34H424.3l.25.09c-.06.15-.23.21-.5.23a53.47,53.47,0,0,1-2.48,4.87c2.8-.06,6.05-.17,9.24-.27a32.88,32.88,0,0,0-3.09-3.15l1.2-.65a28.87,28.87,0,0,1,5.08,5.6l-1.26.8a15,15,0,0,0-1-1.47c-5.1.28-10.52.51-13.88.61a.34.34,0,0,1-.33.29L417,17.41c.89,0,1.91,0,3.07-.07a45.37,45.37,0,0,0,2.5-5.21Zm3.59-5.41h10.18V8H420.38Z"/>
        <path class="cls-1" d="M448.81,13.1v1.28H438.25V13.1h2.12V4.24h-1.83V3h1.83V.34l1.7.1c0,.15-.13.23-.4.27V3h4.09V.34l1.73.1c0,.15-.13.25-.4.27V3h1.59V4.24h-1.59V13.1Zm-5.9,2.33c-.06.13-.21.19-.44.19a14.59,14.59,0,0,1-3.05,4,7.84,7.84,0,0,0-1.05-.8,11.26,11.26,0,0,0,2.9-3.88Zm2.85-11.19h-4.09V6.32h4.09ZM441.67,7.5V9.62h4.09V7.5Zm0,3.27V13.1h4.09V10.77Zm15.45-9.62V17.8c0,1.7-.77,1.83-3.92,1.79a5.88,5.88,0,0,0-.44-1.37c.67,0,1.32.05,1.8.05,1.07,0,1.2,0,1.2-.47V12.32H451a14.28,14.28,0,0,1-2.48,7.39,3.71,3.71,0,0,0-1.09-.83,10.08,10.08,0,0,0,.59-.82s-.95.54-1.16.67a17,17,0,0,0-2.18-3.26l1.11-.6A19.23,19.23,0,0,1,448,18c1.64-2.75,1.8-6.32,1.8-9.13V1.15Zm-6,7.73c0,.67,0,1.41-.07,2.16h4.71V7.35h-4.64Zm4.64-6.42h-4.64V6.07h4.64Z"/>
        <path class="cls-1" d="M479.3,9.07a.33.33,0,0,1-.13,0,.54.54,0,0,1-.31-.12c-1.6.52-3.93,1.38-5.67,2.14,0,.48.06,1,.06,1.64s0,1.42-.06,2.24l-1.53.09c.06-.76.1-1.73.1-2.55,0-.31,0-.6,0-.84-2.37,1.16-4.3,2.57-4.3,3.83s1.44,1.8,4.34,1.8a46.48,46.48,0,0,0,5.27-.21l0,1.41c-1.24.13-3.13.17-5.29.17-4,0-5.81-1-5.81-3.11,0-1.85,2.43-3.63,5.58-5.21-.13-1.32-.71-2-1.55-2-1.54,0-3.13.86-5,3-.59.65-1.41,1.47-2.31,2.29l-1-1a14.75,14.75,0,0,0,5.29-7.75l-1.17,0h-3.51V3.55c1.28,0,2.77,0,3.63,0l1.43,0a28.36,28.36,0,0,0,.57-3l2.05.26c0,.21-.21.33-.52.38-.15.84-.34,1.57-.53,2.33a29.25,29.25,0,0,0,7.23-1.22l.25,1.41a32,32,0,0,1-7.87,1.17A15,15,0,0,1,467,8.42h0a5.61,5.61,0,0,1,3.39-1.37c1.42,0,2.33,1,2.6,2.73,1.76-.79,4-1.66,5.67-2.31Z"/>
        <path class="cls-1" d="M500.4,2.14l1,.53a.42.42,0,0,1-.27.21,16.7,16.7,0,0,1-3.26,5.31,15.51,15.51,0,0,0,5.27,3.21,8.59,8.59,0,0,0-.92,1.15A16.12,16.12,0,0,1,497,9.09a19.45,19.45,0,0,1-5.52,3.7,5.37,5.37,0,0,0-.86-1.08l-.09,0A8.14,8.14,0,0,0,490,10.5l-1.95.1v9H486.8V10.67c-1.18.06-2.23.1-3.07.12,0,.17-.14.23-.29.27l-.38-1.57h1.47c.46-.57,1-1.22,1.45-1.93a19.78,19.78,0,0,0-2.71-3.11l.74-.9c.21.19.44.4.67.63a32.05,32.05,0,0,0,2-4.1l1.49.63c-.06.13-.21.19-.44.19A33.19,33.19,0,0,1,485.46,5a13.17,13.17,0,0,1,1.25,1.49,42.93,42.93,0,0,0,2.36-4l1.47.69a.55.55,0,0,1-.47.19,61.13,61.13,0,0,1-4.22,6.11l3.64-.06a20,20,0,0,0-1.24-2.08l1.05-.46a18.49,18.49,0,0,1,2.33,4.32,18,18,0,0,0,4.43-3A16.42,16.42,0,0,1,493.85,5a16.11,16.11,0,0,1-2.29,2.64,3.59,3.59,0,0,0-1-.86A17.69,17.69,0,0,0,495,.06l1.72.25c0,.15-.17.26-.42.28-.21.5-.46,1-.74,1.61h4.64ZM486,12.58a.43.43,0,0,1-.42.21,19.32,19.32,0,0,1-1.41,5,11.69,11.69,0,0,0-1-.55,18.34,18.34,0,0,0,1.33-5.1Zm4.37,4.07A18.77,18.77,0,0,0,489,12.47l1.09-.36a19.81,19.81,0,0,1,1.45,4.14Zm10,3a38.82,38.82,0,0,0-8.29-3.4l.86-1a43.7,43.7,0,0,1,8.27,3.27Zm-1.72-4.91a21.66,21.66,0,0,0-4.24-2.48l.86-.88a22.45,22.45,0,0,1,4.29,2.37ZM494.84,3.46l-.25.44a15.66,15.66,0,0,0,2.33,3.36,14.72,14.72,0,0,0,2.5-3.8Z"/>
        <path class="cls-1" d="M522.71,1.68l1.3.8a.57.57,0,0,1-.36.21,31,31,0,0,1-7.33,5.9V17.7c0,1-.27,1.43-1.07,1.66a19.72,19.72,0,0,1-4.37.23,6.05,6.05,0,0,0-.58-1.43c1.15,0,2.24.06,3,.06,1.36,0,1.55,0,1.55-.54V7.33l.91,0a25.89,25.89,0,0,0,5.29-4.2H507V1.78h15.43Z"/>
        <path class="cls-1" d="M531.91,2.92c0,.19-.28.31-.57.33a34.9,34.9,0,0,0-.4,5.23c0,.78,0,1.53.08,2.21.26,3.57,1.7,5.73,3.32,5.71.84,0,1.93-2.14,2.69-4.5a6.8,6.8,0,0,0,1.22.91c-1,2.83-2.19,5.14-3.93,5.18-2.67.05-4.51-3.19-4.81-7.22-.06-.8-.08-1.68-.08-2.62a50,50,0,0,1,.31-5.65Zm13.92,9.76a10.48,10.48,0,0,0-5.29-7.89l.92-1.14a11.52,11.52,0,0,1,5.92,8.55Z"/>
        <path class="cls-1" d="M563.8,4.68a26.26,26.26,0,0,1-6.44,1.2A55.3,55.3,0,0,1,553.52,19L552,18.43a44.3,44.3,0,0,0,3.8-12.49c-.42,0-3.23,0-3.86,0l0-1.42c.34,0,.78,0,1.26,0,.19,0,2.29,0,2.83,0,.21-1.35.42-2.82.55-4.1l2.16.21c0,.23-.31.4-.61.42-.12.92-.33,2.06-.52,3.34a24.32,24.32,0,0,0,5.88-1.18Zm5.59,14c-.63,0-1.28,0-1.93,0a21.36,21.36,0,0,1-5-.46,2.92,2.92,0,0,1-2.33-2.9,5.06,5.06,0,0,1,1.3-3l1.26.55a3.88,3.88,0,0,0-1.09,2.33c0,1.66,1.6,2.08,5.42,2.08.77,0,1.57,0,2.35-.09ZM561.2,8.54a25.21,25.21,0,0,1,7.62-1.07V8.9a23.54,23.54,0,0,0-7.26.95Z"/>
        <path class="cls-1" d="M580.23,1c0,.25-.23.39-.65.46-.17,2.43-.38,8-.38,11.1s1.55,4.65,4.2,4.65,5.16-1.29,7.56-4a9.37,9.37,0,0,0,.94,1.24,11.4,11.4,0,0,1-8.52,4.26c-3.83,0-5.78-2.21-5.78-6.18,0-2.64.19-9.15.34-11.73Z"/>
        <path class="cls-1" d="M1.72,43.34c1.3.08,3.05.08,4.47.08.95,0,2,0,2.9,0,0-1,0-2.18,0-2.92l2.12.11c0,.25-.21.37-.57.44,0,.33,0,2,0,2.31a41.9,41.9,0,0,0,7-.82l.19,1.38a41.45,41.45,0,0,1-7.16.8c0,1.26,0,2.56.09,3.86a34.82,34.82,0,0,0,5.92-.81l.17,1.36a40.48,40.48,0,0,1-6.07.74l.17,3.5a23.14,23.14,0,0,1,6.17,3.28l-.93,1.28a20.6,20.6,0,0,0-5.2-3.09c0,.34,0,.72,0,1,0,2-1.22,3.15-3.76,3.15s-4.62-1.09-4.62-3.07,2.29-3.13,4.64-3.13A9.28,9.28,0,0,1,9.41,53c0-.91-.07-2-.09-3.13-.67,0-1.43,0-2,0-3.59,0-4.6-.57-4.6-1.79,0-.79.61-1.44,1.95-2.3l1,.65c-1,.52-1.45,1-1.45,1.4,0,.63,1,.76,3.65.76.46,0,1,0,1.41,0l-.13-3.89c-.9.05-2,.05-2.89.05-1.35,0-3.26,0-4.52-.05ZM9.49,54.28a8.89,8.89,0,0,0-2.35-.34c-1.6,0-3.21.65-3.21,1.91S5.4,57.7,7.22,57.7c1.66,0,2.29-.74,2.29-2.21Z"/>
        <path class="cls-1" d="M29.42,41c0,.25-.23.39-.65.46-.17,2.43-.38,8-.38,11.1s1.55,4.65,4.2,4.65,5.16-1.29,7.56-4a9.37,9.37,0,0,0,.94,1.24,11.37,11.37,0,0,1-8.52,4.26c-3.82,0-5.78-2.21-5.78-6.18,0-2.64.19-9.15.34-11.73Z"/>
        <path class="cls-1" d="M58,44.68a26.34,26.34,0,0,1-6.45,1.2A55.3,55.3,0,0,1,47.73,59l-1.51-.57A45,45,0,0,0,50,45.94c-.42,0-3.23,0-3.86,0l0-1.42c.33,0,.77,0,1.26,0,.18,0,2.28,0,2.83,0,.21-1.35.42-2.82.55-4.1l2.16.21c0,.23-.32.4-.61.42-.13.92-.34,2.06-.53,3.34a24.32,24.32,0,0,0,5.88-1.18Zm5.59,14c-.64,0-1.29,0-1.94,0a21.27,21.27,0,0,1-5-.46,2.92,2.92,0,0,1-2.33-2.9,5.06,5.06,0,0,1,1.3-3.05l1.26.55a3.83,3.83,0,0,0-1.09,2.33c0,1.66,1.59,2.08,5.41,2.08.78,0,1.58,0,2.36-.09ZM55.42,48.54A25.21,25.21,0,0,1,63,47.47V48.9a23.65,23.65,0,0,0-7.27,1Z"/>
        <path class="cls-1" d="M73.44,56.65a2.94,2.94,0,1,1-2.94-2.94A3,3,0,0,1,73.44,56.65Zm-.76,0a2.18,2.18,0,1,0-2.18,2.16A2.17,2.17,0,0,0,72.68,56.65Z"/>
        <path class="cls-1" d="M16.69,97.47a39.67,39.67,0,0,1-6.44.48,23.38,23.38,0,0,1-4.06-.27c-2.54-.57-3.63-2.16-3.63-4A6.65,6.65,0,0,1,4.7,89.2l1.22.63a5.66,5.66,0,0,0-1.85,3.71c0,1.24.82,2.33,2.63,2.75a18.58,18.58,0,0,0,3.36.23A35.92,35.92,0,0,0,16.59,96ZM7.26,86.89A25.51,25.51,0,0,1,11,84.45v0c-1.6.19-5.25.25-7.58.25,0-.4,0-1.09,0-1.47H4.51c2.69,0,8.19,0,10.84-.67l.17,1.53a8.17,8.17,0,0,0-2.21.63,22.57,22.57,0,0,0-4.85,2.94Zm9.41,3A13.85,13.85,0,0,0,13.86,87l.69-.65a15.22,15.22,0,0,1,2.88,2.84Zm2.21-2A14.78,14.78,0,0,0,16.06,85l.69-.67a15.27,15.27,0,0,1,2.88,2.85Z"/>
        <path class="cls-1" d="M41.74,90.9H34.1a22.14,22.14,0,0,0,8.13,6.55,5.2,5.2,0,0,0-1,1.24A24.21,24.21,0,0,1,33,91.61v8H31.54V91.74a24,24,0,0,1-8.08,6.86,6,6,0,0,0-1-1.19,21.6,21.6,0,0,0,8.08-6.51H22.87V89.55h8.67v-5.5H23.9V82.69h7.64V80.08l1.89.13c0,.15-.13.25-.42.29v2.19h7.83v1.36H33v5.5h8.73ZM27.66,89.28a17,17,0,0,0-2-4.14l1.24-.46a16.79,16.79,0,0,1,2.08,4Zm11.92-4.09a.53.53,0,0,1-.48.19,33.37,33.37,0,0,1-2.31,4s-1.2-.52-1.2-.52a27.83,27.83,0,0,0,2.25-4.3Z"/>
        <path class="cls-1" d="M49.2,92.41l2.31-1a9.33,9.33,0,0,1,.29,1.24c-2.16,1.05-4.47,2.16-5.94,2.83a.39.39,0,0,1-.23.36l-.69-1.58c.8-.31,1.81-.73,2.92-1.21v-7H45.3V84.68h2.56V80.1l1.74.13c0,.15-.13.23-.4.27v4.18h2.37v1.37H49.2ZM64.55,90.1H55.69a13.27,13.27,0,0,1-1,1.59H63l.29,0,.78.13-.09.42c-.35,4.56-.69,6.21-1.26,6.82s-1,.53-2.12.53c-.35,0-.77,0-1.19,0a2.89,2.89,0,0,0-.32-1.18c.82.08,1.56.08,1.87.08s.48,0,.65-.21c.38-.39.69-1.8,1-5.33H60.73a15.38,15.38,0,0,1-4.14,6.85,4.4,4.4,0,0,0-1.07-.82,13,13,0,0,0,4-6H57.33a16.24,16.24,0,0,1-5.13,5.94,5.17,5.17,0,0,0-1-.9,14.15,14.15,0,0,0,4.81-5H53.78a13.59,13.59,0,0,1-3,2.6,10.47,10.47,0,0,0-.9-.84,12.54,12.54,0,0,0,4.32-4.55H51.11V88.86H64.55ZM63,80.73v6.85H53.3V80.73Zm-1.33,2.88V81.8H54.58v1.81Zm0,2.88V84.66H54.58v1.83Z"/>
        <path class="cls-1" d="M71.15,82.92c0,.19-.28.31-.57.33a34.9,34.9,0,0,0-.4,5.23c0,.78,0,1.53.09,2.21.25,3.57,1.7,5.73,3.31,5.71.84,0,1.93-2.14,2.69-4.5a6.8,6.8,0,0,0,1.22.91c-1,2.83-2.19,5.14-3.93,5.18-2.67.05-4.51-3.19-4.81-7.22-.06-.8-.08-1.68-.08-2.62A50,50,0,0,1,69,82.5Zm13.92,9.76a10.48,10.48,0,0,0-5.29-7.89l.92-1.14a11.52,11.52,0,0,1,5.92,8.55Z"/>
        <path class="cls-1" d="M103,84.68a26.26,26.26,0,0,1-6.44,1.2A55.3,55.3,0,0,1,92.76,99l-1.52-.57A44.3,44.3,0,0,0,95,85.94c-.42,0-3.23,0-3.86,0l0-1.42c.34,0,.78,0,1.26,0,.19,0,2.29,0,2.83,0,.21-1.35.42-2.82.55-4.1l2.16.21c0,.23-.31.4-.61.42-.12.92-.33,2.06-.52,3.34a24.42,24.42,0,0,0,5.88-1.18Zm5.59,14c-.63,0-1.28,0-1.93,0a21.36,21.36,0,0,1-5-.46,2.92,2.92,0,0,1-2.33-2.9,5.06,5.06,0,0,1,1.3-3l1.26.55a3.88,3.88,0,0,0-1.09,2.33c0,1.66,1.6,2.08,5.42,2.08.77,0,1.57,0,2.35-.09Zm-8.19-10.13a25.21,25.21,0,0,1,7.62-1.07V88.9a23.54,23.54,0,0,0-7.26.95Z"/>
        <path class="cls-1" d="M125.56,84.68a26.43,26.43,0,0,1-6.45,1.2A55.3,55.3,0,0,1,115.27,99l-1.51-.57a45,45,0,0,0,3.8-12.49c-.42,0-3.24,0-3.87,0l0-1.42c.34,0,.78,0,1.26,0,.19,0,2.29,0,2.84,0,.21-1.35.42-2.82.54-4.1l2.16.21c0,.23-.31.4-.6.42-.13.92-.34,2.06-.53,3.34a24.32,24.32,0,0,0,5.88-1.18Zm5.6,13.88c-.82.06-1.7.11-2.56.11a19,19,0,0,1-4.37-.42,2.92,2.92,0,0,1-2.33-2.9,5,5,0,0,1,1.31-3l1.25.55a3.88,3.88,0,0,0-1.09,2.33c0,1.66,1.6,2,5,2,.92,0,1.89,0,2.73-.13Zm-8.21-10a25.3,25.3,0,0,1,7.62-1.07V88.9a23.54,23.54,0,0,0-7.26.95Zm3.7-7.28a15.57,15.57,0,0,1,2.92,2.86l-.78.67A14.56,14.56,0,0,0,126,81.91Zm2.71-1.39a14.45,14.45,0,0,1,2.89,2.84l-.77.67a16.48,16.48,0,0,0-2.82-2.86Z"/>
        <path class="cls-1" d="M138.68,82.92c0,.19-.27.31-.56.33a33.63,33.63,0,0,0-.4,5.23c0,.78,0,1.53.08,2.21.25,3.57,1.7,5.73,3.32,5.71.84,0,1.93-2.14,2.69-4.5a7.1,7.1,0,0,0,1.21.91c-1,2.83-2.18,5.14-3.92,5.18-2.67.05-4.52-3.19-4.81-7.22-.06-.8-.08-1.68-.08-2.62a50,50,0,0,1,.31-5.65Zm13.92,9.76a10.43,10.43,0,0,0-5.29-7.89l.93-1.14a11.55,11.55,0,0,1,5.92,8.55Z"/>
        <path class="cls-1" d="M170.58,84.68a26.43,26.43,0,0,1-6.45,1.2A55.3,55.3,0,0,1,160.29,99l-1.51-.57a45,45,0,0,0,3.8-12.49c-.42,0-3.23,0-3.86,0l0-1.42c.33,0,.77,0,1.26,0,.18,0,2.28,0,2.83,0,.21-1.35.42-2.82.55-4.1l2.16.21c0,.23-.32.4-.61.42-.13.92-.34,2.06-.52,3.34a24.34,24.34,0,0,0,5.87-1.18Zm5.59,14c-.63,0-1.29,0-1.94,0a21.27,21.27,0,0,1-5-.46,2.92,2.92,0,0,1-2.33-2.9,5.06,5.06,0,0,1,1.3-3l1.26.55a3.83,3.83,0,0,0-1.09,2.33c0,1.66,1.59,2.08,5.41,2.08.78,0,1.58,0,2.36-.09ZM168,88.54a25.21,25.21,0,0,1,7.62-1.07V88.9a23.61,23.61,0,0,0-7.27.95Z"/>
        <path class="cls-1" d="M190.51,83.55c0-.46-.08-2.75-.13-3.28l2.17.09c0,.16-.17.37-.55.44,0,.25,0,.5,0,2.71,2.58-.09,5.29-.15,6.87-.17v1.45c-1.79-.05-4.33,0-6.83.08,0,1.64.09,3.15.15,4.3a7.23,7.23,0,0,1,.25,2.21,8.93,8.93,0,0,1-.21,2c-.54,2.45-2.35,4.62-6,6.08a13.37,13.37,0,0,0-1.07-1.19c3.21-1.16,4.93-2.9,5.46-4.89h0a2.62,2.62,0,0,1-2.16,1.11,3.58,3.58,0,0,1-3.53-3.68,3.87,3.87,0,0,1,3.78-3.92,3.11,3.11,0,0,1,2,.65c0-.36,0-1.76-.09-2.67-2.18,0-8.82.28-9.68.32l0-1.39,4.79-.12Zm.4,7.37c0-.82,0-2.73-2.14-2.73a2.53,2.53,0,0,0-2.5,2.66,2.35,2.35,0,0,0,2.33,2.44A2.27,2.27,0,0,0,190.91,90.92Z"/>
        <path class="cls-1" d="M202.65,90.39c.88-.84,3-3.13,4.16-4.32,1.61-1.79,2.41-2.19,3.46-2.19,1.26,0,2.16.8,4,3a100.19,100.19,0,0,0,7.92,8.38l-1.11,1.3a83.65,83.65,0,0,1-7.56-8.11c-1.79-2.18-2.44-3-3.3-3s-1.49.69-2.77,2.14c-.72.82-2.42,2.69-3.32,3.69a.59.59,0,0,1-.23.59Zm13.14-8.27a12.44,12.44,0,0,1,2.88,2.94l-.8.65a12.71,12.71,0,0,0-2.79-2.94Zm2.59-1.89a11.88,11.88,0,0,1,2.83,2.9l-.78.67a12.32,12.32,0,0,0-2.77-2.88Z"/>
        <path class="cls-1" d="M226.13,82.92c1.57-.06,14.51-1,17.24-1l0,1.57c-.28,0-.53,0-.78,0A6,6,0,0,0,239,84.54c-3.15,1.88-6.19,5.26-6.19,8,0,2.94,2,4.69,7.26,5.36l-.69,1.47c-6-.86-8.19-3.09-8.19-6.83,0-3,2.92-6.55,6.76-9-2.23.15-8.5.63-11.21.88a.68.68,0,0,1-.47.34Z"/>
        <path class="cls-1" d="M258.63,83.9a.54.54,0,0,1-.52.34c-.76,6.53-2.94,12.22-6.43,12.22-1.76,0-3.36-1.76-3.36-5.08a9.21,9.21,0,0,1,9.45-9.26c6.07,0,8.69,3.84,8.69,7.94,0,5-2.89,7.41-8,8.58a8.55,8.55,0,0,0-.89-1.28c4.83-.92,7.31-3.27,7.31-7.24,0-3.46-2.22-6.61-7.14-6.61a6.26,6.26,0,0,0-.63,0Zm-2-.27a7.74,7.74,0,0,0-6.87,7.71c0,2.24,1,3.65,2,3.65C254.27,95,256.09,89.38,256.62,83.63Z"/>
        <path class="cls-1" d="M282,84.93a20.42,20.42,0,0,1-4.07.84c0,1.33,0,2.8,0,4a16,16,0,0,1,4.75-1c3.56,0,5.79,1.93,5.79,4.89a4.61,4.61,0,0,1-4.93,4.93,4.89,4.89,0,0,1-4.1-2,11.79,11.79,0,0,0,.76-1.09,4,4,0,0,0,3.36,1.72,3.28,3.28,0,0,0,3.4-3.55c0-2-1.49-3.63-4.31-3.61a15.14,15.14,0,0,0-4.72,1c0,1.55,0,4,0,4.64a3.14,3.14,0,0,1-3.29,3.33,3.26,3.26,0,0,1-3.55-3.23,5.42,5.42,0,0,1,2.62-4,14.8,14.8,0,0,1,2.79-1.51V85.88a49.79,49.79,0,0,1-5,.15l0-1.43c1.85,0,3.53,0,5.06-.13V80.54l2.13.13c0,.25-.24.4-.59.44,0,.82-.07,2.06-.09,3.24a15.89,15.89,0,0,0,3.78-.89Zm-5.45,10.73c0-.54,0-2.27,0-4a14.64,14.64,0,0,0-2.14,1.24,4.18,4.18,0,0,0-1.91,2.88,1.94,1.94,0,0,0,2.14,2,1.9,1.9,0,0,0,1.94-2.1Zm11.86-8.23a17.22,17.22,0,0,0-4.79-3l.74-1.24a19.89,19.89,0,0,1,5,3Z"/>
        <path class="cls-1" d="M307.27,85.33l1.05.63a.43.43,0,0,1-.28.17,15.21,15.21,0,0,1-4.19,4,28,28,0,0,0,8.42,2.39,6.6,6.6,0,0,0-.91,1.32c-1-.16-2-.37-3-.62v6.36h-1.45v-.72H298v.74h-1.37V93.46c-1.11.33-2.24.65-3.33.88a4.89,4.89,0,0,0-.7-1.24,31.92,31.92,0,0,0,8.63-2.94,15.35,15.35,0,0,1-3.09-2.66,18.67,18.67,0,0,1-3.46,2.2,3.93,3.93,0,0,0-1-1,14.82,14.82,0,0,0,6.13-4.91l1.76.29c0,.17-.17.26-.42.28-.25.33-.53.69-.84,1H307ZM295,83.55V86h-1.37V82.22h8V80.06l1.87.13c0,.15-.15.25-.42.27v1.76h8.13V86h-1.43V83.55ZM307.77,93a26,26,0,0,1-5.27-2.1,31.2,31.2,0,0,1-4.66,2.1ZM298,97.62h8.92V94.26H298Zm1.22-11.05-.07.06a12.9,12.9,0,0,0,3.38,2.78A14.71,14.71,0,0,0,306,86.57Z"/>
        <path class="cls-1" d="M319.81,86.07v1.4c.61.8,2.22,3.24,2.6,3.85-.17.23-.34.46-.82,1.05-.33-.7-1.13-2.1-1.78-3.2V99.55h-1.3V89.2a23.37,23.37,0,0,1-2.76,6.29,7.34,7.34,0,0,0-.73-1.21,24.57,24.57,0,0,0,3.32-8.21h-2.9V84.74h3.07V80.06l1.72.13c0,.12-.15.23-.42.27v4.28h2.5v1.33Zm1.66,11.31c1.36-.67,3.4-1.8,5.37-2.89l.34,1.05c-1.72,1.09-3.53,2.18-4.71,2.85a.43.43,0,0,1-.18.38Zm9.15-3.46v0A9.72,9.72,0,0,0,335,97.7a5.28,5.28,0,0,0-.93,1.13,11.44,11.44,0,0,1-4.95-5.25v4.35c0,1.57-.63,1.7-3.51,1.7a5.32,5.32,0,0,0-.42-1.34c1,0,1.91,0,2.21,0s.35-.11.35-.38V90.16h-5.45V88.94h5.45V87.08H323.5V85.9h4.26V84.12h-4.93V82.9h2.65a12.09,12.09,0,0,0-1.12-2.38l1.14-.37a11.06,11.06,0,0,1,1.26,2.54l-.55.21h4.28l-.46-.17a18.22,18.22,0,0,0,1.3-2.67l1.62.55a.5.5,0,0,1-.44.19,21.17,21.17,0,0,1-1.24,2.1h3.07v1.22h-5.21V85.9h4.64v1.18h-4.64v1.86h5.48v1.22h-5.48v.67a12.63,12.63,0,0,0,1.36,2.9,23.66,23.66,0,0,0,2.75-3l1.29.94a.5.5,0,0,1-.45.13,28.78,28.78,0,0,1-2.83,2.61Zm-5.42.46a15.56,15.56,0,0,0-2.18-2.9l1-.63a13.91,13.91,0,0,1,2.22,2.82Z"/>
        <path class="cls-1" d="M342.49,81.64c-.07.23-.28.35-.7.33a50.8,50.8,0,0,0-1.11,9.45,23.18,23.18,0,0,0,.27,4.16c.4-1,1.31-3.23,1.6-4l.88.92c-.86,2.12-1.49,3.32-1.78,4.27a3.37,3.37,0,0,0-.17,1,2.32,2.32,0,0,0,.1.65l-1.49.28a23.15,23.15,0,0,1-.92-7.23,61.5,61.5,0,0,1,1.11-10.22ZM355.86,97c-.75,0-1.53.06-2.31.06a30,30,0,0,1-3.9-.23c-2.59-.38-3.78-1.81-3.78-3.49,0-1.45.8-2.66,2-4l1.37.59a5,5,0,0,0-1.79,3.29c0,2.44,3.57,2.44,5.75,2.44.89,0,1.83,0,2.71-.11Zm-9.72-12.83a70.11,70.11,0,0,0,9.15-.8l.13,1.47a81.11,81.11,0,0,1-9.24.78Z"/>
        <path class="cls-1" d="M379.38,82.56H363.59v4.91c0,3.51-.27,8.59-2.26,12.08a5.16,5.16,0,0,0-1.22-.74c1.93-3.34,2.1-8,2.1-11.36V81.26h17.17Zm.25,12v1.18h-7.39V98.1c0,.75-.16,1.11-.77,1.32a15.43,15.43,0,0,1-3.36.19,5.06,5.06,0,0,0-.49-1.2c.78,0,1.52,0,2,0,1.13,0,1.2,0,1.2-.38V95.79H363.7V94.61h7.16v-1.3l.94.06a18.08,18.08,0,0,0,2.61-1.28h-8.82V91H376l.23-.08,1,.69a.53.53,0,0,1-.34.17,23.11,23.11,0,0,1-4.64,2.39v.4Zm-2.58-4.87h-11V83.9h11Zm-9.64-4.83v1.41h8.26V84.91Zm0,2.38v1.44h8.26V87.29Z"/>
        <path class="cls-1" d="M396,99.42a63.48,63.48,0,0,0-8.23-7.81c-1.05-.84-1.43-1.43-1.43-2.18a2.68,2.68,0,0,1,1.12-1.91c1.91-1.77,5.5-5.17,7.51-7.23l1.79,1.18a.62.62,0,0,1-.46.21,1.17,1.17,0,0,1-.26,0c-2.09,2-5.37,4.87-7.09,6.48-.51.49-.9.91-.9,1.24s.37.78,1.11,1.33a69.84,69.84,0,0,1,8.29,7.62Z"/>
        <path class="cls-1" d="M410.25,80.69c-.06.17-.25.21-.44.19A25.72,25.72,0,0,1,406,85.46a7.11,7.11,0,0,0-.8-1,17.86,17.86,0,0,0,3.49-4.33Zm-2.66,9.58A19.33,19.33,0,0,1,406,92.41a10.93,10.93,0,0,0-.78-1.18,23,23,0,0,0,3.91-6.63l1.64.56c-.07.15-.21.22-.47.22a26.3,26.3,0,0,1-1.34,2.72l.4.13c0,.13-.15.23-.4.25V99.59h-1.32Zm7.77,2.35v3.5c1-.12,2.07-.27,3.12-.41l0,1.21c-3,.46-6.13.93-8,1.18a.37.37,0,0,1-.3.29l-.35-1.59,1.07-.13V90.12l1.53.1c0,.13-.13.24-.38.26v6.06l2-.25V88.52H410.4v-1.3h3.68V84h-1.62a15.39,15.39,0,0,1-1,2.58,8,8,0,0,0-1-.67,22.32,22.32,0,0,0,1.7-5.82l1.6.44c0,.11-.19.21-.44.19-.13.65-.28,1.33-.44,2h5.27V84h-2.75v3.25h3.06v1.3h-3.06v2.86H418v1.24Zm8.92-10.88V94.65c0,1.5-.74,1.62-2.83,1.58A6.17,6.17,0,0,0,421,95l1,0c.84,0,.93,0,.93-.34V83h-2.69V99.61H419V81.74Z"/>
        <path class="cls-1" d="M435.85,84l.95.57a.62.62,0,0,1-.26.21,20.41,20.41,0,0,1-3.12,5c1,.71,3,2.22,3.59,2.66l-.82,1.18c-.59-.61-2-1.83-3.05-2.67v8.61h-1.4v-8a21.18,21.18,0,0,1-3.34,2.69,6.36,6.36,0,0,0-.78-1.26,19.78,19.78,0,0,0,7.2-7.68H428V84.09h3.72v-4l1.82.11c0,.15-.14.25-.42.29v3.61h2.46Zm3.82,12.47c0,1.14.21,1.39,1.24,1.39h3.66c1.07,0,1.21-.86,1.36-4.1a3.58,3.58,0,0,0,1.34.63c-.21,3.59-.6,4.83-2.64,4.83h-3.82c-2,0-2.59-.59-2.59-2.79V80.15c1,.08,1.47.1,1.87.12,0,.15-.14.25-.42.3Z"/>
        <path class="cls-1" d="M460.7,82.9h7.78V94.78H467V93.65H460.7v5.9h-1.47v-5.9h-6v1.26h-1.41v-12h7.42V80.06l1.89.13c0,.15-.15.25-.42.29Zm-1.47,1.36h-6V87.6h6Zm-6,8h6V88.92h-6Zm13.82-8H460.7V87.6H467Zm-6.34,8H467V88.92H460.7Z"/>
        <path class="cls-1" d="M479.66,81c0,.25-.23.39-.65.46-.17,2.43-.38,8-.38,11.1s1.55,4.65,4.2,4.65,5.16-1.29,7.56-4a9.37,9.37,0,0,0,.94,1.24,11.38,11.38,0,0,1-8.52,4.26c-3.82,0-5.78-2.21-5.78-6.18,0-2.64.19-9.15.34-11.73Z"/>
        <path class="cls-1" d="M505.07,97.15h9.53v1.43H495.51V97.15h8.09V80.42l1.91.12c0,.15-.15.26-.44.3v6.21h8.06v1.43h-8.06Z"/>
        <path class="cls-1" d="M522.1,81.78c0,.19-.23.34-.55.38a45.68,45.68,0,0,0-1.09,8.67,20.63,20.63,0,0,0,.23,3.53c.44-.94,1.47-2.94,2.12-4.16l1,1a42.39,42.39,0,0,0-2.31,4.47,2.57,2.57,0,0,0-.17.84,2.66,2.66,0,0,0,.15.84l-1.45.3a20.1,20.1,0,0,1-1-6.76,54.62,54.62,0,0,1,1-9.43Zm3,4.85c1.74,0,4.18,0,5.67-.16-.11-2.42-.27-5.4-.34-5.84l2.17.08c0,.23-.23.42-.57.49,0,1.15.15,3.38.23,5.18a22.32,22.32,0,0,0,4.14-.65l.12,1.49a29,29,0,0,1-4.22.59c0,.46,0,1.11,0,1.83,0,4.43-1.11,7.53-5.08,9.55a6.55,6.55,0,0,0-1.13-1.07c3.8-1.83,4.72-4.51,4.72-8.38,0-.75,0-1.47,0-1.87-1.38.11-3.8.15-5.69.15Zm8.29-5.08a13.34,13.34,0,0,1,2.54,3l-.84.56a13.69,13.69,0,0,0-2.45-3Zm2.12-1.66a14.87,14.87,0,0,1,2.55,3l-.82.58a14.14,14.14,0,0,0-2.48-3Z"/>
        <path class="cls-1" d="M542,83.34c1.3.08,3,.08,4.47.08.95,0,2,0,2.9,0,0-1,0-2.18,0-2.92l2.12.11c0,.25-.21.37-.57.44,0,.33,0,1.95,0,2.31a41.9,41.9,0,0,0,7-.82l.19,1.38a41.57,41.57,0,0,1-7.16.8c0,1.26,0,2.56.08,3.86a34.68,34.68,0,0,0,5.92-.81l.17,1.36a40.34,40.34,0,0,1-6.06.74l.16,3.5a23.34,23.34,0,0,1,6.18,3.28l-.93,1.28a20.6,20.6,0,0,0-5.2-3.09c0,.34,0,.72,0,1,0,2-1.22,3.15-3.76,3.15s-4.62-1.09-4.62-3.07,2.29-3.13,4.64-3.13a9.15,9.15,0,0,1,2.2.26c0-.91-.06-2-.08-3.13-.67,0-1.43,0-2,0-3.59,0-4.6-.57-4.6-1.79,0-.79.61-1.44,2-2.3l1,.65c-1,.52-1.45,1-1.45,1.4,0,.63,1,.76,3.65.76.46,0,.94,0,1.41,0l-.13-3.89c-.9,0-1.95,0-2.9,0-1.34,0-3.25,0-4.51,0Zm7.77,10.94a8.89,8.89,0,0,0-2.35-.34c-1.6,0-3.22.65-3.22,1.91s1.47,1.85,3.3,1.85c1.66,0,2.29-.74,2.29-2.21Z"/>
        <path class="cls-1" d="M573.21,83.55c0-.46-.08-2.75-.12-3.28l2.16.09c0,.16-.17.37-.55.44,0,.25,0,.5,0,2.71,2.58-.09,5.29-.15,6.86-.17v1.45c-1.78-.05-4.32,0-6.82.08,0,1.64.08,3.15.14,4.3a7.21,7.21,0,0,1,.26,2.21,9.53,9.53,0,0,1-.21,2c-.55,2.45-2.36,4.62-6.05,6.08a10.85,10.85,0,0,0-1.07-1.19c3.21-1.16,4.93-2.9,5.46-4.89h0a2.64,2.64,0,0,1-2.17,1.11,3.58,3.58,0,0,1-3.52-3.68,3.86,3.86,0,0,1,3.78-3.92,3.1,3.1,0,0,1,2,.65c0-.36,0-1.76-.09-2.67-2.18,0-8.81.28-9.67.32l-.05-1.39,4.79-.12Zm.4,7.37c0-.82,0-2.73-2.14-2.73a2.53,2.53,0,0,0-2.5,2.66,2.35,2.35,0,0,0,2.33,2.44A2.27,2.27,0,0,0,573.61,90.92Z"/>
        <path class="cls-1" d="M591.21,96.65a2.94,2.94,0,1,1-2.94-2.94A2.94,2.94,0,0,1,591.21,96.65Zm-.75,0a2.18,2.18,0,1,0-2.19,2.16A2.17,2.17,0,0,0,590.46,96.65Z"/>
        <path class="cls-1" d="M6.84,123.63v1.18H0v-1.18Zm-.56,14.72H2v1H.84V132.2H6.28Zm0-11.86v1.15H.86v-1.15Zm-5.44,4v-1.16H6.3v1.16Zm5.38-9.66V122H1v-1.15ZM5.08,133.38H2v3.77H5.08Zm10.33-8c.11,2.69.27,5.25.55,7.37a25.69,25.69,0,0,0,1.78-5.52l1.51.55c-.06.12-.19.19-.42.21a25.44,25.44,0,0,1-2.54,6.74c.4,2,1.05,3.57,1.75,3.57.33,0,.65-1.56.84-3.59a4.37,4.37,0,0,0,.9.67c-.3,2.92-.88,4.26-1.85,4.26-1.2,0-2-1.39-2.56-3.4a16.46,16.46,0,0,1-2.82,3.27,4.7,4.7,0,0,0-.9-.71A16.31,16.31,0,0,0,15,134.57a72.37,72.37,0,0,1-.84-9.24h-5v3.09H12.6l.65,0v.46c-.11,4.73-.19,6.32-.57,6.85-.31.37-.59.54-1.87.54l-1.05,0a2.62,2.62,0,0,0-.33-1.19c.75.06,1.47.06,1.76.06a.4.4,0,0,0,.42-.21c.23-.32.32-1.62.4-5.31H9.13c0,2.58-.17,7-1.84,10a4.36,4.36,0,0,0-1.08-.86c1.47-2.69,1.62-6.38,1.62-9.09V124h6.28c0-1.28-.06-2.6-.11-3.9l1.73.1c0,.15-.15.25-.42.3l.06,3.5h4v1.3Zm1.7-5.08a12.79,12.79,0,0,1,2.29,2.42l-1,.63a14.1,14.1,0,0,0-2.22-2.5Z"/>
        <path class="cls-1" d="M27.32,121.64c-.06.23-.27.35-.69.33a50.08,50.08,0,0,0-1.12,9.45,23.06,23.06,0,0,0,.28,4.16c.4-1,1.3-3.23,1.59-4l.88.93c-.86,2.12-1.49,3.31-1.78,4.26a3.74,3.74,0,0,0-.17,1,2,2,0,0,0,.11.65l-1.49.28a22.84,22.84,0,0,1-.93-7.23,60.56,60.56,0,0,1,1.12-10.22ZM40.69,137c-.75,0-1.53.06-2.31.06a30.07,30.07,0,0,1-3.9-.23c-2.58-.38-3.78-1.81-3.78-3.49,0-1.45.8-2.66,2-4.05l1.37.59a5,5,0,0,0-1.79,3.29c0,2.44,3.57,2.44,5.76,2.44.88,0,1.82,0,2.7-.1ZM31,124.16a70.41,70.41,0,0,0,9.16-.8l.12,1.47a81.13,81.13,0,0,1-9.23.78Z"/>
        <path class="cls-1" d="M58.59,127c-.07.27-.13.55-.21.8,3.69.65,5.06,3,5.06,5.44,0,3.33-2.86,5.35-8.11,5.94a7.18,7.18,0,0,0-.56-1.26c4.34-.42,7.13-1.93,7.13-4.64v-.15c-.1-2.43-1.74-3.63-4-4a16.67,16.67,0,0,1-4.18,6.17,4.47,4.47,0,0,0,.54,1.14l-1.24.77a6.06,6.06,0,0,1-.5-1,6.8,6.8,0,0,1-4,1.58A2.5,2.5,0,0,1,46,134.91c0-2.9,2.39-5.21,5.44-6.43,0-1.09,0-2.29,0-3.52-3.55,0-3.93,0-4.62,0l0-1.38c1.07.06,2.89.06,4.7.06,0-1,.06-2.14.11-3.13l2.1.15a.57.57,0,0,1-.55.42c-.06.78-.11,1.74-.17,2.52a48.34,48.34,0,0,0,8.42-.88l.19,1.42a50.36,50.36,0,0,1-8.67.82c0,1.09-.06,2.14,0,3.13a11,11,0,0,1,3.15-.48c.31,0,.58,0,.86,0,.08-.34.14-.65.21-1Zm-6.45,7.83a24.71,24.71,0,0,1-.61-4.91c-2.29,1-4.07,2.75-4.07,4.79,0,1.24.69,1.65,1.45,1.61A5.68,5.68,0,0,0,52.14,134.8Zm4.31-5.9a9.79,9.79,0,0,0-3.55.51,20.42,20.42,0,0,0,.48,4.32A13.87,13.87,0,0,0,56.45,128.9Z"/>
        <path class="cls-1" d="M72,132.47a14,14,0,0,1-.61-3.95,37.62,37.62,0,0,1,.71-6.92l2.1.35c-.08.28-.33.34-.61.36a30.64,30.64,0,0,0-.71,6.11,8.62,8.62,0,0,0,.06,1.13,36.33,36.33,0,0,1,1.64-3.25,9.24,9.24,0,0,0,.82.92c-1.56,2.8-2,3.59-2,4.48a2,2,0,0,0,.07.52Zm11.25-11.42c0,.25-.19.36-.54.46.14,1.83.35,4.87.35,7.29,0,4-1.49,7.7-7.81,10.33a9.85,9.85,0,0,0-1-1.22c5.73-2.18,7.27-5.65,7.27-9.09,0-2.58-.26-5.63-.49-7.87Z"/>
        <path class="cls-1" d="M98.21,121.09c0,.25-.29.36-.69.38-.23,1.18-.61,3.21-.86,4.47,1-.1,1.81-.19,2.33-.19,3.19,0,4.29,2.08,4.29,5.23a16.32,16.32,0,0,1-.72,4.7c-.65,2.15-2,3.17-3.74,3.17-.86,0-2-.35-3.8-1.82a8.27,8.27,0,0,0,.57-1.28c1.68,1.3,2.56,1.59,3.21,1.59,1.2,0,1.91-.75,2.33-2.1a15.84,15.84,0,0,0,.67-4.3c0-2.4-.79-3.82-2.89-3.8a23.11,23.11,0,0,0-2.56.21A40.19,40.19,0,0,1,92,138.69L90.66,138a34.23,34.23,0,0,0,4.17-10.49c-1.07.12-2.6.31-3.73.5L91,126.55c1-.13,2.75-.31,4.16-.48.31-1.53.65-3.42.9-5.27Zm4.88-.65a15.16,15.16,0,0,1,2.81,2.94l-.82.59a14.13,14.13,0,0,0-2.77-2.92Zm4.7,12.22a13.24,13.24,0,0,0-4.28-7.16l1.21-.82a13.89,13.89,0,0,1,4.58,7.41Zm-1.53-13a13.87,13.87,0,0,1,2.83,2.92l-.82.61a14.23,14.23,0,0,0-2.77-2.94Z"/>
        <path class="cls-1" d="M129,127.54a.44.44,0,0,1-.17,0,.78.78,0,0,1-.44-.13c-6.24,1.83-11.88,4.58-11.86,7.39,0,2,2.22,2.71,5.62,2.71a50.62,50.62,0,0,0,7.44-.48l.12,1.53a68.18,68.18,0,0,1-7.51.38c-4.16,0-7.18-1-7.2-4.05,0-2.25,2.22-4.22,5.52-5.92-.72-1.28-1-3.72-1-8.46l2.31.18c0,.28-.23.44-.65.51,0,3.67.1,6,.69,7.09a61.31,61.31,0,0,1,6.55-2.52Z"/>
        <path class="cls-1" d="M137.76,127.81a47.8,47.8,0,0,1,8.69-1.72c3.15,0,5,1.68,5,4.79V131c0,3.83-3,6.62-9.07,8.23a8.61,8.61,0,0,0-.95-1.28c5.38-1.28,8.42-3.8,8.42-7,0-2-1-3.46-3.46-3.46a28.76,28.76,0,0,0-7.6,1.66c0,.16-.19.37-.4.48Zm2.94-7.26a39.25,39.25,0,0,1,8.44,1.63l-.44,1.47a40.56,40.56,0,0,0-8.36-1.68Z"/>
        <path class="cls-1" d="M174.28,137.47a39.8,39.8,0,0,1-6.45.48,23.33,23.33,0,0,1-4.05-.27c-2.54-.57-3.64-2.16-3.64-4a6.67,6.67,0,0,1,2.15-4.47l1.21.63a5.69,5.69,0,0,0-1.84,3.71c0,1.24.82,2.33,2.62,2.75a18.66,18.66,0,0,0,3.36.23,35.85,35.85,0,0,0,6.53-.56Zm-9.43-10.58a24.91,24.91,0,0,1,3.71-2.44v0c-1.59.19-5.24.25-7.58.25,0-.4,0-1.09,0-1.47h1.14c2.69,0,8.19,0,10.83-.67l.17,1.53a8.27,8.27,0,0,0-2.21.63,22.81,22.81,0,0,0-4.85,2.94Zm9.4,3a13.6,13.6,0,0,0-2.81-2.86l.69-.65A15.22,15.22,0,0,1,175,129.2Zm2.21-2a15,15,0,0,0-2.81-2.83l.69-.67a15.2,15.2,0,0,1,2.87,2.85Z"/>
        <path class="cls-1" d="M198.26,125a40.52,40.52,0,0,1-6.95,1.13c.8,2.82,1.7,4.58,3.9,5.55l-1,1.28a7.43,7.43,0,0,0-4.68-1.45l-.25-1.24a21.31,21.31,0,0,1,2.33.31,12.73,12.73,0,0,1-1.83-4.32c-.94.06-2.22.12-3.48.12s-3.59,0-4.94-.06v-1.43c1.26,0,3,.07,5,.07,1.07,0,2.29,0,3.13-.11-.25-1.15-.48-2.66-.72-4.28l2.25,0c0,.25-.21.4-.55.48a36.66,36.66,0,0,0,.55,3.66,33.87,33.87,0,0,0,7-1.22ZM194.6,138.9c-1,0-2.07,0-3.9,0-4.39,0-7.5-1.35-7.5-4.14a5.18,5.18,0,0,1,1.89-3.52l1.14.88a3.7,3.7,0,0,0-1.52,2.58c0,2.08,2.69,2.75,6,2.75,1.83,0,2.9,0,4-.08Zm-.48-19a15.1,15.1,0,0,1,2.46,2.83l-.84.59a17.26,17.26,0,0,0-2.37-2.84Zm2.92-.55a14.91,14.91,0,0,1,2.48,2.88l-.82.61a14.62,14.62,0,0,0-2.4-2.88Z"/>
        <path class="cls-1" d="M206.22,122.92c0,.19-.27.31-.57.33a34.9,34.9,0,0,0-.4,5.23c0,.78,0,1.54.09,2.21.25,3.57,1.7,5.73,3.31,5.71.84,0,1.94-2.14,2.69-4.5a7.17,7.17,0,0,0,1.22.91c-1,2.83-2.18,5.14-3.93,5.18-2.66,0-4.51-3.19-4.8-7.22-.07-.8-.09-1.68-.09-2.62a50,50,0,0,1,.32-5.65Zm13.92,9.76a10.48,10.48,0,0,0-5.29-7.89l.92-1.14a11.52,11.52,0,0,1,5.92,8.55Z"/>
        <path class="cls-1" d="M226.84,123.34c1.3.08,3,.08,4.47.08.95,0,2,0,2.9,0,0-1,0-2.18,0-2.92l2.12.11c0,.25-.21.38-.57.44,0,.33,0,1.95,0,2.31a41.77,41.77,0,0,0,7-.82l.19,1.38a41.57,41.57,0,0,1-7.16.8c0,1.26,0,2.56.09,3.86a34.82,34.82,0,0,0,5.92-.81l.17,1.36a40.48,40.48,0,0,1-6.07.74l.17,3.5a23.29,23.29,0,0,1,6.17,3.28l-.93,1.28a20.43,20.43,0,0,0-5.2-3.09c0,.34,0,.72,0,1,0,2-1.22,3.15-3.76,3.15s-4.62-1.09-4.62-3.07,2.29-3.13,4.64-3.13a9.28,9.28,0,0,1,2.21.26c0-.91-.07-2-.09-3.13-.67,0-1.43,0-2,0-3.6,0-4.6-.57-4.6-1.79,0-.79.61-1.44,1.95-2.3l1,.65c-1,.52-1.45,1-1.45,1.4,0,.63,1,.76,3.65.76.46,0,.95,0,1.41,0l-.13-3.89c-.9,0-1.95,0-2.89,0-1.35,0-3.26,0-4.52,0Zm7.77,10.94a8.89,8.89,0,0,0-2.35-.34c-1.6,0-3.21.65-3.21,1.91s1.47,1.85,3.29,1.85c1.66,0,2.29-.74,2.29-2.2Z"/>
        <path class="cls-1" d="M254.54,121c0,.25-.23.4-.65.46-.17,2.43-.38,8-.38,11.11s1.55,4.64,4.2,4.64,5.17-1.28,7.56-4a9.37,9.37,0,0,0,.94,1.24,11.37,11.37,0,0,1-8.52,4.26c-3.82,0-5.78-2.21-5.78-6.17,0-2.65.19-9.16.34-11.74Z"/>
        <path class="cls-1" d="M283.14,124.68a26.34,26.34,0,0,1-6.45,1.2A55.3,55.3,0,0,1,272.85,139l-1.51-.57a45,45,0,0,0,3.8-12.49c-.42,0-3.23,0-3.86,0l0-1.42c.33,0,.77,0,1.26,0,.19,0,2.28,0,2.83,0,.21-1.35.42-2.82.55-4.1l2.16.21c0,.23-.32.4-.61.42-.13.92-.34,2.06-.52,3.34a24.34,24.34,0,0,0,5.87-1.18Zm5.58,14c-.62,0-1.28,0-1.93,0a21.27,21.27,0,0,1-5-.46,2.92,2.92,0,0,1-2.33-2.9,5.09,5.09,0,0,1,1.3-3l1.26.55a3.83,3.83,0,0,0-1.09,2.33c0,1.66,1.59,2.08,5.41,2.08.78,0,1.58,0,2.35-.09Zm-8.18-10.13a25.21,25.21,0,0,1,7.62-1.07v1.43a24,24,0,0,0-7.27.95Z"/>
        <path class="cls-1" d="M298.55,136.65a2.94,2.94,0,1,1-2.93-2.94A2.94,2.94,0,0,1,298.55,136.65Zm-.75,0a2.18,2.18,0,1,0-2.18,2.16A2.17,2.17,0,0,0,297.8,136.65Z"/>
      </g>
    </g>
  </g>
</svg>
