<svg xmlns="http://www.w3.org/2000/svg" width="565.49" height="99.65" viewBox="0 0 565.49 99.65">
  <defs>
    <style>
      .cls-1 {
        fill: #fff;
      }
    </style>
  </defs>
  <g id="レイヤー_2" data-name="レイヤー 2">
    <g id="レイヤー_2-2" data-name="レイヤー 2">
      <g>
        <path class="cls-1" d="M15.64,1.53l.67.7L8.86,9.72l7.45,7.45-.67.7L8.19,10.48.76,17.87l-.7-.7L7.52,9.72.06,2.23l.7-.7L8.19,9ZM3.78,9.7a1.6,1.6,0,0,1-1.6,1.62A1.63,1.63,0,0,1,.57,9.7a1.61,1.61,0,0,1,3.21,0Zm6,6.13a1.63,1.63,0,0,1-1.59,1.62A1.62,1.62,0,0,1,8,14.21H8.1s0,0,.05,0l0,0A1.6,1.6,0,0,1,9.78,15.83Zm0-12.2A1.59,1.59,0,0,1,8.21,5.25,1.64,1.64,0,0,1,6.59,3.63,1.61,1.61,0,0,1,8.21,2,1.59,1.59,0,0,1,9.8,3.63Zm6,6.09a1.6,1.6,0,1,1-1.6-1.59A1.6,1.6,0,0,1,15.79,9.72Z"/>
        <path class="cls-1" d="M36.83,4.47c.53-.69.67-.9,1.2-1.55a17.37,17.37,0,0,1,2.1,1.68.46.46,0,0,1,.12.21c0,.08-.1.15-.23.15H31.5A11.51,11.51,0,0,0,34,8.82a22.93,22.93,0,0,0,4.36,4.07,15.12,15.12,0,0,0,2.52,1.3v.28a2.19,2.19,0,0,0-1.76,1.24A21,21,0,0,1,34.38,11a23.57,23.57,0,0,1-3.09-5.44l0,4.73v3.84h2.06c.48-.65.65-.84,1.13-1.41a15,15,0,0,1,1.91,1.6.32.32,0,0,1,.06.17c0,.06-.08.12-.18.12h-5v.3c.06,3,.06,3.14.08,4.19,0,.15-.06.19-.16.21a8.38,8.38,0,0,1-1.05.07c-.21,0-.3-.07-.3-.28l0-1.15c0-.86,0-1.45,0-1.66,0-.8,0-1.36,0-1.43v-.25H26.79a5.59,5.59,0,0,0-1.57.13l-.1-.78a8,8,0,0,0,1.67.17H30V10.27l0-3.74a12.3,12.3,0,0,1-1.83,3,31.14,31.14,0,0,1-4.79,4.87A12.36,12.36,0,0,1,20.81,16l-.12-.23a26.65,26.65,0,0,0,5.9-6.11A23.06,23.06,0,0,0,29.34,5H22.81a7.51,7.51,0,0,0-1.37.12l-.1-.82a7.07,7.07,0,0,0,1.42.21H29.9V2A18.46,18.46,0,0,0,29.82.1c.48.07.86.13,1.11.15,1,.15,1.24.23,1.24.44s-.1.28-.88.53V4.47Z"/>
        <path class="cls-1" d="M58.48,11.59c1.39.65,1.81.9,1.81,1.09s-.3.27-1,.3A15.09,15.09,0,0,1,56,14.55,13.77,13.77,0,0,0,58.5,16,10.73,10.73,0,0,0,63,17l0,.25c-.88.21-1.2.55-1.56,1.55A12.77,12.77,0,0,1,57.58,17a10.67,10.67,0,0,1-4.49-5.44H51v5.16a37.7,37.7,0,0,0,4.66-.58l0,.27a57,57,0,0,1-8.19,2.14c-.1.53-.21.74-.38.74s-.27-.19-.77-2.29l.54,0c.34,0,1.74-.11,2.67-.19V11.59H46.66a20.44,20.44,0,0,1-.92,3.72A10.08,10.08,0,0,1,43.51,19l-.21-.19a11.85,11.85,0,0,0,1.45-3.8c.61-2.77.74-5.18.74-13.27,0-.65,0-1-.07-1.76a21,21,0,0,1,1.83,1.09H59.13c.32-.4.42-.52.76-.92a13,13,0,0,1,1.34.9c.13.13.17.19.17.27s-.15.3-.73.7c0,1.26,0,1.26.06,3.13a.34.34,0,0,1-.21.25,3.81,3.81,0,0,1-.92.12c-.24,0-.32-.08-.34-.29V4.75H47l0,1.63a33.47,33.47,0,0,1-.3,4.73h3.93V8H49.43a14.89,14.89,0,0,0-1.93.11l-.1-.78a8.92,8.92,0,0,0,2,.19h1.22V6.78a8.93,8.93,0,0,0-.1-1.53c1.89.17,2.2.23,2.2.46s-.06.17-.69.42V7.56h3.25V6.63a10.56,10.56,0,0,0-.08-1.42c1.91.21,2.16.27,2.16.48s-.13.23-.67.42V7.56h1.57c.42-.57.55-.74,1-1.28.86.59,1.13.8,2,1.47a.31.31,0,0,1,.09.17c0,.08-.09.12-.23.12H56.72v3.07h2.43c.42-.61.57-.8,1.05-1.41.91.63,1.18.84,2.12,1.55.07.09.11.15.11.19s-.11.15-.21.15Zm.78-10H47.08c0,.58,0,.58,0,2.66H59.26Zm-7.2,9.51h3.25V8H52.06Zm1.55.48a5.71,5.71,0,0,0,2.06,2.71,8.72,8.72,0,0,0,2.81-2.71Z"/>
        <path class="cls-1" d="M71.92,10c-.37,1.33-1,3.61-1.21,4.64a7.31,7.31,0,0,0-.28,1.79c0,.67,0,.75-.14.92a.47.47,0,0,1-.4.23c-.36,0-.65-.29-.91-.94a12.45,12.45,0,0,1-.67-4.22,30.65,30.65,0,0,1,1-7,9.38,9.38,0,0,0,.31-1.89A3.27,3.27,0,0,0,69,1.66c.49,0,.89.29,1.47,1.05a3,3,0,0,1,.76,1.59c0,.24,0,.24-.34.93a16.53,16.53,0,0,0-1.59,6.84,8.44,8.44,0,0,0,.33,2.61l.89-2.1,1.13-2.71ZM74,6.17A4.38,4.38,0,0,0,76.73,7a11.19,11.19,0,0,0,2.4-.29V5.82c0-2.36,0-2.63-.3-2.92a2.07,2.07,0,0,0-1.38-.48,1.13,1.13,0,0,1,1-.34,5.88,5.88,0,0,1,1.43.19c.61.19.93.44.93.75,0,.15,0,.17-.19.65a9.4,9.4,0,0,0-.44,2.82,5.34,5.34,0,0,0,1.93-.86c.21-.21.27-.23.46-.23a2.49,2.49,0,0,1,1,.27.45.45,0,0,1,.27.38c0,.46-1.53,1.09-3.72,1.51a41.17,41.17,0,0,0,.28,5.71c2.43.65,3.46,1.47,3.46,2.69,0,.44-.19.77-.42.77s-.31-.1-.73-.52a6.49,6.49,0,0,0-2.27-1.68,4.62,4.62,0,0,1,0,.5c0,1.51-1.26,2.42-3.36,2.42-1.83,0-3.11-.88-3.11-2.14,0-1.45,1.56-2.38,4-2.38.4,0,.69,0,1.28.07v-.36l0-2.25,0-2.68a9.78,9.78,0,0,1-1.85.16A4.17,4.17,0,0,1,73.83,6.4Zm3.22,7.67c-1.66,0-2.69.54-2.69,1.47,0,.73.82,1.23,2.06,1.23a2.42,2.42,0,0,0,2.31-1,2.64,2.64,0,0,0,.27-1.47A6.74,6.74,0,0,0,77.24,13.84Z"/>
        <path class="cls-1" d="M90.83,17a8.69,8.69,0,0,1,1.55-4.1c.82-1.17,1.7-2,4.39-4.2a6.45,6.45,0,0,0,1.59-1.63,3.44,3.44,0,0,0,.46-1.77,2.76,2.76,0,0,0-2.85-3A2.44,2.44,0,0,0,93.47,4a5.37,5.37,0,0,0-.21,1.53c0,.72-.27.9-1,.9s-1.07-.25-1.07-.86c0-2.16,2.1-3.78,4.92-3.78a5,5,0,0,1,4,1.58,3.4,3.4,0,0,1,.67,2.22c0,1.75-.78,2.82-3.11,4.25a18.94,18.94,0,0,0-4.11,2.94,5.93,5.93,0,0,0-1.73,2.66h6.07c1.51,0,2-.46,2.46-2.22l.63.14L100.44,17Z"/>
        <path class="cls-1" d="M105.74,4.12a4.69,4.69,0,0,1,8.12,0,11.53,11.53,0,0,1,1.2,5.43,11.65,11.65,0,0,1-1.2,5.44,4.7,4.7,0,0,1-8.12,0,11.71,11.71,0,0,1-1.2-5.44A11.64,11.64,0,0,1,105.74,4.12Zm4.07,12.66c2.24,0,3.23-2.21,3.23-7.23s-1-7.22-3.23-7.22-3.23,2.23-3.23,7.24S107.56,16.78,109.81,16.78Z"/>
        <path class="cls-1" d="M118.54,17a8.81,8.81,0,0,1,1.56-4.1c.82-1.17,1.7-2,4.39-4.2a6.45,6.45,0,0,0,1.59-1.63,3.44,3.44,0,0,0,.46-1.77,2.76,2.76,0,0,0-2.85-3A2.44,2.44,0,0,0,121.19,4,5.37,5.37,0,0,0,121,5.52c0,.72-.27.9-1,.9s-1.07-.25-1.07-.86c0-2.16,2.1-3.78,4.92-3.78a5,5,0,0,1,4,1.58,3.4,3.4,0,0,1,.67,2.22c0,1.75-.78,2.82-3.11,4.25a18.94,18.94,0,0,0-4.11,2.94,5.93,5.93,0,0,0-1.73,2.66h6.07c1.51,0,2-.46,2.46-2.22l.63.14L128.16,17Z"/>
        <path class="cls-1" d="M132.41,17a8.69,8.69,0,0,1,1.55-4.1c.82-1.17,1.7-2,4.39-4.2a6.45,6.45,0,0,0,1.59-1.63,3.45,3.45,0,0,0,.47-1.77,2.77,2.77,0,0,0-2.86-3A2.44,2.44,0,0,0,135.05,4a5.77,5.77,0,0,0-.21,1.53c0,.72-.27.9-1,.9s-1.07-.25-1.07-.86c0-2.16,2.1-3.78,4.92-3.78a5,5,0,0,1,4,1.58,3.4,3.4,0,0,1,.67,2.22c0,1.75-.78,2.82-3.11,4.25a18.94,18.94,0,0,0-4.11,2.94,5.93,5.93,0,0,0-1.73,2.66h6.07c1.51,0,2-.46,2.46-2.22l.63.14L142,17Z"/>
        <path class="cls-1" d="M159.39,7.66h3.15l1.26-1.34c.77.63,1,.82,1.78,1.49a.28.28,0,0,1,.11.17c0,.08-.13.17-.25.17h-6.05v4.72h4.41c.57-.65.75-.84,1.34-1.47.88.67,1.16.88,2,1.58.09.08.13.14.13.19a.21.21,0,0,1-.23.18h-7.6V16c0,.61,0,.69.08,2.92,0,.33-.25.42-1.07.42-.46,0-.59-.07-.61-.34,0-.73.11-2.33.11-3V13.35h-7.69c-.56,0-1.49.05-2,.09l-.13-.74a12.64,12.64,0,0,0,2.12.17H152v-4A19.75,19.75,0,0,0,152,6.66a17,17,0,0,1,1.86,1h4.08V3.8h-4.79a20.09,20.09,0,0,1-4.28,4.68l-.21-.23a15.14,15.14,0,0,0,1.89-2.46A22.06,22.06,0,0,0,153.32,0c2.33.76,2.46.82,2.46,1a.3.3,0,0,1-.15.23,4,4,0,0,1-.94.19l-1.26,1.89h9.82c.55-.63.72-.82,1.26-1.41.84.65,1.09.84,2,1.55a.31.31,0,0,1,.11.17c0,.11-.11.17-.23.17h-7Zm-5.86.49v4.72h4.37V8.15Z"/>
        <path class="cls-1" d="M178.58,9.2a6,6,0,0,1,2.36.58A3.55,3.55,0,0,1,182.83,13c0,2.58-2.08,4.3-5.21,4.3-2.73,0-4.77-1.3-4.77-3,0-.67.38-1,1.2-1,.61,0,.84.21.88.8a2.68,2.68,0,0,0,.53,1.89,2.63,2.63,0,0,0,2.07.78c2.08,0,3.3-1.39,3.3-3.76a3.24,3.24,0,0,0-1.41-3,5.58,5.58,0,0,0-2.43-.5h-.93V8.8H177a4.29,4.29,0,0,0,2.29-.63,3.09,3.09,0,0,0,1.19-2.67A4,4,0,0,0,180,3.4a2.33,2.33,0,0,0-2.18-1c-1.58,0-2.38.82-2.48,2.5,0,.8-.23,1-1,1s-1.11-.23-1.11-.8c0-1.78,2.08-3.28,4.58-3.28,2.66,0,4.62,1.56,4.62,3.68a3.32,3.32,0,0,1-1.73,2.85,6.77,6.77,0,0,1-2.1.7Z"/>
        <path class="cls-1" d="M194.1,11.49a12.74,12.74,0,0,1-1.32,4.26,10.75,10.75,0,0,1-2.94,3.52l-.19-.19a12.94,12.94,0,0,0,2.73-5.56,36,36,0,0,0,.5-7.28c0-2.88,0-4.73-.12-5.92.84.48,1.11.62,1.93,1.15h7.83c.27-.34.55-.67.8-.95.61.4.78.53,1.37,1,.27.21.31.25.31.31s-.06.15-.82.61V11c0,3.28,0,3.28,0,6.24,0,1.07-.38,1.34-2.43,1.84a1.17,1.17,0,0,0-.86-1.07,14.23,14.23,0,0,0-2.73-.52v-.34c1.7.09,1.86.09,4.09.15h.06l.09,0,.19-.08s.06-.07.06-.21V11.49Zm8.57-4.79h-8.29a36.55,36.55,0,0,1-.19,4.3h8.48Zm0-4.75h-8.23c0,.34,0,1.77,0,4.26h8.27Z"/>
        <path class="cls-1" d="M213.3,17a8.69,8.69,0,0,1,1.55-4.1c.82-1.17,1.7-2,4.39-4.2a6.72,6.72,0,0,0,1.6-1.63,3.54,3.54,0,0,0,.46-1.77,2.77,2.77,0,0,0-2.86-3A2.44,2.44,0,0,0,215.94,4a6.22,6.22,0,0,0-.21,1.53c0,.72-.27.9-1,.9s-1.08-.25-1.08-.86c0-2.16,2.1-3.78,4.92-3.78a5,5,0,0,1,4,1.58,3.4,3.4,0,0,1,.67,2.22c0,1.75-.78,2.82-3.11,4.25a18.94,18.94,0,0,0-4.11,2.94,5.91,5.91,0,0,0-1.72,2.66h6.06c1.52,0,2-.46,2.46-2.22l.63.14L222.91,17Z"/>
        <path class="cls-1" d="M228.21,4.12a4.69,4.69,0,0,1,8.12,0,11.53,11.53,0,0,1,1.2,5.43,11.65,11.65,0,0,1-1.2,5.44,4.45,4.45,0,0,1-4.05,2.33A4.49,4.49,0,0,1,228.21,15,11.71,11.71,0,0,1,227,9.55,11.64,11.64,0,0,1,228.21,4.12Zm4.07,12.66c2.25,0,3.23-2.21,3.23-7.23s-1-7.22-3.23-7.22-3.23,2.23-3.23,7.24S230,16.78,232.28,16.78Z"/>
        <path class="cls-1" d="M246.52,4.41c0-1.55,0-2.08-.06-3.47.73.42,1,.57,1.68,1.06h8.79l.86-.95c.59.4.78.53,1.35,1,.17.12.23.2.23.27s-.19.29-.71.59l0,6.65q0,2.43.15,8.69v.07a.24.24,0,0,1-.17.23,4.61,4.61,0,0,1-1.13.14c-.29,0-.36,0-.36-.14V17H248v1.43a.22.22,0,0,1-.06.18,3.05,3.05,0,0,1-1.26.19c-.23,0-.3-.06-.32-.27.09-1.89.09-2.18.11-6.65Zm10.6-1.93H248V9.07h9.11ZM248,9.55v7h9.11v-7Z"/>
        <path class="cls-1" d="M267.79,3.86a3.46,3.46,0,0,0,2.63,1,10.94,10.94,0,0,0,2.24-.27,5.6,5.6,0,0,0,.74-2.14c0-.57-.4-.91-1.49-1.18a1.64,1.64,0,0,1,.94-.23,4.42,4.42,0,0,1,1.64.36c.53.21.76.44.76.69s-.09.29-.34.61-.44.63-.61.86c-.38.61-.38.61-.52.82a6.93,6.93,0,0,0,3-1.35.61.61,0,0,1,.4-.14c.82,0,1.41.29,1.41.69s-.28.46-.91.67a34.13,34.13,0,0,1-4.57,1.2c-.38.52-.63.9-1.12,1.64s-.73,1.11-1.13,1.67a5.73,5.73,0,0,1,2.71-.83A2.32,2.32,0,0,1,275.94,10c.36-.16.36-.16,2.06-1,2.08-1,2.58-1.39,2.58-1.77s-.36-.73-1-1a1,1,0,0,1,.49-.13,3,3,0,0,1,2.37,2.12c0,.38-.17.52-.76.65A34.18,34.18,0,0,0,276.09,11c0,.68,0,.8,0,1.71a5.94,5.94,0,0,1-.17,1.8.68.68,0,0,1-.59.4.63.63,0,0,1-.67-.63,2.43,2.43,0,0,1,0-.36,18.38,18.38,0,0,0,.15-2.24,10.92,10.92,0,0,0-2.46,1.65,2.85,2.85,0,0,0-1,2c0,1.13,1.16,1.68,3.51,1.68a15.1,15.1,0,0,0,4.22-.59,1.62,1.62,0,0,1,.4-.06c.65,0,1.47.58,1.47,1.05,0,.27-.23.48-.65.56a23.07,23.07,0,0,1-3.76.3,10.8,10.8,0,0,1-4.26-.61,2.3,2.3,0,0,1-1.56-2.23,4,4,0,0,1,1.51-2.87,15,15,0,0,1,2.61-1.87,3.52,3.52,0,0,0-.3-1.66,1.17,1.17,0,0,0-1.07-.63c-1.38,0-3,1.11-4.55,3-.4.55-.57.67-.78.67s-.57-.44-.57-1.11c0-.44,0-.46.61-.94a17,17,0,0,0,3.91-4.52,7.66,7.66,0,0,1-1.41.13,3.4,3.4,0,0,1-3.13-1.62Z"/>
        <path class="cls-1" d="M293.12,4.79l1-1.2c.6.57.79.76,1.36,1.37a.39.39,0,0,1,.08.16c0,.09-.12.15-.25.15h-2.92V9.66c1.41-.46,1.49-.49,2.29-.78l.15.23a18.31,18.31,0,0,1-2.44,1.54v3.4c0,2.64,0,2.64,0,3.59,0,.63-.12.92-.46,1.17a4.09,4.09,0,0,1-1.53.55c-.06-.59-.15-.76-.5-.93a7.72,7.72,0,0,0-1.85-.5v-.31c1.36.06,1.66.06,2.62.08h.09c.12,0,.19-.06.19-.23V11.3l-1.79.81c-.06.64-.17.87-.38.87s-.14-.07-.21-.23-.23-.68-.65-1.92a19.74,19.74,0,0,0,3-.71V5.27h-1.47a5.75,5.75,0,0,0-1.31.13L288,4.6a4.88,4.88,0,0,0,1.49.19H291V2.35A14.93,14.93,0,0,0,290.83,0c2.22.3,2.33.32,2.33.55s-.13.25-.78.46V4.79Zm10.71,5.86h.31c.53-.64.69-.82,1.24-1.39a23.14,23.14,0,0,1,1.83,1.53.35.35,0,0,1,.1.19c0,.09-.1.15-.23.15h-3.25V14.3c0,.9,0,1.59,0,2.08s0,.65,0,1.24c0,1-.25,1.21-2.4,1.72-.23-1-.5-1.09-3.23-1.54l0-.31c1.26.1,1.89.15,2.88.15.19,0,.54,0,1,0s.36-.07.36-.32V11.13h-6.34a12.37,12.37,0,0,0-1.76.12l-.17-.77a12.8,12.8,0,0,0,1.93.17h6.34V7.83h-6.34a14.21,14.21,0,0,0-1.76.11l-.15-.78a8.58,8.58,0,0,0,1.91.19h3.34V3.93h-2.1a10.54,10.54,0,0,0-1.81.14l-.16-.79a11.55,11.55,0,0,0,2,.16h2.1V1.72c0-.88,0-1,0-1.72,1.84.21,2.35.34,2.35.52s-.21.3-.95.47V3.44h2.54c.49-.65.66-.84,1.18-1.44.82.69,1.07.9,1.89,1.61a.42.42,0,0,1,.08.17c0,.06-.1.15-.21.15h-5.48V7.35h3.28c.46-.63.61-.82,1.11-1.41.78.67,1,.88,1.75,1.6a.37.37,0,0,1,.08.17c0,.08-.11.12-.27.12h-2.94ZM296,11.82a12,12,0,0,1,2.62,1.55,1.45,1.45,0,0,1,.65,1c0,.74-.44,1.66-.8,1.66-.18,0-.23-.06-.54-.82a10.08,10.08,0,0,0-2.1-3.17Z"/>
        <path class="cls-1" d="M312.42,4.54a3.18,3.18,0,0,0,2.81,1.15,8.66,8.66,0,0,0,1.49-.13c.07-.31.07-.31.32-1.51a15.9,15.9,0,0,0,.27-1.74c0-.67-.48-1-1.58-1.09a1.38,1.38,0,0,1,1.06-.4,4.94,4.94,0,0,1,2,.46c.4.19.63.46.63.74s0,.27-.32.63a12,12,0,0,0-1.28,2.79,8.3,8.3,0,0,0,3.72-1.39c.17-.17.23-.19.4-.19a3.68,3.68,0,0,1,1,.19c.32.13.47.28.47.49s-.34.6-1.18.92a18.64,18.64,0,0,1-4.7,1.07,27.56,27.56,0,0,0-.91,5.77,14.59,14.59,0,0,1,6.32-1.91c2.38,0,3.95,1.22,3.95,3,0,1.68-1.2,3.08-3.36,4a15.88,15.88,0,0,1-6.13,1l0-.29a21.77,21.77,0,0,0,3.28-.67c3-.91,4.59-2.44,4.59-4.37,0-1.28-.84-2-2.31-2a8.08,8.08,0,0,0-4.66,1.81A4.19,4.19,0,0,0,317,14.13a.56.56,0,0,1-.47.27c-.54,0-1.24-.92-1.24-1.63,0-.36.7-4.06,1.18-6.22a8.25,8.25,0,0,1-.88.06,3.52,3.52,0,0,1-3.49-1.91Z"/>
        <path class="cls-1" d="M335.89,4.24a4.31,4.31,0,0,0,3.39,1.14,19.16,19.16,0,0,0,3-.26c-.09-3.21-.23-3.5-1.83-3.73.3-.3.46-.34,1.05-.34a6.07,6.07,0,0,1,1.76.27c.51.17.72.38.72.7,0,.12,0,.12-.27.71A6.65,6.65,0,0,0,343.33,5a10.69,10.69,0,0,0,3.9-1.24.54.54,0,0,1,.25-.09,2.64,2.64,0,0,1,1.1.36.62.62,0,0,1,.35.5c0,.3-.33.47-1.63.78a33.64,33.64,0,0,1-4,.73c0,.55,0,.87,0,1.35s0,1,0,1.91a18.24,18.24,0,0,0,2.39-.57,3.43,3.43,0,0,0,1.05-.52.46.46,0,0,1,.31-.09,2.46,2.46,0,0,1,1.08.32.44.44,0,0,1,.25.4c0,.37-.3.54-1.62.9a22.37,22.37,0,0,1-3.42.61c0,.82,0,1.15.06,1.89s.06,1.11.13,1.64a10.88,10.88,0,0,1,4.62,1.8,1.81,1.81,0,0,1,.6,1.39c0,.44-.18.73-.46.73s-.29-.06-.84-.59a12.19,12.19,0,0,0-1.76-1.3,7.58,7.58,0,0,0-2.1-.88c0,.46.06.67.06.93a2.11,2.11,0,0,1-.71,1.76,4.74,4.74,0,0,1-2.81.78c-2.1,0-3.55-.93-3.55-2.25,0-1.49,1.95-2.54,4.74-2.54.34,0,.55,0,1.05,0,0-1,0-1.16,0-1.45V10.41c-.84.05-1.24.07-1.55.07A5.7,5.7,0,0,1,338,10a1.82,1.82,0,0,1-.94-1.59c0-.15,0-.36,0-.59l.32,0c0,.65.12,1,.44,1.2a4.45,4.45,0,0,0,2.45.46,16.33,16.33,0,0,0,2-.15V7.89l0-1.53V6.11c-1.16.1-2,.15-2.71.15-2,0-2.86-.4-3.9-1.81Zm4.67,10.33a6.58,6.58,0,0,0-2.29.4q-1.14.43-1.14,1.26c0,.76.86,1.2,2.29,1.2a3.52,3.52,0,0,0,2.4-.76,1.65,1.65,0,0,0,.46-1.09c0-.15,0-.63,0-.8v-.06A11.75,11.75,0,0,0,340.56,14.57Z"/>
        <path class="cls-1" d="M372.18,13.92c-2,2.73-4.76,4.35-7.37,4.35a3.8,3.8,0,0,1-3.48-1.79,7.16,7.16,0,0,1-.59-3.55c0-1.15.06-3.15.17-5.06.12-2.26.14-2.85.14-3.61,0-1.8-.21-2.16-1.7-2.79a.84.84,0,0,1,.59-.21,5.3,5.3,0,0,1,1.89.48c.8.38,1.22.8,1.22,1.24a2.19,2.19,0,0,1-.19.76,64.69,64.69,0,0,0-1.09,10.08,3,3,0,0,0,.84,2.51,3.06,3.06,0,0,0,1.87.57,10.87,10.87,0,0,0,4.78-1.34,13.24,13.24,0,0,0,2.67-1.87Z"/>
        <path class="cls-1" d="M380,5.08a1.22,1.22,0,0,0,.95.36c.59,0,1.11-.11,5.82-1.24.88-.21,2-.46,3.4-.74A21.4,21.4,0,0,0,393,2.79a2.94,2.94,0,0,1,.74-.17,2.73,2.73,0,0,1,1.13.45c.42.27.61.5.61.79s-.25.53-.65.53a2.83,2.83,0,0,1-.38,0,3.24,3.24,0,0,0-.59,0,7.43,7.43,0,0,0-7.05,6.94,4.25,4.25,0,0,0,2.77,4.14,6.64,6.64,0,0,0,2.14.51,1.06,1.06,0,0,1,.88.33,1.84,1.84,0,0,1,.63,1c0,.36-.31.59-.77.59a8.71,8.71,0,0,1-4.27-1.52,5.55,5.55,0,0,1-2.43-4.7A7.81,7.81,0,0,1,388,6.51a10.67,10.67,0,0,1,3.42-2.39,34.29,34.29,0,0,0-6,1.44,23.06,23.06,0,0,0-3.36,1.35,1.37,1.37,0,0,1-.84.29A2.3,2.3,0,0,1,379.6,6a3,3,0,0,1-.55-1.4.82.82,0,0,1,.23-.55A2.37,2.37,0,0,0,380,5.08Z"/>
        <path class="cls-1" d="M400.55,18.33c.34-1.3.49-2,.66-3a31.4,31.4,0,0,0,.35-3.3,4.3,4.3,0,0,0,0-.46c1.72.23,2.06.32,2.06.52s-.17.26-.69.38a17.68,17.68,0,0,1-2,6Zm3.59-8.44c-.9.21-1.3.29-2.43.52,0,.57-.13.76-.27.76s-.23-.06-.74-2c.92,0,1.2,0,2.18-.08a27.12,27.12,0,0,0,2.08-3,18.94,18.94,0,0,0,1.64-3.47c2.08.67,2.1.67,2.1.86s-.21.23-.82.3a41.76,41.76,0,0,1-4.36,5.31c2.47-.17,2.56-.19,3.48-.3A19.9,19.9,0,0,0,406.1,7l.23-.1a10.4,10.4,0,0,1,1.38,1.28c.7.75,1,1.19,1,1.61S408.26,11,408,11s-.21-.06-.42-.75c-.07-.23-.21-.65-.38-1.1-.59.13-.59.13-1.77.42v4c0,3.13,0,3.2,0,5.5,0,.15-.05.22-.15.26l-1,.08a.2.2,0,0,1-.21-.19v0c0-1.47.06-4.3.06-5.52Zm-1.55-5.67A16,16,0,0,0,404.27.13c1.74.52,2.19.71,2.19.88s-.22.25-.95.29A22.06,22.06,0,0,1,403,4.47l.17.13c.63.44.88.78.88,1.15S403.68,7,403.45,7s-.23-.13-.35-.4a11,11,0,0,0-2.23-3.11l.15-.23a6.2,6.2,0,0,1,.92.55Zm3.93,7.08a13.26,13.26,0,0,1,1.93,4.11c0,.67-.57,1.62-.95,1.62-.16,0-.21-.11-.29-.74a21.54,21.54,0,0,0-1-4.91ZM416,2.88c.42-.49.56-.63,1-1a14.71,14.71,0,0,1,1.3,1c.19.14.28.25.28.35s-.3.34-1,.49a26.15,26.15,0,0,1-3.09,4.22,8.4,8.4,0,0,0,1.81,1.23,11,11,0,0,0,4.11,1.35v.25c-.92.32-1.26.63-1.44,1.47a14.13,14.13,0,0,1-5.11-3.65,20.76,20.76,0,0,1-6.06,4.13l-.17-.31a23.67,23.67,0,0,0,5.52-4.7,14.72,14.72,0,0,1-1.95-3.24,14.1,14.1,0,0,1-2.94,3.47L408,7.71a15.35,15.35,0,0,0,2.41-4.22A21.42,21.42,0,0,0,411.47.1c.42.11.8.22,1,.26,1,.27,1.22.35,1.22.52s-.19.21-.91.36c-.35.84-.5,1.13-.75,1.64ZM410,15.1a35.57,35.57,0,0,1,4.39,1.13c2.23.71,2.65.9,2.94,1.39a2.26,2.26,0,0,1,.27,1.07c0,.46-.17.84-.35.84s-.21-.05-.61-.38a25.43,25.43,0,0,0-6.74-3.76Zm1.81-11.74c-.21.38-.23.42-.38.65a10.86,10.86,0,0,0,2.2,3.09A16.23,16.23,0,0,0,416,3.36Zm.12,7.73a15,15,0,0,1,3.59,1.63,1.24,1.24,0,0,1,.59,1.14c0,.63-.19,1.13-.4,1.13s-.23-.08-.46-.38a15.06,15.06,0,0,0-3.48-3.27Z"/>
        <path class="cls-1" d="M437.55,1.7c.49-.52.63-.67,1.1-1.15.92.67,1.19.88,2,1.55a.61.61,0,0,1,.25.38.33.33,0,0,1-.1.17c-.15.1-.34.14-1.49.25a57.72,57.72,0,0,1-5.59,3.42c.57.17.72.25.72.38s-.28.35-.93.52v5l.07,5.06c0,.69-.15.94-.49,1.22a4.62,4.62,0,0,1-2.29.71c-.19-.71-.29-.88-.69-1.09a9.17,9.17,0,0,0-3.42-.69v-.32c1,0,1,0,2.85.11l2,.06h.06c.27,0,.4-.13.4-.38V7.73a13.77,13.77,0,0,0-.13-1.85c.63.12.93.21,1.33.29,1.51-1.28,3.29-3,4.24-4H426.7a13,13,0,0,0-2.27.17l-.19-.82a14.18,14.18,0,0,0,2.46.17Z"/>
        <path class="cls-1" d="M451,6.3l2.36-.17a9.49,9.49,0,0,0-1.72-2.25l.2-.18a11.86,11.86,0,0,1,2.34,1.61,2,2,0,0,1,.92,1.62c0,.61-.34,1.24-.67,1.24a.35.35,0,0,1-.25-.19,4.81,4.81,0,0,1-.38-.93,4.81,4.81,0,0,0-.25-.58c-2.48.61-4.18.92-6.74,1.32-.09.61-.21.86-.4.86s-.13-.06-.15-.19-.29-1.24-.44-2h1c.33,0,.8,0,1.2,0a25.63,25.63,0,0,0,1.3-3.88h-2.21a9.88,9.88,0,0,0-1.57.11l-.13-.74a9,9,0,0,0,1.72.15h5.76L454.19.59l1.91,1.64a.24.24,0,0,1,.08.16.16.16,0,0,1-.17.15h-4.85a31.46,31.46,0,0,1-2.62,3.86Zm-1.09,3.55a13.23,13.23,0,0,0-.14-2.12,12.9,12.9,0,0,1,2.14.29c.08,0,.17.11.17.17s-.07.14-.13.19l-.67.23v2.31h1.47c.52-.55.69-.74,1.22-1.28.71.63.92.84,1.59,1.47.06.06.09.1.09.14s-.09.15-.24.15h-4.13v3.51c1.43-.42,2.43-.76,4.68-1.58l.08.3c-1.32.71-2.39,1.21-5,2.39-.71.31-.71.31-3.08,1.24a6.78,6.78,0,0,0-.9.38c-.07.77-.09.92-.28.92s-.31-.15-1-2.25a33.76,33.76,0,0,0,4.22-1V11.4H447.3a4.48,4.48,0,0,0-1.22.13l-.14-.74c.33,0,1.23.13,1.55.13h2.39Zm12.9-4.27A22.65,22.65,0,0,1,462,9.05a13.57,13.57,0,0,1-2.1,4.28,11.32,11.32,0,0,0,2.58,2.4,8.26,8.26,0,0,0,2.86,1.34v.34c-.95.1-1.22.29-1.77,1.34a10.2,10.2,0,0,1-2.37-1.91,14.92,14.92,0,0,1-2.06-2.56,14.33,14.33,0,0,1-2.56,2.22,20.79,20.79,0,0,1-5.16,2.63l-.17-.3c3.55-2,5.48-3.5,7.2-5.75a15.55,15.55,0,0,1-1.68-5.5,15.3,15.3,0,0,1-2,2.48l-.23-.19a24,24,0,0,0,2.81-6.3A19,19,0,0,0,458.2.21c.44.11.8.19,1,.23.92.21,1.23.34,1.23.5a.36.36,0,0,1-.08.19c-.12.13-.23.15-.82.21-.19.51-.19.51-1.47,3.76H462c.52-.65.69-.86,1.19-1.53.87.76,1.14,1,1.94,1.72a.22.22,0,0,1,.08.15c0,.08-.11.14-.25.14Zm-4.9,0c-.25.53-.4.8-.82,1.54a15.19,15.19,0,0,0,2,5.06,15.84,15.84,0,0,0,2.16-6.6Z"/>
        <path class="cls-1" d="M484.74,13.92c-2,2.73-4.77,4.35-7.37,4.35a3.8,3.8,0,0,1-3.48-1.79,7.16,7.16,0,0,1-.59-3.55c0-1.15.06-3.15.17-5.06.12-2.26.14-2.85.14-3.61,0-1.8-.21-2.16-1.7-2.79a.84.84,0,0,1,.59-.21,5.3,5.3,0,0,1,1.89.48c.8.38,1.22.8,1.22,1.24a2.19,2.19,0,0,1-.19.76,64.69,64.69,0,0,0-1.09,10.08,3,3,0,0,0,.84,2.51,3.06,3.06,0,0,0,1.87.57,10.87,10.87,0,0,0,4.78-1.34,13.24,13.24,0,0,0,2.67-1.87Z"/>
        <path class="cls-1" d="M493.48,4.24a4.28,4.28,0,0,0,3.38,1.14,19.16,19.16,0,0,0,3-.26c-.08-3.21-.23-3.5-1.82-3.73.29-.3.46-.34,1-.34a6.14,6.14,0,0,1,1.77.27c.5.17.71.38.71.7,0,.12,0,.12-.27.71A6.65,6.65,0,0,0,500.91,5a10.84,10.84,0,0,0,3.91-1.24.51.51,0,0,1,.25-.09,2.65,2.65,0,0,1,1.09.36c.23.15.36.31.36.5s-.34.47-1.64.78a33.28,33.28,0,0,1-4,.73c0,.55,0,.87,0,1.35s0,1,0,1.91a17.86,17.86,0,0,0,2.39-.57,3.32,3.32,0,0,0,1.05-.52.48.48,0,0,1,.32-.09,2.42,2.42,0,0,1,1.07.32.42.42,0,0,1,.25.4c0,.37-.29.54-1.62.9a22.37,22.37,0,0,1-3.42.61c0,.82,0,1.15.06,1.89s.07,1.11.13,1.64a10.88,10.88,0,0,1,4.62,1.8,1.82,1.82,0,0,1,.61,1.39c0,.44-.19.73-.46.73s-.3-.06-.84-.59a12.94,12.94,0,0,0-1.77-1.3,7.45,7.45,0,0,0-2.1-.88,8.1,8.1,0,0,1,.07.93,2.08,2.08,0,0,1-.72,1.76,4.74,4.74,0,0,1-2.81.78c-2.1,0-3.55-.93-3.55-2.25,0-1.49,2-2.54,4.75-2.54.33,0,.54,0,1.05,0,0-1,0-1.16,0-1.45V10.41c-.84.05-1.23.07-1.55.07a5.66,5.66,0,0,1-2.79-.47,1.81,1.81,0,0,1-.95-1.59,5,5,0,0,1,.05-.59l.31,0c0,.65.13,1,.44,1.2a4.49,4.49,0,0,0,2.46.46,16.19,16.19,0,0,0,2-.15V7.89l0-1.53V6.11c-1.15.1-2,.15-2.71.15-2,0-2.85-.4-3.9-1.81Zm4.66,10.33a6.58,6.58,0,0,0-2.29.4c-.75.29-1.13.71-1.13,1.26,0,.76.86,1.2,2.29,1.2a3.47,3.47,0,0,0,2.39-.76,1.6,1.6,0,0,0,.46-1.09c0-.15,0-.63,0-.8v-.06A11.64,11.64,0,0,0,498.14,14.57Z"/>
        <path class="cls-1" d="M529.77,13.92c-2,2.73-4.77,4.35-7.37,4.35a3.8,3.8,0,0,1-3.49-1.79,7.16,7.16,0,0,1-.59-3.55c0-1.15.06-3.15.17-5.06.13-2.26.15-2.85.15-3.61,0-1.8-.21-2.16-1.7-2.79a.82.82,0,0,1,.58-.21,5.25,5.25,0,0,1,1.89.48c.8.38,1.22.8,1.22,1.24a2.19,2.19,0,0,1-.19.76,64.69,64.69,0,0,0-1.09,10.08,3,3,0,0,0,.84,2.51,3.06,3.06,0,0,0,1.87.57,10.91,10.91,0,0,0,4.79-1.34,13.49,13.49,0,0,0,2.66-1.87Z"/>
        <path class="cls-1" d="M536.89,5.4a2.87,2.87,0,0,0,2.31,1.15,9.82,9.82,0,0,0,2.66-.4,15.1,15.1,0,0,0,.72-3.55c0-.65-.32-.92-1.49-1.32a1.07,1.07,0,0,1,.65-.19,5.36,5.36,0,0,1,1.8.4c.63.23,1,.53,1,.84,0,.15,0,.15-.25.5a16.7,16.7,0,0,0-1.26,3,7.12,7.12,0,0,0,2.43-1.28c.34-.32.42-.36.59-.36a3.73,3.73,0,0,1,1.11.23c.23.08.34.21.34.38,0,.36-.34.63-1.22,1a24.28,24.28,0,0,1-3.67,1.21c-.26.72-.26.72-.89,2.67L540.1,14.4c-.84,2.5-1.11,3-1.56,3-.2,0-.35-.13-.48-.42a3.11,3.11,0,0,1-.29-1.22c0-.34,0-.4.46-1,1-1.53,1.87-3.36,3.3-7.52a10.58,10.58,0,0,1-2,.21,3.07,3.07,0,0,1-2.88-1.89Zm8.37,7.24c0,.31,0,.57,0,.65a2.59,2.59,0,0,0,1.6,2.54,6,6,0,0,0,2.25.4,5,5,0,0,0,2-.31.85.85,0,0,1,.36-.09,2.44,2.44,0,0,1,1.07.5.84.84,0,0,1,.38.59c0,.46-.82.7-2.48.7a9.4,9.4,0,0,1-3.89-.68,3.19,3.19,0,0,1-1.78-3,4.17,4.17,0,0,1,.19-1.32Zm.57-3.89a9.67,9.67,0,0,1,4.87-1.4,2.61,2.61,0,0,1,1.33.38.69.69,0,0,1,.33.58c0,.34-.19.47-.8.49a3,3,0,0,0-1.61.42,10.41,10.41,0,0,0-1.16.71l-.73.44-.13-.19c.25-.25.25-.25,1-.94.19-.17.38-.34,1-1A10.84,10.84,0,0,0,546,9Z"/>
        <path class="cls-1" d="M563.83,16.94a2.71,2.71,0,1,1-2.71-2.7A2.68,2.68,0,0,1,563.83,16.94Zm-4.75,0a2.06,2.06,0,0,0,2,2,2,2,0,1,0-2-2Z"/>
        <path class="cls-1" d="M.69,51.49c0,.46-.06.69-.06.94,0,2.5,1.57,3.67,5,3.67a13.53,13.53,0,0,0,4.64-.77,1.21,1.21,0,0,1,.36-.07,2.32,2.32,0,0,1,1.16.42,1,1,0,0,1,.46.74c0,.31-.23.54-.67.65a24.36,24.36,0,0,1-4.9.42c-2.35,0-3.84-.29-4.89-1A4,4,0,0,1,0,53.19,5.47,5.47,0,0,1,.34,51.4Zm.65-8.3a4.91,4.91,0,0,0,3.22.93,16.63,16.63,0,0,0,4.36-.63,1.76,1.76,0,0,1,.38-.09,1.44,1.44,0,0,1,1.26,1.09c0,.36-.13.44-1.53.74a34.53,34.53,0,0,0-5.61,2.08L3.28,47c.58-.36,1-.57,1.53-.88l1.36-.73.4-.26c-.46.05-1.19.07-1.57.07a5.69,5.69,0,0,1-2.4-.57A5,5,0,0,1,1.13,43.4Zm9.58-1.85a10.7,10.7,0,0,1,1.87,1.31c.75.69,1.05,1.17,1.05,1.68s-.3.88-.65.88-.28,0-.95-1.37a9.3,9.3,0,0,0-1.6-2.22Zm2.16-1.21a9,9,0,0,1,2,1.19c.82.61,1.1,1,1.1,1.62s-.21.86-.53.86-.31-.1-.48-.4a10.92,10.92,0,0,0-2.31-3Z"/>
        <path class="cls-1" d="M30.64,49.64a21.21,21.21,0,0,0,2.56-5.29c2,.79,2,.82,2,1s-.15.23-.82.27a23.47,23.47,0,0,1-3.3,4.06h4.24a17.9,17.9,0,0,1,1.18-1.49c.92.73,1.21,1,2.1,1.78a.17.17,0,0,1,.06.11c0,.08,0,.08-.25.08H29.86a11,11,0,0,0,3.26,3.65,18.2,18.2,0,0,0,4,2.23,10.39,10.39,0,0,0,2,.61l0,.21c-.9.21-1.17.44-1.53,1.47a15.57,15.57,0,0,1-4.2-3,16.3,16.3,0,0,1-3.5-4.66v3.21c0,1.26,0,1.4.06,3.21,0,1,0,1,0,1.89-.06.21-.13.25-.59.29-.1,0-.67.07-.71.07-.23,0-.34-.07-.36-.26.06-.81.06-.81.17-4.68V51.44a19.66,19.66,0,0,1-4.2,4.29,20.79,20.79,0,0,1-4.68,2.85l-.21-.29a23.77,23.77,0,0,0,5.48-4.52,17.06,17.06,0,0,0,2.75-3.65h-5.9a11.32,11.32,0,0,0-1.79.11l-.21-.84a9,9,0,0,0,2,.25h6.72V43.78h-5.5a16.62,16.62,0,0,0-2,.1l-.18-.77A9.17,9.17,0,0,0,23,43.3h5.31v-.7A18.51,18.51,0,0,0,28.18,40c1.85.21,2.44.34,2.44.59s-.24.31-.86.46V43.3h4.66c.46-.65.61-.84,1.11-1.47.9.71,1.18.94,2,1.72a.3.3,0,0,1,.08.12c0,.07-.08.11-.19.11h-7.7v5.86Zm-7.18-5.38c1.78,1.43,2.68,2.5,2.68,3.21S25.62,49,25.22,49c-.19,0-.21-.07-.36-.61a11.93,11.93,0,0,0-1.59-3.95Z"/>
        <path class="cls-1" d="M47,46.45c.44-.53.56-.7,1-1.18.65.55.86.73,1.47,1.32.09.11.13.15.13.21s-.09.13-.23.13H46v5.31c.92-.38,1.32-.57,2.39-1.07l.15.29c-1.2.87-1.87,1.33-2.44,1.66l-2.66,1.66c0,.78-.11,1-.32,1s-.16-.06-.23-.21-.29-.71-.82-2c.72-.19,1.49-.42,2.56-.81V46.93H43.41a6.35,6.35,0,0,0-1.35.1l-.14-.75a5.41,5.41,0,0,0,1.49.17h1.21V42.73c0-.76,0-1.18-.08-1.95,2,.25,2.29.31,2.29.52s-.19.28-.84.44v4.71Zm7.22,5.66a12.94,12.94,0,0,1-2.29,2.82,14.34,14.34,0,0,1-5.21,3l-.17-.32A14.35,14.35,0,0,0,51,54.53a10.45,10.45,0,0,0,1.73-2.42H50.88A17.51,17.51,0,0,1,46,55.43l-.17-.31a14,14,0,0,0,3.57-3,10.87,10.87,0,0,0,1.7-2.39H49.33a8,8,0,0,0-1.75.13l-.14-.8a7.15,7.15,0,0,0,1.89.19h9c.52-.57.69-.74,1.21-1.26a18.62,18.62,0,0,1,1.72,1.41c.09.08.13.14.13.2s-.08.13-.25.13H52.71a20,20,0,0,1-1.39,1.91H58.5a7.17,7.17,0,0,1,.78-.78,10.91,10.91,0,0,1,1.22.93.32.32,0,0,1,.17.23c0,.17-.19.32-.68.52a21.05,21.05,0,0,1-1.11,5.57,3,3,0,0,1-2.31,1.24c-.19-1.07-.42-1.22-2.5-1.51l0-.36c1.29.12,2.17.19,2.71.19s.76-.11,1-.53a20.6,20.6,0,0,0,.84-5H57.5a11.53,11.53,0,0,1-2.36,3.6,16.49,16.49,0,0,1-3.71,2.75,22.55,22.55,0,0,1-2.1,1l-.21-.29A16.08,16.08,0,0,0,54,55.31a10.28,10.28,0,0,0,2-3.2Zm-2.65-4.22c0,.3-.23.38-1,.38-.29,0-.37-.06-.37-.27,0-1.49.06-2.25.06-2.94,0-2.5,0-3.78-.06-4.54a17.46,17.46,0,0,1,1.59.93h4.9c.35-.38.46-.51.81-.86.55.38.72.5,1.2.88.15.13.21.21.21.29s-.06.19-.67.51v1.24c0,.86,0,2,0,4.22,0,.19,0,.25-.21.31a5,5,0,0,1-.88.11c-.19,0-.27-.07-.27-.23v-.53H51.53Zm5.36-6H51.53v2.16h5.36Zm-5.36,2.65v2.33h5.36V44.58Z"/>
        <path class="cls-1" d="M73.12,49.34c-1.53,3.53-2,4.77-2,5.61a2.57,2.57,0,0,0,.12.71,2,2,0,0,1,0,.34.49.49,0,0,1-.46.52,3.94,3.94,0,0,1-2.31-1.78,9.68,9.68,0,0,1-1.42-4.2,23.13,23.13,0,0,1-.15-3.7c0-2-.17-2.43-1.07-3.61h.19a3.14,3.14,0,0,1,1.57,1,2.55,2.55,0,0,1,1,1.66,3,3,0,0,1-.07.55,16.4,16.4,0,0,0-.37,3.12,8.88,8.88,0,0,0,.48,3,3,3,0,0,0,1.09,1.64c.23-.34.23-.34.69-1.11l1.77-3,.61-1Zm4.47-3.8a6.55,6.55,0,0,1,4.75,6.28c0,1-.42,1.66-1,1.66a1,1,0,0,1-.63-.23A2.81,2.81,0,0,0,79.08,53c-.48,0-.88,0-1.59,0l-.07-.32c1.7-.46,2.65-.73,2.84-.79.42-.15.48-.24.48-.63a7.52,7.52,0,0,0-.65-2.75,5.89,5.89,0,0,0-2.6-2.76Z"/>
        <path class="cls-1" d="M88.3,45.4a2.89,2.89,0,0,0,2.31,1.15,9.94,9.94,0,0,0,2.67-.4A15,15,0,0,0,94,42.6c0-.65-.31-.92-1.49-1.32a1.11,1.11,0,0,1,.65-.19,5.36,5.36,0,0,1,1.81.4c.63.23,1,.53,1,.84,0,.15,0,.15-.26.5a18.38,18.38,0,0,0-1.26,3,7.09,7.09,0,0,0,2.44-1.28c.34-.32.42-.36.59-.36a3.79,3.79,0,0,1,1.11.23c.23.08.34.21.34.38,0,.36-.34.63-1.22,1A24.43,24.43,0,0,1,94,47.05c-.25.72-.25.72-.88,2.67L91.52,54.4c-.84,2.5-1.12,3-1.56,3-.21,0-.35-.13-.48-.42a3.11,3.11,0,0,1-.29-1.22c0-.34,0-.4.46-1,1-1.53,1.87-3.36,3.3-7.52a10.58,10.58,0,0,1-2,.21,3.07,3.07,0,0,1-2.88-1.89Zm8.38,7.24c0,.31,0,.57,0,.65a2.59,2.59,0,0,0,1.6,2.54,5.94,5.94,0,0,0,2.24.4,5.08,5.08,0,0,0,2-.31.85.85,0,0,1,.36-.09,2.44,2.44,0,0,1,1.07.5.82.82,0,0,1,.37.59c0,.46-.81.7-2.47.7A9.4,9.4,0,0,1,98,56.94a3.19,3.19,0,0,1-1.78-3,4.17,4.17,0,0,1,.19-1.32Zm.57-3.89a9.67,9.67,0,0,1,4.87-1.4,2.55,2.55,0,0,1,1.32.38.68.68,0,0,1,.34.58c0,.34-.19.47-.8.49a3,3,0,0,0-1.62.42,9.65,9.65,0,0,0-1.15.71c-.4.25-.4.25-.74.44l-.12-.19c.25-.25.25-.25,1-.94.18-.17.37-.34,1-1a10.83,10.83,0,0,0-4,.78Z"/>
        <path class="cls-1" d="M110.65,45.69A2.88,2.88,0,0,0,113,46.84a9.78,9.78,0,0,0,2.66-.39,15.23,15.23,0,0,0,.72-3.57c0-.63-.32-.91-1.49-1.3a1.09,1.09,0,0,1,.65-.19,5.32,5.32,0,0,1,1.8.39c.63.24,1,.53,1,.84,0,.15,0,.15-.25.51a18,18,0,0,0-1.26,3,7.77,7.77,0,0,0,2.43-1.28c.34-.31.42-.36.59-.36a4.07,4.07,0,0,1,1.11.23c.24.09.34.21.34.38,0,.36-.34.63-1.22,1a23.07,23.07,0,0,1-3.67,1.24c-.15.44-.25.73-.28.8-.69,2.08-1.4,4.26-2.18,6.55-.84,2.5-1.11,3-1.55,3-.21,0-.36-.13-.49-.42a3.3,3.3,0,0,1-.29-1.22c0-.33,0-.4.46-1,1-1.38,1.93-3.56,3.3-7.51a11.45,11.45,0,0,1-2,.21,3.06,3.06,0,0,1-2.87-1.89ZM119,52.93c0,.32,0,.57,0,.65a2.58,2.58,0,0,0,1.59,2.54,5.84,5.84,0,0,0,2.25.4,5,5,0,0,0,2-.31,1.09,1.09,0,0,1,.36-.09,2.48,2.48,0,0,1,1.07.51.84.84,0,0,1,.38.59c0,.46-.82.69-2.48.69a9.33,9.33,0,0,1-3.88-.67,3.2,3.2,0,0,1-1.79-3.05,4.17,4.17,0,0,1,.19-1.32Zm.56-3.88a9.56,9.56,0,0,1,4.87-1.43,2.58,2.58,0,0,1,1.33.38.7.7,0,0,1,.33.59c0,.35-.19.46-.79.5a2.71,2.71,0,0,0-1.62.42,5.6,5.6,0,0,0-.69.4l-.78.5a2.31,2.31,0,0,1-.42.26l-.13-.19.32-.32.69-.63c.15-.12.46-.42,1-1h-.17a11.55,11.55,0,0,0-3.84.77Zm3.66-7.56a11.26,11.26,0,0,1,1.87,1.3c.75.7,1,1.18,1,1.68s-.3.88-.66.88-.27,0-.92-1.36A9.47,9.47,0,0,0,123,41.78Zm2.16-1.22a10.38,10.38,0,0,1,2,1.2c.8.61,1.08,1.05,1.08,1.62s-.21.86-.53.86-.31-.11-.48-.4a10.47,10.47,0,0,0-2.29-3Z"/>
        <path class="cls-1" d="M140.66,49.34c-1.54,3.53-2,4.77-2,5.61a2.39,2.39,0,0,0,.13.71,2,2,0,0,1,0,.34.49.49,0,0,1-.46.52,3.91,3.91,0,0,1-2.31-1.78,9.68,9.68,0,0,1-1.43-4.2,24.45,24.45,0,0,1-.15-3.7c0-2-.16-2.43-1.07-3.61h.19a3.11,3.11,0,0,1,1.58,1,2.53,2.53,0,0,1,.94,1.66,3.85,3.85,0,0,1-.06.55,16.53,16.53,0,0,0-.38,3.12,9.12,9.12,0,0,0,.48,3,3.07,3.07,0,0,0,1.1,1.64c.23-.34.23-.34.69-1.11l1.76-3c.34-.54.34-.54.61-1Zm4.47-3.8a6.55,6.55,0,0,1,4.74,6.28c0,1-.42,1.66-1.05,1.66a1,1,0,0,1-.63-.23,2.77,2.77,0,0,0-1.57-.25c-.48,0-.88,0-1.6,0l-.06-.32c1.7-.46,2.65-.73,2.83-.79.42-.15.49-.24.49-.63a7.72,7.72,0,0,0-.65-2.75A5.87,5.87,0,0,0,145,45.79Z"/>
        <path class="cls-1" d="M155.84,45.4a2.88,2.88,0,0,0,2.31,1.15,9.94,9.94,0,0,0,2.67-.4,15,15,0,0,0,.71-3.55c0-.65-.31-.92-1.49-1.32a1.09,1.09,0,0,1,.65-.19,5.41,5.41,0,0,1,1.81.4c.63.23.94.53.94.84,0,.15,0,.15-.25.5a18.38,18.38,0,0,0-1.26,3,7.19,7.19,0,0,0,2.44-1.28c.33-.32.42-.36.58-.36a3.79,3.79,0,0,1,1.12.23c.23.08.33.21.33.38,0,.36-.33.63-1.22,1a24.28,24.28,0,0,1-3.67,1.21c-.25.72-.25.72-.88,2.67-.42,1.26-.42,1.26-1.58,4.68-.84,2.5-1.11,3-1.55,3-.21,0-.36-.13-.48-.42a3.13,3.13,0,0,1-.3-1.22c0-.34,0-.4.46-1,1-1.53,1.87-3.36,3.3-7.52a10.58,10.58,0,0,1-2,.21,3.06,3.06,0,0,1-2.87-1.89Zm8.38,7.24c0,.31,0,.57,0,.65a2.58,2.58,0,0,0,1.59,2.54,6,6,0,0,0,2.25.4,5,5,0,0,0,2-.31.88.88,0,0,1,.36-.09,2.39,2.39,0,0,1,1.07.5.84.84,0,0,1,.38.59c0,.46-.82.7-2.48.7a9.34,9.34,0,0,1-3.88-.68,3.19,3.19,0,0,1-1.79-3,4.48,4.48,0,0,1,.19-1.32Zm.57-3.89a9.67,9.67,0,0,1,4.87-1.4,2.57,2.57,0,0,1,1.32.38.67.67,0,0,1,.33.58c0,.34-.18.47-.79.49a3,3,0,0,0-1.62.42,9.65,9.65,0,0,0-1.15.71c-.4.25-.4.25-.74.44l-.13-.19,1-.94c.19-.17.38-.34,1-1a10.88,10.88,0,0,0-4,.78Z"/>
        <path class="cls-1" d="M187.3,52.64H190c.53-.61.7-.8,1.22-1.43.84.67,1.09.88,1.87,1.6a.35.35,0,0,1,.11.19c0,.06-.11.12-.26.12H187.3v4.75h5.16c.59-.7.78-.91,1.35-1.6,1,.78,1.26,1,2.2,1.81,0,.06.08.1.08.12a.16.16,0,0,1-.16.15H179.65a9.71,9.71,0,0,0-1.76.17l-.19-.88a10.92,10.92,0,0,0,2.12.23h6V53.12h-3.7a8.47,8.47,0,0,0-1.44.13l-.19-.84a9.2,9.2,0,0,0,1.63.23h3.7V48.82h-3.7a6.05,6.05,0,0,0-1.21.1l-.23-.77a21.58,21.58,0,0,1-3.91,2.31l-.15-.28A25.1,25.1,0,0,0,183,44.37a18.13,18.13,0,0,0,2.84-4.43c2.16.58,2.45.69,2.45.86s-.35.29-1,.42a14.76,14.76,0,0,0,4.47,4.45A15.57,15.57,0,0,0,196.85,48l0,.27c-.88.13-1.2.44-1.58,1.49a20.94,20.94,0,0,1-4.47-3.34,15.53,15.53,0,0,1-3.76-5,24.3,24.3,0,0,1-6.27,6.74,6.13,6.13,0,0,0,1.42.18h7.37c.49-.52.63-.69,1.07-1.23.82.58,1.1.77,1.91,1.42.09.09.11.13.11.17s-.11.13-.27.13h-5Z"/>
        <path class="cls-1" d="M201.54,45.08a1.19,1.19,0,0,0,.94.36c.59,0,1.11-.11,5.82-1.24.88-.21,2-.46,3.4-.74a21.4,21.4,0,0,0,2.83-.67,2.94,2.94,0,0,1,.74-.17,2.73,2.73,0,0,1,1.13.45c.42.27.61.5.61.79s-.25.53-.65.53a2.91,2.91,0,0,1-.38,0,3.24,3.24,0,0,0-.59,0,7.43,7.43,0,0,0-7,6.94,4.25,4.25,0,0,0,2.77,4.14,6.64,6.64,0,0,0,2.14.51,1.06,1.06,0,0,1,.88.33,1.84,1.84,0,0,1,.63,1c0,.36-.31.59-.77.59a8.71,8.71,0,0,1-4.27-1.52,5.55,5.55,0,0,1-2.43-4.7,7.81,7.81,0,0,1,2.29-5.12A10.67,10.67,0,0,1,213,44.12a34.29,34.29,0,0,0-6,1.44,22.86,22.86,0,0,0-3.35,1.35,1.39,1.39,0,0,1-.84.29A2.3,2.3,0,0,1,201.16,46a3,3,0,0,1-.55-1.4.82.82,0,0,1,.23-.55A2.3,2.3,0,0,0,201.54,45.08Z"/>
        <path class="cls-1" d="M231.48,57.28a9.46,9.46,0,0,0,4.91-2.92,7.47,7.47,0,0,0,1.87-5.06,5.21,5.21,0,0,0-2.37-4.64,6.91,6.91,0,0,0-3.63-1,5.18,5.18,0,0,0-.74,0,2.69,2.69,0,0,1,.65,1.74c0,1.64-1.17,4.7-2.77,7.27-1.32,2.09-2.35,3.12-3.13,3.12a1.2,1.2,0,0,1-.92-.44,4.05,4.05,0,0,1-.59-1.34,12.88,12.88,0,0,0-.92-2,4,4,0,0,1-.48-1.91,6.53,6.53,0,0,1,1.89-4.15,10.16,10.16,0,0,1,7.22-2.94A8,8,0,0,1,237.88,45a6.39,6.39,0,0,1,2,4.93,7.21,7.21,0,0,1-4.18,6.36,12.45,12.45,0,0,1-4.09,1.31Zm-6.91-6.53a4.93,4.93,0,0,0,.84,2.77c.3.38.57.61.8.61.46,0,1.47-1.13,2.5-2.77,1.55-2.48,2.67-5.19,2.67-6.49a2.42,2.42,0,0,0-.3-1C227.43,44.47,224.57,47.52,224.57,50.75Z"/>
        <path class="cls-1" d="M246,45.9a3.5,3.5,0,0,0,2.5,1.07,9.13,9.13,0,0,0,2.1-.27c0-.61,0-1.56,0-1.93,0-2.21-.25-2.65-1.7-2.9a1.18,1.18,0,0,1,.9-.29,4.86,4.86,0,0,1,2.17.52.87.87,0,0,1,.46.67c0,.13,0,.13-.23.55a7.79,7.79,0,0,0-.65,3.13,6.24,6.24,0,0,0,2.29-1.22.92.92,0,0,1,.5-.21,2.42,2.42,0,0,1,.8.19.52.52,0,0,1,.35.46c0,.29-.18.46-.94.82a15,15,0,0,1-3.07,1c0,.29,0,.29-.06,1,0,.56-.06,1.49-.08,2.75a15.55,15.55,0,0,1,5.56-1.16c2.88,0,4.68,1.37,4.68,3.59A3.58,3.58,0,0,1,258,57.41c-1.93,0-3.31-1.29-4.05-3.72l.32-.11a6,6,0,0,0,1.26,1.83,2.76,2.76,0,0,0,2,.8,2.66,2.66,0,0,0,2.62-2.88c0-1.61-1.09-2.5-3.1-2.5a13.51,13.51,0,0,0-5.69,1.52c0,2.22,0,2.22,0,2.85,0,.4,0,.63,0,.8a2.47,2.47,0,0,1-.27,1.24,1.27,1.27,0,0,1-1,.77c-.3,0-.3,0-1.58-1.13a8.15,8.15,0,0,0-1.4-.94,1,1,0,0,1-.7-.89,1.82,1.82,0,0,1,.63-1.17,10.37,10.37,0,0,1,3.34-2.16c0-.3,0-.61,0-1,0-1,0-1,.1-3a9.32,9.32,0,0,1-1.64.15,3.5,3.5,0,0,1-3.13-1.72Zm2.31,8.5c-.42.44-.63.78-.63,1s.28.44.84.65a4.39,4.39,0,0,0,1.3.34c.26,0,.36-.15.38-.53.11-1.89.15-2.92.15-3A9.09,9.09,0,0,0,248.3,54.4Zm9.37-10.62a6.79,6.79,0,0,1,3.08.76,2.37,2.37,0,0,1,1.47,1.84.58.58,0,0,1-.63.61,1.27,1.27,0,0,1-.31,0,3,3,0,0,0-.44,0,13.22,13.22,0,0,0-2.58.56l-.13-.21a15.41,15.41,0,0,0,2.29-1.34,3.18,3.18,0,0,0-1.32-1.3,6,6,0,0,0-1.45-.55Z"/>
        <path class="cls-1" d="M279.42,45.58c.34-.41.45-.54.8-.94.67.53.88.69,1.53,1.28.19.15.28.25.28.36s-.25.21-1.26.25a15.76,15.76,0,0,1-3.13,3,17.24,17.24,0,0,0,3.3,1.28,20.87,20.87,0,0,0,5.24.84V52c-.86.16-1.09.38-1.61,1.42a25,25,0,0,1-3.34-1c.46.46.48.46.88.84.13.14.19.23.19.31a.41.41,0,0,1-.06.11,2.17,2.17,0,0,1-.23.12l-.21.11c0,1,0,1,0,2.75,0,1.15,0,1.15,0,2.24a1.23,1.23,0,0,0,0,.13.24.24,0,0,1-.21.27,3.15,3.15,0,0,1-.86.11c-.32,0-.38-.07-.38-.36V58.1h-7.91v.73c0,.36-.19.47-.84.47-.47,0-.61-.09-.61-.36v0c0-.74,0-.74,0-1.81,0-.57,0-.57,0-1.91V53a20.83,20.83,0,0,1-3.93,1.12l-.12-.3a34.86,34.86,0,0,0,8.71-4.3A19.33,19.33,0,0,1,273.25,47a17.83,17.83,0,0,1-1.72,1.56,12.74,12.74,0,0,1-3.72,2.24l-.14-.23a24.4,24.4,0,0,0,3.92-3.48,11,11,0,0,0,2.27-3.34c2.06.42,2.23.46,2.23.65s-.3.33-1.1.46l-.52.73Zm-3.61-2.66V41.47c0-.48,0-.78-.06-1.39a13.2,13.2,0,0,1,2.18.28c.17.06.28.14.28.27s-.28.38-.91.5v1.79h5.88c.42-.48.55-.65,1-1.16l1.91,1.39c.12.1.19.19.19.27s-.11.15-.19.17l-1.26.21a10.63,10.63,0,0,1-2,2.06l-.21-.13a13.31,13.31,0,0,0,.74-2.33H269.91a6.12,6.12,0,0,1-.63,2.35,2,2,0,0,1-1.28,1,.72.72,0,0,1-.46-.36,2,2,0,0,1-.17-.88c0-.27,0-.29.51-.63a4.31,4.31,0,0,0,1-1.17,6.16,6.16,0,0,0,.72-2.23H270c0,.34,0,.57,0,.76s0,.37,0,.69ZM280.26,53c.36-.32.36-.32.84-.72a19.92,19.92,0,0,1-4.39-2.16,28.38,28.38,0,0,1-4.66,2.44,2.64,2.64,0,0,1,.47.44Zm-7.74,4.6h7.91V53.5h-7.91Zm1.55-11.55c-.21.25-.27.33-.48.56a10.41,10.41,0,0,0,2.94,2.27,15,15,0,0,0,2.79-2.83Z"/>
        <path class="cls-1" d="M294.36,44.43a14.28,14.28,0,0,1,1.05-1.24c.67.61.88.8,1.53,1.43a.39.39,0,0,1,.08.19c0,.06-.08.1-.23.1h-2.87v1.51l1.11.78c.63.44.94.88.94,1.35s-.4,1.15-.69,1.15-.25-.13-.34-.42a7.81,7.81,0,0,0-1.05-2.41v5.41c0,2.69,0,3.17,0,6.72-.05.27-.26.34-1.14.34-.23,0-.31-.07-.31-.26V59c.1-3.25.1-3.27.1-4.53,0-.55,0-1.12,0-1.64,0-1.2,0-2.06,0-2.48l.19-3.11a23.66,23.66,0,0,1-1.59,4,12.77,12.77,0,0,1-2,3l-.23-.15a32.84,32.84,0,0,0,2.4-5.58,34.19,34.19,0,0,0,.88-3.66h-1.11a6.07,6.07,0,0,0-1.52.17l-.14-.82a7.7,7.7,0,0,0,1.66.17h1.42V42.06a12.12,12.12,0,0,0-.14-2.12c2,.31,2.22.35,2.22.56s-.19.28-.77.49v3.44Zm7.93,2h2.59a12.28,12.28,0,0,1,1-1.22,20.77,20.77,0,0,1,1.66,1.4c.09.09.11.13.11.19s-.07.11-.19.11h-5.17v2.33h3.84a15.5,15.5,0,0,1,1.18-1.32c.82.63,1.07.84,1.85,1.51a.27.27,0,0,1,.1.19c0,.08-.06.1-.21.1h-6.69A9.16,9.16,0,0,0,304.12,53a10.56,10.56,0,0,0,2-2.9c1.45.86,2,1.26,2,1.41a.26.26,0,0,1-.27.21h-.19l-.55-.05a16.17,16.17,0,0,1-2.79,1.62,12,12,0,0,0,4.83,3.28v.25c-.86.19-1,.31-1.55,1.34a11,11,0,0,1-3.45-3.5,14.37,14.37,0,0,1-1.89-3.89v2.69c0,.92.07,1.64.07,2.16,0,.82,0,1,.08,1.83a1.49,1.49,0,0,1-.55,1.34,3.48,3.48,0,0,1-1.78.51,1.42,1.42,0,0,0-.82-1,8.21,8.21,0,0,0-2.06-.49l0-.33c1.24.06,1.33.06,3.45.08h0c.21,0,.25-.06.25-.31V54.19a44.28,44.28,0,0,1-4.79,2.71c-.06.67-.12.84-.29.84s-.36-.36-1-2.06a27.63,27.63,0,0,0,6.09-2v-4h-2.85a5.46,5.46,0,0,0-1.87.19l-.15-.86a8.42,8.42,0,0,0,2,.19H301V46.93h-2.6a6.2,6.2,0,0,0-1.66.15l-.17-.84a8.3,8.3,0,0,0,1.83.21H301V44.12h-2.41a6.85,6.85,0,0,0-1.62.16l-.17-.86a7.77,7.77,0,0,0,1.79.21h3.88A12.62,12.62,0,0,0,304.37,40c1.62.74,2,1,2,1.16s-.15.23-1,.29A16.08,16.08,0,0,1,303,43.63h2.87a13.83,13.83,0,0,1,1-1.3c.8.63,1,.84,1.78,1.53,0,.07.05.11.05.13a.16.16,0,0,1-.17.13h-6.22Zm-5.6,3.82a13.28,13.28,0,0,1,1.89,1.13c.61.44.82.74.82,1.16,0,.65-.4,1.34-.76,1.34-.17,0-.29-.13-.42-.46a7.46,7.46,0,0,0-1.74-3Zm1.45-10.12a16,16,0,0,1,1.95,1.24c.52.39.69.63.69,1,0,.63-.36,1.22-.75,1.22-.24,0-.26,0-.59-.86A7.71,7.71,0,0,0,298,40.34Z"/>
        <path class="cls-1" d="M317.83,50c0,.19-.35,1.52-.94,4a8.5,8.5,0,0,0-.36,2.23,3.26,3.26,0,0,1-.06.9.52.52,0,0,1-.51.36c-.35,0-.67-.3-.9-.87a12.47,12.47,0,0,1-.73-4.47,17.86,17.86,0,0,1,.17-2.24,29.93,29.93,0,0,1,.73-4,9.75,9.75,0,0,0,.29-2,3.73,3.73,0,0,0-.58-2c.46,0,.84.3,1.4,1a2.82,2.82,0,0,1,.78,1.66c0,.34,0,.42-.44,1.26a18.51,18.51,0,0,0-1.14,3.34,12,12,0,0,0-.27,2.6,8,8,0,0,0,.4,2.77,15.52,15.52,0,0,0,.76-1.78l1.11-2.94ZM320.48,51a8.58,8.58,0,0,0-.06.89c0,2.3,1.32,3.25,4.57,3.25a9.54,9.54,0,0,0,1.79-.15,3.21,3.21,0,0,0,1.11-.33.88.88,0,0,1,.32-.07,1.63,1.63,0,0,1,1.32,1.24c0,.25-.17.42-.46.53a11,11,0,0,1-2.63.23c-2.62,0-4.49-.44-5.44-1.28a3.52,3.52,0,0,1-1.13-2.73,5.62,5.62,0,0,1,.25-1.66Zm0-6.67a3.26,3.26,0,0,0,1.95.56,11.2,11.2,0,0,0,4.22-.94c.27-.15.32-.17.46-.17a1.72,1.72,0,0,1,.74.29c.44.26.65.51.65.78s-.15.4-.59.48a11.78,11.78,0,0,0-3,.74,20.64,20.64,0,0,0-2.71,1.49l-.21-.21c.95-.8,1.66-1.39,2-1.64l-.86,0a3.69,3.69,0,0,1-2.85-1.17Z"/>
        <path class="cls-1" d="M334.53,58.79c1.64-3.29,2.08-5.9,2.08-12.3,0-3.28,0-5.4-.11-6.22.8.4,1.05.55,1.79,1h12.39c.35-.44.73-.88,1.07-1.32.88.63,1.13.84,2,1.51a.34.34,0,0,1,.11.17c0,.08-.07.12-.19.12h-15.5c0,1.22,0,1.7,0,2.69,0,7.83-.65,10.67-3.38,14.53Zm14.28-8.33c.46-.34.61-.42,1.05-.74a17,17,0,0,1,1.43,1.22c.14.17.14.17.14.19s-.14.19-.33.19H351l-.42,0a32.43,32.43,0,0,1-3.7,1.35c-.08.15-.08.15-.56.33v1h4.34l1.26-1.43,1.91,1.62a.27.27,0,0,1,.09.17c0,.08-.06.12-.23.12h-7.37v3.11c0,1-.53,1.37-2.5,1.7a1.46,1.46,0,0,0-.46-1,2.34,2.34,0,0,0-1.05-.42l-.61-.12c-.21,0-.38-.07-.59-.11v-.25c1.41.15,1.93.17,3.49.23a.25.25,0,0,0,.12,0c.15,0,.21-.08.21-.25V54.42h-5.08a11.41,11.41,0,0,0-1.7.15l-.17-.82a7.61,7.61,0,0,0,2,.19h5v-.71a9.07,9.07,0,0,0-.08-1.18c.44,0,.75.09,1,.11a3.21,3.21,0,0,1,1,.21,11,11,0,0,0,1.93-1.43h-7.45a14.64,14.64,0,0,0-1.62.08l-.17-.75a6.73,6.73,0,0,0,1.79.19Zm-7.08-1.31c0,.17-.08.24-.23.26s-.71.06-.94.06-.32-.06-.32-.19a.37.37,0,0,1,0-.13c0-2.14.06-3.4.06-3.8,0-1,0-1.34-.08-2.89a17.68,17.68,0,0,1,1.66.92h7.54a6.19,6.19,0,0,1,.67-.92c.54.37.71.5,1.24.9.14.1.21.17.21.25s-.11.23-.57.57c0,3.34,0,3.34,0,4.72,0,.15,0,.23-.14.27a2.71,2.71,0,0,1-1,.15c-.17,0-.25-.06-.27-.25v-.29h-7.88Zm7.88-5.29h-7.88v1.91h7.88Zm-7.88,2.4v2h7.88v-2Z"/>
        <path class="cls-1" d="M366.6,40.69a4.45,4.45,0,0,1,2.33,1.12c.33.33.46.54.46.84s-.11.39-1.22,1.3a50.68,50.68,0,0,0-3.86,3.63c-.74.82-1,1.3-1,1.7a1.76,1.76,0,0,0,.63,1.09,16.72,16.72,0,0,0,1.47,1.39c2.29,2.12,3.36,3.29,3.86,4.28a2.72,2.72,0,0,1,.32,1.39c0,.79-.28,1.26-.72,1.26-.27,0-.35-.11-.71-.86a19.82,19.82,0,0,0-1.76-3,39.19,39.19,0,0,0-3.07-3.8,2.74,2.74,0,0,1-.8-1.77c0-.67.34-1.24,1.62-2.81,2.54-3.09,3.17-4,3.17-4.47s-.27-.68-1.16-1.24A.93.93,0,0,1,366.6,40.69Z"/>
        <path class="cls-1" d="M381.65,49.78a15.41,15.41,0,0,1-2.26,2.33l-.26-.27a25.82,25.82,0,0,0,4.16-7c1.58.73,1.91.94,1.91,1.15,0,0-.06.11-.15.15s-.14.06-.69.06a14.53,14.53,0,0,1-1.85,2.59l.26,0c.65.08.9.17.9.31v0c0,.13-.23.26-.65.4v4c0,.93,0,.93,0,3.82v1.56c-.06.17-.11.21-.32.25a4.4,4.4,0,0,1-.65.08c-.37,0-.46,0-.48-.25,0-1.59,0-1.59.06-5.31Zm-2.16-4a17.78,17.78,0,0,0,2.84-3.71,8.06,8.06,0,0,0,.94-2c.44.17.8.3,1,.36.86.32,1.22.5,1.22.67s-.4.3-.84.3a.72.72,0,0,1-.19,0,19.37,19.37,0,0,1-4.71,4.68Zm11.07,1.47,1-1.21c.61.58.8.77,1.33,1.34a.38.38,0,0,1,.12.21.17.17,0,0,1-.17.15h-3.27V51h.67c.42-.5.57-.65,1-1.13a18.4,18.4,0,0,1,1.42,1.36c.05.06.09.11.09.15s-.06.1-.21.1h-3v3.82a23.54,23.54,0,0,0,2.87-.73l.13.25a29.48,29.48,0,0,1-4.14,1.6c-1.84.61-2.41.79-3.46,1.09-.08.65-.13.78-.29.78s-.36-.3-.82-2a9.25,9.25,0,0,0,1.4-.17V51.15a12.7,12.7,0,0,0-.12-1.89c1.85.19,2.12.25,2.12.44s-.15.23-.71.5v5.63l1.76-.31V47.75h-2.42a7,7,0,0,0-1.24.1l-.18-.77a5.2,5.2,0,0,0,1.42.18h2.42V44.05h-1.6a12.27,12.27,0,0,1-1.36,1.58l-.25-.21a16.14,16.14,0,0,0,2.05-5.23c1.77.55,2.15.69,2.15.88s-.15.25-1,.38a10.43,10.43,0,0,1-1.24,2.12h3.25c.38-.57.51-.74.91-1.28a21.2,21.2,0,0,1,1.49,1.51.28.28,0,0,1,0,.13c0,.06-.08.12-.15.12h-3v3.21Zm3.88,9c0,.17,0,.61,0,1.26,0,.31,0,.86,0,1.49-.08.25-.23.32-.75.34-.13,0-.26,0-.34,0h-.06c-.21,0-.3-.11-.3-.34.07-3.46.07-3.71.07-4.81,0-9.88,0-12.43-.05-13.31.7.4.91.51,1.58.91h2.08l.71-.91c.57.46.76.61,1.3,1.07.09.11.11.15.11.21s0,.11-.74.57V51.4c0,.17,0,1.05,0,2.27,0,.38,0,1,0,1.8a1,1,0,0,1-.47.89,4.17,4.17,0,0,1-1.7.54,1.12,1.12,0,0,0-.46-1,2,2,0,0,0-1.07-.37Zm0-1.07,2,0h.09c.14,0,.21-.06.21-.21V42.29h-2.27Z"/>
        <path class="cls-1" d="M407.53,49.41a23.63,23.63,0,0,1,2.75,1.28c.9.52,1.09.75,1.09,1.38s-.23,1.26-.51,1.26c-.12,0-.23-.08-.35-.29a10.1,10.1,0,0,0-3-3.17v4.7c0,1.41,0,3.11,0,4.41,0,.19-.09.25-.26.27a3.28,3.28,0,0,1-.9.09c-.27,0-.31,0-.4-.23,0-1.41.07-3.76.07-4.31V50.6a23.54,23.54,0,0,1-3.89,3l-.25-.3A22.93,22.93,0,0,0,406,49.2a24.32,24.32,0,0,0,2.8-4.22h-4.5a14.84,14.84,0,0,0-1.78.12l-.13-.8a11.55,11.55,0,0,0,1.91.19h1.79V41.72A11.54,11.54,0,0,0,406,40.4c2.06.23,2.37.31,2.37.54s-.23.3-.79.47v3.08h1.26l.92-1A17.19,17.19,0,0,1,411,44.66c.11.09.15.15.15.23s-.21.28-.9.4a27.35,27.35,0,0,1-2.75,3.76Zm5.29-6.51a16.26,16.26,0,0,0-.15-2.46c2.18.3,2.41.36,2.41.59s-.23.31-.86.5V57.22c0,.31,0,.31.09.33a8.92,8.92,0,0,0,1.76.11c.9,0,2.33,0,2.48,0,.33,0,.42-.13.61-.55a19.25,19.25,0,0,0,.58-2.08l.3-1.32.29-1.26h.3l-.21,4.43c0,.46,0,.46.33.57s.57.29.57.54c0,.42-.34.65-1,.76-.46.06-2.43.12-3.93.12-3.23,0-3.59-.12-3.59-1.36v-.15c0-.52,0-.75,0-1.2l.05-5Z"/>
        <path class="cls-1" d="M434.84,52.79c0,4.45,0,4.45.09,6.29v.05a.21.21,0,0,1-.19.21,5.54,5.54,0,0,1-1.11.1c-.19,0-.25-.06-.25-.21,0-1.59,0-1.59,0-6.44H428V53.9c0,.13,0,.19-.15.21a6.37,6.37,0,0,1-1.11.1c-.19,0-.27-.06-.27-.21v0c0-2.22,0-3.13,0-5.67,0-3,0-4-.06-5.46a14.85,14.85,0,0,1,1.84,1.1h5.13c0-2.33,0-2.57-.13-4,2.39.31,2.39.31,2.39.57s-.23.31-.86.5v2.88h5.53c.44-.42.56-.57,1-1,.57.4.74.53,1.22.92.13.13.19.19.19.26s-.15.23-.71.56c0,5.29,0,7,.06,9.16,0,.17,0,.21-.17.25a6.46,6.46,0,0,1-1.09.08c-.21,0-.27,0-.29-.19V52.79Zm-1.42-4.73V44.41H428v3.65Zm0,.49H428V52.3h5.42Zm7.14-4.14h-5.74c0,2.31,0,2.31,0,3.65h5.72Zm0,4.14h-5.72V52.3h5.72Z"/>
        <path class="cls-1" d="M463.89,53.92c-2,2.73-4.77,4.35-7.37,4.35A3.8,3.8,0,0,1,453,56.48a7.16,7.16,0,0,1-.59-3.55c0-1.15.07-3.15.17-5.06.13-2.26.15-2.85.15-3.61,0-1.8-.21-2.16-1.7-2.79a.84.84,0,0,1,.59-.21,5.35,5.35,0,0,1,1.89.48c.79.38,1.21.8,1.21,1.24a2.19,2.19,0,0,1-.19.76,65.93,65.93,0,0,0-1.09,10.08,3,3,0,0,0,.84,2.51,3.1,3.1,0,0,0,1.87.57A10.91,10.91,0,0,0,461,55.56a13.49,13.49,0,0,0,2.66-1.87Z"/>
        <path class="cls-1" d="M484.11,48l1.34-1.64c.93.8,1.22,1,2.1,1.83a.22.22,0,0,1,.09.17c0,.06-.11.12-.21.12h-8v9.07h6.11c.58-.77.77-1,1.34-1.7,1,.8,1.26,1,2.18,1.89a.24.24,0,0,1,.09.17c0,.06-.09.13-.17.13H472a8.29,8.29,0,0,0-1.74.16l-.17-.82a7.86,7.86,0,0,0,1.91.17h5.93V43.09a14.36,14.36,0,0,0-.17-2.57c.5.07.88.13,1.11.15,1.13.15,1.34.21,1.34.38s-.19.27-.77.44V48Z"/>
        <path class="cls-1" d="M498.06,49.66A40.27,40.27,0,0,0,496.78,56v.23a2.45,2.45,0,0,1,0,.34c0,.67-.17,1-.53,1s-.63-.27-.88-.75a12.1,12.1,0,0,1-1-5.44,26.6,26.6,0,0,1,.46-4.77,14.83,14.83,0,0,0,.34-2.62,3.49,3.49,0,0,0-.76-2,2.27,2.27,0,0,1,1.39.84,2.85,2.85,0,0,1,.92,1.66,2.88,2.88,0,0,1-.29,1.16,17.35,17.35,0,0,0-1.09,5.83,7.44,7.44,0,0,0,.5,3.28l.23-.61,1.66-4.58Zm1.68-3.47a3.58,3.58,0,0,0,2.43.82,12.18,12.18,0,0,0,3-.44v-.73a8.23,8.23,0,0,0-.25-2.92c-.21-.42-.8-.74-1.78-1,.31-.27.46-.31,1.15-.31,1.43,0,2.42.42,2.42,1a5.05,5.05,0,0,1-.15.88c0,.25-.08.67-.11,1.07l0,1.59a5.17,5.17,0,0,0,1.92-.92.67.67,0,0,1,.44-.15c.67,0,1.26.3,1.26.63s-.15.38-.74.68a15.92,15.92,0,0,1-2.86.92v3.09c0,3.25-.56,5-2.14,6.67a11.21,11.21,0,0,1-3.19,2.31l-.17-.29a9.93,9.93,0,0,0,3-3.23c1-1.73,1.33-3.59,1.33-7.21V47.64a12,12,0,0,1-2.44.28,4,4,0,0,1-3.29-1.47Zm7.45-6.09c1.51,1.12,2.54,2.38,2.54,3.13,0,.49-.34,1-.65,1s-.38-.15-.48-.5a9.61,9.61,0,0,0-1.73-3.34Zm2.29-.77a9.2,9.2,0,0,1,1.82,1.43c.66.65.91,1.07.91,1.57s-.23,1-.59,1c-.17,0-.29-.13-.44-.47a10.93,10.93,0,0,0-1.95-3.23Z"/>
        <path class="cls-1" d="M517.65,44.24A4.28,4.28,0,0,0,521,45.38a19.16,19.16,0,0,0,3-.26c-.08-3.21-.23-3.5-1.82-3.73.29-.3.46-.34,1-.34a6.12,6.12,0,0,1,1.76.27c.5.17.71.38.71.7,0,.12,0,.12-.27.71a6.92,6.92,0,0,0-.38,2.23A10.84,10.84,0,0,0,529,43.72a.51.51,0,0,1,.25-.09,2.65,2.65,0,0,1,1.09.36c.23.15.36.31.36.5s-.34.47-1.64.78a33.28,33.28,0,0,1-4,.73c0,.55,0,.87,0,1.35s0,1,0,1.91a17.86,17.86,0,0,0,2.39-.57,3.32,3.32,0,0,0,1.05-.52.48.48,0,0,1,.32-.09,2.42,2.42,0,0,1,1.07.32.42.42,0,0,1,.25.4c0,.37-.29.54-1.62.9a22.16,22.16,0,0,1-3.42.61c0,.82,0,1.15.07,1.89s.06,1.11.12,1.64a10.88,10.88,0,0,1,4.62,1.8A1.82,1.82,0,0,1,530.5,57c0,.44-.19.73-.46.73s-.3-.06-.84-.59a12.94,12.94,0,0,0-1.77-1.3,7.33,7.33,0,0,0-2.1-.88,8.1,8.1,0,0,1,.07.93,2.08,2.08,0,0,1-.72,1.76,4.72,4.72,0,0,1-2.81.78c-2.1,0-3.55-.93-3.55-2.25,0-1.49,1.95-2.54,4.75-2.54.33,0,.54,0,1,0,0-1,0-1.16,0-1.45V50.41c-.84.05-1.24.07-1.56.07a5.66,5.66,0,0,1-2.79-.47,1.81,1.81,0,0,1-1-1.59c0-.15,0-.36.05-.59l.31,0c0,.65.13.95.44,1.2a4.49,4.49,0,0,0,2.46.46,16.46,16.46,0,0,0,2-.15V47.89l-.05-1.53v-.25c-1.15.1-2,.15-2.7.15-2,0-2.86-.4-3.91-1.81Zm4.66,10.33A6.58,6.58,0,0,0,520,55c-.75.29-1.13.71-1.13,1.26,0,.76.86,1.2,2.29,1.2a3.47,3.47,0,0,0,2.39-.76,1.6,1.6,0,0,0,.46-1.09c0-.15,0-.63,0-.8v-.06A11.54,11.54,0,0,0,522.31,54.57Z"/>
        <path class="cls-1" d="M543.58,58.62c2.44-1.66,3.47-3,4-5.25a2.34,2.34,0,0,1-1.34.42,2.76,2.76,0,0,1-2.58-3c0-1.85,1.15-3.21,2.71-3.21a2.06,2.06,0,0,1,1.17.36c0-.36,0-1.52,0-2.19,0,0,0-.23,0-.42a29.29,29.29,0,0,0-5.29,1,7.8,7.8,0,0,0-1.36.57,1.46,1.46,0,0,1-1.83-.69,3.17,3.17,0,0,1-.84-1.54.77.77,0,0,1,.1-.25,2.43,2.43,0,0,0,2,1.07,11,11,0,0,0,1.81-.19c2.47-.4,3.23-.5,5.37-.73a7,7,0,0,0-.23-2.33c-.23-.59-.73-.88-1.81-1,.26-.32.4-.38,1-.38a7,7,0,0,1,2,.3c.5.16.79.44.79.73s0,.21-.21.57a5.41,5.41,0,0,0-.46,2c.55-.06.55-.06,1.37-.12a9.58,9.58,0,0,0,2.79-.38,1.89,1.89,0,0,1,.78-.23,3.68,3.68,0,0,1,1.78.78.64.64,0,0,1,.34.56c0,.23-.15.36-.46.36a8.21,8.21,0,0,1-1.14-.13,23.37,23.37,0,0,0-3.23-.21c-.78,0-1.39,0-2.25.09-.08.79-.14,2.08-.14,2.85,0,.15,0,.4,0,.72a5.52,5.52,0,0,1,.67,2.79,7.26,7.26,0,0,1-2.27,5.33,10.75,10.75,0,0,1-3.13,2Zm2.67-10.56c-.94,0-1.68,1-1.68,2.27s.72,2.29,1.7,2.29,1.35-.67,1.35-2C547.62,48.9,547.17,48.06,546.25,48.06Z"/>
        <path class="cls-1" d="M565.49,56.94a2.71,2.71,0,1,1-2.71-2.7A2.68,2.68,0,0,1,565.49,56.94Zm-4.75,0a2.06,2.06,0,0,0,2,2,2,2,0,1,0-2-2Z"/>
        <path class="cls-1" d="M131.5,84a7.75,7.75,0,0,0,1.54.17h3.14c.42-.5.55-.67,1-1.16.67.55.88.74,1.51,1.33a.25.25,0,0,1,.11.19q0,.12-.27.12H133a9.1,9.1,0,0,0-1.39.11Zm.74,5.65a7.14,7.14,0,0,0,1.45.17h2.2l1-1.07A14.81,14.81,0,0,1,138.22,90a.35.35,0,0,1,.11.16c0,.09-.09.13-.21.13h-4.43a7.37,7.37,0,0,0-1.31.1Zm.06-8.42a5.49,5.49,0,0,0,1.39.17H136a9.61,9.61,0,0,1,.86-1.09,19.22,19.22,0,0,1,1.47,1.28c.06.08.08.12.08.16s-.08.13-.17.13h-4.57a8.37,8.37,0,0,0-1.26.09Zm.06,5.71a5.37,5.37,0,0,0,1.33.15H136c.38-.51.51-.65.91-1.14a16.89,16.89,0,0,1,1.36,1.31.33.33,0,0,1,.11.21c0,.06-.09.1-.23.1h-4.43a6,6,0,0,0-1.2.11Zm1.58,11.7c0,.33-.19.41-1,.41-.27,0-.36-.06-.36-.2v0c0-1.38.07-2.08.07-3.59V94c0-.38,0-.84-.09-2.36a11.15,11.15,0,0,1,1.62,1h2.31c.31-.37.42-.48.73-.86a11.35,11.35,0,0,1,.95.84c.19.19.25.28.25.36a.24.24,0,0,1-.09.15s-.16.1-.48.25c0,2.35,0,3.38,0,4.24,0,.15,0,.21-.14.27a1.9,1.9,0,0,1-.82.15c-.25,0-.34,0-.34-.21V97.7h-2.62Zm0-1.45h2.62v-4h-2.62Zm12.43-12.71a25.82,25.82,0,0,0,.86,7.18,24.66,24.66,0,0,0,1.55-5.24c2.08.77,2.16.81,2.16,1s-.14.23-1,.32a19.81,19.81,0,0,1-2.19,5.33A13.38,13.38,0,0,0,150,96.52a30.7,30.7,0,0,0,1.16-3.59l.27.09L151,96.86v.21c0,.19,0,.25.32.69a.75.75,0,0,1,.17.49.71.71,0,0,1-.63.67c-.53,0-1-.4-1.85-1.41a18.36,18.36,0,0,1-2-3.15,12.89,12.89,0,0,1-2.61,2.52,14,14,0,0,1-3.5,2.08l-.19-.27a18.5,18.5,0,0,0,4.45-3.8,13,13,0,0,0,1.32-1.75c-.88-2.22-1.24-4.45-1.4-8.63H140.8c0,.07,0,1.28,0,3.66h2l.69-.84c.59.38.76.48,1.26.84.15.12.21.21.21.25s-.27.33-.76.57c0,.42,0,.82,0,1-.1,3.26-.21,4.39-.52,4.92s-.76.75-1.91,1c-.13-.61-.26-.86-.59-1.07a2.87,2.87,0,0,0-1.07-.32,12.07,12.07,0,0,1-2.54,5l-.32-.21A12.54,12.54,0,0,0,139.1,94a41.74,41.74,0,0,0,.42-7c0-1.91,0-2.71-.1-3.8a12.32,12.32,0,0,1,1.66.84h4c0-.86,0-1.22,0-1.53V81.34c0-.5,0-.69,0-1.24,1.89.24,2.19.32,2.19.53s0,.15-.78.4c0,1.17-.06,1.55-.06,2.37l0,.25V84h2.41c.4-.57.53-.73.93-1.24a13.06,13.06,0,0,1,1.38,1.41.27.27,0,0,1,.11.19q0,.12-.21.12Zm-5.61,4.14a23,23,0,0,1-.67,5.61c1.22.12,1.87.19,2,.19.3,0,.4-.09.49-.51A19.06,19.06,0,0,0,142.8,91c0-.65,0-.65,0-2.37Zm6.66-7.87c1.17.42,1.93.94,1.93,1.36s-.46,1-.72,1-.18-.08-.35-.54a3.84,3.84,0,0,0-1-1.71Z"/>
        <path class="cls-1" d="M160.25,90c0,.19-.36,1.52-.95,4a8.37,8.37,0,0,0-.35,2.23,2.7,2.7,0,0,1-.07.9.51.51,0,0,1-.5.36c-.36,0-.67-.3-.9-.87a12.45,12.45,0,0,1-.74-4.47,20,20,0,0,1,.17-2.24,32.66,32.66,0,0,1,.74-4,9.75,9.75,0,0,0,.29-2,3.75,3.75,0,0,0-.59-2c.46,0,.84.3,1.41,1a2.88,2.88,0,0,1,.78,1.66c0,.34,0,.42-.44,1.26A17.76,17.76,0,0,0,158,89.22a11.4,11.4,0,0,0-.27,2.6,7.78,7.78,0,0,0,.4,2.77,17.29,17.29,0,0,0,.75-1.78L160,89.87Zm2.65,1a6.74,6.74,0,0,0-.07.89c0,2.3,1.33,3.25,4.58,3.25a9.36,9.36,0,0,0,1.78-.15,3.31,3.31,0,0,0,1.12-.33.84.84,0,0,1,.31-.07A1.63,1.63,0,0,1,172,95.85c0,.25-.17.42-.47.53a10.91,10.91,0,0,1-2.62.23c-2.63,0-4.49-.44-5.44-1.28a3.49,3.49,0,0,1-1.13-2.73,5.62,5.62,0,0,1,.25-1.66Zm-.05-6.67a3.31,3.31,0,0,0,2,.56A11.25,11.25,0,0,0,169,84c.27-.15.31-.17.46-.17a1.65,1.65,0,0,1,.73.29c.44.26.65.51.65.78s-.14.4-.58.48a11.88,11.88,0,0,0-3,.74,20.59,20.59,0,0,0-2.7,1.49l-.21-.21c.94-.8,1.65-1.39,2-1.64l-.86,0a3.71,3.71,0,0,1-2.86-1.17Z"/>
        <path class="cls-1" d="M180,83.51A3.3,3.3,0,0,0,183,84.75a7.69,7.69,0,0,0,1.22-.11c.13-.94.23-2,.23-2.33,0-.76-.34-1.09-1.36-1.41a.75.75,0,0,1,.6-.23,4.92,4.92,0,0,1,1.83.49c.53.27.78.52.78.86,0,.18,0,.18-.27.54a4.93,4.93,0,0,0-.66,1.89A9.39,9.39,0,0,0,189.29,83a.63.63,0,0,1,.53-.23,3.35,3.35,0,0,1,1,.17.49.49,0,0,1,.34.46c0,.38-.42.63-1.81,1.11a27.87,27.87,0,0,1-4.22,1,24.31,24.31,0,0,0-.4,3.17,12.29,12.29,0,0,1,3.36-.67v-.13c0-.4-.16-.69-.67-1.15l.23-.05A1.65,1.65,0,0,1,189,87.89a7.06,7.06,0,0,1,4.07,1.5,4.15,4.15,0,0,1,1.43,3.31c0,3.19-3.26,5.59-8.19,6l-.06-.34c4.26-1.05,6.63-3.23,6.63-6.15a3.44,3.44,0,0,0-1.53-3,5.68,5.68,0,0,0-2.44-.74,10.53,10.53,0,0,1-1.32,2.88,12.38,12.38,0,0,1-2.25,2.73,6.12,6.12,0,0,0,.53.88,1.55,1.55,0,0,1,.23.88c0,.57-.19,1-.48,1s-.72-.57-1.22-1.85a6.85,6.85,0,0,1-3.63,2c-.51,0-.74-.24-1-1a5,5,0,0,0-.4-.8,2,2,0,0,1-.4-1.26,4.51,4.51,0,0,1,2-3.29A11.63,11.63,0,0,1,183.75,89c0-.32,0-.32.13-1.56,0-.35.06-.69.18-1.87-.4,0-.58,0-.79,0a3.64,3.64,0,0,1-3.51-1.94Zm.74,8.82a3.55,3.55,0,0,0-.65,2c0,.78.31,1.28.79,1.28a6.45,6.45,0,0,0,3.13-1.7,15.76,15.76,0,0,1-.31-3.38v-.76A7.52,7.52,0,0,0,180.77,92.33Zm3.9-2.34a14.78,14.78,0,0,0,.3,3.07,11.48,11.48,0,0,0,3-4.54,10.86,10.86,0,0,0-3.3.8Z"/>
        <path class="cls-1" d="M206.85,99.06a11,11,0,0,0,5.54-10,10,10,0,0,0-.77-4.33,1.75,1.75,0,0,0-1.5-.92c-1.05,0-2,.9-2.77,2.62a11.82,11.82,0,0,0-1,4.52c0,.36,0,.59.08,1.3a3.1,3.1,0,0,1,0,.44c0,.4-.19.63-.55.63-.79,0-1.32-1.7-1.32-4.3a25.46,25.46,0,0,1,.67-5.63,8.56,8.56,0,0,0,.23-1.53c0-.67-.29-1.07-1.13-1.49a1.19,1.19,0,0,1,.38-.11,3.26,3.26,0,0,1,1.68.69c.59.42.82.76.82,1.18a1.23,1.23,0,0,1-.3.8,15.18,15.18,0,0,0-1.51,6.25c0,.19,0,.4,0,.78h0c.63-2.69,1.41-4.43,2.44-5.5a3.41,3.41,0,0,1,2.56-1.24c2,0,3.45,2.48,3.45,6a10.43,10.43,0,0,1-2.29,6.86A10.72,10.72,0,0,1,207,99.38Z"/>
        <path class="cls-1" d="M226.63,94.61A10.53,10.53,0,0,0,229.88,96c.47,0,.82-.44,1.37-1.76a16.23,16.23,0,0,0,1.24-5.63c0-.88-.19-1.45-.57-1.7a1.54,1.54,0,0,0-.94-.21,7.24,7.24,0,0,0-2.19.42c-.29.73-.29.73-1.21,2.85-.11.26-.53,1.24-1.24,2.94-.84,2-1.54,3.49-1.87,4.08-.15.27-.32.4-.51.4-.37,0-.6-.55-.6-1.45a1.41,1.41,0,0,1,.48-1.18c.94-1.15,1.85-2.87,3.86-7.3A14.09,14.09,0,0,0,225,88.59a1.07,1.07,0,0,1-.61.23,1.53,1.53,0,0,1-.92-.63,3.3,3.3,0,0,1-.69-1.6,1.47,1.47,0,0,1,.12-.46c.44.86.82,1.16,1.6,1.16a22.26,22.26,0,0,0,3.57-.74,12,12,0,0,0,.86-3.44c0-.65-.42-1-1.62-1.41a.85.85,0,0,1,.61-.23,6.26,6.26,0,0,1,1.43.27c.94.28,1.47.68,1.47,1.12,0,.14,0,.23-.3.6a24.48,24.48,0,0,0-1.34,2.84,7.91,7.91,0,0,1,1.83-.23c1.8,0,2.66,1.07,2.66,3.27,0,2.69-1.07,6.18-2.28,7.52a3.07,3.07,0,0,1-2,.94c-.36,0-.53-.14-.57-.48,0-.54-.12-.65-2.33-2.45Zm9.26-8.46a7.23,7.23,0,0,1,3.84,2.52,5,5,0,0,1,1.2,3c0,.74-.32,1.16-.84,1.16a.8.8,0,0,1-.48-.15,1.29,1.29,0,0,0-.86-.23,18.53,18.53,0,0,0-2.63.19l-.08-.27a31.27,31.27,0,0,0,3.21-1.08,6.31,6.31,0,0,0-3.53-4.8Zm.71-4.2a8.75,8.75,0,0,1,1.87,1.3c.76.68,1.05,1.16,1.05,1.66s-.29.88-.65.88-.27,0-.92-1.36a9.85,9.85,0,0,0-1.62-2.2Zm2.17-1.21a9.26,9.26,0,0,1,2,1.19c.8.61,1.07,1,1.07,1.62s-.21.86-.52.86-.32-.11-.48-.4a10.92,10.92,0,0,0-2.31-3Z"/>
        <path class="cls-1" d="M251.07,81.09a6.83,6.83,0,0,1,2.13.4c.42.17.58.38.58.67v0c0,.17,0,.17-.16.55a16.06,16.06,0,0,0-.47,4.26c0,1.24.17,1.56.82,1.56.44,0,.91-.17,2.82-1.07a1.79,1.79,0,0,1,.86-.26,1,1,0,0,1,1,.89.64.64,0,0,1-.44.62,11.52,11.52,0,0,1-1.4.45,14.19,14.19,0,0,0-5.25,2.35,3.36,3.36,0,0,0-1.64,2.69c0,1.51,1.2,2.28,3.53,2.28a25,25,0,0,0,4.87-.6,1.64,1.64,0,0,1,.42-.07,1.2,1.2,0,0,1,1.13,1c0,.38-.23.57-.9.69a31.55,31.55,0,0,1-4,.28,10.59,10.59,0,0,1-3.57-.49,3.32,3.32,0,0,1-2.29-3.1,4.68,4.68,0,0,1,2.06-3.53,13.12,13.12,0,0,1,2.56-1.68,1.4,1.4,0,0,1-1-.32c-.31-.23-.5-.69-.61-1.59-.06-.51-.08-1-.14-2.54-.07-1.79-.09-2.1-.26-2.42s-.63-.6-1.51-.75A1.13,1.13,0,0,1,251.07,81.09Z"/>
        <path class="cls-1" d="M275.27,99.13a11.83,11.83,0,0,0,2.77-3,12.91,12.91,0,0,0,1.78-6.38c0-2.08-.75-3.36-2-3.36s-2.58.9-4,2.48c-.4.4-.53.48-.86.48a1.9,1.9,0,0,1-1.39-.94A2.66,2.66,0,0,1,271,87a1.18,1.18,0,0,1,.34-.78c.19.93.61,1.45,1.15,1.45a5.67,5.67,0,0,0,1.94-.82c1.78-1,2.47-1.19,3.54-1.19a3.32,3.32,0,0,1,2.61,1.4,5.6,5.6,0,0,1,.8,3.09,10.24,10.24,0,0,1-2.61,6.78,9.72,9.72,0,0,1-3.29,2.46ZM274.11,80A6.19,6.19,0,0,0,278,81.39h.48a1.6,1.6,0,0,1,1.13.5,1,1,0,0,1,.45.71c0,.3-.3.47-.87.47-.88,0-.88,0-5.22,1.28l-.11-.3c1.58-.71,3-1.36,3.55-1.55a4.91,4.91,0,0,1-3.55-2.29Z"/>
        <path class="cls-1" d="M293.35,91.49c0,.46-.06.69-.06.94,0,2.5,1.57,3.67,4.95,3.67a13.58,13.58,0,0,0,4.64-.77,1.15,1.15,0,0,1,.36-.07,2.29,2.29,0,0,1,1.15.42,1,1,0,0,1,.46.74c0,.31-.23.54-.67.65a24.17,24.17,0,0,1-4.89.42c-2.35,0-3.84-.29-4.89-1a4,4,0,0,1-1.74-3.29A5.7,5.7,0,0,1,293,91.4Zm.65-8.3a4.88,4.88,0,0,0,3.21.93,16.71,16.71,0,0,0,4.37-.63,1.64,1.64,0,0,1,.38-.09,1.45,1.45,0,0,1,1.26,1.09c0,.36-.13.44-1.54.74a34.57,34.57,0,0,0-5.6,2.08l-.15-.32c.59-.36,1-.57,1.53-.88l1.37-.73.4-.26c-.46,0-1.2.07-1.58.07a5.68,5.68,0,0,1-2.39-.57,4.83,4.83,0,0,1-1.47-1.22Zm9.57-1.85a10,10,0,0,1,1.87,1.31c.76.69,1.05,1.17,1.05,1.68s-.29.88-.65.88-.27,0-.94-1.37a9.3,9.3,0,0,0-1.6-2.22Zm2.17-1.21a9.45,9.45,0,0,1,2,1.19c.82.61,1.09,1,1.09,1.62s-.21.86-.52.86-.32-.1-.49-.4a10.69,10.69,0,0,0-2.3-3Z"/>
        <path class="cls-1" d="M323.73,83a8.41,8.41,0,0,0,2.33.72.71.71,0,0,0,.21,0h.13c.53,0,.82.23.82.65s-.36.63-1.18,1.07a11.77,11.77,0,0,1-2.08.92l-.84.34A48.45,48.45,0,0,1,326,91.25a3,3,0,0,1,.46,1.6c0,.8-.14,1.09-.56,1.09-.23,0-.36-.06-.65-.36a6.31,6.31,0,0,0-1.41-1,9.16,9.16,0,0,0-3.8-.8c-2.42,0-3.93.94-3.93,2.46a2.38,2.38,0,0,0,1.64,2.14,8.15,8.15,0,0,0,2.92.46,8.58,8.58,0,0,0,1.83-.15,1.41,1.41,0,0,1,.25,0,1.53,1.53,0,0,1,1.3,1.15c0,.51-.36.63-1.83.63a13,13,0,0,1-4.11-.56c-1.89-.63-3-1.91-3-3.45,0-2.09,2.08-3.35,5.53-3.35a14.74,14.74,0,0,1,4.11.56A17.72,17.72,0,0,0,322.22,87a14.29,14.29,0,0,1-4.26.67,4.7,4.7,0,0,1-3.86-1.82l.23-.24a4.94,4.94,0,0,0,3.36,1.16,14.27,14.27,0,0,0,3.88-.65,12.12,12.12,0,0,0-2.94-2.73c-.65-.36-.8-.53-.8-.82,0-.48.53-.78,1.45-.78a7.11,7.11,0,0,1,2.46.47l-.11.31a6.72,6.72,0,0,0-.94-.1c-.44,0-.65.08-.65.23s.21.37.86,1.11c.29.36.84,1,1.62,2l.4-.17.79-.34a9.83,9.83,0,0,0,1.51-.77,16.26,16.26,0,0,0-1.65-1.29Zm3-2.1a11.26,11.26,0,0,1,1.87,1.31c.75.69,1.05,1.17,1.05,1.68s-.3.88-.65.88-.28,0-.95-1.37a9.3,9.3,0,0,0-1.6-2.22Zm2.16-1.21a9.93,9.93,0,0,1,2,1.19c.79.61,1.07,1,1.07,1.62s-.21.86-.53.86-.31-.1-.48-.4a10.92,10.92,0,0,0-2.31-3Z"/>
        <path class="cls-1" d="M343.27,89.34c-1.54,3.53-2,4.77-2,5.61a2.39,2.39,0,0,0,.13.71,2,2,0,0,1,0,.34.49.49,0,0,1-.46.52,3.91,3.91,0,0,1-2.31-1.78,9.55,9.55,0,0,1-1.43-4.2,23.13,23.13,0,0,1-.15-3.7c0-2-.16-2.43-1.07-3.61h.19a3.11,3.11,0,0,1,1.58,1,2.53,2.53,0,0,1,.94,1.66,3.85,3.85,0,0,1-.06.55,16.53,16.53,0,0,0-.38,3.12,9.12,9.12,0,0,0,.48,3,3.12,3.12,0,0,0,1.09,1.64,12.27,12.27,0,0,0,.7-1.11l1.76-3c.34-.54.34-.54.61-1Zm4.47-3.8a6.55,6.55,0,0,1,4.74,6.28c0,1-.42,1.66-1.05,1.66a1,1,0,0,1-.63-.23,2.77,2.77,0,0,0-1.57-.25c-.48,0-.88,0-1.6,0l-.06-.32c1.7-.46,2.64-.73,2.83-.79.42-.15.49-.24.49-.63a7.72,7.72,0,0,0-.65-2.75,5.87,5.87,0,0,0-2.61-2.76Z"/>
        <path class="cls-1" d="M360.07,84.24a4.28,4.28,0,0,0,3.38,1.14,19.16,19.16,0,0,0,3-.26c-.08-3.21-.23-3.5-1.83-3.73.3-.3.46-.34,1.05-.34a6.19,6.19,0,0,1,1.77.27c.5.17.71.38.71.7,0,.12,0,.12-.27.71A6.65,6.65,0,0,0,367.5,85a10.69,10.69,0,0,0,3.9-1.24.54.54,0,0,1,.26-.09,2.65,2.65,0,0,1,1.09.36.62.62,0,0,1,.35.5c0,.3-.33.47-1.63.78a33.28,33.28,0,0,1-4,.73c0,.55,0,.87,0,1.35s0,1,0,1.91a17.86,17.86,0,0,0,2.39-.57,3.32,3.32,0,0,0,1-.52.46.46,0,0,1,.31-.09,2.46,2.46,0,0,1,1.08.32.44.44,0,0,1,.25.4c0,.37-.3.54-1.62.9a22.37,22.37,0,0,1-3.42.61c0,.82,0,1.15.06,1.89s.06,1.11.13,1.64a10.88,10.88,0,0,1,4.62,1.8,1.82,1.82,0,0,1,.61,1.39c0,.44-.19.73-.47.73s-.29-.06-.84-.59a12.19,12.19,0,0,0-1.76-1.3,7.45,7.45,0,0,0-2.1-.88c0,.46.06.67.06.93a2.11,2.11,0,0,1-.71,1.76,4.74,4.74,0,0,1-2.81.78c-2.1,0-3.55-.93-3.55-2.25,0-1.49,1.95-2.54,4.74-2.54.34,0,.55,0,1,0,0-1,0-1.16,0-1.45V90.41c-.84,0-1.24.07-1.55.07a5.63,5.63,0,0,1-2.79-.47,1.81,1.81,0,0,1-.95-1.59c0-.15,0-.36,0-.59l.32,0c0,.65.12,1,.44,1.2a4.45,4.45,0,0,0,2.45.46,16.33,16.33,0,0,0,2-.15V87.89l0-1.53v-.25c-1.16.1-2,.15-2.71.15-2,0-2.85-.4-3.9-1.81Zm4.66,10.33a6.58,6.58,0,0,0-2.29.4q-1.14.44-1.14,1.26c0,.76.87,1.2,2.29,1.2a3.52,3.52,0,0,0,2.4-.76,1.6,1.6,0,0,0,.46-1.09c0-.15,0-.63,0-.8v-.06A11.75,11.75,0,0,0,364.73,94.57Z"/>
        <path class="cls-1" d="M396.35,93.92c-2,2.73-4.77,4.35-7.37,4.35a3.8,3.8,0,0,1-3.48-1.79,7.16,7.16,0,0,1-.59-3.55c0-1.15.06-3.15.17-5.06.12-2.26.14-2.85.14-3.61,0-1.8-.21-2.16-1.7-2.79a.84.84,0,0,1,.59-.21,5.3,5.3,0,0,1,1.89.48c.8.38,1.22.8,1.22,1.24a2.19,2.19,0,0,1-.19.76,64.69,64.69,0,0,0-1.09,10.08,3,3,0,0,0,.84,2.51,3.06,3.06,0,0,0,1.87.57,10.87,10.87,0,0,0,4.78-1.34,13.24,13.24,0,0,0,2.67-1.87Z"/>
        <path class="cls-1" d="M403.47,85.4a2.88,2.88,0,0,0,2.31,1.15,9.94,9.94,0,0,0,2.67-.4,15,15,0,0,0,.71-3.55c0-.65-.31-.92-1.49-1.32a1.11,1.11,0,0,1,.65-.19,5.36,5.36,0,0,1,1.81.4c.63.23.94.53.94.84,0,.15,0,.15-.25.5a18.38,18.38,0,0,0-1.26,3A7.19,7.19,0,0,0,412,84.56c.33-.32.42-.36.58-.36a3.79,3.79,0,0,1,1.12.23c.23.08.33.21.33.38,0,.36-.33.63-1.21,1a24.82,24.82,0,0,1-3.68,1.21c-.25.72-.25.72-.88,2.67l-1.57,4.68c-.84,2.5-1.12,3-1.56,3-.21,0-.36-.13-.48-.42a3.13,3.13,0,0,1-.3-1.22c0-.34,0-.4.47-1,1.05-1.53,1.87-3.36,3.29-7.52a10.48,10.48,0,0,1-2,.21,3.07,3.07,0,0,1-2.88-1.89Zm8.38,7.24c0,.31,0,.57,0,.65a2.6,2.6,0,0,0,1.59,2.54,6,6,0,0,0,2.25.4,5.08,5.08,0,0,0,2-.31.81.81,0,0,1,.35-.09,2.42,2.42,0,0,1,1.08.5.82.82,0,0,1,.37.59c0,.46-.82.7-2.47.7a9.36,9.36,0,0,1-3.89-.68,3.19,3.19,0,0,1-1.78-3,4.17,4.17,0,0,1,.19-1.32Zm.57-3.89a9.67,9.67,0,0,1,4.87-1.4,2.55,2.55,0,0,1,1.32.38.68.68,0,0,1,.34.58c0,.34-.19.47-.8.49a3,3,0,0,0-1.62.42,9.65,9.65,0,0,0-1.15.71c-.4.25-.4.25-.74.44l-.12-.19c.25-.25.25-.25,1-.94.19-.17.38-.34,1-1a10.88,10.88,0,0,0-4,.78Z"/>
        <path class="cls-1" d="M430.42,96.94a2.71,2.71,0,1,1-2.71-2.7A2.68,2.68,0,0,1,430.42,96.94Zm-4.75,0a2,2,0,0,0,2,2,2,2,0,1,0-2-2Z"/>
      </g>
    </g>
  </g>
</svg>
