<svg xmlns="http://www.w3.org/2000/svg" width="588" height="139.65" viewBox="0 0 588 139.65">
  <defs>
    <style>
      .cls-1 {
        fill: #fff;
      }
    </style>
  </defs>
  <g id="レイヤー_2" data-name="レイヤー 2">
    <g id="レイヤー_2-2" data-name="レイヤー 2">
      <g>
        <path class="cls-1" d="M102.06,1.53l.67.7L95.28,9.72l7.45,7.45-.67.7L94.6,10.48l-7.43,7.39-.69-.7,7.45-7.45L86.48,2.23l.69-.7L94.6,9ZM90.19,9.7a1.6,1.6,0,0,1-1.59,1.62A1.64,1.64,0,0,1,87,9.7a1.61,1.61,0,0,1,3.21,0Zm6,6.13a1.64,1.64,0,0,1-1.6,1.62,1.62,1.62,0,0,1-.14-3.24h.06s0,0,0,0l0,0A1.6,1.6,0,0,1,96.2,15.83Zm0-12.2a1.6,1.6,0,0,1-1.6,1.62A1.63,1.63,0,0,1,93,3.63a1.61,1.61,0,0,1,3.21,0Zm6,6.09a1.6,1.6,0,1,1-1.59-1.59A1.6,1.6,0,0,1,102.2,9.72Z"/>
        <path class="cls-1" d="M123.25,4.47c.52-.69.67-.9,1.19-1.55a16.62,16.62,0,0,1,2.1,1.68c.09.1.13.17.13.21s-.11.15-.23.15h-8.53a11.84,11.84,0,0,0,2.46,3.86,23,23,0,0,0,4.37,4.07,14.73,14.73,0,0,0,2.52,1.3v.28a2.22,2.22,0,0,0-1.77,1.24,21.42,21.42,0,0,1-4.7-4.75,23.94,23.94,0,0,1-3.09-5.44l0,4.73v3.84h2c.49-.65.65-.84,1.14-1.41a15,15,0,0,1,1.91,1.6.32.32,0,0,1,.06.17c0,.06-.08.12-.19.12h-5v.3c.06,3,.06,3.14.08,4.19,0,.15-.06.19-.17.21a8.23,8.23,0,0,1-1,.07c-.21,0-.29-.07-.29-.28l0-1.15c0-.86,0-1.45,0-1.66,0-.8,0-1.36,0-1.43v-.25h-3.17a5.54,5.54,0,0,0-1.57.13l-.11-.78a8,8,0,0,0,1.68.17h3.15V10.27l0-3.74a12.26,12.26,0,0,1-1.82,3,32,32,0,0,1-4.79,4.87,12.63,12.63,0,0,1-2.56,1.6l-.13-.23A26.24,26.24,0,0,0,113,9.68,23.06,23.06,0,0,0,115.75,5h-6.53a7.48,7.48,0,0,0-1.36.12l-.11-.82a7.27,7.27,0,0,0,1.43.21h7.14V2A15.9,15.9,0,0,0,116.23.1c.49.07.86.13,1.12.15,1,.15,1.24.23,1.24.44s-.11.28-.89.53V4.47Z"/>
        <path class="cls-1" d="M144.9,11.59c1.38.65,1.8.9,1.8,1.09s-.29.27-1,.3a14.87,14.87,0,0,1-3.23,1.57A13.86,13.86,0,0,0,144.92,16,10.72,10.72,0,0,0,149.43,17l0,.25c-.88.21-1.19.55-1.55,1.55A12.66,12.66,0,0,1,144,17a10.74,10.74,0,0,1-4.5-5.44h-2.12v5.16a37.46,37.46,0,0,0,4.66-.58l0,.27a56.69,56.69,0,0,1-8.18,2.14c-.11.53-.21.74-.38.74s-.27-.19-.78-2.29l.55,0c.33,0,1.74-.11,2.66-.19V11.59h-2.87a20.43,20.43,0,0,1-.93,3.72A10.06,10.06,0,0,1,129.93,19l-.21-.19a12.09,12.09,0,0,0,1.45-3.8c.61-2.77.73-5.18.73-13.27,0-.65,0-1-.06-1.76a21,21,0,0,1,1.83,1.09h11.88c.31-.4.42-.52.75-.92a14.38,14.38,0,0,1,1.35.9c.12.13.17.19.17.27s-.15.3-.74.7c0,1.26,0,1.26.06,3.13a.32.32,0,0,1-.21.25,3.74,3.74,0,0,1-.92.12c-.23,0-.31-.08-.34-.29V4.75H133.46l0,1.63a33.62,33.62,0,0,1-.29,4.73h3.93V8h-1.22a14.79,14.79,0,0,0-1.93.11l-.11-.78a9.06,9.06,0,0,0,2,.19h1.22V6.78A8,8,0,0,0,137,5.25c1.89.17,2.21.23,2.21.46s-.07.17-.7.42V7.56h3.26V6.63a9.09,9.09,0,0,0-.09-1.42c1.91.21,2.17.27,2.17.48s-.13.23-.68.42V7.56h1.58c.42-.57.54-.74,1-1.28.87.59,1.14.8,2,1.47a.37.37,0,0,1,.08.17c0,.08-.08.12-.23.12h-4.39v3.07h2.44c.42-.61.57-.8,1.05-1.41.9.63,1.18.84,2.12,1.55a.49.49,0,0,1,.1.19c0,.09-.1.15-.2.15Zm.77-10H133.5c0,.58,0,.58,0,2.66h12.21Zm-7.2,9.51h3.26V8h-3.26Zm1.56.48a5.69,5.69,0,0,0,2.05,2.71,8.66,8.66,0,0,0,2.82-2.71Z"/>
        <path class="cls-1" d="M158.34,10c-.38,1.33-1,3.61-1.22,4.64a7.18,7.18,0,0,0-.27,1.79c0,.67,0,.75-.15.92a.46.46,0,0,1-.4.23c-.35,0-.65-.29-.9-.94a12.45,12.45,0,0,1-.67-4.22,31.1,31.1,0,0,1,.94-7A9,9,0,0,0,156,3.51a3.27,3.27,0,0,0-.61-1.85c.48,0,.88.29,1.47,1.05a3,3,0,0,1,.75,1.59c0,.24,0,.24-.33.93a16.39,16.39,0,0,0-1.6,6.84,8.43,8.43,0,0,0,.34,2.61l.88-2.1L158,9.87Zm2.1-3.8a4.38,4.38,0,0,0,2.71.86,11.18,11.18,0,0,0,2.39-.29V5.82c0-2.36,0-2.63-.29-2.92a2.1,2.1,0,0,0-1.39-.48,1.15,1.15,0,0,1,1-.34,6,6,0,0,1,1.43.19c.61.19.92.44.92.75,0,.15,0,.17-.19.65a9.4,9.4,0,0,0-.44,2.82,5.17,5.17,0,0,0,1.93-.86c.21-.21.28-.23.47-.23a2.41,2.41,0,0,1,1,.27.45.45,0,0,1,.28.38c0,.46-1.54,1.09-3.72,1.51a41.45,41.45,0,0,0,.27,5.71c2.44.65,3.47,1.47,3.47,2.69,0,.44-.19.77-.42.77s-.32-.1-.74-.52a6.41,6.41,0,0,0-2.27-1.68,4.62,4.62,0,0,1,0,.5c0,1.51-1.26,2.42-3.36,2.42-1.82,0-3.1-.88-3.1-2.14,0-1.45,1.55-2.38,3.94-2.38.4,0,.7,0,1.29.07v-.36l0-2.25,0-2.68a9.78,9.78,0,0,1-1.85.16,4.15,4.15,0,0,1-3.46-1.47Zm3.21,7.67c-1.66,0-2.69.54-2.69,1.47,0,.73.82,1.23,2.06,1.23s2-.33,2.31-1a2.64,2.64,0,0,0,.27-1.47A6.65,6.65,0,0,0,163.65,13.84Z"/>
        <path class="cls-1" d="M180.45,17a8.81,8.81,0,0,1,1.56-4.1c.82-1.17,1.7-2,4.39-4.2A6.45,6.45,0,0,0,188,7.08a3.44,3.44,0,0,0,.46-1.77,2.76,2.76,0,0,0-2.85-3A2.44,2.44,0,0,0,183.1,4a5.37,5.37,0,0,0-.21,1.53c0,.72-.27.9-1,.9s-1.07-.25-1.07-.86c0-2.16,2.1-3.78,4.91-3.78a5,5,0,0,1,4,1.58,3.35,3.35,0,0,1,.68,2.22c0,1.75-.78,2.82-3.11,4.25a19.1,19.1,0,0,0-4.12,2.94,6,6,0,0,0-1.72,2.66h6.07c1.51,0,2-.46,2.46-2.22l.63.14L190.07,17Z"/>
        <path class="cls-1" d="M195.36,4.12a4.7,4.7,0,0,1,8.13,0,11.53,11.53,0,0,1,1.2,5.43,11.65,11.65,0,0,1-1.2,5.44,4.46,4.46,0,0,1-4.05,2.33A4.51,4.51,0,0,1,195.36,15a11.84,11.84,0,0,1-1.19-5.44A11.77,11.77,0,0,1,195.36,4.12Zm4.08,12.66c2.24,0,3.23-2.21,3.23-7.23s-1-7.22-3.23-7.22-3.24,2.23-3.24,7.24S197.19,16.78,199.44,16.78Z"/>
        <path class="cls-1" d="M208.17,17a8.81,8.81,0,0,1,1.56-4.1c.82-1.17,1.7-2,4.39-4.2a6.45,6.45,0,0,0,1.59-1.63,3.44,3.44,0,0,0,.46-1.77,2.76,2.76,0,0,0-2.85-3A2.44,2.44,0,0,0,210.82,4a5.37,5.37,0,0,0-.21,1.53c0,.72-.27.9-1,.9s-1.07-.25-1.07-.86c0-2.16,2.1-3.78,4.91-3.78a5.05,5.05,0,0,1,4,1.58,3.4,3.4,0,0,1,.67,2.22c0,1.75-.78,2.82-3.11,4.25a19.38,19.38,0,0,0-4.12,2.94,6,6,0,0,0-1.72,2.66h6.07c1.51,0,2-.46,2.46-2.22l.63.14L217.79,17Z"/>
        <path class="cls-1" d="M222,17a8.81,8.81,0,0,1,1.56-4.1c.82-1.17,1.7-2,4.39-4.2a6.45,6.45,0,0,0,1.59-1.63A3.44,3.44,0,0,0,230,5.31a2.76,2.76,0,0,0-2.85-3A2.44,2.44,0,0,0,224.68,4a5.37,5.37,0,0,0-.21,1.53c0,.72-.27.9-1,.9s-1.07-.25-1.07-.86c0-2.16,2.1-3.78,4.91-3.78a5,5,0,0,1,4,1.58A3.35,3.35,0,0,1,232,5.58c0,1.75-.78,2.82-3.11,4.25a19.38,19.38,0,0,0-4.12,2.94,6,6,0,0,0-1.72,2.66h6.07c1.51,0,2-.46,2.46-2.22l.63.14L231.65,17Z"/>
        <path class="cls-1" d="M252.23,7.66h3.15l1.26-1.34c.78.63,1,.82,1.78,1.49a.28.28,0,0,1,.11.17c0,.08-.13.17-.25.17h-6v4.72h4.41c.57-.65.76-.84,1.34-1.47.89.67,1.16.88,2,1.58.08.08.12.14.12.19a.21.21,0,0,1-.23.18h-7.6V16c0,.61,0,.69.08,2.92,0,.33-.25.42-1.07.42-.46,0-.58-.07-.61-.34.05-.73.11-2.33.11-3V13.35h-7.68c-.57,0-1.5.05-2,.09l-.13-.74a12.67,12.67,0,0,0,2.13.17h1.8v-4a19.75,19.75,0,0,0-.06-2.16,18.19,18.19,0,0,1,1.87,1h4.07V3.8H246a19.88,19.88,0,0,1-4.28,4.68l-.21-.23a14.6,14.6,0,0,0,1.89-2.46A22.06,22.06,0,0,0,246.16,0c2.33.76,2.46.82,2.46,1a.28.28,0,0,1-.15.23,3.64,3.64,0,0,1-.94.19l-1.26,1.89h9.82c.55-.63.72-.82,1.26-1.41.84.65,1.1.84,2,1.55a.35.35,0,0,1,.1.17c0,.11-.1.17-.23.17h-7Zm-5.86.49v4.72h4.37V8.15Z"/>
        <path class="cls-1" d="M274.64,9.2a5.86,5.86,0,0,1,2.35.58A3.54,3.54,0,0,1,278.88,13c0,2.58-2.08,4.3-5.21,4.3-2.73,0-4.76-1.3-4.76-3,0-.67.37-1,1.19-1,.61,0,.84.21.89.8a2.69,2.69,0,0,0,.52,1.89,2.65,2.65,0,0,0,2.08.78c2.08,0,3.29-1.39,3.29-3.76a3.26,3.26,0,0,0-1.4-3,5.59,5.59,0,0,0-2.44-.5h-.92V8.8H273a4.29,4.29,0,0,0,2.29-.63,3.07,3.07,0,0,0,1.2-2.67A4,4,0,0,0,276,3.4a2.32,2.32,0,0,0-2.18-1c-1.57,0-2.37.82-2.48,2.5,0,.8-.23,1-1,1s-1.12-.23-1.12-.8c0-1.78,2.08-3.28,4.58-3.28,2.67,0,4.62,1.56,4.62,3.68a3.31,3.31,0,0,1-1.72,2.85,7,7,0,0,1-2.1.7Z"/>
        <path class="cls-1" d="M293.37,11.49a12.74,12.74,0,0,1-1.32,4.26,10.87,10.87,0,0,1-2.94,3.52l-.19-.19a12.94,12.94,0,0,0,2.73-5.56,36,36,0,0,0,.5-7.28c0-2.88,0-4.73-.12-5.92.84.48,1.11.62,1.93,1.15h7.83c.27-.34.55-.67.8-.95.61.4.77.53,1.36,1,.28.21.32.25.32.31s-.07.15-.82.61V11c0,3.28,0,3.28,0,6.24,0,1.07-.38,1.34-2.44,1.84a1.15,1.15,0,0,0-.86-1.07,14,14,0,0,0-2.73-.52v-.34c1.7.09,1.87.09,4.1.15h.06l.08,0s0,0,.19-.08.07-.07.07-.21V11.49Zm8.57-4.79h-8.3a34.46,34.46,0,0,1-.19,4.3h8.49Zm0-4.75h-8.23c0,.34,0,1.77,0,4.26h8.27Z"/>
        <path class="cls-1" d="M315.78,17a8.69,8.69,0,0,1,1.55-4.1c.82-1.17,1.7-2,4.39-4.2a6.72,6.72,0,0,0,1.6-1.63,3.54,3.54,0,0,0,.46-1.77,2.77,2.77,0,0,0-2.86-3A2.44,2.44,0,0,0,318.42,4a6.22,6.22,0,0,0-.21,1.53c0,.72-.27.9-1,.9s-1.07-.25-1.07-.86c0-2.16,2.1-3.78,4.91-3.78a5,5,0,0,1,4,1.58,3.4,3.4,0,0,1,.67,2.22c0,1.75-.78,2.82-3.11,4.25a18.94,18.94,0,0,0-4.11,2.94,5.83,5.83,0,0,0-1.72,2.66h6.07c1.51,0,2-.46,2.45-2.22l.63.14L325.39,17Z"/>
        <path class="cls-1" d="M330.69,4.12a4.69,4.69,0,0,1,8.12,0A11.53,11.53,0,0,1,340,9.55a11.65,11.65,0,0,1-1.2,5.44,4.45,4.45,0,0,1-4.05,2.33A4.49,4.49,0,0,1,330.69,15a11.71,11.71,0,0,1-1.2-5.44A11.64,11.64,0,0,1,330.69,4.12Zm4.07,12.66c2.25,0,3.23-2.21,3.23-7.23s-1-7.22-3.23-7.22-3.23,2.23-3.23,7.24S332.51,16.78,334.76,16.78Z"/>
        <path class="cls-1" d="M352.21,4.41c0-1.55,0-2.08-.06-3.47A18.84,18.84,0,0,1,353.83,2h8.8c.37-.42.48-.55.86-.95.59.4.77.53,1.34,1,.17.12.23.2.23.27s-.19.29-.71.59l0,6.65c0,1.62,0,4.52.14,8.69v.07a.25.25,0,0,1-.16.23,4.78,4.78,0,0,1-1.14.14c-.29,0-.35,0-.35-.14V17H353.7v1.43a.22.22,0,0,1-.06.18,3,3,0,0,1-1.26.19c-.23,0-.29-.06-.31-.27.08-1.89.08-2.18.1-6.65Zm10.61-1.93H353.7V9.07h9.12ZM353.7,9.55v7h9.12v-7Z"/>
        <path class="cls-1" d="M373.49,3.86a3.44,3.44,0,0,0,2.62,1,11.1,11.1,0,0,0,2.25-.27,5.72,5.72,0,0,0,.73-2.14c0-.57-.4-.91-1.49-1.18a1.68,1.68,0,0,1,.95-.23,4.42,4.42,0,0,1,1.63.36c.53.21.76.44.76.69s-.09.29-.34.61-.44.63-.61.86a9.69,9.69,0,0,1-.52.82,6.93,6.93,0,0,0,3-1.35.63.63,0,0,1,.4-.14c.82,0,1.41.29,1.41.69s-.27.46-.9.67a34.26,34.26,0,0,1-4.58,1.2c-.38.52-.63.9-1.11,1.64s-.74,1.11-1.14,1.67a5.76,5.76,0,0,1,2.71-.83A2.32,2.32,0,0,1,381.63,10c.36-.16.36-.16,2.06-1,2.08-1,2.58-1.39,2.58-1.77s-.35-.73-1-1a1,1,0,0,1,.48-.13,3,3,0,0,1,2.37,2.12c0,.38-.17.52-.75.65A34.6,34.6,0,0,0,381.78,11c0,.68,0,.8,0,1.71a5.62,5.62,0,0,1-.17,1.8.66.66,0,0,1-.59.4.63.63,0,0,1-.67-.63,2.43,2.43,0,0,1,0-.36,18.38,18.38,0,0,0,.15-2.24,10.92,10.92,0,0,0-2.46,1.65,2.85,2.85,0,0,0-1,2c0,1.13,1.16,1.68,3.51,1.68a15.1,15.1,0,0,0,4.22-.59,1.68,1.68,0,0,1,.4-.06c.65,0,1.47.58,1.47,1.05,0,.27-.23.48-.65.56a23.07,23.07,0,0,1-3.76.3,10.83,10.83,0,0,1-4.26-.61,2.32,2.32,0,0,1-1.56-2.23,4,4,0,0,1,1.52-2.87,14.38,14.38,0,0,1,2.6-1.87A3.54,3.54,0,0,0,380.25,9a1.2,1.2,0,0,0-1.08-.63c-1.38,0-3,1.11-4.55,3-.4.55-.57.67-.78.67s-.56-.44-.56-1.11c0-.44,0-.46.6-.94a16.79,16.79,0,0,0,3.91-4.52,7.59,7.59,0,0,1-1.41.13,3.41,3.41,0,0,1-3.13-1.62Z"/>
        <path class="cls-1" d="M398.81,4.79l1-1.2c.61.57.79.76,1.36,1.37,0,.06.09.12.09.16s-.13.15-.26.15h-2.91V9.66c1.4-.46,1.49-.49,2.28-.78l.15.23a18.68,18.68,0,0,1-2.43,1.54v3.4c0,2.64,0,2.64,0,3.59,0,.63-.13.92-.47,1.17a4.09,4.09,0,0,1-1.53.55c-.06-.59-.14-.76-.5-.93a7.72,7.72,0,0,0-1.85-.5v-.31c1.37.06,1.66.06,2.63.08h.08c.12,0,.19-.06.19-.23V11.3l-1.79.81c-.06.64-.16.87-.37.87s-.15-.07-.21-.23-.24-.68-.66-1.92a19.74,19.74,0,0,0,3-.71V5.27h-1.47a5.66,5.66,0,0,0-1.3.13l-.19-.8a4.88,4.88,0,0,0,1.49.19h1.47V2.35A13.77,13.77,0,0,0,396.52,0c2.23.3,2.33.32,2.33.55s-.12.25-.77.46V4.79Zm10.71,5.86h.31c.53-.64.7-.82,1.24-1.39a23.14,23.14,0,0,1,1.83,1.53.35.35,0,0,1,.1.19c0,.09-.1.15-.23.15h-3.25V14.3c0,.9,0,1.59,0,2.08s0,.65,0,1.24c0,1-.25,1.21-2.39,1.72-.23-1-.51-1.09-3.24-1.54l0-.31c1.26.1,1.89.15,2.88.15.19,0,.55,0,1,0,.27,0,.35-.07.35-.32V11.13h-6.34a12.37,12.37,0,0,0-1.76.12l-.17-.77a12.8,12.8,0,0,0,1.93.17h6.34V7.83h-6.34a14.34,14.34,0,0,0-1.76.11l-.15-.78a8.58,8.58,0,0,0,1.91.19h3.34V3.93h-2.1a10.35,10.35,0,0,0-1.8.14l-.17-.79a11.72,11.72,0,0,0,2,.16h2.1V1.72c0-.88,0-1,0-1.72,1.85.21,2.35.34,2.35.52s-.21.3-.94.47V3.44h2.54A18.35,18.35,0,0,1,410.23,2c.82.69,1.07.9,1.89,1.61a.47.47,0,0,1,.09.17c0,.06-.11.15-.21.15h-5.48V7.35h3.27c.46-.63.61-.82,1.11-1.41.78.67,1,.88,1.75,1.6a.37.37,0,0,1,.08.17c0,.08-.1.12-.27.12h-2.94Zm-7.79,1.17a11.44,11.44,0,0,1,2.62,1.55,1.45,1.45,0,0,1,.65,1c0,.74-.44,1.66-.79,1.66-.19,0-.23-.06-.55-.82a10.08,10.08,0,0,0-2.1-3.17Z"/>
        <path class="cls-1" d="M418.11,4.54a3.19,3.19,0,0,0,2.81,1.15,8.78,8.78,0,0,0,1.5-.13c.06-.31.06-.31.31-1.51A13.76,13.76,0,0,0,423,2.31c0-.67-.48-1-1.57-1.09a1.37,1.37,0,0,1,1.05-.4,4.87,4.87,0,0,1,2,.46c.4.19.63.46.63.74s0,.27-.31.63a11.15,11.15,0,0,0-1.28,2.79,8.3,8.3,0,0,0,3.71-1.39c.17-.17.23-.19.4-.19a3.82,3.82,0,0,1,1,.19c.31.13.46.28.46.49s-.34.6-1.18.92a18.64,18.64,0,0,1-4.7,1.07,26.84,26.84,0,0,0-.9,5.77,14.55,14.55,0,0,1,6.32-1.91c2.37,0,4,1.22,4,3,0,1.68-1.2,3.08-3.36,4a15.94,15.94,0,0,1-6.14,1l0-.29a21.77,21.77,0,0,0,3.28-.67c3-.91,4.6-2.44,4.6-4.37,0-1.28-.84-2-2.31-2a8,8,0,0,0-4.66,1.81,4.24,4.24,0,0,0-1.22,1.28.54.54,0,0,1-.46.27c-.55,0-1.24-.92-1.24-1.63,0-.36.69-4.06,1.17-6.22a7.93,7.93,0,0,1-.88.06,3.51,3.51,0,0,1-3.48-1.91Z"/>
        <path class="cls-1" d="M441.59,4.24A4.28,4.28,0,0,0,445,5.38a19.16,19.16,0,0,0,3-.26c-.08-3.21-.23-3.5-1.83-3.73.3-.3.47-.34,1.05-.34a6.14,6.14,0,0,1,1.77.27c.5.17.71.38.71.7,0,.12,0,.12-.27.71A6.65,6.65,0,0,0,449,5a10.84,10.84,0,0,0,3.91-1.24.51.51,0,0,1,.25-.09,2.65,2.65,0,0,1,1.09.36c.23.15.36.31.36.5s-.34.47-1.64.78A33.28,33.28,0,0,1,449,6c0,.55,0,.87,0,1.35s0,1,0,1.91a17.86,17.86,0,0,0,2.39-.57,3.32,3.32,0,0,0,1.05-.52.48.48,0,0,1,.32-.09,2.42,2.42,0,0,1,1.07.32.42.42,0,0,1,.25.4c0,.37-.29.54-1.62.9a22.37,22.37,0,0,1-3.42.61c0,.82,0,1.15.06,1.89s.07,1.11.13,1.64a10.88,10.88,0,0,1,4.62,1.8,1.82,1.82,0,0,1,.61,1.39c0,.44-.19.73-.46.73s-.3-.06-.84-.59a12.94,12.94,0,0,0-1.77-1.3,7.45,7.45,0,0,0-2.1-.88,8.1,8.1,0,0,1,.07.93,2.11,2.11,0,0,1-.72,1.76,4.74,4.74,0,0,1-2.81.78c-2.1,0-3.55-.93-3.55-2.25,0-1.49,1.95-2.54,4.74-2.54.34,0,.55,0,1.06,0,0-1,0-1.16,0-1.45V10.41c-.84.05-1.23.07-1.55.07a5.66,5.66,0,0,1-2.79-.47,1.81,1.81,0,0,1-.95-1.59,5,5,0,0,1,.05-.59l.31,0c0,.65.13,1,.44,1.2a4.49,4.49,0,0,0,2.46.46,16.32,16.32,0,0,0,2-.15V7.89l0-1.53V6.11c-1.15.1-2,.15-2.71.15-2,0-2.85-.4-3.9-1.81Zm4.66,10.33A6.58,6.58,0,0,0,444,15c-.75.29-1.13.71-1.13,1.26,0,.76.86,1.2,2.29,1.2a3.51,3.51,0,0,0,2.39-.76,1.6,1.6,0,0,0,.46-1.09c0-.15,0-.63,0-.8v-.06A11.64,11.64,0,0,0,446.25,14.57Z"/>
        <path class="cls-1" d="M477.87,13.92c-2,2.73-4.76,4.35-7.37,4.35A3.8,3.8,0,0,1,467,16.48a7.16,7.16,0,0,1-.59-3.55c0-1.15.06-3.15.17-5.06.12-2.26.15-2.85.15-3.61,0-1.8-.21-2.16-1.71-2.79a.86.86,0,0,1,.59-.21,5.25,5.25,0,0,1,1.89.48c.8.38,1.22.8,1.22,1.24a2.19,2.19,0,0,1-.19.76,64.69,64.69,0,0,0-1.09,10.08,3,3,0,0,0,.84,2.51,3.06,3.06,0,0,0,1.87.57A10.91,10.91,0,0,0,475,15.56a13.49,13.49,0,0,0,2.66-1.87Z"/>
        <path class="cls-1" d="M485.67,5.08a1.19,1.19,0,0,0,.94.36c.59,0,1.11-.11,5.82-1.24.88-.21,2-.46,3.4-.74a21.4,21.4,0,0,0,2.83-.67,2.94,2.94,0,0,1,.74-.17,2.73,2.73,0,0,1,1.13.45c.42.27.61.5.61.79s-.25.53-.65.53a2.91,2.91,0,0,1-.38,0,3.24,3.24,0,0,0-.59,0,7.43,7.43,0,0,0-7,6.94,4.26,4.26,0,0,0,2.77,4.14,6.64,6.64,0,0,0,2.14.51,1.06,1.06,0,0,1,.88.33,1.84,1.84,0,0,1,.63,1c0,.36-.31.59-.77.59a8.65,8.65,0,0,1-4.26-1.52,5.54,5.54,0,0,1-2.44-4.7,7.81,7.81,0,0,1,2.29-5.12,10.67,10.67,0,0,1,3.42-2.39,34.29,34.29,0,0,0-6,1.44,22.86,22.86,0,0,0-3.35,1.35,1.39,1.39,0,0,1-.84.29A2.3,2.3,0,0,1,485.29,6a3,3,0,0,1-.55-1.4A.87.87,0,0,1,485,4,2.3,2.3,0,0,0,485.67,5.08Z"/>
        <path class="cls-1" d="M165.61,49.66a18.08,18.08,0,0,0,3.08-2.5,29.82,29.82,0,0,0,4.62-5.67A5.48,5.48,0,0,0,174,40c2.32.52,2.48.59,2.48.75s-.33.36-.8.38a13.93,13.93,0,0,0,4.56,4.54,14.83,14.83,0,0,0,5.06,2.1v.21c-.86.23-1.11.52-1.51,1.72a18.14,18.14,0,0,1-4.68-3.36,24.88,24.88,0,0,1-2.9-3.44,7.11,7.11,0,0,1-.88-1.58,24.87,24.87,0,0,1-4.54,5.27,22,22,0,0,1-5,3.4Zm9.07,2.25a37.69,37.69,0,0,1-3.59,4.87c3.27-.05,6.46-.21,8.54-.45a20.86,20.86,0,0,0-2.73-3.25l.17-.21a24,24,0,0,1,4.2,3.15,2,2,0,0,1,.8,1.47,3.16,3.16,0,0,1-.34,1.3.44.44,0,0,1-.35.21c-.15,0-.24-.08-.36-.31a18.07,18.07,0,0,0-1.09-1.91,104.16,104.16,0,0,1-11.28,1.61c-.21.63-.27.74-.44.74s-.17-.05-.25-.4c-.13-.57-.32-1.43-.42-2l1.7.07c.36,0,.63,0,.88,0a3.24,3.24,0,0,0,.38,0,30.57,30.57,0,0,0,2.25-4.87h-4.27A7,7,0,0,0,167,52l-.16-.78a6.44,6.44,0,0,0,1.65.17H180.6c.5-.67.65-.86,1.15-1.47.91.67,1.18.9,2,1.62a1.93,1.93,0,0,1,.1.19.17.17,0,0,1-.18.15Zm-4.77-4.14a9.89,9.89,0,0,0,1.7.17h5.29c.51-.63.65-.82,1.18-1.41.84.67,1.11.88,1.93,1.57.08.07.13.13.13.19s-.09.13-.28.13h-8.35c-.36,0-.68,0-1.45.08Z"/>
        <path class="cls-1" d="M188.2,58.64a12.59,12.59,0,0,0,2.21-2.75,12.88,12.88,0,0,0,1-2c1.63.57,1.93.69,1.93.88s-.17.23-.8.34a17.57,17.57,0,0,1-4.09,3.8Zm7.29-15.18V42.23c0-.61,0-1.29-.08-1.94,2,.19,2.22.23,2.22.49s-.17.25-.78.46v2.22h.49l.94-1.13,1.39,1.3a.32.32,0,0,1,.08.19c0,.09-.06.13-.27.13h-2.63v8.86h.36a8.74,8.74,0,0,1,.9-1.24c.55.59.74.78,1.28,1.38a1.06,1.06,0,0,1,.05.19c0,.11-.05.15-.23.15h-9.29a9.83,9.83,0,0,0-1.49.11l-.1-.76a6,6,0,0,0,1.72.17h.61V44h-1a4,4,0,0,0-1.24.14l-.1-.79a4.74,4.74,0,0,0,1.34.16h1V42.6c0-.71,0-1.7-.11-2.37,2,.21,2.34.27,2.34.51s-.19.29-.89.46v2.26Zm-3.49,3h3.49V44H192Zm0,3h3.49V46.91H192Zm0,3.38h3.49v-2.9H192Zm2.61,1.3c2,.73,2.85,1.34,2.85,2.06,0,.56-.27,1.13-.54,1.13s-.28-.06-.63-.78a14.33,14.33,0,0,0-1-1.42,9.43,9.43,0,0,0-.86-.89Zm6.59-2.88a13,13,0,0,1-1.26,4.43,11.2,11.2,0,0,1-2.73,3.53l-.34-.23a12.11,12.11,0,0,0,2.65-5.1c.42-1.7.57-4,.57-8.32a37.9,37.9,0,0,0-.13-5,12.81,12.81,0,0,1,1.7,1h3.09c.33-.42.46-.56.8-1,.56.37.73.48,1.26.88.16.13.23.21.23.31s-.19.36-.7.61v11.8l0,1.22c0,.38,0,.84,0,1.43a2.41,2.41,0,0,1-.17,1.09c-.3.55-.67.73-2.12,1a1.41,1.41,0,0,0-.53-1,3.4,3.4,0,0,0-1.93-.52l0-.36c2.08.15,2.08.15,3,.15.23,0,.32-.13.32-.4V51.23Zm.21-4.66a37.21,37.21,0,0,1-.15,4.18h3.68V46.57Zm3.53-.48V42h-3.53c0,.75,0,1.15,0,1.51,0,.17,0,1.13,0,2.54Z"/>
        <path class="cls-1" d="M213.17,43.86a3.46,3.46,0,0,0,2.63,1,10.94,10.94,0,0,0,2.24-.27,5.78,5.78,0,0,0,.74-2.14c0-.57-.4-.91-1.49-1.18a1.63,1.63,0,0,1,.94-.23,4.51,4.51,0,0,1,1.64.36c.52.21.75.44.75.69s-.08.29-.33.61-.44.63-.61.86c-.38.61-.38.61-.52.82a6.93,6.93,0,0,0,3-1.35.59.59,0,0,1,.4-.14c.82,0,1.4.29,1.4.69s-.27.46-.9.67a33.87,33.87,0,0,1-4.58,1.2c-.37.52-.63.9-1.11,1.64s-.73,1.11-1.13,1.67a5.73,5.73,0,0,1,2.71-.83A2.32,2.32,0,0,1,221.32,50c.35-.16.35-.16,2.06-1,2.07-1.05,2.58-1.39,2.58-1.77s-.36-.73-1-1a1,1,0,0,1,.49-.13,3,3,0,0,1,2.37,2.12c0,.38-.17.52-.76.65A34.6,34.6,0,0,0,221.46,51c0,.68,0,.8,0,1.71a5.94,5.94,0,0,1-.17,1.8.68.68,0,0,1-.59.4.63.63,0,0,1-.67-.63,2.43,2.43,0,0,1,0-.36,20.65,20.65,0,0,0,.15-2.24,10.68,10.68,0,0,0-2.46,1.65,2.85,2.85,0,0,0-1,2c0,1.13,1.16,1.68,3.51,1.68a15.1,15.1,0,0,0,4.22-.59,1.55,1.55,0,0,1,.4-.06c.65,0,1.47.58,1.47,1,0,.27-.24.48-.66.56a22.94,22.94,0,0,1-3.75.3,10.76,10.76,0,0,1-4.26-.61,2.3,2.3,0,0,1-1.56-2.23,4,4,0,0,1,1.51-2.87,15,15,0,0,1,2.61-1.87,3.52,3.52,0,0,0-.3-1.66,1.19,1.19,0,0,0-1.07-.63c-1.38,0-3,1.11-4.55,3-.4.55-.57.67-.78.67S213,51.67,213,51c0-.44,0-.46.61-.94a17,17,0,0,0,3.91-4.52,7.66,7.66,0,0,1-1.41.13,3.4,3.4,0,0,1-3.13-1.62Z"/>
        <path class="cls-1" d="M233.37,58.33a29.76,29.76,0,0,0,.65-3,29.35,29.35,0,0,0,.36-3.3,4.3,4.3,0,0,0,0-.46c1.72.23,2.06.32,2.06.52s-.17.26-.69.38a17.68,17.68,0,0,1-2,6ZM237,49.89c-.9.21-1.3.29-2.43.52,0,.57-.13.76-.27.76s-.24-.06-.74-2c.92,0,1.2,0,2.18-.08a27.12,27.12,0,0,0,2.08-3,18.94,18.94,0,0,0,1.64-3.47c2.08.67,2.1.67,2.1.86s-.21.23-.82.3a40.92,40.92,0,0,1-4.37,5.31c2.48-.17,2.57-.19,3.49-.3-.32-.69-.48-1-.9-1.78l.23-.1a11.06,11.06,0,0,1,1.38,1.28c.7.75,1,1.19,1,1.61s-.42,1.26-.71,1.26-.21-.06-.42-.75c-.07-.23-.21-.65-.38-1.1-.59.13-.59.13-1.77.42v4c0,3.13,0,3.2,0,5.5,0,.15-.05.22-.15.26l-1,.08a.2.2,0,0,1-.21-.19v0c0-1.47.06-4.3.06-5.52Zm-1.55-5.67a16,16,0,0,0,1.68-4.09c1.74.52,2.18.71,2.18.88s-.21.25-.94.29a22.06,22.06,0,0,1-2.54,3.17l.17.13c.63.44.88.78.88,1.15S236.5,47,236.27,47s-.23-.13-.35-.4a11,11,0,0,0-2.23-3.11l.15-.23a6.2,6.2,0,0,1,.92.55Zm3.93,7.08a13.26,13.26,0,0,1,1.93,4.11c0,.67-.57,1.62-1,1.62-.16,0-.21-.11-.29-.74a22.09,22.09,0,0,0-1-4.91Zm9.42-8.42a14.14,14.14,0,0,1,1-1,14.71,14.71,0,0,1,1.3,1c.19.14.27.25.27.35s-.29.34-1,.49a26.77,26.77,0,0,1-3.09,4.22,8.4,8.4,0,0,0,1.81,1.23,11,11,0,0,0,4.11,1.35v.25c-.92.32-1.26.63-1.45,1.47a14.18,14.18,0,0,1-5.1-3.65,20.67,20.67,0,0,1-6.07,4.13l-.16-.31a23.67,23.67,0,0,0,5.52-4.7A14.72,14.72,0,0,1,244,44.47,14.1,14.1,0,0,1,241,47.94l-.21-.23a15.35,15.35,0,0,0,2.41-4.22,21.42,21.42,0,0,0,1.07-3.39c.42.11.8.22,1,.26,1,.27,1.22.35,1.22.52s-.19.21-.91.36c-.35.84-.5,1.13-.75,1.64Zm-6,12.22a35.57,35.57,0,0,1,4.39,1.13c2.23.71,2.64.9,2.94,1.39a2.26,2.26,0,0,1,.27,1.07c0,.46-.17.84-.36.84s-.21-.05-.6-.38a25.43,25.43,0,0,0-6.74-3.76Zm1.81-11.74c-.21.38-.23.42-.38.65a10.86,10.86,0,0,0,2.2,3.09,16.57,16.57,0,0,0,2.36-3.74Zm.12,7.73a15,15,0,0,1,3.59,1.63,1.24,1.24,0,0,1,.59,1.14c0,.63-.19,1.13-.4,1.13s-.23-.08-.46-.38a15.06,15.06,0,0,0-3.48-3.27Z"/>
        <path class="cls-1" d="M270.37,41.7l1.09-1.15c.93.67,1.2.88,2,1.55a.61.61,0,0,1,.25.38.33.33,0,0,1-.1.17c-.15.1-.34.14-1.49.25a57.72,57.72,0,0,1-5.59,3.42c.57.17.72.25.72.38s-.28.35-.93.52v5l.07,5.06c-.05.69-.15.94-.49,1.22a4.62,4.62,0,0,1-2.29.71c-.19-.71-.29-.88-.69-1.09a9.17,9.17,0,0,0-3.42-.69v-.32c1,0,1,0,2.85.11l2,.06h.06c.27,0,.4-.13.4-.38V47.73a13.77,13.77,0,0,0-.13-1.85c.63.12.93.21,1.33.29,1.51-1.28,3.29-3,4.24-4H259.52a12.88,12.88,0,0,0-2.27.17l-.19-.82a14.18,14.18,0,0,0,2.46.17Z"/>
        <path class="cls-1" d="M287,49.34c-1.54,3.53-2,4.77-2,5.61a2.39,2.39,0,0,0,.13.71,2,2,0,0,1,0,.34.49.49,0,0,1-.46.52,3.91,3.91,0,0,1-2.31-1.78,9.55,9.55,0,0,1-1.43-4.2,23.13,23.13,0,0,1-.15-3.7c0-2-.16-2.43-1.07-3.61H280a3.11,3.11,0,0,1,1.58,1,2.53,2.53,0,0,1,.94,1.66,3.85,3.85,0,0,1-.06.55,16.53,16.53,0,0,0-.38,3.12,9.12,9.12,0,0,0,.48,3,3.12,3.12,0,0,0,1.09,1.64,12.27,12.27,0,0,0,.7-1.11l1.76-3c.34-.54.34-.54.61-1Zm4.47-3.8a6.55,6.55,0,0,1,4.74,6.28c0,1-.42,1.66-1.05,1.66a1,1,0,0,1-.63-.23A2.77,2.77,0,0,0,293,53c-.48,0-.88,0-1.6,0l-.06-.32c1.7-.46,2.64-.73,2.83-.79.42-.15.49-.24.49-.63a7.72,7.72,0,0,0-.65-2.75,5.87,5.87,0,0,0-2.61-2.76Z"/>
        <path class="cls-1" d="M302.17,45.4a2.88,2.88,0,0,0,2.31,1.15,9.94,9.94,0,0,0,2.67-.4,15,15,0,0,0,.71-3.55c0-.65-.32-.92-1.49-1.32a1.09,1.09,0,0,1,.65-.19,5.41,5.41,0,0,1,1.81.4c.63.23.94.53.94.84,0,.15,0,.15-.25.5a17.5,17.5,0,0,0-1.26,3,7.12,7.12,0,0,0,2.43-1.28c.34-.32.42-.36.59-.36a3.79,3.79,0,0,1,1.12.23c.23.08.33.21.33.38,0,.36-.33.63-1.22,1a24.28,24.28,0,0,1-3.67,1.21c-.25.72-.25.72-.88,2.67-.42,1.26-.42,1.26-1.58,4.68-.84,2.5-1.11,3-1.55,3-.21,0-.36-.13-.48-.42a3.13,3.13,0,0,1-.3-1.22c0-.34,0-.4.46-1,1.05-1.53,1.87-3.36,3.3-7.52a10.58,10.58,0,0,1-2,.21,3,3,0,0,1-2.87-1.89Zm8.38,7.24c0,.31,0,.57,0,.65a2.58,2.58,0,0,0,1.59,2.54,6,6,0,0,0,2.25.4,5,5,0,0,0,2-.31.88.88,0,0,1,.36-.09,2.39,2.39,0,0,1,1.07.5.84.84,0,0,1,.38.59c0,.46-.82.7-2.48.7a9.34,9.34,0,0,1-3.88-.68,3.18,3.18,0,0,1-1.79-3,4.17,4.17,0,0,1,.19-1.32Zm.56-3.89a9.73,9.73,0,0,1,4.88-1.4,2.57,2.57,0,0,1,1.32.38.67.67,0,0,1,.33.58c0,.34-.18.47-.79.49a3,3,0,0,0-1.62.42,9.65,9.65,0,0,0-1.15.71c-.4.25-.4.25-.74.44l-.13-.19,1-.94c.19-.17.38-.34,1-1a10.84,10.84,0,0,0-4,.78Z"/>
        <path class="cls-1" d="M340.07,53.92c-2,2.73-4.76,4.35-7.37,4.35a3.8,3.8,0,0,1-3.48-1.79,7.16,7.16,0,0,1-.59-3.55c0-1.15.06-3.15.17-5.06.12-2.26.14-2.85.14-3.61,0-1.8-.21-2.16-1.7-2.79a.84.84,0,0,1,.59-.21,5.3,5.3,0,0,1,1.89.48c.8.38,1.22.8,1.22,1.24a2.19,2.19,0,0,1-.19.76,64.69,64.69,0,0,0-1.09,10.08,3,3,0,0,0,.84,2.51,3.06,3.06,0,0,0,1.87.57,10.87,10.87,0,0,0,4.78-1.34,13.24,13.24,0,0,0,2.67-1.87Z"/>
        <path class="cls-1" d="M348.81,44.24a4.28,4.28,0,0,0,3.38,1.14,19.16,19.16,0,0,0,3-.26c-.08-3.21-.23-3.5-1.82-3.73.29-.3.46-.34,1.05-.34a6.12,6.12,0,0,1,1.76.27c.5.17.71.38.71.7,0,.12,0,.12-.27.71a6.92,6.92,0,0,0-.38,2.23,10.76,10.76,0,0,0,3.91-1.24.51.51,0,0,1,.25-.09,2.65,2.65,0,0,1,1.09.36c.23.15.36.31.36.5s-.34.47-1.64.78a33.28,33.28,0,0,1-4,.73c0,.55,0,.87,0,1.35s0,1,0,1.91a17.86,17.86,0,0,0,2.39-.57,3.22,3.22,0,0,0,1.05-.52.48.48,0,0,1,.32-.09,2.42,2.42,0,0,1,1.07.32.42.42,0,0,1,.25.4c0,.37-.29.54-1.61.9a22.5,22.5,0,0,1-3.43.61c0,.82,0,1.15.07,1.89s.06,1.11.12,1.64a10.88,10.88,0,0,1,4.62,1.8,1.82,1.82,0,0,1,.61,1.39c0,.44-.19.73-.46.73s-.3-.06-.84-.59a12.94,12.94,0,0,0-1.77-1.3A7.39,7.39,0,0,0,356.5,55c0,.46.06.67.06.93a2.08,2.08,0,0,1-.72,1.76,4.72,4.72,0,0,1-2.81.78c-2.1,0-3.55-.93-3.55-2.25,0-1.49,1.95-2.54,4.75-2.54.33,0,.54,0,1,0,0-1,0-1.16,0-1.45V50.41c-.84.05-1.24.07-1.56.07a5.66,5.66,0,0,1-2.79-.47,1.81,1.81,0,0,1-1-1.59c0-.15,0-.36.05-.59l.31,0c0,.65.13.95.44,1.2a4.49,4.49,0,0,0,2.46.46,16.46,16.46,0,0,0,2-.15V47.89l-.05-1.53v-.25c-1.15.1-2,.15-2.71.15-2,0-2.85-.4-3.9-1.81Zm4.66,10.33a6.58,6.58,0,0,0-2.29.4c-.75.29-1.13.71-1.13,1.26,0,.76.86,1.2,2.29,1.2a3.47,3.47,0,0,0,2.39-.76,1.6,1.6,0,0,0,.46-1.09c0-.15.05-.63.05-.8v-.06A11.76,11.76,0,0,0,353.47,54.57Z"/>
        <path class="cls-1" d="M385.1,53.92c-2,2.73-4.77,4.35-7.37,4.35a3.8,3.8,0,0,1-3.49-1.79,7.16,7.16,0,0,1-.59-3.55c0-1.15.07-3.15.17-5.06.13-2.26.15-2.85.15-3.61,0-1.8-.21-2.16-1.7-2.79a.83.83,0,0,1,.59-.21,5.35,5.35,0,0,1,1.89.48c.79.38,1.21.8,1.21,1.24a2.19,2.19,0,0,1-.19.76,65.93,65.93,0,0,0-1.09,10.08,3,3,0,0,0,.84,2.51,3.08,3.08,0,0,0,1.87.57,10.91,10.91,0,0,0,4.79-1.34,13.49,13.49,0,0,0,2.66-1.87Z"/>
        <path class="cls-1" d="M392.22,45.4a2.87,2.87,0,0,0,2.31,1.15,9.82,9.82,0,0,0,2.66-.4,15.1,15.1,0,0,0,.72-3.55c0-.65-.32-.92-1.49-1.32a1.07,1.07,0,0,1,.65-.19,5.36,5.36,0,0,1,1.8.4c.63.23.95.53.95.84,0,.15,0,.15-.25.5a16.7,16.7,0,0,0-1.26,3,7.12,7.12,0,0,0,2.43-1.28c.34-.32.42-.36.59-.36a3.73,3.73,0,0,1,1.11.23c.23.08.34.21.34.38,0,.36-.34.63-1.22,1a24.28,24.28,0,0,1-3.67,1.21c-.26.72-.26.72-.89,2.67l-1.57,4.68c-.84,2.5-1.11,3-1.55,3-.21,0-.36-.13-.49-.42a3.3,3.3,0,0,1-.29-1.22c0-.34,0-.4.46-1,1.05-1.53,1.87-3.36,3.3-7.52a10.58,10.58,0,0,1-2,.21A3,3,0,0,1,392,45.56Zm8.37,7.24c0,.31,0,.57,0,.65a2.59,2.59,0,0,0,1.6,2.54,6,6,0,0,0,2.25.4,5,5,0,0,0,2-.31.88.88,0,0,1,.36-.09,2.44,2.44,0,0,1,1.07.5.84.84,0,0,1,.38.59c0,.46-.82.7-2.48.7a9.31,9.31,0,0,1-3.88-.68,3.18,3.18,0,0,1-1.79-3,4.17,4.17,0,0,1,.19-1.32Zm.57-3.89a9.69,9.69,0,0,1,4.87-1.4,2.61,2.61,0,0,1,1.33.38.67.67,0,0,1,.33.58c0,.34-.19.47-.8.49a3,3,0,0,0-1.61.42,10.41,10.41,0,0,0-1.16.71l-.73.44-.13-.19c.25-.25.25-.25,1-.94.19-.17.38-.34,1-1a10.84,10.84,0,0,0-4,.78Z"/>
        <path class="cls-1" d="M419.16,56.94a2.71,2.71,0,1,1-2.71-2.7A2.68,2.68,0,0,1,419.16,56.94Zm-4.74,0a2,2,0,1,0,2-2A2,2,0,0,0,414.42,56.94Z"/>
        <path class="cls-1" d="M.69,91.49c0,.46-.06.69-.06.94,0,2.5,1.57,3.67,5,3.67a13.64,13.64,0,0,0,4.65-.77,1.09,1.09,0,0,1,.35-.07,2.32,2.32,0,0,1,1.16.42,1,1,0,0,1,.46.74c0,.31-.23.54-.67.65a24.36,24.36,0,0,1-4.9.42c-2.35,0-3.84-.29-4.89-1A4,4,0,0,1,0,93.19,5.47,5.47,0,0,1,.34,91.4Zm.65-8.3a4.92,4.92,0,0,0,3.22.93,16.63,16.63,0,0,0,4.36-.63,1.76,1.76,0,0,1,.38-.09,1.44,1.44,0,0,1,1.26,1.09c0,.36-.13.44-1.53.74a34.53,34.53,0,0,0-5.61,2.08L3.28,87c.58-.36,1-.57,1.53-.88l1.36-.73.4-.26c-.46,0-1.19.07-1.57.07a5.69,5.69,0,0,1-2.4-.57A5,5,0,0,1,1.13,83.4Zm9.58-1.85a10.7,10.7,0,0,1,1.87,1.31c.75.69,1.05,1.17,1.05,1.68s-.3.88-.65.88-.28,0-.95-1.37a9.55,9.55,0,0,0-1.59-2.22Zm2.16-1.21a9.28,9.28,0,0,1,2,1.19c.81.61,1.09,1,1.09,1.62s-.21.86-.53.86-.31-.1-.48-.4a10.92,10.92,0,0,0-2.31-3Z"/>
        <path class="cls-1" d="M30.64,89.64a21.21,21.21,0,0,0,2.56-5.29c2,.79,2,.82,2,1s-.15.23-.82.27a23.47,23.47,0,0,1-3.3,4.06h4.24a17.9,17.9,0,0,1,1.18-1.49c.92.73,1.21,1,2.1,1.78a.17.17,0,0,1,.06.11c0,.08,0,.08-.25.08H29.86a11,11,0,0,0,3.26,3.65,18.2,18.2,0,0,0,4,2.23,10.39,10.39,0,0,0,2,.61l0,.21c-.9.21-1.17.44-1.53,1.47a15.57,15.57,0,0,1-4.2-3,16.3,16.3,0,0,1-3.5-4.66v3.21c0,1.26,0,1.4.06,3.21,0,1,0,1,0,1.89-.06.21-.13.25-.59.29-.1,0-.67.07-.71.07-.23,0-.34-.07-.36-.26.06-.81.06-.81.17-4.68V91.44a19.43,19.43,0,0,1-4.2,4.29,20.79,20.79,0,0,1-4.68,2.85l-.21-.29a23.77,23.77,0,0,0,5.48-4.52,17.06,17.06,0,0,0,2.75-3.65h-5.9a11.32,11.32,0,0,0-1.79.11l-.21-.84a9,9,0,0,0,2,.25h6.72V83.78h-5.5a16.62,16.62,0,0,0-2,.1l-.18-.77A9.17,9.17,0,0,0,23,83.3h5.31v-.7A18.51,18.51,0,0,0,28.18,80c1.85.21,2.44.34,2.44.59s-.23.31-.86.46V83.3h4.66c.46-.65.61-.84,1.11-1.47.9.71,1.18.94,2,1.72a.3.3,0,0,1,.08.12c0,.07-.08.11-.19.11h-7.7v5.86Zm-7.18-5.38c1.78,1.43,2.68,2.5,2.68,3.21S25.62,89,25.22,89c-.19,0-.21-.07-.36-.61a11.93,11.93,0,0,0-1.59-4Z"/>
        <path class="cls-1" d="M47,86.45c.44-.53.56-.7,1-1.18.65.55.86.73,1.47,1.32.09.11.13.15.13.21s-.08.13-.23.13H46v5.31c.92-.38,1.32-.57,2.39-1.07l.15.29c-1.2.87-1.87,1.33-2.44,1.66l-2.66,1.66c0,.78-.11,1-.32,1s-.16-.06-.23-.21-.29-.71-.82-2c.72-.19,1.49-.42,2.56-.81V86.93H43.41a6.35,6.35,0,0,0-1.35.1l-.14-.75a5.41,5.41,0,0,0,1.49.17h1.21V82.73c0-.76,0-1.18-.08-2,2,.25,2.29.31,2.29.52s-.19.28-.84.44v4.71Zm7.22,5.66a12.94,12.94,0,0,1-2.29,2.82,14.34,14.34,0,0,1-5.21,3l-.17-.32A14.52,14.52,0,0,0,51,94.53a10.74,10.74,0,0,0,1.72-2.42H50.88A17.51,17.51,0,0,1,46,95.43l-.17-.31a14,14,0,0,0,3.57-3,10.87,10.87,0,0,0,1.7-2.39H49.33a8,8,0,0,0-1.75.13l-.14-.8a7.15,7.15,0,0,0,1.89.19h9c.52-.57.69-.74,1.21-1.26a20.16,20.16,0,0,1,1.73,1.41c.08.08.12.14.12.2s-.08.13-.25.13H52.71a18.41,18.41,0,0,1-1.39,1.91H58.5a7.17,7.17,0,0,1,.78-.78,10.91,10.91,0,0,1,1.22.93.32.32,0,0,1,.17.23c0,.17-.19.32-.68.52a21.05,21.05,0,0,1-1.11,5.57,3,3,0,0,1-2.31,1.24c-.19-1.07-.42-1.22-2.5-1.51l0-.36c1.29.12,2.17.19,2.71.19s.76-.11,1-.53a20.6,20.6,0,0,0,.84-5H57.5a11.53,11.53,0,0,1-2.36,3.6,16.49,16.49,0,0,1-3.71,2.75,22.55,22.55,0,0,1-2.1,1l-.21-.29A16,16,0,0,0,54,95.31a10.28,10.28,0,0,0,2-3.2Zm-2.65-4.22c0,.3-.23.38-1,.38-.3,0-.38-.06-.38-.27,0-1.49.06-2.25.06-2.94,0-2.5,0-3.78-.06-4.54a17.46,17.46,0,0,1,1.59.93h4.9c.35-.38.46-.51.81-.86.55.38.72.5,1.2.88.15.13.21.21.21.29s-.06.19-.67.51v1.24c0,.86,0,2,0,4.22,0,.19,0,.25-.21.31a5,5,0,0,1-.88.11c-.19,0-.27-.07-.27-.23v-.53H51.53Zm5.36-6H51.53v2.16h5.36Zm-5.36,2.65v2.33h5.36V84.58Z"/>
        <path class="cls-1" d="M73.12,89.34c-1.53,3.53-2,4.77-2,5.61a2.57,2.57,0,0,0,.12.71,2,2,0,0,1,0,.34.49.49,0,0,1-.47.52,3.94,3.94,0,0,1-2.31-1.78,9.68,9.68,0,0,1-1.42-4.2,23.13,23.13,0,0,1-.15-3.7c0-2-.17-2.43-1.07-3.61h.19a3.14,3.14,0,0,1,1.57,1,2.55,2.55,0,0,1,1,1.66,3,3,0,0,1-.07.55,16.4,16.4,0,0,0-.37,3.12,8.88,8.88,0,0,0,.48,3,3.06,3.06,0,0,0,1.09,1.64c.23-.34.23-.34.69-1.11l1.77-3,.61-1Zm4.47-3.8a6.55,6.55,0,0,1,4.75,6.28c0,1-.42,1.66-1,1.66a1,1,0,0,1-.63-.23A2.79,2.79,0,0,0,79.08,93c-.48,0-.88,0-1.59,0l-.07-.32c1.71-.46,2.65-.73,2.84-.79.42-.15.48-.24.48-.63a7.52,7.52,0,0,0-.65-2.75,5.89,5.89,0,0,0-2.6-2.76Z"/>
        <path class="cls-1" d="M88.31,85.4a2.86,2.86,0,0,0,2.3,1.15,9.89,9.89,0,0,0,2.67-.4A15.1,15.1,0,0,0,94,82.6c0-.65-.32-.92-1.5-1.32a1.12,1.12,0,0,1,.66-.19,5.36,5.36,0,0,1,1.8.4c.63.23,1,.53,1,.84,0,.15,0,.15-.26.5a18.38,18.38,0,0,0-1.26,3,7.09,7.09,0,0,0,2.44-1.28c.34-.32.42-.36.59-.36a3.79,3.79,0,0,1,1.11.23c.23.08.34.21.34.38,0,.36-.34.63-1.22,1A24.43,24.43,0,0,1,94,87.05c-.25.72-.25.72-.88,2.67L91.52,94.4c-.84,2.5-1.11,3-1.56,3-.21,0-.35-.13-.48-.42a3.11,3.11,0,0,1-.29-1.22c0-.34,0-.4.46-1,1-1.53,1.87-3.36,3.3-7.52a10.58,10.58,0,0,1-2,.21,3.07,3.07,0,0,1-2.88-1.89Zm8.37,7.24c0,.31,0,.57,0,.65a2.59,2.59,0,0,0,1.6,2.54,5.94,5.94,0,0,0,2.24.4,5.08,5.08,0,0,0,2-.31.85.85,0,0,1,.36-.09,2.44,2.44,0,0,1,1.07.5.84.84,0,0,1,.38.59c0,.46-.82.7-2.48.7A9.4,9.4,0,0,1,98,96.94a3.19,3.19,0,0,1-1.78-3,4.17,4.17,0,0,1,.19-1.32Zm.57-3.89a9.67,9.67,0,0,1,4.87-1.4,2.55,2.55,0,0,1,1.32.38.68.68,0,0,1,.34.58c0,.34-.19.47-.8.49a3,3,0,0,0-1.62.42,9.65,9.65,0,0,0-1.15.71l-.73.44-.13-.19c.25-.25.25-.25,1-.94.19-.17.38-.34,1-1a10.84,10.84,0,0,0-4,.78Z"/>
        <path class="cls-1" d="M110.65,85.69A2.88,2.88,0,0,0,113,86.84a9.91,9.91,0,0,0,2.67-.39,15.11,15.11,0,0,0,.71-3.57c0-.63-.32-.91-1.49-1.3a1.09,1.09,0,0,1,.65-.19,5.42,5.42,0,0,1,1.81.39c.62.24.94.53.94.84,0,.15,0,.15-.25.51a18.87,18.87,0,0,0-1.26,3,7.77,7.77,0,0,0,2.43-1.28c.34-.31.42-.36.59-.36a4.07,4.07,0,0,1,1.11.23c.24.09.34.21.34.38,0,.36-.34.63-1.22,1a23.07,23.07,0,0,1-3.67,1.24c-.15.44-.25.73-.27.8-.7,2.08-1.41,4.26-2.19,6.55-.84,2.5-1.11,3-1.55,3-.21,0-.36-.13-.48-.42a3.13,3.13,0,0,1-.3-1.22c0-.33,0-.4.46-1,1-1.38,1.93-3.56,3.3-7.51a11.45,11.45,0,0,1-2,.21,3.06,3.06,0,0,1-2.87-1.89ZM119,92.93c0,.32,0,.57,0,.65a2.58,2.58,0,0,0,1.59,2.54,5.84,5.84,0,0,0,2.25.4,5,5,0,0,0,2-.31,1.09,1.09,0,0,1,.36-.09,2.48,2.48,0,0,1,1.07.51.84.84,0,0,1,.38.59c0,.46-.82.69-2.48.69a9.36,9.36,0,0,1-3.88-.67,3.2,3.2,0,0,1-1.79-3,4.48,4.48,0,0,1,.19-1.32Zm.56-3.88a9.56,9.56,0,0,1,4.87-1.43,2.58,2.58,0,0,1,1.33.38.7.7,0,0,1,.33.59c0,.35-.19.46-.79.5a2.71,2.71,0,0,0-1.62.42,6.5,6.5,0,0,0-.69.4l-.78.5a2.31,2.31,0,0,1-.42.26l-.13-.19.32-.32.69-.63c.15-.12.46-.42,1-1h-.17a11.55,11.55,0,0,0-3.84.77Zm3.66-7.56a11.26,11.26,0,0,1,1.87,1.3c.75.7,1,1.18,1,1.68s-.3.88-.66.88-.27,0-.92-1.36A9.47,9.47,0,0,0,123,81.78Zm2.16-1.22a10.38,10.38,0,0,1,2,1.2c.8.61,1.08,1,1.08,1.62s-.21.86-.53.86-.31-.11-.48-.4a10.47,10.47,0,0,0-2.29-3Z"/>
        <path class="cls-1" d="M140.66,89.34c-1.54,3.53-2,4.77-2,5.61a2.39,2.39,0,0,0,.13.71,2,2,0,0,1,0,.34.49.49,0,0,1-.46.52,3.91,3.91,0,0,1-2.31-1.78,9.68,9.68,0,0,1-1.43-4.2,24.45,24.45,0,0,1-.15-3.7c0-2-.16-2.43-1.07-3.61h.19a3.11,3.11,0,0,1,1.58,1,2.53,2.53,0,0,1,.94,1.66,3.85,3.85,0,0,1-.06.55,16.53,16.53,0,0,0-.38,3.12,9.12,9.12,0,0,0,.48,3,3.07,3.07,0,0,0,1.1,1.64c.23-.34.23-.34.69-1.11l1.76-3c.34-.54.34-.54.61-1Zm4.47-3.8a6.55,6.55,0,0,1,4.74,6.28c0,1-.42,1.66-1.05,1.66a1,1,0,0,1-.63-.23,2.77,2.77,0,0,0-1.57-.25c-.48,0-.88,0-1.6,0l-.06-.32c1.7-.46,2.65-.73,2.84-.79.42-.15.48-.24.48-.63a7.72,7.72,0,0,0-.65-2.75A5.87,5.87,0,0,0,145,85.79Z"/>
        <path class="cls-1" d="M155.84,85.4a2.88,2.88,0,0,0,2.31,1.15,9.94,9.94,0,0,0,2.67-.4,15,15,0,0,0,.71-3.55c0-.65-.31-.92-1.49-1.32a1.09,1.09,0,0,1,.65-.19,5.41,5.41,0,0,1,1.81.4c.63.23.94.53.94.84,0,.15,0,.15-.25.5a18.38,18.38,0,0,0-1.26,3,7.19,7.19,0,0,0,2.44-1.28c.33-.32.42-.36.58-.36a3.79,3.79,0,0,1,1.12.23c.23.08.33.21.33.38,0,.36-.33.63-1.22,1a24.28,24.28,0,0,1-3.67,1.21c-.25.72-.25.72-.88,2.67-.42,1.26-.42,1.26-1.58,4.68-.84,2.5-1.11,3-1.55,3-.21,0-.36-.13-.48-.42a3.13,3.13,0,0,1-.3-1.22c0-.34,0-.4.46-1,1.06-1.53,1.87-3.36,3.3-7.52a10.48,10.48,0,0,1-2,.21,3.06,3.06,0,0,1-2.88-1.89Zm8.38,7.24c0,.31,0,.57,0,.65a2.58,2.58,0,0,0,1.59,2.54,6,6,0,0,0,2.25.4,5.11,5.11,0,0,0,2-.31.81.81,0,0,1,.35-.09,2.39,2.39,0,0,1,1.07.5.81.81,0,0,1,.38.59c0,.46-.82.7-2.48.7a9.34,9.34,0,0,1-3.88-.68,3.19,3.19,0,0,1-1.79-3,4.48,4.48,0,0,1,.19-1.32Zm.57-3.89a9.67,9.67,0,0,1,4.87-1.4,2.57,2.57,0,0,1,1.32.38.68.68,0,0,1,.34.58c0,.34-.19.47-.8.49a3,3,0,0,0-1.62.42,9.65,9.65,0,0,0-1.15.71c-.4.25-.4.25-.74.44l-.12-.19c.25-.25.25-.25,1-.94.19-.17.38-.34,1-1a10.88,10.88,0,0,0-4,.78Z"/>
        <path class="cls-1" d="M183.39,98.62c2.44-1.66,3.47-3,4-5.25a2.34,2.34,0,0,1-1.34.42,2.76,2.76,0,0,1-2.58-3c0-1.85,1.15-3.21,2.7-3.21a2.09,2.09,0,0,1,1.18.36c0-.36,0-1.52,0-2.19,0,0,0-.23,0-.42a29.29,29.29,0,0,0-5.29,1,8.24,8.24,0,0,0-1.37.57,2,2,0,0,1-.48.1,2.14,2.14,0,0,1-1.34-.79A3.17,3.17,0,0,1,178,84.7a.77.77,0,0,1,.1-.25,2.43,2.43,0,0,0,2,1.07,10.8,10.8,0,0,0,1.8-.19c2.48-.4,3.24-.5,5.38-.73a7,7,0,0,0-.23-2.33c-.23-.59-.74-.88-1.81-1,.26-.32.4-.38,1-.38a7,7,0,0,1,2,.3c.5.16.79.44.79.73s0,.21-.21.57a5.41,5.41,0,0,0-.46,2c.55-.06.55-.06,1.37-.12a9.58,9.58,0,0,0,2.79-.38,1.89,1.89,0,0,1,.78-.23,3.68,3.68,0,0,1,1.78.78.64.64,0,0,1,.34.56c0,.23-.15.36-.47.36a8.19,8.19,0,0,1-1.13-.13,23.37,23.37,0,0,0-3.23-.21c-.78,0-1.39,0-2.25.09-.08.79-.15,2.08-.15,2.85,0,.15,0,.4,0,.72a5.43,5.43,0,0,1,.68,2.79,7.26,7.26,0,0,1-2.27,5.33,10.75,10.75,0,0,1-3.13,2Zm2.67-10.56c-.95,0-1.68,1-1.68,2.27s.71,2.29,1.7,2.29,1.34-.67,1.34-2C187.42,88.9,187,88.06,186.06,88.06Z"/>
        <path class="cls-1" d="M201.41,90.43c.44,0,.44,0,2.54-2.14,1.62-1.66,2.48-2.22,3.3-2.22s1.55.44,3.63,2.31A24.46,24.46,0,0,0,217,92.89a1.32,1.32,0,0,1,.86.8,3.11,3.11,0,0,1,.36,1.26.43.43,0,0,1-.42.44,5.67,5.67,0,0,1-1.89-.94,39.12,39.12,0,0,1-5.58-5.13c-1.89-2-2.52-2.5-3.22-2.5s-1.19.49-2.24,1.93a13,13,0,0,0-1.2,1.85,3.56,3.56,0,0,0-.38.76c-.21.46-.21.48-.36.61a.79.79,0,0,1-.46.17,3.53,3.53,0,0,1-2.56-2.42,1.48,1.48,0,0,1,.09-.29A2.09,2.09,0,0,0,201.41,90.43Zm10.67-6.9a11.26,11.26,0,0,1,1.87,1.3c.75.69,1.05,1.17,1.05,1.68s-.3.88-.66.88-.27,0-.94-1.36a10,10,0,0,0-1.6-2.23Zm2.16-1.22a9.24,9.24,0,0,1,2,1.2c.82.61,1.1,1,1.1,1.61s-.21.86-.53.86-.31-.1-.48-.4a10.69,10.69,0,0,0-2.31-3Z"/>
        <path class="cls-1" d="M224.05,85.08a1.19,1.19,0,0,0,.94.36c.59,0,1.12-.11,5.82-1.24.88-.21,2-.46,3.4-.74a21.26,21.26,0,0,0,2.84-.67,2.9,2.9,0,0,1,.73-.17,2.76,2.76,0,0,1,1.14.45c.41.27.6.5.6.79s-.25.53-.65.53a2.7,2.7,0,0,1-.37,0,3.29,3.29,0,0,0-.59,0,7.44,7.44,0,0,0-7.06,6.94,4.26,4.26,0,0,0,2.77,4.14,6.76,6.76,0,0,0,2.14.51,1.1,1.1,0,0,1,.89.33,1.9,1.9,0,0,1,.63,1c0,.36-.32.59-.78.59a8.65,8.65,0,0,1-4.26-1.52,5.54,5.54,0,0,1-2.44-4.7,7.81,7.81,0,0,1,2.29-5.12,10.67,10.67,0,0,1,3.42-2.39,34,34,0,0,0-6,1.44,23.06,23.06,0,0,0-3.36,1.35,1.39,1.39,0,0,1-.84.29A2.3,2.3,0,0,1,223.67,86a2.92,2.92,0,0,1-.54-1.4.82.82,0,0,1,.23-.55A2.29,2.29,0,0,0,224.05,85.08Z"/>
        <path class="cls-1" d="M254,97.28a9.54,9.54,0,0,0,4.92-2.92,7.47,7.47,0,0,0,1.87-5.06,5.2,5.2,0,0,0-2.38-4.64,6.91,6.91,0,0,0-3.63-1,5,5,0,0,0-.73,0,2.74,2.74,0,0,1,.65,1.74c0,1.64-1.18,4.7-2.77,7.27-1.33,2.09-2.36,3.12-3.13,3.12a1.2,1.2,0,0,1-.93-.44,4.05,4.05,0,0,1-.59-1.34,11.94,11.94,0,0,0-.92-2,4,4,0,0,1-.48-1.91,6.53,6.53,0,0,1,1.89-4.15A10.16,10.16,0,0,1,255,83.11,8,8,0,0,1,260.4,85a6.42,6.42,0,0,1,2,4.93,7.22,7.22,0,0,1-4.17,6.36,12.52,12.52,0,0,1-4.1,1.31Zm-6.9-6.53a4.85,4.85,0,0,0,.84,2.77c.29.38.56.61.79.61.47,0,1.47-1.13,2.5-2.77,1.56-2.48,2.67-5.19,2.67-6.49a2.28,2.28,0,0,0-.3-1.05C249.94,84.47,247.09,87.52,247.09,90.75Z"/>
        <path class="cls-1" d="M268.51,85.9A3.48,3.48,0,0,0,271,87a9.13,9.13,0,0,0,2.1-.27c0-.61,0-1.56,0-1.93,0-2.21-.26-2.65-1.71-2.9a1.21,1.21,0,0,1,.91-.29,4.85,4.85,0,0,1,2.16.52.87.87,0,0,1,.46.67c0,.13,0,.13-.23.55a8,8,0,0,0-.65,3.13,6.16,6.16,0,0,0,2.29-1.22,1,1,0,0,1,.5-.21,2.42,2.42,0,0,1,.8.19.53.53,0,0,1,.36.46c0,.29-.19.46-.95.82a15.06,15.06,0,0,1-3.06,1l-.07,1c0,.56-.06,1.49-.08,2.75a15.55,15.55,0,0,1,5.56-1.16c2.88,0,4.69,1.37,4.69,3.59a3.58,3.58,0,0,1-3.59,3.66c-1.94,0-3.32-1.29-4.06-3.72l.32-.11A6.15,6.15,0,0,0,278,95.41a2.8,2.8,0,0,0,2,.8,2.66,2.66,0,0,0,2.63-2.88c0-1.61-1.09-2.5-3.11-2.5a13.55,13.55,0,0,0-5.69,1.52c0,2.22,0,2.22,0,2.85,0,.4,0,.63,0,.8a2.47,2.47,0,0,1-.27,1.24,1.27,1.27,0,0,1-1,.77c-.29,0-.29,0-1.57-1.13a7.82,7.82,0,0,0-1.41-.94,1,1,0,0,1-.69-.89,1.82,1.82,0,0,1,.63-1.17,10.25,10.25,0,0,1,3.34-2.16c0-.3,0-.61,0-1,0-.95,0-.95.1-3a9.32,9.32,0,0,1-1.64.15,3.48,3.48,0,0,1-3.12-1.72Zm2.31,8.5c-.42.44-.63.78-.63,1s.27.44.84.65a4.31,4.31,0,0,0,1.3.34c.25,0,.35-.15.38-.53.1-1.89.14-2.92.14-3A9,9,0,0,0,270.82,94.4Zm9.36-10.62a6.83,6.83,0,0,1,3.09.76,2.39,2.39,0,0,1,1.47,1.84.58.58,0,0,1-.63.61,1.29,1.29,0,0,1-.32,0,2.89,2.89,0,0,0-.44,0,13.37,13.37,0,0,0-2.58.56l-.13-.21a14.85,14.85,0,0,0,2.29-1.34,3.18,3.18,0,0,0-1.32-1.3,6,6,0,0,0-1.45-.55Z"/>
        <path class="cls-1" d="M301.94,85.58c.33-.41.44-.54.79-.94.68.53.89.69,1.54,1.28.19.15.27.25.27.36s-.25.21-1.26.25a15.76,15.76,0,0,1-3.13,3,17.24,17.24,0,0,0,3.3,1.28,21,21,0,0,0,5.25.84V92c-.86.16-1.1.38-1.62,1.42a25,25,0,0,1-3.34-1c.46.46.48.46.88.84.13.14.19.23.19.31a.41.41,0,0,1-.06.11,2.17,2.17,0,0,1-.23.12l-.21.11c0,1,0,1,0,2.75,0,1.15,0,1.15,0,2.24a1.23,1.23,0,0,0,0,.13.24.24,0,0,1-.21.27,3.1,3.1,0,0,1-.86.11c-.31,0-.38-.07-.38-.36V98.1H295v.73c0,.36-.19.47-.84.47-.46,0-.61-.09-.61-.36v0c0-.74,0-.74,0-1.81,0-.57,0-.57,0-1.91V93a21,21,0,0,1-3.92,1.12l-.13-.3a34.69,34.69,0,0,0,8.71-4.3A19.33,19.33,0,0,1,295.76,87,17.83,17.83,0,0,1,294,88.55a12.7,12.7,0,0,1-3.71,2.24l-.15-.23a24,24,0,0,0,3.92-3.48,11,11,0,0,0,2.27-3.34c2.06.42,2.23.46,2.23.65s-.3.33-1.09.46l-.53.73Zm-3.61-2.66V81.47c0-.48,0-.78-.07-1.39a13.49,13.49,0,0,1,2.19.28c.16.06.27.14.27.27s-.27.38-.9.5v1.79h5.87c.42-.48.55-.65,1-1.16l1.91,1.39c.13.1.19.19.19.27s-.1.15-.19.17l-1.26.21a10.34,10.34,0,0,1-2,2.06l-.21-.13a13.31,13.31,0,0,0,.74-2.33H292.42a6.12,6.12,0,0,1-.63,2.35,2,2,0,0,1-1.28,1,.75.75,0,0,1-.46-.36,2,2,0,0,1-.17-.88c0-.27,0-.29.51-.63a4.52,4.52,0,0,0,1-1.17,6.34,6.34,0,0,0,.71-2.23h.38c0,.34,0,.57,0,.76s0,.37,0,.69ZM302.78,93c.35-.32.35-.32.84-.72a19.48,19.48,0,0,1-4.39-2.16,28.79,28.79,0,0,1-4.66,2.44A3,3,0,0,1,295,93ZM295,97.62h7.91V93.5H295Zm1.55-11.55c-.21.25-.27.33-.48.56A10.41,10.41,0,0,0,299,88.9a15,15,0,0,0,2.79-2.83Z"/>
        <path class="cls-1" d="M316.87,84.43c.44-.57.59-.73,1.05-1.24.67.61.88.8,1.53,1.43a.41.41,0,0,1,.09.19c0,.06-.09.1-.24.1h-2.87v1.51l1.11.78c.63.44.95.88.95,1.35s-.4,1.15-.7,1.15c-.14,0-.25-.13-.33-.42a7.81,7.81,0,0,0-1-2.41v5.41c0,2.69,0,3.17,0,6.72,0,.27-.25.34-1.14.34-.23,0-.31-.07-.31-.26V99c.1-3.25.1-3.27.1-4.53,0-.55,0-1.12,0-1.64,0-1.2,0-2.06,0-2.48l.19-3.11a24.48,24.48,0,0,1-1.6,4,13,13,0,0,1-2,3l-.23-.15a33.54,33.54,0,0,0,2.39-5.58,29.73,29.73,0,0,0,.88-3.66H313.7a6,6,0,0,0-1.51.17l-.15-.82a7.7,7.7,0,0,0,1.66.17h1.43V82.06a11.2,11.2,0,0,0-.15-2.12c2.06.31,2.23.35,2.23.56s-.19.28-.78.49v3.44Zm7.94,2h2.58a13.93,13.93,0,0,1,1-1.22c.75.59,1,.77,1.65,1.4.09.09.11.13.11.19s-.06.11-.19.11h-5.16v2.33h3.84a13.9,13.9,0,0,1,1.17-1.32c.82.63,1.07.84,1.85,1.51a.29.29,0,0,1,.11.19c0,.08-.07.1-.21.1h-6.7A9.32,9.32,0,0,0,326.63,93a10.35,10.35,0,0,0,2-2.9c1.45.86,2,1.26,2,1.41a.26.26,0,0,1-.27.21h-.19c-.1,0-.29,0-.54,0a16.26,16.26,0,0,1-2.8,1.62,12.08,12.08,0,0,0,4.83,3.28v.25c-.86.19-1,.31-1.55,1.34a11,11,0,0,1-3.44-3.5,13.81,13.81,0,0,1-1.89-3.89v2.69q.06,1.38.06,2.16c0,.82,0,1,.08,1.83a1.48,1.48,0,0,1-.54,1.34,3.53,3.53,0,0,1-1.79.51,1.42,1.42,0,0,0-.82-1,8.23,8.23,0,0,0-2.05-.49l0-.33c1.23.06,1.32.06,3.44.08h0c.21,0,.25-.06.25-.31v-3a44.14,44.14,0,0,1-4.78,2.71c-.07.67-.13.84-.3.84s-.35-.36-1-2.06a27.72,27.72,0,0,0,6.08-2v-4h-2.85a5.46,5.46,0,0,0-1.87.19l-.15-.86a8.47,8.47,0,0,0,2,.19h2.85V86.93h-2.6a6.2,6.2,0,0,0-1.66.15l-.17-.84a8.3,8.3,0,0,0,1.83.21h2.6V84.12h-2.41a6.85,6.85,0,0,0-1.62.16l-.17-.86a7.83,7.83,0,0,0,1.79.21H325A12.38,12.38,0,0,0,326.88,80c1.62.74,2,1,2,1.16s-.15.23-1,.29a16.13,16.13,0,0,1-2.46,2.16h2.88a12.26,12.26,0,0,1,1-1.3c.8.63,1,.84,1.79,1.53a1.28,1.28,0,0,1,0,.13c0,.06-.06.13-.17.13h-6.21Zm-5.61,3.82a13.28,13.28,0,0,1,1.89,1.13c.61.44.82.74.82,1.16,0,.65-.4,1.34-.76,1.34-.17,0-.29-.13-.42-.46a7.46,7.46,0,0,0-1.74-3Zm1.45-10.12a16,16,0,0,1,2,1.24c.53.39.69.63.69,1,0,.63-.35,1.22-.75,1.22-.23,0-.25,0-.59-.86a7.52,7.52,0,0,0-1.47-2.37Z"/>
        <path class="cls-1" d="M340.35,90c-.05.19-.36,1.52-1,4a8.5,8.5,0,0,0-.36,2.23,3.26,3.26,0,0,1-.06.9.51.51,0,0,1-.5.36c-.36,0-.67-.3-.9-.87a12.24,12.24,0,0,1-.74-4.47,17.86,17.86,0,0,1,.17-2.24,34,34,0,0,1,.73-4,10,10,0,0,0,.3-2,3.75,3.75,0,0,0-.59-2c.46,0,.84.3,1.41,1a2.85,2.85,0,0,1,.77,1.66c0,.34,0,.42-.44,1.26a17.74,17.74,0,0,0-1.13,3.34,11.4,11.4,0,0,0-.27,2.6,8,8,0,0,0,.39,2.77,15.52,15.52,0,0,0,.76-1.78l1.11-2.94ZM343,91a8.58,8.58,0,0,0-.06.89c0,2.3,1.32,3.25,4.58,3.25a9.43,9.43,0,0,0,1.78-.15,3.21,3.21,0,0,0,1.11-.33.88.88,0,0,1,.32-.07A1.63,1.63,0,0,1,352,95.85c0,.25-.17.42-.46.53a10.91,10.91,0,0,1-2.62.23c-2.63,0-4.5-.44-5.44-1.28a3.5,3.5,0,0,1-1.14-2.73,5.67,5.67,0,0,1,.26-1.66Zm0-6.67a3.28,3.28,0,0,0,1.95.56,11.2,11.2,0,0,0,4.22-.94c.28-.15.32-.17.46-.17a1.68,1.68,0,0,1,.74.29c.44.26.65.51.65.78s-.15.4-.59.48a11.9,11.9,0,0,0-3,.74,20.64,20.64,0,0,0-2.71,1.49l-.21-.21c.95-.8,1.66-1.39,2-1.64l-.86,0a3.7,3.7,0,0,1-2.86-1.17Z"/>
        <path class="cls-1" d="M357,98.79c1.64-3.29,2.08-5.9,2.08-12.3,0-3.28,0-5.4-.1-6.22a20.05,20.05,0,0,1,1.78,1h12.39c.36-.44.73-.88,1.07-1.32.88.63,1.13.84,2,1.51a.28.28,0,0,1,.11.17c0,.08-.06.12-.19.12H360.66c0,1.22,0,1.7,0,2.69,0,7.83-.66,10.67-3.38,14.53Zm14.28-8.33c.46-.34.61-.42,1.05-.74a17,17,0,0,1,1.43,1.22c.15.17.15.17.15.19s-.15.19-.34.19h-.13l-.42,0a32.48,32.48,0,0,1-3.69,1.35c-.09.15-.09.15-.57.33v1h4.35c.54-.63.71-.82,1.26-1.43l1.91,1.62a.3.3,0,0,1,.08.17c0,.08-.06.12-.23.12H368.8v3.11c0,1-.52,1.37-2.5,1.7a1.46,1.46,0,0,0-.46-1,2.29,2.29,0,0,0-1-.42l-.61-.12c-.21,0-.38-.07-.59-.11v-.25c1.41.15,1.94.17,3.49.23a.27.27,0,0,0,.13,0c.14,0,.21-.08.21-.25V94.42h-5.09a11.52,11.52,0,0,0-1.7.15l-.16-.82a7.58,7.58,0,0,0,2,.19h5v-.71a9.29,9.29,0,0,0-.09-1.18l1,.11a3.21,3.21,0,0,1,.94.21,10.6,10.6,0,0,0,1.93-1.43h-7.45a14.64,14.64,0,0,0-1.62.08l-.16-.75a6.61,6.61,0,0,0,1.78.19Zm-7.07-1.31c-.05.17-.09.24-.24.26s-.71.06-.94.06-.32-.06-.32-.19a.26.26,0,0,1,0-.13c0-2.14.06-3.4.06-3.8,0-1,0-1.34-.09-2.89a17.68,17.68,0,0,1,1.66.92H372a7,7,0,0,1,.67-.92c.55.37.72.5,1.24.9.15.1.21.17.21.25s-.1.23-.57.57c0,3.34,0,3.34.05,4.72,0,.15-.05.23-.15.27a2.71,2.71,0,0,1-1,.15c-.17,0-.25-.06-.27-.25v-.29h-7.87Zm7.87-5.29h-7.87v1.91h7.87Zm-7.87,2.4v2h7.87v-2Z"/>
        <path class="cls-1" d="M389.11,80.69a4.41,4.41,0,0,1,2.33,1.12c.33.33.46.54.46.84s-.1.39-1.22,1.3a50.68,50.68,0,0,0-3.86,3.63c-.74.82-1,1.3-1,1.7a1.76,1.76,0,0,0,.63,1.09c.3.32.3.32,1.47,1.39,2.29,2.12,3.36,3.29,3.86,4.28a2.62,2.62,0,0,1,.32,1.39c0,.79-.27,1.26-.71,1.26-.28,0-.36-.11-.72-.86a19.82,19.82,0,0,0-1.76-3,37.58,37.58,0,0,0-3.07-3.8A2.77,2.77,0,0,1,385,89.3c0-.67.33-1.24,1.61-2.81,2.54-3.09,3.17-4,3.17-4.47s-.27-.68-1.15-1.24A.87.87,0,0,1,389.11,80.69Z"/>
        <path class="cls-1" d="M404.17,89.78a15.87,15.87,0,0,1-2.27,2.33l-.25-.27a26,26,0,0,0,4.15-7c1.58.73,1.91.94,1.91,1.15,0,0-.06.11-.14.15s-.15.06-.69.06A15.06,15.06,0,0,1,405,88.8c.1,0,.19,0,.25,0,.65.08.9.17.9.31v0c0,.13-.23.26-.65.4v4c0,.93,0,.93,0,3.82v1.56c-.06.17-.1.21-.31.25a4.56,4.56,0,0,1-.65.08c-.38,0-.47,0-.49-.25,0-1.59,0-1.59.07-5.31Zm-2.17-4a17.13,17.13,0,0,0,2.84-3.71,8.06,8.06,0,0,0,.94-2c.44.17.8.3,1,.36.86.32,1.22.5,1.22.67s-.4.3-.84.3a.76.76,0,0,1-.19,0,19.33,19.33,0,0,1-4.7,4.68Zm11.07,1.47,1-1.21c.61.58.79.77,1.32,1.34a.38.38,0,0,1,.12.21.16.16,0,0,1-.16.15h-3.28V91h.67c.42-.5.57-.65,1-1.13.65.58.84.75,1.43,1.36a.37.37,0,0,1,.08.15c0,.06-.06.1-.21.1h-3v3.82a24.19,24.19,0,0,0,2.88-.73l.12.25a29.77,29.77,0,0,1-4.13,1.6c-1.85.61-2.42.79-3.47,1.09-.08.65-.12.78-.29.78s-.36-.3-.82-2a9.36,9.36,0,0,0,1.41-.17V91.15a11.55,11.55,0,0,0-.13-1.89c1.85.19,2.12.25,2.12.44s-.15.23-.71.5v5.63l1.76-.31V87.75h-2.41a6.82,6.82,0,0,0-1.24.1l-.19-.77a5.22,5.22,0,0,0,1.43.18h2.41V84.05h-1.59a13.26,13.26,0,0,1-1.37,1.58l-.25-.21a16.42,16.42,0,0,0,2.06-5.23c1.76.55,2.14.69,2.14.88s-.15.25-1,.38a10.43,10.43,0,0,1-1.24,2.12h3.26c.37-.57.5-.74.9-1.28a21.2,21.2,0,0,1,1.49,1.51.28.28,0,0,1,0,.13c0,.06-.08.12-.14.12h-3.05v3.21Zm3.88,9c0,.17,0,.61,0,1.26,0,.31,0,.86,0,1.49-.09.25-.24.32-.76.34l-.34,0h-.06c-.21,0-.29-.11-.29-.34.06-3.46.06-3.71.06-4.81,0-9.88,0-12.43,0-13.31.69.4.9.51,1.57.91h2.08c.32-.4.42-.53.71-.91.57.46.76.61,1.31,1.07.08.11.1.15.1.21s0,.11-.73.57V91.4c0,.17,0,1,0,2.27,0,.38,0,1,0,1.8a1,1,0,0,1-.46.89,4.31,4.31,0,0,1-1.7.54,1.15,1.15,0,0,0-.47-1,2,2,0,0,0-1.07-.37Zm0-1.07,2,0H419c.15,0,.21-.06.21-.21V82.29H417Z"/>
        <path class="cls-1" d="M430,89.41a23.63,23.63,0,0,1,2.75,1.28c.9.52,1.09.75,1.09,1.38s-.23,1.26-.5,1.26-.23-.08-.36-.29a10.1,10.1,0,0,0-3-3.17v4.7c0,1.41,0,3.11,0,4.41,0,.19-.08.25-.25.27a3.36,3.36,0,0,1-.91.09c-.27,0-.31,0-.39-.23,0-1.41.06-3.76.06-4.31V90.6a23.54,23.54,0,0,1-3.89,3.05l-.25-.3a22.93,22.93,0,0,0,4.05-4.15A23.76,23.76,0,0,0,431.3,85h-4.5a14.84,14.84,0,0,0-1.78.12l-.13-.8a11.55,11.55,0,0,0,1.91.19h1.79V81.72a9.6,9.6,0,0,0-.13-1.32c2.06.23,2.37.31,2.37.54s-.23.3-.79.47v3.08h1.26l.92-1a15.47,15.47,0,0,1,1.32,1.13c.11.09.15.15.15.23s-.21.28-.9.4A27.35,27.35,0,0,1,430,89.05Zm5.29-6.51a15.06,15.06,0,0,0-.15-2.46c2.19.3,2.42.36,2.42.59s-.23.31-.86.5V97.22c0,.31,0,.31.08.33a9.07,9.07,0,0,0,1.76.11c.91,0,2.33,0,2.48,0,.34-.05.42-.13.61-.55a16.65,16.65,0,0,0,.59-2.08l.29-1.32.29-1.26h.3l-.21,4.43c0,.46,0,.46.33.57s.57.29.57.54c0,.42-.33.65-1,.76-.46.06-2.43.12-3.92.12-3.23,0-3.59-.12-3.59-1.36v-.15c0-.52,0-.75,0-1.2l0-5Z"/>
        <path class="cls-1" d="M457.36,92.79c0,4.45,0,4.45.08,6.29v0a.21.21,0,0,1-.19.21,5.47,5.47,0,0,1-1.11.1c-.19,0-.25-.06-.25-.21,0-1.59,0-1.59,0-6.44h-5.42V93.9c0,.13,0,.19-.14.21a6.62,6.62,0,0,1-1.12.1c-.18,0-.27-.06-.27-.21v0c0-2.22,0-3.13,0-5.67,0-3,0-4.05-.06-5.46a14.23,14.23,0,0,1,1.85,1.1h5.12c0-2.33,0-2.57-.13-4,2.4.31,2.4.31,2.4.57s-.23.31-.86.5v2.88h5.52c.44-.42.57-.57,1-1,.56.4.73.53,1.21.92.13.13.19.19.19.26s-.14.23-.71.56c0,5.29,0,7,.06,9.16,0,.17,0,.21-.16.25a6.61,6.61,0,0,1-1.1.08c-.21,0-.27,0-.29-.19V92.79Zm-1.43-4.73V84.41h-5.42v3.65Zm0,.49h-5.42V92.3h5.42Zm7.14-4.14h-5.73c0,2.31,0,2.31,0,3.65h5.71Zm0,4.14h-5.71V92.3h5.71Z"/>
        <path class="cls-1" d="M486.4,93.92c-2,2.73-4.77,4.35-7.37,4.35a3.81,3.81,0,0,1-3.49-1.79,7.18,7.18,0,0,1-.58-3.55c0-1.15.06-3.15.16-5.06.13-2.26.15-2.85.15-3.61,0-1.8-.21-2.16-1.7-2.79a.84.84,0,0,1,.59-.21,5.3,5.3,0,0,1,1.89.48c.8.38,1.22.8,1.22,1.24a2.19,2.19,0,0,1-.19.76A64.69,64.69,0,0,0,476,93.82a3,3,0,0,0,.84,2.51,3,3,0,0,0,1.86.57,10.88,10.88,0,0,0,4.79-1.34,13.24,13.24,0,0,0,2.67-1.87Z"/>
        <path class="cls-1" d="M506.62,88,508,86.36c.92.8,1.21,1,2.1,1.83a.24.24,0,0,1,.08.17c0,.06-.1.12-.21.12h-8v9.07H508c.59-.77.78-1,1.34-1.7,1,.8,1.26,1.05,2.19,1.89a.26.26,0,0,1,.08.17c0,.06-.08.13-.17.13h-17a8.38,8.38,0,0,0-1.75.16l-.16-.82a7.81,7.81,0,0,0,1.91.17h5.92V83.09a14.36,14.36,0,0,0-.17-2.57c.5.07.88.13,1.11.15,1.14.15,1.35.21,1.35.38s-.19.27-.78.44V88Z"/>
        <path class="cls-1" d="M520.57,89.66A41.62,41.62,0,0,0,519.29,96v.23a2.45,2.45,0,0,1,0,.34c0,.67-.17,1-.53,1s-.62-.27-.88-.75a12.11,12.11,0,0,1-1-5.44,25.7,25.7,0,0,1,.46-4.77,15.45,15.45,0,0,0,.33-2.62,3.54,3.54,0,0,0-.75-2,2.23,2.23,0,0,1,1.38.84,2.88,2.88,0,0,1,.93,1.66,2.79,2.79,0,0,1-.3,1.16,17.6,17.6,0,0,0-1.09,5.83,7.59,7.59,0,0,0,.5,3.28l.24-.61,1.65-4.58Zm1.68-3.47a3.6,3.6,0,0,0,2.43.82,12.26,12.26,0,0,0,3-.44v-.73a8.23,8.23,0,0,0-.25-2.92c-.21-.42-.8-.74-1.79-1,.32-.27.46-.31,1.16-.31,1.42,0,2.41.42,2.41,1a5.05,5.05,0,0,1-.15.88c0,.25-.08.67-.1,1.07l0,1.59a5,5,0,0,0,1.91-.92.69.69,0,0,1,.44-.15c.67,0,1.26.3,1.26.63s-.15.38-.74.68a16,16,0,0,1-2.85.92v3.09c0,3.25-.57,5-2.14,6.67a11.5,11.5,0,0,1-3.19,2.31l-.17-.29a10.16,10.16,0,0,0,3-3.23c1-1.73,1.32-3.59,1.32-7.21V87.64a11.94,11.94,0,0,1-2.44.28A4,4,0,0,1,522,86.45Zm7.45-6.09c1.51,1.12,2.54,2.38,2.54,3.13,0,.49-.33,1-.65,1s-.38-.15-.48-.5a9.43,9.43,0,0,0-1.72-3.34Zm2.29-.77a9.27,9.27,0,0,1,1.83,1.43c.65.65.9,1.07.9,1.57s-.23,1-.59,1c-.17,0-.29-.13-.44-.47a10.53,10.53,0,0,0-2-3.23Z"/>
        <path class="cls-1" d="M540.16,84.24a4.3,4.3,0,0,0,3.38,1.14,19.27,19.27,0,0,0,3-.26c-.09-3.21-.24-3.5-1.83-3.73.29-.3.46-.34,1-.34a6.07,6.07,0,0,1,1.76.27c.51.17.72.38.72.7,0,.12,0,.12-.28.71a6.92,6.92,0,0,0-.38,2.23,10.76,10.76,0,0,0,3.91-1.24.51.51,0,0,1,.25-.09,2.65,2.65,0,0,1,1.09.36c.24.15.36.31.36.5s-.33.47-1.64.78a32.93,32.93,0,0,1-4,.73c0,.55,0,.87,0,1.35s0,1,0,1.91a18.41,18.41,0,0,0,2.4-.57,3.43,3.43,0,0,0,1-.52.46.46,0,0,1,.31-.09,2.38,2.38,0,0,1,1.07.32.42.42,0,0,1,.25.4c0,.37-.29.54-1.61.9a22.5,22.5,0,0,1-3.43.61c0,.82,0,1.15.07,1.89s.06,1.11.12,1.64a10.83,10.83,0,0,1,4.62,1.8A1.82,1.82,0,0,1,553,97c0,.44-.19.73-.46.73s-.29-.06-.84-.59a12.78,12.78,0,0,0-1.76-1.3,7.58,7.58,0,0,0-2.1-.88c0,.46.06.67.06.93a2.11,2.11,0,0,1-.71,1.76,4.75,4.75,0,0,1-2.82.78c-2.1,0-3.55-.93-3.55-2.25,0-1.49,2-2.54,4.75-2.54.34,0,.55,0,1,0,0-1,0-1.16,0-1.45V90.41c-.84,0-1.24.07-1.56.07a5.68,5.68,0,0,1-2.79-.47,1.8,1.8,0,0,1-.94-1.59c0-.15,0-.36,0-.59l.31,0c0,.65.13,1,.45,1.2a4.42,4.42,0,0,0,2.45.46,16.46,16.46,0,0,0,2-.15V87.89l0-1.53v-.25c-1.16.1-2,.15-2.71.15-2,0-2.86-.4-3.91-1.81Zm4.66,10.33a6.52,6.52,0,0,0-2.28.4q-1.14.44-1.14,1.26c0,.76.86,1.2,2.29,1.2a3.47,3.47,0,0,0,2.39-.76,1.61,1.61,0,0,0,.47-1.09c0-.15,0-.63,0-.8v-.06A11.76,11.76,0,0,0,544.82,94.57Z"/>
        <path class="cls-1" d="M566.1,98.62c2.43-1.66,3.46-3,4-5.25a2.37,2.37,0,0,1-1.35.42,2.76,2.76,0,0,1-2.58-3c0-1.85,1.15-3.21,2.71-3.21a2,2,0,0,1,1.17.36c0-.36,0-1.52,0-2.19a2.85,2.85,0,0,0,0-.42,29.46,29.46,0,0,0-5.29,1,8.14,8.14,0,0,0-1.36.57,1.46,1.46,0,0,1-1.83-.69,3.17,3.17,0,0,1-.84-1.54.66.66,0,0,1,.11-.25,2.4,2.4,0,0,0,2,1.07,10.9,10.9,0,0,0,1.81-.19c2.48-.4,3.23-.5,5.37-.73a7,7,0,0,0-.23-2.33c-.23-.59-.73-.88-1.8-1,.25-.32.4-.38,1-.38a7,7,0,0,1,2,.3c.5.16.8.44.8.73s0,.21-.21.57a5.22,5.22,0,0,0-.46,2c.54-.06.54-.06,1.36-.12a9.43,9.43,0,0,0,2.79-.38,1.93,1.93,0,0,1,.78-.23,3.68,3.68,0,0,1,1.78.78.62.62,0,0,1,.34.56c0,.23-.15.36-.46.36a8.21,8.21,0,0,1-1.14-.13,23.37,23.37,0,0,0-3.23-.21c-.78,0-1.38,0-2.25.09-.08.79-.14,2.08-.14,2.85,0,.15,0,.4,0,.72a5.52,5.52,0,0,1,.67,2.79,7.26,7.26,0,0,1-2.27,5.33,10.62,10.62,0,0,1-3.13,2Zm2.66-10.56c-.94,0-1.68,1-1.68,2.27s.72,2.29,1.7,2.29,1.35-.67,1.35-2C570.13,88.9,569.69,88.06,568.76,88.06Z"/>
        <path class="cls-1" d="M588,96.94a2.71,2.71,0,1,1-2.71-2.7A2.68,2.68,0,0,1,588,96.94Zm-4.75,0a2.06,2.06,0,0,0,2,2,2,2,0,1,0-2-2Z"/>
        <path class="cls-1" d="M142.76,124a7.67,7.67,0,0,0,1.53.17h3.15c.42-.5.55-.67,1-1.16.67.55.88.74,1.51,1.33a.29.29,0,0,1,.11.19c0,.08-.09.12-.28.12h-5.5a9,9,0,0,0-1.38.11Zm.73,5.65a7.21,7.21,0,0,0,1.45.17h2.21l1-1.07a14.93,14.93,0,0,1,1.37,1.26.29.29,0,0,1,.1.16c0,.09-.08.13-.21.13h-4.43a6.52,6.52,0,0,0-1.3.11Zm.07-8.42a5.41,5.41,0,0,0,1.38.17h2.33a12.55,12.55,0,0,1,.86-1.09,19.22,19.22,0,0,1,1.47,1.28c.07.08.09.12.09.17s-.09.12-.17.12h-4.58a8.55,8.55,0,0,0-1.26.09Zm.06,5.71a5.29,5.29,0,0,0,1.32.15h2.29c.38-.51.51-.65.9-1.14a17,17,0,0,1,1.37,1.31.32.32,0,0,1,.1.21c0,.06-.08.1-.23.1h-4.43a5.91,5.91,0,0,0-1.19.11Zm1.57,11.7c0,.33-.19.42-1,.42-.28,0-.36-.07-.36-.21v0c0-1.38.06-2.08.06-3.59V134c0-.38,0-.84-.08-2.36a11.07,11.07,0,0,1,1.61,1.05h2.31l.74-.86a9.79,9.79,0,0,1,.94.84c.19.19.26.28.26.36a.3.3,0,0,1-.09.15s-.17.1-.48.25c0,2.35,0,3.38,0,4.24,0,.15,0,.21-.15.27a1.82,1.82,0,0,1-.81.15c-.26,0-.34,0-.34-.21v-.21h-2.63Zm0-1.45h2.63v-4h-2.63Zm12.43-12.71a26.27,26.27,0,0,0,.87,7.19,25.53,25.53,0,0,0,1.55-5.25c2.08.77,2.16.81,2.16,1s-.15.23-1,.32A19.78,19.78,0,0,1,159,133.1a13.12,13.12,0,0,0,2.25,3.42,29.46,29.46,0,0,0,1.15-3.59l.28.09-.49,3.84v.21c0,.19,0,.25.32.69a.81.81,0,0,1,.17.49.71.71,0,0,1-.63.67c-.53,0-1-.4-1.85-1.41a18.41,18.41,0,0,1-2-3.15,12.81,12.81,0,0,1-2.6,2.52,14.07,14.07,0,0,1-3.51,2.08l-.18-.27a18.89,18.89,0,0,0,4.45-3.8,13.85,13.85,0,0,0,1.32-1.75c-.88-2.22-1.24-4.45-1.41-8.63h-4.26c0,.07,0,1.29,0,3.66h2c.36-.42.36-.42.7-.84.58.38.75.48,1.26.84.14.12.2.21.2.25s-.27.34-.75.57c0,.42,0,.82,0,1-.11,3.25-.21,4.38-.53,4.91s-.75.75-1.91,1c-.12-.61-.25-.86-.59-1.07a2.72,2.72,0,0,0-1.07-.32,12,12,0,0,1-2.54,5l-.31-.21a12.49,12.49,0,0,0,1.93-5.4,42.86,42.86,0,0,0,.42-7c0-1.91,0-2.71-.11-3.8a11.24,11.24,0,0,1,1.66.84h4c0-.86,0-1.22,0-1.53v-1.16c0-.5,0-.69,0-1.23,1.89.23,2.18.31,2.18.52s0,.15-.77.4c0,1.18-.07,1.55-.07,2.37l0,.25V124H160c.4-.57.52-.73.92-1.24a13.18,13.18,0,0,1,1.39,1.41.29.29,0,0,1,.1.19c0,.08-.06.12-.21.12Zm-5.6,4.14a23,23,0,0,1-.67,5.61c1.21.12,1.86.19,2,.19.29,0,.4-.09.48-.51a17.86,17.86,0,0,0,.23-2.92c0-.65,0-.65,0-2.37Zm6.65-7.87c1.18.42,1.94.94,1.94,1.36s-.47,1-.72,1-.19-.08-.36-.54a3.65,3.65,0,0,0-1-1.7Z"/>
        <path class="cls-1" d="M171.51,130c0,.19-.36,1.52-.95,3.95a8.37,8.37,0,0,0-.35,2.23,3,3,0,0,1-.07.9.51.51,0,0,1-.5.36c-.36,0-.67-.3-.9-.86a12.33,12.33,0,0,1-.74-4.48,17.86,17.86,0,0,1,.17-2.24,34,34,0,0,1,.73-4,10,10,0,0,0,.3-2,3.75,3.75,0,0,0-.59-2c.46,0,.84.3,1.41,1a2.85,2.85,0,0,1,.77,1.66c0,.34,0,.42-.44,1.26a17.74,17.74,0,0,0-1.13,3.34,11.46,11.46,0,0,0-.27,2.6,8,8,0,0,0,.39,2.77,15.52,15.52,0,0,0,.76-1.78l1.11-2.94Zm2.64,1.05a8.58,8.58,0,0,0-.06.89c0,2.3,1.32,3.25,4.58,3.25a9.43,9.43,0,0,0,1.78-.15,3.21,3.21,0,0,0,1.11-.33.88.88,0,0,1,.32-.07,1.63,1.63,0,0,1,1.32,1.24c0,.25-.17.42-.46.53a10.91,10.91,0,0,1-2.62.23c-2.63,0-4.5-.44-5.44-1.28a3.5,3.5,0,0,1-1.14-2.73,5.67,5.67,0,0,1,.26-1.66Zm0-6.67a3.28,3.28,0,0,0,1.95.56,11.2,11.2,0,0,0,4.22-.94c.28-.15.32-.17.47-.17a1.69,1.69,0,0,1,.73.29c.44.26.65.51.65.78s-.15.4-.59.48a11.9,11.9,0,0,0-3,.74,20.64,20.64,0,0,0-2.71,1.49l-.21-.21c1-.8,1.66-1.39,2-1.64l-.86,0a3.7,3.7,0,0,1-2.86-1.17Z"/>
        <path class="cls-1" d="M191.29,123.51a3.3,3.3,0,0,0,2.94,1.24,7.69,7.69,0,0,0,1.22-.11c.12-.94.23-2,.23-2.33,0-.76-.34-1.09-1.37-1.41a.77.77,0,0,1,.61-.23,5,5,0,0,1,1.83.49c.52.27.77.52.77.86s0,.19-.27.54a5,5,0,0,0-.65,1.89,9.45,9.45,0,0,0,4-1.49.61.61,0,0,1,.52-.23,3.36,3.36,0,0,1,1,.17.49.49,0,0,1,.34.46c0,.38-.42.63-1.81,1.11a28.16,28.16,0,0,1-4.22,1,22.7,22.7,0,0,0-.4,3.17,12.29,12.29,0,0,1,3.36-.67v-.13c0-.4-.17-.69-.67-1.15l.23,0a1.62,1.62,0,0,1,1.34,1.26,7,7,0,0,1,4.08,1.49,4.14,4.14,0,0,1,1.42,3.31c0,3.19-3.25,5.59-8.18,6l-.07-.34c4.27-1.05,6.64-3.23,6.64-6.15a3.43,3.43,0,0,0-1.54-3,5.63,5.63,0,0,0-2.43-.74,10.7,10.7,0,0,1-1.32,2.88,12.42,12.42,0,0,1-2.25,2.73,5.37,5.37,0,0,0,.52.88,1.55,1.55,0,0,1,.24.88c0,.57-.19,1-.49,1s-.71-.57-1.21-1.85a6.9,6.9,0,0,1-3.64,2c-.5,0-.73-.24-1-1a5,5,0,0,0-.4-.8,2,2,0,0,1-.4-1.26,4.51,4.51,0,0,1,2-3.29A11.74,11.74,0,0,1,195,129c0-.32,0-.32.13-1.56,0-.35.06-.69.19-1.87-.4,0-.59,0-.8,0a3.63,3.63,0,0,1-3.5-1.94Zm.73,8.82a3.55,3.55,0,0,0-.65,2c0,.78.32,1.28.8,1.28a6.54,6.54,0,0,0,3.13-1.7,15.78,15.78,0,0,1-.32-3.38v-.76A7.59,7.59,0,0,0,192,132.33Zm3.91-2.33a14.8,14.8,0,0,0,.29,3.06,11.41,11.41,0,0,0,3-4.54,10.86,10.86,0,0,0-3.3.8Z"/>
        <path class="cls-1" d="M218.11,139.07a11,11,0,0,0,5.54-10,10,10,0,0,0-.78-4.33,1.73,1.73,0,0,0-1.49-.92c-1,0-2,.9-2.77,2.62a10.48,10.48,0,0,0-.9,5.82,3.17,3.17,0,0,1,0,.44c0,.4-.19.63-.55.63-.8,0-1.32-1.7-1.32-4.3a25.46,25.46,0,0,1,.67-5.63,8.56,8.56,0,0,0,.23-1.53c0-.67-.29-1.07-1.13-1.49a1.13,1.13,0,0,1,.38-.11,3.29,3.29,0,0,1,1.68.7c.58.42.81.75.81,1.17a1.26,1.26,0,0,1-.29.8,15,15,0,0,0-1.51,6.26c0,.18,0,.4,0,.77h0c.63-2.69,1.41-4.43,2.44-5.5a3.38,3.38,0,0,1,2.56-1.24c2,0,3.44,2.48,3.44,6a10.37,10.37,0,0,1-2.29,6.86,10.66,10.66,0,0,1-4.64,3.32Z"/>
        <path class="cls-1" d="M237.89,134.61a10.43,10.43,0,0,0,3.25,1.43c.46,0,.82-.44,1.37-1.76a16.23,16.23,0,0,0,1.24-5.63c0-.88-.19-1.45-.57-1.7a1.55,1.55,0,0,0-1-.21,7.24,7.24,0,0,0-2.18.42c-.29.74-.29.74-1.22,2.86-.1.25-.52,1.23-1.24,2.94-.84,2-1.53,3.48-1.86,4.07-.15.27-.32.4-.51.4-.38,0-.61-.55-.61-1.45a1.41,1.41,0,0,1,.48-1.18c.95-1.15,1.85-2.87,3.87-7.3a14.79,14.79,0,0,0-2.73,1.09,1.1,1.1,0,0,1-.61.23,1.53,1.53,0,0,1-.92-.63,3.32,3.32,0,0,1-.7-1.6,1.56,1.56,0,0,1,.13-.46c.44.86.82,1.16,1.6,1.16a22,22,0,0,0,3.56-.74,11.71,11.71,0,0,0,.87-3.44c0-.65-.42-1-1.62-1.41a.85.85,0,0,1,.61-.23,6.36,6.36,0,0,1,1.43.27c.94.28,1.46.68,1.46,1.12,0,.14,0,.23-.29.6a22.9,22.9,0,0,0-1.34,2.84,7.9,7.9,0,0,1,1.82-.23c1.81,0,2.67,1.07,2.67,3.27,0,2.69-1.07,6.18-2.29,7.52a3,3,0,0,1-2,.95.49.49,0,0,1-.57-.49c0-.54-.13-.65-2.33-2.45Zm9.26-8.46a7.39,7.39,0,0,1,3.84,2.52,5,5,0,0,1,1.2,3c0,.74-.32,1.16-.84,1.16a.82.82,0,0,1-.49-.15,1.26,1.26,0,0,0-.86-.23,18.42,18.42,0,0,0-2.62.19l-.09-.27a29.32,29.32,0,0,0,3.22-1.08,6.33,6.33,0,0,0-3.53-4.8Zm.71-4.2a9,9,0,0,1,1.87,1.3c.76.68,1.05,1.16,1.05,1.66s-.29.89-.65.89-.27,0-.93-1.37a9.51,9.51,0,0,0-1.61-2.2Zm2.16-1.21a9.09,9.09,0,0,1,2,1.19c.8.61,1.07,1,1.07,1.62s-.21.86-.53.86-.31-.11-.48-.4a10.55,10.55,0,0,0-2.31-3Z"/>
        <path class="cls-1" d="M262.33,121.09a6.77,6.77,0,0,1,2.12.4c.42.17.59.38.59.67v0c0,.16,0,.16-.17.54a16.59,16.59,0,0,0-.46,4.26c0,1.24.17,1.56.82,1.56.44,0,.9-.17,2.81-1.07a1.85,1.85,0,0,1,.86-.26,1,1,0,0,1,1,.89.68.68,0,0,1-.44.63c-.15.06-.44.16-1.41.44a14.27,14.27,0,0,0-5.25,2.35,3.37,3.37,0,0,0-1.63,2.69c0,1.51,1.19,2.28,3.52,2.28a25.07,25.07,0,0,0,4.88-.6,1.64,1.64,0,0,1,.42-.07,1.2,1.2,0,0,1,1.13,1c0,.38-.23.57-.9.69a31.87,31.87,0,0,1-4,.28,10.52,10.52,0,0,1-3.56-.49,3.32,3.32,0,0,1-2.29-3.1,4.7,4.7,0,0,1,2.05-3.53,13.25,13.25,0,0,1,2.57-1.68,1.42,1.42,0,0,1-1-.31c-.32-.24-.51-.7-.61-1.6-.06-.5-.09-1-.15-2.54-.06-1.79-.08-2.1-.25-2.42s-.63-.6-1.51-.75A1.11,1.11,0,0,1,262.33,121.09Z"/>
        <path class="cls-1" d="M286.52,139.13a11.48,11.48,0,0,0,2.77-3,12.82,12.82,0,0,0,1.79-6.38c0-2.08-.76-3.36-2-3.36s-2.58.9-4,2.48c-.4.4-.52.48-.86.48a1.9,1.9,0,0,1-1.38-.94,2.63,2.63,0,0,1-.57-1.41,1.13,1.13,0,0,1,.34-.78c.18.93.6,1.45,1.15,1.45a5.66,5.66,0,0,0,1.93-.82c1.79-1,2.48-1.19,3.55-1.19a3.29,3.29,0,0,1,2.6,1.4,5.52,5.52,0,0,1,.8,3.09,10.23,10.23,0,0,1-2.6,6.78,9.66,9.66,0,0,1-3.3,2.46ZM285.37,120a6.19,6.19,0,0,0,3.92,1.35h.49a1.6,1.6,0,0,1,1.13.5,1,1,0,0,1,.44.71c0,.3-.29.47-.86.47-.88,0-.88,0-5.23,1.28l-.1-.3c1.57-.71,3-1.36,3.55-1.55a4.91,4.91,0,0,1-3.55-2.29Z"/>
        <path class="cls-1" d="M304.61,131.49a8.4,8.4,0,0,0-.07.94c0,2.5,1.58,3.67,5,3.67a13.58,13.58,0,0,0,4.64-.77,1.1,1.1,0,0,1,.36-.07,2.32,2.32,0,0,1,1.15.42,1,1,0,0,1,.46.74c0,.31-.23.55-.67.65a24.25,24.25,0,0,1-4.89.42c-2.35,0-3.84-.29-4.89-1a4,4,0,0,1-1.75-3.29,5.79,5.79,0,0,1,.34-1.79Zm.65-8.3a4.88,4.88,0,0,0,3.21.93,16.77,16.77,0,0,0,4.37-.63,1.58,1.58,0,0,1,.37-.09,1.44,1.44,0,0,1,1.26,1.09c0,.36-.12.44-1.53.74a34.53,34.53,0,0,0-5.61,2.08l-.14-.32c.59-.35,1-.57,1.53-.88l1.36-.73.4-.26c-.46,0-1.19.07-1.57.07a5.64,5.64,0,0,1-2.39-.57,4.72,4.72,0,0,1-1.47-1.22Zm9.57-1.85a10.86,10.86,0,0,1,1.87,1.31c.76.69,1.05,1.17,1.05,1.68s-.29.88-.65.88-.27,0-1-1.37a9.27,9.27,0,0,0-1.59-2.22Zm2.16-1.21a9.28,9.28,0,0,1,2,1.19c.82.61,1.09,1,1.09,1.62s-.21.86-.53.86-.31-.1-.48-.4a10.55,10.55,0,0,0-2.31-3Z"/>
        <path class="cls-1" d="M335,123a8.22,8.22,0,0,0,2.33.72.71.71,0,0,0,.21,0h.13c.52,0,.82.23.82.65s-.36.63-1.18,1.07a12.12,12.12,0,0,1-2.08.92l-.84.34a50.61,50.61,0,0,1,2.88,4.53,3.07,3.07,0,0,1,.46,1.6c0,.8-.15,1.09-.57,1.09-.23,0-.35-.06-.65-.36a6.26,6.26,0,0,0-1.4-1,9.19,9.19,0,0,0-3.8-.8c-2.42,0-3.93.94-3.93,2.46a2.38,2.38,0,0,0,1.64,2.14,8.13,8.13,0,0,0,2.91.46,8.52,8.52,0,0,0,1.83-.15l.25,0a1.53,1.53,0,0,1,1.31,1.16c0,.5-.36.62-1.83.62a13.07,13.07,0,0,1-4.12-.56c-1.89-.63-3-1.91-3-3.45,0-2.09,2.08-3.35,5.52-3.35a15.2,15.2,0,0,1,4.12.56,18,18,0,0,0-2.52-4.66,14.34,14.34,0,0,1-4.26.67,4.72,4.72,0,0,1-3.87-1.82l.23-.24a5,5,0,0,0,3.36,1.16,14.27,14.27,0,0,0,3.89-.65,12.12,12.12,0,0,0-2.94-2.73c-.65-.36-.8-.53-.8-.82,0-.48.53-.78,1.45-.78a7.11,7.11,0,0,1,2.46.47l-.11.31a7,7,0,0,0-.94-.1c-.45,0-.65.08-.65.23s.2.37.86,1.11c.29.36.84,1,1.61,2l.4-.17.8-.34a10.31,10.31,0,0,0,1.51-.77,15.62,15.62,0,0,0-1.66-1.29Zm3-2.09a10.47,10.47,0,0,1,1.87,1.3c.76.69,1.05,1.17,1.05,1.68s-.29.88-.65.88-.27,0-.94-1.37a9.51,9.51,0,0,0-1.6-2.22Zm2.17-1.22a10.14,10.14,0,0,1,2,1.19c.8.61,1.07,1,1.07,1.62s-.21.86-.52.86-.32-.1-.49-.4a10.69,10.69,0,0,0-2.3-3Z"/>
        <path class="cls-1" d="M354.52,129.34c-1.53,3.53-2,4.77-2,5.61a2.57,2.57,0,0,0,.12.71,1.33,1.33,0,0,1,.05.34.49.49,0,0,1-.47.52,4,4,0,0,1-2.31-1.78,9.68,9.68,0,0,1-1.42-4.2,23.13,23.13,0,0,1-.15-3.7c0-2-.17-2.43-1.07-3.61h.19a3.14,3.14,0,0,1,1.57,1,2.55,2.55,0,0,1,.95,1.66,2.9,2.9,0,0,1-.07.55,16.49,16.49,0,0,0-.37,3.13,9.1,9.1,0,0,0,.48,3,3.06,3.06,0,0,0,1.09,1.64c.23-.34.23-.34.69-1.11l1.77-3,.61-1Zm4.47-3.8a6.55,6.55,0,0,1,4.75,6.28c0,1-.42,1.66-1.05,1.66a1,1,0,0,1-.63-.23,2.77,2.77,0,0,0-1.57-.25c-.49,0-.89,0-1.6,0l-.06-.32c1.7-.46,2.64-.73,2.83-.79.42-.15.48-.23.48-.63a7.52,7.52,0,0,0-.65-2.75,5.73,5.73,0,0,0-2.6-2.75Z"/>
        <path class="cls-1" d="M371.32,124.24a4.3,4.3,0,0,0,3.38,1.14,19.27,19.27,0,0,0,3-.26c-.09-3.21-.24-3.5-1.83-3.73.29-.3.46-.34,1.05-.34a6.07,6.07,0,0,1,1.76.27c.51.17.72.38.72.7,0,.12,0,.12-.28.71a6.92,6.92,0,0,0-.38,2.23,10.76,10.76,0,0,0,3.91-1.24.51.51,0,0,1,.25-.09A2.6,2.6,0,0,1,384,124c.24.15.36.31.36.5s-.33.47-1.64.78a32.93,32.93,0,0,1-4,.73c0,.55,0,.87,0,1.35s0,1,0,1.91a18.41,18.41,0,0,0,2.4-.57,3.43,3.43,0,0,0,1.05-.52.46.46,0,0,1,.31-.09,2.38,2.38,0,0,1,1.07.32.42.42,0,0,1,.25.4c0,.38-.29.54-1.61.9a22.5,22.5,0,0,1-3.43.61c.05.82.05,1.15.07,1.89s.06,1.11.12,1.64a10.83,10.83,0,0,1,4.62,1.8,1.82,1.82,0,0,1,.61,1.39c0,.44-.19.73-.46.73s-.29-.06-.84-.59a12.78,12.78,0,0,0-1.76-1.3A7.58,7.58,0,0,0,379,135c0,.46.06.67.06.93a2.11,2.11,0,0,1-.71,1.76,4.75,4.75,0,0,1-2.82.78c-2.1,0-3.54-.93-3.54-2.25,0-1.49,1.95-2.54,4.74-2.54.34,0,.55,0,1.05,0,0-1,0-1.15,0-1.45v-1.82c-.84,0-1.24.06-1.56.06a5.83,5.83,0,0,1-2.79-.46,1.83,1.83,0,0,1-.94-1.6c0-.15,0-.36,0-.59l.31,0c0,.65.13,1,.45,1.2a4.42,4.42,0,0,0,2.45.46,16.46,16.46,0,0,0,2-.15V127.9l0-1.54v-.25c-1.16.11-2,.15-2.71.15-2,0-2.86-.4-3.91-1.81ZM376,134.57a6.56,6.56,0,0,0-2.28.4q-1.14.43-1.14,1.26c0,.76.86,1.2,2.29,1.2a3.47,3.47,0,0,0,2.39-.76,1.61,1.61,0,0,0,.47-1.09c0-.15,0-.63,0-.8v-.06A11.76,11.76,0,0,0,376,134.57Z"/>
        <path class="cls-1" d="M407.61,133.92c-2,2.73-4.77,4.35-7.37,4.35a3.8,3.8,0,0,1-3.49-1.79,7.18,7.18,0,0,1-.58-3.55c0-1.15.06-3.15.16-5.06.13-2.26.15-2.85.15-3.61,0-1.8-.21-2.16-1.7-2.79a.84.84,0,0,1,.59-.21,5.3,5.3,0,0,1,1.89.48c.79.38,1.21.8,1.21,1.24a2.32,2.32,0,0,1-.18.76,64.56,64.56,0,0,0-1.1,10.08,3,3,0,0,0,.84,2.51,3.1,3.1,0,0,0,1.87.57,10.91,10.91,0,0,0,4.79-1.34,13.52,13.52,0,0,0,2.67-1.87Z"/>
        <path class="cls-1" d="M414.73,125.4a2.88,2.88,0,0,0,2.31,1.15,9.94,9.94,0,0,0,2.67-.4,15,15,0,0,0,.71-3.55c0-.65-.32-.92-1.49-1.32a1.09,1.09,0,0,1,.65-.19,5.47,5.47,0,0,1,1.81.4c.62.23.94.53.94.84,0,.15,0,.15-.25.5a17.5,17.5,0,0,0-1.26,3,7.12,7.12,0,0,0,2.43-1.28c.34-.32.42-.36.59-.36a3.73,3.73,0,0,1,1.11.23c.24.08.34.21.34.38,0,.36-.34.63-1.22,1a25.39,25.39,0,0,1-3.67,1.22c-.25.71-.25.71-.88,2.66-.42,1.26-.42,1.26-1.58,4.68-.84,2.5-1.11,3-1.55,3-.21,0-.36-.13-.48-.42a3.13,3.13,0,0,1-.3-1.22c0-.34,0-.4.46-1,1.05-1.53,1.87-3.36,3.3-7.52a10.58,10.58,0,0,1-2,.21,3,3,0,0,1-2.87-1.89Zm8.38,7.24c0,.32,0,.57,0,.65a2.58,2.58,0,0,0,1.59,2.54,6,6,0,0,0,2.25.4,5,5,0,0,0,2-.31.88.88,0,0,1,.36-.09,2.44,2.44,0,0,1,1.07.5c.25.22.38.4.38.59,0,.47-.82.7-2.48.7a9.18,9.18,0,0,1-3.88-.68,3.18,3.18,0,0,1-1.79-3,4.48,4.48,0,0,1,.19-1.32Zm.56-3.88a9.64,9.64,0,0,1,4.87-1.41,2.58,2.58,0,0,1,1.33.38.68.68,0,0,1,.33.59c0,.33-.19.46-.79.48a3,3,0,0,0-1.62.42,10.41,10.41,0,0,0-1.16.71c-.39.25-.39.25-.73.44l-.13-.19,1-.94c.19-.17.38-.34,1-1a10.84,10.84,0,0,0-4,.78Z"/>
        <path class="cls-1" d="M441.67,136.94a2.71,2.71,0,1,1-2.71-2.7A2.68,2.68,0,0,1,441.67,136.94Zm-4.74,0a2,2,0,0,0,2,2,2,2,0,1,0-2-2Z"/>
      </g>
    </g>
  </g>
</svg>
