<svg xmlns="http://www.w3.org/2000/svg" xmlns:xlink="http://www.w3.org/1999/xlink" viewBox="0 0 347.43 332.83"><defs><style>.cls-1{fill:none;}.cls-2{fill:#fff;}.cls-3{clip-path:url(#clip-path);}.cls-4{fill:#231815;}.cls-5{clip-path:url(#clip-path-2);}.cls-6{fill:#2c8ac8;}</style><clipPath id="clip-path" transform="translate(112.28 127.39)"><polygon class="cls-1" points="122.8 106.3 122.8 35.43 61.43 0 0.06 35.43 0.06 106.3 61.43 141.73 122.8 106.3"/></clipPath><clipPath id="clip-path-2" transform="translate(112.28 127.39)"><circle class="cls-1" cx="61.43" cy="70.87" r="18.84"/></clipPath></defs><g id="レイヤー_2" data-name="レイヤー 2"><g id="レイヤー_2-2" data-name="レイヤー 2"><polygon class="cls-2" points="235.09 233.69 235.09 162.83 173.71 127.39 112.34 162.83 112.34 233.69 173.71 269.13 235.09 233.69"/><g class="cls-3"><path class="cls-4" d="M68.29,69.24a15.21,15.21,0,0,1-13.72,0L4.9,40.56A15.22,15.22,0,0,1-2,28.68V-28.68A15.24,15.24,0,0,1,4.9-40.56L54.57-69.24a15.21,15.21,0,0,1,13.72,0L118-40.56a15.21,15.21,0,0,1,6.86,11.88V28.68A15.19,15.19,0,0,1,118,40.56ZM2.08,26.34A15.24,15.24,0,0,0,8.94,38.23L54.57,64.57a15.21,15.21,0,0,0,13.72,0l45.63-26.34a15.21,15.21,0,0,0,6.86-11.89V-26.34a15.21,15.21,0,0,0-6.86-11.89L68.29-64.57a15.21,15.21,0,0,0-13.72,0L8.94-38.23A15.24,15.24,0,0,0,2.08-26.34Z" transform="translate(112.28 127.39)"/><path class="cls-4" d="M68.29,50.4a15.21,15.21,0,0,1-13.72,0L4.9,21.72A15.24,15.24,0,0,1-2,9.84V-47.52A15.22,15.22,0,0,1,4.9-59.4L54.57-88.08a15.21,15.21,0,0,1,13.72,0L118-59.4a15.19,15.19,0,0,1,6.86,11.88V9.84A15.21,15.21,0,0,1,118,21.72ZM2.08,7.5A15.24,15.24,0,0,0,8.94,19.39L54.57,45.73a15.21,15.21,0,0,0,13.72,0l45.63-26.34A15.21,15.21,0,0,0,120.78,7.5V-45.19a15.21,15.21,0,0,0-6.86-11.88L68.29-83.41a15.21,15.21,0,0,0-13.72,0L8.94-57.07A15.24,15.24,0,0,0,2.08-45.19Z" transform="translate(112.28 127.39)"/><path class="cls-4" d="M68.29,31.56a15.21,15.21,0,0,1-13.72,0L4.9,2.88A15.24,15.24,0,0,1-2-9V-66.36A15.22,15.22,0,0,1,4.9-78.24l49.67-28.68a15.21,15.21,0,0,1,13.72,0L118-78.24a15.19,15.19,0,0,1,6.86,11.88V-9A15.21,15.21,0,0,1,118,2.88ZM2.08-11.34A15.24,15.24,0,0,0,8.94.55L54.57,26.89a15.21,15.21,0,0,0,13.72,0L113.92.55a15.21,15.21,0,0,0,6.86-11.89V-64a15.21,15.21,0,0,0-6.86-11.88L68.29-102.25a15.21,15.21,0,0,0-13.72,0L8.94-75.91A15.24,15.24,0,0,0,2.08-64Z" transform="translate(112.28 127.39)"/><path class="cls-4" d="M68.29,12.72a15.21,15.21,0,0,1-13.72,0L4.9-16A15.24,15.24,0,0,1-2-27.84V-85.2A15.22,15.22,0,0,1,4.9-97.08l49.67-28.68a15.21,15.21,0,0,1,13.72,0L118-97.08a15.19,15.19,0,0,1,6.86,11.88v57.36A15.21,15.21,0,0,1,118-16ZM2.08-30.18A15.24,15.24,0,0,0,8.94-18.29L54.57,8.05a15.21,15.21,0,0,0,13.72,0l45.63-26.34a15.21,15.21,0,0,0,6.86-11.89V-82.87a15.21,15.21,0,0,0-6.86-11.88L68.29-121.09a15.21,15.21,0,0,0-13.72,0L8.94-94.75A15.24,15.24,0,0,0,2.08-82.87Z" transform="translate(112.28 127.39)"/><path class="cls-4" d="M6.92,175.54a15.21,15.21,0,0,1-13.72,0l-49.67-28.67A15.21,15.21,0,0,1-63.33,135V77.63a15.21,15.21,0,0,1,6.86-11.89L-6.8,37.07a15.21,15.21,0,0,1,13.72,0L56.59,65.74a15.21,15.21,0,0,1,6.86,11.89V135a15.21,15.21,0,0,1-6.86,11.89Zm-66.21-42.89a15.22,15.22,0,0,0,6.86,11.88L-6.8,170.88a15.21,15.21,0,0,0,13.72,0l45.63-26.35a15.22,15.22,0,0,0,6.86-11.88V80a15.22,15.22,0,0,0-6.86-11.88L6.92,41.73a15.21,15.21,0,0,0-13.72,0L-52.43,68.08A15.22,15.22,0,0,0-59.29,80Z" transform="translate(112.28 127.39)"/><path class="cls-4" d="M-9.4,185a15.21,15.21,0,0,1-13.72,0l-49.67-28.67a15.24,15.24,0,0,1-6.86-11.89V87.05a15.24,15.24,0,0,1,6.86-11.89l49.67-28.67a15.21,15.21,0,0,1,13.72,0L40.28,75.17a15.21,15.21,0,0,1,6.86,11.88V144.4a15.24,15.24,0,0,1-6.86,11.89Zm-66.21-42.89A15.22,15.22,0,0,0-68.75,154l45.63,26.35a15.21,15.21,0,0,0,13.72,0L36.23,154a15.19,15.19,0,0,0,6.86-11.88V89.38A15.19,15.19,0,0,0,36.23,77.5L-9.4,51.15a15.21,15.21,0,0,0-13.72,0L-68.75,77.5a15.22,15.22,0,0,0-6.86,11.88Z" transform="translate(112.28 127.39)"/><path class="cls-4" d="M-25.71,194.38a15.21,15.21,0,0,1-13.72,0l-49.68-28.67A15.24,15.24,0,0,1-96,153.82V96.47a15.24,15.24,0,0,1,6.86-11.89l49.68-28.67a15.21,15.21,0,0,1,13.72,0L24,84.58a15.24,15.24,0,0,1,6.86,11.89v57.35A15.24,15.24,0,0,1,24,165.71Zm-66.21-42.89a15.19,15.19,0,0,0,6.86,11.88l45.63,26.35a15.21,15.21,0,0,0,13.72,0l45.63-26.35a15.22,15.22,0,0,0,6.86-11.88V98.8a15.22,15.22,0,0,0-6.86-11.88L-25.71,60.57a15.21,15.21,0,0,0-13.72,0L-85.06,86.92A15.19,15.19,0,0,0-91.92,98.8Z" transform="translate(112.28 127.39)"/><path class="cls-4" d="M-42,203.8a15.21,15.21,0,0,1-13.72,0l-49.67-28.67a15.21,15.21,0,0,1-6.86-11.89V105.89A15.21,15.21,0,0,1-105.42,94l49.67-28.67a15.21,15.21,0,0,1,13.72,0L7.64,94a15.21,15.21,0,0,1,6.86,11.89v57.35a15.21,15.21,0,0,1-6.86,11.89Zm-66.21-42.89a15.22,15.22,0,0,0,6.86,11.88l45.63,26.35a15.21,15.21,0,0,0,13.72,0L3.6,172.79a15.22,15.22,0,0,0,6.86-11.88V108.22A15.22,15.22,0,0,0,3.6,96.34L-42,70a15.27,15.27,0,0,0-13.72,0l-45.63,26.35a15.22,15.22,0,0,0-6.86,11.88Z" transform="translate(112.28 127.39)"/><path class="cls-4" d="M129.66,175.54a15.21,15.21,0,0,1-13.72,0L66.27,146.87A15.24,15.24,0,0,1,59.41,135V77.63a15.24,15.24,0,0,1,6.86-11.89l49.67-28.67a15.21,15.21,0,0,1,13.72,0l49.68,28.67a15.24,15.24,0,0,1,6.86,11.89V135a15.24,15.24,0,0,1-6.86,11.89ZM63.45,132.65a15.22,15.22,0,0,0,6.86,11.88l45.63,26.35a15.21,15.21,0,0,0,13.72,0l45.63-26.35a15.19,15.19,0,0,0,6.86-11.88V80a15.19,15.19,0,0,0-6.86-11.88L129.66,41.73a15.21,15.21,0,0,0-13.72,0L70.31,68.08A15.22,15.22,0,0,0,63.45,80Z" transform="translate(112.28 127.39)"/><path class="cls-4" d="M146,185a15.21,15.21,0,0,1-13.72,0L82.59,156.29a15.21,15.21,0,0,1-6.86-11.89V87.05a15.18,15.18,0,0,1,6.86-11.88l49.67-28.68a15.21,15.21,0,0,1,13.72,0l49.67,28.67a15.24,15.24,0,0,1,6.86,11.89V144.4a15.24,15.24,0,0,1-6.86,11.89ZM79.77,142.07A15.22,15.22,0,0,0,86.63,154l45.63,26.35a15.21,15.21,0,0,0,13.72,0L191.61,154a15.22,15.22,0,0,0,6.86-11.88V89.38a15.22,15.22,0,0,0-6.86-11.88L146,51.15a15.21,15.21,0,0,0-13.72,0L86.63,77.5a15.22,15.22,0,0,0-6.86,11.88Z" transform="translate(112.28 127.39)"/><path class="cls-4" d="M162.3,194.38a15.21,15.21,0,0,1-13.72,0L98.9,165.71A15.24,15.24,0,0,1,92,153.82V96.47A15.24,15.24,0,0,1,98.9,84.58l49.68-28.67a15.21,15.21,0,0,1,13.72,0L212,84.58a15.24,15.24,0,0,1,6.86,11.89v57.35A15.24,15.24,0,0,1,212,165.71ZM96.09,151.49A15.19,15.19,0,0,0,103,163.37l45.63,26.35a15.21,15.21,0,0,0,13.72,0l45.63-26.35a15.22,15.22,0,0,0,6.86-11.88V98.8a15.22,15.22,0,0,0-6.86-11.88L162.3,60.57a15.21,15.21,0,0,0-13.72,0L103,86.92A15.19,15.19,0,0,0,96.09,98.8Z" transform="translate(112.28 127.39)"/><path class="cls-4" d="M178.61,203.8a15.21,15.21,0,0,1-13.72,0l-49.67-28.67a15.24,15.24,0,0,1-6.86-11.89V105.89A15.24,15.24,0,0,1,115.22,94l49.67-28.67a15.21,15.21,0,0,1,13.72,0L228.28,94a15.21,15.21,0,0,1,6.86,11.89v57.35a15.21,15.21,0,0,1-6.86,11.89ZM112.4,160.91a15.22,15.22,0,0,0,6.86,11.88l45.63,26.35a15.21,15.21,0,0,0,13.72,0l45.63-26.35a15.19,15.19,0,0,0,6.86-11.88V108.22a15.19,15.19,0,0,0-6.86-11.88L178.61,70a15.27,15.27,0,0,0-13.72,0L119.26,96.34a15.22,15.22,0,0,0-6.86,11.88Z" transform="translate(112.28 127.39)"/></g><g class="cls-5"><path class="cls-6" d="M68.29,69.24a15.21,15.21,0,0,1-13.72,0L4.9,40.56A15.22,15.22,0,0,1-2,28.68V-28.68A15.24,15.24,0,0,1,4.9-40.56L54.57-69.24a15.21,15.21,0,0,1,13.72,0L118-40.56a15.21,15.21,0,0,1,6.86,11.88V28.68A15.19,15.19,0,0,1,118,40.56ZM2.08,26.34A15.24,15.24,0,0,0,8.94,38.23L54.57,64.57a15.21,15.21,0,0,0,13.72,0l45.63-26.34a15.21,15.21,0,0,0,6.86-11.89V-26.34a15.21,15.21,0,0,0-6.86-11.89L68.29-64.57a15.21,15.21,0,0,0-13.72,0L8.94-38.23A15.24,15.24,0,0,0,2.08-26.34Z" transform="translate(112.28 127.39)"/><path class="cls-6" d="M68.29,50.4a15.21,15.21,0,0,1-13.72,0L4.9,21.72A15.24,15.24,0,0,1-2,9.84V-47.52A15.22,15.22,0,0,1,4.9-59.4L54.57-88.08a15.21,15.21,0,0,1,13.72,0L118-59.4a15.19,15.19,0,0,1,6.86,11.88V9.84A15.21,15.21,0,0,1,118,21.72ZM2.08,7.5A15.24,15.24,0,0,0,8.94,19.39L54.57,45.73a15.21,15.21,0,0,0,13.72,0l45.63-26.34A15.21,15.21,0,0,0,120.78,7.5V-45.19a15.21,15.21,0,0,0-6.86-11.88L68.29-83.41a15.21,15.21,0,0,0-13.72,0L8.94-57.07A15.24,15.24,0,0,0,2.08-45.19Z" transform="translate(112.28 127.39)"/><path class="cls-6" d="M68.29,31.56a15.21,15.21,0,0,1-13.72,0L4.9,2.88A15.24,15.24,0,0,1-2-9V-66.36A15.22,15.22,0,0,1,4.9-78.24l49.67-28.68a15.21,15.21,0,0,1,13.72,0L118-78.24a15.19,15.19,0,0,1,6.86,11.88V-9A15.21,15.21,0,0,1,118,2.88ZM2.08-11.34A15.24,15.24,0,0,0,8.94.55L54.57,26.89a15.21,15.21,0,0,0,13.72,0L113.92.55a15.21,15.21,0,0,0,6.86-11.89V-64a15.21,15.21,0,0,0-6.86-11.88L68.29-102.25a15.21,15.21,0,0,0-13.72,0L8.94-75.91A15.24,15.24,0,0,0,2.08-64Z" transform="translate(112.28 127.39)"/><path class="cls-6" d="M68.29,12.72a15.21,15.21,0,0,1-13.72,0L4.9-16A15.24,15.24,0,0,1-2-27.84V-85.2A15.22,15.22,0,0,1,4.9-97.08l49.67-28.68a15.21,15.21,0,0,1,13.72,0L118-97.08a15.19,15.19,0,0,1,6.86,11.88v57.36A15.21,15.21,0,0,1,118-16ZM2.08-30.18A15.24,15.24,0,0,0,8.94-18.29L54.57,8.05a15.21,15.21,0,0,0,13.72,0l45.63-26.34a15.21,15.21,0,0,0,6.86-11.89V-82.87a15.21,15.21,0,0,0-6.86-11.88L68.29-121.09a15.21,15.21,0,0,0-13.72,0L8.94-94.75A15.24,15.24,0,0,0,2.08-82.87Z" transform="translate(112.28 127.39)"/><path class="cls-6" d="M6.92,175.54a15.21,15.21,0,0,1-13.72,0l-49.67-28.67A15.21,15.21,0,0,1-63.33,135V77.63a15.21,15.21,0,0,1,6.86-11.89L-6.8,37.07a15.21,15.21,0,0,1,13.72,0L56.59,65.74a15.21,15.21,0,0,1,6.86,11.89V135a15.21,15.21,0,0,1-6.86,11.89Zm-66.21-42.89a15.22,15.22,0,0,0,6.86,11.88L-6.8,170.88a15.21,15.21,0,0,0,13.72,0l45.63-26.35a15.22,15.22,0,0,0,6.86-11.88V80a15.22,15.22,0,0,0-6.86-11.88L6.92,41.73a15.21,15.21,0,0,0-13.72,0L-52.43,68.08A15.22,15.22,0,0,0-59.29,80Z" transform="translate(112.28 127.39)"/><path class="cls-6" d="M-9.4,185a15.21,15.21,0,0,1-13.72,0l-49.67-28.67a15.24,15.24,0,0,1-6.86-11.89V87.05a15.24,15.24,0,0,1,6.86-11.89l49.67-28.67a15.21,15.21,0,0,1,13.72,0L40.28,75.17a15.21,15.21,0,0,1,6.86,11.88V144.4a15.24,15.24,0,0,1-6.86,11.89Zm-66.21-42.89A15.22,15.22,0,0,0-68.75,154l45.63,26.35a15.21,15.21,0,0,0,13.72,0L36.23,154a15.19,15.19,0,0,0,6.86-11.88V89.38A15.19,15.19,0,0,0,36.23,77.5L-9.4,51.15a15.21,15.21,0,0,0-13.72,0L-68.75,77.5a15.22,15.22,0,0,0-6.86,11.88Z" transform="translate(112.28 127.39)"/><path class="cls-6" d="M-25.71,194.38a15.21,15.21,0,0,1-13.72,0l-49.68-28.67A15.24,15.24,0,0,1-96,153.82V96.47a15.24,15.24,0,0,1,6.86-11.89l49.68-28.67a15.21,15.21,0,0,1,13.72,0L24,84.58a15.24,15.24,0,0,1,6.86,11.89v57.35A15.24,15.24,0,0,1,24,165.71Zm-66.21-42.89a15.19,15.19,0,0,0,6.86,11.88l45.63,26.35a15.21,15.21,0,0,0,13.72,0l45.63-26.35a15.22,15.22,0,0,0,6.86-11.88V98.8a15.22,15.22,0,0,0-6.86-11.88L-25.71,60.57a15.21,15.21,0,0,0-13.72,0L-85.06,86.92A15.19,15.19,0,0,0-91.92,98.8Z" transform="translate(112.28 127.39)"/><path class="cls-6" d="M-42,203.8a15.21,15.21,0,0,1-13.72,0l-49.67-28.67a15.21,15.21,0,0,1-6.86-11.89V105.89A15.21,15.21,0,0,1-105.42,94l49.67-28.67a15.21,15.21,0,0,1,13.72,0L7.64,94a15.21,15.21,0,0,1,6.86,11.89v57.35a15.21,15.21,0,0,1-6.86,11.89Zm-66.21-42.89a15.22,15.22,0,0,0,6.86,11.88l45.63,26.35a15.21,15.21,0,0,0,13.72,0L3.6,172.79a15.22,15.22,0,0,0,6.86-11.88V108.22A15.22,15.22,0,0,0,3.6,96.34L-42,70a15.27,15.27,0,0,0-13.72,0l-45.63,26.35a15.22,15.22,0,0,0-6.86,11.88Z" transform="translate(112.28 127.39)"/><path class="cls-6" d="M129.66,175.54a15.21,15.21,0,0,1-13.72,0L66.27,146.87A15.24,15.24,0,0,1,59.41,135V77.63a15.24,15.24,0,0,1,6.86-11.89l49.67-28.67a15.21,15.21,0,0,1,13.72,0l49.68,28.67a15.24,15.24,0,0,1,6.86,11.89V135a15.24,15.24,0,0,1-6.86,11.89ZM63.45,132.65a15.22,15.22,0,0,0,6.86,11.88l45.63,26.35a15.21,15.21,0,0,0,13.72,0l45.63-26.35a15.19,15.19,0,0,0,6.86-11.88V80a15.19,15.19,0,0,0-6.86-11.88L129.66,41.73a15.21,15.21,0,0,0-13.72,0L70.31,68.08A15.22,15.22,0,0,0,63.45,80Z" transform="translate(112.28 127.39)"/><path class="cls-6" d="M146,185a15.21,15.21,0,0,1-13.72,0L82.59,156.29a15.21,15.21,0,0,1-6.86-11.89V87.05a15.18,15.18,0,0,1,6.86-11.88l49.67-28.68a15.21,15.21,0,0,1,13.72,0l49.67,28.67a15.24,15.24,0,0,1,6.86,11.89V144.4a15.24,15.24,0,0,1-6.86,11.89ZM79.77,142.07A15.22,15.22,0,0,0,86.63,154l45.63,26.35a15.21,15.21,0,0,0,13.72,0L191.61,154a15.22,15.22,0,0,0,6.86-11.88V89.38a15.22,15.22,0,0,0-6.86-11.88L146,51.15a15.21,15.21,0,0,0-13.72,0L86.63,77.5a15.22,15.22,0,0,0-6.86,11.88Z" transform="translate(112.28 127.39)"/><path class="cls-6" d="M162.3,194.38a15.21,15.21,0,0,1-13.72,0L98.9,165.71A15.24,15.24,0,0,1,92,153.82V96.47A15.24,15.24,0,0,1,98.9,84.58l49.68-28.67a15.21,15.21,0,0,1,13.72,0L212,84.58a15.24,15.24,0,0,1,6.86,11.89v57.35A15.24,15.24,0,0,1,212,165.71ZM96.09,151.49A15.19,15.19,0,0,0,103,163.37l45.63,26.35a15.21,15.21,0,0,0,13.72,0l45.63-26.35a15.22,15.22,0,0,0,6.86-11.88V98.8a15.22,15.22,0,0,0-6.86-11.88L162.3,60.57a15.21,15.21,0,0,0-13.72,0L103,86.92A15.19,15.19,0,0,0,96.09,98.8Z" transform="translate(112.28 127.39)"/><path class="cls-6" d="M178.61,203.8a15.21,15.21,0,0,1-13.72,0l-49.67-28.67a15.24,15.24,0,0,1-6.86-11.89V105.89A15.24,15.24,0,0,1,115.22,94l49.67-28.67a15.21,15.21,0,0,1,13.72,0L228.28,94a15.21,15.21,0,0,1,6.86,11.89v57.35a15.21,15.21,0,0,1-6.86,11.89ZM112.4,160.91a15.22,15.22,0,0,0,6.86,11.88l45.63,26.35a15.21,15.21,0,0,0,13.72,0l45.63-26.35a15.19,15.19,0,0,0,6.86-11.88V108.22a15.19,15.19,0,0,0-6.86-11.88L178.61,70a15.27,15.27,0,0,0-13.72,0L119.26,96.34a15.22,15.22,0,0,0-6.86,11.88Z" transform="translate(112.28 127.39)"/></g><ellipse class="cls-6" cx="173.74" cy="198.37" rx="1.18" ry="1.32"/><polygon class="cls-1" points="235.03 233.69 235.03 162.83 173.65 127.39 112.28 162.83 112.28 233.69 173.65 269.13 235.03 233.69"/></g></g></svg>