<svg xmlns="http://www.w3.org/2000/svg" viewBox="0 0 122.74 141.73"><defs><style>.cls-1{fill:#fff;}.cls-2{fill:#2c8ac8;}.cls-3{fill:#231815;}</style></defs><g id="レイヤー_2" data-name="レイヤー 2"><g id="レイヤー_2-2" data-name="レイヤー 2"><polygon class="cls-1" points="122.74 35.43 122.74 106.3 61.37 141.73 30.68 124.01 30.68 106.3 15.35 97.44 15.35 44.29 30.68 35.43 46.03 44.29 30.68 53.15 30.68 88.58 46.03 97.44 46.03 115.16 61.37 124.01 107.4 97.44 107.4 44.29 61.37 17.71 46.03 26.57 30.68 17.71 61.37 0 122.74 35.43"/><polygon class="cls-2" points="15.35 44.29 15.35 97.44 30.68 106.3 30.68 124.01 0 106.3 0 35.43 30.68 17.71 46.03 26.57 30.68 35.43 15.35 44.29"/><polygon class="cls-3" points="107.41 44.29 107.41 62.01 92.06 70.86 92.06 53.15 61.37 35.43 46.03 44.29 30.68 35.43 61.37 17.71 107.41 44.29"/><polygon class="cls-1" points="92.06 53.15 92.06 88.58 61.37 106.3 61.37 88.58 76.72 79.72 76.72 62.01 92.06 53.15"/><polygon class="cls-1" points="61.37 88.58 61.37 70.86 46.03 62.01 46.03 79.72 61.37 88.58"/><polygon class="cls-2" points="76.72 79.72 76.72 62.01 61.37 70.86 61.37 88.58 76.72 79.72"/><polygon class="cls-3" points="76.72 62.01 61.37 53.15 46.03 62.01 61.37 70.86 76.72 62.01"/><polygon class="cls-2" points="107.41 62.01 107.41 97.44 61.37 124.01 46.03 115.16 46.03 97.44 61.37 106.3 92.06 88.58 92.06 70.86 107.41 62.01"/><polygon class="cls-3" points="61.37 88.58 61.37 106.3 30.68 88.58 30.68 53.15 46.03 62.01 46.03 79.72 61.37 88.58"/><polygon class="cls-2" points="92.06 53.15 76.72 62.01 61.37 53.15 46.03 62.01 30.68 53.15 61.37 35.43 92.06 53.15"/></g></g></svg>