<svg xmlns="http://www.w3.org/2000/svg" viewBox="0 0 749.72 56.4"><defs><style>.cls-1{fill:#fff;}</style></defs><g id="レイヤー_2" data-name="レイヤー 2"><g id="レイヤー_1-2" data-name="レイヤー 1"><path class="cls-1" d="M15.87,1.53l.67.7L9.09,9.72l7.45,7.45-.67.7L8.42,10.48,1,17.87l-.7-.7L7.75,9.72.29,2.23l.7-.7L8.42,9ZM4,9.7a1.6,1.6,0,0,1-1.59,1.62A1.63,1.63,0,0,1,.8,9.7,1.61,1.61,0,0,1,4,9.7Zm6,6.13a1.64,1.64,0,0,1-1.6,1.62,1.62,1.62,0,0,1-.15-3.24h.07s0,0,0,0l0,0A1.61,1.61,0,0,1,10,15.83Zm0-12.2a1.6,1.6,0,0,1-1.6,1.62A1.64,1.64,0,0,1,6.82,3.63,1.61,1.61,0,0,1,8.44,2,1.6,1.6,0,0,1,10,3.63Zm6,6.09a1.6,1.6,0,1,1-1.6-1.59A1.6,1.6,0,0,1,16,9.72Z"/><path class="cls-1" d="M38.32,4.47c.53-.69.67-.9,1.2-1.55a17.37,17.37,0,0,1,2.1,1.68c.08.1.13.17.13.21s-.11.15-.24.15H33a11.67,11.67,0,0,0,2.46,3.86,22.93,22.93,0,0,0,4.36,4.07,15.54,15.54,0,0,0,2.52,1.3v.28a2.19,2.19,0,0,0-1.76,1.24A21,21,0,0,1,35.87,11a23.94,23.94,0,0,1-3.09-5.44l0,4.73v3.84h2.06c.48-.65.65-.84,1.13-1.41a14.34,14.34,0,0,1,1.91,1.6.27.27,0,0,1,.07.17c0,.06-.09.12-.19.12h-5v.3c.06,3,.06,3.14.08,4.19,0,.15-.06.19-.16.21a8.38,8.38,0,0,1-1,.07c-.21,0-.3-.07-.3-.28l0-1.15c0-.86,0-1.45,0-1.66,0-.8,0-1.36,0-1.43v-.25H28.29a5.63,5.63,0,0,0-1.58.13l-.1-.78a8,8,0,0,0,1.68.17h3.15V10.27l0-3.74a12.3,12.3,0,0,1-1.83,3,31.14,31.14,0,0,1-4.79,4.87A12.36,12.36,0,0,1,22.3,16l-.12-.23a26.65,26.65,0,0,0,5.9-6.11A23.06,23.06,0,0,0,30.83,5H24.3a7.59,7.59,0,0,0-1.37.12l-.1-.82a7.16,7.16,0,0,0,1.43.21h7.13V2A18.46,18.46,0,0,0,31.31.1c.48.07.86.13,1.11.15,1,.15,1.24.23,1.24.44s-.1.28-.88.53V4.47Z"/><path class="cls-1" d="M63.75,11.59c1.39.65,1.81.9,1.81,1.09s-.29.27-1,.3a15.09,15.09,0,0,1-3.23,1.57A13.52,13.52,0,0,0,63.78,16,10.65,10.65,0,0,0,68.29,17l0,.25c-.88.21-1.2.55-1.56,1.55A12.77,12.77,0,0,1,62.85,17a10.67,10.67,0,0,1-4.49-5.44H56.24v5.16a37.7,37.7,0,0,0,4.66-.58l0,.27a57,57,0,0,1-8.19,2.14c-.1.53-.21.74-.38.74s-.27-.19-.77-2.29l.54,0c.34,0,1.75-.11,2.67-.19V11.59H51.93A20.44,20.44,0,0,1,51,15.31,10.08,10.08,0,0,1,48.78,19l-.21-.19A11.85,11.85,0,0,0,50,15.05c.61-2.77.74-5.18.74-13.27,0-.65,0-1-.07-1.76a21,21,0,0,1,1.83,1.09H64.4c.32-.4.42-.52.76-.92a13,13,0,0,1,1.34.9c.13.13.17.19.17.27s-.14.3-.73.7c0,1.26,0,1.26.06,3.13a.32.32,0,0,1-.21.25,3.81,3.81,0,0,1-.92.12c-.23,0-.32-.08-.34-.29V4.75H52.31l0,1.63A33.62,33.62,0,0,1,52,11.11h3.92V8H54.71a14.94,14.94,0,0,0-1.94.11l-.1-.78a9.06,9.06,0,0,0,2,.19h1.21V6.78a8.93,8.93,0,0,0-.1-1.53c1.89.17,2.2.23,2.2.46s-.06.17-.69.42V7.56h3.25V6.63a10.56,10.56,0,0,0-.08-1.42c1.91.21,2.16.27,2.16.48s-.12.23-.67.42V7.56h1.57c.42-.57.55-.74,1-1.28.86.59,1.13.8,2,1.47a.37.37,0,0,1,.08.17c0,.08-.08.12-.23.12H62v3.07h2.44c.42-.61.56-.8,1-1.41.9.63,1.17.84,2.12,1.55a.49.49,0,0,1,.1.19c0,.09-.1.15-.21.15Zm.78-10H52.35c0,.58,0,.58,0,2.66H64.53Zm-7.2,9.51h3.25V8H57.33Zm1.55.48a5.71,5.71,0,0,0,2.06,2.71,8.62,8.62,0,0,0,2.81-2.71Z"/><path class="cls-1" d="M78,10c-.38,1.33-1,3.61-1.22,4.64a7.31,7.31,0,0,0-.28,1.79c0,.67,0,.75-.14.92a.47.47,0,0,1-.4.23c-.36,0-.65-.29-.9-.94a12.43,12.43,0,0,1-.68-4.22,31.23,31.23,0,0,1,1-7,9.38,9.38,0,0,0,.31-1.89,3.25,3.25,0,0,0-.6-1.85c.48,0,.88.29,1.46,1.05A3,3,0,0,1,77.3,4.3c0,.24,0,.24-.34.93a16.53,16.53,0,0,0-1.59,6.84,8.14,8.14,0,0,0,.34,2.61l.88-2.1,1.13-2.71Zm2.09-3.8A4.38,4.38,0,0,0,82.84,7a11.19,11.19,0,0,0,2.4-.29V5.82c0-2.36,0-2.63-.3-2.92a2.12,2.12,0,0,0-1.38-.49,1.17,1.17,0,0,1,1-.33A5.87,5.87,0,0,1,86,2.27c.61.19.93.44.93.75,0,.15,0,.17-.19.65a9.4,9.4,0,0,0-.44,2.82,5.34,5.34,0,0,0,1.93-.86c.21-.21.27-.23.46-.23a2.45,2.45,0,0,1,1,.27.44.44,0,0,1,.27.38c0,.46-1.53,1.09-3.72,1.51a41.17,41.17,0,0,0,.28,5.71C88.93,13.92,90,14.74,90,16c0,.44-.19.77-.42.77s-.31-.1-.73-.52a6.49,6.49,0,0,0-2.27-1.68,4.62,4.62,0,0,1,0,.5c0,1.51-1.26,2.42-3.36,2.42-1.83,0-3.11-.88-3.11-2.14,0-1.45,1.56-2.38,4-2.38.4,0,.69,0,1.28.07v-.36l0-2.25,0-2.68a9.78,9.78,0,0,1-1.85.16A4.15,4.15,0,0,1,80,6.4Zm3.22,7.67c-1.66,0-2.69.54-2.69,1.47,0,.73.82,1.23,2.06,1.23a2.42,2.42,0,0,0,2.31-1,2.64,2.64,0,0,0,.27-1.47A6.74,6.74,0,0,0,83.35,13.84Z"/><path class="cls-1" d="M100.15,17a8.69,8.69,0,0,1,1.55-4.1c.82-1.17,1.7-2,4.39-4.2a6.72,6.72,0,0,0,1.6-1.63,3.54,3.54,0,0,0,.46-1.77,2.77,2.77,0,0,0-2.86-3A2.44,2.44,0,0,0,102.79,4a5.86,5.86,0,0,0-.2,1.53c0,.72-.28.9-1,.9s-1.07-.25-1.07-.86c0-2.16,2.1-3.78,4.91-3.78a5,5,0,0,1,4,1.58,3.4,3.4,0,0,1,.67,2.22c0,1.75-.77,2.82-3.1,4.25a18.82,18.82,0,0,0-4.12,2.94,6,6,0,0,0-1.72,2.66h6.07c1.51,0,2-.46,2.45-2.22l.63.14L109.77,17Z"/><path class="cls-1" d="M115.48,4.12a4.7,4.7,0,0,1,8.13,0,11.65,11.65,0,0,1,1.19,5.43A11.78,11.78,0,0,1,123.61,15a4.71,4.71,0,0,1-8.13,0,11.71,11.71,0,0,1-1.2-5.44A11.64,11.64,0,0,1,115.48,4.12Zm4.07,12.66c2.25,0,3.24-2.21,3.24-7.23s-1-7.22-3.24-7.22-3.23,2.23-3.23,7.24S117.31,16.78,119.55,16.78Z"/><path class="cls-1" d="M128.71,17a8.69,8.69,0,0,1,1.55-4.1c.82-1.17,1.7-2,4.39-4.2a6.72,6.72,0,0,0,1.6-1.63,3.54,3.54,0,0,0,.46-1.77,2.77,2.77,0,0,0-2.86-3A2.43,2.43,0,0,0,131.36,4a5.37,5.37,0,0,0-.21,1.53c-.05.72-.28.9-1,.9s-1.07-.25-1.07-.86c0-2.16,2.1-3.78,4.91-3.78a5,5,0,0,1,4,1.58,3.4,3.4,0,0,1,.67,2.22c0,1.75-.77,2.82-3.1,4.25a18.82,18.82,0,0,0-4.12,2.94,6,6,0,0,0-1.72,2.66h6.07c1.51,0,2-.46,2.45-2.22l.63.14L138.33,17Z"/><path class="cls-1" d="M143,17a8.69,8.69,0,0,1,1.55-4.1c.82-1.17,1.7-2,4.39-4.2a6.72,6.72,0,0,0,1.6-1.63A3.54,3.54,0,0,0,151,5.31a2.77,2.77,0,0,0-2.86-3A2.43,2.43,0,0,0,145.64,4a5.37,5.37,0,0,0-.21,1.53c-.05.72-.28.9-1,.9s-1.07-.25-1.07-.86c0-2.16,2.1-3.78,4.91-3.78a5,5,0,0,1,4,1.58A3.4,3.4,0,0,1,153,5.58c0,1.75-.77,2.82-3.1,4.25a18.82,18.82,0,0,0-4.12,2.94A6,6,0,0,0,144,15.43h6.07c1.51,0,2-.46,2.45-2.22l.63.14L152.61,17Z"/><path class="cls-1" d="M173.19,7.66h3.15l1.26-1.34c.77.63,1,.82,1.78,1.49a.31.31,0,0,1,.1.17c0,.08-.12.17-.25.17h-6v4.72h4.41c.56-.65.75-.84,1.34-1.47.88.67,1.15.88,1.95,1.58.09.08.13.14.13.18a.21.21,0,0,1-.23.19h-7.6V16c0,.61,0,.69.08,2.92,0,.33-.25.42-1.07.42-.46,0-.59-.07-.61-.34,0-.73.11-2.33.11-3V13.35H164c-.57,0-1.49.05-2,.09l-.13-.74a12.64,12.64,0,0,0,2.12.17h1.81v-4a16.94,16.94,0,0,0-.07-2.16,17.2,17.2,0,0,1,1.87,1h4.08V3.8h-4.79a20.14,20.14,0,0,1-4.29,4.68l-.2-.23a14.59,14.59,0,0,0,1.88-2.46A22.46,22.46,0,0,0,167.12,0c2.33.76,2.45.82,2.45,1a.29.29,0,0,1-.14.23,4,4,0,0,1-1,.19l-1.26,1.89h9.83c.55-.63.71-.82,1.26-1.41.84.65,1.09.84,1.95,1.55.06.07.11.13.11.17s-.11.17-.23.17h-6.95Zm-5.86.49v4.72h4.37V8.15Z"/><path class="cls-1" d="M195.59,9.2a6,6,0,0,1,2.36.58A3.55,3.55,0,0,1,199.84,13c0,2.58-2.08,4.3-5.21,4.3-2.73,0-4.77-1.3-4.77-3,0-.67.38-1,1.2-1,.61,0,.84.21.88.8a2.68,2.68,0,0,0,.53,1.89,2.63,2.63,0,0,0,2.07.78c2.08,0,3.3-1.39,3.3-3.76a3.24,3.24,0,0,0-1.41-3,5.55,5.55,0,0,0-2.43-.5h-.93V8.8H194a4.29,4.29,0,0,0,2.29-.63,3.09,3.09,0,0,0,1.19-2.67A4.11,4.11,0,0,0,197,3.4a2.32,2.32,0,0,0-2.18-1c-1.58,0-2.38.82-2.48,2.5,0,.8-.23,1-1,1s-1.11-.23-1.11-.8c0-1.78,2.08-3.28,4.58-3.28,2.66,0,4.62,1.56,4.62,3.68a3.32,3.32,0,0,1-1.73,2.85,6.77,6.77,0,0,1-2.1.7Z"/><path class="cls-1" d="M214.33,11.48A12.51,12.51,0,0,1,213,15.75a10.63,10.63,0,0,1-2.94,3.52l-.18-.18a13.12,13.12,0,0,0,2.72-5.57,35.84,35.84,0,0,0,.51-7.28c0-2.88,0-4.73-.13-5.93.84.49,1.12.63,1.93,1.16h7.84c.27-.34.54-.67.79-.95.61.4.78.53,1.37,1,.27.21.31.25.31.31s-.06.15-.82.61V11c0,3.28,0,3.28,0,6.24,0,1.07-.38,1.34-2.44,1.85a1.15,1.15,0,0,0-.86-1.08,14.23,14.23,0,0,0-2.73-.52v-.34c1.7.09,1.87.09,4.09.15h.07l.08,0,.19-.08s.06-.07.06-.21V11.48Zm8.56-4.78H214.6a34.35,34.35,0,0,1-.19,4.3h8.48Zm0-4.75h-8.23c0,.34,0,1.77,0,4.26h8.27Z"/><path class="cls-1" d="M236.73,17a8.81,8.81,0,0,1,1.56-4.1c.82-1.17,1.7-2,4.39-4.2a6.45,6.45,0,0,0,1.59-1.63,3.44,3.44,0,0,0,.46-1.77,2.76,2.76,0,0,0-2.85-3A2.44,2.44,0,0,0,239.38,4a5.37,5.37,0,0,0-.21,1.53c0,.72-.27.9-1,.9s-1.07-.25-1.07-.86c0-2.16,2.1-3.78,4.91-3.78a5.05,5.05,0,0,1,4,1.58,3.4,3.4,0,0,1,.67,2.22c0,1.75-.78,2.82-3.11,4.25a19.38,19.38,0,0,0-4.12,2.94,6,6,0,0,0-1.72,2.66h6.07c1.51,0,2-.46,2.46-2.22l.63.14L246.35,17Z"/><path class="cls-1" d="M252.06,4.12a4.7,4.7,0,0,1,8.13,0,11.53,11.53,0,0,1,1.2,5.43,11.65,11.65,0,0,1-1.2,5.44,4.46,4.46,0,0,1-4.05,2.33A4.51,4.51,0,0,1,252.06,15a11.84,11.84,0,0,1-1.19-5.44A11.77,11.77,0,0,1,252.06,4.12Zm4.08,12.66c2.24,0,3.23-2.21,3.23-7.23s-1-7.22-3.23-7.22-3.24,2.23-3.24,7.24S253.89,16.78,256.14,16.78Z"/><path class="cls-1" d="M273.59,4.41c0-1.55,0-2.08-.06-3.47.73.42,1,.57,1.68,1.05H284l.86-.94c.59.4.78.52,1.35.94.17.13.23.21.23.28s-.19.29-.72.59l0,6.65q0,2.43.15,8.69v.07a.24.24,0,0,1-.17.23,4.61,4.61,0,0,1-1.13.14c-.3,0-.36,0-.36-.14V17h-9.11v1.43a.22.22,0,0,1-.06.18,3.05,3.05,0,0,1-1.26.19c-.23,0-.3-.06-.32-.27.09-1.89.09-2.18.11-6.66Zm10.6-1.93h-9.11V9.07h9.11Zm-9.11,7.07v7h9.11v-7Z"/><path class="cls-1" d="M294.86,3.86a3.46,3.46,0,0,0,2.63,1,10.94,10.94,0,0,0,2.24-.27,5.6,5.6,0,0,0,.74-2.14c0-.57-.4-.91-1.49-1.18a1.63,1.63,0,0,1,.94-.23,4.27,4.27,0,0,1,1.64.36c.52.21.76.44.76.69s-.09.29-.34.61-.44.63-.61.86c-.38.61-.38.61-.52.82a6.93,6.93,0,0,0,3-1.35.61.61,0,0,1,.4-.14c.82,0,1.41.29,1.41.69s-.28.46-.91.67a34.13,34.13,0,0,1-4.57,1.2c-.38.52-.63.9-1.12,1.64s-.73,1.11-1.13,1.68a5.65,5.65,0,0,1,2.71-.84A2.33,2.33,0,0,1,303,10c.36-.17.36-.17,2.06-1,2.07-1,2.58-1.39,2.58-1.77s-.36-.73-1-1a1,1,0,0,1,.49-.13,3,3,0,0,1,2.37,2.12c0,.38-.17.53-.76.65A35.11,35.11,0,0,0,303.16,11c0,.68,0,.8,0,1.7a6,6,0,0,1-.17,1.81.68.68,0,0,1-.59.4.63.63,0,0,1-.67-.63,2.43,2.43,0,0,1,0-.36,20.65,20.65,0,0,0,.15-2.24,10.92,10.92,0,0,0-2.46,1.65,2.85,2.85,0,0,0-1,2c0,1.13,1.16,1.68,3.51,1.68a15.1,15.1,0,0,0,4.22-.59,1.55,1.55,0,0,1,.4-.06c.65,0,1.47.58,1.47,1.05,0,.27-.23.48-.65.56a23.07,23.07,0,0,1-3.76.3,10.8,10.8,0,0,1-4.26-.61,2.32,2.32,0,0,1-1.56-2.23,4,4,0,0,1,1.51-2.87,15,15,0,0,1,2.61-1.87,3.52,3.52,0,0,0-.3-1.66,1.19,1.19,0,0,0-1.07-.63c-1.38,0-3,1.11-4.55,3-.4.55-.57.67-.78.67s-.57-.44-.57-1.11c0-.44,0-.46.61-.94a17,17,0,0,0,3.91-4.52,7.66,7.66,0,0,1-1.41.13,3.4,3.4,0,0,1-3.13-1.62Z"/><path class="cls-1" d="M320.19,4.79c.44-.53.56-.7,1-1.2.61.57.8.76,1.37,1.37a.39.39,0,0,1,.08.16c0,.09-.12.15-.25.15h-2.92V9.66c1.41-.46,1.49-.48,2.29-.78l.15.23a18.31,18.31,0,0,1-2.44,1.54v3.4c0,2.64,0,2.64,0,3.59,0,.63-.12.92-.46,1.17a4.09,4.09,0,0,1-1.53.55c-.06-.59-.15-.76-.5-.93a7.72,7.72,0,0,0-1.85-.5v-.31c1.36.06,1.66.06,2.62.08h.09c.12,0,.19-.06.19-.23V11.3l-1.79.81c-.06.63-.17.87-.38.87s-.14-.07-.21-.24c0,0-.23-.67-.65-1.91a19.74,19.74,0,0,0,3-.71V5.27h-1.47a5.75,5.75,0,0,0-1.31.13l-.19-.8a5,5,0,0,0,1.5.19H318V2.35A14.93,14.93,0,0,0,317.9,0c2.22.3,2.33.32,2.33.55s-.13.25-.78.46V4.79Zm10.71,5.86h.31c.53-.63.69-.82,1.24-1.39a23.14,23.14,0,0,1,1.83,1.53.35.35,0,0,1,.1.19c0,.08-.1.15-.23.15H330.9V14.3c0,.9,0,1.59,0,2.08s0,.65,0,1.24c0,1-.25,1.21-2.4,1.72-.23-1-.5-1.09-3.23-1.54l0-.31c1.26.1,1.89.15,2.88.15.19,0,.54,0,1,0s.36-.07.36-.32V11.13h-6.34a12.27,12.27,0,0,0-1.76.12l-.17-.77a12.8,12.8,0,0,0,1.93.17h6.34V7.83h-6.34a14.21,14.21,0,0,0-1.76.11l-.15-.78a8.52,8.52,0,0,0,1.91.19h3.34V3.93h-2.1a10.54,10.54,0,0,0-1.81.14l-.16-.79a11.55,11.55,0,0,0,2,.16h2.1V1.72c0-.88,0-1,0-1.72,1.84.21,2.35.34,2.35.52s-.21.3-.95.47V3.44h2.54c.49-.65.65-.84,1.18-1.45l1.89,1.62a.42.42,0,0,1,.08.17c0,.06-.1.15-.21.15h-5.48V7.35h3.28c.46-.63.61-.82,1.11-1.41.78.67,1,.88,1.74,1.6a.31.31,0,0,1,.09.17c0,.08-.11.12-.27.12H330.9Zm-7.79,1.17a12,12,0,0,1,2.62,1.55,1.45,1.45,0,0,1,.65,1c0,.74-.44,1.66-.8,1.66-.19,0-.23-.06-.54-.82a10.26,10.26,0,0,0-2.1-3.17Z"/><path class="cls-1" d="M339.49,4.54a3.18,3.18,0,0,0,2.81,1.15,8.66,8.66,0,0,0,1.49-.13c.06-.31.06-.31.32-1.51a15.9,15.9,0,0,0,.27-1.74c0-.67-.48-1-1.58-1.09a1.37,1.37,0,0,1,1.05-.4,5,5,0,0,1,2,.46c.4.19.63.46.63.74s0,.27-.32.63a12,12,0,0,0-1.28,2.79,8.3,8.3,0,0,0,3.72-1.39c.17-.17.23-.19.4-.19a3.68,3.68,0,0,1,1,.19c.32.13.47.28.47.49s-.34.6-1.18.92a18.74,18.74,0,0,1-4.7,1.07,27.56,27.56,0,0,0-.91,5.77A14.59,14.59,0,0,1,350,10.39c2.38,0,4,1.22,4,3,0,1.68-1.2,3.08-3.36,4a15.88,15.88,0,0,1-6.13,1l0-.29a21.77,21.77,0,0,0,3.28-.67c3-.91,4.59-2.44,4.59-4.37,0-1.28-.84-2-2.31-2a8.08,8.08,0,0,0-4.66,1.81,4.19,4.19,0,0,0-1.21,1.28.56.56,0,0,1-.47.27c-.54,0-1.24-.92-1.24-1.63,0-.36.7-4.06,1.18-6.22a8.25,8.25,0,0,1-.88.06,3.52,3.52,0,0,1-3.49-1.91Z"/><path class="cls-1" d="M363,4.24a4.31,4.31,0,0,0,3.39,1.14,19.16,19.16,0,0,0,3-.26c-.09-3.21-.23-3.5-1.83-3.73.3-.3.46-.34,1.05-.34a5.75,5.75,0,0,1,1.76.27c.51.17.72.38.72.7,0,.12,0,.12-.27.71A6.65,6.65,0,0,0,370.4,5a10.69,10.69,0,0,0,3.9-1.24.54.54,0,0,1,.25-.09,2.64,2.64,0,0,1,1.1.36.62.62,0,0,1,.35.5c0,.3-.33.47-1.63.78a33.28,33.28,0,0,1-4,.73c0,.55,0,.87,0,1.35s0,1,0,1.91a17.86,17.86,0,0,0,2.39-.57,3.43,3.43,0,0,0,1.05-.52.46.46,0,0,1,.31-.09,2.46,2.46,0,0,1,1.08.32.44.44,0,0,1,.25.4c0,.38-.3.54-1.62.9a22.37,22.37,0,0,1-3.42.61c0,.82,0,1.15.06,1.89s.06,1.11.13,1.64a10.88,10.88,0,0,1,4.62,1.8,1.81,1.81,0,0,1,.6,1.39c0,.44-.18.73-.46.73s-.29-.06-.84-.59a12.19,12.19,0,0,0-1.76-1.3,7.45,7.45,0,0,0-2.1-.88c0,.46.06.67.06.93a2.11,2.11,0,0,1-.71,1.76,4.74,4.74,0,0,1-2.81.78c-2.1,0-3.55-.93-3.55-2.25,0-1.49,1.95-2.54,4.74-2.54.34,0,.55,0,1.05,0,0-1,0-1.16,0-1.45V10.41c-.84.05-1.24.07-1.55.07a5.85,5.85,0,0,1-2.8-.46,1.85,1.85,0,0,1-.94-1.6c0-.15,0-.36,0-.59l.32,0c0,.65.12,1,.44,1.2a4.47,4.47,0,0,0,2.46.46,16.32,16.32,0,0,0,2-.15V7.89l0-1.53V6.11c-1.16.1-2,.15-2.71.15-2,0-2.86-.4-3.9-1.81Zm4.67,10.33a6.58,6.58,0,0,0-2.29.4q-1.14.43-1.14,1.26c0,.76.86,1.2,2.29,1.2a3.52,3.52,0,0,0,2.4-.76,1.6,1.6,0,0,0,.46-1.09c0-.15,0-.63,0-.8v-.06A11.75,11.75,0,0,0,367.63,14.57Z"/><path class="cls-1" d="M399.25,13.92c-2,2.73-4.77,4.35-7.37,4.35a3.8,3.8,0,0,1-3.48-1.79,7.16,7.16,0,0,1-.59-3.55c0-1.15.06-3.15.17-5.06.12-2.26.14-2.85.14-3.61,0-1.8-.21-2.16-1.7-2.79a.84.84,0,0,1,.59-.21,5.3,5.3,0,0,1,1.89.48c.8.38,1.22.8,1.22,1.24a2.19,2.19,0,0,1-.19.76,64.69,64.69,0,0,0-1.09,10.08,3,3,0,0,0,.84,2.51,3,3,0,0,0,1.86.57,10.88,10.88,0,0,0,4.79-1.34A13.24,13.24,0,0,0,399,13.69Z"/><path class="cls-1" d="M407,5.08a1.22,1.22,0,0,0,.95.36c.59,0,1.11-.11,5.81-1.24.89-.21,2-.46,3.41-.74A21.4,21.4,0,0,0,420,2.79a2.94,2.94,0,0,1,.74-.17,2.73,2.73,0,0,1,1.13.45c.42.27.61.5.61.79s-.25.53-.65.53a2.83,2.83,0,0,1-.38,0,3.24,3.24,0,0,0-.59,0,7.43,7.43,0,0,0-7,6.94,4.25,4.25,0,0,0,2.77,4.14,6.64,6.64,0,0,0,2.14.51,1.06,1.06,0,0,1,.88.33,1.84,1.84,0,0,1,.63,1c0,.36-.31.59-.77.59a8.71,8.71,0,0,1-4.27-1.52,5.55,5.55,0,0,1-2.43-4.7,7.81,7.81,0,0,1,2.29-5.12,10.67,10.67,0,0,1,3.42-2.39,34.29,34.29,0,0,0-6,1.44,23.06,23.06,0,0,0-3.36,1.35,1.37,1.37,0,0,1-.84.29A2.3,2.3,0,0,1,406.67,6a3,3,0,0,1-.55-1.4.82.82,0,0,1,.23-.55A2.37,2.37,0,0,0,407,5.08Z"/><path class="cls-1" d="M427.62,18.33c.34-1.3.49-2,.66-3a31.4,31.4,0,0,0,.35-3.3,4.3,4.3,0,0,0,0-.46c1.72.23,2.06.31,2.06.52s-.17.26-.69.38a17.68,17.68,0,0,1-2,6Zm3.59-8.44c-.9.21-1.3.29-2.43.52,0,.57-.13.76-.27.76s-.23-.06-.74-2c.93,0,1.2,0,2.19-.09a28.2,28.2,0,0,0,2.07-3,18.94,18.94,0,0,0,1.64-3.47c2.08.67,2.1.67,2.1.86s-.21.23-.82.3a41.76,41.76,0,0,1-4.36,5.31c2.47-.17,2.56-.19,3.48-.29a18.75,18.75,0,0,0-.9-1.79l.23-.1a11.07,11.07,0,0,1,1.39,1.28c.69.75,1,1.19,1,1.61S435.33,11,435,11s-.21-.06-.42-.75c-.07-.23-.21-.65-.38-1.09-.59.12-.59.12-1.77.42v4c0,3.13,0,3.2,0,5.51,0,.14-.05.21-.15.25l-1,.08a.2.2,0,0,1-.21-.19v0c0-1.47.06-4.3.06-5.52Zm-1.55-5.67A16,16,0,0,0,431.34.13c1.74.52,2.19.71,2.19.88s-.22.25-.95.29A22.06,22.06,0,0,1,430,4.47l.17.13c.63.44.88.78.88,1.15S430.75,7,430.52,7s-.23-.13-.35-.4a10.77,10.77,0,0,0-2.23-3.11l.15-.23a6.2,6.2,0,0,1,.92.55Zm3.93,7.08a13.26,13.26,0,0,1,1.93,4.11c0,.67-.57,1.62-.95,1.62-.16,0-.2-.11-.29-.74a21.54,21.54,0,0,0-1-4.91ZM443,2.88c.42-.49.56-.63,1-1a13.07,13.07,0,0,1,1.3,1c.19.14.28.25.28.35s-.3.34-1,.49a26.15,26.15,0,0,1-3.09,4.22,8.79,8.79,0,0,0,1.81,1.24,11.17,11.17,0,0,0,4.11,1.34v.25c-.92.32-1.26.63-1.44,1.47a14.13,14.13,0,0,1-5.11-3.65,20.76,20.76,0,0,1-6.06,4.13l-.17-.31a23.47,23.47,0,0,0,5.52-4.7,14.72,14.72,0,0,1-2-3.24,14.1,14.1,0,0,1-2.94,3.47l-.21-.23a15.35,15.35,0,0,0,2.41-4.22A21.42,21.42,0,0,0,438.54.1l1,.26c1,.27,1.22.35,1.22.52s-.19.21-.9.36c-.36.84-.51,1.13-.76,1.64Zm-6,12.22a35.57,35.57,0,0,1,4.39,1.13c2.23.71,2.65.9,2.94,1.39a2.26,2.26,0,0,1,.27,1.07c0,.46-.17.84-.35.84s-.21-.05-.61-.38A25.43,25.43,0,0,0,437,15.39Zm1.81-11.74c-.21.38-.23.42-.38.65a10.86,10.86,0,0,0,2.2,3.09A16.23,16.23,0,0,0,443,3.36Zm.12,7.73a15,15,0,0,1,3.59,1.63,1.24,1.24,0,0,1,.59,1.14c0,.63-.19,1.13-.4,1.13s-.23-.08-.46-.38a15.06,15.06,0,0,0-3.48-3.27Z"/><path class="cls-1" d="M466.3,1.7c.49-.52.63-.67,1.1-1.15.92.67,1.19.88,2,1.55a.61.61,0,0,1,.25.38.33.33,0,0,1-.1.17c-.15.1-.34.14-1.49.25a57.72,57.72,0,0,1-5.59,3.42c.57.17.72.25.72.38s-.28.35-.93.52v5l.07,5.06c0,.69-.15.94-.49,1.22a4.62,4.62,0,0,1-2.29.71c-.18-.71-.29-.88-.69-1.09a9.17,9.17,0,0,0-3.42-.69v-.32c1,0,1,0,2.85.11l2,.06h.06c.27,0,.4-.13.4-.38V7.73a13.77,13.77,0,0,0-.13-1.85c.63.12.93.21,1.33.29,1.51-1.28,3.29-3,4.24-4H455.45a13,13,0,0,0-2.27.17L453,1.53a14.18,14.18,0,0,0,2.46.17Z"/><path class="cls-1" d="M481,6.3l2.36-.17a9.49,9.49,0,0,0-1.72-2.25l.2-.18a11.86,11.86,0,0,1,2.34,1.61,2,2,0,0,1,.92,1.62c0,.61-.34,1.24-.67,1.24a.35.35,0,0,1-.25-.19,4.81,4.81,0,0,1-.38-.93c-.07-.18-.13-.33-.25-.58-2.48.61-4.18.92-6.74,1.32-.09.61-.21.86-.4.86s-.13-.06-.15-.19-.29-1.24-.44-2h1.05c.33,0,.8,0,1.19,0a24.62,24.62,0,0,0,1.31-3.88h-2.21a9.88,9.88,0,0,0-1.57.11l-.13-.74a9,9,0,0,0,1.72.15h5.76L484.2.59l1.91,1.64a.24.24,0,0,1,.08.16.16.16,0,0,1-.17.15h-4.85a31.46,31.46,0,0,1-2.62,3.86Zm-1.09,3.55a13.23,13.23,0,0,0-.14-2.12,12.9,12.9,0,0,1,2.14.29c.08,0,.17.11.17.17a.3.3,0,0,1-.13.19l-.67.23v2.31h1.47c.52-.55.69-.74,1.22-1.28.71.63.92.84,1.59,1.47.06.06.08.1.08.14s-.08.15-.23.15h-4.13v3.51c1.43-.42,2.43-.76,4.68-1.58l.08.3c-1.32.71-2.39,1.21-5,2.39-.71.31-.71.31-3.08,1.24a6.78,6.78,0,0,0-.9.38c-.07.77-.09.92-.28.92s-.31-.15-1.05-2.25a33.76,33.76,0,0,0,4.22-1V11.4h-2.58a4.48,4.48,0,0,0-1.22.13l-.14-.74c.33,0,1.23.13,1.55.13h2.39Zm12.9-4.27A22.65,22.65,0,0,1,492,9.05a13.57,13.57,0,0,1-2.1,4.28,11.32,11.32,0,0,0,2.58,2.4,8.26,8.26,0,0,0,2.86,1.34v.34c-1,.1-1.22.29-1.77,1.34a10.2,10.2,0,0,1-2.37-1.91,14.92,14.92,0,0,1-2.06-2.56,14.33,14.33,0,0,1-2.56,2.22,20.79,20.79,0,0,1-5.16,2.63l-.17-.3c3.55-2,5.48-3.5,7.2-5.75a15.55,15.55,0,0,1-1.68-5.5,15.3,15.3,0,0,1-2,2.48l-.23-.19a24,24,0,0,0,2.81-6.3,19.19,19.19,0,0,0,.82-3.36c.44.1.8.19,1,.23.92.21,1.23.34,1.23.5a.36.36,0,0,1-.08.19c-.12.13-.23.15-.82.21-.19.51-.19.51-1.47,3.76H492c.52-.65.69-.86,1.19-1.53.86.76,1.14,1,1.94,1.72a.22.22,0,0,1,.08.15c0,.08-.11.14-.25.14Zm-4.9,0c-.25.53-.4.8-.82,1.54a15.19,15.19,0,0,0,2,5.06,15.84,15.84,0,0,0,2.16-6.6Z"/><path class="cls-1" d="M516,13.92c-2,2.73-4.76,4.35-7.37,4.35a3.8,3.8,0,0,1-3.48-1.79,7.16,7.16,0,0,1-.59-3.55c0-1.15.06-3.15.17-5.06.12-2.26.14-2.85.14-3.61,0-1.8-.21-2.16-1.7-2.79a.84.84,0,0,1,.59-.21,5.3,5.3,0,0,1,1.89.48c.8.38,1.22.8,1.22,1.24a2.19,2.19,0,0,1-.19.76,64.69,64.69,0,0,0-1.09,10.08,3,3,0,0,0,.84,2.51,3.06,3.06,0,0,0,1.87.57,10.87,10.87,0,0,0,4.78-1.34,13.24,13.24,0,0,0,2.67-1.87Z"/><path class="cls-1" d="M526,4.24a4.28,4.28,0,0,0,3.38,1.14,19.16,19.16,0,0,0,3-.26c-.08-3.21-.23-3.5-1.82-3.73.29-.3.46-.34,1-.34a5.8,5.8,0,0,1,1.76.27c.5.17.71.38.71.7,0,.12,0,.12-.27.71A6.65,6.65,0,0,0,533.44,5a10.84,10.84,0,0,0,3.91-1.24.51.51,0,0,1,.25-.09,2.65,2.65,0,0,1,1.09.36c.23.15.36.31.36.5s-.34.47-1.64.78a33.28,33.28,0,0,1-4,.73c0,.55,0,.87,0,1.35s0,1,0,1.91a17.86,17.86,0,0,0,2.39-.57,3.32,3.32,0,0,0,1.05-.52.48.48,0,0,1,.32-.09,2.42,2.42,0,0,1,1.07.32.42.42,0,0,1,.25.4c0,.38-.29.54-1.62.9a22.37,22.37,0,0,1-3.42.61c0,.82,0,1.15.06,1.89s.07,1.11.13,1.64a10.88,10.88,0,0,1,4.62,1.8,1.82,1.82,0,0,1,.61,1.39c0,.44-.19.73-.46.73s-.3-.06-.84-.59a12.94,12.94,0,0,0-1.77-1.3,7.45,7.45,0,0,0-2.1-.88,8.1,8.1,0,0,1,.07.93,2.08,2.08,0,0,1-.72,1.76,4.72,4.72,0,0,1-2.81.78c-2.1,0-3.55-.93-3.55-2.25,0-1.49,2-2.54,4.75-2.54.33,0,.54,0,1.05,0,0-1,0-1.16,0-1.45V10.41c-.84.05-1.24.07-1.56.07a5.8,5.8,0,0,1-2.79-.46,1.84,1.84,0,0,1-1-1.6c0-.15,0-.36.05-.59l.31,0c0,.65.13,1,.44,1.2a4.49,4.49,0,0,0,2.46.46,16.46,16.46,0,0,0,2-.15V7.89l-.05-1.53V6.11c-1.15.1-2,.15-2.7.15-2,0-2.86-.4-3.91-1.81Zm4.66,10.33a6.58,6.58,0,0,0-2.29.4c-.75.29-1.13.71-1.13,1.26,0,.76.86,1.2,2.29,1.2a3.47,3.47,0,0,0,2.39-.76,1.6,1.6,0,0,0,.46-1.09c0-.15,0-.63,0-.8v-.06A11.54,11.54,0,0,0,530.67,14.57Z"/><path class="cls-1" d="M562.29,13.92c-2,2.73-4.76,4.35-7.36,4.35a3.8,3.8,0,0,1-3.49-1.79,7.16,7.16,0,0,1-.59-3.55c0-1.15.07-3.15.17-5.06.13-2.26.15-2.85.15-3.61,0-1.8-.21-2.16-1.7-2.79a.82.82,0,0,1,.58-.21,5.25,5.25,0,0,1,1.89.48c.8.38,1.22.8,1.22,1.24a2.19,2.19,0,0,1-.19.76,64.69,64.69,0,0,0-1.09,10.08,3,3,0,0,0,.84,2.51,3.08,3.08,0,0,0,1.87.57,10.91,10.91,0,0,0,4.79-1.34A13.49,13.49,0,0,0,562,13.69Z"/><path class="cls-1" d="M569.42,5.4a2.87,2.87,0,0,0,2.31,1.15,9.88,9.88,0,0,0,2.66-.4,15.1,15.1,0,0,0,.72-3.55c0-.65-.32-.92-1.49-1.32a1.07,1.07,0,0,1,.65-.19,5.36,5.36,0,0,1,1.8.4c.63.23.95.53.95.84,0,.15,0,.15-.25.5a16.7,16.7,0,0,0-1.26,3,7.12,7.12,0,0,0,2.43-1.28c.34-.32.42-.36.59-.36a3.73,3.73,0,0,1,1.11.23c.23.08.34.21.34.38,0,.36-.34.63-1.22,1a24.28,24.28,0,0,1-3.67,1.21c-.26.72-.26.72-.89,2.67l-1.57,4.68c-.84,2.5-1.11,3-1.55,3-.21,0-.36-.13-.49-.42a3.11,3.11,0,0,1-.29-1.22c0-.34,0-.4.46-1,1-1.53,1.87-3.36,3.3-7.52a10.58,10.58,0,0,1-2,.21,3,3,0,0,1-2.87-1.89Zm8.37,7.24c0,.31,0,.57,0,.65a2.59,2.59,0,0,0,1.6,2.54,6,6,0,0,0,2.25.4,5,5,0,0,0,2-.31.85.85,0,0,1,.36-.09,2.44,2.44,0,0,1,1.07.5.84.84,0,0,1,.38.59c0,.46-.82.7-2.48.7a9.31,9.31,0,0,1-3.88-.68,3.18,3.18,0,0,1-1.79-3,4.17,4.17,0,0,1,.19-1.32Zm.57-3.88a9.58,9.58,0,0,1,4.87-1.41,2.55,2.55,0,0,1,1.32.38.66.66,0,0,1,.34.58c0,.34-.19.47-.8.49a3,3,0,0,0-1.61.42,10.41,10.41,0,0,0-1.16.71l-.73.44-.13-.19c.25-.25.25-.25,1-.94.19-.17.38-.34,1-1a10.84,10.84,0,0,0-4,.78Z"/><path class="cls-1" d="M596.36,16.94a2.71,2.71,0,1,1-2.71-2.7A2.68,2.68,0,0,1,596.36,16.94Zm-4.75,0a2.06,2.06,0,0,0,2,2,2,2,0,1,0-2-2Z"/><path class="cls-1" d="M616.88,11.48a8.71,8.71,0,0,0-.07.95c0,2.5,1.58,3.67,5,3.67a13.58,13.58,0,0,0,4.64-.77,1.1,1.1,0,0,1,.36-.07,2.32,2.32,0,0,1,1.15.42,1,1,0,0,1,.46.74c0,.31-.23.54-.67.65a24.17,24.17,0,0,1-4.89.42c-2.35,0-3.84-.29-4.89-1a4,4,0,0,1-1.75-3.29,5.74,5.74,0,0,1,.34-1.79Zm.65-8.29a4.88,4.88,0,0,0,3.21.93,16.71,16.71,0,0,0,4.37-.63,1.53,1.53,0,0,1,.38-.09,1.45,1.45,0,0,1,1.26,1.09c0,.36-.13.44-1.54.74a34.57,34.57,0,0,0-5.6,2.08L619.46,7c.59-.36,1-.57,1.53-.88l1.37-.73.4-.26c-.47,0-1.2.07-1.58.07a5.64,5.64,0,0,1-2.39-.57,4.83,4.83,0,0,1-1.47-1.22Zm9.57-1.85A10,10,0,0,1,629,2.65c.76.69,1,1.17,1,1.68s-.29.88-.65.88-.27,0-1-1.37a9,9,0,0,0-1.59-2.22ZM629.26.13a9.28,9.28,0,0,1,2,1.19c.82.61,1.09,1,1.09,1.62s-.21.86-.52.86-.32-.1-.49-.4A10.55,10.55,0,0,0,629,.4Z"/><path class="cls-1" d="M648.08,9.64a20.38,20.38,0,0,0,2.56-5.29c2,.79,2,.82,2,1s-.15.23-.82.27a22.58,22.58,0,0,1-3.3,4.06h4.24c.49-.65.64-.86,1.18-1.49a26.74,26.74,0,0,1,2.1,1.78.2.2,0,0,1,.06.11c0,.08,0,.08-.25.08H647.3a11,11,0,0,0,3.26,3.65,18,18,0,0,0,4,2.23,10.51,10.51,0,0,0,2,.61l0,.21c-.9.21-1.18.44-1.54,1.47a15.52,15.52,0,0,1-4.19-3,16.34,16.34,0,0,1-3.51-4.66v3.21c0,1.26,0,1.4.06,3.21,0,1,0,1,0,1.89-.06.21-.12.25-.58.29l-.72.07c-.23,0-.33-.07-.36-.26.07-.81.07-.81.17-4.68V11.44a19.43,19.43,0,0,1-4.2,4.29,20.79,20.79,0,0,1-4.68,2.85l-.21-.29a23.56,23.56,0,0,0,5.48-4.52,16.74,16.74,0,0,0,2.75-3.65H639a11.12,11.12,0,0,0-1.78.11L637,9.39a8.81,8.81,0,0,0,2,.25h6.72V3.78h-5.5a16.46,16.46,0,0,0-2,.1l-.19-.77a9.17,9.17,0,0,0,2.35.19h5.31V2.6A18.51,18.51,0,0,0,645.62,0c1.85.21,2.44.34,2.44.59s-.23.31-.86.46V3.3h4.66c.46-.65.61-.84,1.11-1.47.91.71,1.18.94,2,1.72a.3.3,0,0,1,.08.12c0,.07-.08.11-.19.11h-7.7V9.64ZM640.9,4.26c1.79,1.43,2.69,2.5,2.69,3.21S643.06,9,642.66,9c-.19,0-.21-.07-.35-.61a12.18,12.18,0,0,0-1.6-3.95Z"/><path class="cls-1" d="M666.92,6.45c.44-.53.57-.7,1-1.18.65.55.86.73,1.47,1.32.08.11.12.15.12.21s-.08.13-.23.13H666v5.31c.93-.38,1.33-.57,2.4-1.07l.14.29c-1.19.86-1.87,1.33-2.43,1.66l-2.67,1.66c0,.78-.1,1-.31,1s-.17-.06-.23-.21-.3-.71-.82-2a26.38,26.38,0,0,0,2.56-.82V6.93h-1.22A6.25,6.25,0,0,0,662,7l-.15-.75a5.41,5.41,0,0,0,1.49.17h1.22V2.73A18.3,18.3,0,0,0,664.5.78c2,.25,2.29.31,2.29.52s-.19.27-.84.44V6.45Zm7.22,5.66a12.94,12.94,0,0,1-2.29,2.82,14.29,14.29,0,0,1-5.2,3l-.17-.32a14.47,14.47,0,0,0,4.45-3.06,10.74,10.74,0,0,0,1.72-2.42h-1.8A17.58,17.58,0,0,1,666,15.43l-.16-.31a14.37,14.37,0,0,0,3.57-3,11.21,11.21,0,0,0,1.7-2.39h-1.79a7.85,7.85,0,0,0-1.74.13l-.15-.8a7.15,7.15,0,0,0,1.89.19h9c.53-.57.69-.74,1.22-1.26a20.05,20.05,0,0,1,1.72,1.41c.08.08.13.14.13.21s-.09.12-.26.12h-8.46a19.91,19.91,0,0,1-1.38,1.91h7.18a7.12,7.12,0,0,1,.77-.78,10.07,10.07,0,0,1,1.22.93.3.3,0,0,1,.17.23c0,.17-.19.31-.67.52a21.48,21.48,0,0,1-1.11,5.57,3,3,0,0,1-2.31,1.24c-.19-1.07-.42-1.22-2.5-1.51l0-.36c1.28.12,2.16.19,2.71.19s.75-.11.94-.53a20.11,20.11,0,0,0,.84-5h-1.09a11.52,11.52,0,0,1-2.35,3.6,16.79,16.79,0,0,1-3.72,2.75,22.55,22.55,0,0,1-2.1,1l-.21-.29A16.12,16.12,0,0,0,674,15.31a10.44,10.44,0,0,0,2-3.2ZM671.5,7.89c0,.3-.23.38-1,.38-.29,0-.38-.06-.38-.27,0-1.49.07-2.25.07-2.94,0-2.5,0-3.78-.07-4.54a16.37,16.37,0,0,1,1.6.93h4.89c.36-.38.46-.51.82-.86.54.38.71.5,1.19.88.15.13.22.21.22.29s-.07.19-.68.51V3.51c0,.86,0,2,0,4.22,0,.19,0,.25-.2.31a5,5,0,0,1-.89.11c-.19,0-.27-.07-.27-.23V7.39H671.5Zm5.35-6H671.5V4.09h5.35ZM671.5,4.58V6.91h5.35V4.58Z"/><path class="cls-1" d="M694.34,9.34c-1.53,3.53-2,4.77-2,5.61a2.39,2.39,0,0,0,.13.71,2,2,0,0,1,0,.34.49.49,0,0,1-.46.52,3.91,3.91,0,0,1-2.31-1.78,9.55,9.55,0,0,1-1.43-4.2,23.13,23.13,0,0,1-.15-3.7c0-1.95-.17-2.43-1.07-3.61h.19a3.06,3.06,0,0,1,1.57,1,2.51,2.51,0,0,1,1,1.66,3.85,3.85,0,0,1-.06.55,16.53,16.53,0,0,0-.38,3.13,9.1,9.1,0,0,0,.48,3A3.12,3.12,0,0,0,691,14.28a11.51,11.51,0,0,0,.7-1.12l1.76-3c.34-.54.34-.54.61-1Zm4.48-3.8a6.55,6.55,0,0,1,4.74,6.28c0,1-.42,1.66-1,1.66a1,1,0,0,1-.63-.23,2.77,2.77,0,0,0-1.57-.25c-.49,0-.88,0-1.6,0l-.06-.32c1.7-.46,2.64-.73,2.83-.79.42-.15.49-.24.49-.63a7.53,7.53,0,0,0-.66-2.75,5.8,5.8,0,0,0-2.6-2.76Z"/><path class="cls-1" d="M709.53,5.4a2.88,2.88,0,0,0,2.31,1.15,9.94,9.94,0,0,0,2.67-.4,15,15,0,0,0,.71-3.55c0-.65-.32-.92-1.49-1.32a1.09,1.09,0,0,1,.65-.19,5.47,5.47,0,0,1,1.81.4c.62.23.94.53.94.84,0,.15,0,.15-.25.5a17.5,17.5,0,0,0-1.26,3,7.12,7.12,0,0,0,2.43-1.28c.34-.32.42-.36.59-.36a3.73,3.73,0,0,1,1.11.23c.24.08.34.21.34.38,0,.36-.34.63-1.22,1a24.28,24.28,0,0,1-3.67,1.21c-.25.72-.25.72-.88,2.67-.42,1.26-.42,1.26-1.58,4.68-.84,2.5-1.11,3-1.55,3-.21,0-.36-.13-.48-.42a3.13,3.13,0,0,1-.3-1.22c0-.34,0-.4.46-1,1-1.53,1.87-3.36,3.3-7.52a10.58,10.58,0,0,1-2,.21,3,3,0,0,1-2.87-1.89Zm8.38,7.24c0,.31,0,.57,0,.65a2.58,2.58,0,0,0,1.59,2.54,6,6,0,0,0,2.25.4,5,5,0,0,0,2-.31.88.88,0,0,1,.36-.09,2.44,2.44,0,0,1,1.07.5.84.84,0,0,1,.38.59c0,.46-.82.7-2.48.7a9.34,9.34,0,0,1-3.88-.68,3.18,3.18,0,0,1-1.79-3,4.48,4.48,0,0,1,.19-1.32Zm.56-3.88a9.64,9.64,0,0,1,4.87-1.41,2.58,2.58,0,0,1,1.33.38.67.67,0,0,1,.33.58c0,.34-.19.47-.79.49a3,3,0,0,0-1.62.42,10.41,10.41,0,0,0-1.16.71c-.39.25-.39.25-.73.44l-.13-.19,1-.94c.19-.17.38-.34,1-1a10.84,10.84,0,0,0-4,.78Z"/><path class="cls-1" d="M731.87,5.69a2.88,2.88,0,0,0,2.31,1.15,9.91,9.91,0,0,0,2.67-.39,15.11,15.11,0,0,0,.71-3.57c0-.63-.31-.91-1.49-1.31a1.17,1.17,0,0,1,.65-.18,5.33,5.33,0,0,1,1.81.39c.63.24.94.53.94.84,0,.15,0,.15-.25.51a19.88,19.88,0,0,0-1.26,3,7.84,7.84,0,0,0,2.44-1.28c.33-.31.42-.36.59-.36a4.15,4.15,0,0,1,1.11.23c.23.09.33.21.33.38,0,.36-.33.63-1.21,1a23.21,23.21,0,0,1-3.68,1.24c-.15.44-.25.73-.27.8-.69,2.08-1.41,4.26-2.18,6.55-.84,2.5-1.12,3-1.56,3-.21,0-.36-.13-.48-.42a3.13,3.13,0,0,1-.3-1.22c0-.33,0-.4.47-1,1-1.38,1.93-3.57,3.29-7.51a11.35,11.35,0,0,1-2,.21,3.09,3.09,0,0,1-2.88-1.89Zm8.38,7.24c0,.32,0,.57,0,.65a2.59,2.59,0,0,0,1.6,2.54,5.75,5.75,0,0,0,2.24.4,5.08,5.08,0,0,0,2-.31,1,1,0,0,1,.35-.09,2.45,2.45,0,0,1,1.08.51.82.82,0,0,1,.37.59c0,.46-.82.69-2.47.69a9.41,9.41,0,0,1-3.89-.67,3.21,3.21,0,0,1-1.78-3,4.17,4.17,0,0,1,.19-1.32Zm.57-3.88a9.51,9.51,0,0,1,4.87-1.43A2.55,2.55,0,0,1,747,8a.71.71,0,0,1,.34.59c0,.35-.19.46-.8.5a2.78,2.78,0,0,0-1.62.42,7.72,7.72,0,0,0-.69.4l-.78.5a2.31,2.31,0,0,1-.42.26l-.12-.19.31-.32.69-.63c.15-.12.47-.42,1-1h-.16a11.56,11.56,0,0,0-3.85.77Zm3.65-7.56a10.85,10.85,0,0,1,1.87,1.3c.76.7,1,1.18,1,1.68s-.29.88-.65.88-.28,0-.93-1.36a9.44,9.44,0,0,0-1.61-2.21ZM746.63.27a10.46,10.46,0,0,1,2,1.2c.8.61,1.07,1.05,1.07,1.62s-.21.86-.52.86-.32-.11-.49-.4a10.12,10.12,0,0,0-2.29-3Z"/><path class="cls-1" d="M7.22,46.09c-1.53,3.53-2,4.77-2,5.61a2.39,2.39,0,0,0,.13.71,2,2,0,0,1,0,.34.49.49,0,0,1-.46.52,3.91,3.91,0,0,1-2.31-1.78,9.55,9.55,0,0,1-1.43-4.2,23.05,23.05,0,0,1-.15-3.69c0-2-.17-2.44-1.07-3.62H.19a3.1,3.1,0,0,1,1.57,1,2.55,2.55,0,0,1,1,1.66,3.85,3.85,0,0,1-.06.55,15.75,15.75,0,0,0-.38,3.13,9.1,9.1,0,0,0,.48,3A3.12,3.12,0,0,0,3.84,51c.23-.34.23-.34.7-1.11.67-1.14.67-1.14,1.76-3l.61-1Zm4.48-3.8a6.55,6.55,0,0,1,4.74,6.28c0,1-.42,1.66-1.05,1.66a1,1,0,0,1-.63-.23,2.77,2.77,0,0,0-1.57-.25c-.49,0-.89,0-1.6,0l-.06-.32c1.7-.46,2.64-.73,2.83-.79.42-.15.48-.23.48-.63a7.52,7.52,0,0,0-.65-2.75,5.8,5.8,0,0,0-2.6-2.76Z"/><path class="cls-1" d="M22.41,42.15a2.87,2.87,0,0,0,2.31,1.15,9.44,9.44,0,0,0,2.66-.4,15.1,15.1,0,0,0,.72-3.55c0-.65-.32-.92-1.49-1.32a1.07,1.07,0,0,1,.65-.19,5.36,5.36,0,0,1,1.8.4c.63.23,1,.53,1,.84,0,.15,0,.15-.25.5a16.7,16.7,0,0,0-1.26,3,7.12,7.12,0,0,0,2.43-1.28c.34-.32.42-.36.59-.36a3.73,3.73,0,0,1,1.11.23c.23.08.34.21.34.38,0,.36-.34.63-1.22,1a24.28,24.28,0,0,1-3.67,1.21c-.26.72-.26.72-.88,2.67-.42,1.26-.42,1.26-1.58,4.68-.84,2.5-1.11,3-1.55,3-.21,0-.36-.13-.49-.42a3.3,3.3,0,0,1-.29-1.22c0-.34,0-.4.46-1C24.8,50,25.62,48.15,27.05,44a10.58,10.58,0,0,1-2,.21,3,3,0,0,1-2.87-1.89Zm8.38,7.24c0,.32,0,.57,0,.65a2.59,2.59,0,0,0,1.6,2.54,6,6,0,0,0,2.25.4,5,5,0,0,0,2-.31.85.85,0,0,1,.36-.09,2.36,2.36,0,0,1,1.07.51.81.81,0,0,1,.38.58c0,.46-.82.7-2.48.7a9.31,9.31,0,0,1-3.88-.68,3.18,3.18,0,0,1-1.79-3,4.17,4.17,0,0,1,.19-1.32Zm.56-3.88a9.61,9.61,0,0,1,4.87-1.41,2.61,2.61,0,0,1,1.33.38.67.67,0,0,1,.33.58c0,.34-.19.47-.8.49a3,3,0,0,0-1.61.42,10.41,10.41,0,0,0-1.16.71l-.73.44-.13-.19c.25-.25.25-.25,1-.94.19-.17.38-.34,1-1a10.84,10.84,0,0,0-4,.78Z"/><path class="cls-1" d="M53.86,49.39h2.69c.53-.61.69-.8,1.22-1.43.84.67,1.09.88,1.87,1.6a.35.35,0,0,1,.1.19c0,.06-.1.12-.25.12H53.86v4.75H59c.59-.69.78-.91,1.34-1.6,1,.78,1.26,1,2.21,1.81,0,.06.08.1.08.12a.16.16,0,0,1-.17.15H46.22a9.63,9.63,0,0,0-1.76.17l-.19-.88a10.92,10.92,0,0,0,2.12.23h6V49.87h-3.7a8.65,8.65,0,0,0-1.45.13l-.19-.84a8.44,8.44,0,0,0,1.64.23h3.7V45.57h-3.7a6.22,6.22,0,0,0-1.22.1l-.23-.77a21.14,21.14,0,0,1-3.9,2.31l-.15-.28a25.27,25.27,0,0,0,6.36-5.81,18.44,18.44,0,0,0,2.84-4.43c2.16.59,2.45.69,2.45.86s-.36.29-1,.42a14.89,14.89,0,0,0,4.48,4.45,15.48,15.48,0,0,0,5.08,2.29l0,.27c-.89.13-1.2.44-1.58,1.49a20.69,20.69,0,0,1-4.47-3.34,15.53,15.53,0,0,1-3.76-5,24.18,24.18,0,0,1-6.28,6.74,6.31,6.31,0,0,0,1.43.19h7.37c.48-.53.63-.7,1.07-1.24.82.59,1.09.77,1.91,1.43.08.08.11.12.11.16s-.11.13-.28.13h-5Z"/><path class="cls-1" d="M68.1,41.83a1.22,1.22,0,0,0,1,.36c.59,0,1.11-.11,5.81-1.24.89-.21,2-.46,3.41-.74a21.4,21.4,0,0,0,2.83-.67,2.8,2.8,0,0,1,.73-.16,2.67,2.67,0,0,1,1.14.44c.42.27.61.5.61.79s-.25.53-.65.53a2.83,2.83,0,0,1-.38,0,3.24,3.24,0,0,0-.59,0,7.43,7.43,0,0,0-7,7,4.25,4.25,0,0,0,2.77,4.13,6.64,6.64,0,0,0,2.14.51,1.06,1.06,0,0,1,.88.33,1.84,1.84,0,0,1,.63,1c0,.36-.31.59-.78.59a8.7,8.7,0,0,1-4.26-1.51,5.58,5.58,0,0,1-2.43-4.71,7.84,7.84,0,0,1,2.28-5.12,10.77,10.77,0,0,1,3.43-2.39,34.29,34.29,0,0,0-6,1.44,23.06,23.06,0,0,0-3.36,1.35,1.37,1.37,0,0,1-.84.29,2.3,2.3,0,0,1-1.61-1.24,3,3,0,0,1-.55-1.4.82.82,0,0,1,.23-.55A2.37,2.37,0,0,0,68.1,41.83Z"/><path class="cls-1" d="M98.05,54A9.5,9.5,0,0,0,103,51.11a7.45,7.45,0,0,0,1.87-5.06,5.23,5.23,0,0,0-2.37-4.64,6.94,6.94,0,0,0-3.64-1,5,5,0,0,0-.73,0,2.74,2.74,0,0,1,.65,1.74c0,1.64-1.18,4.7-2.77,7.27-1.32,2.09-2.35,3.12-3.13,3.12a1.18,1.18,0,0,1-.92-.44,4.05,4.05,0,0,1-.59-1.34,13.53,13.53,0,0,0-.92-2A4,4,0,0,1,89.92,47a6.58,6.58,0,0,1,1.89-4.16A10.16,10.16,0,0,1,99,39.86a8,8,0,0,1,5.41,1.93,6.43,6.43,0,0,1,2,4.93,7.26,7.26,0,0,1-4.18,6.37,12.7,12.7,0,0,1-4.09,1.3ZM91.14,47.5A4.93,4.93,0,0,0,92,50.27c.29.38.57.61.8.61.46,0,1.47-1.13,2.5-2.77,1.55-2.48,2.66-5.19,2.66-6.49a2.37,2.37,0,0,0-.29-1C94,41.22,91.14,44.27,91.14,47.5Z"/><path class="cls-1" d="M112.56,42.65a3.48,3.48,0,0,0,2.5,1.07,9.19,9.19,0,0,0,2.1-.27c0-.61,0-1.56,0-1.93,0-2.21-.25-2.65-1.7-2.9a1.17,1.17,0,0,1,.9-.29,4.92,4.92,0,0,1,2.16.52.86.86,0,0,1,.47.67c0,.13,0,.13-.23.55a7.93,7.93,0,0,0-.66,3.13A6.08,6.08,0,0,0,120.41,42a1,1,0,0,1,.51-.21,2.37,2.37,0,0,1,.79.19.53.53,0,0,1,.36.46c0,.29-.19.46-.94.82a14.56,14.56,0,0,1-3.07,1c0,.29,0,.29-.06,1,0,.56-.06,1.49-.09,2.75a15.64,15.64,0,0,1,5.57-1.16c2.88,0,4.68,1.37,4.68,3.59a3.58,3.58,0,0,1-3.59,3.66c-1.93,0-3.32-1.28-4-3.72l.31-.11a6.34,6.34,0,0,0,1.26,1.83,2.8,2.8,0,0,0,2,.8,2.66,2.66,0,0,0,2.62-2.88c0-1.61-1.09-2.5-3.11-2.5a13.59,13.59,0,0,0-5.69,1.52c0,2.22,0,2.22,0,2.85,0,.4,0,.63,0,.8a2.47,2.47,0,0,1-.28,1.24,1.28,1.28,0,0,1-1,.78c-.3,0-.3,0-1.58-1.14a7.82,7.82,0,0,0-1.41-.94,1,1,0,0,1-.69-.89,1.82,1.82,0,0,1,.63-1.17A10.37,10.37,0,0,1,117,48.47c0-.3,0-.61,0-1,0-1,0-1,.11-3a10.36,10.36,0,0,1-1.64.14,3.48,3.48,0,0,1-3.13-1.72Zm2.31,8.5c-.42.44-.63.78-.63,1s.27.44.84.65a4.39,4.39,0,0,0,1.3.34c.25,0,.36-.15.38-.53.11-1.89.15-2.91.15-3A8.87,8.87,0,0,0,114.87,51.15Zm9.36-10.62a6.8,6.8,0,0,1,3.09.76,2.39,2.39,0,0,1,1.47,1.84.58.58,0,0,1-.63.61,1.23,1.23,0,0,1-.31,0,3,3,0,0,0-.45,0,13.54,13.54,0,0,0-2.58.56l-.12-.2A15.14,15.14,0,0,0,127,42.67a3.12,3.12,0,0,0-1.32-1.3,5.81,5.81,0,0,0-1.45-.55Z"/><path class="cls-1" d="M146,42.34c.34-.42.44-.55.8-1,.67.53.88.69,1.53,1.28.19.15.27.25.27.36s-.25.21-1.26.25a15.43,15.43,0,0,1-3.12,3,16.52,16.52,0,0,0,3.29,1.28,21,21,0,0,0,5.25.84v.32c-.86.17-1.09.38-1.62,1.42a24.4,24.4,0,0,1-3.33-1c.46.46.48.46.88.84.12.14.19.23.19.31s-.05.08-.07.11a1.47,1.47,0,0,1-.23.12l-.21.11c0,1,0,1,0,2.75,0,1.15,0,1.15.05,2.24a1.23,1.23,0,0,0,0,.13.25.25,0,0,1-.21.27,3.15,3.15,0,0,1-.86.11c-.32,0-.38-.06-.38-.36v-.88h-7.92v.73c0,.36-.19.47-.84.47-.46,0-.61-.09-.61-.36v0c0-.74,0-.74,0-1.81,0-.57,0-.57,0-1.91V49.71a21.79,21.79,0,0,1-3.93,1.11l-.13-.3a34.76,34.76,0,0,0,8.72-4.3,18.72,18.72,0,0,1-2.54-2.48,19.11,19.11,0,0,1-1.72,1.56,12.74,12.74,0,0,1-3.72,2.24l-.15-.23a24.11,24.11,0,0,0,3.93-3.48,11.14,11.14,0,0,0,2.27-3.34c2,.42,2.22.46,2.22.65s-.29.33-1.09.46c-.25.36-.36.5-.52.74Zm-3.61-2.67V38.22c0-.48,0-.78-.06-1.39a13.2,13.2,0,0,1,2.18.28c.17.06.27.14.27.27s-.27.38-.9.5v1.79h5.88c.42-.48.54-.65,1-1.16l1.91,1.39c.13.1.19.19.19.27s-.1.15-.19.17-.41.08-1.25.21a10.93,10.93,0,0,1-2,2.06l-.21-.13a13.24,13.24,0,0,0,.73-2.33H136.48a6.51,6.51,0,0,1-.63,2.35,2,2,0,0,1-1.28,1,.7.7,0,0,1-.46-.36,1.82,1.82,0,0,1-.17-.88c0-.27,0-.29.5-.63a4.16,4.16,0,0,0,1-1.17,6,6,0,0,0,.71-2.23h.38c0,.34,0,.57,0,.76s0,.37,0,.69Zm4.45,10.1c.36-.32.36-.32.84-.72a19.48,19.48,0,0,1-4.39-2.16,28.38,28.38,0,0,1-4.66,2.44,2.63,2.63,0,0,1,.46.44Zm-7.75,4.6H147V50.25h-7.92Zm1.56-11.55c-.21.25-.28.33-.49.56a10.72,10.72,0,0,0,2.94,2.27,14.42,14.42,0,0,0,2.79-2.83Z"/><path class="cls-1" d="M160.92,41.18c.44-.57.59-.73,1.05-1.24.67.61.88.8,1.54,1.43a.39.39,0,0,1,.08.19c0,.06-.08.1-.23.1h-2.88v1.52l1.11.77c.63.44.95.88.95,1.35s-.4,1.15-.69,1.15-.26-.13-.34-.42a7.92,7.92,0,0,0-1-2.41V49c0,2.69,0,3.17,0,6.72,0,.28-.25.34-1.13.34-.23,0-.32-.06-.32-.25v-.09c.11-3.25.11-3.27.11-4.53,0-.55,0-1.12,0-1.64,0-1.2,0-2.06,0-2.48l.19-3.11a24.09,24.09,0,0,1-1.6,4,13.2,13.2,0,0,1-2,3l-.23-.15A32.72,32.72,0,0,0,158,45.32a31.1,31.1,0,0,0,.89-3.66h-1.12a6,6,0,0,0-1.51.17l-.15-.82a7.77,7.77,0,0,0,1.66.17h1.43V38.81a11.2,11.2,0,0,0-.15-2.12c2.06.31,2.23.35,2.23.56s-.19.28-.78.49v3.44Zm7.94,2h2.58a13.93,13.93,0,0,1,1-1.22c.76.59,1,.78,1.66,1.4.08.09.1.13.1.19s-.06.11-.19.11h-5.16V46h3.84a14,14,0,0,1,1.18-1.32c.82.63,1.07.84,1.84,1.51a.27.27,0,0,1,.11.19c0,.08-.06.1-.21.1h-6.7a9.33,9.33,0,0,0,1.77,3.28,10.55,10.55,0,0,0,2-2.9c1.45.86,2,1.26,2,1.41s-.13.21-.28.21h-.18c-.11,0-.3,0-.55,0a16.8,16.8,0,0,1-2.79,1.61,12,12,0,0,0,4.83,3.28v.25c-.87.19-1,.31-1.56,1.34a11,11,0,0,1-3.44-3.5,14.37,14.37,0,0,1-1.89-3.89v2.69q.06,1.38.06,2.16c0,.82,0,1,.09,1.83a1.49,1.49,0,0,1-.55,1.34,3.48,3.48,0,0,1-1.78.51,1.42,1.42,0,0,0-.82-1,8.21,8.21,0,0,0-2.06-.49l0-.33c1.24.06,1.32.06,3.44.08h.05c.21,0,.25-.06.25-.31V50.94a45.25,45.25,0,0,1-4.79,2.71c-.06.67-.13.84-.29.84s-.36-.36-1-2.06a27.8,27.8,0,0,0,6.09-2v-4H164.7a5.73,5.73,0,0,0-1.87.19l-.14-.86a8.32,8.32,0,0,0,2,.19h2.86V43.68H165a6.24,6.24,0,0,0-1.66.15l-.16-.84a8.28,8.28,0,0,0,1.82.21h2.61V40.87h-2.42a6.71,6.71,0,0,0-1.61.16l-.17-.86a7.68,7.68,0,0,0,1.78.21H169a12.87,12.87,0,0,0,1.91-3.61c1.61.74,2,1,2,1.16s-.14.23-1,.29a16.13,16.13,0,0,1-2.46,2.16h2.88a12.31,12.31,0,0,1,1-1.3c.79.63,1,.84,1.78,1.53a1.28,1.28,0,0,1,0,.13c0,.06-.06.13-.17.13h-6.21ZM163.25,47a13.28,13.28,0,0,1,1.89,1.13c.61.44.82.74.82,1.16,0,.65-.4,1.34-.75,1.34-.17,0-.3-.13-.42-.46a7.47,7.47,0,0,0-1.75-3ZM164.7,36.9a15.68,15.68,0,0,1,2,1.24c.53.4.7.63.7,1,0,.63-.36,1.22-.76,1.22-.23,0-.25,0-.59-.86a7.34,7.34,0,0,0-1.47-2.37Z"/><path class="cls-1" d="M184.4,46.72c0,.19-.36,1.52-.94,4a8.09,8.09,0,0,0-.36,2.23,3.2,3.2,0,0,1-.06.9.53.53,0,0,1-.51.36c-.35,0-.67-.3-.9-.87a12.45,12.45,0,0,1-.74-4.47,20,20,0,0,1,.17-2.24,32.66,32.66,0,0,1,.74-4,9.75,9.75,0,0,0,.29-2,3.75,3.75,0,0,0-.59-2c.46,0,.84.3,1.41,1a2.82,2.82,0,0,1,.78,1.66c0,.34,0,.42-.44,1.26A17.76,17.76,0,0,0,182.11,46a11.46,11.46,0,0,0-.27,2.6,7.78,7.78,0,0,0,.4,2.77,15.33,15.33,0,0,0,.75-1.78l1.12-2.94Zm2.65,1.05a6.74,6.74,0,0,0-.07.89c0,2.3,1.33,3.25,4.58,3.25a9.54,9.54,0,0,0,1.79-.15,3.21,3.21,0,0,0,1.11-.33.84.84,0,0,1,.31-.07,1.63,1.63,0,0,1,1.33,1.24c0,.25-.17.42-.47.53a10.85,10.85,0,0,1-2.62.23c-2.63,0-4.49-.44-5.44-1.28a3.52,3.52,0,0,1-1.13-2.73,5.62,5.62,0,0,1,.25-1.66ZM187,41.1a3.31,3.31,0,0,0,2,.56,11.25,11.25,0,0,0,4.22-.94c.27-.15.31-.17.46-.17a1.65,1.65,0,0,1,.73.29c.44.26.66.51.66.78s-.15.4-.59.48a11.67,11.67,0,0,0-3,.74,20,20,0,0,0-2.71,1.49l-.21-.21c.94-.8,1.66-1.39,2-1.64l-.86,0a3.69,3.69,0,0,1-2.85-1.17Z"/><path class="cls-1" d="M201.1,55.54c1.63-3.29,2.08-5.9,2.08-12.3,0-3.28-.05-5.4-.11-6.22.8.4,1.05.55,1.79,1h12.38c.36-.44.74-.88,1.07-1.32.89.63,1.14.84,2,1.51a.31.31,0,0,1,.1.17c0,.08-.06.12-.19.12H204.71c0,1.22,0,1.7,0,2.69,0,7.83-.65,10.67-3.38,14.53Zm14.27-8.33,1-.74a17,17,0,0,1,1.43,1.22c.15.17.15.17.15.19s-.15.19-.34.19h-.12l-.42,0a32.52,32.52,0,0,1-3.7,1.34c-.08.15-.08.15-.57.34v1h4.35c.55-.63.71-.82,1.26-1.43l1.91,1.62a.34.34,0,0,1,.09.17c0,.08-.07.12-.24.12h-7.37v3.11c0,1-.52,1.37-2.49,1.7a1.48,1.48,0,0,0-.47-1,2.35,2.35,0,0,0-1-.42l-.6-.12-.59-.11V54c1.4.15,1.93.17,3.48.23a.3.3,0,0,0,.13,0c.15,0,.21-.08.21-.25V51.17h-5.08a11.3,11.3,0,0,0-1.7.15l-.17-.82a7.58,7.58,0,0,0,2,.19h5V50a7.75,7.75,0,0,0-.09-1.18c.45,0,.76.09,1,.11a3.21,3.21,0,0,1,.94.21,10.64,10.64,0,0,0,1.94-1.43h-7.46a14.47,14.47,0,0,0-1.61.08L206,47a6.27,6.27,0,0,0,1.78.19ZM208.3,45.9c0,.17-.09.24-.23.26s-.72.06-.95.06-.31-.06-.31-.19a.37.37,0,0,1,0-.13c0-2.14.06-3.4.06-3.8,0-1,0-1.34-.08-2.89.73.37,1,.5,1.66.92H216a7.06,7.06,0,0,1,.68-.92c.54.37.71.5,1.23.9.15.1.21.17.21.25s-.1.23-.56.57c0,3.34,0,3.34,0,4.72,0,.15,0,.23-.15.28a2.91,2.91,0,0,1-1,.14.24.24,0,0,1-.28-.25v-.29H208.3Zm7.87-5.29H208.3v1.91h7.87ZM208.3,43v2h7.87V43Z"/><path class="cls-1" d="M233.16,37.44a4.41,4.41,0,0,1,2.33,1.12c.34.33.47.54.47.84s-.11.39-1.22,1.3a49.15,49.15,0,0,0-3.87,3.63c-.73.82-1,1.3-1,1.7a1.76,1.76,0,0,0,.63,1.09A17.39,17.39,0,0,0,232,48.51c2.29,2.12,3.36,3.29,3.87,4.28a2.72,2.72,0,0,1,.31,1.39c0,.79-.27,1.26-.71,1.26-.27,0-.36-.11-.71-.86a19.14,19.14,0,0,0-1.77-3,36.86,36.86,0,0,0-3.06-3.8,2.74,2.74,0,0,1-.8-1.77c0-.67.33-1.24,1.62-2.81,2.54-3.09,3.17-4,3.17-4.47s-.28-.68-1.16-1.24A.89.89,0,0,1,233.16,37.44Z"/><path class="cls-1" d="M248.22,46.54A16.4,16.4,0,0,1,246,48.87l-.25-.28a26.08,26.08,0,0,0,4.16-7c1.57.74,1.91.94,1.91,1.16,0,0-.06.1-.15.14s-.15.06-.69.06a15.06,15.06,0,0,1-1.85,2.59c.11,0,.19,0,.25,0,.65.08.91.17.91.31v0c0,.12-.24.25-.66.39v4c0,.93,0,.93,0,3.82v1.56c-.07.17-.11.21-.32.25a4.55,4.55,0,0,1-.65.09c-.38,0-.46-.05-.48-.26,0-1.59,0-1.59.06-5.31Zm-2.16-4a17.42,17.42,0,0,0,2.83-3.71,8.13,8.13,0,0,0,1-2c.44.17.79.3,1,.36.87.32,1.22.51,1.22.67s-.4.3-.84.3a.8.8,0,0,1-.19,0,19.33,19.33,0,0,1-4.7,4.68ZM257.12,44l1-1.22c.61.58.8.77,1.32,1.34a.36.36,0,0,1,.13.21.16.16,0,0,1-.17.15h-3.27v3.21h.67c.42-.5.56-.65,1-1.13.65.58.84.75,1.43,1.36,0,.06.09.11.09.15s-.07.1-.21.1h-3V52a23.54,23.54,0,0,0,2.87-.73l.13.25a30,30,0,0,1-4.14,1.6c-1.85.61-2.41.8-3.46,1.09-.09.65-.13.78-.3.78s-.35-.3-.82-2a9.22,9.22,0,0,0,1.41-.17V47.9a11.55,11.55,0,0,0-.13-1.89c1.85.19,2.12.25,2.12.44s-.14.23-.71.51v5.62l1.77-.31V44.5h-2.42a7,7,0,0,0-1.24.1l-.19-.77a5.39,5.39,0,0,0,1.43.19h2.42V40.8h-1.6a12.41,12.41,0,0,1-1.37,1.58l-.25-.21a16,16,0,0,0,2.06-5.23c1.76.55,2.14.69,2.14.88s-.14.25-1,.38a10.43,10.43,0,0,1-1.24,2.12h3.25c.38-.57.51-.74.9-1.28a17.65,17.65,0,0,1,1.49,1.51.21.21,0,0,1,.05.13c0,.06-.09.12-.15.12h-3V44ZM261,53c0,.17,0,.61,0,1.26,0,.31,0,.86,0,1.49-.09.25-.23.32-.76.34-.12,0-.25,0-.33,0h-.07c-.21,0-.29-.11-.29-.34.06-3.46.06-3.71.06-4.81,0-9.88,0-12.42,0-13.31l1.58.91h2.07l.72-.91,1.3,1.07c.08.11.1.15.1.21s0,.11-.73.57v8.65c0,.17,0,1.05,0,2.27,0,.38,0,1,0,1.8a.94.94,0,0,1-.46.89,4.24,4.24,0,0,1-1.7.54,1.14,1.14,0,0,0-.46-1,2.06,2.06,0,0,0-1.07-.37Zm0-1.07,2,0h.08c.15,0,.21-.06.21-.21V39H261Z"/><path class="cls-1" d="M274.09,46.16a22.18,22.18,0,0,1,2.75,1.28c.91.52,1.09.75,1.09,1.38s-.23,1.26-.5,1.26-.23-.08-.36-.29a10,10,0,0,0-3-3.17v4.7c0,1.41,0,3.11,0,4.41,0,.19-.08.25-.25.27a3.28,3.28,0,0,1-.9.09c-.27,0-.32,0-.4-.23,0-1.41.06-3.76.06-4.31v-4.2a23.42,23.42,0,0,1-3.88,3l-.25-.3A22.93,22.93,0,0,0,272.56,46a23.34,23.34,0,0,0,2.79-4.22h-4.49a15.09,15.09,0,0,0-1.79.12l-.12-.8a11.34,11.34,0,0,0,1.91.19h1.78V38.47a11.17,11.17,0,0,0-.12-1.32c2.05.23,2.37.31,2.37.55s-.23.29-.8.46v3.08h1.26l.93-1c.58.46.75.61,1.32,1.13.1.09.15.15.15.23s-.21.28-.91.4a26,26,0,0,1-2.75,3.76Zm5.29-6.51a16.29,16.29,0,0,0-.14-2.46c2.18.3,2.41.36,2.41.59s-.23.31-.86.5V54c0,.31,0,.31.08.33a9.12,9.12,0,0,0,1.77.11c.9,0,2.33,0,2.48,0,.33,0,.42-.13.6-.55a16.65,16.65,0,0,0,.59-2.08l.3-1.32.29-1.26h.29L287,53.59c0,.46,0,.46.34.57s.57.29.57.54c0,.42-.34.65-1,.76-.46.06-2.44.12-3.93.12-3.23,0-3.59-.12-3.59-1.36v-.15c0-.52,0-.75,0-1.19l0-5Z"/><path class="cls-1" d="M301.41,49.54c0,4.45,0,4.45.09,6.3v0a.21.21,0,0,1-.19.21,5.58,5.58,0,0,1-1.12.1c-.19,0-.25-.06-.25-.21,0-1.59,0-1.59,0-6.44h-5.41v1.11c0,.13,0,.19-.15.21a6.59,6.59,0,0,1-1.11.1c-.19,0-.28-.06-.28-.21v0c.05-2.22.05-3.13.05-5.67,0-3,0-4-.07-5.46a14.23,14.23,0,0,1,1.85,1.1H300c0-2.33,0-2.56-.12-4,2.39.31,2.39.31,2.39.57s-.23.31-.86.5v2.88h5.52c.44-.42.57-.57,1-1,.57.4.74.53,1.22.92.12.13.19.19.19.26s-.15.23-.72.56c0,5.29,0,7,.07,9.16,0,.17-.05.21-.17.25a6.46,6.46,0,0,1-1.09.08c-.21,0-.28,0-.3-.19V49.54ZM300,44.81V41.16h-5.41v3.65Zm0,.49h-5.41v3.75H300Zm7.14-4.14h-5.73c0,2.31,0,2.31,0,3.65h5.71Zm0,4.14h-5.71v3.75h5.71Z"/><path class="cls-1" d="M330.45,50.67c-2,2.73-4.76,4.35-7.37,4.35a3.8,3.8,0,0,1-3.48-1.79,7.16,7.16,0,0,1-.59-3.55c0-1.15.06-3.14.17-5.06.12-2.26.15-2.85.15-3.61,0-1.8-.21-2.16-1.71-2.79a.86.86,0,0,1,.59-.21,5.25,5.25,0,0,1,1.89.48c.8.38,1.22.8,1.22,1.24a2.19,2.19,0,0,1-.19.76A64.69,64.69,0,0,0,320,50.57a3,3,0,0,0,.84,2.52,3.12,3.12,0,0,0,1.87.56,10.91,10.91,0,0,0,4.79-1.34,13.49,13.49,0,0,0,2.66-1.87Z"/><path class="cls-1" d="M350.68,44.75,352,43.11c.93.8,1.22,1,2.1,1.83a.26.26,0,0,1,.09.17c0,.06-.11.12-.22.12h-8V54.3h6.11c.59-.77.78-1,1.35-1.7,1,.8,1.26,1,2.18,1.89a.26.26,0,0,1,.08.17.16.16,0,0,1-.16.13h-17a8.29,8.29,0,0,0-1.74.16l-.17-.82a7.86,7.86,0,0,0,1.91.17h5.92V39.84a13.29,13.29,0,0,0-.17-2.56l1.12.14c1.13.15,1.34.21,1.34.38s-.19.27-.78.44v6.51Z"/><path class="cls-1" d="M364.62,46.41a41.62,41.62,0,0,0-1.28,6.36V53a2.45,2.45,0,0,1,0,.34c0,.67-.16,1-.52,1s-.63-.27-.88-.75a12,12,0,0,1-1-5.44,25.7,25.7,0,0,1,.46-4.77,15.94,15.94,0,0,0,.34-2.62,3.56,3.56,0,0,0-.76-2,2.27,2.27,0,0,1,1.39.84,2.91,2.91,0,0,1,.92,1.66,2.88,2.88,0,0,1-.29,1.16,17.37,17.37,0,0,0-1.1,5.83,7.41,7.41,0,0,0,.51,3.28c.12-.34.21-.55.23-.61l1.66-4.58Zm1.68-3.47a3.57,3.57,0,0,0,2.44.82,11.73,11.73,0,0,0,3-.44v-.73a8.23,8.23,0,0,0-.25-2.92c-.21-.42-.8-.74-1.79-1,.32-.27.47-.31,1.16-.31,1.43,0,2.41.42,2.41,1a5.57,5.57,0,0,1-.14.88c0,.25-.09.67-.11,1.07L373,43a5,5,0,0,0,1.91-.92.69.69,0,0,1,.44-.15c.67,0,1.26.3,1.26.63s-.14.38-.73.68a16.21,16.21,0,0,1-2.86.92v3.09c0,3.25-.57,5-2.14,6.67a11.16,11.16,0,0,1-3.19,2.31l-.17-.29a10,10,0,0,0,3-3.23c1-1.73,1.32-3.59,1.32-7.21V44.39a11.92,11.92,0,0,1-2.43.28,4,4,0,0,1-3.3-1.47Zm7.46-6.08c1.51,1.11,2.54,2.37,2.54,3.12,0,.49-.34,1-.65,1s-.38-.15-.49-.5a9.43,9.43,0,0,0-1.72-3.34Zm2.28-.78a9.27,9.27,0,0,1,1.83,1.43c.65.65.9,1.07.9,1.57s-.23,1-.58,1c-.17,0-.3-.13-.44-.47a10.76,10.76,0,0,0-2-3.23Z"/><path class="cls-1" d="M384.22,41a4.27,4.27,0,0,0,3.38,1.13,19,19,0,0,0,3-.25c-.08-3.21-.23-3.5-1.83-3.73.3-.3.46-.34,1.05-.34a6.19,6.19,0,0,1,1.77.27c.5.17.71.38.71.7,0,.12,0,.12-.27.71a6.65,6.65,0,0,0-.38,2.23,10.69,10.69,0,0,0,3.9-1.24.54.54,0,0,1,.26-.09,2.65,2.65,0,0,1,1.09.36.62.62,0,0,1,.35.5c0,.3-.33.47-1.63.78a35.51,35.51,0,0,1-4,.74c0,.54,0,.86,0,1.34s0,1,0,1.91a17.86,17.86,0,0,0,2.39-.57,3.32,3.32,0,0,0,1.05-.52.53.53,0,0,1,.32-.09,2.46,2.46,0,0,1,1.07.32.44.44,0,0,1,.25.4c0,.38-.3.54-1.62.9a22.37,22.37,0,0,1-3.42.61c0,.82,0,1.15.06,1.89s.07,1.11.13,1.64a10.88,10.88,0,0,1,4.62,1.8,1.82,1.82,0,0,1,.61,1.39c0,.44-.19.73-.47.73s-.29-.06-.84-.58A11.49,11.49,0,0,0,394,52.62a7.45,7.45,0,0,0-2.1-.88c0,.46.06.67.06.93a2.11,2.11,0,0,1-.71,1.76,4.74,4.74,0,0,1-2.81.78c-2.1,0-3.55-.93-3.55-2.25,0-1.49,1.95-2.54,4.74-2.54.34,0,.55,0,1.05,0,0-1,0-1.15,0-1.45V47.16c-.84.05-1.24.07-1.55.07a5.78,5.78,0,0,1-2.79-.46,1.84,1.84,0,0,1-.95-1.6c0-.15,0-.36,0-.59l.32,0c0,.65.12.95.44,1.2a4.45,4.45,0,0,0,2.45.46,18.09,18.09,0,0,0,2-.14V44.64l0-1.53v-.25c-1.16.1-2,.15-2.71.15-2,0-2.85-.4-3.9-1.81Zm4.66,10.33a6.58,6.58,0,0,0-2.29.4c-.76.29-1.13.71-1.13,1.26,0,.76.86,1.2,2.28,1.2a3.52,3.52,0,0,0,2.4-.76,1.6,1.6,0,0,0,.46-1.09c0-.15,0-.63,0-.8v-.06A11.75,11.75,0,0,0,388.88,51.32Z"/><path class="cls-1" d="M410.15,55.37c2.44-1.66,3.47-3,4-5.25a2.34,2.34,0,0,1-1.34.42,2.77,2.77,0,0,1-2.59-3c0-1.85,1.16-3.21,2.71-3.21a2.09,2.09,0,0,1,1.18.36c0-.36,0-1.52,0-2.19,0,0,0-.23,0-.42a29.29,29.29,0,0,0-5.29,1,7.9,7.9,0,0,0-1.37.57,2.05,2.05,0,0,1-.48.1,2.14,2.14,0,0,1-1.34-.79,3.08,3.08,0,0,1-.84-1.54.77.77,0,0,1,.1-.25,2.43,2.43,0,0,0,2,1.07,10.8,10.8,0,0,0,1.8-.19c2.48-.4,3.24-.5,5.38-.73a7,7,0,0,0-.23-2.33c-.23-.59-.74-.88-1.81-1,.25-.32.4-.38,1-.38a6.91,6.91,0,0,1,2,.3c.51.16.8.44.8.73s0,.21-.21.57a5.22,5.22,0,0,0-.46,2c.55-.06.55-.06,1.36-.12a9.61,9.61,0,0,0,2.8-.38,1.9,1.9,0,0,1,.77-.23,3.75,3.75,0,0,1,1.79.78.63.63,0,0,1,.33.56c0,.23-.14.36-.46.36a8,8,0,0,1-1.13-.13,23.48,23.48,0,0,0-3.23-.21c-.78,0-1.39,0-2.25.09-.09.8-.15,2.08-.15,2.85,0,.15,0,.4,0,.72a5.42,5.42,0,0,1,.67,2.79,7.25,7.25,0,0,1-2.26,5.33,10.75,10.75,0,0,1-3.13,2Zm2.67-10.56c-.95,0-1.68,1-1.68,2.27s.71,2.29,1.7,2.29,1.34-.67,1.34-2C414.18,45.65,413.74,44.81,412.82,44.81Z"/><path class="cls-1" d="M432.05,53.69a2.71,2.71,0,1,1-2.71-2.7A2.68,2.68,0,0,1,432.05,53.69Zm-4.74,0a2,2,0,0,0,2,2,2,2,0,1,0-2-2Z"/><path class="cls-1" d="M448.31,40.78a7.67,7.67,0,0,0,1.53.17H453c.42-.5.55-.67,1-1.16.67.55.88.74,1.51,1.33a.29.29,0,0,1,.11.19c0,.08-.09.12-.28.12h-5.5a9,9,0,0,0-1.38.11Zm.73,5.65a7.21,7.21,0,0,0,1.45.17h2.21l1-1.07A14.93,14.93,0,0,1,455,46.79a.28.28,0,0,1,.1.17c0,.08-.08.12-.21.12h-4.43a6.52,6.52,0,0,0-1.3.11Zm.07-8.42a5.41,5.41,0,0,0,1.38.17h2.33a12.55,12.55,0,0,1,.86-1.09,19.22,19.22,0,0,1,1.47,1.28c.07.08.09.12.09.17s-.09.12-.17.12h-4.58a8.55,8.55,0,0,0-1.26.09Zm.06,5.71a5.29,5.29,0,0,0,1.32.15h2.29c.38-.51.51-.65.9-1.14A17,17,0,0,1,455.05,44a.32.32,0,0,1,.1.21c0,.06-.08.1-.23.1h-4.43a5.91,5.91,0,0,0-1.19.11Zm1.57,11.7c0,.33-.18.42-1,.42-.28,0-.36-.07-.36-.21v-.05c0-1.38.06-2.07.06-3.59V50.78c0-.38,0-.84-.08-2.36a11.72,11.72,0,0,1,1.62,1h2.3l.74-.86a9.79,9.79,0,0,1,.94.84c.19.19.26.28.26.36a.3.3,0,0,1-.09.15s-.17.1-.48.25c0,2.35,0,3.38,0,4.24,0,.15,0,.21-.15.27a1.82,1.82,0,0,1-.81.15c-.26,0-.34,0-.34-.21v-.21h-2.63Zm0-1.45h2.63V50h-2.63Zm12.43-12.71a26.27,26.27,0,0,0,.87,7.19,24.92,24.92,0,0,0,1.55-5.25c2.08.77,2.16.82,2.16,1s-.15.24-1,.32a19.78,19.78,0,0,1-2.18,5.33,13.12,13.12,0,0,0,2.25,3.42A29.46,29.46,0,0,0,468,49.68l.28.09-.49,3.84v.21c0,.19,0,.25.32.69a.81.81,0,0,1,.17.49.71.71,0,0,1-.64.67c-.52,0-1-.4-1.84-1.41a18.41,18.41,0,0,1-2-3.15,12.81,12.81,0,0,1-2.6,2.52,13.9,13.9,0,0,1-3.51,2.08l-.18-.27a18.5,18.5,0,0,0,4.45-3.8,13.85,13.85,0,0,0,1.32-1.75c-.88-2.22-1.24-4.45-1.41-8.63h-4.26c0,.07,0,1.28,0,3.66h2c.36-.42.36-.42.7-.84.58.38.75.48,1.26.84.14.12.21.21.21.25s-.28.34-.76.57c0,.42,0,.82,0,1-.11,3.25-.21,4.38-.53,4.91s-.75.75-1.91,1c-.12-.61-.25-.86-.59-1.07a2.79,2.79,0,0,0-1.07-.32,11.89,11.89,0,0,1-2.54,5l-.31-.21a12.54,12.54,0,0,0,1.93-5.4,42.86,42.86,0,0,0,.42-7c0-1.91,0-2.71-.11-3.8a11.24,11.24,0,0,1,1.66.84h4c0-.86,0-1.22,0-1.53V38.09c0-.5,0-.69,0-1.23,1.89.23,2.18.31,2.18.52s0,.15-.77.4c-.05,1.18-.07,1.55-.07,2.37l0,.25v.38h2.42c.4-.57.52-.73.92-1.24A13.18,13.18,0,0,1,467.9,41a.29.29,0,0,1,.1.19c0,.08-.06.12-.21.12Zm-5.6,4.14A23,23,0,0,1,456.9,51c1.21.12,1.87.19,2,.19.3,0,.4-.09.48-.51a18.82,18.82,0,0,0,.24-2.92c0-.65,0-.65,0-2.37Zm6.65-7.87c1.18.42,1.94.94,1.94,1.36s-.47,1-.72,1-.19-.08-.36-.54a3.65,3.65,0,0,0-1-1.7Z"/><path class="cls-1" d="M477.06,46.72c-.05.19-.36,1.52-.95,4a8.5,8.5,0,0,0-.36,2.23,3.2,3.2,0,0,1-.06.9.51.51,0,0,1-.5.36c-.36,0-.67-.3-.9-.87a12.24,12.24,0,0,1-.74-4.47,17.86,17.86,0,0,1,.17-2.24,34,34,0,0,1,.73-4,10,10,0,0,0,.3-2,3.75,3.75,0,0,0-.59-2c.46,0,.84.3,1.41,1a2.85,2.85,0,0,1,.77,1.66c0,.34,0,.42-.44,1.26A17.74,17.74,0,0,0,474.77,46a11.46,11.46,0,0,0-.27,2.6,8,8,0,0,0,.39,2.77,15.52,15.52,0,0,0,.76-1.78l1.11-2.94Zm2.64,1.05a8.58,8.58,0,0,0-.06.89c0,2.3,1.32,3.25,4.58,3.25a9.43,9.43,0,0,0,1.78-.15,3.21,3.21,0,0,0,1.11-.33.88.88,0,0,1,.32-.07,1.63,1.63,0,0,1,1.32,1.24c0,.25-.17.42-.46.53a10.91,10.91,0,0,1-2.62.23c-2.63,0-4.5-.44-5.44-1.28a3.5,3.5,0,0,1-1.14-2.73,5.67,5.67,0,0,1,.26-1.66Zm0-6.67a3.28,3.28,0,0,0,1.95.56,11.2,11.2,0,0,0,4.22-.94c.28-.15.32-.17.46-.17a1.68,1.68,0,0,1,.74.29c.44.26.65.51.65.78s-.15.4-.59.48a11.9,11.9,0,0,0-3,.74,20.64,20.64,0,0,0-2.71,1.49l-.21-.21c.95-.8,1.66-1.39,2-1.64l-.86,0a3.7,3.7,0,0,1-2.86-1.17Z"/><path class="cls-1" d="M496.84,40.26a3.3,3.3,0,0,0,2.94,1.24,7.69,7.69,0,0,0,1.22-.11c.12-.94.23-2,.23-2.33,0-.76-.34-1.09-1.37-1.41a.77.77,0,0,1,.61-.23,5,5,0,0,1,1.83.49c.52.27.77.52.77.86,0,.19,0,.19-.27.54a5,5,0,0,0-.65,1.89,9.45,9.45,0,0,0,4-1.49.61.61,0,0,1,.52-.23,3.36,3.36,0,0,1,1,.17.49.49,0,0,1,.34.46c0,.38-.42.63-1.81,1.11a28.16,28.16,0,0,1-4.22,1,22.89,22.89,0,0,0-.4,3.17,12.29,12.29,0,0,1,3.36-.67v-.13c0-.4-.17-.69-.67-1.15l.23,0a1.64,1.64,0,0,1,1.34,1.26,7.23,7.23,0,0,1,4.08,1.5,4.16,4.16,0,0,1,1.42,3.31c0,3.19-3.25,5.59-8.18,6l-.07-.34c4.26-1,6.64-3.23,6.64-6.15a3.43,3.43,0,0,0-1.54-3,5.63,5.63,0,0,0-2.43-.74,10.84,10.84,0,0,1-1.32,2.88,12.42,12.42,0,0,1-2.25,2.73,5.37,5.37,0,0,0,.52.88,1.55,1.55,0,0,1,.24.88c0,.57-.19,1-.49,1s-.71-.57-1.21-1.85a6.9,6.9,0,0,1-3.64,2c-.5,0-.73-.23-1-1a4.21,4.21,0,0,0-.39-.8,2,2,0,0,1-.4-1.26,4.51,4.51,0,0,1,2-3.29,11.74,11.74,0,0,1,2.83-1.68c0-.32,0-.32.13-1.56,0-.35.06-.69.19-1.87-.4,0-.59,0-.8,0a3.63,3.63,0,0,1-3.5-1.94Zm.73,8.82a3.55,3.55,0,0,0-.65,2c0,.78.32,1.28.8,1.28a6.54,6.54,0,0,0,3.13-1.7,15.78,15.78,0,0,1-.32-3.38v-.76A7.59,7.59,0,0,0,497.57,49.08Zm3.91-2.34a14.83,14.83,0,0,0,.29,3.07,11.45,11.45,0,0,0,3-4.53,10.54,10.54,0,0,0-3.3.79Z"/><path class="cls-1" d="M523.66,55.81a11,11,0,0,0,5.54-10,10,10,0,0,0-.78-4.33,1.73,1.73,0,0,0-1.49-.92c-1,0-2,.9-2.77,2.63a11.75,11.75,0,0,0-1,4.51,11.89,11.89,0,0,0,.09,1.3,3.17,3.17,0,0,1,0,.44c0,.4-.19.63-.55.63-.8,0-1.32-1.7-1.32-4.3a25.52,25.52,0,0,1,.67-5.63,8.56,8.56,0,0,0,.23-1.53c0-.67-.29-1.07-1.13-1.49a1.13,1.13,0,0,1,.38-.11,3.29,3.29,0,0,1,1.68.7c.58.42.81.75.81,1.17a1.26,1.26,0,0,1-.29.8,15,15,0,0,0-1.51,6.26c0,.19,0,.39,0,.77h0c.63-2.68,1.41-4.43,2.44-5.5A3.38,3.38,0,0,1,527.31,40c2,0,3.44,2.48,3.44,6a10.37,10.37,0,0,1-2.29,6.86,10.58,10.58,0,0,1-4.64,3.32Z"/><path class="cls-1" d="M543.44,51.36a10.43,10.43,0,0,0,3.25,1.43c.46,0,.82-.44,1.37-1.76a16.23,16.23,0,0,0,1.24-5.63c0-.88-.19-1.45-.57-1.7a1.55,1.55,0,0,0-1-.21,7.24,7.24,0,0,0-2.18.42c-.29.73-.29.73-1.22,2.86-.1.25-.52,1.23-1.24,2.94-.84,2-1.53,3.48-1.86,4.07-.15.27-.32.4-.51.4-.38,0-.61-.55-.61-1.45a1.42,1.42,0,0,1,.49-1.18c.94-1.15,1.84-2.87,3.86-7.3a14.09,14.09,0,0,0-2.73,1.09,1.1,1.1,0,0,1-.61.23,1.53,1.53,0,0,1-.92-.63,3.32,3.32,0,0,1-.7-1.6,1.56,1.56,0,0,1,.13-.46c.44.86.82,1.16,1.6,1.16a22,22,0,0,0,3.56-.74,11.71,11.71,0,0,0,.87-3.44c0-.65-.42-1-1.62-1.41a.85.85,0,0,1,.61-.23,6.2,6.2,0,0,1,1.42.27c1,.28,1.48.68,1.48,1.12,0,.14-.05.23-.3.6A22.9,22.9,0,0,0,546,43.05a7.9,7.9,0,0,1,1.82-.23c1.81,0,2.67,1.07,2.67,3.27,0,2.69-1.07,6.18-2.29,7.52a3,3,0,0,1-2,.94c-.36,0-.53-.14-.57-.48,0-.54-.13-.65-2.33-2.45Zm9.26-8.46a7.27,7.27,0,0,1,3.84,2.52,5,5,0,0,1,1.2,3c0,.74-.32,1.16-.84,1.16a.82.82,0,0,1-.49-.15,1.26,1.26,0,0,0-.86-.23,18.42,18.42,0,0,0-2.62.19l-.09-.27A29.32,29.32,0,0,0,556.06,48a6.33,6.33,0,0,0-3.53-4.8Zm.71-4.2a9,9,0,0,1,1.87,1.3c.76.68,1.05,1.16,1.05,1.66s-.29.88-.65.88-.27,0-.93-1.36a9.51,9.51,0,0,0-1.61-2.2Zm2.16-1.21a9.09,9.09,0,0,1,2,1.19c.8.61,1.07,1,1.07,1.62s-.21.86-.53.86-.31-.11-.48-.4a10.55,10.55,0,0,0-2.31-3Z"/><path class="cls-1" d="M567.88,37.84a6.77,6.77,0,0,1,2.12.4c.42.17.59.38.59.67V39c0,.16,0,.16-.17.54a16.59,16.59,0,0,0-.46,4.26c0,1.24.17,1.56.82,1.56.44,0,.9-.17,2.81-1.07a1.85,1.85,0,0,1,.86-.26,1,1,0,0,1,1,.89.68.68,0,0,1-.44.63c-.15.06-.44.16-1.41.44a14.27,14.27,0,0,0-5.25,2.35A3.37,3.37,0,0,0,566.73,51c0,1.51,1.19,2.28,3.52,2.28a24.88,24.88,0,0,0,4.87-.6,1.71,1.71,0,0,1,.42-.07,1.2,1.2,0,0,1,1.14,1c0,.38-.23.57-.9.69a31.87,31.87,0,0,1-4,.28,10.52,10.52,0,0,1-3.56-.49,3.32,3.32,0,0,1-2.29-3.1,4.7,4.7,0,0,1,2.05-3.53,13.25,13.25,0,0,1,2.57-1.68,1.38,1.38,0,0,1-1-.32c-.32-.23-.51-.69-.61-1.59-.06-.51-.09-1-.15-2.54-.06-1.79-.08-2.1-.25-2.42s-.63-.6-1.51-.75A1.11,1.11,0,0,1,567.88,37.84Z"/><path class="cls-1" d="M592.07,55.88a11.48,11.48,0,0,0,2.77-3,12.82,12.82,0,0,0,1.79-6.38c0-2.08-.76-3.36-2-3.36s-2.58.91-4,2.48c-.4.4-.52.48-.86.48a1.9,1.9,0,0,1-1.38-.94,2.66,2.66,0,0,1-.57-1.41,1.16,1.16,0,0,1,.33-.78c.19.93.61,1.45,1.16,1.45a5.66,5.66,0,0,0,1.93-.82c1.79-1,2.48-1.19,3.55-1.19a3.31,3.31,0,0,1,2.6,1.4,5.52,5.52,0,0,1,.8,3.09,10.23,10.23,0,0,1-2.6,6.78,9.66,9.66,0,0,1-3.3,2.46Zm-1.15-19.09a6.19,6.19,0,0,0,3.92,1.35h.49a1.6,1.6,0,0,1,1.13.5,1,1,0,0,1,.44.71c0,.3-.29.47-.86.47-.88,0-.88,0-5.23,1.28l-.1-.3c1.57-.71,3-1.36,3.55-1.55A4.91,4.91,0,0,1,590.71,37Z"/><path class="cls-1" d="M610.16,48.24a8.4,8.4,0,0,0-.07.94c0,2.5,1.58,3.67,5,3.67a13.58,13.58,0,0,0,4.64-.77A1.09,1.09,0,0,1,620,52a2.32,2.32,0,0,1,1.16.42,1,1,0,0,1,.46.74c0,.31-.23.54-.67.65a24.25,24.25,0,0,1-4.89.42c-2.35,0-3.85-.29-4.89-1a4,4,0,0,1-1.75-3.29,5.79,5.79,0,0,1,.34-1.79Zm.65-8.3a4.88,4.88,0,0,0,3.21.93,16.77,16.77,0,0,0,4.37-.63,1.58,1.58,0,0,1,.37-.09A1.44,1.44,0,0,1,620,41.24c0,.36-.12.44-1.53.74a34.53,34.53,0,0,0-5.61,2.08l-.14-.32c.59-.36,1-.56,1.53-.88l1.36-.74.4-.25c-.46.05-1.19.07-1.57.07a5.64,5.64,0,0,1-2.39-.57,4.72,4.72,0,0,1-1.47-1.22Zm9.57-1.85a10.86,10.86,0,0,1,1.87,1.31c.75.69,1,1.17,1,1.68s-.3.88-.65.88-.27,0-.95-1.37a9.27,9.27,0,0,0-1.59-2.22Zm2.16-1.21a9.28,9.28,0,0,1,2,1.19c.82.61,1.09,1,1.09,1.62s-.21.86-.53.86-.31-.1-.48-.4a10.55,10.55,0,0,0-2.31-3Z"/><path class="cls-1" d="M640.54,39.79a8.22,8.22,0,0,0,2.33.72.71.71,0,0,0,.21,0h.13c.52,0,.82.23.82.65s-.36.63-1.18,1.07a12.12,12.12,0,0,1-2.08.92l-.84.34A50.61,50.61,0,0,1,642.81,48a3.07,3.07,0,0,1,.46,1.6c0,.8-.15,1.09-.57,1.09-.23,0-.35-.06-.65-.36a6.26,6.26,0,0,0-1.4-1,9.19,9.19,0,0,0-3.8-.8c-2.42,0-3.93.94-3.93,2.46a2.38,2.38,0,0,0,1.64,2.14,8.13,8.13,0,0,0,2.91.46,8.52,8.52,0,0,0,1.83-.15l.25,0a1.53,1.53,0,0,1,1.31,1.15c0,.51-.36.64-1.83.64a13,13,0,0,1-4.12-.57c-1.89-.63-3-1.91-3-3.45,0-2.09,2.08-3.35,5.52-3.35a15.2,15.2,0,0,1,4.12.56A18,18,0,0,0,639,43.72a14.34,14.34,0,0,1-4.26.67,4.72,4.72,0,0,1-3.87-1.82l.23-.23a5,5,0,0,0,3.36,1.15,14.27,14.27,0,0,0,3.89-.65,12.12,12.12,0,0,0-2.94-2.73c-.65-.36-.8-.53-.8-.82,0-.48.53-.78,1.45-.78a7.11,7.11,0,0,1,2.46.47l-.11.31a7,7,0,0,0-.94-.1c-.45,0-.65.08-.65.23s.2.37.86,1.11c.29.36.84,1,1.61,2l.4-.17.8-.34a10.31,10.31,0,0,0,1.51-.77A15.62,15.62,0,0,0,640.37,40Zm3-2.09a10.47,10.47,0,0,1,1.87,1.3c.76.69,1.05,1.17,1.05,1.68s-.29.88-.65.88-.27,0-.94-1.37a9.51,9.51,0,0,0-1.6-2.22Zm2.17-1.22a10.14,10.14,0,0,1,2,1.19c.8.61,1.07,1,1.07,1.62s-.21.86-.52.86-.32-.1-.49-.4a10.69,10.69,0,0,0-2.3-3Z"/><path class="cls-1" d="M660.07,46.09c-1.53,3.53-2,4.77-2,5.61a2.57,2.57,0,0,0,.12.71,2,2,0,0,1,0,.34.5.5,0,0,1-.47.52,3.91,3.91,0,0,1-2.31-1.78,9.68,9.68,0,0,1-1.42-4.2,23.05,23.05,0,0,1-.15-3.69c0-2-.17-2.44-1.07-3.62H653a3.14,3.14,0,0,1,1.57,1,2.55,2.55,0,0,1,.95,1.66,3,3,0,0,1-.07.55,16.4,16.4,0,0,0-.37,3.13,8.86,8.86,0,0,0,.48,3A3.06,3.06,0,0,0,656.69,51c.23-.34.23-.34.69-1.11.67-1.14.67-1.14,1.77-3l.61-1Zm4.47-3.8a6.55,6.55,0,0,1,4.75,6.28c0,1-.42,1.66-1,1.66a1,1,0,0,1-.63-.23,2.79,2.79,0,0,0-1.58-.25c-.48,0-.88,0-1.59,0l-.06-.32c1.7-.46,2.64-.73,2.83-.79.42-.15.48-.23.48-.63A7.52,7.52,0,0,0,667,45.3a5.89,5.89,0,0,0-2.6-2.76Z"/><path class="cls-1" d="M676.87,41a4.3,4.3,0,0,0,3.38,1.13,19.1,19.1,0,0,0,3-.25c-.09-3.21-.24-3.5-1.83-3.73.29-.3.46-.34,1.05-.34a6.07,6.07,0,0,1,1.76.27c.51.17.72.38.72.7,0,.12,0,.12-.28.71a6.92,6.92,0,0,0-.38,2.23,10.76,10.76,0,0,0,3.91-1.24.51.51,0,0,1,.25-.09,2.65,2.65,0,0,1,1.09.36c.24.15.36.31.36.5s-.33.47-1.64.78a35.11,35.11,0,0,1-4,.74c0,.54,0,.86,0,1.34s0,1,0,1.91a18.41,18.41,0,0,0,2.4-.57,3.43,3.43,0,0,0,1.05-.52.52.52,0,0,1,.31-.09,2.38,2.38,0,0,1,1.07.32.42.42,0,0,1,.25.4c0,.38-.29.54-1.61.9a22.5,22.5,0,0,1-3.43.61c.05.82.05,1.15.07,1.89s.06,1.11.12,1.64a10.83,10.83,0,0,1,4.62,1.8,1.82,1.82,0,0,1,.61,1.39c0,.44-.19.73-.46.73s-.29-.06-.84-.58a12,12,0,0,0-1.76-1.31,7.58,7.58,0,0,0-2.1-.88c0,.46.06.67.06.93a2.11,2.11,0,0,1-.71,1.76,4.75,4.75,0,0,1-2.82.78c-2.1,0-3.55-.93-3.55-2.25,0-1.49,2-2.54,4.75-2.54.33,0,.55,0,1.05,0,0-1,0-1.15,0-1.45V47.16c-.84.05-1.24.07-1.56.07a5.83,5.83,0,0,1-2.79-.46,1.83,1.83,0,0,1-.94-1.6c0-.15,0-.36,0-.59l.31,0c0,.65.13.95.45,1.2a4.42,4.42,0,0,0,2.45.46,18.23,18.23,0,0,0,2-.14V44.64l0-1.53v-.25c-1.16.1-2,.15-2.71.15-2,0-2.86-.4-3.91-1.81Zm4.66,10.33a6.52,6.52,0,0,0-2.28.4q-1.14.44-1.14,1.26c0,.76.86,1.2,2.29,1.2a3.47,3.47,0,0,0,2.39-.76,1.61,1.61,0,0,0,.47-1.09c0-.15,0-.63,0-.8v-.06A11.76,11.76,0,0,0,681.53,51.32Z"/><path class="cls-1" d="M713.16,50.67c-2,2.73-4.77,4.35-7.37,4.35a3.8,3.8,0,0,1-3.49-1.79,7.16,7.16,0,0,1-.59-3.55c0-1.15.07-3.14.17-5.06.13-2.26.15-2.85.15-3.61,0-1.8-.21-2.16-1.7-2.79a.84.84,0,0,1,.59-.21,5.3,5.3,0,0,1,1.89.48c.79.38,1.21.8,1.21,1.24a2.32,2.32,0,0,1-.18.76,64.56,64.56,0,0,0-1.1,10.08,3,3,0,0,0,.84,2.52,3.14,3.14,0,0,0,1.87.56,10.91,10.91,0,0,0,4.79-1.34,13.52,13.52,0,0,0,2.67-1.87Z"/><path class="cls-1" d="M720.28,42.15a2.88,2.88,0,0,0,2.31,1.15,9.56,9.56,0,0,0,2.67-.4,15,15,0,0,0,.71-3.55c0-.65-.32-.92-1.49-1.32a1.09,1.09,0,0,1,.65-.19,5.47,5.47,0,0,1,1.81.4c.62.23.94.53.94.84,0,.15,0,.15-.25.5a17.5,17.5,0,0,0-1.26,3,7.12,7.12,0,0,0,2.43-1.28c.34-.32.42-.36.59-.36a3.73,3.73,0,0,1,1.11.23c.24.08.34.21.34.38,0,.36-.34.63-1.22,1A24.28,24.28,0,0,1,726,43.8c-.25.72-.25.72-.88,2.67-.42,1.26-.42,1.26-1.58,4.68-.84,2.5-1.11,3-1.55,3-.21,0-.36-.13-.48-.42a3.13,3.13,0,0,1-.3-1.22c0-.34,0-.4.46-1,1-1.53,1.87-3.36,3.3-7.52a10.58,10.58,0,0,1-2,.21A3,3,0,0,1,720,42.31Zm8.38,7.24c0,.32,0,.57,0,.65a2.58,2.58,0,0,0,1.59,2.54,6,6,0,0,0,2.25.4,5,5,0,0,0,2-.31.88.88,0,0,1,.36-.09,2.36,2.36,0,0,1,1.07.51.81.81,0,0,1,.38.58c0,.46-.82.7-2.48.7a9.34,9.34,0,0,1-3.88-.68,3.18,3.18,0,0,1-1.79-3,4.48,4.48,0,0,1,.19-1.32Zm.56-3.88a9.64,9.64,0,0,1,4.87-1.41,2.58,2.58,0,0,1,1.33.38.67.67,0,0,1,.33.58c0,.34-.19.47-.79.49a3,3,0,0,0-1.62.42,10.41,10.41,0,0,0-1.16.71c-.39.25-.39.25-.73.44l-.13-.19,1-.94c.19-.17.38-.34,1-1a10.84,10.84,0,0,0-4,.78Z"/><path class="cls-1" d="M747.22,53.69a2.71,2.71,0,1,1-2.71-2.7A2.68,2.68,0,0,1,747.22,53.69Zm-4.74,0a2,2,0,0,0,2,2,2,2,0,1,0-2-2Z"/></g></g></svg>