<svg xmlns="http://www.w3.org/2000/svg" width="724.39" height="219.4" viewBox="0 0 724.39 219.4">
  <defs>
    <style>
      .cls-1 {
        fill: #fff;
      }
    </style>
  </defs>
  <g id="レイヤー_2" data-name="レイヤー 2">
    <g id="レイヤー_1-2" data-name="レイヤー 1">
      <g>
        <path class="cls-1" d="M90.36,5.25a19.39,19.39,0,0,0-2.31.13V3.84A15,15,0,0,0,90.36,4h5.88V2.2A11.42,11.42,0,0,0,96.09.29h1.66a11.85,11.85,0,0,0-.14,1.89V4h6.19a13.19,13.19,0,0,0,2.35-.15V5.38a21.08,21.08,0,0,0-2.35-.13H98.13a21.86,21.86,0,0,0,8.65,9.07,5.51,5.51,0,0,0-1,1.36A23.5,23.5,0,0,1,101.45,12a20.09,20.09,0,0,1-3.93-5.9c.07,1.26.09,2,.09,2.73v4.77H99.9a12.64,12.64,0,0,0,2-.11V15a12,12,0,0,0-2.08-.13H97.61v2a16.28,16.28,0,0,0,.14,2.41H96.09a15.89,15.89,0,0,0,.15-2.43v-2h-2a12.17,12.17,0,0,0-2.12.13V13.5a12.8,12.8,0,0,0,2.07.11h2.06V8.84c0-.78,0-1.58.09-2.71a19.72,19.72,0,0,1-4,6.07,22.75,22.75,0,0,1-4,3.53,3.91,3.91,0,0,0-1-1.24,19.12,19.12,0,0,0,4.91-4.26,23,23,0,0,0,3.43-5Z"/>
        <path class="cls-1" d="M114,8.52a9.7,9.7,0,0,0-.07-1.23c.45,0,.91.06,1.5.06H120V3.93H115a17.27,17.27,0,0,1-3.49,4.28,3.25,3.25,0,0,0-1-1,13.54,13.54,0,0,0,4.2-5.65A8.26,8.26,0,0,0,115.27,0l1.49.42-.27.57-.8,1.7H126.1A10.26,10.26,0,0,0,128,2.6V4a12,12,0,0,0-1.89-.1h-4.74V7.35h3.8A10.69,10.69,0,0,0,127,7.24V8.63a16,16,0,0,0-1.85-.08h-3.82v4.11h5.29a13.34,13.34,0,0,0,2.12-.13v1.52a14.22,14.22,0,0,0-2.12-.13h-5.29v3.46a10.1,10.1,0,0,0,.14,2h-1.65a9.89,9.89,0,0,0,.12-2V13.92h-7.58a14.22,14.22,0,0,0-2.12.13V12.53a13.68,13.68,0,0,0,2.12.13H114Zm6,4.14V8.55h-4.62v4.11Z"/>
        <path class="cls-1" d="M135.79,6.55c-.15,6.8-.61,9.28-2.33,12.45a4.48,4.48,0,0,0-1.12-1,11,11,0,0,0,1.49-3.8,49.59,49.59,0,0,0,.63-9.7,25.24,25.24,0,0,0-.08-2.56c.67.06,1.34.11,2.16.11h5.52V1.41A7.2,7.2,0,0,0,141.94,0h1.55a8.46,8.46,0,0,0-.1,1.37V2h5.75a15.22,15.22,0,0,0,2.29-.13V3.28a14.65,14.65,0,0,0-2.19-.11H135.81l0,2.25h3.82V5.08a7.62,7.62,0,0,0-.09-1.38H141a9.57,9.57,0,0,0-.08,1.36v.36h4.87V5.08a10.63,10.63,0,0,0-.09-1.38h1.45A8.62,8.62,0,0,0,147,5.1v.32h2.52a10.31,10.31,0,0,0,1.91-.11V6.66a10.31,10.31,0,0,0-1.91-.11H147V8.61a11.83,11.83,0,0,0,.06,1.26,11.55,11.55,0,0,0-1.36,0h-4.68a13.23,13.23,0,0,0-1.52,0,10.41,10.41,0,0,0,.07-1.26V6.55Zm13.06,5.67c-.26.27-.36.38-.72.8a18.76,18.76,0,0,1-3.4,3.06,18.6,18.6,0,0,0,6.84,1.75,5.41,5.41,0,0,0-.63,1.38,19.53,19.53,0,0,1-7.43-2.39,22.67,22.67,0,0,1-7.62,2.48A4.19,4.19,0,0,0,135.3,18a21.33,21.33,0,0,0,7.06-1.91A12.93,12.93,0,0,1,139,12.56a13.73,13.73,0,0,0-2.08.1v-1.3a13.21,13.21,0,0,0,2.12.1h7.62a13.74,13.74,0,0,0,1.45-.06Zm-8.4.34a9.19,9.19,0,0,0,3.08,2.85,14,14,0,0,0,3.36-2.85Zm.44-3.8h4.87V6.55h-4.87Z"/>
        <path class="cls-1" d="M156.2,13.54A21.64,21.64,0,0,1,160.42,18l-1.18,1.12a20.77,20.77,0,0,0-4.13-4.58Z"/>
        <path class="cls-1" d="M177.77,18.06a9.09,9.09,0,0,0,2.51-3.82l1.2.54a12.48,12.48,0,0,1-2.58,4.1Zm8.56-16.63A8.9,8.9,0,0,0,186.21,0h1.61a8.36,8.36,0,0,0-.12,1.43v.4h5.16A13.72,13.72,0,0,0,195,1.7V3c-.67-.06-1.23-.08-2.18-.08H191.6a19.57,19.57,0,0,1-1,2.06H194a13.33,13.33,0,0,0,2.45-.13V6.19a18.26,18.26,0,0,0-2.48-.1H180.41a18.45,18.45,0,0,0-2.48.1V4.85a18.26,18.26,0,0,0,2.52.13h3.15a18.15,18.15,0,0,0-.86-2.06h-1.28A19.94,19.94,0,0,0,179.4,3V1.7a12.65,12.65,0,0,0,2.08.13h4.85Zm-3.53,12c-1,0-1.61,0-2.31.06a10.9,10.9,0,0,0,.09-1.72V9.13a12.85,12.85,0,0,0-.09-1.84,23,23,0,0,0,2.31.08h8.59a22.31,22.31,0,0,0,2.37-.08,13.52,13.52,0,0,0-.08,1.82v2.63a14,14,0,0,0,.08,1.76c-.52,0-1.49-.06-2.24-.06Zm-1-3.59h10.62V8.42H181.82Zm0,2.54h10.62V10.85H181.82Zm2.37,4.83c0,.27.08.37.42.46a13,13,0,0,0,2.29.12c2.87,0,3.57-.06,3.9-.39a3.79,3.79,0,0,0,.3-2,2.06,2.06,0,0,0,0-.33,3.24,3.24,0,0,0,1.3.48c-.13,3.27-.3,3.38-5.06,3.38-3.86,0-4.43-.17-4.43-1.34V15.87a8.31,8.31,0,0,0-.13-1.59h1.56a6.47,6.47,0,0,0-.13,1.59Zm5-12.24a15.77,15.77,0,0,0,1-2.06h-6.08A22.19,22.19,0,0,1,185,5Zm-.95,11.92a11.47,11.47,0,0,0-2.52-2.5l.9-.65a13.82,13.82,0,0,1,2.67,2.37Zm7.29,1.64a20.79,20.79,0,0,0-3.07-3.82l1.07-.61a26.18,26.18,0,0,1,3.09,3.63Z"/>
        <path class="cls-1" d="M219,18.46a11.06,11.06,0,0,0-2.06-.15H202.57v1h-1.52A14.62,14.62,0,0,0,201.2,17V3.19c0-.88,0-1.49-.08-2.18a16.94,16.94,0,0,0,2.2.1h13.21A13.34,13.34,0,0,0,218.59,1V2.48a13.9,13.9,0,0,0-2-.13h-14V17.07h14.36a13.83,13.83,0,0,0,2.08-.13Zm-11.93-9.1a17.12,17.12,0,0,1-.48,3.36,8.52,8.52,0,0,1-1.85,3.64,5.45,5.45,0,0,0-1.07-1,7,7,0,0,0,1.57-2.75,18.14,18.14,0,0,0,.59-5.33,19.79,19.79,0,0,0-.12-2.5h.33c1,0,3.78-.21,5.29-.4a16.6,16.6,0,0,0,4.71-1.07L217,4.56a51.43,51.43,0,0,1-9.85,1.36V7c0,.32,0,.53,0,1.14h9.32A8.76,8.76,0,0,0,218.25,8V9.47a11.11,11.11,0,0,0-1.81-.11h-3.31v5.25a7.11,7.11,0,0,0,.12,1.7h-1.59a8.72,8.72,0,0,0,.12-1.7V9.36Z"/>
        <path class="cls-1" d="M225.6,12.51a15.38,15.38,0,0,1-2.27,6.87,4.25,4.25,0,0,0-1.11-1.05,10.66,10.66,0,0,0,1.83-4.41A55,55,0,0,0,224.74,4a27.6,27.6,0,0,0-.1-3c.71.06,1.38.08,2.54.08h10.94A19.82,19.82,0,0,0,240.34,1c0,.5-.06,1-.06,1.61V4.09a15.29,15.29,0,0,0,.06,1.54c-.88,0-1.43-.07-2.1-.07H226c0,2.82-.08,3.78-.27,5.82h4.16V8.9h-1.31a15,15,0,0,0-1.89.09V7.68a10.25,10.25,0,0,0,1.91.11h1.29V7.52A13.81,13.81,0,0,0,229.8,6h1.45a7.42,7.42,0,0,0-.1,1.49v.27h4V7.52A9.28,9.28,0,0,0,235.07,6h1.49a7.12,7.12,0,0,0-.1,1.49v.27h1.8a10.52,10.52,0,0,0,2-.11V9a15,15,0,0,0-2-.09h-1.78v2.48h2.45a14.27,14.27,0,0,0,2.27-.13v1.39a18.29,18.29,0,0,0-2.24-.13h-5.65a6.66,6.66,0,0,0,2.08,2.65,12.71,12.71,0,0,0,2.91-2.5l1.18.78a27.68,27.68,0,0,1-3.15,2.41A13.86,13.86,0,0,0,241.75,18a3.7,3.7,0,0,0-.84,1.28A16,16,0,0,1,234.53,16a8.81,8.81,0,0,1-2.59-3.53h-2.12v4.75c1.77-.34,2.48-.51,4.37-1v1.22c-2.25.61-3.13.8-7.43,1.64l-.74.16-.33-1.44h.19a18.76,18.76,0,0,0,2.64-.34v-5ZM239,4.45V2.25H226v2.2ZM235.18,8.9h-4v2.48h4Z"/>
        <path class="cls-1" d="M245.47,10.94a25.49,25.49,0,0,0,4.22-4.68A9,9,0,0,1,250.74,5a2.18,2.18,0,0,1,3.48.14c.21.19.57.59,1.54,1.7a56.15,56.15,0,0,0,6.65,6.47,7,7,0,0,0,1.68,1.09l-.71,1.81a3.89,3.89,0,0,0-.5-.44c-1.31-1-3.7-3.17-5.11-4.56-1.24-1.26-2-2.12-4.07-4.49-.57-.65-.9-.9-1.26-.9s-.65.16-1.66,1.51c-1.24,1.66-2.33,3-3.67,4.47-.38.42-.42.46-.61.69Z"/>
        <path class="cls-1" d="M276.27,12.14c-1.21,2.77-2.45,4-4,4-2,0-3.49-2.19-3.49-5.13A8.7,8.7,0,0,1,271,5.25a8.75,8.75,0,0,1,6.78-2.79,8.09,8.09,0,0,1,5.77,2.08,7,7,0,0,1,2,5.12,7.65,7.65,0,0,1-4.81,7.24,16.34,16.34,0,0,1-3.19,1,3.28,3.28,0,0,0-.74-1.41,12.23,12.23,0,0,0,3.51-1,6.33,6.33,0,0,0,3.72-5.87,5.53,5.53,0,0,0-3.34-5.27,6,6,0,0,0-2.44-.53A31.16,31.16,0,0,1,276.27,12.14Zm-2.58-7.33a7.25,7.25,0,0,0-3.42,6.25c0,2,.88,3.57,2,3.57.88,0,1.72-1,2.62-3a28.71,28.71,0,0,0,1.91-7.77A6.69,6.69,0,0,0,273.69,4.81Z"/>
        <path class="cls-1" d="M296.16,10.29c-1.36,1.13-2,2.1-2,3.08s.61,1.66,1.78,2.06a13.15,13.15,0,0,0,3.84.42,19.66,19.66,0,0,0,6.3-.8l.19,1.73a7,7,0,0,0-.71.1,33.73,33.73,0,0,1-5.67.48,14.78,14.78,0,0,1-4.83-.65,3.34,3.34,0,0,1-2.39-3.17c0-1.36.79-2.69,2.41-4ZM294,2.62a23.75,23.75,0,0,0,5.58.51,23.13,23.13,0,0,0,5.31-.44L305,4.07a32.28,32.28,0,0,0-5.29,3.19L298.6,6.4a33.49,33.49,0,0,1,3.71-2.22,16.56,16.56,0,0,1-3.17.27,40.69,40.69,0,0,1-4.62-.27l-.69-.06Zm10.47,3.64a16.34,16.34,0,0,1,2.15,3.25l-1.05.63a16.62,16.62,0,0,0-2.15-3.34ZM306.72,5a16.25,16.25,0,0,1,2.19,3.27l-1.05.59a18,18,0,0,0-2.14-3.3Z"/>
        <path class="cls-1" d="M324.6,9.34a20.7,20.7,0,0,0,2.49-4.8l1.31.52a31,31,0,0,1-2.34,4.28h3.11a11.82,11.82,0,0,0,2.31-.14v1.49a16.63,16.63,0,0,0-2.35-.13h-5.84a22,22,0,0,0,2.77,2.92A19.4,19.4,0,0,0,331.73,17a6,6,0,0,0-.9,1.3,22.69,22.69,0,0,1-5.29-3.57,19,19,0,0,1-3-3.53c.06,1.16.08,1.72.08,2.27v3.76a11.74,11.74,0,0,0,.15,2h-1.6a11,11,0,0,0,.15-2V13.5c0-.63,0-1,.09-2.25a17.2,17.2,0,0,1-3.95,4.52,24.19,24.19,0,0,1-3.76,2.56,5.3,5.3,0,0,0-.94-1.22A21.82,21.82,0,0,0,318.63,13a18.55,18.55,0,0,0,2.14-2.46h-5.48a19.87,19.87,0,0,0-2.31.13V9.2a15.26,15.26,0,0,0,2.29.14h6.09V3.84h-5A17.66,17.66,0,0,0,314.1,4V2.5a15.51,15.51,0,0,0,2.29.15h5V2a11.32,11.32,0,0,0-.12-1.74h1.55A7.49,7.49,0,0,0,322.66,2v.7H328a12.25,12.25,0,0,0,2.33-.15V4a15.53,15.53,0,0,0-2.29-.13h-5.4v5.5ZM317,4.51A25.07,25.07,0,0,1,319,8.4L317.86,9a20.68,20.68,0,0,0-2-3.95Z"/>
        <path class="cls-1" d="M338,2.75a17.17,17.17,0,0,0-.13-2.31h1.55a15,15,0,0,0-.12,2.33v2.9h.5a11.18,11.18,0,0,0,1.74-.09V6.93a17,17,0,0,0-1.74-.09h-.5v5.4a20.41,20.41,0,0,0,1.78-1.07l.09,1.26a37.39,37.39,0,0,1-4.37,2.37c-.34.15-.92.44-1.11.55l-.4-1.47a10.67,10.67,0,0,0,2.71-1v-6h-.91a15.58,15.58,0,0,0-1.78.11V5.56a11,11,0,0,0,1.82.11H338Zm5.9,9.6a13.57,13.57,0,0,1-3.53,2.79,3.94,3.94,0,0,0-.86-1,10.08,10.08,0,0,0,4.87-4.43h-1.28a10.58,10.58,0,0,0-1.89.13V8.52a9.7,9.7,0,0,0,1.93.13h9a11.24,11.24,0,0,0,2.08-.13V9.85a16.15,16.15,0,0,0-2.08-.09H345.7a10.05,10.05,0,0,1-1,1.54h6.95a16.67,16.67,0,0,0,2.06-.09,10,10,0,0,0-.1,1.24,20.94,20.94,0,0,1-.93,5.61c-.38.75-.9,1-2.33,1-.48,0-1.17,0-1.82-.08a3.76,3.76,0,0,0-.42-1.37,14.19,14.19,0,0,0,2.49.23c.84,0,1-.16,1.26-1.42a26.36,26.36,0,0,0,.47-4H351a12.29,12.29,0,0,1-1.87,3.17,22.45,22.45,0,0,1-2.58,2.58,15.71,15.71,0,0,1-1.7,1.17,3.76,3.76,0,0,0-1-1A13.47,13.47,0,0,0,348,15.1a10.47,10.47,0,0,0,1.72-2.75h-2.08a14.56,14.56,0,0,1-5.77,5.24,3.21,3.21,0,0,0-.91-1,12,12,0,0,0,5.32-4.26Zm.67-5.09a15.11,15.11,0,0,0-1.91.09,17,17,0,0,0,.08-1.89V2.73a14.84,14.84,0,0,0-.08-1.85,12.65,12.65,0,0,0,2,.11h5.48a14.49,14.49,0,0,0,2.19-.11,14,14,0,0,0-.09,2V5.46a11.33,11.33,0,0,0,.09,1.87c-.47,0-1.12-.07-1.94-.07ZM344,3.61h7V2.08h-7Zm0,2.63h7V4.64h-7Z"/>
        <path class="cls-1" d="M364.37,3.59a9.14,9.14,0,0,0,1-2.88l1.68.3a4.37,4.37,0,0,0-.55,1.13,14.64,14.64,0,0,1-.65,1.43l.44,0a29.62,29.62,0,0,0,6.62-.8L373,4.18a7,7,0,0,0-.84.1,65,65,0,0,1-6.93.55,15.11,15.11,0,0,1-1.89,3c-.21.25-.63.74-.71.8a2.09,2.09,0,0,0-.27.21,0,0,0,0,1,0,0v0a.15.15,0,0,0,0,.06l1-.73a5.62,5.62,0,0,1,3.17-1,2.56,2.56,0,0,1,2.78,2.33c1.53-.61,2.72-1.05,3.65-1.39a4.61,4.61,0,0,0,1.43-.6L375.08,9a33.81,33.81,0,0,0-5.61,1.84c0,.55,0,.76,0,1.28,0,.28,0,.74,0,1.16s0,.75,0,.94a4.78,4.78,0,0,0,0,.76l-1.42,0c.06-.46.12-1.74.12-3a5.74,5.74,0,0,0,0-.63c-2.85,1.34-3.95,2.33-3.95,3.59s1.31,2,4.27,2a17.36,17.36,0,0,0,5.6-.82l.19,1.62c-.31,0-.42,0-.84.1a31.7,31.7,0,0,1-5.1.42c-3.76,0-5.59-1.07-5.59-3.23,0-1.15.72-2.25,2.15-3.32A16.61,16.61,0,0,1,368,10c-.16-1.15-.67-1.65-1.65-1.65a7.86,7.86,0,0,0-4.69,2.22,6.83,6.83,0,0,0-1.61,1.74l-1.18-1.17a20.8,20.8,0,0,0,4.7-6l.19-.31a2.35,2.35,0,0,1-.4,0l-3.08-.06H360l-.46,0,0-1.45a29,29,0,0,0,4.49.23Z"/>
        <path class="cls-1" d="M396.9,2.2a26.28,26.28,0,0,1-5.69,4c.59.42.84.59,1.63,1.2L392.3,8h3.8a11.9,11.9,0,0,0,2.23-.11l.81.91a7.15,7.15,0,0,0-.56.69,17.06,17.06,0,0,1-3.68,3.67,5.09,5.09,0,0,0-1.09-.86,14.28,14.28,0,0,0,3.36-3h-6.38v8.14c0,1.35-.51,1.7-2.46,1.7-.65,0-1.76,0-2.48-.1a5.09,5.09,0,0,0-.33-1.45,17.46,17.46,0,0,0,2.94.25c.71,0,.92-.14.92-.61V9.22h-6.51a16.54,16.54,0,0,0-2.16.12V7.83A14.88,14.88,0,0,0,383,8h8.4a30.47,30.47,0,0,0-5.8-3.57l.86-.93c1.85,1,2.57,1.37,3.57,2a20.66,20.66,0,0,0,4.48-3h-9.72a14.77,14.77,0,0,0-2.17.1V1.15a12.06,12.06,0,0,0,2.21.13h9.61A14.92,14.92,0,0,0,396,1.22Z"/>
        <path class="cls-1" d="M411.72,7.64H408a13.47,13.47,0,0,0-2.08.13V6.32a13.94,13.94,0,0,0,2.08.13h8.69a14,14,0,0,0,2.08-.13V7.77a13,13,0,0,0-2.08-.13H413v3.42h4.05a13.13,13.13,0,0,0,2-.12v1.43a10.62,10.62,0,0,0-2-.13H413V16.9a18.6,18.6,0,0,0,3.42.23c1.7,0,3.15-.06,4.91-.21a3.89,3.89,0,0,0-.46,1.47c-1.83,0-2,0-2.54,0a29.87,29.87,0,0,1-4.6-.16c-3.27-.47-5.33-1.73-6.44-3.95a14.36,14.36,0,0,1-3.2,4.77,3.66,3.66,0,0,0-1.09-1,11.33,11.33,0,0,0,2.84-3.74,13.35,13.35,0,0,0,1.28-4.79V9.36l1.47.3c-.07.27-.07.27-.25,1.09-.11.5-.42,1.72-.57,2.23a6.4,6.4,0,0,0,1.66,2.31,7.24,7.24,0,0,0,2.26,1.28Zm-.31-5.94a6.71,6.71,0,0,0-.13-1.32h1.64a5.76,5.76,0,0,0-.15,1.3v1h6.14A19.17,19.17,0,0,0,421,2.62a10.06,10.06,0,0,0-.08,1.43V5.38A10.69,10.69,0,0,0,421,6.87h-1.36V3.93H405V6.87H403.6a10.6,10.6,0,0,0,.08-1.49V4.05a10.06,10.06,0,0,0-.08-1.43,19.4,19.4,0,0,0,2.12.09h5.69Z"/>
        <path class="cls-1" d="M427.37,5.08a8.64,8.64,0,0,0,1.62.11,49.4,49.4,0,0,0,6.25-.44c-.31-.72-.65-1.56-1-2.5-.24-.55-.36-.84-.55-1.22L435.33.8a6.51,6.51,0,0,0,.61,1.89,17.4,17.4,0,0,0,.75,1.85,24.19,24.19,0,0,0,5.08-1.33L442,4.7c-.44.09-.6.13-1.23.3-1.26.33-1.52.4-2.84.65l-.71.14A38.22,38.22,0,0,0,441,11.9l-1.41.8a4.24,4.24,0,0,0-1.45-.86,11.3,11.3,0,0,0-3.67-.54,7.4,7.4,0,0,0-4,.88,2.36,2.36,0,0,0-1.14,2,2.12,2.12,0,0,0,.8,1.64,7.13,7.13,0,0,0,4.1,1,13.86,13.86,0,0,0,6-1.34l.23,1.62a17.53,17.53,0,0,1-6.17,1.13c-2.57,0-4.5-.57-5.46-1.57a3.39,3.39,0,0,1-.95-2.31,3.94,3.94,0,0,1,2.38-3.43,9,9,0,0,1,4.07-.77,10.51,10.51,0,0,1,4.34.75A26.34,26.34,0,0,1,436.1,6.7c-.23-.44-.23-.49-.35-.7a60.29,60.29,0,0,1-7.48.55,4.91,4.91,0,0,0-.82.06Z"/>
        <path class="cls-1" d="M448.27,13.61A32.85,32.85,0,0,0,452,10.06c0-.84.06-2.17.13-4a22.89,22.89,0,0,0-3.3.29l-.08-1.45a4.4,4.4,0,0,0,.65,0l2.75-.16c.06-1.6.08-2.54.08-2.82a9,9,0,0,0-.06-1l1.66,0a23.45,23.45,0,0,0-.25,3.74,1.43,1.43,0,0,0,.42-.1l.54.65a7.32,7.32,0,0,0-1.07,1.3,3.64,3.64,0,0,1,0,.52c0,.42,0,.42,0,1.41a1.18,1.18,0,0,1,0,.19c0,.17,0,.21,0,.34l0,0A14.34,14.34,0,0,1,456,6.53C458,5,459.52,4.22,460.78,4.22a2.29,2.29,0,0,1,2.46,2.46,13.93,13.93,0,0,1-.49,3.06,23.51,23.51,0,0,0-.9,5c0,1,.44,1.49,1.26,1.49a2.53,2.53,0,0,0,1.79-1.16,8.59,8.59,0,0,0,1.19-2.41,6.71,6.71,0,0,0,1,1.43,10.78,10.78,0,0,1-1.3,2.08,3.65,3.65,0,0,1-2.9,1.51,2.61,2.61,0,0,1-1.47-.44,2.64,2.64,0,0,1-1-2.4c0-1.07,0-1.3.8-4.89a15.88,15.88,0,0,0,.53-3.15,1.07,1.07,0,0,0-1.16-1.13,5.94,5.94,0,0,0-3.17,1.43,32.53,32.53,0,0,0-4,3.57v4.53a34.27,34.27,0,0,0,.06,3.49h-1.64a17.42,17.42,0,0,0,.15-3.47c0-2.46,0-2.46.06-3.4h0a2.15,2.15,0,0,1-.38.5c-.31.36-.31.36-1,1.16l-.88,1a4,4,0,0,0-.54.67Z"/>
        <path class="cls-1" d="M471.37,3.86h.75c.3,0,.55,0,1.2-.06,2.5-.19,9.22-.57,11.93-.69a14.3,14.3,0,0,0,2.49-.23l.13,1.57a10.2,10.2,0,0,0-2.35.27,10.72,10.72,0,0,0-4,2.12,6.44,6.44,0,0,0-2.59,4.85,4.11,4.11,0,0,0,2.94,3.89,10.68,10.68,0,0,0,3.15.67h.21l-.27,1.7-.65-.12a10.65,10.65,0,0,1-4.54-1.62,5.11,5.11,0,0,1-2.33-4.28c0-2.44,1.43-4.77,3.93-6.45a14.36,14.36,0,0,1,2-1.11,41.31,41.31,0,0,1-4.62.46,61.36,61.36,0,0,0-7.24.69Z"/>
        <path class="cls-1" d="M496.44,2.86a14.53,14.53,0,0,0-.15,2.49,35.42,35.42,0,0,0,.55,6.53c.46,2.15,1.32,3.59,2.12,3.59q.57,0,1.05-1.05a15.07,15.07,0,0,0,1.09-3.59,6.43,6.43,0,0,0,1.24,1.2c-1,3.68-2,5.08-3.49,5.08-1.17,0-2.26-1.17-3-3.19s-1-4.68-1.13-9.85a12.13,12.13,0,0,0-.06-1.24ZM506.58,4a17.73,17.73,0,0,1,3,4.79,20,20,0,0,1,1.58,5.6l-1.49.61A18.5,18.5,0,0,0,505.3,4.62Z"/>
        <path class="cls-1" d="M519.31,2.08a10.13,10.13,0,0,0,2,.12c1.74,0,4.54-.12,6.43-.27a2.06,2.06,0,0,0,1-.23l.89,1.16c-.3.14-.4.23-1.07.88a53.9,53.9,0,0,1-6.91,6l0,.06a10.64,10.64,0,0,1,5.14-1.3c3.51,0,5.76,1.72,5.76,4.41,0,3.28-3,5.44-7.71,5.44-3,0-4.66-1.09-4.66-3,0-1.41,1.3-2.46,3-2.46a4.24,4.24,0,0,1,3.47,1.72,6.13,6.13,0,0,1,1,2c2.2-.61,3.35-1.89,3.35-3.68,0-2-1.68-3.21-4.51-3.21a13.46,13.46,0,0,0-8.84,3.59l-.94-1.34a24.77,24.77,0,0,0,2.94-2.15c2.24-1.78,5.56-4.7,7-6.13l.29-.29.09-.08.08-.09,0,0-.19,0c-.67.13-3.19.27-6.38.38a10.73,10.73,0,0,0-1.14.1Zm3.94,12c-1,0-1.7.5-1.7,1.3a1.45,1.45,0,0,0,.84,1.28,5.45,5.45,0,0,0,2.36.48,7.34,7.34,0,0,0,1.53-.15C525.82,15,524.77,14,523.25,14Z"/>
        <path class="cls-1" d="M540.5,2.18a8.68,8.68,0,0,0-.13-1.93H542a10.18,10.18,0,0,0-.13,1.93v.59h3.47A9.42,9.42,0,0,0,547,2.65V4.07A9.51,9.51,0,0,0,545.29,4h-3.47V7.37c2-.34,2.67-.48,5.31-1.09V7.41c-2.87.69-5.22,1.18-7.39,1.56a10.31,10.31,0,0,0-1.61.33l-.24-1.45a17.4,17.4,0,0,0,2.61-.27Zm11.08,8a17.46,17.46,0,0,0,2.27-.1,21.13,21.13,0,0,0-.08,2.31v4.78a14,14,0,0,0,.12,2.1h-1.42v-1H542.28v1h-1.4a14.38,14.38,0,0,0,.12-2.1V12.35a22.84,22.84,0,0,0-.08-2.31,17.12,17.12,0,0,0,2.25.1h2.51a8.71,8.71,0,0,0,.86-1.93l1.43.36a12.57,12.57,0,0,1-.86,1.57Zm-9.3,3.38h10.19V11.25H542.28Zm0,3.59h10.19v-2.5H542.28ZM549.4,6.57c0,.63.21.69,2.5.69,1.85,0,2.46-.08,2.71-.35a6.27,6.27,0,0,0,.52-2.84,3.13,3.13,0,0,0,1.24.55c-.21,2.31-.46,3.11-1.07,3.48s-1.28.36-3.78.36c-2.88,0-3.44-.25-3.44-1.47V2.1A10.92,10.92,0,0,0,548,.25h1.58a7.84,7.84,0,0,0-.13,1.83V3.36a21.84,21.84,0,0,0,2.48-.82,13.66,13.66,0,0,0,3.29-1.6l.91,1.14c-1,.42-1,.42-2.16.92a33.42,33.42,0,0,1-4.52,1.51Z"/>
        <path class="cls-1" d="M563.35,2.39a11.79,11.79,0,0,0-.11-2.18h1.47a14.45,14.45,0,0,0-.1,2.16V4.43h.81a8.07,8.07,0,0,0,1.33-.08V5.63a10.58,10.58,0,0,0-1.33-.07h-.75a11.73,11.73,0,0,0,2,3.43,9.19,9.19,0,0,0-.73,1.13,14.34,14.34,0,0,1-1.37-2.94c.06,1.76.09,2.69.09,3.42V17a17.9,17.9,0,0,0,.12,2.44h-1.51a18.39,18.39,0,0,0,.13-2.44V11c0-.84,0-.84.06-1.84,0-.13,0-.51.06-1,0-.17,0-.42,0-.78a17.42,17.42,0,0,1-1.34,4.05,17.52,17.52,0,0,1-1.39,2.37,5.26,5.26,0,0,0-.79-1.3,12.5,12.5,0,0,0,2-3.31,20.77,20.77,0,0,0,1.18-3.62H562a8.24,8.24,0,0,0-1.47.09V4.35a9,9,0,0,0,1.47.08h1.31Zm5.48,1.91a10.91,10.91,0,0,0-1.83.11V3.09a11.45,11.45,0,0,0,1.85.1H570A10,10,0,0,0,568.59.88L569.71.4a13.69,13.69,0,0,1,1.51,2.79h2.44A13.39,13.39,0,0,0,575.08.36l1.24.44c-.33.67-1,1.89-1.34,2.39h1.85a13.16,13.16,0,0,0,1.91-.12V4.43a12.82,12.82,0,0,0-1.91-.13H573V6.11h3.17A10.59,10.59,0,0,0,578.08,6V7.37a12,12,0,0,0-1.88-.11H573V9.15h4.12A13.06,13.06,0,0,0,579,9v1.36a13.25,13.25,0,0,0-1.89-.12h-4a11.67,11.67,0,0,0,1.72,3.15,11.24,11.24,0,0,0,2.29-2.71l1.07.75a16.83,16.83,0,0,1-2.62,2.86,11.81,11.81,0,0,0,4,2.94,5.57,5.57,0,0,0-.89,1.22,14.68,14.68,0,0,1-3.08-2.42,13.09,13.09,0,0,1-2.77-4.28,18.38,18.38,0,0,1,.16,2.08V17.8c0,1.14-.4,1.43-2,1.43a16.76,16.76,0,0,1-1.72-.08,3.28,3.28,0,0,0-.38-1.32A13.81,13.81,0,0,0,571,18c.61,0,.73-.08.73-.46v-3a27.81,27.81,0,0,1-4.45,2.71,8.36,8.36,0,0,0-.94.57l-.61-1.39a21.91,21.91,0,0,0,6-3.19v-3h-3.27a11.13,11.13,0,0,0-1.81.1V9.07a15,15,0,0,0,1.83.08h3.25V7.26h-2.33a10.7,10.7,0,0,0-1.82.11V6a9.4,9.4,0,0,0,1.78.11h2.37V4.3Zm-.78,6.45a18.7,18.7,0,0,1,2,2.54l-1,.69a12.57,12.57,0,0,0-2-2.58Z"/>
        <path class="cls-1" d="M587.6,1.6A29.61,29.61,0,0,0,586.72,5a31,31,0,0,0-.63,6.57c0,1.63,0,2.87.12,4a19.93,19.93,0,0,1,1.37-4.1l1,.48a18.17,18.17,0,0,0-1.7,5.78V18l-1.52.13c0-.34-.06-.44-.12-.84a30.06,30.06,0,0,1-.55-5.94A34.45,34.45,0,0,1,585.65,3a10.94,10.94,0,0,0,.29-1.68ZM593,10a4.85,4.85,0,0,0-1.57,3.08c0,1.56,1.32,2.31,4,2.31a13.87,13.87,0,0,0,4.83-.73l.21,1.61c-.27,0-.32.05-.74.11a21.83,21.83,0,0,1-4.3.42c-2.39,0-3.91-.51-4.81-1.6a3,3,0,0,1-.63-1.93,5.8,5.8,0,0,1,1.83-3.9Zm-2.66-6.22a14.24,14.24,0,0,0,3.57.32,22.32,22.32,0,0,0,5.62-.57l.11,1.49-1.45.19a35.15,35.15,0,0,1-4.51.27,27.26,27.26,0,0,1-3.36-.21Z"/>
        <path class="cls-1" d="M610,1.51a29.76,29.76,0,0,0-1.62,9.85c0,.73,0,2,.09,2.94,0,.17,0,.21,0,.59v.4l.08,0a18.28,18.28,0,0,1,1.24-3.7c.08-.19.12-.27.17-.42l1,.48a18.12,18.12,0,0,0-1.81,6,2.48,2.48,0,0,0,0,.42l-1.49.14c0-.19,0-.29-.12-.77a33.36,33.36,0,0,1-.59-6.24,35.51,35.51,0,0,1,1.09-8.63,9.22,9.22,0,0,0,.23-1.32Zm2.12,3.91a14.67,14.67,0,0,0,3.78.33c.82,0,1.38,0,2.24-.06,0-2,0-2,0-3.57a4.85,4.85,0,0,0-.06-.86h1.58a20.71,20.71,0,0,0-.15,3.3c0,.23,0,.56,0,1a14.19,14.19,0,0,0,3.63-.77l.06,1.43-1.46.29a20.2,20.2,0,0,1-2.23.34c0,2.07.06,3.15.23,5.94a15.23,15.23,0,0,1,3.51,2.06c.25.16.29.21.52.35l-.65,1.47a11.42,11.42,0,0,0-3-2.18l-.21-.13-.19-.12a3.07,3.07,0,0,1,0,.54,3.59,3.59,0,0,1-.25,1.43C619,17.34,617.75,18,616,18c-2.43,0-4-1.15-4-3s1.65-3,4-3a6,6,0,0,1,2.34.42c-.07-.44-.15-2.41-.22-5.48-.94,0-1.59.06-2.39.06s-1.64,0-2.37-.06a5.83,5.83,0,0,0-.67,0l-.36,0a1,1,0,0,0-.21,0h-.08Zm4,7.87c-1.64,0-2.71.69-2.71,1.74s1,1.7,2.44,1.7A2.9,2.9,0,0,0,618,16a2.48,2.48,0,0,0,.4-1.64c0-.15,0-.63,0-.63A5.53,5.53,0,0,0,616.16,13.29Z"/>
        <path class="cls-1" d="M629,13.54A21.64,21.64,0,0,1,633.17,18L632,19.11a21.05,21.05,0,0,0-4.14-4.58Z"/>
        <path class="cls-1" d="M2.25,56.21A17.87,17.87,0,0,0,0,56.29V54.63a10,10,0,0,0,2.29.15h10V44.64H2.73a16.65,16.65,0,0,0-2.42.11V43.07a12.11,12.11,0,0,0,2.42.14H12.81l1.09,0c0,.53,0,.88,0,1.64V55.56a14.85,14.85,0,0,0,.1,1.91H12.28V56.21Z"/>
        <path class="cls-1" d="M23.94,56v1.49H22.32a9.83,9.83,0,0,0,.09-1.57V44.51a9.65,9.65,0,0,0-.09-1.63,15.91,15.91,0,0,0,1.64.06H35.15a11.5,11.5,0,0,0,1.64-.06,11.8,11.8,0,0,0-.06,1.63V55.87c0,.63,0,1.18.06,1.62h-1.6V56ZM35.19,44.33H23.94v10.3H35.19Z"/>
        <path class="cls-1" d="M58.13,46.36a12.39,12.39,0,0,0,2.45-.15v1.64a20.17,20.17,0,0,0-2.43-.1H53.4c-.17,2.94-.54,4.51-1.55,6.11a12.18,12.18,0,0,1-5.21,4.39,4.57,4.57,0,0,0-1.07-1.35,9.66,9.66,0,0,0,5.21-4.32,10.63,10.63,0,0,0,1.07-4.83H46a20.17,20.17,0,0,0-2.43.1V46.21a12.45,12.45,0,0,0,2.45.15h5.86c0-.78,0-1.19,0-1.85V43a10.51,10.51,0,0,0-.1-1.78h1.76a10.55,10.55,0,0,0-.1,1.78l0,1.51v1.85Z"/>
        <path class="cls-1" d="M79.69,44.33a4.59,4.59,0,0,0,1.77-.13l.86.82c-.19.33-.19.33-.46,2.12a13.14,13.14,0,0,1-3.8,7.66,16.55,16.55,0,0,1-6.16,3.49,4.34,4.34,0,0,0-1-1.43,13.94,13.94,0,0,0,4.64-2c2.94-2,4.47-4.91,4.87-9.17H69V48.8a15.14,15.14,0,0,0,.07,1.55H67.33c0-.36.08-1,.08-1.57V45.94a14.47,14.47,0,0,0-.08-1.7,18.55,18.55,0,0,0,1.93.09h4.45V42.2a6.16,6.16,0,0,0-.11-1.34h1.77a7.49,7.49,0,0,0-.11,1.32v2.15Z"/>
        <path class="cls-1" d="M104.49,42.08a4.63,4.63,0,0,0-.92.88,36.69,36.69,0,0,1-4.91,4.22v8.94a14.7,14.7,0,0,0,.1,2.23H96.93a10.5,10.5,0,0,0,.13-2.18v-8A32.76,32.76,0,0,1,89,51.86a4.92,4.92,0,0,0-.82-1.4A29.61,29.61,0,0,0,99,45a17.2,17.2,0,0,0,4-4Z"/>
        <path class="cls-1" d="M116.51,41.83a9.38,9.38,0,0,0-.13,1.8c-.17,5.69-.33,7.25-1.13,9.37a12.85,12.85,0,0,1-3.63,5.18,4,4,0,0,0-1.26-1.13,10.4,10.4,0,0,0,3.54-4.83c.65-1.83.95-4.58.95-9a8.48,8.48,0,0,0-.09-1.49Zm5.2-.23a8.47,8.47,0,0,0-.12,1.84l-.13,12.68a9.67,9.67,0,0,0,3.91-2.43,10.51,10.51,0,0,0,2.48-4.2A5.64,5.64,0,0,0,129,50.71a11.87,11.87,0,0,1-4.22,5.39,14,14,0,0,1-3,1.54l-.67.25a2.51,2.51,0,0,0-.49.23l-.84-1a3.39,3.39,0,0,0,.15-1.42l.13-12.29a7.94,7.94,0,0,0-.09-1.87Z"/>
        <path class="cls-1" d="M149.35,57.91a39.1,39.1,0,0,0-6.72-6.49,22.76,22.76,0,0,1-4,3.76,27.07,27.07,0,0,1-4.12,2.52,4.71,4.71,0,0,0-1-1.39,16.91,16.91,0,0,0,4.26-2.41,22.76,22.76,0,0,0,7.49-9.47c.05-.13.07-.15.11-.25a.47.47,0,0,0,.06-.15,3.7,3.7,0,0,1-.5,0l-7,.11a13.43,13.43,0,0,0-2.17.17l0-1.71a9.3,9.3,0,0,0,1.66.11h.55l7.49-.08a4.23,4.23,0,0,0,1.34-.17l.89.9a3.78,3.78,0,0,0-.59,1,25.4,25.4,0,0,1-3.47,5.88,52.78,52.78,0,0,1,7,6.3Z"/>
        <path class="cls-1" d="M172.24,45.19l-.57,1.13a15.21,15.21,0,0,1-1.95,3.3c.84,1.36,1.81,2.26,2.41,2.26.4,0,.7-.79.93-2.56a3.64,3.64,0,0,0,1.05.84c-.44,2.19-1,3-2,3s-2.23-1-3.24-2.54a14.36,14.36,0,0,1-3,2.54,4,4,0,0,0-.92-.88,12.22,12.22,0,0,0,3.27-2.71,17.66,17.66,0,0,1-1.57-6.06h-8.55c0,6.06-.38,8.08-1.78,10.24a3,3,0,0,0-1.18-.84c1.35-1.93,1.68-3.61,1.68-8.61a20.25,20.25,0,0,0-.1-2c.67.06,1.47.1,2.47.1h7.33L166.49,41a4.18,4.18,0,0,0-.13-.84h1.49a7.37,7.37,0,0,0-.06,1c0,.32,0,.61.06,1.2h3.4a12,12,0,0,0-2.43-1.59l.86-.72a17.71,17.71,0,0,1,2.48,1.58l-.78.73a13,13,0,0,0,2.37-.12v1.36a18.16,18.16,0,0,0-2.35-.1H168a16.64,16.64,0,0,0,1.17,5A11.89,11.89,0,0,0,171,44.7Zm-13.31,9a12,12,0,0,1-2.46,4.52l-1.13-.8a8.87,8.87,0,0,0,2.43-4.29Zm7.16-8a12.47,12.47,0,0,0-1.62-.08h-4a13.42,13.42,0,0,0-1.64.08V44.89a10.72,10.72,0,0,0,1.64.09h4a10.6,10.6,0,0,0,1.62-.09Zm-6.72,2.44a10.18,10.18,0,0,0-.06-1.18,13.5,13.5,0,0,0,1.42.06h3.38a14.27,14.27,0,0,0,1.45-.06,9.35,9.35,0,0,0-.06,1.16v1.91c0,.48,0,.58,0,1.19a13.54,13.54,0,0,0-1.41,0h-3.42a11.85,11.85,0,0,0-1.4.06,9.09,9.09,0,0,0,.06-1.17Zm2.35,8.67c0,.48.29.54,3,.54,2.27,0,3.09-.12,3.39-.48a3.51,3.51,0,0,0,.33-1.8,4.11,4.11,0,0,0,1.28.52c-.29,2.79-.57,2.94-5.46,2.94-3.29,0-3.86-.21-3.86-1.45V55.12a7.71,7.71,0,0,0-.13-1.56h1.52a7,7,0,0,0-.11,1.43Zm-1.2-6.66h3.82v-2.1h-3.82Zm5.67,5.57a15.18,15.18,0,0,0-3.4-2.48l.82-.78a17,17,0,0,1,3.44,2.35Zm4.73-2.4a22.38,22.38,0,0,1,2.85,4l-1.13.67a18.44,18.44,0,0,0-2.82-4.11Z"/>
        <path class="cls-1" d="M193.83,51.42a16.83,16.83,0,0,0,2.37-.12v1.4a20.42,20.42,0,0,0-2.37-.12h-5.19a12.37,12.37,0,0,0,2.52,2,21.16,21.16,0,0,0,5.75,2.44,5.68,5.68,0,0,0-.9,1.28,23,23,0,0,1-5.14-2.46,12.85,12.85,0,0,1-3.19-2.81c.06,1.13.08,1.91.08,2.37v1.79a8.39,8.39,0,0,0,.15,2.2h-1.6a13.53,13.53,0,0,0,.13-2.2V55.45c0-.44,0-1.59.08-2.37a19.2,19.2,0,0,1-8,5.21,4.37,4.37,0,0,0-.94-1.22,19.11,19.11,0,0,0,8-4.49h-5a20.18,20.18,0,0,0-2.35.12V51.3a13.48,13.48,0,0,0,2.31.12h5.9v-.63a6.37,6.37,0,0,0-.11-1.43h1.53a9.88,9.88,0,0,0-.08,1.43v.63Zm-15-8.1A15.49,15.49,0,0,1,182.13,45l-.75,1a11.49,11.49,0,0,0-3.32-1.79ZM184,46.7a30.14,30.14,0,0,1-4.62,3.23,3.13,3.13,0,0,0-.5.34L178.23,49a16.88,16.88,0,0,0,5.37-3.42Zm-3.69-6.13a15.13,15.13,0,0,1,3.36,1.82l-.76,1a12.62,12.62,0,0,0-3.4-1.87Zm10.52,2.12a16.07,16.07,0,0,0,1.84-.07,14,14,0,0,0-.08,1.73V47.6c0,.59.06.63,1,.63,1.09,0,1.4-.08,1.49-.44a11.23,11.23,0,0,0,.17-2.27,3.51,3.51,0,0,0,1.21.48c-.21,3.24-.35,3.41-3,3.41-1.8,0-2.14-.23-2.14-1.43V43.82H189a7.89,7.89,0,0,1-5.15,6.43,3.3,3.3,0,0,0-.82-1,7.33,7.33,0,0,0,3.7-2.67,6.81,6.81,0,0,0,1-2.73H186.5a13,13,0,0,0-2.12.11V42.56a10.35,10.35,0,0,0,2.14.13h1.3c0-.42,0-.76,0-1.24a7.83,7.83,0,0,0-.08-1.24l1.47,0a5.57,5.57,0,0,0-.08,1c0,.38-.07,1.05-.09,1.47Z"/>
        <path class="cls-1" d="M210,41.87a7.88,7.88,0,0,0-.13-1.68h1.6a6.83,6.83,0,0,0-.13,1.7v.34h5.25a18.18,18.18,0,0,0,2.33-.13v1.45a15.22,15.22,0,0,0-2.31-.11H204.52v3.85c0,6-.88,9.15-3.26,11.84a3.38,3.38,0,0,0-1.13-.93,10.84,10.84,0,0,0,2.9-7.09c-.4.25-1.16.69-2.27,1.3a3.74,3.74,0,0,0-.5.29l-.59-1.32a16.3,16.3,0,0,0,3.46-1.55c.07-1.07.09-1.64.09-2.36a36.91,36.91,0,0,0-.15-5.35,20,20,0,0,0,2.39.11H210Zm-9,2a20.88,20.88,0,0,1,1.55,3.89l-1.11.56A17.37,17.37,0,0,0,200,44.39Zm10.37,3.24h-3.65a20.11,20.11,0,0,0-2.08.08V45.79a13.24,13.24,0,0,0,2.08.11h8.86a13.73,13.73,0,0,0,2.06-.13V47.2a15.12,15.12,0,0,0-2.06-.1h-3.86v3.84h3.44a9.8,9.8,0,0,0,1.83-.11v1.43a11.44,11.44,0,0,0-1.81-.1h-3.46v5h4.2a16.34,16.34,0,0,0,2.2-.13v1.47a16.89,16.89,0,0,0-2.22-.13H205.76a17.72,17.72,0,0,0-2.33.13V57.09a13.24,13.24,0,0,0,2.1.11H207V51.67a16.63,16.63,0,0,0-.12-2.05h1.59a16.4,16.4,0,0,0-.12,2.05V57.2h3.06Z"/>
        <path class="cls-1" d="M227.07,42.52A12.49,12.49,0,0,0,227,40.4h1.55a16.27,16.27,0,0,0-.1,2.12v1.41h2a13.21,13.21,0,0,0,1.93-.13v1.41a13.42,13.42,0,0,0-1.91-.09,20.2,20.2,0,0,1-1.49,6.62,41.51,41.51,0,0,1,3,4.41l-1,1A39.23,39.23,0,0,0,228.31,53a17.06,17.06,0,0,1-4.66,5.6,3.71,3.71,0,0,0-1.05-1,14.61,14.61,0,0,0,4.85-5.74,37.4,37.4,0,0,0-3.8-4.28l1-.84a48.77,48.77,0,0,1,3.38,3.8,19.57,19.57,0,0,0,1-5.46h-4.37a10.42,10.42,0,0,0-1.87.11V43.8a13.21,13.21,0,0,0,1.93.13h2.33Zm6.09,5.63a23.65,23.65,0,0,1,3.11,4.68l-1.16.8a18.29,18.29,0,0,0-3-4.83Zm1.32-1.75a13.5,13.5,0,0,0-2,.13V45.1a11.37,11.37,0,0,0,2,.11h3.27V42.86a11.5,11.5,0,0,0-.15-2.29h1.62a14.73,14.73,0,0,0-.13,2.29v2.35h.53a12.41,12.41,0,0,0,2-.13v1.45a12.1,12.1,0,0,0-2.06-.13h-.51V57.22c0,1.38-.42,1.7-2.31,1.7-.94,0-1.46,0-2.39-.07a4.8,4.8,0,0,0-.44-1.4,21.49,21.49,0,0,0,2.69.23c.94,0,1.11-.09,1.11-.53V46.4Z"/>
        <path class="cls-1" d="M248.43,43.32a13.72,13.72,0,0,1-2.25,2.54,4.13,4.13,0,0,0-1-.88,9.93,9.93,0,0,0,3.42-4.73l1.34.38c-.63,1.15-.63,1.15-.86,1.55h3.34a13.91,13.91,0,0,0,2.1-.12V43.4a18,18,0,0,0-1.93-.08h-1.47a19.23,19.23,0,0,1,1.13,2l-1.19.44a13.82,13.82,0,0,0-1.16-2.41Zm13.42,3.27a11.13,11.13,0,0,0,2.1-.14v1.4a16,16,0,0,0-2.1-.12h-6.68v1.55H260c.16,0,.58,0,1.26,0a5.87,5.87,0,0,0,.73-.06,14.05,14.05,0,0,0-.08,1.8v1.77c0,1-.44,1.38-1.81,1.38a12.23,12.23,0,0,1-1.36-.08,3.69,3.69,0,0,0-.32-1.16,7.13,7.13,0,0,0,1.51.17c.53,0,.72-.13.72-.5V50.41h-5.44v1.26a14.36,14.36,0,0,0,4.51,3.87,19.4,19.4,0,0,0,4.52,1.82,5.41,5.41,0,0,0-.93,1.26,18.5,18.5,0,0,1-8.21-5.46c.05.7.07,1.26.09,1.79v2.14a8.81,8.81,0,0,0,.17,2.27h-1.58a12.63,12.63,0,0,0,.15-2.27V55c0-.52,0-1.07,0-1.74a17.9,17.9,0,0,1-7.52,5.39,4.49,4.49,0,0,0-1-1.17,22.1,22.1,0,0,0,4.18-1.91,14,14,0,0,0,4.26-3.85V50.41h-5v2.38a12.38,12.38,0,0,0,.09,1.93h-1.47a19.18,19.18,0,0,0,.1-2V51c0-.71,0-1.24-.08-1.82a19.16,19.16,0,0,0,2,.08h4.37V47.73h-6.11a14.93,14.93,0,0,0-2.06.12v-1.4a11.8,11.8,0,0,0,2.06.14h6.09a7.19,7.19,0,0,0-.09-1.3h1.47a6.82,6.82,0,0,0-.08,1.3Zm-5.67-3.27a11.19,11.19,0,0,1-1.45,1.89,3.48,3.48,0,0,0-1-.72,8.9,8.9,0,0,0,2.6-4.26l1.3.4c-.35.78-.5,1-.75,1.55h5a16.8,16.8,0,0,0,2.24-.12v1.36a18,18,0,0,0-2.2-.1h-2.48a14.21,14.21,0,0,1,1.16,2.06l-1.16.46a15.6,15.6,0,0,0-1.26-2.52Z"/>
        <path class="cls-1" d="M276.27,52.14c-1.21,2.77-2.45,4-4,4-2,0-3.49-2.19-3.49-5.13a8.53,8.53,0,0,1,9-8.58,8.09,8.09,0,0,1,5.77,2.08,7,7,0,0,1,2,5.12,7.65,7.65,0,0,1-4.81,7.24,16.34,16.34,0,0,1-3.19,1,3.28,3.28,0,0,0-.74-1.41,12.23,12.23,0,0,0,3.51-1,6.33,6.33,0,0,0,3.72-5.87,5.53,5.53,0,0,0-3.34-5.27,6,6,0,0,0-2.44-.53A31.16,31.16,0,0,1,276.27,52.14Zm-2.58-7.33a7.25,7.25,0,0,0-3.42,6.25c0,2,.88,3.57,2,3.57.88,0,1.72-1,2.62-3a28.71,28.71,0,0,0,1.91-7.77A6.69,6.69,0,0,0,273.69,44.81Z"/>
        <path class="cls-1" d="M291.54,44.54a15.18,15.18,0,0,0,2.63.18c.42,0,.65,0,1.26,0a20.43,20.43,0,0,0,.46-3.86l1.66.17a17.45,17.45,0,0,0-.38,2c-.11.67-.17,1-.27,1.6a17.27,17.27,0,0,0,3.78-.72l.1,1.45a4.68,4.68,0,0,0-.59.11,30.12,30.12,0,0,1-3.54.5c-.32,1.66-.91,4-1.47,5.94a57,57,0,0,1-2.42,6.41l-1.53-.65A42.48,42.48,0,0,0,295.18,46c-.42,0-.68,0-1.45,0S292.8,46,292,46h-.08l-.36,0Zm9.39,7.62a7.34,7.34,0,0,0-.63.79,2.54,2.54,0,0,0-.53,1.5c0,1.26,1.28,1.93,3.68,1.93a15.63,15.63,0,0,0,4.64-.72l.14,1.58-.92.14a20.33,20.33,0,0,1-3.74.36c-3.44,0-5.22-1.07-5.22-3.15,0-.94.29-1.59,1.4-3Zm6.49-3.64a22.21,22.21,0,0,0-2.48-.14,18.44,18.44,0,0,0-5.25.71l-.15-1.43a24.06,24.06,0,0,1,5.57-.69c.4,0,.71,0,2.29.06Z"/>
        <path class="cls-1" d="M321.4,50.5h-4.93a13.82,13.82,0,0,0-2,.1V49.3a11.36,11.36,0,0,0,2,.11h4.89V48H317a12.12,12.12,0,0,0-1.73.09,9.12,9.12,0,0,0,.09-1.41v-.93a9.33,9.33,0,0,0-.09-1.42,14.83,14.83,0,0,0,1.75.08h4.36V43.07h-6.09a18.89,18.89,0,0,0-2.35.12V41.81a16.46,16.46,0,0,0,2.4.12h6a8.89,8.89,0,0,0-.12-1.89h1.53a6.69,6.69,0,0,0-.15,1.89h6.43a16.53,16.53,0,0,0,2.41-.12v1.38a19.59,19.59,0,0,0-2.37-.12h-6.47v1.38h4.83a14,14,0,0,0,1.72-.08,10.66,10.66,0,0,0-.08,1.42v.93a10.5,10.5,0,0,0,.08,1.41,11.76,11.76,0,0,0-1.7-.09h-4.85v1.37h4.58a18.53,18.53,0,0,0,2.35-.09,17.4,17.4,0,0,0-.06,1.74V52a10.14,10.14,0,0,0,2.22-.13v1.32a14.88,14.88,0,0,0-2.22-.1V54.4a11.64,11.64,0,0,0,.13,2.1h-1.37v-.86h-5.63v1.74c0,1.45-.42,1.75-2.45,1.75-.44,0-.82,0-2-.09a3.46,3.46,0,0,0-.35-1.32,17.66,17.66,0,0,0,2.6.21c.75,0,.94-.1.94-.57V55.64h-5.06a13.05,13.05,0,0,0-2,.11v-1.3a13,13,0,0,0,2,.1h5.1V53h-6.3a15.83,15.83,0,0,0-2.28.1V51.82a13.88,13.88,0,0,0,2.28.13h6.3Zm-4.76-5V47h4.76V45.48Zm6,1.55h5.21V45.48h-5.21ZM328.29,52V50.5h-5.63V52Zm-5.63,2.6h5.63V53h-5.63Z"/>
        <path class="cls-1" d="M341.71,43.32a15.51,15.51,0,0,0-2.25-2.92l1.26-.5a16.52,16.52,0,0,1,2.44,3.42h3a14.67,14.67,0,0,0,2.38-3.4l1.34.5a23.59,23.59,0,0,1-2.27,2.9h4.31a12.9,12.9,0,0,0,2.1-.13v1.43a15,15,0,0,0-2.1-.13H337.6a15.5,15.5,0,0,0-2.1.13V43.19a10,10,0,0,0,2.1.13Zm-3.46,13.6a14.35,14.35,0,0,0,.12,2.23h-1.53a16.49,16.49,0,0,0,.11-2.27V48.06a18.51,18.51,0,0,0-.07-1.87,18.23,18.23,0,0,0,2,.09h3.3a10.91,10.91,0,0,0,1.91-.09,21.68,21.68,0,0,0-.07,2.23v8.9c0,1.26-.4,1.62-1.76,1.62-.44,0-.95,0-1.74-.09a6.34,6.34,0,0,0-.34-1.3,9.71,9.71,0,0,0,1.83.21c.61,0,.73-.1.73-.54V54.4h-4.53Zm4.53-7.14V47.47h-4.53v2.31Zm0,3.45V51h-4.53v2.27Zm5.46-6.78a11,11,0,0,0-.1,2v4.26a14.11,14.11,0,0,0,.08,2.37h-1.47a18.17,18.17,0,0,0,.08-2.35V48.42a12,12,0,0,0-.1-2Zm4.52-.63a11.35,11.35,0,0,0-.13,2.26v9.09c0,1.47-.44,1.85-2.16,1.85-.72,0-1.41,0-2.46-.12a5.18,5.18,0,0,0-.4-1.41,16.56,16.56,0,0,0,2.71.27c.82,0,1-.08,1-.63V48a11.23,11.23,0,0,0-.13-2.22Z"/>
        <path class="cls-1" d="M374.39,42.2a26.52,26.52,0,0,1-5.69,4c.58.42.84.59,1.63,1.2l-.54.55h3.8a11.7,11.7,0,0,0,2.22-.11l.82.91a7.15,7.15,0,0,0-.56.69,17.06,17.06,0,0,1-3.68,3.67,5.09,5.09,0,0,0-1.09-.86,14.28,14.28,0,0,0,3.36-3h-6.38v8.14c0,1.35-.51,1.7-2.46,1.7-.65,0-1.76,0-2.48-.1a5.45,5.45,0,0,0-.33-1.45,17.43,17.43,0,0,0,2.93.25c.72,0,.93-.14.93-.61V49.22h-6.51a16.54,16.54,0,0,0-2.16.12V47.83a14.88,14.88,0,0,0,2.33.13h8.4a30.47,30.47,0,0,0-5.8-3.57l.86-.93c1.85,1,2.56,1.37,3.57,2a20.34,20.34,0,0,0,4.47-3h-9.72a14.7,14.7,0,0,0-2.16.1V41.15a12,12,0,0,0,2.2.13H372a14.7,14.7,0,0,0,1.55-.06Z"/>
        <path class="cls-1" d="M380.27,49.39a4.93,4.93,0,0,0,.75.06l1.07,0c.78-.93,1-1.2,1.6-2a20.89,20.89,0,0,0-3.19-3.21l.78-1,.9.86a15.74,15.74,0,0,0,2.08-3.88l1.3.59a6.79,6.79,0,0,0-.48.79,32,32,0,0,1-2.08,3.3c.63.63,1,1,1.41,1.53a21.27,21.27,0,0,0,2.41-4l1.24.74c-.19.25-.32.44-.61.86a46.5,46.5,0,0,1-3.88,5.31c1.57-.1,1.95-.12,3.4-.31a17.3,17.3,0,0,0-.84-1.66l1-.38a22.77,22.77,0,0,1,1.85,4l-1.07.48c-.21-.67-.27-.86-.48-1.4a3.51,3.51,0,0,1-.53.06l-1.45.17v6.9a14.38,14.38,0,0,0,.13,2.15H384a16.38,16.38,0,0,0,.12-2.17V50.39c-1.55.15-1.55.15-2.35.21a8.87,8.87,0,0,0-1.28.15Zm2.58,2.6a18.82,18.82,0,0,1-1.38,5.94l-1.16-.55a15.54,15.54,0,0,0,1.39-5.62Zm4.77-.36a33.82,33.82,0,0,1,1.24,5l-1.22.4A27.63,27.63,0,0,0,386.57,52ZM391.17,45A16.37,16.37,0,0,1,389,48.27a3.86,3.86,0,0,0-1.09-.82,13.44,13.44,0,0,0,2.35-3.59,12.93,12.93,0,0,0,1.18-3.46l1.43.36c-.17.39-.17.39-.55,1.44-.17.47-.34.89-.61,1.56H397a10.31,10.31,0,0,0,1.7-.09c-.06.61-.06.61-.1,3.24a51.85,51.85,0,0,1-.91,9.51c-.48,2-1,2.46-3,2.46-.61,0-1.39-.05-2.23-.13a5,5,0,0,0-.35-1.45,16.35,16.35,0,0,0,2.79.27c1,0,1.22-.25,1.51-1.59a59.11,59.11,0,0,0,.91-11Zm2.22,8.42a20.21,20.21,0,0,0-2.88-5.21l1.1-.63a25.6,25.6,0,0,1,3,5.12Z"/>
        <path class="cls-1" d="M411.35,52.14c-1.22,2.77-2.46,4-4,4-2,0-3.49-2.19-3.49-5.13a8.53,8.53,0,0,1,9-8.58,8.09,8.09,0,0,1,5.77,2.08,7,7,0,0,1,2,5.12,7.64,7.64,0,0,1-4.81,7.24,16.34,16.34,0,0,1-3.19,1,3.38,3.38,0,0,0-.73-1.41,12.16,12.16,0,0,0,3.5-1,6.33,6.33,0,0,0,3.72-5.87,5.53,5.53,0,0,0-3.34-5.27,6,6,0,0,0-2.44-.53A31.55,31.55,0,0,1,411.35,52.14Zm-2.59-7.33a7.25,7.25,0,0,0-3.42,6.25c0,2,.88,3.57,2,3.57.88,0,1.72-1,2.62-3a28.71,28.71,0,0,0,1.91-7.77A6.69,6.69,0,0,0,408.76,44.81Z"/>
        <path class="cls-1" d="M431.23,50.29c-1.36,1.13-2,2.1-2,3.08s.61,1.66,1.78,2.06a13.18,13.18,0,0,0,3.85.42,19.75,19.75,0,0,0,6.3-.8l.18,1.73a7,7,0,0,0-.71.1,33.73,33.73,0,0,1-5.67.48,14.82,14.82,0,0,1-4.83-.65,3.34,3.34,0,0,1-2.39-3.17c0-1.36.8-2.69,2.41-4ZM429,42.62a23.75,23.75,0,0,0,5.58.51,23.29,23.29,0,0,0,5.32-.44l.1,1.38a32.7,32.7,0,0,0-5.29,3.19l-1.07-.86a32.66,32.66,0,0,1,3.72-2.22,16.63,16.63,0,0,1-3.17.27,40.56,40.56,0,0,1-4.62-.27l-.7-.06Zm10.48,3.64a16.73,16.73,0,0,1,2.14,3.25l-1,.63a16.61,16.61,0,0,0-2.14-3.34ZM441.79,45A15.84,15.84,0,0,1,444,48.29l-1.05.59a18,18,0,0,0-2.14-3.3Z"/>
        <path class="cls-1" d="M450,42.1a9.24,9.24,0,0,0-.15-1.87h1.62a8.66,8.66,0,0,0-.15,1.85v3.48h.27a7.15,7.15,0,0,0,1.52-.1v1.38a10.6,10.6,0,0,0-1.49-.08h-.3V57a14.79,14.79,0,0,0,.15,2.26h-1.62A13.42,13.42,0,0,0,450,57V46.76h-.55a14.75,14.75,0,0,0-1.74.08V45.46a9.72,9.72,0,0,0,1.74.1H450Zm7.37,8.21a13.46,13.46,0,0,0,1.76-.08c0,.39,0,.62-.06,1.17a41.1,41.1,0,0,1-.42,5c-.32,2-.63,2.29-2.5,2.29-.27,0-.67,0-1,0a4,4,0,0,0-.27-1.33,7.35,7.35,0,0,0,1.58.19c.52,0,.73-.14.83-.54a27.4,27.4,0,0,0,.53-5.55H456a12.44,12.44,0,0,1-3.15,7.6,5.12,5.12,0,0,0-.9-1.09c1.66-1.55,2.46-3.36,2.86-6.51h-1a6.23,6.23,0,0,0-1.24.09V50.2a4.77,4.77,0,0,0,1.3.11h1c0-.46,0-.8,0-1.16a7,7,0,0,0-.06-1h1.39a9.37,9.37,0,0,0-.13,1.36c0,.3,0,.4,0,.8Zm6.32-8.08a12.93,12.93,0,0,0,1.66-.09,6.25,6.25,0,0,0-.09.88,14,14,0,0,1-.6,3.51,1.54,1.54,0,0,1-.91.82,4.9,4.9,0,0,1-1.34.12c-.59,0-1.3,0-2.1-.1a5.17,5.17,0,0,0-.27-1.32,13.15,13.15,0,0,0,2.56.25c.56,0,.8-.15.94-.57a9.61,9.61,0,0,0,.36-2.35h-4.62c-.88,2.2-2.33,3.53-5.1,4.72a4,4,0,0,0-.82-1.13c2.48-.84,3.82-1.89,4.6-3.59h-2.12a12,12,0,0,0-2,.11V42.12a14.35,14.35,0,0,0,2.1.11h2.46a7.57,7.57,0,0,0,.23-1.73,2.06,2.06,0,0,0,0-.35l1.53.08a7.11,7.11,0,0,0-.25,1.11l-.19.89Zm1.05,8.08a13.91,13.91,0,0,0,1.74-.08c0,.37,0,.79-.06,1.25-.17,3.51-.42,5.55-.82,6.41-.27.61-.84.84-2.06.84a9.12,9.12,0,0,1-1.4-.06,4.27,4.27,0,0,0-.28-1.33,9.52,9.52,0,0,0,1.89.21c.55,0,.74-.1.84-.46a24.41,24.41,0,0,0,.57-5.63H462.9a15.59,15.59,0,0,1-1.32,4.94A9.44,9.44,0,0,1,459.75,59a3.65,3.65,0,0,0-.92-1c1.57-1.39,2.48-3.41,2.87-6.58h-.56a6.35,6.35,0,0,0-1.28.09V50.2a5.07,5.07,0,0,0,1.34.11h.61c0-.63.06-.92.06-1.3s0-.57,0-.88h1.36a12.77,12.77,0,0,0-.14,1.7c0,.19,0,.27,0,.48Z"/>
        <path class="cls-1" d="M485.25,44.66a17.84,17.84,0,0,0,2.45-.1c-.06.75-.06.75-.1,2.75a65.63,65.63,0,0,1-.74,8.86c-.38,1.82-1,2.39-2.69,2.39a24.88,24.88,0,0,1-3.73-.34,7,7,0,0,0-.36-1.57,18.7,18.7,0,0,0,4,.52c1.11,0,1.38-.52,1.7-3.06a78.24,78.24,0,0,0,.46-8.17h-6.49a18.46,18.46,0,0,1-2.07,7.41,14.36,14.36,0,0,1-5.84,5.44,3.4,3.4,0,0,0-1.11-1.17,13.21,13.21,0,0,0,3.52-2.27c2.44-2.21,3.61-4.91,4.1-9.41h-4.12a17.44,17.44,0,0,0-2.58.13V44.54a19,19,0,0,0,2.6.12h4.18c.06-.94.08-1.62.08-2.48a12.37,12.37,0,0,0-.12-2H480a12.66,12.66,0,0,0-.11,1.7c0,1,0,1-.1,2.81Z"/>
        <path class="cls-1" d="M499.44,43.59a8.88,8.88,0,0,0,1-2.88l1.68.3a4.37,4.37,0,0,0-.55,1.13,14.64,14.64,0,0,1-.65,1.43l.44,0a29.62,29.62,0,0,0,6.62-.8l.12,1.43a7,7,0,0,0-.84.1,64.76,64.76,0,0,1-6.93.55,15.57,15.57,0,0,1-1.88,3,10,10,0,0,1-.72.8,2.09,2.09,0,0,0-.27.21,0,0,0,0,1,0,0v0l0,.06,1-.73a5.57,5.57,0,0,1,3.17-1,2.56,2.56,0,0,1,2.77,2.33c1.53-.61,2.73-1.05,3.65-1.39a4.61,4.61,0,0,0,1.43-.6l.67,1.47a33.81,33.81,0,0,0-5.61,1.84,11.22,11.22,0,0,1,0,1.28c0,.28,0,.74,0,1.16s0,.75,0,.94a3.83,3.83,0,0,0,0,.76l-1.43,0c.06-.46.12-1.74.12-3a5.74,5.74,0,0,0,0-.63c-2.85,1.34-3.94,2.33-3.94,3.59s1.3,2,4.26,2a17.31,17.31,0,0,0,5.6-.82l.19,1.62c-.31,0-.42,0-.84.1a31.7,31.7,0,0,1-5.1.42c-3.76,0-5.58-1.07-5.58-3.23,0-1.15.71-2.25,2.14-3.32A16.43,16.43,0,0,1,503.12,50c-.17-1.15-.68-1.65-1.66-1.65a7.84,7.84,0,0,0-4.68,2.22,7.09,7.09,0,0,0-1.62,1.74L494,51.13a21,21,0,0,0,4.71-6l.19-.31a2.58,2.58,0,0,1-.4,0l-3.09-.06h-.34l-.46,0,0-1.45a29.08,29.08,0,0,0,4.5.23Z"/>
        <path class="cls-1" d="M526.72,45.29c-.25,0-.34.06-.63.13-1.72.35-2.73.52-3.72.63v3.63a14.8,14.8,0,0,1,4.52-.76,7.05,7.05,0,0,1,3.71.89,4.21,4.21,0,0,1,2.17,3.71,4.25,4.25,0,0,1-4.29,4.35,3.1,3.1,0,0,1-3.23-2.37,7.74,7.74,0,0,1-.25-2.38,4.62,4.62,0,0,0,1.38-.54,6.43,6.43,0,0,0,0,.82c0,2.18.63,3.08,2.16,3.08a2.79,2.79,0,0,0,2.82-3c0-2.06-1.74-3.34-4.49-3.34a14.42,14.42,0,0,0-4.46.82v5.25c0,1.13-.5,1.68-1.53,1.68a5.53,5.53,0,0,1-3.46-1.34,2.55,2.55,0,0,1-1-2,3.82,3.82,0,0,1,1.66-2.79,11.44,11.44,0,0,1,3-1.72v-4l-.84.06c-.38,0-.73,0-1.34,0-.32,0-.88,0-1.12,0h-.86V44.81A12.35,12.35,0,0,0,519,45c.57,0,1.39,0,2-.07V42.81a14.56,14.56,0,0,0-.1-2h1.55a12.4,12.4,0,0,0-.11,2v2a21.12,21.12,0,0,0,4.29-.91ZM521,51.48c-2.08,1-3.25,2.15-3.25,3.15a1.58,1.58,0,0,0,.9,1.26,3.89,3.89,0,0,0,1.87.61c.42,0,.48-.12.48-1Zm11.53-3.94a17.49,17.49,0,0,0-4.24-4.12l1.09-.82a17.91,17.91,0,0,1,4.24,4Z"/>
        <path class="cls-1" d="M543.4,44.58a15.17,15.17,0,0,0,.65-2.31H540.2c0,10.56-.33,13.35-1.91,16.65a4.86,4.86,0,0,0-1-1c1.31-2.65,1.68-5.88,1.68-14.53,0-1.05,0-1.81-.08-2.37a16.84,16.84,0,0,0,2.12.1h4.39a15.29,15.29,0,0,0,2.25-.12v1.38a15.22,15.22,0,0,0-2.15-.1h-.18a17.24,17.24,0,0,1-.7,2.31h1a15.84,15.84,0,0,0,1.7-.07c0,.47-.06.89-.06,1.64v4.31a14,14,0,0,0,.06,1.51c-.42,0-1,0-1.45,0H545v5.85c0,1-.33,1.24-1.76,1.24-.46,0-.76,0-1.18,0a4.09,4.09,0,0,0-.23-1.28,7.82,7.82,0,0,0,1.53.17c.36,0,.45-.07.45-.32V51.93h-1c-.46,0-1,0-1.47,0,0-.46.06-.91.06-1.51V46c0-.54,0-1-.06-1.49a16.58,16.58,0,0,0,1.76.07Zm-3.57,13a11.09,11.09,0,0,0,1.78-4.81l1.14.33a14,14,0,0,1-1.81,5Zm2.75-9.94h3.5v-2h-3.5Zm0,3.17h3.5V48.76h-3.5Zm4.26,2a20.23,20.23,0,0,1,1.07,3.27l-1.09.45a17.23,17.23,0,0,0-1-3.36Zm4.53,3.55a13.84,13.84,0,0,1-3.9,3.06,4.09,4.09,0,0,0-1-1,9.78,9.78,0,0,0,3.89-2.8Zm-1.26-14.15a10.58,10.58,0,0,0-2,.12V41a11.19,11.19,0,0,0,2.06.12h4.6a10.58,10.58,0,0,0,2-.12v1.4a11.41,11.41,0,0,0-2-.12H553a16.41,16.41,0,0,1-.86,2.26h2a14.06,14.06,0,0,0,1.89-.08c0,.63-.06,1.09-.06,1.93v6.93c0,.78,0,1.45.06,2-.54-.05-1.13-.07-1.78-.07h-3.86c-.68,0-1.24,0-1.81.07,0-.59.06-1.22.06-1.91v-7a17.64,17.64,0,0,0-.08-2c.52,0,.9.06,1.83.06h.54a14.31,14.31,0,0,0,.78-2.26Zm-.29,5.39h4.91v-2h-4.91Zm0,3.19h4.91v-2.1h-4.91Zm0,3.26h4.91V51.93h-4.91Zm3.82,1.59a12.25,12.25,0,0,0,3.55,2.75,4.92,4.92,0,0,0-.94,1,14.31,14.31,0,0,1-3.57-3.15Z"/>
        <path class="cls-1" d="M564,42.86a14.53,14.53,0,0,0-.15,2.49,36.45,36.45,0,0,0,.54,6.53c.47,2.15,1.33,3.59,2.13,3.59.37,0,.73-.35,1-1a15.06,15.06,0,0,0,1.1-3.59,6.43,6.43,0,0,0,1.24,1.2c-1,3.68-2,5.08-3.49,5.08-1.18,0-2.27-1.17-3-3.19s-1-4.68-1.14-9.85a12.13,12.13,0,0,0-.06-1.24ZM574.12,44a18.24,18.24,0,0,1,3,4.79,19.71,19.71,0,0,1,1.57,5.6L577.2,55a18.49,18.49,0,0,0-4.36-10.35Z"/>
        <path class="cls-1" d="M588.57,41.34a32.54,32.54,0,0,0-.28,4.43c-.08,2.52-.14,5.38-.14,6.32,0,.26,0,.78,0,1.26a3.28,3.28,0,0,0,1,2.52,4,4,0,0,0,2.63.82A6,6,0,0,0,597.43,53a12.87,12.87,0,0,0,1-3.3,5.62,5.62,0,0,0,1.51,1,12.85,12.85,0,0,1-2.33,4.77,7.36,7.36,0,0,1-5.92,2.62,5,5,0,0,1-4-1.47c-.86-1-1.16-2.1-1.16-4.3,0-1.41,0-1.93.19-8.55,0-.63,0-1,0-1.36a6.87,6.87,0,0,0-.08-1.12Z"/>
        <path class="cls-1" d="M606.44,43.86h.75c.3,0,.55,0,1.2-.06,2.5-.19,9.22-.57,11.93-.69a14.57,14.57,0,0,0,2.5-.23l.12,1.57a10.2,10.2,0,0,0-2.35.27,10.72,10.72,0,0,0-4,2.12A6.42,6.42,0,0,0,614,51.69a4.11,4.11,0,0,0,2.94,3.89,10.62,10.62,0,0,0,3.15.67h.2L620,58l-.65-.12a10.55,10.55,0,0,1-4.53-1.62,5.11,5.11,0,0,1-2.33-4.28c0-2.44,1.42-4.77,3.92-6.45a13.93,13.93,0,0,1,2-1.11,41.58,41.58,0,0,1-4.62.46,61.38,61.38,0,0,0-7.25.69Z"/>
        <path class="cls-1" d="M639.28,45.29c-.25,0-.34.06-.63.13-1.72.35-2.73.52-3.72.63v3.63a14.8,14.8,0,0,1,4.52-.76,7.11,7.11,0,0,1,3.72.89A4.32,4.32,0,0,1,641,57.87a3.1,3.1,0,0,1-3.23-2.37,7.74,7.74,0,0,1-.25-2.38,4.62,4.62,0,0,0,1.38-.54,6.43,6.43,0,0,0,0,.82c0,2.18.63,3.08,2.17,3.08a2.79,2.79,0,0,0,2.81-3c0-2.06-1.74-3.34-4.49-3.34a14.42,14.42,0,0,0-4.46.82v5.25c0,1.13-.5,1.68-1.53,1.68a5.53,5.53,0,0,1-3.46-1.34,2.55,2.55,0,0,1-1-2,3.82,3.82,0,0,1,1.66-2.79,11.44,11.44,0,0,1,3-1.72v-4l-.84.06c-.38,0-.73,0-1.34,0-.32,0-.89,0-1.12,0h-.86V44.81a12.4,12.4,0,0,0,2.15.15c.56,0,1.38,0,2-.07V42.81a14.56,14.56,0,0,0-.1-2H635a12.4,12.4,0,0,0-.11,2v2a21.12,21.12,0,0,0,4.29-.91Zm-5.69,6.19c-2.08,1-3.25,2.15-3.25,3.15a1.58,1.58,0,0,0,.9,1.26,3.89,3.89,0,0,0,1.87.61c.42,0,.48-.12.48-1Zm11.53-3.94a17.49,17.49,0,0,0-4.24-4.12L642,42.6a17.91,17.91,0,0,1,4.24,4Z"/>
        <path class="cls-1" d="M656.63,40.88a11.66,11.66,0,0,0-.49,2.16c-.33,2.13-.63,4.41-.69,5.48l.09,0,.14-.61A9.23,9.23,0,0,1,657,44.81c1.18-1.81,2.56-2.71,4.2-2.71A3.94,3.94,0,0,1,664.52,44a8.62,8.62,0,0,1,1.26,5.1,8.66,8.66,0,0,1-4.85,8.25,15.45,15.45,0,0,1-3.74,1.24,4.2,4.2,0,0,0-.84-1.43,11.09,11.09,0,0,0,4.27-1.32c2.45-1.41,3.61-3.61,3.61-7s-1.18-5.33-3.19-5.33c-1.6,0-2.94,1.19-4.14,3.65a11,11,0,0,0-1.13,4.68c0,.09,0,.19,0,.51l-1.51.06v-.23l0-.38,0-2.18v-.49a52.48,52.48,0,0,1,.72-7.74,4.48,4.48,0,0,0,.06-.68Z"/>
        <path class="cls-1" d="M689.45,57.51a16.88,16.88,0,0,0-4.28-3c-.36-.19-.84-.4-1.41-.63a6.25,6.25,0,0,1,0,.75,3.69,3.69,0,0,1-.52,2.29,4.24,4.24,0,0,1-3.55,1.33,5.54,5.54,0,0,1-3.26-.84,2.77,2.77,0,0,1-1.13-2.21c0-1.38,1.09-2.48,2.94-2.9a9.51,9.51,0,0,1,2.18-.21,9.09,9.09,0,0,1,1.89.17c0-.06,0-.06,0-.25a1.84,1.84,0,0,1,0-.23c0-.19,0-.63,0-1.24,0-.27,0-.67,0-1.22-.76,0-1.81,0-2.48,0-1.26,0-2.25,0-3.55-.14-.23,0-.4,0-.53,0h-.16l0-1.39a25.67,25.67,0,0,0,4.81.34c.54,0,1.28,0,1.87,0l-.05-2.88c-.61,0-.94,0-1.42,0-1.54,0-3.24-.06-5.13-.21a2.62,2.62,0,0,0-.38,0,1.8,1.8,0,0,0-.29,0l0-1.43a26.25,26.25,0,0,0,5.38.42l1.82,0a17.18,17.18,0,0,0-.1-3h1.61a24.59,24.59,0,0,0-.14,3,29.51,29.51,0,0,0,6.21-.86l.11,1.43c-.36,0-.36,0-1.45.16a43,43,0,0,1-4.87.51c0,1.72,0,1.72,0,2.83a25.45,25.45,0,0,0,5.82-.86l.08,1.45c-.27,0-.48,0-1.22.15-1.45.23-3.11.4-4.66.5,0,1.18,0,1.18.13,3.21a18.57,18.57,0,0,1,5.86,3.07,7.45,7.45,0,0,0,.71.48Zm-7.1-4a7.68,7.68,0,0,0-2.14-.23c-2.08,0-3.44.76-3.44,1.87s1.05,1.74,2.87,1.74a3,3,0,0,0,2.31-.69c.3-.29.42-.88.42-1.89Z"/>
        <path class="cls-1" d="M706,42.08a6.39,6.39,0,0,0-.09-1.22h1.58a16.39,16.39,0,0,0-.11,2.63v.23c4,0,5.59-.07,6.28-.15v1.49a39.18,39.18,0,0,0-4-.1l-2.25,0v4.15a6,6,0,0,1,.51,2.48,6.74,6.74,0,0,1-2.82,5.48,13.39,13.39,0,0,1-3.31,1.7,4.68,4.68,0,0,0-.93-1.32,11,11,0,0,0,3.4-1.57,5.45,5.45,0,0,0,2.36-4.44,2.9,2.9,0,0,1-.57,1A3.51,3.51,0,0,1,700,50.33a3.5,3.5,0,0,1,3.72-3.46,3.21,3.21,0,0,1,2.43.94c0-.29,0-.38,0-1.15,0-.09,0-.3,0-.55V45c-4.22.08-8.46.29-9.87.52L696.13,44c.38,0,.52,0,.84,0,.61,0,.61,0,4-.12,2-.09,3.65-.13,5.08-.17Zm-.91,6.32a2.67,2.67,0,0,0-1.4-.34,2.23,2.23,0,0,0-2.33,2.21,2,2,0,0,0,2.16,2.08A2.36,2.36,0,0,0,706,49.87,1.52,1.52,0,0,0,705.09,48.4Z"/>
        <path class="cls-1" d="M724.39,55.94a3.15,3.15,0,1,1-3.14-3.15A3.14,3.14,0,0,1,724.39,55.94Zm-5.1,0a2,2,0,1,0,2-2A2,2,0,0,0,719.29,55.94Z"/>
        <path class="cls-1" d="M164.4,130.5h-4.94a13.91,13.91,0,0,0-2,.1v-1.3a11.49,11.49,0,0,0,2,.11h4.89V128H160a12,12,0,0,0-1.72.09,10.6,10.6,0,0,0,.08-1.41v-.93a10.86,10.86,0,0,0-.08-1.42,14.65,14.65,0,0,0,1.74.08h4.37v-1.38h-6.09a18.78,18.78,0,0,0-2.35.12v-1.38a16.2,16.2,0,0,0,2.39.12h6.05a8.12,8.12,0,0,0-.13-1.89h1.53a7.21,7.21,0,0,0-.14,1.89h6.42a16.78,16.78,0,0,0,2.42-.12v1.38a19.89,19.89,0,0,0-2.38-.12h-6.46v1.38h4.83a14.18,14.18,0,0,0,1.72-.08,10.6,10.6,0,0,0-.09,1.42v.93a10.45,10.45,0,0,0,.09,1.41,11.84,11.84,0,0,0-1.7-.09h-4.85v1.37h4.57a18.82,18.82,0,0,0,2.36-.09,14.21,14.21,0,0,0-.07,1.74V132a10.25,10.25,0,0,0,2.23-.13v1.32a15,15,0,0,0-2.23-.1v1.36a11.64,11.64,0,0,0,.13,2.1h-1.37v-.86h-5.62v1.74c0,1.45-.42,1.75-2.46,1.75-.44,0-.82,0-2-.09a3.68,3.68,0,0,0-.36-1.32,17.66,17.66,0,0,0,2.6.21c.76,0,1-.1,1-.57v-1.72h-5.06a13.11,13.11,0,0,0-2.06.11v-1.3a13.24,13.24,0,0,0,2,.1h5.1V133h-6.3a16,16,0,0,0-2.29.1v-1.32a13.94,13.94,0,0,0,2.29.13h6.3Zm-4.77-5V127h4.77v-1.55Zm6,1.55h5.2v-1.55h-5.2Zm5.62,4.92V130.5h-5.62V132Zm-5.62,2.6h5.62V133h-5.62Z"/>
        <path class="cls-1" d="M184.71,123.32a16.4,16.4,0,0,0-2.25-2.92l1.26-.5a16,16,0,0,1,2.43,3.42h3a14.64,14.64,0,0,0,2.37-3.4l1.34.5a22.66,22.66,0,0,1-2.27,2.9h4.31a12.9,12.9,0,0,0,2.1-.13v1.43a15,15,0,0,0-2.1-.13H180.59a15.61,15.61,0,0,0-2.1.13v-1.43a10,10,0,0,0,2.1.13Zm-3.47,13.6a12.9,12.9,0,0,0,.13,2.23h-1.54a15,15,0,0,0,.11-2.27v-8.82c0-1,0-1.38-.06-1.87a17.94,17.94,0,0,0,2,.09h3.3a10.91,10.91,0,0,0,1.91-.09c0,.49-.06,1-.06,2.23v8.9c0,1.26-.4,1.62-1.77,1.62-.44,0-.94,0-1.74-.09a5.76,5.76,0,0,0-.34-1.3,9.71,9.71,0,0,0,1.83.21c.61,0,.74-.1.74-.54V134.4h-4.54Zm4.54-7.14v-2.31h-4.54v2.31Zm0,3.45V131h-4.54v2.27Zm5.45-6.78a11,11,0,0,0-.1,2v4.26a14.11,14.11,0,0,0,.08,2.37h-1.47a15.79,15.79,0,0,0,.09-2.35v-4.28a10.72,10.72,0,0,0-.11-2Zm4.52-.63a11.35,11.35,0,0,0-.13,2.26v9.09c0,1.47-.44,1.85-2.16,1.85-.71,0-1.41,0-2.46-.12a4.85,4.85,0,0,0-.4-1.41,16.66,16.66,0,0,0,2.71.27c.82,0,1-.08,1-.63V128a10.49,10.49,0,0,0-.13-2.22Z"/>
        <path class="cls-1" d="M217.38,122.2a26,26,0,0,1-5.69,4c.59.42.84.59,1.64,1.2l-.55.55h3.8a11.83,11.83,0,0,0,2.23-.11l.82.91a5.64,5.64,0,0,0-.57.69,17.06,17.06,0,0,1-3.68,3.67,4.85,4.85,0,0,0-1.09-.86,14.09,14.09,0,0,0,3.36-3h-6.38v8.14c0,1.35-.5,1.7-2.46,1.7-.65,0-1.76,0-2.48-.1a5.09,5.09,0,0,0-.33-1.45,17.62,17.62,0,0,0,2.94.25c.71,0,.92-.14.92-.61v-7.93h-6.51a16.54,16.54,0,0,0-2.16.12v-1.51a14.88,14.88,0,0,0,2.33.13h8.4a30.47,30.47,0,0,0-5.8-3.57l.87-.93c1.84,1,2.56,1.37,3.57,2a20.58,20.58,0,0,0,4.47-3h-9.72a14.77,14.77,0,0,0-2.17.1v-1.43a12.06,12.06,0,0,0,2.21.13H215a14.92,14.92,0,0,0,1.56-.06Z"/>
        <path class="cls-1" d="M223.26,129.39a5.06,5.06,0,0,0,.76.06l1.07,0c.78-.93,1-1.2,1.59-2a20.45,20.45,0,0,0-3.19-3.21l.78-1c.46.44.57.53.9.86a15.39,15.39,0,0,0,2.08-3.88l1.3.59a8.57,8.57,0,0,0-.48.79,32,32,0,0,1-2.08,3.3c.63.63,1,1,1.41,1.53a20.69,20.69,0,0,0,2.41-4l1.24.74c-.19.25-.31.44-.61.86a46.5,46.5,0,0,1-3.88,5.31c1.57-.1,1.95-.12,3.4-.31a15.26,15.26,0,0,0-.84-1.66l1-.38a22.77,22.77,0,0,1,1.84,4l-1.07.48c-.21-.67-.27-.86-.48-1.4a3.51,3.51,0,0,1-.53.06l-1.44.17v6.9a16.06,16.06,0,0,0,.12,2.15H227a16.18,16.18,0,0,0,.13-2.17v-6.76c-1.56.15-1.56.15-2.36.21a8.87,8.87,0,0,0-1.28.15Zm2.58,2.6a18.28,18.28,0,0,1-1.38,5.94l-1.16-.55a15.34,15.34,0,0,0,1.39-5.62Zm4.77-.36a33.82,33.82,0,0,1,1.24,5l-1.22.4a27.63,27.63,0,0,0-1.07-5.06Zm3.55-6.63a16.34,16.34,0,0,1-2.14,3.27,4,4,0,0,0-1.09-.82,13.69,13.69,0,0,0,2.35-3.59,12.85,12.85,0,0,0,1.17-3.46l1.43.36c-.17.39-.17.39-.55,1.44-.16.47-.33.89-.6,1.56H240a10.46,10.46,0,0,0,1.7-.09,27.84,27.84,0,0,0-.11,3.24,52.85,52.85,0,0,1-.9,9.51c-.48,2-1,2.46-3,2.46-.6,0-1.38,0-2.22-.13a5,5,0,0,0-.36-1.45,16.44,16.44,0,0,0,2.79.27c1,0,1.22-.25,1.52-1.59a59.26,59.26,0,0,0,.9-11Zm2.22,8.42a20.19,20.19,0,0,0-2.87-5.21l1.09-.63a25.6,25.6,0,0,1,3,5.12Z"/>
        <path class="cls-1" d="M250.39,121.51a30,30,0,0,0-1.61,9.85c0,.73,0,2,.08,2.94,0,.17,0,.21,0,.59v.4l.09,0a18.21,18.21,0,0,1,1.23-3.7,2.17,2.17,0,0,0,.17-.42l1,.48a18.06,18.06,0,0,0-1.8,6,2.48,2.48,0,0,0,0,.42l-1.49.14c0-.19-.05-.29-.13-.77a33.36,33.36,0,0,1-.59-6.24,36,36,0,0,1,1.09-8.63,12.56,12.56,0,0,0,.24-1.32Zm2.12,3.91a14.72,14.72,0,0,0,3.78.33c.82,0,1.39,0,2.25-.06,0-2,0-2,0-3.57a4.85,4.85,0,0,0-.06-.86H260a22,22,0,0,0-.15,3.3c0,.23,0,.56,0,1a14.29,14.29,0,0,0,3.64-.77l.06,1.43-1.47.29a19.81,19.81,0,0,1-2.23.34c0,2.07.07,3.15.24,5.94a15,15,0,0,1,3.5,2.06c.25.16.3.21.53.35l-.65,1.47a11.69,11.69,0,0,0-3-2.18l-.21-.13-.18-.12a3.07,3.07,0,0,1,0,.54,3.77,3.77,0,0,1-.25,1.43c-.51,1.11-1.79,1.76-3.51,1.76-2.44,0-4-1.15-4-3s1.66-3,4-3a6,6,0,0,1,2.33.42c-.06-.44-.15-2.41-.21-5.48-.94,0-1.6.06-2.39.06s-1.64,0-2.38-.06a5.62,5.62,0,0,0-.67,0l-.35,0-.21,0h-.09Zm4,7.87c-1.63,0-2.7.69-2.7,1.74s1,1.7,2.43,1.7a2.89,2.89,0,0,0,2.14-.73,2.43,2.43,0,0,0,.4-1.64c0-.15,0-.63,0-.63A5.53,5.53,0,0,0,256.54,133.29Z"/>
        <path class="cls-1" d="M273.85,137.59a15.4,15.4,0,0,0-2.31.11,9.42,9.42,0,0,1,.61-2.77,9.19,9.19,0,0,1,2.73-3.61,28.57,28.57,0,0,1,3.21-2.31c2.08-1.41,2.77-2.33,2.77-3.61,0-1.6-1.34-2.63-3.48-2.63a3.46,3.46,0,0,0-3.05,1.37,4.24,4.24,0,0,0-.73,2.12l-1.77-.3a5.7,5.7,0,0,1,1.33-3,5.36,5.36,0,0,1,4.22-1.62c3.17,0,5.2,1.6,5.2,4.08a4.38,4.38,0,0,1-1.23,3,17,17,0,0,1-3.57,2.71,11.57,11.57,0,0,0-3,2.58,5.88,5.88,0,0,0-1.19,2.43h6.69a19.39,19.39,0,0,0,2.57-.14v1.76a24.72,24.72,0,0,0-2.59-.13Z"/>
        <path class="cls-1" d="M294.47,132.37a14.56,14.56,0,0,1-.86,3.25,11,11,0,0,1-2.31,3.65,5,5,0,0,0-1.15-1.11,8.76,8.76,0,0,0,2.47-4.11c.59-2,.82-4.58.82-9.24,0-1.93,0-2.77-.08-3.57a18.71,18.71,0,0,0,2.2.1h7.9a17.66,17.66,0,0,0,2.18-.1,19.27,19.27,0,0,0-.08,2.16v13.82a1.61,1.61,0,0,1-.59,1.47,3,3,0,0,1-1.68.27c-.69,0-1.57,0-2.52-.08a6,6,0,0,0-.33-1.43,21.94,21.94,0,0,0,3,.21c.61,0,.77-.13.77-.65v-4.64Zm9.74-1.26v-3.74h-9.36c0,1.15-.06,1.95-.23,3.74Zm0-5v-3.49h-9.34l0,3v.5Z"/>
        <path class="cls-1" d="M320.78,122.39a12.63,12.63,0,0,0-.14-2.18h1.68a12,12,0,0,0-.15,2.14v1.85h6.15a11.86,11.86,0,0,0,1.6-.08,9.25,9.25,0,0,0-.11,1.65v5.74a12.34,12.34,0,0,0,.13,1.86h-1.51V132h-6.26v4.89a11.45,11.45,0,0,0,.15,2.39h-1.68a15.13,15.13,0,0,0,.14-2.39V132h-5.92v1.42h-1.51a12.25,12.25,0,0,0,.13-1.86v-5.74a11.8,11.8,0,0,0-.11-1.65,12.21,12.21,0,0,0,1.58.08h5.83Zm-5.92,3.07v5.23h5.92v-5.23Zm13.57,5.23v-5.23h-6.26v5.23Z"/>
        <path class="cls-1" d="M339.12,124.28a21,21,0,0,1-3.76,4.85,4,4,0,0,0-1-1.07,17.27,17.27,0,0,0,4.62-6.49,5.64,5.64,0,0,0,.42-1.49l1.55.4a8.54,8.54,0,0,0-.4.84c-.23.61-.48,1.18-.75,1.75H350.5a15.1,15.1,0,0,0,2.24-.13,11.75,11.75,0,0,0-.08,1.45,76.3,76.3,0,0,1-.86,11.84c-.46,2.48-.95,2.94-3,2.94a29,29,0,0,1-3.22-.25,5.5,5.5,0,0,0-.23-1.45,18.57,18.57,0,0,0,3.57.42c1.14,0,1.37-.36,1.7-2.77a89.34,89.34,0,0,0,.67-10.84Zm8,9.43c0,.63,0,1.2.08,1.89-.71,0-1.32-.06-2.06-.06h-5.37v1.61h-1.41a19.78,19.78,0,0,0,.11-2.18v-6.3a20.49,20.49,0,0,0-.09-2.2,15.91,15.91,0,0,0,2,.1h4.79a15.52,15.52,0,0,0,2-.1c-.06.63-.1,1.49-.1,2.26Zm-7.37-3.3h6.07v-2.7h-6.07Zm0,4h6.07v-2.89h-6.07Z"/>
        <path class="cls-1" d="M367.26,120.8a14.39,14.39,0,0,0-.13,2.77c0,.46,0,.69,0,2.18a21.09,21.09,0,0,0,6.16-.79l.18,1.55a11.07,11.07,0,0,0-1.26.15,36.44,36.44,0,0,1-5.06.46c.07,2,.17,4.07.28,5.41a18.18,18.18,0,0,1,5.6,3,10.85,10.85,0,0,0,1,.65l-1,1.47a9.31,9.31,0,0,0-2.18-1.83,21.76,21.76,0,0,0-2.84-1.62,3,3,0,0,1-.5-.23,6.29,6.29,0,0,1,.08.91,3.83,3.83,0,0,1-.52,2.12,4.45,4.45,0,0,1-3.74,1.44c-2.71,0-4.37-1.17-4.37-3.1s2-3.32,4.94-3.32a8.8,8.8,0,0,1,1.83.19c.1,0,.1,0,.18,0s.05,0,.11,0a.65.65,0,0,0,0-.19V132c-.17-2.42-.32-6.47-.34-9.47a10.07,10.07,0,0,0-.1-1.7Zm-3.36,12.53c-2.14,0-3.45.76-3.45,2a1.43,1.43,0,0,0,.32.9,3.41,3.41,0,0,0,2.52.84,3.54,3.54,0,0,0,2.33-.69,2,2,0,0,0,.5-1.58c0-.31,0-1.15-.06-1.15A7.17,7.17,0,0,0,363.9,133.33Z"/>
        <path class="cls-1" d="M385.91,120.88a11.66,11.66,0,0,0-.49,2.16c-.33,2.13-.63,4.41-.69,5.48l.08,0c.05-.17.05-.17.15-.61a9.23,9.23,0,0,1,1.28-3.13c1.18-1.81,2.56-2.71,4.2-2.71A3.94,3.94,0,0,1,393.8,124a9.89,9.89,0,0,1-3.59,13.35,15.45,15.45,0,0,1-3.74,1.24,4.37,4.37,0,0,0-.84-1.43,11.09,11.09,0,0,0,4.27-1.32c2.45-1.41,3.61-3.61,3.61-7s-1.18-5.33-3.19-5.33c-1.6,0-2.94,1.19-4.14,3.65a10.87,10.87,0,0,0-1.13,4.68c0,.09,0,.19,0,.51l-1.52.06v-.23l0-.38,0-2.18v-.49a52.48,52.48,0,0,1,.72-7.74,4.48,4.48,0,0,0,.06-.68Z"/>
        <path class="cls-1" d="M404.51,136.86a14.42,14.42,0,0,0,.13,2.35h-1.56a14.83,14.83,0,0,0,.13-2.35V123.07c0-1,0-1.64-.08-2.31a20.22,20.22,0,0,0,2.2.08h3.19a19.15,19.15,0,0,0,2.12-.08c0,.58-.06,1.21-.06,2v2.58c0,.84,0,1.43.06,2-.5-.05-1.22-.07-2.12-.07h-4Zm0-13.37h4.87v-1.62h-4.87Zm0,2.7h4.87v-1.7h-4.87Zm3.91,3.76a15,15,0,0,0-2,.09V128.8a13.27,13.27,0,0,0,2,.1h6.65a13.57,13.57,0,0,0,2-.1V130a14.79,14.79,0,0,0-2-.09h-.75v2.61h1.05a12.51,12.51,0,0,0,2-.11v1.26a13.26,13.26,0,0,0-2-.1h-1.05v3.23a7.58,7.58,0,0,0,.12,1.8H413a7.46,7.46,0,0,0,.13-1.8v-3.23H410a7.06,7.06,0,0,1-2.77,5.2,3.84,3.84,0,0,0-1.05-.86A5.85,5.85,0,0,0,408,136.1a6,6,0,0,0,.79-2.49H408a13.48,13.48,0,0,0-2,.1v-1.26a12.82,12.82,0,0,0,2,.11h.84c.06-1,.06-1,.08-2.61Zm1.74,0v.49c0,.65,0,1.4-.08,2.12h3.06V130Zm10.08,7.18c0,.91-.21,1.35-.76,1.58a4.45,4.45,0,0,1-1.49.14l-1.78-.06a4.34,4.34,0,0,0-.4-1.34,18.68,18.68,0,0,0,2.33.21c.67,0,.82-.11.82-.59v-9.85h-4.31c-.88,0-1.55,0-2.14.07,0-.61.06-1.12.06-2v-2.58c0-.78,0-1.3-.06-2a19.73,19.73,0,0,0,2.16.08h3.47a20.57,20.57,0,0,0,2.2-.08,20.27,20.27,0,0,0-.1,2.31Zm-6.45-13.64H419v-1.62h-5.17Zm0,2.7H419v-1.7h-5.17Z"/>
        <path class="cls-1" d="M430.24,124.54a14.21,14.21,0,0,0,1.93-.09c-.23,2.39-.23,2.39-.38,3.32a19.66,19.66,0,0,1-1.6,5.63,27.7,27.7,0,0,1,2.23,2.16l-.84,1.15a21.65,21.65,0,0,0-2-2.14,13.57,13.57,0,0,1-3.89,4.26,3.82,3.82,0,0,0-1-1,13.09,13.09,0,0,0,3.87-4.09,22.64,22.64,0,0,0-3.13-2.16,30.55,30.55,0,0,0,1.91-5.84h-.69a9.63,9.63,0,0,0-1.68.13v-1.43a10.86,10.86,0,0,0,1.72.13h.9a22.6,22.6,0,0,0,.57-4,1.29,1.29,0,0,0,0-.25l1.51.15a10,10,0,0,0-.23,1.22c-.13.71-.29,1.66-.55,2.9Zm-1.6,1.17A36.67,36.67,0,0,1,427,131c1.14.78,1.51,1,2.19,1.54a19.22,19.22,0,0,0,1.59-6.87Zm3.44,2a7.66,7.66,0,0,0,.89,0l.73,0a30,30,0,0,0,2.56-7.52l1.6.4a17.34,17.34,0,0,0-.8,2.27c-.44,1.26-.86,2.28-2,4.76,3-.25,3.48-.29,6.13-.63a27.39,27.39,0,0,0-2.31-3.32l1.15-.58a35.78,35.78,0,0,1,3.78,6.06l-1.19.72c-.4-.88-.51-1.09-.87-1.81-3.4.46-4.28.57-8.06.91a5.34,5.34,0,0,0-1.32.21Zm2.67,11.62h-1.38a14.49,14.49,0,0,0,.08-1.87v-5a16.26,16.26,0,0,0-.08-2,16,16,0,0,0,1.86.08h5.17a14.76,14.76,0,0,0,2-.08,10.63,10.63,0,0,0-.1,1.36v5.27a10.61,10.61,0,0,0,.13,2.19H441v-1.22h-6.22Zm0-2.42H441v-5.12h-6.22Z"/>
        <path class="cls-1" d="M450.84,122.86a14.53,14.53,0,0,0-.15,2.49,35.42,35.42,0,0,0,.55,6.53c.46,2.15,1.32,3.59,2.12,3.59q.57,0,1.05-1.05a15.07,15.07,0,0,0,1.09-3.59,6.43,6.43,0,0,0,1.24,1.2c-1,3.68-2,5.08-3.49,5.08-1.17,0-2.26-1.17-3-3.19s-1-4.68-1.13-9.85a9.11,9.11,0,0,0-.07-1.24ZM461,124a18.24,18.24,0,0,1,3,4.79,20,20,0,0,1,1.58,5.6l-1.49.61a18.5,18.5,0,0,0-4.37-10.35Z"/>
        <path class="cls-1" d="M471.06,124.54a15.18,15.18,0,0,0,2.63.18c.42,0,.65,0,1.26,0a20.43,20.43,0,0,0,.46-3.86l1.66.17a17.45,17.45,0,0,0-.38,2c-.11.67-.17,1-.27,1.6a17,17,0,0,0,3.77-.72l.11,1.45a4.68,4.68,0,0,0-.59.11,30,30,0,0,1-3.55.5c-.31,1.66-.9,4-1.47,5.94a55,55,0,0,1-2.41,6.41l-1.53-.65A42.16,42.16,0,0,0,474.69,126c-.42,0-.67,0-1.44,0s-.93,0-1.75,0h-.08l-.36,0Zm9.39,7.62a6.19,6.19,0,0,0-.63.79,2.54,2.54,0,0,0-.53,1.5c0,1.26,1.28,1.93,3.68,1.93a15.63,15.63,0,0,0,4.64-.72l.14,1.58-.92.14a20.41,20.41,0,0,1-3.74.36c-3.44,0-5.23-1.07-5.23-3.15,0-.94.3-1.59,1.41-3Zm6.48-3.64a21.91,21.91,0,0,0-2.47-.14,18.44,18.44,0,0,0-5.25.71l-.15-1.43a24,24,0,0,1,5.56-.69c.4,0,.72,0,2.29.06Z"/>
        <path class="cls-1" d="M497.94,121.34a31.54,31.54,0,0,0-.27,4.43c-.09,2.52-.15,5.38-.15,6.32,0,.26,0,.78,0,1.26a3.32,3.32,0,0,0,1,2.52,3.93,3.93,0,0,0,2.62.82A6,6,0,0,0,506.8,133a12.48,12.48,0,0,0,1-3.3,6,6,0,0,0,1.51,1,12.85,12.85,0,0,1-2.33,4.77,7.35,7.35,0,0,1-5.92,2.62,5,5,0,0,1-3.95-1.47c-.86-1-1.15-2.1-1.15-4.3,0-1.41,0-1.93.19-8.55,0-.63,0-1,0-1.36a5.91,5.91,0,0,0-.09-1.12Z"/>
        <path class="cls-1" d="M531.29,137.51a16.77,16.77,0,0,0-4.29-3c-.35-.19-.84-.4-1.4-.63a6.25,6.25,0,0,1,0,.75,3.61,3.61,0,0,1-.53,2.29,4.23,4.23,0,0,1-3.54,1.33,5.51,5.51,0,0,1-3.26-.84,2.77,2.77,0,0,1-1.13-2.21c0-1.38,1.09-2.48,2.94-2.9a9.51,9.51,0,0,1,2.18-.21,9.15,9.15,0,0,1,1.89.17c0-.06,0-.06,0-.25a1.84,1.84,0,0,1,0-.23c0-.19,0-.63,0-1.24,0-.27,0-.67-.05-1.22-.75,0-1.8,0-2.47,0-1.26,0-2.25,0-3.55-.14-.23,0-.4,0-.53,0h-.17l0-1.39a25.55,25.55,0,0,0,4.8.34c.55,0,1.29,0,1.87,0l0-2.88c-.61,0-.94,0-1.43,0-1.53,0-3.23-.06-5.12-.21a2.69,2.69,0,0,0-.38,0,1.74,1.74,0,0,0-.29,0l0-1.43a26.21,26.21,0,0,0,5.37.42l1.83,0a17.18,17.18,0,0,0-.1-3h1.61a24.59,24.59,0,0,0-.14,3,29.51,29.51,0,0,0,6.21-.86l.11,1.43c-.36,0-.36,0-1.45.16a43,43,0,0,1-4.87.51c0,1.72,0,1.72,0,2.83a25.24,25.24,0,0,0,5.81-.86l.09,1.45c-.28,0-.48,0-1.22.15-1.45.23-3.11.4-4.66.5,0,1.18,0,1.18.12,3.21a18.36,18.36,0,0,1,5.86,3.07,7.46,7.46,0,0,0,.72.48Zm-7.1-4a7.68,7.68,0,0,0-2.14-.23c-2.08,0-3.45.76-3.45,1.87s1.06,1.74,2.88,1.74a3,3,0,0,0,2.31-.69,2.76,2.76,0,0,0,.42-1.89Z"/>
        <path class="cls-1" d="M547.83,122.08a7.41,7.41,0,0,0-.08-1.22h1.58a16.39,16.39,0,0,0-.11,2.63v.23c4,0,5.59-.07,6.28-.15v1.49a39.18,39.18,0,0,0-4-.1l-2.25,0v4.15a6,6,0,0,1,.51,2.48,6.74,6.74,0,0,1-2.82,5.48,13.39,13.39,0,0,1-3.31,1.7,4.68,4.68,0,0,0-.93-1.32,11.08,11.08,0,0,0,3.4-1.57,5.42,5.42,0,0,0,2.35-4.44,2.9,2.9,0,0,1-.56,1,3.51,3.51,0,0,1-6.09-2.18,3.49,3.49,0,0,1,3.71-3.46,3.23,3.23,0,0,1,2.44.94c0-.29,0-.38,0-1.15,0-.09,0-.3,0-.55V125c-4.22.08-8.46.29-9.87.52L538,124c.37,0,.52,0,.84,0,.61,0,.61,0,4-.12,2-.09,3.65-.13,5.08-.17Zm-.9,6.32a2.69,2.69,0,0,0-1.4-.34,2.22,2.22,0,0,0-2.33,2.21,2,2,0,0,0,2.16,2.08,2.35,2.35,0,0,0,2.45-2.48A1.51,1.51,0,0,0,546.93,128.4Z"/>
        <path class="cls-1" d="M566.23,135.94a3.15,3.15,0,1,1-3.15-3.15A3.14,3.14,0,0,1,566.23,135.94Zm-5.1,0a2,2,0,1,0,2-2A2,2,0,0,0,561.13,135.94Z"/>
        <path class="cls-1" d="M146.54,202.18a8.68,8.68,0,0,0-.13-1.93H148a10.18,10.18,0,0,0-.13,1.93v.59h3.47a9.34,9.34,0,0,0,1.74-.12v1.42a9.51,9.51,0,0,0-1.74-.12h-3.47v3.42c2-.34,2.67-.48,5.31-1.09v1.13c-2.87.69-5.23,1.18-7.39,1.56a10.31,10.31,0,0,0-1.61.33l-.24-1.45a17.4,17.4,0,0,0,2.61-.27Zm11.08,8a17.55,17.55,0,0,0,2.27-.1,21.13,21.13,0,0,0-.08,2.31v4.78a14,14,0,0,0,.12,2.1h-1.42v-1H148.32v1h-1.4a14.38,14.38,0,0,0,.12-2.1v-4.78A22.84,22.84,0,0,0,147,210a17,17,0,0,0,2.24.1h2.52a8.71,8.71,0,0,0,.86-1.93l1.43.36a12.57,12.57,0,0,1-.86,1.57Zm-9.3,3.38h10.19v-2.27H148.32Zm0,3.59h10.19v-2.5H148.32Zm7.12-10.54c0,.63.21.7,2.5.7,1.85,0,2.46-.09,2.71-.36a6.27,6.27,0,0,0,.52-2.84,3.13,3.13,0,0,0,1.24.55c-.21,2.31-.46,3.11-1.07,3.48s-1.28.36-3.78.36c-2.88,0-3.44-.25-3.44-1.47V202.1a10.92,10.92,0,0,0-.13-1.85h1.58a7.84,7.84,0,0,0-.13,1.83v1.28a21.84,21.84,0,0,0,2.48-.82,14.12,14.12,0,0,0,3.29-1.59l.91,1.13c-1,.42-1,.42-2.17.92a32.76,32.76,0,0,1-4.51,1.51Z"/>
        <path class="cls-1" d="M169.39,202.39a11.79,11.79,0,0,0-.11-2.18h1.47a14.45,14.45,0,0,0-.1,2.16v2.06h.81a8.07,8.07,0,0,0,1.33-.08v1.28a12.89,12.89,0,0,0-1.33-.07h-.75a11.61,11.61,0,0,0,1.95,3.43,9.19,9.19,0,0,0-.73,1.13,14.34,14.34,0,0,1-1.37-2.94c.06,1.76.09,2.69.09,3.42V217a17.83,17.83,0,0,0,.12,2.43h-1.51a18.32,18.32,0,0,0,.13-2.43V211c0-.84,0-.84.06-1.84,0-.13,0-.51.06-1,0-.17,0-.42,0-.78a17.42,17.42,0,0,1-1.34,4,18.24,18.24,0,0,1-1.39,2.38,5.13,5.13,0,0,0-.79-1.31,12.5,12.5,0,0,0,2-3.31,20.5,20.5,0,0,0,1.18-3.62h-1.1a9.31,9.31,0,0,0-1.47.09v-1.3a9,9,0,0,0,1.47.08h1.31Zm5.48,1.92a11.18,11.18,0,0,0-1.83.1v-1.32a11.45,11.45,0,0,0,1.85.1H176a10.47,10.47,0,0,0-1.36-2.31l1.11-.48a13.69,13.69,0,0,1,1.51,2.79h2.44a12.93,12.93,0,0,0,1.42-2.83l1.24.44c-.33.67-1,1.89-1.34,2.39h1.85a13.16,13.16,0,0,0,1.91-.12v1.36a13,13,0,0,0-1.91-.12H179v1.8h3.17a10.78,10.78,0,0,0,1.92-.13v1.39a12.4,12.4,0,0,0-1.89-.1H179v1.88h4.12a13.06,13.06,0,0,0,1.91-.12v1.36a13.25,13.25,0,0,0-1.89-.12h-4a11.52,11.52,0,0,0,1.72,3.15,11.24,11.24,0,0,0,2.29-2.71l1.07.75a16.83,16.83,0,0,1-2.62,2.86,11.81,11.81,0,0,0,4,2.94,5.57,5.57,0,0,0-.89,1.22,14.68,14.68,0,0,1-3.08-2.42,13.09,13.09,0,0,1-2.77-4.28,18.38,18.38,0,0,1,.16,2.08v3.95c0,1.13-.39,1.42-2,1.42a16.76,16.76,0,0,1-1.72-.08,3.28,3.28,0,0,0-.38-1.32,13.94,13.94,0,0,0,2.08.19c.61,0,.73-.09.73-.47v-3a27.81,27.81,0,0,1-4.45,2.71,8.36,8.36,0,0,0-.94.57l-.61-1.39a21.91,21.91,0,0,0,6-3.19v-3h-3.27a11.13,11.13,0,0,0-1.81.1v-1.3a15,15,0,0,0,1.83.08h3.25v-1.88h-2.33a10.9,10.9,0,0,0-1.82.1V206a10.51,10.51,0,0,0,1.78.1h2.37v-1.8Zm-.78,6.44a18.7,18.7,0,0,1,2,2.54l-1,.69a12.57,12.57,0,0,0-2-2.58Z"/>
        <path class="cls-1" d="M197.48,212.14c-1.21,2.77-2.45,4-4,4-2,0-3.48-2.19-3.48-5.13a8.52,8.52,0,0,1,9-8.58,8.1,8.1,0,0,1,5.77,2.08,7,7,0,0,1,2,5.12A7.65,7.65,0,0,1,202,216.9a16.56,16.56,0,0,1-3.19,1,3.4,3.4,0,0,0-.74-1.41,12.69,12.69,0,0,0,3.51-1,6.35,6.35,0,0,0,3.71-5.88,5.52,5.52,0,0,0-3.33-5.27,6,6,0,0,0-2.44-.53A31.16,31.16,0,0,1,197.48,212.14Zm-2.58-7.33a7.25,7.25,0,0,0-3.42,6.25c0,2,.88,3.58,2,3.58.89,0,1.73-1,2.63-3a28.71,28.71,0,0,0,1.91-7.77A6.69,6.69,0,0,0,194.9,204.81Z"/>
        <path class="cls-1" d="M217.37,210.29c-1.36,1.13-2,2.1-2,3.09s.6,1.65,1.78,2.05a13.11,13.11,0,0,0,3.84.42,20,20,0,0,0,6.3-.79l.19,1.72a7,7,0,0,0-.71.1,33.73,33.73,0,0,1-5.67.48,14.78,14.78,0,0,1-4.83-.65,3.33,3.33,0,0,1-2.39-3.17c0-1.36.79-2.68,2.41-4Zm-2.2-7.66a24.38,24.38,0,0,0,5.58.5,23.13,23.13,0,0,0,5.31-.44l.11,1.38a31.73,31.73,0,0,0-5.29,3.2l-1.07-.87a33.49,33.49,0,0,1,3.71-2.22,16.56,16.56,0,0,1-3.17.27,40.69,40.69,0,0,1-4.62-.27l-.69-.06Zm10.47,3.63a16.28,16.28,0,0,1,2.14,3.25l-1.05.63a16.19,16.19,0,0,0-2.14-3.34Zm2.29-1.24a16.25,16.25,0,0,1,2.19,3.27l-1.05.59a18,18,0,0,0-2.15-3.29Z"/>
        <path class="cls-1" d="M245.8,209.34a20.17,20.17,0,0,0,2.5-4.8l1.3.52a29.93,29.93,0,0,1-2.33,4.28h3.11a11.82,11.82,0,0,0,2.31-.14v1.49a16.63,16.63,0,0,0-2.35-.13H244.5a21.32,21.32,0,0,0,2.77,2.92,19.4,19.4,0,0,0,5.67,3.55,5.65,5.65,0,0,0-.9,1.3,22.69,22.69,0,0,1-5.29-3.57,19,19,0,0,1-3-3.53c.06,1.16.08,1.73.08,2.27v3.76a10.83,10.83,0,0,0,.15,2h-1.6a11,11,0,0,0,.15-2V213.5c0-.63,0-1,.08-2.25a17,17,0,0,1-3.94,4.52,24.67,24.67,0,0,1-3.76,2.56,5.08,5.08,0,0,0-.95-1.22,21.71,21.71,0,0,0,5.84-4.09,18.55,18.55,0,0,0,2.14-2.46H236.5a19.87,19.87,0,0,0-2.31.13V209.2a15.26,15.26,0,0,0,2.29.14h6.09v-5.5h-5a19.72,19.72,0,0,0-2.24.13V202.5a15.47,15.47,0,0,0,2.28.15h5V202a10.12,10.12,0,0,0-.13-1.74H244a7.49,7.49,0,0,0-.13,1.74v.7h5.36a12.25,12.25,0,0,0,2.33-.15V204a17.05,17.05,0,0,0-2.29-.13h-5.4v5.5Zm-7.64-4.83a26,26,0,0,1,2.08,3.89l-1.18.61a20.1,20.1,0,0,0-2-3.95Z"/>
        <path class="cls-1" d="M259.22,202.75a17.45,17.45,0,0,0-.12-2.31h1.55a15,15,0,0,0-.12,2.33v2.9h.5a12.93,12.93,0,0,0,1.74-.08v1.34a17.15,17.15,0,0,0-1.74-.08h-.5v5.39a18.18,18.18,0,0,0,1.78-1.07l.08,1.26A36.49,36.49,0,0,1,258,214.8c-.34.15-.93.44-1.12.55l-.39-1.47a10.52,10.52,0,0,0,2.7-1v-6h-.9a15.73,15.73,0,0,0-1.78.1v-1.39a10.9,10.9,0,0,0,1.82.11h.86Zm5.9,9.6a13.35,13.35,0,0,1-3.52,2.79,4.16,4.16,0,0,0-.86-.95,10.08,10.08,0,0,0,4.87-4.43h-1.28a10.58,10.58,0,0,0-1.89.13v-1.37a9.7,9.7,0,0,0,1.93.13h9a11.24,11.24,0,0,0,2.08-.13v1.33a16.15,16.15,0,0,0-2.08-.09h-6.42a10.89,10.89,0,0,1-1,1.54h6.95a14.87,14.87,0,0,0,2.06-.09,10,10,0,0,0-.1,1.24,20.94,20.94,0,0,1-.93,5.61c-.38.75-.9,1-2.33,1-.48,0-1.17,0-1.83-.08a3.41,3.41,0,0,0-.42-1.37,14.49,14.49,0,0,0,2.5.24c.84,0,1-.17,1.26-1.43a25.3,25.3,0,0,0,.46-4h-1.4a12.29,12.29,0,0,1-1.87,3.17,22.45,22.45,0,0,1-2.58,2.58,16.79,16.79,0,0,1-1.7,1.17,3.76,3.76,0,0,0-1-1,13.47,13.47,0,0,0,4.12-3.19,10.47,10.47,0,0,0,1.72-2.75H268.8A14.62,14.62,0,0,1,263,217.6a3,3,0,0,0-.9-1,11.87,11.87,0,0,0,5.31-4.26Zm.68-5.08a15.51,15.51,0,0,0-1.91.08,17,17,0,0,0,.08-1.89v-2.73a14.84,14.84,0,0,0-.08-1.85,12.65,12.65,0,0,0,2,.11h5.48a14.27,14.27,0,0,0,2.18-.11,16.15,16.15,0,0,0-.08,2v2.63a13,13,0,0,0,.08,1.87c-.46,0-1.11-.06-1.93-.06Zm-.59-3.66h7v-1.53h-7Zm0,2.63h7v-1.6h-7Z"/>
        <path class="cls-1" d="M285.58,203.59a9.14,9.14,0,0,0,1-2.88l1.68.3a4.37,4.37,0,0,0-.55,1.13c-.27.67-.55,1.24-.65,1.43l.44,0a29.41,29.41,0,0,0,6.61-.8l.13,1.43a6.81,6.81,0,0,0-.84.1,65,65,0,0,1-6.93.55,15.11,15.11,0,0,1-1.89,3c-.21.25-.63.74-.71.8s-.25.19-.28.21a0,0,0,0,1,0,0v0s0,0,.05.06l1-.73a5.62,5.62,0,0,1,3.17-1,2.54,2.54,0,0,1,2.77,2.33c1.54-.61,2.73-1.05,3.66-1.39a4.38,4.38,0,0,0,1.42-.6l.68,1.47a33.22,33.22,0,0,0-5.61,1.84c0,.55,0,.76,0,1.28,0,.28,0,.74,0,1.16s0,.75,0,.94a4.78,4.78,0,0,0,0,.76l-1.43,0a27.79,27.79,0,0,0,.13-3,5.74,5.74,0,0,0,0-.63c-2.86,1.34-3.95,2.33-3.95,3.59s1.3,2,4.26,2a17.43,17.43,0,0,0,5.61-.82l.19,1.62a6.49,6.49,0,0,0-.84.11,33,33,0,0,1-5.1.42c-3.76,0-5.59-1.08-5.59-3.24,0-1.15.72-2.25,2.14-3.32a17.09,17.09,0,0,1,3.13-1.68c-.17-1.15-.67-1.65-1.66-1.65a7.87,7.87,0,0,0-4.68,2.22,7.09,7.09,0,0,0-1.62,1.74l-1.17-1.17a20.8,20.8,0,0,0,4.7-6,2.79,2.79,0,0,0,.19-.31,2.35,2.35,0,0,1-.4,0l-3.08-.06h-.34a3.86,3.86,0,0,0-.46,0l0-1.45a28.93,28.93,0,0,0,4.49.23Z"/>
        <path class="cls-1" d="M301.25,215.14a13.37,13.37,0,0,0,1.61-3.49A22.56,22.56,0,0,0,304,206.8l1.41.38a31.58,31.58,0,0,1-1.2,5.08,16.69,16.69,0,0,1-1.57,3.7Zm7.37,1.34c0,.65.48.78,2.91.78a9.68,9.68,0,0,0,2.69-.25c.42-.13.63-.46.78-1.22a19.85,19.85,0,0,0,.29-3.47,5.61,5.61,0,0,0,1.43.55c-.21,2.61-.4,3.76-.8,4.54-.5,1-1.26,1.17-4.51,1.17-3.61,0-4.2-.25-4.2-1.8V206.72a13.36,13.36,0,0,0-.15-2h1.7a11.93,11.93,0,0,0-.14,2Zm5.43-11.71a26.77,26.77,0,0,0-6.8-3.38l.82-1.16a32.71,32.71,0,0,1,6.93,3.3Zm5.44,10.6a32.47,32.47,0,0,0-1.55-4.39,24.49,24.49,0,0,0-1.93-3.71l1.23-.66a35.18,35.18,0,0,1,3.62,8Z"/>
        <path class="cls-1" d="M334.07,200.8a14.39,14.39,0,0,0-.13,2.77c0,.46,0,.69,0,2.18a21,21,0,0,0,6.15-.79l.19,1.55a11.07,11.07,0,0,0-1.26.15,36.44,36.44,0,0,1-5.06.46c.07,2,.17,4.07.28,5.42a17.91,17.91,0,0,1,5.6,3,10.85,10.85,0,0,0,1,.65l-1,1.47a9.31,9.31,0,0,0-2.18-1.83,21.76,21.76,0,0,0-2.84-1.62,3,3,0,0,1-.5-.23,6.29,6.29,0,0,1,.08.91,3.83,3.83,0,0,1-.52,2.12,4.46,4.46,0,0,1-3.74,1.45c-2.71,0-4.37-1.18-4.37-3.11s2-3.32,4.94-3.32a8.8,8.8,0,0,1,1.83.19c.1,0,.1,0,.18,0s.05,0,.11,0a.65.65,0,0,0,0-.19V212c-.17-2.42-.32-6.47-.34-9.47a10.07,10.07,0,0,0-.1-1.7Zm-3.36,12.53c-2.14,0-3.45.76-3.45,2a1.43,1.43,0,0,0,.32.9,3.41,3.41,0,0,0,2.52.84,3.54,3.54,0,0,0,2.33-.69,2,2,0,0,0,.5-1.58c0-.31,0-1.15-.06-1.15A7.17,7.17,0,0,0,330.71,213.33Z"/>
        <path class="cls-1" d="M352.72,200.88a11.62,11.62,0,0,0-.49,2.17c-.33,2.12-.63,4.4-.69,5.47l.08,0c.05-.17.05-.17.15-.61a9.23,9.23,0,0,1,1.28-3.13c1.18-1.81,2.56-2.71,4.2-2.71a3.94,3.94,0,0,1,3.36,1.87A9.89,9.89,0,0,1,357,217.32a15.45,15.45,0,0,1-3.74,1.24,4.37,4.37,0,0,0-.84-1.43,11,11,0,0,0,4.26-1.32c2.46-1.41,3.62-3.61,3.62-7s-1.18-5.33-3.2-5.33c-1.59,0-2.93,1.19-4.13,3.65a10.88,10.88,0,0,0-1.14,4.68,4.68,4.68,0,0,0,0,.51l-1.52.06v-.23l0-.38,0-2.18v-.49a53.58,53.58,0,0,1,.71-7.74,3.56,3.56,0,0,0,.07-.68Z"/>
        <path class="cls-1" d="M380.39,205.29c-.25,0-.33.06-.63.13-1.72.35-2.73.52-3.71.63v3.63a14.7,14.7,0,0,1,4.51-.76,7.11,7.11,0,0,1,3.72.89,4.32,4.32,0,0,1-2.12,8.06,3.1,3.1,0,0,1-3.24-2.37,7.74,7.74,0,0,1-.25-2.38,4.53,4.53,0,0,0,1.39-.54,5.22,5.22,0,0,0-.05.82c0,2.18.63,3.08,2.17,3.08a2.78,2.78,0,0,0,2.81-3c0-2.06-1.74-3.34-4.49-3.34a14.32,14.32,0,0,0-4.45.82v5.25c0,1.14-.51,1.68-1.54,1.68a5.53,5.53,0,0,1-3.46-1.34,2.55,2.55,0,0,1-1-2,3.82,3.82,0,0,1,1.66-2.79,11.44,11.44,0,0,1,3-1.72v-4l-.84.06c-.37,0-.73,0-1.34,0-.32,0-.88,0-1.11,0h-.86v-1.38a12.2,12.2,0,0,0,2.14.15c.56,0,1.38,0,2-.07v-2.08a14.56,14.56,0,0,0-.1-2h1.55a12.62,12.62,0,0,0-.1,2v2a21.94,21.94,0,0,0,4.28-.9Zm-5.69,6.19c-2.08,1-3.25,2.15-3.25,3.16,0,.44.29.86.9,1.26a4,4,0,0,0,1.87.6c.42,0,.48-.12.48-1Zm11.53-3.94a17.14,17.14,0,0,0-4.24-4.12l1.09-.82a17.91,17.91,0,0,1,4.24,4Z"/>
        <path class="cls-1" d="M394,211.84c0-.86,0-1.47.07-2.41a10.34,10.34,0,0,1-2.06,2.14,4.48,4.48,0,0,0-.78-1.18,14.43,14.43,0,0,0,4.77-5.73l1.24.74a9,9,0,0,0-.59.86,16.69,16.69,0,0,1-1.32,1.89v8.65a18.86,18.86,0,0,0,.1,2.45h-1.55a23.71,23.71,0,0,0,.12-2.45Zm3.17-11-.82,1a19,19,0,0,1-4.05,3.65,4.19,4.19,0,0,0-.84-1.07,12.34,12.34,0,0,0,4.54-4.37Zm2.82,3a14.28,14.28,0,0,0-2,.1V202.6a11.39,11.39,0,0,0,2,.13h2.79v-.84a10.29,10.29,0,0,0-.13-1.7h1.56a9.84,9.84,0,0,0-.11,1.7v.84h3.13a11.88,11.88,0,0,0,2-.13V204a14.41,14.41,0,0,0-2-.1h-3.15v2.77h3.93a15.06,15.06,0,0,0,2.12-.13v1.41a13.75,13.75,0,0,0-2.1-.13h-.86v2.48h.86a13.23,13.23,0,0,0,2.1-.13v1.43a15,15,0,0,0-2.1-.13h-.86v5.95c0,.73-.23,1.21-.69,1.38a6.47,6.47,0,0,1-1.87.21c-.51,0-1.2,0-1.93-.08a5.26,5.26,0,0,0-.34-1.43,20.09,20.09,0,0,0,2.22.25c1.14,0,1.26,0,1.26-.5v-5.78h-6.71a14.76,14.76,0,0,0-2.06.13v-1.43a12.28,12.28,0,0,0,2,.13h6.74v-2.48h-6.59a12.43,12.43,0,0,0-2,.13v-1.41a13.1,13.1,0,0,0,2,.13h3.53v-2.77Zm1.93,12.7a16.85,16.85,0,0,0-3.19-3.63l1-.78a26.08,26.08,0,0,1,3.3,3.53Z"/>
        <path class="cls-1" d="M415.57,204.09a18.72,18.72,0,0,0,4.53.36,17,17,0,0,0,.68-3.76l1.68.17a9.65,9.65,0,0,0-.34,1.35c-.29,1.21-.36,1.46-.57,2.22,4.12-.15,6.91-.44,8.28-.9l.1,1.51c-.36,0-.48,0-.92.11a71,71,0,0,1-7.79.6,28.45,28.45,0,0,1-2.1,5.4l0,0a10.78,10.78,0,0,1,6.11-1.76c3.32,0,5.44,1.51,5.44,3.86,0,2.86-2.8,4.73-7,4.73a15.84,15.84,0,0,1-5.18-.82,2.53,2.53,0,0,0,0-.34v-.13c0-.1,0-.48-.11-1.15a12.89,12.89,0,0,0,5.25,1c3.32,0,5.5-1.32,5.5-3.34,0-1.59-1.51-2.56-4-2.56a11.48,11.48,0,0,0-4.87,1.13,4.46,4.46,0,0,0-1.76,1.35L417,212.6a31.64,31.64,0,0,0,2.82-6.85c-1.35,0-2.27-.06-3.49-.14-.27,0-.46,0-.59,0h-.16Z"/>
        <path class="cls-1" d="M442.24,201.34a31.54,31.54,0,0,0-.27,4.43c-.09,2.52-.15,5.38-.15,6.32,0,.26,0,.78,0,1.26a3.28,3.28,0,0,0,1,2.52,3.93,3.93,0,0,0,2.62.82A6,6,0,0,0,451.1,213a12.87,12.87,0,0,0,1-3.3,6,6,0,0,0,1.51,1,12.85,12.85,0,0,1-2.33,4.77,7.36,7.36,0,0,1-5.92,2.62,5,5,0,0,1-3.95-1.47c-.86-1-1.15-2.1-1.15-4.3,0-1.41,0-1.93.19-8.55,0-.63,0-1,0-1.36a5.91,5.91,0,0,0-.09-1.12Z"/>
        <path class="cls-1" d="M460.11,203.86h.76c.29,0,.54,0,1.19-.06,2.5-.19,9.22-.57,11.93-.69a14.45,14.45,0,0,0,2.5-.23l.12,1.57a9.69,9.69,0,0,0-2.35.28,10.52,10.52,0,0,0-4,2.12,6.39,6.39,0,0,0-2.58,4.85,4.11,4.11,0,0,0,2.94,3.88,10.68,10.68,0,0,0,3.15.67H474l-.28,1.7-.65-.12a10.55,10.55,0,0,1-4.53-1.62,5.11,5.11,0,0,1-2.33-4.28c0-2.44,1.42-4.77,3.92-6.45a13.93,13.93,0,0,1,2-1.11,41.58,41.58,0,0,1-4.62.46,60.81,60.81,0,0,0-7.24.69Z"/>
        <path class="cls-1" d="M493,205.29c-.25,0-.33.06-.63.13-1.72.35-2.73.52-3.71.63v3.63a14.7,14.7,0,0,1,4.51-.76,7.11,7.11,0,0,1,3.72.89,4.32,4.32,0,0,1-2.12,8.06,3.1,3.1,0,0,1-3.24-2.37,7.74,7.74,0,0,1-.25-2.38,4.53,4.53,0,0,0,1.39-.54,5.22,5.22,0,0,0-.05.82c0,2.18.63,3.08,2.17,3.08a2.79,2.79,0,0,0,2.81-3c0-2.06-1.74-3.34-4.49-3.34a14.32,14.32,0,0,0-4.45.82v5.25c0,1.14-.51,1.68-1.54,1.68a5.53,5.53,0,0,1-3.46-1.34,2.55,2.55,0,0,1-1-2,3.82,3.82,0,0,1,1.66-2.79,11.44,11.44,0,0,1,3-1.72v-4l-.84.06c-.38,0-.73,0-1.34,0-.32,0-.88,0-1.11,0h-.87v-1.38a12.4,12.4,0,0,0,2.15.15c.56,0,1.38,0,2-.07v-2.08a14.56,14.56,0,0,0-.1-2h1.55a12.62,12.62,0,0,0-.1,2v2a21.94,21.94,0,0,0,4.28-.9Zm-5.69,6.19c-2.08,1-3.25,2.15-3.25,3.16,0,.44.29.86.9,1.26a4,4,0,0,0,1.87.6c.42,0,.48-.12.48-1Zm11.53-3.94a17.14,17.14,0,0,0-4.24-4.12l1.09-.82a17.91,17.91,0,0,1,4.24,4Z"/>
        <path class="cls-1" d="M510.3,200.88a11.86,11.86,0,0,0-.48,2.17c-.34,2.12-.63,4.4-.7,5.47l.09,0,.14-.61a9.45,9.45,0,0,1,1.29-3.13c1.17-1.81,2.56-2.71,4.19-2.71a3.93,3.93,0,0,1,3.36,1.87,8.55,8.55,0,0,1,1.26,5.1,8.66,8.66,0,0,1-4.85,8.25,15.22,15.22,0,0,1-3.73,1.24,4.56,4.56,0,0,0-.84-1.43,11.09,11.09,0,0,0,4.26-1.32c2.46-1.41,3.61-3.61,3.61-7s-1.18-5.33-3.19-5.33c-1.6,0-2.94,1.19-4.14,3.65a11,11,0,0,0-1.13,4.68c0,.09,0,.19,0,.51l-1.51.06v-.23l0-.38,0-2.18v-.49a52.17,52.17,0,0,1,.71-7.74,4.48,4.48,0,0,0,.06-.68Z"/>
        <path class="cls-1" d="M543.12,217.51a16.7,16.7,0,0,0-4.28-3c-.36-.19-.84-.4-1.41-.63a6.31,6.31,0,0,1,0,.76,3.61,3.61,0,0,1-.52,2.28,4.24,4.24,0,0,1-3.55,1.33,5.48,5.48,0,0,1-3.25-.84A2.75,2.75,0,0,1,529,215.2c0-1.38,1.09-2.48,2.94-2.9a9.51,9.51,0,0,1,2.18-.21,9.83,9.83,0,0,1,1.89.17c0-.06,0-.06,0-.25a1.84,1.84,0,0,1,0-.23c0-.19,0-.63,0-1.24,0-.27,0-.67,0-1.22-.76,0-1.81,0-2.48,0-1.26,0-2.25,0-3.55-.14-.23,0-.4,0-.52,0h-.17l0-1.39a25.75,25.75,0,0,0,4.81.34c.54,0,1.28,0,1.87,0l0-2.88c-.6,0-.94,0-1.42,0-1.54,0-3.24-.06-5.13-.21a2.56,2.56,0,0,0-.37,0,1.85,1.85,0,0,0-.3,0l0-1.43a25.61,25.61,0,0,0,5.38.42l1.82,0a17.18,17.18,0,0,0-.1-3h1.62a21.91,21.91,0,0,0-.15,3,29.63,29.63,0,0,0,6.22-.86l.1,1.43c-.36,0-.36,0-1.45.16a42.73,42.73,0,0,1-4.87.51c0,1.72,0,1.72,0,2.83a25.35,25.35,0,0,0,5.82-.86l.08,1.45c-.27,0-.48,0-1.22.15-1.44.23-3.1.4-4.66.5,0,1.18,0,1.18.13,3.21a18.47,18.47,0,0,1,5.86,3.07,7.45,7.45,0,0,0,.71.48Zm-7.1-4a7.6,7.6,0,0,0-2.14-.23c-2.08,0-3.44.76-3.44,1.87s1,1.74,2.88,1.74a3,3,0,0,0,2.3-.69c.3-.29.42-.88.42-1.89Z"/>
        <path class="cls-1" d="M559.67,202.08a6.39,6.39,0,0,0-.09-1.22h1.58a18.3,18.3,0,0,0-.1,2.63v.23c4,0,5.58-.07,6.27-.15v1.49a39.05,39.05,0,0,0-4-.1l-2.24,0v4.15a6.18,6.18,0,0,1,.5,2.48,6.75,6.75,0,0,1-2.81,5.48,13.15,13.15,0,0,1-3.32,1.7,4.67,4.67,0,0,0-.92-1.32,10.73,10.73,0,0,0,3.4-1.57,5.47,5.47,0,0,0,2.35-4.44,2.9,2.9,0,0,1-.57,1,3.51,3.51,0,0,1-6.09-2.18,3.5,3.5,0,0,1,3.72-3.46,3.19,3.19,0,0,1,2.43.94c0-.29,0-.38,0-1.15,0-.09,0-.3,0-.55V205c-4.22.08-8.46.29-9.87.52L549.8,204c.38,0,.53,0,.84,0,.61,0,.61,0,4-.12,2-.09,3.65-.13,5.08-.17Zm-.9,6.32a2.7,2.7,0,0,0-1.41-.34,2.23,2.23,0,0,0-2.33,2.21,2,2,0,0,0,2.16,2.08,2.36,2.36,0,0,0,2.46-2.48A1.51,1.51,0,0,0,558.77,208.4Z"/>
        <path class="cls-1" d="M578.07,215.94a3.15,3.15,0,1,1-3.15-3.15A3.15,3.15,0,0,1,578.07,215.94Zm-5.11,0a2,2,0,1,0,2-2A2,2,0,0,0,573,215.94Z"/>
      </g>
    </g>
  </g>
</svg>
