<svg xmlns="http://www.w3.org/2000/svg" width="509.5" height="239.9" viewBox="0 0 509.5 239.9">
  <defs>
    <style>
      .cls-1 {
        fill: #fff;
      }
    </style>
  </defs>
  <g id="レイヤー_2" data-name="レイヤー 2">
    <g id="レイヤー_1-2" data-name="レイヤー 1">
      <g>
        <path class="cls-1" d="M3,5.25a19.39,19.39,0,0,0-2.31.13V3.84A15,15,0,0,0,3,4H8.86V2.2A11.42,11.42,0,0,0,8.71.29h1.66a11.85,11.85,0,0,0-.14,1.89V4h6.19a13.19,13.19,0,0,0,2.35-.15V5.38a21.08,21.08,0,0,0-2.35-.13H10.75a21.86,21.86,0,0,0,8.65,9.07,5.83,5.83,0,0,0-1,1.36A23.43,23.43,0,0,1,14.07,12a19.9,19.9,0,0,1-3.93-5.9c.06,1.26.09,2,.09,2.73v4.77h2.28a12.78,12.78,0,0,0,2-.11V15a12,12,0,0,0-2.08-.13H10.23v2a16.28,16.28,0,0,0,.14,2.41H8.71a15.89,15.89,0,0,0,.15-2.43v-2h-2A12.24,12.24,0,0,0,4.72,15V13.5a13,13,0,0,0,2.08.11H8.86V8.84c0-.78,0-1.58.08-2.71A19.51,19.51,0,0,1,5,12.2a23.17,23.17,0,0,1-4,3.53,4,4,0,0,0-1-1.24,19.17,19.17,0,0,0,4.91-4.27,22.76,22.76,0,0,0,3.43-5Z"/>
        <path class="cls-1" d="M25.09,8.52A12.07,12.07,0,0,0,25,7.29c.44,0,.9.06,1.49.06h4.56V3.93H26.14a17.24,17.24,0,0,1-3.48,4.28,3.47,3.47,0,0,0-1-1,13.69,13.69,0,0,0,4.2-5.65A9.08,9.08,0,0,0,26.38,0l1.49.42c-.09.17-.15.32-.28.57l-.8,1.7H37.21A10.4,10.4,0,0,0,39.1,2.6V4a12.08,12.08,0,0,0-1.89-.1H32.46V7.35h3.8a10.62,10.62,0,0,0,1.87-.11V8.63a15.54,15.54,0,0,0-1.84-.09H32.46v4.12h5.29a13.39,13.39,0,0,0,2.13-.13v1.52a14.27,14.27,0,0,0-2.13-.13H32.46v3.46a10,10,0,0,0,.15,2H31a9,9,0,0,0,.13-2V13.92H23.5a14.22,14.22,0,0,0-2.12.13V12.53a13.6,13.6,0,0,0,2.12.13h1.59Zm6,4.14V8.54H26.46v4.12Z"/>
        <path class="cls-1" d="M45.38,6.55c-.15,6.8-.61,9.28-2.33,12.45a4.45,4.45,0,0,0-1.11-1,11.37,11.37,0,0,0,1.49-3.8,49.59,49.59,0,0,0,.63-9.7A21.86,21.86,0,0,0,44,1.91c.68.06,1.35.11,2.17.11h5.52V1.41A6.44,6.44,0,0,0,51.53,0h1.56A7.35,7.35,0,0,0,53,1.41V2h5.75A15,15,0,0,0,61,1.89V3.28a14.5,14.5,0,0,0-2.18-.11H45.4l0,2.25H49.2V5.08a8.82,8.82,0,0,0-.08-1.38h1.45a8.24,8.24,0,0,0-.09,1.36v.36h4.87V5.08a13,13,0,0,0-.08-1.38h1.45a8.42,8.42,0,0,0-.09,1.4v.32h2.52a10.25,10.25,0,0,0,1.91-.11V6.66a10.25,10.25,0,0,0-1.91-.11H56.63V8.61a11.64,11.64,0,0,0,.07,1.26,11.74,11.74,0,0,0-1.37,0H50.65a12.92,12.92,0,0,0-1.51,0c0-.4.06-.84.06-1.26V6.55Zm13.06,5.67c-.25.27-.36.38-.71.8a19.17,19.17,0,0,1-3.41,3.06,18.6,18.6,0,0,0,6.85,1.75,5.41,5.41,0,0,0-.63,1.38,19.41,19.41,0,0,1-7.43-2.39,22.61,22.61,0,0,1-7.62,2.47A4.5,4.5,0,0,0,44.9,18,21.27,21.27,0,0,0,52,16.08a13,13,0,0,1-3.38-3.53,13.53,13.53,0,0,0-2.08.11v-1.3a13.29,13.29,0,0,0,2.12.1h7.63a13.53,13.53,0,0,0,1.44-.06Zm-8.4.33a9.24,9.24,0,0,0,3.09,2.86,14.19,14.19,0,0,0,3.36-2.86Zm.44-3.8h4.87V6.55H50.48Z"/>
        <path class="cls-1" d="M64.28,13.54A21.64,21.64,0,0,1,68.5,18l-1.17,1.12a21.05,21.05,0,0,0-4.14-4.58Z"/>
        <path class="cls-1" d="M84.34,18.06a9.18,9.18,0,0,0,2.52-3.83l1.19.55a12.48,12.48,0,0,1-2.58,4.1ZM92.9,1.43A8.9,8.9,0,0,0,92.78,0h1.61a8.36,8.36,0,0,0-.12,1.43v.4h5.16a13.72,13.72,0,0,0,2.16-.13V3c-.67-.06-1.23-.08-2.18-.08H98.17a19.57,19.57,0,0,1-1,2.06h3.45A13.27,13.27,0,0,0,103,4.85V6.19a18.17,18.17,0,0,0-2.48-.1H87a18.45,18.45,0,0,0-2.48.1V4.85A18.37,18.37,0,0,0,87,5h3.15a17.42,17.42,0,0,0-.86-2.06H88A19.94,19.94,0,0,0,86,3V1.7a12.74,12.74,0,0,0,2.08.13H92.9Zm-3.52,12c-1,0-1.62,0-2.31.06a12.6,12.6,0,0,0,.08-1.72V9.13a14.86,14.86,0,0,0-.08-1.84,22.84,22.84,0,0,0,2.31.08H98a22.31,22.31,0,0,0,2.37-.08,13.52,13.52,0,0,0-.08,1.82v2.63a14,14,0,0,0,.08,1.76c-.52,0-1.49-.06-2.24-.06Zm-1-3.59H99V8.42H88.39Zm0,2.54H99V10.85H88.39Zm2.37,4.83c0,.27.08.37.42.46a13,13,0,0,0,2.29.12c2.88,0,3.57-.06,3.9-.39a3.79,3.79,0,0,0,.3-2,2.06,2.06,0,0,0,0-.33,3.24,3.24,0,0,0,1.3.48c-.13,3.27-.29,3.38-5.06,3.38-3.86,0-4.43-.17-4.43-1.34V15.87a8.31,8.31,0,0,0-.13-1.59h1.56a6.47,6.47,0,0,0-.13,1.59ZM95.74,5a15.84,15.84,0,0,0,1-2.06H90.68A22.19,22.19,0,0,1,91.54,5ZM94.79,16.9a11.47,11.47,0,0,0-2.52-2.5l.91-.65a14.08,14.08,0,0,1,2.66,2.37Zm7.29,1.64A20.79,20.79,0,0,0,99,14.72l1.07-.61a26.18,26.18,0,0,1,3.09,3.63Z"/>
        <path class="cls-1" d="M124.06,18.46a11,11,0,0,0-2-.15H107.62v1h-1.51a14.62,14.62,0,0,0,.15-2.26V3.19c0-.88,0-1.49-.08-2.18a16.94,16.94,0,0,0,2.2.1h13.21a12,12,0,0,0,2-.15V2.48a13.67,13.67,0,0,0-2-.13h-14V17.07H122a13.6,13.6,0,0,0,2.07-.13Zm-11.92-9.1a18,18,0,0,1-.48,3.36,8.69,8.69,0,0,1-1.85,3.64,5.75,5.75,0,0,0-1.07-1,7,7,0,0,0,1.57-2.75,18.14,18.14,0,0,0,.59-5.33,17.75,17.75,0,0,0-.13-2.5h.34c1,0,3.78-.21,5.29-.4a16.51,16.51,0,0,0,4.7-1.07l1,1.24a51.43,51.43,0,0,1-9.85,1.36V7c0,.32,0,.53,0,1.14h9.32A8.76,8.76,0,0,0,123.31,8V9.47a10.08,10.08,0,0,0-1.81-.11h-3.31v5.25a7.16,7.16,0,0,0,.12,1.7h-1.59a8.72,8.72,0,0,0,.12-1.7V9.36Z"/>
        <path class="cls-1" d="M129.15,12.51a15.51,15.51,0,0,1-2.27,6.87,4.41,4.41,0,0,0-1.11-1.05,10.66,10.66,0,0,0,1.83-4.41A55,55,0,0,0,128.29,4a24.67,24.67,0,0,0-.11-3c.72.06,1.39.08,2.54.08h10.94A19.91,19.91,0,0,0,143.89,1c0,.5-.06,1-.06,1.61V4.09a15.29,15.29,0,0,0,.06,1.54c-.88,0-1.43-.07-2.1-.07H129.55c0,2.82-.09,3.78-.27,5.82h4.15V8.9h-1.3a14.85,14.85,0,0,0-1.89.09V7.68a10.18,10.18,0,0,0,1.91.11h1.28V7.52A14.18,14.18,0,0,0,133.35,6h1.45a6.64,6.64,0,0,0-.11,1.49v.27h4V7.52a9.48,9.48,0,0,0-.1-1.49h1.49A7,7,0,0,0,140,7.52v.27h1.81a10.33,10.33,0,0,0,2-.11V9a14.71,14.71,0,0,0-2-.09H140v2.48h2.46a14.36,14.36,0,0,0,2.27-.13v1.39a16.55,16.55,0,0,0-2.25-.13h-5.65a6.92,6.92,0,0,0,2.08,2.65,12.77,12.77,0,0,0,2.92-2.5l1.18.78a27.68,27.68,0,0,1-3.15,2.41A13.8,13.8,0,0,0,145.3,18a3.7,3.7,0,0,0-.84,1.28A16.08,16.08,0,0,1,138.07,16a8.69,8.69,0,0,1-2.58-3.53h-2.12v4.75c1.76-.34,2.48-.51,4.37-1v1.22c-2.25.61-3.13.8-7.44,1.64l-.73.16-.34-1.44h.19a18.84,18.84,0,0,0,2.65-.34v-5Zm13.39-8.06V2.25h-13v2.2ZM138.72,8.9h-4v2.48h4Z"/>
        <path class="cls-1" d="M147.5,10.94a25.49,25.49,0,0,0,4.22-4.68A9,9,0,0,1,152.77,5a2.19,2.19,0,0,1,3.49.14c.21.19.57.59,1.53,1.7a55.43,55.43,0,0,0,6.66,6.47,7,7,0,0,0,1.68,1.09l-.72,1.81a3.89,3.89,0,0,0-.5-.44c-1.3-1-3.7-3.17-5.1-4.56-1.24-1.26-2-2.12-4.08-4.49-.56-.65-.9-.9-1.26-.9s-.65.16-1.65,1.51c-1.24,1.66-2.33,3-3.68,4.47-.38.42-.42.46-.61.69Z"/>
        <path class="cls-1" d="M176.8,12.13c-1.22,2.78-2.46,4-4,4-2,0-3.49-2.19-3.49-5.13a8.7,8.7,0,0,1,2.21-5.79,8.76,8.76,0,0,1,6.78-2.79,8.09,8.09,0,0,1,5.77,2.08,7,7,0,0,1,2,5.12,7.64,7.64,0,0,1-4.81,7.24,16.34,16.34,0,0,1-3.19,1,3.27,3.27,0,0,0-.73-1.41,12.16,12.16,0,0,0,3.5-1,6.33,6.33,0,0,0,3.72-5.88,5.55,5.55,0,0,0-3.34-5.27,6.14,6.14,0,0,0-2.44-.52A31.37,31.37,0,0,1,176.8,12.13Zm-2.59-7.32a7.25,7.25,0,0,0-3.42,6.25c0,2,.88,3.57,2,3.57.88,0,1.72-1,2.62-3a28.71,28.71,0,0,0,1.91-7.77A6.69,6.69,0,0,0,174.21,4.81Z"/>
        <path class="cls-1" d="M195.17,10.29c-1.36,1.13-2,2.1-2,3.08s.61,1.66,1.78,2.06a13.18,13.18,0,0,0,3.85.42,19.63,19.63,0,0,0,6.29-.8l.19,1.73a7,7,0,0,0-.71.1,33.73,33.73,0,0,1-5.67.48,14.78,14.78,0,0,1-4.83-.65,3.34,3.34,0,0,1-2.39-3.17c0-1.36.8-2.69,2.41-4ZM193,2.62a23.75,23.75,0,0,0,5.58.51,23.29,23.29,0,0,0,5.32-.44l.1,1.38a32.28,32.28,0,0,0-5.29,3.19l-1.07-.86a33.49,33.49,0,0,1,3.71-2.22,16.56,16.56,0,0,1-3.17.27,40.38,40.38,0,0,1-4.61-.27l-.7-.06Zm10.48,3.64a16.73,16.73,0,0,1,2.14,3.25l-1.05.63A17.06,17.06,0,0,0,202.4,6.8ZM205.73,5a16.25,16.25,0,0,1,2.19,3.27l-1,.59a18,18,0,0,0-2.14-3.3Z"/>
        <path class="cls-1" d="M222.09,9.34a20.36,20.36,0,0,0,2.5-4.8l1.3.52a29.93,29.93,0,0,1-2.33,4.28h3.11A11.82,11.82,0,0,0,229,9.2v1.49a16.63,16.63,0,0,0-2.35-.13h-5.84a21.93,21.93,0,0,0,2.77,2.92A19.61,19.61,0,0,0,229.23,17a5.65,5.65,0,0,0-.9,1.3A22.69,22.69,0,0,1,223,14.76a19,19,0,0,1-3-3.53c.06,1.16.08,1.72.08,2.27v3.76a10.65,10.65,0,0,0,.15,2h-1.6a10.79,10.79,0,0,0,.15-2V13.5c0-.63,0-1,.08-2.25A17,17,0,0,1,215,15.77a24.67,24.67,0,0,1-3.76,2.56,5.08,5.08,0,0,0-1-1.22A21.71,21.71,0,0,0,216.13,13a18.55,18.55,0,0,0,2.14-2.46h-5.48a19.87,19.87,0,0,0-2.31.13V9.2a15.26,15.26,0,0,0,2.29.14h6.09V3.84h-5A17.66,17.66,0,0,0,211.6,4V2.5a15.57,15.57,0,0,0,2.28.14h5V2a10.12,10.12,0,0,0-.13-1.74h1.56A7.49,7.49,0,0,0,220.16,2v.69h5.36a12.48,12.48,0,0,0,2.33-.14V4a15.53,15.53,0,0,0-2.29-.13h-5.4v5.5Zm-7.64-4.83a26,26,0,0,1,2.08,3.89L215.35,9a20.1,20.1,0,0,0-2-3.95Z"/>
        <path class="cls-1" d="M234,2.75a17.45,17.45,0,0,0-.12-2.31h1.55a14.81,14.81,0,0,0-.13,2.33v2.9h.51a11.18,11.18,0,0,0,1.74-.09V6.93a17.19,17.19,0,0,0-1.74-.09h-.51v5.4a19.06,19.06,0,0,0,1.79-1.07l.08,1.26a37.28,37.28,0,0,1-4.36,2.37c-.34.15-.93.44-1.12.55l-.4-1.47a10.4,10.4,0,0,0,2.71-1v-6h-.9a15.92,15.92,0,0,0-1.79.11V5.56a11.09,11.09,0,0,0,1.83.11H234Zm5.9,9.6a13.35,13.35,0,0,1-3.52,2.79,4,4,0,0,0-.87-1,10.11,10.11,0,0,0,4.88-4.43H239.1a9.7,9.7,0,0,0-1.89.13V8.52a9.88,9.88,0,0,0,1.94.13h9a11.24,11.24,0,0,0,2.08-.13V9.85a16.15,16.15,0,0,0-2.08-.09h-6.42a10.27,10.27,0,0,1-1,1.53h6.95a17.28,17.28,0,0,0,2.06-.08,11.29,11.29,0,0,0-.11,1.24,20.64,20.64,0,0,1-.92,5.61c-.38.75-.9,1-2.33,1-.48,0-1.18,0-1.83-.08a3.58,3.58,0,0,0-.42-1.37,14.37,14.37,0,0,0,2.5.23c.84,0,1-.16,1.26-1.42a25.3,25.3,0,0,0,.46-4h-1.4a12.58,12.58,0,0,1-1.87,3.17,21.76,21.76,0,0,1-2.59,2.58,15.71,15.71,0,0,1-1.7,1.17,3.57,3.57,0,0,0-1-1,13.3,13.3,0,0,0,4.11-3.19,10.41,10.41,0,0,0,1.73-2.75h-2.08a14.53,14.53,0,0,1-5.78,5.24,3,3,0,0,0-.9-1,11.93,11.93,0,0,0,5.31-4.26Zm.67-5.09a15.22,15.22,0,0,0-1.91.09,14.66,14.66,0,0,0,.09-1.89V2.73a12.83,12.83,0,0,0-.09-1.85,14.12,14.12,0,0,0,2,.11h5.48a15.88,15.88,0,0,0,2.18-.11,16.15,16.15,0,0,0-.08,2V5.46a13.06,13.06,0,0,0,.08,1.87c-.46,0-1.11-.07-1.93-.07ZM240,3.61h7V2.08h-7Zm0,2.63h7V4.64h-7Z"/>
        <path class="cls-1" d="M258.84,3.59a8.71,8.71,0,0,0,1-2.88l1.68.3A4.16,4.16,0,0,0,261,2.14c-.28.67-.55,1.24-.65,1.43l.44,0a29.41,29.41,0,0,0,6.61-.8l.13,1.43a6.59,6.59,0,0,0-.84.1,67.92,67.92,0,0,1-6.93.55,15.58,15.58,0,0,1-1.89,3c-.21.25-.63.73-.72.8l-.27.21a0,0,0,0,1,0,0v0l0,.06c.76-.59.76-.59,1-.73a5.59,5.59,0,0,1,3.17-1,2.55,2.55,0,0,1,2.77,2.33c1.53-.61,2.73-1.05,3.65-1.39a4.61,4.61,0,0,0,1.43-.6L269.55,9a34.82,34.82,0,0,0-5.6,1.85c0,.55,0,.76,0,1.28,0,.28,0,.74,0,1.16s0,.75,0,.94a4.84,4.84,0,0,0,0,.76l-1.43,0c.06-.46.13-1.74.13-3a5.74,5.74,0,0,0,0-.63c-2.86,1.34-3.95,2.33-3.95,3.59s1.3,2,4.26,2a17.43,17.43,0,0,0,5.61-.82l.19,1.62c-.32,0-.42,0-.84.1a31.82,31.82,0,0,1-5.11.42c-3.75,0-5.58-1.07-5.58-3.23,0-1.15.71-2.25,2.14-3.32A16.43,16.43,0,0,1,262.52,10c-.17-1.15-.67-1.66-1.66-1.66a7.89,7.89,0,0,0-4.68,2.23,7.09,7.09,0,0,0-1.62,1.74l-1.17-1.17a21.11,21.11,0,0,0,4.7-6l.19-.31a2.58,2.58,0,0,1-.4,0l-3.09-.06h-.33l-.47,0,0-1.45a28.93,28.93,0,0,0,4.49.23Z"/>
        <path class="cls-1" d="M289.86,2.2a26,26,0,0,1-5.69,4c.59.42.84.59,1.64,1.2l-.55.55h3.8a11.83,11.83,0,0,0,2.23-.11l.82.9a7.05,7.05,0,0,0-.57.7,16.84,16.84,0,0,1-3.68,3.67,4.85,4.85,0,0,0-1.09-.86,14.09,14.09,0,0,0,3.36-3h-6.38v8.14c0,1.35-.5,1.7-2.46,1.7-.65,0-1.76,0-2.47-.1a5.43,5.43,0,0,0-.34-1.45,17.62,17.62,0,0,0,2.94.25c.71,0,.92-.14.92-.61V9.22h-6.51a16.54,16.54,0,0,0-2.16.12V7.83A14.88,14.88,0,0,0,276,8h8.4a30.69,30.69,0,0,0-5.79-3.57l.86-.93c1.84,1,2.56,1.37,3.57,2a20.58,20.58,0,0,0,4.47-3h-9.72a14.77,14.77,0,0,0-2.17.1V1.15a12.06,12.06,0,0,0,2.21.13h9.61A14.92,14.92,0,0,0,289,1.22Z"/>
        <path class="cls-1" d="M303.18,7.64h-3.72a13.47,13.47,0,0,0-2.08.13V6.32a13.94,13.94,0,0,0,2.08.13h8.69a13.94,13.94,0,0,0,2.08-.13V7.77a12.87,12.87,0,0,0-2.08-.13h-3.67v3.42h4a13.13,13.13,0,0,0,2-.12v1.43a10.62,10.62,0,0,0-2-.13h-4V16.9a18.6,18.6,0,0,0,3.42.23c1.7,0,3.15-.06,4.91-.21a4.08,4.08,0,0,0-.46,1.47c-1.83,0-2,0-2.54,0a29.87,29.87,0,0,1-4.6-.16c-3.27-.47-5.33-1.73-6.44-3.95a14.07,14.07,0,0,1-3.2,4.76,3.78,3.78,0,0,0-1.09-1,11.33,11.33,0,0,0,2.84-3.74,13.35,13.35,0,0,0,1.28-4.79V9.36l1.47.3-.25,1.09c-.11.5-.42,1.72-.57,2.22a6.36,6.36,0,0,0,1.66,2.32,7.19,7.19,0,0,0,2.27,1.28Zm-.32-5.94a6.71,6.71,0,0,0-.13-1.32h1.64a5.75,5.75,0,0,0-.14,1.3v1h6.13a19.36,19.36,0,0,0,2.1-.09,8.6,8.6,0,0,0-.09,1.43V5.38a9.22,9.22,0,0,0,.09,1.49h-1.37V3.93H296.44V6.87h-1.39a10.6,10.6,0,0,0,.08-1.49V4.05a10.06,10.06,0,0,0-.08-1.43,19.4,19.4,0,0,0,2.12.09h5.69Z"/>
        <path class="cls-1" d="M317.31,5.08a9.51,9.51,0,0,0,1.62.11,47.65,47.65,0,0,0,6.25-.45c-.31-.71-.65-1.55-1-2.49-.23-.55-.35-.84-.54-1.22L325.27.8a6.51,6.51,0,0,0,.61,1.89,17.4,17.4,0,0,0,.75,1.85,24.19,24.19,0,0,0,5.08-1.33l.21,1.49c-.44.09-.61.13-1.24.3-1.26.33-1.51.4-2.83.65l-.71.14a37.51,37.51,0,0,0,3.78,6.11l-1.41.8a4.24,4.24,0,0,0-1.45-.86,11.29,11.29,0,0,0-3.67-.55,7.39,7.39,0,0,0-4,.89,2.36,2.36,0,0,0-1.14,2,2.12,2.12,0,0,0,.8,1.64,7.11,7.11,0,0,0,4.09,1,13.87,13.87,0,0,0,6-1.34l.23,1.62a17.57,17.57,0,0,1-6.17,1.13c-2.57,0-4.5-.57-5.46-1.57a3.4,3.4,0,0,1-1-2.31,3.93,3.93,0,0,1,2.37-3.43,9.06,9.06,0,0,1,4.08-.77,10.51,10.51,0,0,1,4.34.75A26.34,26.34,0,0,1,326,6.7c-.23-.44-.23-.49-.35-.7a60.29,60.29,0,0,1-7.48.55,4.91,4.91,0,0,0-.82.06Z"/>
        <path class="cls-1" d="M336.69,13.61a32.66,32.66,0,0,0,3.7-3.55c0-.84.06-2.17.12-4a22.83,22.83,0,0,0-3.29.29l-.09-1.45a4.54,4.54,0,0,0,.65,0l2.75-.16c.07-1.6.09-2.55.09-2.82a9,9,0,0,0-.06-1l1.65,0A26.62,26.62,0,0,0,342,4.66a1.43,1.43,0,0,0,.42-.1l.55.65a6.9,6.9,0,0,0-1.07,1.3,3.64,3.64,0,0,1,0,.52c0,.42,0,.42,0,1.41a1.18,1.18,0,0,1,0,.19c0,.17,0,.21,0,.33l0,0a14.71,14.71,0,0,1,2.67-2.46C346.37,5,348,4.22,349.21,4.22a2.28,2.28,0,0,1,2.45,2.46,13.74,13.74,0,0,1-.48,3.06,22.78,22.78,0,0,0-.9,5c0,1,.44,1.49,1.26,1.49a2.52,2.52,0,0,0,1.78-1.16,8.36,8.36,0,0,0,1.2-2.41,7.13,7.13,0,0,0,1,1.43,9.88,9.88,0,0,1-1.3,2.08,3.63,3.63,0,0,1-2.9,1.51,2.57,2.57,0,0,1-1.46-.44,2.61,2.61,0,0,1-1-2.4c0-1.07,0-1.3.8-4.89a15.52,15.52,0,0,0,.52-3.15A1.06,1.06,0,0,0,349,5.65a5.94,5.94,0,0,0-3.17,1.43,33.74,33.74,0,0,0-4.06,3.56v4.54a29.39,29.39,0,0,0,.07,3.49H340.2a17.42,17.42,0,0,0,.15-3.47c0-2.46,0-2.46.06-3.4h0a2.49,2.49,0,0,1-.38.5l-1,1.16-.88,1a4.16,4.16,0,0,0-.55.67Z"/>
        <path class="cls-1" d="M358.28,3.86H359c.29,0,.54,0,1.19-.06,2.5-.19,9.22-.57,11.93-.69a15.58,15.58,0,0,0,2.5-.23l.12,1.57a10.2,10.2,0,0,0-2.35.27,10.8,10.8,0,0,0-4,2.12,6.42,6.42,0,0,0-2.58,4.85,4.11,4.11,0,0,0,2.94,3.89,10.68,10.68,0,0,0,3.15.67h.21l-.28,1.7-.65-.12a10.55,10.55,0,0,1-4.53-1.62,5.11,5.11,0,0,1-2.33-4.28c0-2.44,1.43-4.77,3.92-6.45a13,13,0,0,1,2-1.11,41.58,41.58,0,0,1-4.62.46,60.81,60.81,0,0,0-7.24.69Z"/>
        <path class="cls-1" d="M381.84,2.86a15.64,15.64,0,0,0-.15,2.49,36.32,36.32,0,0,0,.55,6.53c.46,2.15,1.32,3.59,2.12,3.59.38,0,.74-.35,1.05-1.05a15.07,15.07,0,0,0,1.09-3.59,6.73,6.73,0,0,0,1.24,1.2c-1,3.68-2,5.08-3.48,5.08-1.18,0-2.27-1.17-3-3.19s-1-4.68-1.13-9.85a12.13,12.13,0,0,0-.06-1.24ZM392,4a18.13,18.13,0,0,1,3,4.78,20.56,20.56,0,0,1,1.57,5.61l-1.49.61A18.5,18.5,0,0,0,390.7,4.62Z"/>
        <path class="cls-1" d="M403.2,2.08a10.19,10.19,0,0,0,2,.12c1.75,0,4.54-.12,6.43-.27a2.06,2.06,0,0,0,1-.23l.89,1.16c-.3.14-.4.23-1.07.88a54.74,54.74,0,0,1-6.91,6l0,.06a10.66,10.66,0,0,1,5.14-1.3c3.51,0,5.76,1.72,5.76,4.41,0,3.28-3.05,5.44-7.71,5.44-3,0-4.66-1.09-4.66-3,0-1.41,1.3-2.46,3.05-2.46a4.24,4.24,0,0,1,3.46,1.72,6.13,6.13,0,0,1,1,2c2.2-.61,3.36-1.89,3.36-3.68,0-2-1.68-3.21-4.52-3.21a13.46,13.46,0,0,0-8.84,3.59l-.94-1.34a24.77,24.77,0,0,0,2.94-2.15c2.24-1.78,5.56-4.7,7-6.13l.29-.29.09-.08.08-.09,0,0-.19,0c-.67.13-3.19.27-6.38.38a11,11,0,0,0-1.14.1Zm3.95,12c-1,0-1.7.5-1.7,1.3a1.44,1.44,0,0,0,.84,1.28,5.37,5.37,0,0,0,2.35.48,7.34,7.34,0,0,0,1.53-.15C409.71,15,408.66,14,407.15,14Z"/>
        <path class="cls-1" d="M422.88,2.18a9.34,9.34,0,0,0-.13-1.93h1.58a10.18,10.18,0,0,0-.13,1.93v.59h3.46a8.57,8.57,0,0,0,1.75-.13V4.07A9.56,9.56,0,0,0,427.66,4H424.2V7.37c2-.34,2.67-.48,5.31-1.09V7.41c-2.88.69-5.23,1.18-7.39,1.55a10.46,10.46,0,0,0-1.62.34l-.23-1.45a17.4,17.4,0,0,0,2.61-.27Zm11.08,8a17.55,17.55,0,0,0,2.27-.1,21.13,21.13,0,0,0-.08,2.31v4.78a14,14,0,0,0,.12,2.1h-1.43v-1H424.66v1h-1.41a12.9,12.9,0,0,0,.13-2.1V12.35A22.84,22.84,0,0,0,423.3,10a17,17,0,0,0,2.24.1h2.52a8.71,8.71,0,0,0,.86-1.93l1.43.36a13.35,13.35,0,0,1-.86,1.57Zm-9.3,3.38h10.18V11.25H424.66Zm0,3.59h10.18v-2.5H424.66Zm7.12-10.54c0,.63.21.69,2.5.69,1.84,0,2.45-.08,2.71-.35a6.27,6.27,0,0,0,.52-2.84,3.13,3.13,0,0,0,1.24.55c-.21,2.31-.46,3.11-1.07,3.48s-1.28.36-3.78.36c-2.88,0-3.44-.25-3.44-1.47V2.1a12.06,12.06,0,0,0-.13-1.85h1.57a8.58,8.58,0,0,0-.12,1.83V3.36a21.84,21.84,0,0,0,2.48-.82,13.86,13.86,0,0,0,3.29-1.6l.91,1.14c-1,.42-1,.42-2.17.92a34.17,34.17,0,0,1-4.51,1.51Z"/>
        <path class="cls-1" d="M444.21,2.39a13.16,13.16,0,0,0-.1-2.18h1.47a12.93,12.93,0,0,0-.11,2.16V4.43h.82a7.93,7.93,0,0,0,1.32-.08V5.63a10.52,10.52,0,0,0-1.32-.07h-.76a11.78,11.78,0,0,0,2,3.43,9.21,9.21,0,0,0-.74,1.13,14.31,14.31,0,0,1-1.36-2.94c.06,1.76.08,2.69.08,3.42V17a16.08,16.08,0,0,0,.13,2.44h-1.51a18.73,18.73,0,0,0,.12-2.44V11c0-.84,0-.84.06-1.85a8.54,8.54,0,0,0,.07-1c0-.17,0-.42,0-.78A17.42,17.42,0,0,1,443,11.42a17.52,17.52,0,0,1-1.39,2.37,5.32,5.32,0,0,0-.8-1.3,12.17,12.17,0,0,0,2-3.32A21.18,21.18,0,0,0,444,5.56h-1.09a8.24,8.24,0,0,0-1.47.09V4.35a9,9,0,0,0,1.47.08h1.3Zm5.48,1.91a9.87,9.87,0,0,0-1.82.11V3.09a11.32,11.32,0,0,0,1.84.1h1.12A10.32,10.32,0,0,0,449.46.88L450.57.4a13.28,13.28,0,0,1,1.52,2.79h2.43A13.69,13.69,0,0,0,456,.36l1.24.44c-.34.67-1,1.89-1.35,2.39h1.85a11.6,11.6,0,0,0,1.91-.13V4.43a12.62,12.62,0,0,0-1.91-.13h-3.82V6.11H457A10.66,10.66,0,0,0,459,6V7.37a12.21,12.21,0,0,0-1.89-.11h-3.19V9.15H458A13.16,13.16,0,0,0,459.9,9v1.36a13.25,13.25,0,0,0-1.89-.12h-4a11.4,11.4,0,0,0,1.72,3.15A11.47,11.47,0,0,0,458,10.71l1.07.75a16.46,16.46,0,0,1-2.63,2.86,11.91,11.91,0,0,0,4,2.94,5.54,5.54,0,0,0-.88,1.22,15,15,0,0,1-3.09-2.42,13.42,13.42,0,0,1-2.77-4.28,17,17,0,0,1,.17,2.08V17.8c0,1.14-.4,1.43-2,1.43a16.63,16.63,0,0,1-1.72-.08,3.45,3.45,0,0,0-.38-1.32,13.71,13.71,0,0,0,2.08.18c.6,0,.73-.08.73-.46v-3a27.81,27.81,0,0,1-4.45,2.71,9.55,9.55,0,0,0-1,.57l-.6-1.39a21.91,21.91,0,0,0,6-3.19v-3h-3.27a11.06,11.06,0,0,0-1.81.1V9.07a14.89,14.89,0,0,0,1.83.08h3.25V7.26h-2.33a10.91,10.91,0,0,0-1.83.11V6a9.58,9.58,0,0,0,1.79.11h2.37V4.3Zm-.77,6.45a19.53,19.53,0,0,1,2,2.54l-1,.69a12.88,12.88,0,0,0-2-2.58Z"/>
        <path class="cls-1" d="M467,1.6A31.9,31.9,0,0,0,466.07,5a31,31,0,0,0-.63,6.57c0,1.63.05,2.87.13,4a19.29,19.29,0,0,1,1.36-4.1l1,.48a18.43,18.43,0,0,0-1.7,5.78V18l-1.51.13c0-.34-.06-.44-.13-.84a30,30,0,0,1-.54-5.94A34.94,34.94,0,0,1,465,3a12.93,12.93,0,0,0,.3-1.68ZM472.31,10a4.87,4.87,0,0,0-1.58,3.08c0,1.56,1.33,2.31,4,2.31a13.91,13.91,0,0,0,4.83-.73l.2,1.61c-.27,0-.31.05-.73.11a22,22,0,0,1-4.3.42c-2.4,0-3.91-.51-4.81-1.6a3,3,0,0,1-.63-1.93,5.78,5.78,0,0,1,1.82-3.9Zm-2.67-6.22a14.29,14.29,0,0,0,3.57.32,22.46,22.46,0,0,0,5.63-.57l.1,1.49-1.44.19a35.2,35.2,0,0,1-4.52.27,27.5,27.5,0,0,1-3.36-.21Z"/>
        <path class="cls-1" d="M487.85,1.51a30,30,0,0,0-1.62,9.85c0,.73,0,2,.09,2.94,0,.17,0,.21,0,.59v.4l.08,0a18.92,18.92,0,0,1,1.24-3.7,2.17,2.17,0,0,0,.17-.42l1,.48a18.12,18.12,0,0,0-1.81,6,2.48,2.48,0,0,0,0,.42l-1.49.14c0-.19,0-.29-.12-.77a33.36,33.36,0,0,1-.59-6.24A35.51,35.51,0,0,1,486,2.56a9.22,9.22,0,0,0,.23-1.32ZM490,5.42a14.67,14.67,0,0,0,3.78.33c.82,0,1.39,0,2.25-.06,0-2,0-2,0-3.57a4.7,4.7,0,0,0-.07-.86h1.58a20.71,20.71,0,0,0-.15,3.3c0,.23,0,.56,0,1A14.09,14.09,0,0,0,501,4.81l.07,1.43-1.47.29a20.2,20.2,0,0,1-2.23.34c0,2.07.06,3.14.23,5.94a15.23,15.23,0,0,1,3.51,2.06l.52.35L501,16.69a11.42,11.42,0,0,0-3-2.18l-.21-.13-.19-.12a3.07,3.07,0,0,1,0,.54,3.59,3.59,0,0,1-.25,1.43c-.5,1.11-1.78,1.76-3.5,1.76-2.44,0-4-1.15-4-3s1.66-3,4-3a6,6,0,0,1,2.33.42C496.16,12,496.08,10,496,7c-.95,0-1.6.06-2.4.06S492,7,491.25,7a5.83,5.83,0,0,0-.67,0l-.36,0a1,1,0,0,0-.21,0h-.08Zm4,7.87c-1.64,0-2.71.69-2.71,1.74s1,1.7,2.44,1.7a2.9,2.9,0,0,0,2.14-.73,2.48,2.48,0,0,0,.4-1.64c0-.15,0-.63,0-.63A5.37,5.37,0,0,0,494,13.29Z"/>
        <path class="cls-1" d="M505.28,13.54A21.64,21.64,0,0,1,509.5,18l-1.17,1.12a21.05,21.05,0,0,0-4.14-4.58Z"/>
        <path class="cls-1" d="M4.91,53A17.51,17.51,0,0,0,2.67,53V51.38A9.94,9.94,0,0,0,5,51.53H15V41.39H5.4a18.62,18.62,0,0,0-2.42.1V39.81A11.22,11.22,0,0,0,5.4,40H15.47c.28,0,.57,0,1.1,0a15.59,15.59,0,0,0-.05,1.64V52.31a14.5,14.5,0,0,0,.11,1.91H15V53Z"/>
        <path class="cls-1" d="M25.09,52.75v1.49H23.48a11.45,11.45,0,0,0,.08-1.58V41.26a11.15,11.15,0,0,0-.08-1.63,15.91,15.91,0,0,0,1.64.06H36.31a11.34,11.34,0,0,0,1.63-.06,11.8,11.8,0,0,0-.06,1.63V52.62c0,.63,0,1.18.06,1.62H36.35V52.75ZM36.35,41.07H25.09V51.38H36.35Z"/>
        <path class="cls-1" d="M57.77,43.11A12.34,12.34,0,0,0,60.22,43V44.6a20.17,20.17,0,0,0-2.43-.1H53c-.16,2.94-.54,4.51-1.55,6.11A12.12,12.12,0,0,1,46.28,55a4.27,4.27,0,0,0-1.07-1.35,9.71,9.71,0,0,0,5.21-4.32,10.63,10.63,0,0,0,1.07-4.83H45.67a20.17,20.17,0,0,0-2.43.1V43a12.56,12.56,0,0,0,2.46.15h5.85c0-.78,0-1.2,0-1.85V39.75a10.51,10.51,0,0,0-.1-1.78h1.76a10.55,10.55,0,0,0-.1,1.78l0,1.51v1.85Z"/>
        <path class="cls-1" d="M77.82,41.07A5,5,0,0,0,79.59,41l.86.82c-.19.33-.19.33-.46,2.12a13.14,13.14,0,0,1-3.8,7.66A16.55,16.55,0,0,1,70,55a4.34,4.34,0,0,0-1-1.43,13.94,13.94,0,0,0,4.64-2c2.94-2,4.47-4.91,4.87-9.17H67.12v3.15c0,.67,0,1.15.06,1.55H65.46c0-.36.08-1,.08-1.57V42.69a14.37,14.37,0,0,0-.08-1.7,18.75,18.75,0,0,0,1.93.08h4.45V39a6.16,6.16,0,0,0-.11-1.34H73.5a8.58,8.58,0,0,0-.11,1.32v2.14Z"/>
        <path class="cls-1" d="M101.11,38.83a4.38,4.38,0,0,0-.92.88,36.18,36.18,0,0,1-4.92,4.22v9a14.27,14.27,0,0,0,.11,2.22H93.55a10.5,10.5,0,0,0,.13-2.18v-8a32.67,32.67,0,0,1-8.11,3.67,4.68,4.68,0,0,0-.81-1.4,29.61,29.61,0,0,0,10.89-5.44,17.2,17.2,0,0,0,4-4Z"/>
        <path class="cls-1" d="M111.61,38.58a10.83,10.83,0,0,0-.12,1.8c-.17,5.69-.34,7.24-1.14,9.37a12.75,12.75,0,0,1-3.63,5.18,4,4,0,0,0-1.26-1.13A10.42,10.42,0,0,0,109,49c.65-1.83.95-4.58.95-9a9.59,9.59,0,0,0-.09-1.49Zm5.21-.23a8.32,8.32,0,0,0-.13,1.84l-.12,12.69a9.83,9.83,0,0,0,3.9-2.44,10.29,10.29,0,0,0,2.48-4.2,5.68,5.68,0,0,0,1.18,1.22,11.93,11.93,0,0,1-4.22,5.39,14.35,14.35,0,0,1-3,1.54l-.67.25a2.7,2.7,0,0,0-.48.23l-.84-1a3.39,3.39,0,0,0,.15-1.42l.12-12.29a8.92,8.92,0,0,0-.08-1.87Z"/>
        <path class="cls-1" d="M142.94,54.66a39,39,0,0,0-6.71-6.49,22.45,22.45,0,0,1-4,3.76,27,27,0,0,1-4.11,2.52,4.74,4.74,0,0,0-1-1.39,16.58,16.58,0,0,0,4.26-2.41,22.79,22.79,0,0,0,7.5-9.47,2.16,2.16,0,0,1,.1-.25.34.34,0,0,0,.07-.15,3.86,3.86,0,0,1-.51,0l-7,.11a14.84,14.84,0,0,0-2.16.16l0-1.7a9.12,9.12,0,0,0,1.65.11h.55l7.5-.09a4.1,4.1,0,0,0,1.34-.16l.88.9a3.78,3.78,0,0,0-.59,1A25.4,25.4,0,0,1,137.15,47a52.09,52.09,0,0,1,7,6.3Z"/>
        <path class="cls-1" d="M164.32,41.94l-.57,1.13a15.45,15.45,0,0,1-1.95,3.3c.84,1.36,1.81,2.26,2.42,2.26.4,0,.69-.79.92-2.56a3.64,3.64,0,0,0,1.05.84c-.44,2.19-1,3-1.95,3s-2.23-1-3.24-2.54a14.36,14.36,0,0,1-3,2.54,3.84,3.84,0,0,0-.92-.88,12.42,12.42,0,0,0,3.28-2.71,17.42,17.42,0,0,1-1.58-6.07h-8.54c0,6.07-.38,8.09-1.79,10.25a3,3,0,0,0-1.18-.84C148.66,47.71,149,46,149,41a20.1,20.1,0,0,0-.1-2c.67.06,1.47.1,2.48.1h7.32l-.12-1.34a3.57,3.57,0,0,0-.13-.84h1.49a7.37,7.37,0,0,0-.06,1c0,.32,0,.61.06,1.2h3.4a12,12,0,0,0-2.43-1.59l.86-.72a16.33,16.33,0,0,1,2.48,1.58l-.78.73a11.85,11.85,0,0,0,2.37-.13v1.37a17.73,17.73,0,0,0-2.35-.11h-3.42a16.61,16.61,0,0,0,1.18,5,11.85,11.85,0,0,0,1.84-3.8ZM151,50.9a11.84,11.84,0,0,1-2.46,4.52l-1.13-.8a8.88,8.88,0,0,0,2.44-4.29Zm7.16-8a12.28,12.28,0,0,0-1.62-.08h-4a13.15,13.15,0,0,0-1.63.08V41.64a10.5,10.5,0,0,0,1.63.09h4a10.44,10.44,0,0,0,1.62-.09Zm-6.72,2.44a10.18,10.18,0,0,0-.06-1.18,13.84,13.84,0,0,0,1.43.06h3.38a14.27,14.27,0,0,0,1.45-.06,7.53,7.53,0,0,0-.07,1.15v1.92c0,.48,0,.58,0,1.19a13.43,13.43,0,0,0-1.4,0h-3.43a12,12,0,0,0-1.4.06,9.09,9.09,0,0,0,.06-1.17ZM153.8,54c0,.48.3.54,3,.54,2.26,0,3.08-.12,3.38-.48a3.42,3.42,0,0,0,.33-1.81,4.09,4.09,0,0,0,1.28.53c-.29,2.79-.56,2.94-5.45,2.94-3.3,0-3.87-.21-3.87-1.45V51.87a8.6,8.6,0,0,0-.12-1.56h1.51a7,7,0,0,0-.11,1.43Zm-1.19-6.66h3.82v-2.1h-3.82Zm5.66,5.57a14.87,14.87,0,0,0-3.4-2.48l.82-.78A17.34,17.34,0,0,1,159.14,52ZM163,50.5a22.38,22.38,0,0,1,2.85,4l-1.13.67A18.75,18.75,0,0,0,161.91,51Z"/>
        <path class="cls-1" d="M184.4,48.17a15.13,15.13,0,0,0,2.37-.13v1.41a20.42,20.42,0,0,0-2.37-.12h-5.19a12.71,12.71,0,0,0,2.52,2,21.16,21.16,0,0,0,5.75,2.44,5.68,5.68,0,0,0-.9,1.28,23,23,0,0,1-5.14-2.46,12.85,12.85,0,0,1-3.19-2.81c.06,1.13.08,1.91.08,2.37V54a8.39,8.39,0,0,0,.15,2.2h-1.6A13.53,13.53,0,0,0,177,54V52.2c0-.44,0-1.59.08-2.37a19.2,19.2,0,0,1-8,5.21,4.37,4.37,0,0,0-.94-1.22,19.11,19.11,0,0,0,8-4.49h-5a20.18,20.18,0,0,0-2.35.12V48a12.31,12.31,0,0,0,2.31.13H177v-.63a6.37,6.37,0,0,0-.11-1.43h1.54a8.52,8.52,0,0,0-.09,1.43v.63Zm-15-8.1a15.49,15.49,0,0,1,3.31,1.72l-.75,1A11.49,11.49,0,0,0,168.63,41Zm5.22,3.38A30.14,30.14,0,0,1,170,46.68a3.13,3.13,0,0,0-.5.34l-.69-1.24a16.88,16.88,0,0,0,5.37-3.42Zm-3.69-6.13a15.13,15.13,0,0,1,3.36,1.82l-.76,1a12.62,12.62,0,0,0-3.4-1.87Zm10.52,2.12a16.39,16.39,0,0,0,1.85-.07,12.12,12.12,0,0,0-.09,1.73v3.25c0,.59.06.63,1,.63,1.09,0,1.4-.08,1.49-.44a11.23,11.23,0,0,0,.17-2.27,3.51,3.51,0,0,0,1.21.48c-.21,3.24-.35,3.41-3,3.41-1.8,0-2.14-.24-2.14-1.43V40.57h-2.41A7.89,7.89,0,0,1,174.38,47a3.3,3.3,0,0,0-.82-1,7.38,7.38,0,0,0,3.7-2.67,6.81,6.81,0,0,0,1-2.73h-1.18a13,13,0,0,0-2.12.11V39.31a10.35,10.35,0,0,0,2.14.13h1.3c0-.42.05-.76.05-1.24a7.76,7.76,0,0,0-.09-1.24l1.47,0a5.57,5.57,0,0,0-.08,1c0,.38-.07,1.05-.09,1.47Z"/>
        <path class="cls-1" d="M199,38.62a8.61,8.61,0,0,0-.13-1.68h1.6a6.83,6.83,0,0,0-.13,1.7V39h5.25a18.43,18.43,0,0,0,2.33-.12V40.3a15.3,15.3,0,0,0-2.31-.11H193.58V44c0,6-.88,9.15-3.26,11.84a3.38,3.38,0,0,0-1.13-.93,10.89,10.89,0,0,0,2.9-7.09c-.4.25-1.16.69-2.27,1.3a3.53,3.53,0,0,0-.51.29l-.58-1.32a16.3,16.3,0,0,0,3.46-1.55c.06-1.08.09-1.64.09-2.36a38.71,38.71,0,0,0-.15-5.35,20.26,20.26,0,0,0,2.39.1H199Zm-9,2a20.88,20.88,0,0,1,1.55,3.89l-1.11.56A17.86,17.86,0,0,0,189,41.14Zm10.37,3.24h-3.65a20.11,20.11,0,0,0-2.08.08V42.54a13.24,13.24,0,0,0,2.08.11h8.86a13.73,13.73,0,0,0,2.06-.13V44a15.12,15.12,0,0,0-2.06-.1h-3.86v3.84h3.44a9.8,9.8,0,0,0,1.83-.11V49a11.44,11.44,0,0,0-1.81-.1h-3.46v5H206a16.39,16.39,0,0,0,2.21-.13v1.47a16.94,16.94,0,0,0-2.23-.13H194.82a17.72,17.72,0,0,0-2.33.13V53.84a13.18,13.18,0,0,0,2.09.11H196V48.42a16.63,16.63,0,0,0-.12-2.05h1.59a16.4,16.4,0,0,0-.12,2.05V54h3.06Z"/>
        <path class="cls-1" d="M214.62,39.27a11.24,11.24,0,0,0-.13-2.12h1.56a14.52,14.52,0,0,0-.11,2.12v1.41h2a13.32,13.32,0,0,0,1.93-.13V42a13.51,13.51,0,0,0-1.91-.09,20.2,20.2,0,0,1-1.49,6.62,41.51,41.51,0,0,1,3,4.41l-1.05,1a39.23,39.23,0,0,0-2.56-4.11,17.06,17.06,0,0,1-4.66,5.6,3.71,3.71,0,0,0-1-1A14.7,14.7,0,0,0,215,48.65a37.4,37.4,0,0,0-3.8-4.28l1-.84a46.78,46.78,0,0,1,3.38,3.8,18.94,18.94,0,0,0,1-5.46h-4.36a10.28,10.28,0,0,0-1.87.11V40.55a13.11,13.11,0,0,0,1.93.13h2.33Zm6.09,5.63a24.1,24.1,0,0,1,3.11,4.68l-1.16.8a18.29,18.29,0,0,0-3-4.83ZM222,43.15a13.3,13.3,0,0,0-2,.13V41.85a11.31,11.31,0,0,0,2,.11h3.28V39.61a11.5,11.5,0,0,0-.15-2.29h1.62a13.59,13.59,0,0,0-.13,2.29V42h.53a13.39,13.39,0,0,0,2-.13v1.45a12,12,0,0,0-2.06-.13h-.5V54c0,1.38-.42,1.7-2.31,1.7-.94,0-1.47,0-2.39-.07a5.12,5.12,0,0,0-.44-1.4,21.2,21.2,0,0,0,2.68.23c.95,0,1.12-.09,1.12-.53V43.15Z"/>
        <path class="cls-1" d="M234.46,40.07a14.37,14.37,0,0,1-2.24,2.54,4.16,4.16,0,0,0-1-.88A9.84,9.84,0,0,0,234.67,37l1.35.38c-.63,1.15-.63,1.15-.86,1.55h3.34a14,14,0,0,0,2.1-.12v1.34a18.21,18.21,0,0,0-1.94-.08h-1.47a17.56,17.56,0,0,1,1.14,2l-1.2.44A14.56,14.56,0,0,0,236,40.07Zm13.42,3.27a11.06,11.06,0,0,0,2.1-.14v1.4a16,16,0,0,0-2.1-.12H241.2V46H246c.17,0,.59,0,1.26,0A6.15,6.15,0,0,0,248,46a12.07,12.07,0,0,0-.09,1.8v1.77c0,1-.44,1.38-1.8,1.38a12.36,12.36,0,0,1-1.37-.08,3.68,3.68,0,0,0-.31-1.16,7,7,0,0,0,1.51.17c.52,0,.71-.13.71-.5V47.16H241.2v1.26a14.28,14.28,0,0,0,4.52,3.87,19.49,19.49,0,0,0,4.51,1.82,5.34,5.34,0,0,0-.92,1.26,18.5,18.5,0,0,1-8.21-5.46c0,.7.06,1.26.08,1.79v2.14a8.81,8.81,0,0,0,.17,2.27h-1.57a13.81,13.81,0,0,0,.14-2.27V51.72c0-.52,0-1.07.05-1.74a18,18,0,0,1-7.52,5.39,4.73,4.73,0,0,0-1-1.17,21.81,21.81,0,0,0,4.18-1.91,13.76,13.76,0,0,0,4.26-3.85V47.16H235v2.38a14.28,14.28,0,0,0,.08,1.93h-1.47a16.58,16.58,0,0,0,.11-2v-1.7c0-.71,0-1.24-.09-1.82a19.37,19.37,0,0,0,2,.08h4.36V44.48h-6.11a14.68,14.68,0,0,0-2.05.12V43.2a11.6,11.6,0,0,0,2.05.14h6.09a8.64,8.64,0,0,0-.08-1.3h1.47a6.63,6.63,0,0,0-.09,1.3Zm-5.67-3.27A10.69,10.69,0,0,1,240.76,42a3.24,3.24,0,0,0-1-.72A8.91,8.91,0,0,0,242.34,37l1.3.4c-.36.78-.5,1-.76,1.55h5a16.86,16.86,0,0,0,2.25-.12v1.36a18.07,18.07,0,0,0-2.21-.1h-2.47a14.6,14.6,0,0,1,1.15,2l-1.15.47a15.6,15.6,0,0,0-1.26-2.52Z"/>
        <path class="cls-1" d="M260.8,48.88c-1.22,2.78-2.46,4-4,4-2,0-3.49-2.19-3.49-5.13a8.53,8.53,0,0,1,9-8.58,8.09,8.09,0,0,1,5.77,2.08,7,7,0,0,1,2,5.12,7.64,7.64,0,0,1-4.81,7.24,16.34,16.34,0,0,1-3.19,1,3.27,3.27,0,0,0-.73-1.41,12.16,12.16,0,0,0,3.5-1,6.33,6.33,0,0,0,3.72-5.88,5.55,5.55,0,0,0-3.34-5.27,6.14,6.14,0,0,0-2.44-.52A31.37,31.37,0,0,1,260.8,48.88Zm-2.59-7.32a7.25,7.25,0,0,0-3.42,6.25c0,2,.88,3.57,2,3.57.88,0,1.72-1,2.62-3a28.71,28.71,0,0,0,1.91-7.77A6.69,6.69,0,0,0,258.21,41.56Z"/>
        <path class="cls-1" d="M274.55,41.29a15.34,15.34,0,0,0,2.63.18c.42,0,.65,0,1.26,0a20.43,20.43,0,0,0,.46-3.86l1.66.17a17.45,17.45,0,0,0-.38,2c-.1.67-.17,1-.27,1.6a17.15,17.15,0,0,0,3.78-.72l.1,1.45a4.68,4.68,0,0,0-.59.11,29.83,29.83,0,0,1-3.54.5c-.32,1.66-.91,4-1.47,5.94A57,57,0,0,1,275.77,55l-1.53-.65a42.48,42.48,0,0,0,3.95-11.62c-.42,0-.68,0-1.45,0s-.93,0-1.75-.05h-.08l-.36,0Zm9.39,7.62a7.34,7.34,0,0,0-.63.79,2.52,2.52,0,0,0-.53,1.5c0,1.26,1.28,1.93,3.68,1.93a15.63,15.63,0,0,0,4.64-.72l.15,1.58-.93.14a20.25,20.25,0,0,1-3.74.36c-3.44,0-5.22-1.07-5.22-3.15,0-.94.29-1.59,1.4-3Zm6.49-3.64a22.21,22.21,0,0,0-2.48-.14,18.44,18.44,0,0,0-5.25.71l-.15-1.43a24.06,24.06,0,0,1,5.57-.69c.4,0,.71,0,2.29.06Z"/>
        <path class="cls-1" d="M299.44,38.66a25.89,25.89,0,0,0,.57,3.65,10,10,0,0,1,4.49-1.05,6.5,6.5,0,0,1,.69,0,23,23,0,0,0,.65-3.39l1.58.34a15.66,15.66,0,0,0-.57,2.21c-.11.35-.15.58-.25,1,3.48.65,5.56,2.94,5.56,6.11a6.61,6.61,0,0,1-2.29,5,11.15,11.15,0,0,1-4.24,2.08l-1.32.31a3.45,3.45,0,0,0-.82-1.4,9.67,9.67,0,0,0,3.13-.78,6.8,6.8,0,0,0,3.15-2.29,5.15,5.15,0,0,0,.92-3c0-2.56-1.53-4.24-4.43-4.85a23.63,23.63,0,0,1-4.07,8.23c-1.34,1.64-2.52,2.39-3.74,2.39-1.83,0-3-1.63-3-4.11a7.51,7.51,0,0,1,1.22-4,7.85,7.85,0,0,1,2.1-2.14c-.15-.67-.4-1.91-.59-3a4.84,4.84,0,0,0-.28-1.12Zm-1.81,7.52a6.29,6.29,0,0,0-.84,2.94c0,1.66.67,2.75,1.7,2.75.74,0,1.64-.63,2.59-1.79a28.65,28.65,0,0,1-2-5.65A6.2,6.2,0,0,0,297.63,46.18ZM302,48.93c.11-.21.11-.23.25-.47a23.69,23.69,0,0,0,2.56-5.94l-.52,0a7.88,7.88,0,0,0-4.05,1.07,30.18,30.18,0,0,0,1.57,4.87,2.89,2.89,0,0,1,.17.49Z"/>
        <path class="cls-1" d="M323.9,47.25H319a14.06,14.06,0,0,0-2,.1v-1.3a12.66,12.66,0,0,0,2,.11h4.89V44.79h-4.39a12,12,0,0,0-1.72.09,10.56,10.56,0,0,0,.09-1.41v-.93a10.82,10.82,0,0,0-.09-1.42,14.75,14.75,0,0,0,1.74.08h4.37V39.81h-6.09a18.64,18.64,0,0,0-2.35.13V38.55a14.74,14.74,0,0,0,2.39.13h6a8.89,8.89,0,0,0-.12-1.89h1.53a6.69,6.69,0,0,0-.15,1.89h6.43a15,15,0,0,0,2.41-.13v1.39a19.35,19.35,0,0,0-2.37-.13h-6.47V41.2H330a14,14,0,0,0,1.72-.08,10.66,10.66,0,0,0-.08,1.42v.93a10.5,10.5,0,0,0,.08,1.41,11.84,11.84,0,0,0-1.7-.09h-4.85v1.37h4.58a20.82,20.82,0,0,0,2.35-.09,17.4,17.4,0,0,0-.06,1.74v.89a10.2,10.2,0,0,0,2.22-.13v1.32a14.88,14.88,0,0,0-2.22-.1v1.36a13,13,0,0,0,.12,2.1h-1.36v-.86h-5.63v1.74c0,1.45-.42,1.75-2.45,1.75-.44,0-.82,0-2-.09a3.31,3.31,0,0,0-.36-1.32,17.89,17.89,0,0,0,2.61.21c.75,0,.94-.1.94-.57V52.39h-5.06a13.27,13.27,0,0,0-2.06.11V51.2a13.24,13.24,0,0,0,2,.1h5.1V49.79h-6.3a16.07,16.07,0,0,0-2.29.1V48.57a14.11,14.11,0,0,0,2.29.13h6.3Zm-4.76-5v1.55h4.76V42.23Zm6,1.55h5.21V42.23h-5.21Zm5.63,4.92V47.25h-5.63V48.7Zm-5.63,2.6h5.63V49.79h-5.63Z"/>
        <path class="cls-1" d="M342.7,40.07a15.94,15.94,0,0,0-2.25-2.92l1.26-.51a16.81,16.81,0,0,1,2.44,3.43h3a14.34,14.34,0,0,0,2.37-3.4l1.34.5a23.64,23.64,0,0,1-2.26,2.9h4.3a12.73,12.73,0,0,0,2.1-.13v1.43a15,15,0,0,0-2.1-.13H338.58a15.61,15.61,0,0,0-2.1.13V39.94a10,10,0,0,0,2.1.13Zm-3.47,13.6a12.9,12.9,0,0,0,.13,2.23h-1.53a16.81,16.81,0,0,0,.1-2.27V44.81c0-1,0-1.38-.06-1.87a18.12,18.12,0,0,0,2,.09h3.29a10.84,10.84,0,0,0,1.91-.09c0,.49-.06,1-.06,2.23v8.9c0,1.26-.4,1.62-1.76,1.62-.44,0-1,0-1.75-.09a5.76,5.76,0,0,0-.33-1.3,9.54,9.54,0,0,0,1.82.21c.61,0,.74-.1.74-.54V51.15h-4.54Zm4.54-7.14V44.22h-4.54v2.31Zm0,3.45V47.71h-4.54V50Zm5.46-6.78a9.82,9.82,0,0,0-.11,2v4.26a12.56,12.56,0,0,0,.09,2.37h-1.47a18.17,18.17,0,0,0,.08-2.35V45.17a12,12,0,0,0-.1-2Zm4.51-.63a12.42,12.42,0,0,0-.12,2.26v9.09c0,1.47-.44,1.85-2.17,1.85-.71,0-1.4,0-2.45-.12a5.56,5.56,0,0,0-.4-1.41,16.46,16.46,0,0,0,2.71.27c.81,0,1-.08,1-.63V44.79a11.47,11.47,0,0,0-.12-2.22Z"/>
        <path class="cls-1" d="M373.86,39a26,26,0,0,1-5.69,4c.59.42.84.59,1.64,1.2l-.55.55h3.8a11.83,11.83,0,0,0,2.23-.11l.82.9a7.05,7.05,0,0,0-.57.7,16.84,16.84,0,0,1-3.68,3.67,4.85,4.85,0,0,0-1.09-.86,14.09,14.09,0,0,0,3.36-3h-6.38v8.14c0,1.35-.5,1.7-2.46,1.7-.65,0-1.76,0-2.47-.1a5.43,5.43,0,0,0-.34-1.45,17.62,17.62,0,0,0,2.94.25c.71,0,.92-.14.92-.61V46h-6.51a16.54,16.54,0,0,0-2.16.12V44.58a14.88,14.88,0,0,0,2.33.13h8.4a30.69,30.69,0,0,0-5.79-3.57l.86-.93c1.84,1,2.56,1.37,3.57,2a20.58,20.58,0,0,0,4.47-3h-9.72a14.77,14.77,0,0,0-2.17.1V37.9a12.06,12.06,0,0,0,2.21.13h9.61A14.92,14.92,0,0,0,373,38Z"/>
        <path class="cls-1" d="M378.23,46.13a4.06,4.06,0,0,0,.76.07l1.07,0c.77-.93,1-1.2,1.59-2a20.45,20.45,0,0,0-3.19-3.21l.78-1c.46.44.57.53.9.86a15.39,15.39,0,0,0,2.08-3.88l1.3.59a6,6,0,0,0-.48.79A32,32,0,0,1,381,41.6c.63.63,1,1,1.41,1.53a21.6,21.6,0,0,0,2.41-4l1.24.74c-.19.25-.31.44-.61.86a46.5,46.5,0,0,1-3.88,5.31c1.57-.1,2-.12,3.4-.31a17.3,17.3,0,0,0-.84-1.66l1-.38a22.07,22.07,0,0,1,1.85,4l-1.07.48c-.21-.67-.27-.86-.48-1.4a3.51,3.51,0,0,1-.53.06l-1.45.17v6.9a15.86,15.86,0,0,0,.13,2.15H382a16.38,16.38,0,0,0,.12-2.17V47.14c-1.55.15-1.55.15-2.35.21a8.87,8.87,0,0,0-1.28.15Zm2.58,2.61a18.62,18.62,0,0,1-1.38,5.94l-1.16-.55a15.34,15.34,0,0,0,1.39-5.62Zm4.77-.36a33.52,33.52,0,0,1,1.24,5l-1.22.4a27.63,27.63,0,0,0-1.07-5.06Zm3.55-6.63A16.34,16.34,0,0,1,387,45a3.9,3.9,0,0,0-1.1-.82,13.47,13.47,0,0,0,2.36-3.59,13.21,13.21,0,0,0,1.17-3.46l1.43.36c-.17.39-.17.39-.55,1.44-.16.47-.33.89-.61,1.56h5.25a10.31,10.31,0,0,0,1.7-.09c-.06.61-.06.61-.1,3.24a52.85,52.85,0,0,1-.9,9.51c-.49,2-1,2.45-3,2.45-.61,0-1.38,0-2.22-.12a5.31,5.31,0,0,0-.36-1.45,16.44,16.44,0,0,0,2.79.27c1,0,1.22-.25,1.52-1.59a59.26,59.26,0,0,0,.9-11Zm2.22,8.42A20.19,20.19,0,0,0,388.48,45l1.09-.63a25.6,25.6,0,0,1,3,5.12Z"/>
        <path class="cls-1" d="M407.8,48.88c-1.22,2.78-2.46,4-4,4-2,0-3.49-2.19-3.49-5.13a8.53,8.53,0,0,1,9-8.58,8.09,8.09,0,0,1,5.77,2.08,7,7,0,0,1,2,5.12,7.64,7.64,0,0,1-4.81,7.24,16.34,16.34,0,0,1-3.19,1,3.27,3.27,0,0,0-.73-1.41,12.16,12.16,0,0,0,3.5-1,6.33,6.33,0,0,0,3.72-5.88,5.55,5.55,0,0,0-3.34-5.27,6.14,6.14,0,0,0-2.44-.52A31.37,31.37,0,0,1,407.8,48.88Zm-2.59-7.32a7.25,7.25,0,0,0-3.42,6.25c0,2,.88,3.57,2,3.57.88,0,1.72-1,2.62-3a28.71,28.71,0,0,0,1.91-7.77A6.69,6.69,0,0,0,405.21,41.56Z"/>
        <path class="cls-1" d="M426.17,47c-1.36,1.13-2,2.1-2,3.08s.61,1.66,1.78,2.06a13.18,13.18,0,0,0,3.85.42,19.63,19.63,0,0,0,6.29-.8l.19,1.73a7,7,0,0,0-.71.1,33.73,33.73,0,0,1-5.67.48,14.78,14.78,0,0,1-4.83-.65,3.34,3.34,0,0,1-2.39-3.17c0-1.36.8-2.69,2.41-4ZM424,39.37a23.75,23.75,0,0,0,5.58.51,23.13,23.13,0,0,0,5.31-.44l.11,1.38A32.28,32.28,0,0,0,429.68,44l-1.07-.86a33.49,33.49,0,0,1,3.71-2.22,16.56,16.56,0,0,1-3.17.27,40.83,40.83,0,0,1-4.62-.27l-.69-.06ZM434.44,43a16.34,16.34,0,0,1,2.15,3.25l-1,.63a17.06,17.06,0,0,0-2.14-3.34Zm2.29-1.24A16.25,16.25,0,0,1,438.92,45l-1.05.59a18,18,0,0,0-2.14-3.3Z"/>
        <path class="cls-1" d="M443.44,38.85a10,10,0,0,0-.15-1.87h1.62a8.66,8.66,0,0,0-.15,1.85v3.48H445a7,7,0,0,0,1.51-.1v1.38a10.42,10.42,0,0,0-1.49-.08h-.29V53.76a14.79,14.79,0,0,0,.15,2.26h-1.62a14.54,14.54,0,0,0,.15-2.28V43.51h-.55a14.54,14.54,0,0,0-1.74.08V42.21a9.72,9.72,0,0,0,1.74.1h.55Zm7.37,8.21a11.72,11.72,0,0,0,1.76-.09c0,.4,0,.63-.06,1.18a41.27,41.27,0,0,1-.42,5c-.32,2-.63,2.29-2.5,2.29-.28,0-.67,0-1,0a4,4,0,0,0-.27-1.33,7.34,7.34,0,0,0,1.57.19c.53,0,.74-.14.84-.54a29,29,0,0,0,.53-5.55H449.4a12.44,12.44,0,0,1-3.15,7.6,5.12,5.12,0,0,0-.9-1.09c1.66-1.55,2.45-3.36,2.85-6.51h-1a6.12,6.12,0,0,0-1.23.09V47a4.73,4.73,0,0,0,1.3.11h1c0-.46,0-.8,0-1.16a7,7,0,0,0-.06-1h1.38a11.07,11.07,0,0,0-.12,1.36c0,.29,0,.4-.05.8ZM457.12,39a12.94,12.94,0,0,0,1.66-.08,8,8,0,0,0-.08.88,14.36,14.36,0,0,1-.61,3.51,1.52,1.52,0,0,1-.9.82,4.94,4.94,0,0,1-1.35.12c-.58,0-1.3,0-2.1-.1a4.77,4.77,0,0,0-.27-1.32,13.23,13.23,0,0,0,2.56.25c.57,0,.8-.15,1-.57a10.13,10.13,0,0,0,.36-2.35h-4.62c-.89,2.2-2.33,3.53-5.11,4.72a4,4,0,0,0-.82-1.13c2.48-.84,3.83-1.89,4.6-3.59h-2.12a13.39,13.39,0,0,0-2,.1V38.87a14.53,14.53,0,0,0,2.1.1h2.45a6.91,6.91,0,0,0,.23-1.72,2.06,2.06,0,0,0,0-.35l1.53.08a10.66,10.66,0,0,0-.25,1.11c-.06.32-.1.51-.19.88Zm1.06,8.09a12.18,12.18,0,0,0,1.74-.09c0,.38,0,.8-.07,1.26-.16,3.51-.41,5.55-.81,6.41-.28.61-.84.84-2.06.84a9.19,9.19,0,0,1-1.41-.06,4,4,0,0,0-.27-1.33,9.52,9.52,0,0,0,1.89.21c.54,0,.73-.1.84-.46a25.62,25.62,0,0,0,.57-5.63h-2.27A15.58,15.58,0,0,1,455,53.15a9.2,9.2,0,0,1-1.82,2.64,3.85,3.85,0,0,0-.93-1c1.58-1.39,2.48-3.41,2.88-6.58h-.57a6.41,6.41,0,0,0-1.28.09V47a5.15,5.15,0,0,0,1.35.11h.61c0-.63.06-.93.06-1.3s0-.57,0-.88h1.36a13.87,13.87,0,0,0-.15,1.7c0,.18,0,.27,0,.48Z"/>
        <path class="cls-1" d="M477.16,41.41a17.92,17.92,0,0,0,2.46-.1c-.07.75-.07.75-.11,2.75a65.9,65.9,0,0,1-.73,8.86c-.38,1.82-1,2.39-2.69,2.39a25,25,0,0,1-3.74-.34A6.51,6.51,0,0,0,472,53.4a18.7,18.7,0,0,0,4,.52c1.12,0,1.39-.52,1.7-3.06a77.83,77.83,0,0,0,.47-8.17h-6.49a18.46,18.46,0,0,1-2.08,7.41,14.3,14.3,0,0,1-5.84,5.44,3.23,3.23,0,0,0-1.11-1.17,13.12,13.12,0,0,0,3.53-2.27c2.43-2.21,3.61-4.92,4.09-9.41h-4.11a17.69,17.69,0,0,0-2.59.13V41.29a19.11,19.11,0,0,0,2.61.12h4.18c.06-.94.08-1.62.08-2.48a11.12,11.12,0,0,0-.13-2H472a15,15,0,0,0-.1,1.7c0,1,0,1-.11,2.81Z"/>
        <path class="cls-1" d="M489.85,40.34a8.86,8.86,0,0,0,1-2.88l1.68.3a4.16,4.16,0,0,0-.54,1.13c-.28.67-.55,1.24-.65,1.43l.44,0a29.41,29.41,0,0,0,6.61-.8l.13,1.43a6.59,6.59,0,0,0-.84.1,67.92,67.92,0,0,1-6.93.55,15.58,15.58,0,0,1-1.89,3c-.21.25-.63.73-.72.8l-.27.21a0,0,0,0,1,0,0v0l0,.06c.76-.59.76-.59,1-.73a5.59,5.59,0,0,1,3.17-1,2.55,2.55,0,0,1,2.77,2.33c1.53-.61,2.73-1.05,3.65-1.39a4.61,4.61,0,0,0,1.43-.6l.67,1.46a34.82,34.82,0,0,0-5.6,1.85c0,.55,0,.76,0,1.28,0,.28,0,.74,0,1.16s0,.75,0,.94a4.84,4.84,0,0,0,0,.76l-1.43,0c.06-.46.13-1.74.13-3a5.74,5.74,0,0,0,0-.63c-2.86,1.34-3.95,2.33-3.95,3.59s1.3,2,4.26,2a17.43,17.43,0,0,0,5.61-.82l.19,1.62c-.32,0-.42,0-.84.1a31.82,31.82,0,0,1-5.11.42c-3.75,0-5.58-1.07-5.58-3.23,0-1.15.71-2.25,2.14-3.32a16.43,16.43,0,0,1,3.13-1.68c-.17-1.15-.67-1.66-1.66-1.66a7.89,7.89,0,0,0-4.68,2.23,7.09,7.09,0,0,0-1.62,1.74l-1.17-1.17a21.11,21.11,0,0,0,4.7-6l.19-.31a2.58,2.58,0,0,1-.4,0l-3.09-.06h-.33l-.47,0,0-1.45a28.93,28.93,0,0,0,4.49.23Z"/>
        <path class="cls-1" d="M11.61,78.79c-.25,0-.34.06-.63.13-1.72.35-2.73.52-3.72.63v3.63a14.8,14.8,0,0,1,4.52-.76,7.21,7.21,0,0,1,3.72.88,4.33,4.33,0,0,1-2.13,8.07A3.1,3.1,0,0,1,10.14,89a7.64,7.64,0,0,1-.25-2.37,4.62,4.62,0,0,0,1.38-.54,6.37,6.37,0,0,0,0,.81c0,2.19.63,3.09,2.17,3.09a2.79,2.79,0,0,0,2.81-3c0-2.06-1.74-3.34-4.49-3.34a14.13,14.13,0,0,0-4.46.82v5.25c0,1.13-.5,1.68-1.53,1.68a5.53,5.53,0,0,1-3.46-1.34,2.55,2.55,0,0,1-1-2A3.82,3.82,0,0,1,3,85.32a11.44,11.44,0,0,1,3-1.72v-4l-.84.06c-.38,0-.73,0-1.34,0-.32,0-.88,0-1.12,0H1.76V78.31a12.4,12.4,0,0,0,2.15.15c.56,0,1.38,0,2-.07V76.31a14.56,14.56,0,0,0-.1-2H7.37a12.31,12.31,0,0,0-.11,2v2a21.12,21.12,0,0,0,4.29-.91ZM5.92,85c-2.08,1-3.25,2.15-3.25,3.15,0,.44.29.86.9,1.26A3.89,3.89,0,0,0,5.44,90c.42,0,.48-.12.48-1ZM17.45,81a17.49,17.49,0,0,0-4.24-4.12l1.09-.82a17.91,17.91,0,0,1,4.24,4Z"/>
        <path class="cls-1" d="M26.77,78.08a13.18,13.18,0,0,0,.65-2.31H23.58c0,10.56-.33,13.35-1.91,16.65a4.86,4.86,0,0,0-1-1c1.3-2.65,1.68-5.88,1.68-14.53,0-1,0-1.81-.08-2.37a16.84,16.84,0,0,0,2.12.1h4.39A15,15,0,0,0,31,74.49v1.38a15,15,0,0,0-2.14-.1h-.19A17.29,17.29,0,0,1,28,78.08h1a15.84,15.84,0,0,0,1.7-.07c0,.47-.06.89-.06,1.64V84a14,14,0,0,0,.06,1.51c-.42,0-1,0-1.45,0h-.82v5.85c0,1-.34,1.24-1.76,1.24-.46,0-.76,0-1.18,0a4.09,4.09,0,0,0-.23-1.28,7.82,7.82,0,0,0,1.53.17c.36,0,.44-.07.44-.32V85.43h-1c-.46,0-1,0-1.47,0,0-.46.06-.91.06-1.51V79.5c0-.54,0-1-.06-1.49a16.58,16.58,0,0,0,1.76.07Zm-3.57,13A11,11,0,0,0,25,86.31l1.13.33a13.79,13.79,0,0,1-1.8,5ZM26,81.18h3.5v-2H26Zm0,3.17h3.5v-2.1H26Zm4.26,2a20.23,20.23,0,0,1,1.07,3.27l-1.09.45a17,17,0,0,0-1-3.36Zm4.53,3.55A13.84,13.84,0,0,1,30.85,93a4.09,4.09,0,0,0-1-1,9.67,9.67,0,0,0,3.88-2.8ZM33.49,75.75a10.58,10.58,0,0,0-2,.12V74.46a10.22,10.22,0,0,0,2.06.13h4.6a9.66,9.66,0,0,0,2-.13v1.41a11.41,11.41,0,0,0-2-.12H36.41A16.41,16.41,0,0,1,35.55,78h2a14.06,14.06,0,0,0,1.89-.08c0,.63-.06,1.09-.06,1.93v6.93c0,.78,0,1.45.06,2-.54,0-1.13-.07-1.78-.07H33.74c-.67,0-1.23,0-1.8.07,0-.59.06-1.22.06-1.92v-7a17.64,17.64,0,0,0-.08-2c.52,0,.9.06,1.82.06h.55a14.31,14.31,0,0,0,.78-2.26Zm-.29,5.39h4.91v-2H33.2Zm0,3.19h4.91v-2.1H33.2Zm0,3.26h4.91V85.43H33.2ZM37,89.18a12.25,12.25,0,0,0,3.55,2.75,5.25,5.25,0,0,0-1,1,14.67,14.67,0,0,1-3.57-3.15Z"/>
        <path class="cls-1" d="M45.84,76.36a15.88,15.88,0,0,0-.14,2.49,36.45,36.45,0,0,0,.54,6.53C46.7,87.53,47.56,89,48.36,89c.38,0,.74-.35,1-1a15.07,15.07,0,0,0,1.09-3.59,6.73,6.73,0,0,0,1.24,1.2c-1,3.68-2,5.08-3.48,5.08-1.18,0-2.27-1.17-3-3.19s-1-4.68-1.14-9.85a12.13,12.13,0,0,0-.06-1.24ZM56,77.47a18.13,18.13,0,0,1,3,4.78,20.56,20.56,0,0,1,1.57,5.61l-1.49.61A18.5,18.5,0,0,0,54.7,78.12Z"/>
        <path class="cls-1" d="M68.92,74.84a31.54,31.54,0,0,0-.27,4.43c-.09,2.52-.15,5.38-.15,6.32,0,.26,0,.78,0,1.26a3.32,3.32,0,0,0,1,2.52,3.93,3.93,0,0,0,2.62.82,6,6,0,0,0,5.63-3.65,12.48,12.48,0,0,0,1-3.3,6,6,0,0,0,1.51,1A12.7,12.7,0,0,1,78,89a7.35,7.35,0,0,1-5.92,2.62,5,5,0,0,1-3.95-1.47c-.86-1-1.15-2.1-1.15-4.3,0-1.41,0-1.94.19-8.55,0-.63,0-1,0-1.36a5.91,5.91,0,0,0-.09-1.12Z"/>
        <path class="cls-1" d="M85.28,77.36H86c.29,0,.54,0,1.19-.06,2.5-.19,9.22-.57,11.93-.69a15.72,15.72,0,0,0,2.5-.23l.12,1.57a10.2,10.2,0,0,0-2.35.27,10.87,10.87,0,0,0-4,2.12,6.42,6.42,0,0,0-2.58,4.85,4.11,4.11,0,0,0,2.94,3.89,10.68,10.68,0,0,0,3.15.67h.21l-.28,1.7-.65-.12a10.55,10.55,0,0,1-4.53-1.62,5.11,5.11,0,0,1-2.33-4.28c0-2.44,1.43-4.77,3.92-6.45a13,13,0,0,1,2-1.11,41.58,41.58,0,0,1-4.62.46,60.81,60.81,0,0,0-7.24.69Z"/>
        <path class="cls-1" d="M116.61,78.79c-.25,0-.34.06-.63.13-1.72.35-2.73.52-3.72.63v3.63a14.8,14.8,0,0,1,4.52-.76,7.21,7.21,0,0,1,3.72.88,4.33,4.33,0,0,1-2.13,8.07A3.1,3.1,0,0,1,115.14,89a7.64,7.64,0,0,1-.25-2.37,4.62,4.62,0,0,0,1.38-.54,6.37,6.37,0,0,0,0,.81c0,2.19.63,3.09,2.17,3.09a2.79,2.79,0,0,0,2.81-3c0-2.06-1.74-3.34-4.49-3.34a14.13,14.13,0,0,0-4.46.82v5.25c0,1.13-.5,1.68-1.53,1.68a5.53,5.53,0,0,1-3.46-1.34,2.55,2.55,0,0,1-1-2A3.82,3.82,0,0,1,108,85.32a11.44,11.44,0,0,1,3-1.72v-4l-.84.06c-.38,0-.73,0-1.34,0-.32,0-.88,0-1.12,0h-.86V78.31a12.4,12.4,0,0,0,2.15.15c.56,0,1.38,0,2-.07V76.31a14.56,14.56,0,0,0-.1-2h1.55a12.31,12.31,0,0,0-.11,2v2a21.12,21.12,0,0,0,4.29-.91ZM110.92,85c-2.08,1-3.25,2.15-3.25,3.15,0,.44.29.86.9,1.26a3.89,3.89,0,0,0,1.87.61c.42,0,.48-.12.48-1ZM122.45,81a17.49,17.49,0,0,0-4.24-4.12l1.09-.82a17.91,17.91,0,0,1,4.24,4Z"/>
        <path class="cls-1" d="M132.45,74.38a11.66,11.66,0,0,0-.49,2.16c-.33,2.12-.63,4.41-.69,5.48l.08,0a5.8,5.8,0,0,0,.15-.6,9.23,9.23,0,0,1,1.28-3.13c1.18-1.81,2.56-2.71,4.2-2.71a3.94,3.94,0,0,1,3.36,1.87,8.62,8.62,0,0,1,1.26,5.1,8.66,8.66,0,0,1-4.85,8.25A15.45,15.45,0,0,1,133,92.06a4.37,4.37,0,0,0-.84-1.43,11.09,11.09,0,0,0,4.27-1.32c2.45-1.41,3.61-3.61,3.61-7S138.87,77,136.85,77c-1.59,0-2.93,1.19-4.13,3.65a10.88,10.88,0,0,0-1.14,4.68,4.68,4.68,0,0,0,0,.51l-1.52.06v-.23l0-.38,0-2.18v-.49a52.7,52.7,0,0,1,.72-7.75,4.36,4.36,0,0,0,.06-.67Z"/>
        <path class="cls-1" d="M163.75,91a16.52,16.52,0,0,0-4.28-3c-.36-.19-.84-.4-1.41-.63a5,5,0,0,1,.05.75,3.61,3.61,0,0,1-.53,2.29A4.24,4.24,0,0,1,154,91.75a5.5,5.5,0,0,1-3.25-.84,2.77,2.77,0,0,1-1.13-2.21c0-1.39,1.09-2.48,2.93-2.9a9.55,9.55,0,0,1,2.19-.21,9.15,9.15,0,0,1,1.89.17c0-.06,0-.06,0-.25a1.84,1.84,0,0,1,0-.23c0-.19,0-.63-.05-1.24,0-.27,0-.67,0-1.22-.75,0-1.8,0-2.48,0-1.26,0-2.24,0-3.54-.14-.23,0-.4,0-.53,0h-.17l0-1.39a25.75,25.75,0,0,0,4.81.34c.55,0,1.28,0,1.87,0l0-2.87c-.61,0-.95,0-1.43,0-1.53,0-3.23-.06-5.12-.21a2.69,2.69,0,0,0-.38,0,1.74,1.74,0,0,0-.29,0l0-1.43a26.14,26.14,0,0,0,5.37.42l1.83,0a15.22,15.22,0,0,0-.11-3H158a23.83,23.83,0,0,0-.15,3,30.33,30.33,0,0,0,6.22-.86l.1,1.43c-.35,0-.35,0-1.44.16a43.17,43.17,0,0,1-4.88.51c0,1.72,0,1.72,0,2.83a25.24,25.24,0,0,0,5.81-.86l.09,1.45c-.28,0-.49,0-1.22.15-1.45.23-3.11.39-4.66.5,0,1.18,0,1.18.12,3.21a18.36,18.36,0,0,1,5.86,3.07c.34.25.44.31.71.48Zm-7.09-4a7.68,7.68,0,0,0-2.14-.23c-2.08,0-3.45.76-3.45,1.87s1.05,1.74,2.88,1.74a3,3,0,0,0,2.31-.69,2.76,2.76,0,0,0,.42-1.89Z"/>
        <path class="cls-1" d="M178.79,75.58a7.41,7.41,0,0,0-.08-1.22h1.57a18.21,18.21,0,0,0-.1,2.62v.24c4,0,5.58-.07,6.28-.15v1.49a39.31,39.31,0,0,0-4-.1l-2.25,0v4.15a6,6,0,0,1,.5,2.48,6.77,6.77,0,0,1-2.81,5.48,13.48,13.48,0,0,1-3.32,1.7,4.67,4.67,0,0,0-.92-1.32,10.83,10.83,0,0,0,3.4-1.58A5.43,5.43,0,0,0,179.4,85a2.76,2.76,0,0,1-.57,1,3.5,3.5,0,0,1-6.08-2.18,3.48,3.48,0,0,1,3.71-3.46,3.23,3.23,0,0,1,2.44.94c0-.29,0-.38,0-1.15,0-.09,0-.3,0-.55V78.52c-4.22.08-8.46.29-9.86.52l-.07-1.53c.38,0,.53,0,.84,0,.61,0,.61,0,4-.13,2-.08,3.66-.12,5.08-.16Zm-.9,6.32a2.7,2.7,0,0,0-1.41-.34,2.23,2.23,0,0,0-2.33,2.21,2,2,0,0,0,2.16,2.08,2.36,2.36,0,0,0,2.46-2.48A1.51,1.51,0,0,0,177.89,81.9Z"/>
        <path class="cls-1" d="M195.68,89.44a3.15,3.15,0,1,1-3.15-3.15A3.14,3.14,0,0,1,195.68,89.44Zm-5.11,0a2,2,0,1,0,2-2A2,2,0,0,0,190.57,89.44Z"/>
        <path class="cls-1" d="M8.9,157.5H4a14.06,14.06,0,0,0-2,.1v-1.3a12.66,12.66,0,0,0,2,.11H8.9V155H4.51a13.87,13.87,0,0,0-1.72.08,8.91,8.91,0,0,0,.09-1.4v-.93a9.33,9.33,0,0,0-.09-1.42,14.83,14.83,0,0,0,1.75.08H8.9v-1.39H2.81a18.64,18.64,0,0,0-2.35.13V148.8a14.81,14.81,0,0,0,2.4.13h6A8.89,8.89,0,0,0,8.78,147h1.53a6.69,6.69,0,0,0-.15,1.89h6.43A15,15,0,0,0,19,148.8v1.39a19.35,19.35,0,0,0-2.37-.13H10.16v1.39H15a14,14,0,0,0,1.72-.08,10.66,10.66,0,0,0-.08,1.42v.93a10.26,10.26,0,0,0,.08,1.4A13.73,13.73,0,0,0,15,155H10.16v1.37h4.58a20.82,20.82,0,0,0,2.35-.09,17.4,17.4,0,0,0-.06,1.74V159a10.2,10.2,0,0,0,2.22-.13v1.32A14.88,14.88,0,0,0,17,160v1.36a13,13,0,0,0,.12,2.1H15.79v-.86H10.16v1.74c0,1.45-.42,1.75-2.45,1.75-.45,0-.82,0-2-.09a3.48,3.48,0,0,0-.36-1.32,17.78,17.78,0,0,0,2.61.21c.75,0,.94-.1.94-.57v-1.72H3.84a13.27,13.27,0,0,0-2.06.11v-1.3a13.24,13.24,0,0,0,2,.1H8.9V160H2.6a16.07,16.07,0,0,0-2.29.1v-1.32A14.11,14.11,0,0,0,2.6,159H8.9Zm-4.76-5V154H8.9v-1.55Zm6,1.55h5.21v-1.55H10.16ZM15.79,159V157.5H10.16V159Zm-5.63,2.6h5.63V160H10.16Z"/>
        <path class="cls-1" d="M27.7,150.32a16.4,16.4,0,0,0-2.25-2.92l1.26-.51a16.81,16.81,0,0,1,2.44,3.43h3a14.34,14.34,0,0,0,2.37-3.4l1.35.5a23.59,23.59,0,0,1-2.27,2.9h4.3a12.81,12.81,0,0,0,2.1-.13v1.43a15,15,0,0,0-2.1-.13H23.58a15.61,15.61,0,0,0-2.1.13v-1.43a10,10,0,0,0,2.1.13Zm-3.47,13.6a14,14,0,0,0,.13,2.23H22.83a16.81,16.81,0,0,0,.1-2.27v-8.82c0-1,0-1.38-.06-1.87a18.12,18.12,0,0,0,2,.09H28.2a10.84,10.84,0,0,0,1.91-.09c0,.49-.06,1-.06,2.23v8.9c0,1.26-.4,1.62-1.76,1.62-.45,0-.95,0-1.75-.09a5.76,5.76,0,0,0-.33-1.3,9.54,9.54,0,0,0,1.82.21c.61,0,.74-.1.74-.54V161.4H24.23Zm4.54-7.14v-2.31H24.23v2.31Zm0,3.45V158H24.23v2.27Zm5.46-6.78a9.82,9.82,0,0,0-.11,2v4.26a12.56,12.56,0,0,0,.09,2.37H32.74a18.17,18.17,0,0,0,.08-2.35v-4.28a12,12,0,0,0-.1-2Zm4.51-.63a12.42,12.42,0,0,0-.12,2.26v9.09c0,1.47-.45,1.85-2.17,1.85-.71,0-1.4,0-2.45-.12a5.56,5.56,0,0,0-.4-1.41,16.46,16.46,0,0,0,2.71.27c.81,0,1-.08,1-.63V155a11.47,11.47,0,0,0-.12-2.22Z"/>
        <path class="cls-1" d="M58.86,149.2a26,26,0,0,1-5.69,4c.59.42.84.59,1.64,1.2l-.55.55h3.8a11.83,11.83,0,0,0,2.23-.11l.82.9a7.05,7.05,0,0,0-.57.7,17,17,0,0,1-3.67,3.67,5.14,5.14,0,0,0-1.1-.86,14.09,14.09,0,0,0,3.36-3H52.75v8.14c0,1.35-.5,1.7-2.46,1.7-.65,0-1.76,0-2.47-.1a5.43,5.43,0,0,0-.34-1.45,17.62,17.62,0,0,0,2.94.25c.71,0,.92-.14.92-.61v-7.93H44.83a16.54,16.54,0,0,0-2.16.12v-1.51A14.88,14.88,0,0,0,45,155h8.4a30.69,30.69,0,0,0-5.79-3.57l.86-.93c1.84,1,2.56,1.37,3.57,2a20.58,20.58,0,0,0,4.47-3H46.79a14.77,14.77,0,0,0-2.17.1v-1.43a12.06,12.06,0,0,0,2.21.13h9.62a14.84,14.84,0,0,0,1.55-.06Z"/>
        <path class="cls-1" d="M63.23,156.38a4.06,4.06,0,0,0,.76.07l1.07,0c.77-.93,1-1.2,1.59-2a20.45,20.45,0,0,0-3.19-3.21l.78-1c.46.44.57.53.9.86a15.39,15.39,0,0,0,2.08-3.88l1.3.59a7.36,7.36,0,0,0-.48.79,32,32,0,0,1-2.08,3.3c.63.63,1,1,1.41,1.53a21.6,21.6,0,0,0,2.41-4l1.24.74c-.19.25-.31.44-.61.86a46.5,46.5,0,0,1-3.88,5.31c1.57-.1,2-.12,3.4-.31a17.3,17.3,0,0,0-.84-1.66l1-.38a22.07,22.07,0,0,1,1.85,4l-1.07.48c-.21-.67-.27-.86-.48-1.4a3.51,3.51,0,0,1-.53.06l-1.44.17v6.9a16.06,16.06,0,0,0,.12,2.15H67a16.38,16.38,0,0,0,.12-2.17v-6.76c-1.55.15-1.55.15-2.35.21a8.87,8.87,0,0,0-1.28.15ZM65.81,159a18.62,18.62,0,0,1-1.38,5.94l-1.16-.55a15.34,15.34,0,0,0,1.39-5.62Zm4.77-.36a33.52,33.52,0,0,1,1.24,5l-1.22.4A27.63,27.63,0,0,0,69.53,159ZM74.13,152A16.34,16.34,0,0,1,72,155.27a3.9,3.9,0,0,0-1.1-.82,13.47,13.47,0,0,0,2.36-3.59,13.21,13.21,0,0,0,1.17-3.46l1.43.36c-.17.39-.17.39-.55,1.44-.16.47-.33.89-.61,1.56h5.25a10.31,10.31,0,0,0,1.7-.09c-.06.61-.06.61-.1,3.24a52.85,52.85,0,0,1-.9,9.51c-.49,2-1,2.46-3,2.46-.61,0-1.38,0-2.22-.13A5.31,5.31,0,0,0,75,164.3a16.44,16.44,0,0,0,2.79.27c1,0,1.22-.25,1.51-1.59a58.25,58.25,0,0,0,.91-11Zm2.22,8.42a20.19,20.19,0,0,0-2.87-5.21l1.09-.63a25.6,25.6,0,0,1,3,5.12Z"/>
        <path class="cls-1" d="M88.85,148.51a30,30,0,0,0-1.62,9.85c0,.73,0,2,.09,2.94,0,.17,0,.21,0,.59v.4l.08,0a18.92,18.92,0,0,1,1.24-3.7,2.17,2.17,0,0,0,.17-.42l1,.48a18.12,18.12,0,0,0-1.81,6,2.48,2.48,0,0,0,0,.42l-1.49.14c0-.19,0-.29-.12-.77a33.36,33.36,0,0,1-.59-6.24A35.51,35.51,0,0,1,87,149.56a9.22,9.22,0,0,0,.23-1.32ZM91,152.42a14.67,14.67,0,0,0,3.78.33c.82,0,1.39,0,2.25-.06,0-2,0-2,0-3.57a4.7,4.7,0,0,0-.07-.86h1.58a20.71,20.71,0,0,0-.15,3.3c0,.23,0,.56,0,1a14.09,14.09,0,0,0,3.63-.77l.07,1.43-1.47.29a20.2,20.2,0,0,1-2.23.34c0,2.07.06,3.14.23,5.94a15.23,15.23,0,0,1,3.51,2.06l.52.35-.65,1.47a11.42,11.42,0,0,0-3-2.18l-.21-.13-.19-.12a3.07,3.07,0,0,1,0,.54,3.59,3.59,0,0,1-.25,1.43c-.5,1.11-1.78,1.76-3.5,1.76-2.44,0-4-1.15-4-3s1.66-3,4-3a6,6,0,0,1,2.33.42C97.16,159,97.08,157,97,154c-1,0-1.6.06-2.4.06S93,154,92.25,154a5.83,5.83,0,0,0-.67,0l-.36,0a1,1,0,0,0-.21,0h-.08Zm4,7.87c-1.64,0-2.71.69-2.71,1.74s1,1.7,2.44,1.7a2.9,2.9,0,0,0,2.14-.73,2.48,2.48,0,0,0,.4-1.64c0-.15,0-.63,0-.63A5.37,5.37,0,0,0,95,160.29Z"/>
        <path class="cls-1" d="M110.8,164.59a15.32,15.32,0,0,0-2.31.11,9.85,9.85,0,0,1,.6-2.77,9.28,9.28,0,0,1,2.73-3.61A29.24,29.24,0,0,1,115,156c2.08-1.41,2.77-2.33,2.77-3.61,0-1.6-1.35-2.63-3.49-2.63a3.46,3.46,0,0,0-3,1.37,4.24,4.24,0,0,0-.74,2.12l-1.76-.3a5.7,5.7,0,0,1,1.32-3,5.39,5.39,0,0,1,4.22-1.62c3.17,0,5.21,1.6,5.21,4.08a4.39,4.39,0,0,1-1.24,3,16.65,16.65,0,0,1-3.57,2.71,11.32,11.32,0,0,0-3,2.58,5.9,5.9,0,0,0-1.2,2.43h6.7a19.23,19.23,0,0,0,2.56-.14v1.76a24.52,24.52,0,0,0-2.58-.13Z"/>
        <path class="cls-1" d="M129.9,159.37a14,14,0,0,1-.86,3.25,11,11,0,0,1-2.31,3.65,4.84,4.84,0,0,0-1.15-1.11,8.86,8.86,0,0,0,2.48-4.11c.59-2,.82-4.58.82-9.24,0-1.93,0-2.77-.09-3.57a18.79,18.79,0,0,0,2.21.1h7.89a17.66,17.66,0,0,0,2.18-.1,19.16,19.16,0,0,0-.08,2.16v13.82a1.61,1.61,0,0,1-.59,1.47,3,3,0,0,1-1.68.27c-.69,0-1.57,0-2.52-.08a5.59,5.59,0,0,0-.33-1.43,22,22,0,0,0,3,.21c.61,0,.78-.13.78-.65v-4.64Zm9.75-1.26v-3.74h-9.37c0,1.15-.06,1.95-.23,3.74Zm0-5v-3.49H130.3l0,3v.5Z"/>
        <path class="cls-1" d="M154.71,149.39a12.47,12.47,0,0,0-.15-2.18h1.68a12,12,0,0,0-.15,2.14v1.85h6.15a11.76,11.76,0,0,0,1.6-.08,9.25,9.25,0,0,0-.11,1.65v5.74a13.81,13.81,0,0,0,.13,1.86h-1.51V159h-6.26v4.89a11.45,11.45,0,0,0,.15,2.39h-1.68a14.93,14.93,0,0,0,.15-2.39V159h-5.93v1.42h-1.51a12.25,12.25,0,0,0,.13-1.86v-5.74a11.8,11.8,0,0,0-.11-1.65,12.21,12.21,0,0,0,1.58.08h5.84Zm-5.93,3.07v5.23h5.93v-5.23Zm13.57,5.23v-5.23h-6.26v5.23Z"/>
        <path class="cls-1" d="M171.53,151.28a21,21,0,0,1-3.76,4.85,4,4,0,0,0-1-1.07,17.27,17.27,0,0,0,4.62-6.49,5.64,5.64,0,0,0,.42-1.49l1.55.4a7.58,7.58,0,0,0-.4.84c-.23.61-.48,1.18-.75,1.74h10.73a15.21,15.21,0,0,0,2.24-.12,11.75,11.75,0,0,0-.08,1.45,76.41,76.41,0,0,1-.86,11.84c-.46,2.48-1,2.94-3,2.94a29,29,0,0,1-3.22-.25,5.5,5.5,0,0,0-.23-1.45,18.57,18.57,0,0,0,3.57.42c1.13,0,1.37-.36,1.7-2.77a89.48,89.48,0,0,0,.67-10.84Zm8,9.43c0,.63,0,1.2.08,1.89-.71,0-1.32-.06-2.06-.06h-5.37v1.61h-1.41c.06-.58.11-1.4.11-2.18v-6.3c0-.94,0-1.47-.09-2.2a15.91,15.91,0,0,0,2,.1h4.79a15.52,15.52,0,0,0,2-.1c-.06.63-.1,1.49-.1,2.26Zm-7.37-3.3h6.06v-2.7h-6.06Zm0,4h6.06v-2.89h-6.06Z"/>
        <path class="cls-1" d="M198.15,147.8a15.73,15.73,0,0,0-.12,2.77c0,.46,0,.69,0,2.18a21,21,0,0,0,6.15-.79l.19,1.55a10.59,10.59,0,0,0-1.26.15,36.58,36.58,0,0,1-5.06.46c.06,2,.17,4.07.27,5.41a18.22,18.22,0,0,1,5.61,3,10.85,10.85,0,0,0,1,.65l-1,1.47a9.31,9.31,0,0,0-2.18-1.83,22.43,22.43,0,0,0-2.84-1.62,3,3,0,0,1-.5-.23,6.29,6.29,0,0,1,.08.91A3.83,3.83,0,0,1,198,164a4.47,4.47,0,0,1-3.74,1.44c-2.71,0-4.37-1.17-4.37-3.1s2-3.32,4.94-3.32a8.62,8.62,0,0,1,1.82.19.93.93,0,0,0,.19,0s0,0,.11,0a.65.65,0,0,0,0-.19V159c-.17-2.42-.32-6.47-.34-9.47a8.82,8.82,0,0,0-.11-1.7Zm-3.36,12.53c-2.14,0-3.44.76-3.44,2a1.43,1.43,0,0,0,.32.9,3.4,3.4,0,0,0,2.52.84,3.58,3.58,0,0,0,2.33-.69,2,2,0,0,0,.5-1.58c0-.31,0-1.15-.06-1.15A6.93,6.93,0,0,0,194.79,160.33Z"/>
        <path class="cls-1" d="M215.29,147.88a11.9,11.9,0,0,0-.48,2.16c-.34,2.12-.63,4.41-.7,5.48l.09,0,.15-.6a9.23,9.23,0,0,1,1.28-3.13c1.17-1.81,2.56-2.71,4.2-2.71a4,4,0,0,1,3.36,1.87,9.91,9.91,0,0,1-3.6,13.35,15.22,15.22,0,0,1-3.73,1.24,4.37,4.37,0,0,0-.84-1.43,11.09,11.09,0,0,0,4.26-1.32c2.46-1.41,3.61-3.61,3.61-7s-1.17-5.33-3.19-5.33c-1.6,0-2.94,1.19-4.14,3.65a11,11,0,0,0-1.13,4.68c0,.09,0,.19,0,.51l-1.51.06v-.23l0-.38,0-2.18v-.49a52.39,52.39,0,0,1,.71-7.75,4.36,4.36,0,0,0,.06-.67Z"/>
        <path class="cls-1" d="M232.39,163.86a16,16,0,0,0,.12,2.35H231a16.51,16.51,0,0,0,.12-2.35v-13.8c0-1,0-1.63-.08-2.3a20.33,20.33,0,0,0,2.2.08h3.2a19.26,19.26,0,0,0,2.12-.08c-.05.58-.07,1.21-.07,2v2.58c0,.84,0,1.43.07,2-.51,0-1.22-.07-2.12-.07h-4Zm0-13.38h4.87v-1.61h-4.87Zm0,2.71h4.87v-1.7h-4.87Zm3.9,3.76a14.71,14.71,0,0,0-2,.09V155.8a13.12,13.12,0,0,0,2,.1H243a13.5,13.5,0,0,0,2-.1V157a14.71,14.71,0,0,0-2-.09h-.76v2.6h1a12.92,12.92,0,0,0,2-.1v1.26a13.4,13.4,0,0,0-2-.1h-1v3.23a6.93,6.93,0,0,0,.13,1.8h-1.45a8.16,8.16,0,0,0,.12-1.8v-3.23h-3.17a7,7,0,0,1-2.77,5.2,3.7,3.7,0,0,0-1-.86,5.85,5.85,0,0,0,1.83-1.85,6.09,6.09,0,0,0,.8-2.49h-.74a13.26,13.26,0,0,0-2,.1v-1.26a12.94,12.94,0,0,0,2,.1h.84c.07-1,.07-1,.09-2.6Zm1.74,0v.48c0,.66,0,1.41-.08,2.12H241V157Zm10.08,7.18c0,.91-.21,1.35-.75,1.58a4.53,4.53,0,0,1-1.5.14l-1.78-.06a4.08,4.08,0,0,0-.4-1.34,18.68,18.68,0,0,0,2.33.21c.67,0,.82-.11.82-.59v-9.85h-4.3c-.89,0-1.56,0-2.15.07.05-.61.07-1.12.07-2v-2.58c0-.78,0-1.3-.07-2a19.94,19.94,0,0,0,2.17.08H246a20.78,20.78,0,0,0,2.21-.08,18,18,0,0,0-.11,2.3Zm-6.44-13.65h5.16v-1.61h-5.16Zm0,2.71h5.16v-1.7h-5.16Z"/>
        <path class="cls-1" d="M256.6,151.54a14.21,14.21,0,0,0,1.93-.09c-.23,2.39-.23,2.39-.38,3.32a19.92,19.92,0,0,1-1.59,5.62c.75.66,1.17,1.08,2.22,2.17l-.84,1.15a21.65,21.65,0,0,0-2-2.14,13.45,13.45,0,0,1-3.89,4.26,4,4,0,0,0-1-1,13.16,13.16,0,0,0,3.86-4.09,22.64,22.64,0,0,0-3.13-2.16,29.87,29.87,0,0,0,1.91-5.84H253a9.63,9.63,0,0,0-1.68.13v-1.43a10.86,10.86,0,0,0,1.72.13h.9a22.6,22.6,0,0,0,.57-4,1.29,1.29,0,0,0,0-.25l1.51.15a10,10,0,0,0-.23,1.22c-.13.71-.29,1.66-.55,2.9Zm-1.6,1.17a35.48,35.48,0,0,1-1.64,5.33c1.14.78,1.52,1,2.19,1.54a19.22,19.22,0,0,0,1.59-6.87Zm3.45,2a7.35,7.35,0,0,0,.88,0l.73,0a30,30,0,0,0,2.56-7.52l1.6.4a17.34,17.34,0,0,0-.8,2.27c-.44,1.26-.86,2.28-2,4.76,3-.25,3.48-.29,6.13-.63a25.6,25.6,0,0,0-2.31-3.32l1.15-.58a35.78,35.78,0,0,1,3.78,6.06l-1.19.72c-.4-.88-.51-1.09-.86-1.81-3.41.46-4.29.57-8.07.9a6.53,6.53,0,0,0-1.32.21Zm2.66,11.61h-1.38a14.21,14.21,0,0,0,.08-1.86v-5a16.26,16.26,0,0,0-.08-2,16,16,0,0,0,1.86.08h5.17a14.76,14.76,0,0,0,2-.08,10.63,10.63,0,0,0-.1,1.36v5.27a10.44,10.44,0,0,0,.13,2.18h-1.45v-1.21h-6.22Zm0-2.41h6.22v-5.12h-6.22Z"/>
        <path class="cls-1" d="M275.69,149.86a14.53,14.53,0,0,0-.15,2.49,35.42,35.42,0,0,0,.55,6.53c.46,2.15,1.32,3.59,2.12,3.59.37,0,.73-.35,1.05-1.05a15.07,15.07,0,0,0,1.09-3.59,6.43,6.43,0,0,0,1.24,1.2c-1,3.68-2,5.08-3.49,5.08-1.17,0-2.27-1.17-3-3.19s-1-4.68-1.13-9.85a9.11,9.11,0,0,0-.07-1.24ZM285.83,151a18.35,18.35,0,0,1,3,4.78,20.21,20.21,0,0,1,1.58,5.61l-1.5.61a18.49,18.49,0,0,0-4.36-10.35Z"/>
        <path class="cls-1" d="M294.4,151.54a15.14,15.14,0,0,0,2.62.18c.42,0,.65,0,1.26,0a20.43,20.43,0,0,0,.46-3.86l1.66.17c-.12.5-.12.5-.38,2-.1.67-.16,1-.27,1.6a17.15,17.15,0,0,0,3.78-.72l.11,1.45a4.68,4.68,0,0,0-.59.11,30,30,0,0,1-3.55.5c-.31,1.66-.9,4-1.47,5.94a55,55,0,0,1-2.41,6.41l-1.54-.65A42.15,42.15,0,0,0,298,153c-.42,0-.67,0-1.45,0s-.92,0-1.74-.05h-.08l-.36,0Zm9.38,7.62a7.34,7.34,0,0,0-.63.79,2.57,2.57,0,0,0-.52,1.5c0,1.26,1.28,1.93,3.67,1.93a15.53,15.53,0,0,0,4.64-.72l.15,1.58-.92.14a20.41,20.41,0,0,1-3.74.36c-3.44,0-5.23-1.07-5.23-3.15,0-.94.3-1.59,1.41-3Zm6.49-3.64a22.08,22.08,0,0,0-2.48-.14,18.53,18.53,0,0,0-5.25.71l-.14-1.43A24,24,0,0,1,308,154c.4,0,.72,0,2.29.06Z"/>
        <path class="cls-1" d="M319.77,148.34a32.54,32.54,0,0,0-.28,4.43c-.08,2.52-.14,5.38-.14,6.32,0,.26,0,.78,0,1.26a3.28,3.28,0,0,0,1,2.52,4,4,0,0,0,2.63.82,6,6,0,0,0,5.63-3.65,12.5,12.5,0,0,0,1-3.3,5.84,5.84,0,0,0,1.52,1,12.85,12.85,0,0,1-2.33,4.77,7.36,7.36,0,0,1-5.92,2.62,5,5,0,0,1-3.95-1.47c-.86-1-1.16-2.1-1.16-4.3,0-1.41,0-1.94.19-8.55,0-.63,0-1,0-1.36a6.87,6.87,0,0,0-.08-1.12Z"/>
        <path class="cls-1" d="M351.6,164.51a16.88,16.88,0,0,0-4.28-3c-.36-.19-.84-.4-1.41-.63a6.25,6.25,0,0,1,0,.75,3.69,3.69,0,0,1-.52,2.29,4.24,4.24,0,0,1-3.55,1.33,5.54,5.54,0,0,1-3.26-.84,2.77,2.77,0,0,1-1.13-2.21c0-1.39,1.09-2.48,2.94-2.9a9.51,9.51,0,0,1,2.18-.21,9.09,9.09,0,0,1,1.89.17c0-.06,0-.06,0-.25a1.84,1.84,0,0,1,0-.23c0-.19,0-.63,0-1.24,0-.27,0-.67,0-1.22-.76,0-1.81,0-2.48,0-1.26,0-2.25,0-3.55-.14-.23,0-.4,0-.52,0h-.17l0-1.39a25.67,25.67,0,0,0,4.81.34c.54,0,1.28,0,1.87,0l-.05-2.87c-.61,0-.94,0-1.42,0-1.54,0-3.24-.06-5.13-.21a2.56,2.56,0,0,0-.37,0,1.85,1.85,0,0,0-.3,0l0-1.43a26.32,26.32,0,0,0,5.38.42l1.82,0a17.18,17.18,0,0,0-.1-3h1.62a21.91,21.91,0,0,0-.15,3,30.09,30.09,0,0,0,6.21-.86l.11,1.43c-.36,0-.36,0-1.45.16a42.73,42.73,0,0,1-4.87.51c0,1.72,0,1.72,0,2.83a25.35,25.35,0,0,0,5.82-.86l.08,1.45c-.27,0-.48,0-1.22.15-1.45.23-3.1.39-4.66.5,0,1.18,0,1.18.13,3.21a18.57,18.57,0,0,1,5.86,3.07,7.45,7.45,0,0,0,.71.48Zm-7.1-4a7.68,7.68,0,0,0-2.14-.23c-2.08,0-3.44.76-3.44,1.87s1.05,1.74,2.87,1.74a3,3,0,0,0,2.31-.69c.3-.29.42-.88.42-1.89Z"/>
        <path class="cls-1" d="M366.64,149.08a6.39,6.39,0,0,0-.09-1.22h1.58a16.32,16.32,0,0,0-.11,2.62v.24c4,0,5.59-.07,6.28-.15v1.49a39.18,39.18,0,0,0-4-.1L368,152v4.15a6,6,0,0,1,.51,2.48,6.75,6.75,0,0,1-2.82,5.48,13.39,13.39,0,0,1-3.31,1.7,4.68,4.68,0,0,0-.93-1.32,10.83,10.83,0,0,0,3.4-1.58,5.44,5.44,0,0,0,2.36-4.43,2.9,2.9,0,0,1-.57,1,3.51,3.51,0,0,1-6.09-2.18,3.48,3.48,0,0,1,3.72-3.46,3.21,3.21,0,0,1,2.43.94c0-.29,0-.38,0-1.15,0-.09,0-.3,0-.55V152c-4.22.08-8.46.29-9.87.52l-.06-1.53c.38,0,.52,0,.84,0,.61,0,.61,0,4-.13,2-.08,3.65-.12,5.08-.16Zm-.91,6.32a2.67,2.67,0,0,0-1.4-.34,2.22,2.22,0,0,0-2.33,2.21,2,2,0,0,0,2.16,2.08,2.36,2.36,0,0,0,2.46-2.48A1.51,1.51,0,0,0,365.73,155.4Z"/>
        <path class="cls-1" d="M383.52,162.94a3.15,3.15,0,1,1-3.15-3.15A3.14,3.14,0,0,1,383.52,162.94Zm-5.1,0a2,2,0,1,0,1.95-2A2,2,0,0,0,378.42,162.94Z"/>
        <path class="cls-1" d="M2.88,222.68a8.68,8.68,0,0,0-.13-1.93H4.33a10.18,10.18,0,0,0-.13,1.93v.59H7.66a9.54,9.54,0,0,0,1.75-.12v1.42a9.56,9.56,0,0,0-1.75-.12H4.2v3.42c2-.34,2.67-.48,5.31-1.09v1.13c-2.88.69-5.23,1.18-7.39,1.55a11.84,11.84,0,0,0-1.62.34l-.23-1.45a17.4,17.4,0,0,0,2.61-.27Zm11.08,8a17.55,17.55,0,0,0,2.27-.1,21.13,21.13,0,0,0-.08,2.31v4.78a14,14,0,0,0,.12,2.1H14.84v-1H4.66v1H3.25a12.9,12.9,0,0,0,.13-2.1v-4.78a22.84,22.84,0,0,0-.08-2.31,17,17,0,0,0,2.24.1H8.06a8.71,8.71,0,0,0,.86-1.93l1.43.36a13.35,13.35,0,0,1-.86,1.57ZM4.66,234H14.84v-2.27H4.66Zm0,3.59H14.84v-2.5H4.66Zm7.12-10.54c0,.63.21.69,2.5.69,1.84,0,2.45-.08,2.71-.35a6.27,6.27,0,0,0,.52-2.84,3.13,3.13,0,0,0,1.24.55c-.21,2.31-.46,3.11-1.07,3.48s-1.28.36-3.78.36c-2.88,0-3.44-.25-3.44-1.47V222.6a12.06,12.06,0,0,0-.13-1.85H11.9a8.58,8.58,0,0,0-.12,1.83v1.28a21.84,21.84,0,0,0,2.48-.82,14.33,14.33,0,0,0,3.29-1.59l.91,1.13c-1,.42-1,.42-2.17.92A32.76,32.76,0,0,1,11.78,225Z"/>
        <path class="cls-1" d="M24.21,222.89a13.16,13.16,0,0,0-.1-2.18h1.47a12.93,12.93,0,0,0-.11,2.16v2.06h.82a7.93,7.93,0,0,0,1.32-.08v1.28a10.52,10.52,0,0,0-1.32-.07h-.75a11.51,11.51,0,0,0,1.95,3.43,8.18,8.18,0,0,0-.74,1.13,14.31,14.31,0,0,1-1.36-2.94c.06,1.76.08,2.69.08,3.42v6.36a16.08,16.08,0,0,0,.13,2.44H24.09a18.73,18.73,0,0,0,.12-2.44v-5.94a17.63,17.63,0,0,1,.07-1.84c0-.13,0-.51.06-1,0-.17,0-.42,0-.78a16.66,16.66,0,0,1-2.73,6.42,5.32,5.32,0,0,0-.8-1.3,12.25,12.25,0,0,0,2-3.31A21.56,21.56,0,0,0,24,226.06H22.91a8.24,8.24,0,0,0-1.47.09v-1.3a9,9,0,0,0,1.47.08h1.3Zm5.48,1.91a10.85,10.85,0,0,0-1.82.11v-1.32a11.32,11.32,0,0,0,1.84.1h1.12a10.54,10.54,0,0,0-1.37-2.31l1.11-.48a13.28,13.28,0,0,1,1.52,2.79h2.43A13.45,13.45,0,0,0,36,220.86l1.24.44c-.34.67-1,1.89-1.35,2.39h1.85a13,13,0,0,0,1.91-.12v1.36a12.62,12.62,0,0,0-1.91-.13H33.87v1.81H37a10.66,10.66,0,0,0,1.91-.13v1.39a12.21,12.21,0,0,0-1.89-.11H33.87v1.89H38a13.16,13.16,0,0,0,1.91-.12v1.36a13.25,13.25,0,0,0-1.89-.12H34a11.26,11.26,0,0,0,1.72,3.15A11.47,11.47,0,0,0,38,231.21l1.07.75a16.46,16.46,0,0,1-2.63,2.86,11.91,11.91,0,0,0,4,2.94,5.54,5.54,0,0,0-.88,1.22,15,15,0,0,1-3.09-2.42,13.42,13.42,0,0,1-2.77-4.28,17,17,0,0,1,.17,2.08v3.94c0,1.14-.4,1.43-2,1.43a16.63,16.63,0,0,1-1.72-.08,3.45,3.45,0,0,0-.38-1.32,13.71,13.71,0,0,0,2.08.18c.6,0,.73-.08.73-.46v-3a27.81,27.81,0,0,1-4.45,2.71,8.52,8.52,0,0,0-.95.57l-.6-1.39a21.91,21.91,0,0,0,6-3.19v-3H29.34a11.06,11.06,0,0,0-1.81.1v-1.3a14.89,14.89,0,0,0,1.83.08h3.25v-1.89H30.28a10.91,10.91,0,0,0-1.83.11V226.5a9.58,9.58,0,0,0,1.79.11h2.37V224.8Zm-.77,6.45a19.53,19.53,0,0,1,2,2.54l-1,.69a12.88,12.88,0,0,0-2-2.58Z"/>
        <path class="cls-1" d="M50.8,232.64c-1.22,2.77-2.46,4-4,4-2,0-3.49-2.19-3.49-5.13a8.53,8.53,0,0,1,9-8.58A8.09,8.09,0,0,1,58.1,225a7,7,0,0,1,2,5.12,7.64,7.64,0,0,1-4.81,7.24,16.34,16.34,0,0,1-3.19,1,3.27,3.27,0,0,0-.73-1.41,12.16,12.16,0,0,0,3.5-1,6.33,6.33,0,0,0,3.72-5.87,5.53,5.53,0,0,0-3.34-5.27,6,6,0,0,0-2.44-.53A31.55,31.55,0,0,1,50.8,232.64Zm-2.59-7.33a7.25,7.25,0,0,0-3.42,6.25c0,2,.88,3.57,2,3.57.88,0,1.72-1,2.62-3a28.71,28.71,0,0,0,1.91-7.77A6.69,6.69,0,0,0,48.21,225.31Z"/>
        <path class="cls-1" d="M69.17,230.79c-1.36,1.13-2,2.1-2,3.09s.61,1.65,1.78,2.05a13.18,13.18,0,0,0,3.85.42,19.63,19.63,0,0,0,6.29-.8l.19,1.73a7,7,0,0,0-.71.1,33.73,33.73,0,0,1-5.67.48,14.78,14.78,0,0,1-4.83-.65A3.34,3.34,0,0,1,65.69,234c0-1.36.8-2.68,2.41-4ZM67,223.12a23.75,23.75,0,0,0,5.58.51,23.29,23.29,0,0,0,5.32-.44l.1,1.38a32.28,32.28,0,0,0-5.29,3.19l-1.07-.86a33.49,33.49,0,0,1,3.71-2.22,16.56,16.56,0,0,1-3.17.27,40.38,40.38,0,0,1-4.61-.27l-.7-.06Zm10.48,3.64A16.73,16.73,0,0,1,79.59,230l-1,.63a17.06,17.06,0,0,0-2.14-3.34Zm2.28-1.24a16.25,16.25,0,0,1,2.19,3.27l-1,.59a18,18,0,0,0-2.14-3.3Z"/>
        <path class="cls-1" d="M96.09,229.84a20.36,20.36,0,0,0,2.5-4.8l1.3.52a29.93,29.93,0,0,1-2.33,4.28h3.11a11.82,11.82,0,0,0,2.31-.14v1.49a16.63,16.63,0,0,0-2.35-.13H94.79A21.32,21.32,0,0,0,97.56,234a19.4,19.4,0,0,0,5.67,3.55,5.65,5.65,0,0,0-.9,1.3A22.69,22.69,0,0,1,97,235.26a19,19,0,0,1-3-3.53c.06,1.16.08,1.73.08,2.27v3.76a10.65,10.65,0,0,0,.15,2h-1.6a10.79,10.79,0,0,0,.15-2V234c0-.63,0-1,.08-2.25A17,17,0,0,1,89,236.27a24.67,24.67,0,0,1-3.76,2.56,5.08,5.08,0,0,0-.95-1.22,21.71,21.71,0,0,0,5.84-4.09,18.55,18.55,0,0,0,2.14-2.46H86.79a19.87,19.87,0,0,0-2.31.13V229.7a15.26,15.26,0,0,0,2.29.14h6.09v-5.5h-5a17.66,17.66,0,0,0-2.24.13V223a15.47,15.47,0,0,0,2.28.15h5v-.7a10.12,10.12,0,0,0-.13-1.74h1.56a7.49,7.49,0,0,0-.13,1.74v.7h5.36a12.25,12.25,0,0,0,2.33-.15v1.47a15.53,15.53,0,0,0-2.29-.13h-5.4v5.5ZM88.45,225a26,26,0,0,1,2.08,3.89l-1.18.61a20.1,20.1,0,0,0-2-3.95Z"/>
        <path class="cls-1" d="M108,223.25a17.45,17.45,0,0,0-.12-2.31h1.55a14.81,14.81,0,0,0-.13,2.33v2.9h.51a11.18,11.18,0,0,0,1.74-.09v1.35a17.19,17.19,0,0,0-1.74-.09h-.51v5.4a17.12,17.12,0,0,0,1.79-1.07l.08,1.26a37.28,37.28,0,0,1-4.36,2.37c-.34.15-.93.44-1.12.55l-.4-1.47a10.4,10.4,0,0,0,2.71-1v-6h-.9a15.92,15.92,0,0,0-1.79.11v-1.39a11.09,11.09,0,0,0,1.83.11H108Zm5.9,9.6a13.35,13.35,0,0,1-3.52,2.79,4,4,0,0,0-.87-.95,10.11,10.11,0,0,0,4.88-4.43H113.1a9.7,9.7,0,0,0-1.89.13V229a9.88,9.88,0,0,0,1.94.13h9a11.24,11.24,0,0,0,2.08-.13v1.33a16.15,16.15,0,0,0-2.08-.09h-6.42a10.89,10.89,0,0,1-1,1.54h7a15,15,0,0,0,2.06-.09,11.29,11.29,0,0,0-.11,1.24,20.64,20.64,0,0,1-.92,5.61c-.38.75-.9,1-2.33,1-.48,0-1.18,0-1.83-.08a3.58,3.58,0,0,0-.42-1.37,14.37,14.37,0,0,0,2.5.23c.84,0,1-.16,1.26-1.42a25.3,25.3,0,0,0,.46-4h-1.4a12.58,12.58,0,0,1-1.87,3.17,21.76,21.76,0,0,1-2.59,2.58,15.71,15.71,0,0,1-1.7,1.17,3.57,3.57,0,0,0-1-1,13.3,13.3,0,0,0,4.11-3.19,10.25,10.25,0,0,0,1.73-2.75h-2.08a14.53,14.53,0,0,1-5.78,5.24,3,3,0,0,0-.9-1,11.87,11.87,0,0,0,5.31-4.26Zm.67-5.09a15.22,15.22,0,0,0-1.91.09,14.66,14.66,0,0,0,.09-1.89v-2.73a12.83,12.83,0,0,0-.09-1.85,12.79,12.79,0,0,0,2,.11h5.48a14.42,14.42,0,0,0,2.18-.11,16.15,16.15,0,0,0-.08,2V226a13.06,13.06,0,0,0,.08,1.87c-.46,0-1.11-.07-1.93-.07Zm-.58-3.65h7v-1.53h-7Zm0,2.63h7v-1.6h-7Z"/>
        <path class="cls-1" d="M132.84,224.09a8.64,8.64,0,0,0,1-2.88l1.68.3a4.16,4.16,0,0,0-.54,1.13c-.28.67-.55,1.24-.65,1.43l.44,0a29.41,29.41,0,0,0,6.61-.8l.13,1.43a6.59,6.59,0,0,0-.84.1,65.18,65.18,0,0,1-6.93.55,15.58,15.58,0,0,1-1.89,3c-.21.25-.63.73-.72.8l-.27.21a0,0,0,0,1,0,0v0l0,.06,1-.73a5.59,5.59,0,0,1,3.17-1A2.55,2.55,0,0,1,137.8,230c1.53-.61,2.73-1.05,3.65-1.39a4.61,4.61,0,0,0,1.43-.6l.67,1.46a34.82,34.82,0,0,0-5.6,1.85c0,.55,0,.76,0,1.28,0,.28,0,.74,0,1.16s0,.75,0,.94a4.78,4.78,0,0,0,0,.76l-1.43,0c.06-.46.13-1.74.13-3a5.74,5.74,0,0,0,0-.63c-2.86,1.34-3.95,2.33-3.95,3.59s1.3,2,4.26,2a17.43,17.43,0,0,0,5.61-.82l.19,1.62c-.32,0-.42,0-.84.1a31.82,31.82,0,0,1-5.11.42c-3.75,0-5.58-1.07-5.58-3.23,0-1.15.71-2.25,2.14-3.32a16.43,16.43,0,0,1,3.13-1.68c-.17-1.15-.67-1.65-1.66-1.65a7.87,7.87,0,0,0-4.68,2.22,7.09,7.09,0,0,0-1.62,1.74l-1.17-1.17a21,21,0,0,0,4.7-6l.19-.31a2.58,2.58,0,0,1-.4,0l-3.09-.06h-.33l-.47,0,0-1.45a28.93,28.93,0,0,0,4.49.23Z"/>
        <path class="cls-1" d="M147,235.64a13.74,13.74,0,0,0,1.62-3.49,23.82,23.82,0,0,0,1.09-4.85l1.41.38a32.69,32.69,0,0,1-1.2,5.08,16.74,16.74,0,0,1-1.58,3.7Zm7.37,1.34c0,.65.48.78,2.92.78a10.14,10.14,0,0,0,2.69-.25c.42-.13.63-.47.77-1.22a20.66,20.66,0,0,0,.3-3.47,5.55,5.55,0,0,0,1.42.55c-.21,2.6-.39,3.76-.79,4.54-.51,1-1.26,1.17-4.52,1.17-3.61,0-4.2-.25-4.2-1.8V227.22a15,15,0,0,0-.14-2h1.7a11.07,11.07,0,0,0-.15,2Zm5.44-11.71a26.85,26.85,0,0,0-6.81-3.38l.82-1.16a32.24,32.24,0,0,1,6.93,3.3Zm5.44,10.6a32.4,32.4,0,0,0-1.56-4.39,25.05,25.05,0,0,0-1.93-3.72l1.24-.65a34.74,34.74,0,0,1,3.61,8Z"/>
        <path class="cls-1" d="M178.31,221.3a14.39,14.39,0,0,0-.13,2.77c0,.46,0,.69,0,2.18a21.06,21.06,0,0,0,6.15-.79l.19,1.55a10.59,10.59,0,0,0-1.26.15,36.58,36.58,0,0,1-5.06.46c.06,2,.16,4.07.27,5.42a17.91,17.91,0,0,1,5.6,3c.45.31.45.33,1,.65l-1,1.47a9.31,9.31,0,0,0-2.18-1.83,22.39,22.39,0,0,0-2.83-1.62,2.84,2.84,0,0,1-.51-.23,6.23,6.23,0,0,1,.09.91,3.75,3.75,0,0,1-.53,2.12,4.44,4.44,0,0,1-3.74,1.44c-2.7,0-4.36-1.17-4.36-3.1s2-3.32,4.93-3.32a8.72,8.72,0,0,1,1.83.19.72.72,0,0,0,.19,0s0,0,.1,0a.65.65,0,0,0,0-.19v-.12c-.17-2.42-.31-6.47-.34-9.47a10.07,10.07,0,0,0-.1-1.7ZM175,233.83c-2.14,0-3.44.76-3.44,2a1.42,1.42,0,0,0,.31.9,3.41,3.41,0,0,0,2.52.84,3.54,3.54,0,0,0,2.33-.69,2,2,0,0,0,.51-1.58,11,11,0,0,0-.07-1.15A7.17,7.17,0,0,0,175,233.83Z"/>
        <path class="cls-1" d="M195.45,221.38a11.66,11.66,0,0,0-.49,2.16c-.33,2.13-.63,4.41-.69,5.48l.08,0a5.8,5.8,0,0,0,.15-.6,9.23,9.23,0,0,1,1.28-3.13c1.18-1.81,2.56-2.71,4.2-2.71a3.94,3.94,0,0,1,3.36,1.87,9.89,9.89,0,0,1-3.59,13.35,15.45,15.45,0,0,1-3.74,1.24,4.37,4.37,0,0,0-.84-1.43,11.09,11.09,0,0,0,4.27-1.32c2.45-1.41,3.61-3.61,3.61-7s-1.18-5.33-3.2-5.33c-1.59,0-2.93,1.19-4.13,3.65a10.88,10.88,0,0,0-1.14,4.68,4.68,4.68,0,0,0,0,.51l-1.52.06v-.23l0-.38,0-2.18v-.49a52.48,52.48,0,0,1,.72-7.74,4.48,4.48,0,0,0,.06-.68Z"/>
        <path class="cls-1" d="M221.61,225.79c-.25,0-.34.06-.63.13-1.72.35-2.73.52-3.72.63v3.63a14.8,14.8,0,0,1,4.52-.76,7.21,7.21,0,0,1,3.72.88,4.33,4.33,0,0,1-2.13,8.07,3.1,3.1,0,0,1-3.23-2.37,7.74,7.74,0,0,1-.25-2.38,4.37,4.37,0,0,0,1.38-.54,6.51,6.51,0,0,0,0,.82c0,2.18.63,3.08,2.17,3.08a2.79,2.79,0,0,0,2.81-3c0-2.06-1.74-3.34-4.49-3.34a14.42,14.42,0,0,0-4.46.82v5.25c0,1.13-.5,1.68-1.53,1.68a5.53,5.53,0,0,1-3.46-1.34,2.55,2.55,0,0,1-1-2,3.82,3.82,0,0,1,1.66-2.79,11.44,11.44,0,0,1,3-1.72v-4l-.84.06c-.38,0-.73,0-1.34,0-.32,0-.88,0-1.12,0h-.86v-1.38a12.4,12.4,0,0,0,2.15.15c.56,0,1.38,0,2-.07v-2.08a14.56,14.56,0,0,0-.1-2h1.55a12.4,12.4,0,0,0-.11,2v2a21.12,21.12,0,0,0,4.29-.91ZM215.92,232c-2.08,1-3.25,2.15-3.25,3.15a1.58,1.58,0,0,0,.9,1.26,3.89,3.89,0,0,0,1.87.61c.42,0,.48-.12.48-1ZM227.45,228a17.49,17.49,0,0,0-4.24-4.12l1.09-.82a17.91,17.91,0,0,1,4.24,4Z"/>
        <path class="cls-1" d="M233.71,232.34c0-.86,0-1.47.06-2.41a9.85,9.85,0,0,1-2.06,2.14,4.23,4.23,0,0,0-.77-1.18,14.46,14.46,0,0,0,4.76-5.73l1.24.74c-.17.23-.25.33-.59.86a14.28,14.28,0,0,1-1.32,1.89v8.65a16.87,16.87,0,0,0,.11,2.45h-1.56a20.75,20.75,0,0,0,.13-2.45Zm3.17-11c-.15.17-.15.17-.82,1A19.28,19.28,0,0,1,232,226a4.42,4.42,0,0,0-.84-1.07,12.22,12.22,0,0,0,4.53-4.37Zm2.81,3a14,14,0,0,0-1.95.11V223.1a11.26,11.26,0,0,0,2,.13h2.8v-.84a11.5,11.5,0,0,0-.13-1.7h1.55a11,11,0,0,0-.1,1.7v.84H247a11.67,11.67,0,0,0,2-.13v1.39a14.1,14.1,0,0,0-2-.11h-3.15v2.78h3.92a15.11,15.11,0,0,0,2.13-.13v1.41a13.75,13.75,0,0,0-2.1-.13h-.86v2.48h.86a13.23,13.23,0,0,0,2.1-.13v1.43a15,15,0,0,0-2.1-.13h-.86v5.95c0,.73-.24,1.21-.7,1.38a6.47,6.47,0,0,1-1.87.21c-.5,0-1.19,0-1.93-.08a5.25,5.25,0,0,0-.33-1.43,19.59,19.59,0,0,0,2.22.25c1.14,0,1.26,0,1.26-.5V232h-6.72a14.76,14.76,0,0,0-2.06.13v-1.43a12.41,12.41,0,0,0,2,.13h6.74v-2.48H239a12.64,12.64,0,0,0-2,.13V227a13.34,13.34,0,0,0,2,.13h3.53v-2.78Zm1.93,12.71a16.33,16.33,0,0,0-3.19-3.63l1-.78a26.73,26.73,0,0,1,3.3,3.53Z"/>
        <path class="cls-1" d="M253.76,224.59a18.76,18.76,0,0,0,4.54.36,16.32,16.32,0,0,0,.67-3.76l1.68.17c-.1.32-.1.32-.34,1.35-.29,1.21-.35,1.46-.56,2.22,4.11-.15,6.91-.44,8.27-.9l.1,1.51c-.35,0-.48,0-.92.1a68.53,68.53,0,0,1-7.79.61,28.45,28.45,0,0,1-2.1,5.4l0,0a10.78,10.78,0,0,1,6.11-1.76c3.32,0,5.44,1.51,5.44,3.86,0,2.86-2.79,4.72-7,4.72a15.89,15.89,0,0,1-5.19-.81,2.53,2.53,0,0,0,0-.34v-.13c0-.1,0-.48-.1-1.15a12.86,12.86,0,0,0,5.25,1c3.31,0,5.5-1.32,5.5-3.34,0-1.59-1.51-2.56-4-2.56a11.52,11.52,0,0,0-4.88,1.13,4.46,4.46,0,0,0-1.76,1.35l-1.51-.61a31.66,31.66,0,0,0,2.81-6.85c-1.34,0-2.26-.06-3.48-.14a5,5,0,0,0-.59,0h-.17Z"/>
        <path class="cls-1" d="M278.92,221.84a31.54,31.54,0,0,0-.27,4.43c-.09,2.52-.15,5.38-.15,6.32,0,.26,0,.78,0,1.26a3.32,3.32,0,0,0,1,2.52,3.93,3.93,0,0,0,2.62.82,6,6,0,0,0,5.63-3.65,12.48,12.48,0,0,0,1-3.3,6,6,0,0,0,1.51,1A12.7,12.7,0,0,1,288,236a7.35,7.35,0,0,1-5.92,2.62,5,5,0,0,1-3.95-1.47c-.86-1-1.15-2.1-1.15-4.3,0-1.41,0-1.93.19-8.55,0-.63,0-1,0-1.36a5.91,5.91,0,0,0-.09-1.12Z"/>
        <path class="cls-1" d="M295.28,224.36H296c.29,0,.54,0,1.19-.06,2.5-.19,9.22-.57,11.93-.69a14.45,14.45,0,0,0,2.5-.23l.12,1.57a10.2,10.2,0,0,0-2.35.27,10.8,10.8,0,0,0-4,2.12,6.42,6.42,0,0,0-2.58,4.86,4.11,4.11,0,0,0,2.94,3.88,10.68,10.68,0,0,0,3.15.67h.21l-.28,1.7-.65-.12a10.55,10.55,0,0,1-4.53-1.62,5.11,5.11,0,0,1-2.33-4.28c0-2.44,1.43-4.77,3.92-6.45a13.93,13.93,0,0,1,2-1.11,41.58,41.58,0,0,1-4.62.46,60.81,60.81,0,0,0-7.24.69Z"/>
        <path class="cls-1" d="M326.61,225.79c-.25,0-.34.06-.63.13-1.72.35-2.73.52-3.71.63v3.63a14.7,14.7,0,0,1,4.51-.76,7.21,7.21,0,0,1,3.72.88,4.33,4.33,0,0,1-2.13,8.07,3.1,3.1,0,0,1-3.23-2.37,7.74,7.74,0,0,1-.25-2.38,4.37,4.37,0,0,0,1.38-.54,6.51,6.51,0,0,0,0,.82c0,2.18.63,3.08,2.17,3.08a2.79,2.79,0,0,0,2.81-3c0-2.06-1.74-3.34-4.49-3.34a14.32,14.32,0,0,0-4.45.82v5.25c0,1.13-.51,1.68-1.54,1.68a5.53,5.53,0,0,1-3.46-1.34,2.55,2.55,0,0,1-1-2,3.82,3.82,0,0,1,1.66-2.79,11.44,11.44,0,0,1,3-1.72v-4l-.84.06c-.38,0-.73,0-1.34,0-.32,0-.89,0-1.12,0h-.86v-1.38a12.4,12.4,0,0,0,2.15.15c.56,0,1.38,0,2-.07v-2.08a14.56,14.56,0,0,0-.1-2h1.55a12.62,12.62,0,0,0-.1,2v2a21.16,21.16,0,0,0,4.28-.91ZM320.92,232c-2.08,1-3.25,2.15-3.25,3.15a1.58,1.58,0,0,0,.9,1.26,3.89,3.89,0,0,0,1.87.61c.42,0,.48-.12.48-1ZM332.45,228a17.31,17.31,0,0,0-4.24-4.12l1.09-.82a17.91,17.91,0,0,1,4.24,4Z"/>
        <path class="cls-1" d="M342.45,221.38a11.66,11.66,0,0,0-.49,2.16c-.33,2.13-.63,4.41-.69,5.48l.08,0a5.8,5.8,0,0,0,.15-.6,9.23,9.23,0,0,1,1.28-3.13c1.18-1.81,2.56-2.71,4.2-2.71a3.94,3.94,0,0,1,3.36,1.87,9.89,9.89,0,0,1-3.59,13.35,15.45,15.45,0,0,1-3.74,1.24,4.37,4.37,0,0,0-.84-1.43,11.09,11.09,0,0,0,4.27-1.32c2.45-1.41,3.61-3.61,3.61-7s-1.18-5.33-3.2-5.33c-1.59,0-2.93,1.19-4.13,3.65a10.87,10.87,0,0,0-1.13,4.68c0,.09,0,.19,0,.51l-1.52.06v-.23l0-.38,0-2.18v-.49a52.48,52.48,0,0,1,.72-7.74,4.48,4.48,0,0,0,.06-.68Z"/>
        <path class="cls-1" d="M373.76,238a16.77,16.77,0,0,0-4.29-3c-.36-.19-.84-.4-1.41-.63a5,5,0,0,1,.05.75,3.61,3.61,0,0,1-.53,2.29,4.24,4.24,0,0,1-3.55,1.33,5.5,5.5,0,0,1-3.25-.84,2.77,2.77,0,0,1-1.13-2.21c0-1.38,1.09-2.48,2.94-2.9a9.45,9.45,0,0,1,2.18-.21,9.9,9.9,0,0,1,1.89.17c0-.06,0-.06,0-.25a1.84,1.84,0,0,1,0-.23c0-.19,0-.63-.05-1.24,0-.27,0-.67,0-1.22-.75,0-1.8,0-2.48,0-1.26,0-2.24,0-3.54-.14-.24,0-.4,0-.53,0h-.17l0-1.39a25.75,25.75,0,0,0,4.81.34c.55,0,1.28,0,1.87,0l0-2.87c-.61,0-1,0-1.43,0-1.53,0-3.23-.06-5.12-.21a2.69,2.69,0,0,0-.38,0,1.74,1.74,0,0,0-.29,0l0-1.43a26.14,26.14,0,0,0,5.37.42l1.83,0a15.22,15.22,0,0,0-.11-3H368a23.83,23.83,0,0,0-.15,3,29.63,29.63,0,0,0,6.22-.86l.1,1.43c-.35,0-.35,0-1.45.16a42.73,42.73,0,0,1-4.87.51c0,1.72,0,1.72.05,2.83a25.24,25.24,0,0,0,5.81-.86l.09,1.45c-.28,0-.49,0-1.22.15-1.45.23-3.11.4-4.66.5,0,1.18,0,1.18.12,3.21a18.36,18.36,0,0,1,5.86,3.07,7.46,7.46,0,0,0,.72.48Zm-7.1-4a7.68,7.68,0,0,0-2.14-.23c-2.08,0-3.45.76-3.45,1.87s1.05,1.74,2.88,1.74a3,3,0,0,0,2.31-.69,2.76,2.76,0,0,0,.42-1.89Z"/>
        <path class="cls-1" d="M388.79,222.58a7.41,7.41,0,0,0-.08-1.22h1.57a18.3,18.3,0,0,0-.1,2.63v.23c4,0,5.58-.07,6.28-.15v1.49a39.43,39.43,0,0,0-4-.1l-2.24,0v4.15a6,6,0,0,1,.5,2.48,6.75,6.75,0,0,1-2.81,5.48,13.48,13.48,0,0,1-3.32,1.7,4.67,4.67,0,0,0-.92-1.32,11.08,11.08,0,0,0,3.4-1.57A5.45,5.45,0,0,0,389.4,232a2.76,2.76,0,0,1-.57,1,3.5,3.5,0,0,1-6.08-2.18,3.49,3.49,0,0,1,3.71-3.46,3.23,3.23,0,0,1,2.44.94c0-.29,0-.38,0-1.15,0-.09,0-.3,0-.55v-1.09c-4.22.08-8.46.29-9.86.52l-.07-1.53c.38,0,.53,0,.84,0,.61,0,.61,0,4-.12,2-.09,3.66-.13,5.08-.17Zm-.9,6.32a2.7,2.7,0,0,0-1.41-.34,2.23,2.23,0,0,0-2.33,2.21,2,2,0,0,0,2.16,2.08,2.36,2.36,0,0,0,2.46-2.48A1.51,1.51,0,0,0,387.89,228.9Z"/>
        <path class="cls-1" d="M405.68,236.44a3.15,3.15,0,1,1-3.15-3.15A3.15,3.15,0,0,1,405.68,236.44Zm-5.11,0a2,2,0,1,0,2-2A2,2,0,0,0,400.57,236.44Z"/>
      </g>
    </g>
  </g>
</svg>
