<svg xmlns="http://www.w3.org/2000/svg" width="676.01" height="203.15" viewBox="0 0 676.01 203.15">
  <defs>
    <style>
      .cls-1 {
        fill: #fff;
      }
    </style>
  </defs>
  <g id="レイヤー_2" data-name="レイヤー 2">
    <g id="レイヤー_1-2" data-name="レイヤー 1">
      <g>
        <path class="cls-1" d="M84.31,5.25a19.22,19.22,0,0,0-2.3.13V3.84a14.81,14.81,0,0,0,2.3.15h5.88V2.2A12.55,12.55,0,0,0,90.05.29h1.66a10.79,10.79,0,0,0-.15,1.89V4h6.19a13.11,13.11,0,0,0,2.35-.15V5.38a21.08,21.08,0,0,0-2.35-.13H92.08a21.92,21.92,0,0,0,8.65,9.07,5.51,5.51,0,0,0-1,1.36A23.82,23.82,0,0,1,95.4,12a20.09,20.09,0,0,1-3.93-5.9c.07,1.26.09,2,.09,2.73v4.77h2.29a12.56,12.56,0,0,0,2-.11V15a11.9,11.9,0,0,0-2.07-.13H91.56v2a14.87,14.87,0,0,0,.15,2.41H90.05a17.4,17.4,0,0,0,.14-2.43v-2h-2a12.17,12.17,0,0,0-2.12.13V13.5a13,13,0,0,0,2.08.11h2V8.84c0-.78,0-1.58.09-2.71a19.72,19.72,0,0,1-4,6.07,22.4,22.4,0,0,1-4,3.53,3.77,3.77,0,0,0-1-1.24,19.32,19.32,0,0,0,4.92-4.26,23.35,23.35,0,0,0,3.42-5Z"/>
        <path class="cls-1" d="M106.43,8.52a9.7,9.7,0,0,0-.07-1.23c.45,0,.91.06,1.5.06h4.55V3.93h-4.93A17.27,17.27,0,0,1,104,8.21a3.25,3.25,0,0,0-1-1,13.54,13.54,0,0,0,4.2-5.65A8.26,8.26,0,0,0,107.71,0l1.49.42-.27.57-.8,1.7h10.41a10.26,10.26,0,0,0,1.89-.11V4a12,12,0,0,0-1.89-.1H113.8V7.35h3.8a10.69,10.69,0,0,0,1.87-.11V8.63a16,16,0,0,0-1.85-.08H113.8v4.11h5.29a13.34,13.34,0,0,0,2.12-.13v1.52a14.22,14.22,0,0,0-2.12-.13H113.8v3.46a10.1,10.1,0,0,0,.14,2h-1.65a9.89,9.89,0,0,0,.12-2V13.92h-7.58a14.22,14.22,0,0,0-2.12.13V12.53a13.68,13.68,0,0,0,2.12.13h1.6Zm6,4.14V8.55h-4.62v4.11Z"/>
        <path class="cls-1" d="M126.71,6.55c-.14,6.8-.61,9.28-2.33,12.45a4.29,4.29,0,0,0-1.11-1,11,11,0,0,0,1.49-3.8,49.59,49.59,0,0,0,.63-9.7,25.24,25.24,0,0,0-.08-2.56c.67.06,1.34.11,2.16.11H133V1.41A7.2,7.2,0,0,0,132.87,0h1.55a8.32,8.32,0,0,0-.11,1.37V2h5.76a15.22,15.22,0,0,0,2.29-.13V3.28a14.65,14.65,0,0,0-2.19-.11H126.73l0,2.25h3.83V5.08a8.66,8.66,0,0,0-.09-1.38h1.45a9.57,9.57,0,0,0-.08,1.36v.36h4.87V5.08a10.63,10.63,0,0,0-.09-1.38h1.45A8.62,8.62,0,0,0,138,5.1v.32h2.52a10.38,10.38,0,0,0,1.91-.11V6.66a10.31,10.31,0,0,0-1.91-.11H138V8.61A11.83,11.83,0,0,0,138,9.87a11.64,11.64,0,0,0-1.36,0H132a13,13,0,0,0-1.51,0c0-.4.07-.84.07-1.26V6.55Zm13.06,5.67c-.25.27-.35.38-.71.8a19.1,19.1,0,0,1-3.4,3.06,18.55,18.55,0,0,0,6.84,1.75,5.41,5.41,0,0,0-.63,1.38,19.47,19.47,0,0,1-7.43-2.39,22.75,22.75,0,0,1-7.62,2.48,4.19,4.19,0,0,0-.59-1.31,21.33,21.33,0,0,0,7.06-1.91,12.93,12.93,0,0,1-3.38-3.52,13.73,13.73,0,0,0-2.08.1v-1.3a13.21,13.21,0,0,0,2.12.1h7.62A13.74,13.74,0,0,0,139,11.4Zm-8.39.34a9.19,9.19,0,0,0,3.08,2.85,14.17,14.17,0,0,0,3.36-2.85Zm.44-3.8h4.87V6.55h-4.87Z"/>
        <path class="cls-1" d="M145.61,13.54A21.12,21.12,0,0,1,149.83,18l-1.17,1.12a20.8,20.8,0,0,0-4.14-4.58Z"/>
        <path class="cls-1" d="M165.67,18.06a9.21,9.21,0,0,0,2.52-3.82l1.2.54a12.68,12.68,0,0,1-2.59,4.1Zm8.57-16.63A8.94,8.94,0,0,0,174.11,0h1.62a7.46,7.46,0,0,0-.13,1.43v.4h5.17a13.9,13.9,0,0,0,2.16-.13V3c-.67-.06-1.24-.08-2.19-.08h-1.23a21.69,21.69,0,0,1-1,2.06h3.44a13.39,13.39,0,0,0,2.46-.13V6.19a18.26,18.26,0,0,0-2.48-.1H168.31a18.37,18.37,0,0,0-2.47.1V4.85a18.26,18.26,0,0,0,2.52.13h3.15a20.26,20.26,0,0,0-.86-2.06h-1.29a19.73,19.73,0,0,0-2.05.08V1.7a12.56,12.56,0,0,0,2.08.13h4.85Zm-3.53,12c-1,0-1.62,0-2.31.06a12.6,12.6,0,0,0,.08-1.72V9.13a14.86,14.86,0,0,0-.08-1.84,23,23,0,0,0,2.31.08h8.59a22.55,22.55,0,0,0,2.37-.08,13.13,13.13,0,0,0-.09,1.82v2.63a13.66,13.66,0,0,0,.09,1.76c-.53,0-1.49-.06-2.25-.06Zm-1-3.59h10.63V8.42H169.72Zm0,2.54h10.63V10.85H169.72Zm2.37,4.83c0,.27.09.37.42.46a13,13,0,0,0,2.29.12c2.88,0,3.57-.06,3.91-.39a3.83,3.83,0,0,0,.29-2,2.06,2.06,0,0,0,0-.33,3.29,3.29,0,0,0,1.3.48c-.12,3.27-.29,3.38-5.06,3.38-3.86,0-4.43-.17-4.43-1.34V15.87a9.28,9.28,0,0,0-.12-1.59h1.55a7,7,0,0,0-.13,1.59Zm5-12.24a14.67,14.67,0,0,0,1-2.06H172A19.75,19.75,0,0,1,172.87,5Zm-.94,11.92a11.7,11.7,0,0,0-2.52-2.5l.9-.65a14.12,14.12,0,0,1,2.67,2.37Zm7.28,1.64a21.18,21.18,0,0,0-3.06-3.82l1.07-.61a26.1,26.1,0,0,1,3.08,3.63Z"/>
        <path class="cls-1" d="M205.4,18.46a11.06,11.06,0,0,0-2.06-.15H189v1h-1.51a16,16,0,0,0,.14-2.26V3.19c0-.88,0-1.49-.08-2.18a17,17,0,0,0,2.2.1h13.21A13.25,13.25,0,0,0,205,1V2.48a13.81,13.81,0,0,0-2-.13H189V17.07h14.36a13.83,13.83,0,0,0,2.08-.13Zm-11.93-9.1a17.12,17.12,0,0,1-.48,3.36,8.52,8.52,0,0,1-1.85,3.64,5.45,5.45,0,0,0-1.07-1,7.13,7.13,0,0,0,1.58-2.75,18.55,18.55,0,0,0,.58-5.33,19.79,19.79,0,0,0-.12-2.5h.33c1,0,3.78-.21,5.29-.4a16.51,16.51,0,0,0,4.71-1.07l.94,1.24a51.33,51.33,0,0,1-9.84,1.36V7c0,.32,0,.53,0,1.14h9.33a8.71,8.71,0,0,0,1.8-.13V9.47a10.9,10.9,0,0,0-1.8-.11h-3.32v5.25a6.51,6.51,0,0,0,.13,1.7h-1.6a8.55,8.55,0,0,0,.13-1.7V9.36Z"/>
        <path class="cls-1" d="M210.48,12.51a15.51,15.51,0,0,1-2.26,6.87,4.45,4.45,0,0,0-1.12-1.05,10.66,10.66,0,0,0,1.83-4.41A55,55,0,0,0,209.62,4a27.6,27.6,0,0,0-.1-3c.71.06,1.38.08,2.54.08H223A19.7,19.7,0,0,0,225.22,1c0,.5-.06,1-.06,1.61V4.09a15.29,15.29,0,0,0,.06,1.54c-.88,0-1.43-.07-2.1-.07H210.88c0,2.82-.08,3.78-.27,5.82h4.16V8.9h-1.31a15,15,0,0,0-1.89.09V7.68a10.3,10.3,0,0,0,1.92.11h1.28V7.52A13.81,13.81,0,0,0,214.68,6h1.45a7.42,7.42,0,0,0-.1,1.49v.27h4V7.52A8.25,8.25,0,0,0,220,6h1.49a7.12,7.12,0,0,0-.1,1.49v.27h1.8a10.52,10.52,0,0,0,2-.11V9a15,15,0,0,0-2-.09h-1.78v2.48h2.45a14.27,14.27,0,0,0,2.27-.13v1.39a18.29,18.29,0,0,0-2.24-.13h-5.65a6.66,6.66,0,0,0,2.08,2.65,12.71,12.71,0,0,0,2.91-2.5l1.18.78a27.68,27.68,0,0,1-3.15,2.41A13.86,13.86,0,0,0,226.63,18a3.7,3.7,0,0,0-.84,1.28A16,16,0,0,1,219.41,16a8.81,8.81,0,0,1-2.59-3.53H214.7v4.75c1.77-.34,2.48-.51,4.37-1v1.22c-2.25.61-3.13.8-7.43,1.64l-.74.16-.33-1.44h.19a18.76,18.76,0,0,0,2.64-.34v-5Zm13.4-8.06V2.25h-13v2.2ZM220.06,8.9h-4v2.48h4Z"/>
        <path class="cls-1" d="M228.84,10.94a25.87,25.87,0,0,0,4.22-4.68A8.35,8.35,0,0,1,234.11,5a2.18,2.18,0,0,1,3.48.14c.21.19.57.59,1.54,1.7a55.4,55.4,0,0,0,6.65,6.47,7,7,0,0,0,1.68,1.09l-.71,1.81a3.44,3.44,0,0,0-.51-.44c-1.3-1-3.69-3.17-5.1-4.56-1.24-1.26-2-2.12-4.07-4.49-.57-.65-.9-.9-1.26-.9s-.65.16-1.66,1.51c-1.24,1.66-2.33,3-3.67,4.47-.38.42-.42.46-.61.69Z"/>
        <path class="cls-1" d="M258.13,12.14c-1.22,2.77-2.46,4-4,4-2,0-3.48-2.19-3.48-5.13a8.75,8.75,0,0,1,2.2-5.79,8.76,8.76,0,0,1,6.78-2.79,8.11,8.11,0,0,1,5.78,2.08,7,7,0,0,1,2,5.12,7.64,7.64,0,0,1-4.8,7.24,16.69,16.69,0,0,1-3.2,1,3.27,3.27,0,0,0-.73-1.41,12.33,12.33,0,0,0,3.51-1A6.32,6.32,0,0,0,266,9.6a5.53,5.53,0,0,0-3.34-5.27,5.89,5.89,0,0,0-2.43-.53A31.54,31.54,0,0,1,258.13,12.14Zm-2.58-7.33a7.25,7.25,0,0,0-3.42,6.25c0,2,.88,3.57,2,3.57.88,0,1.72-1,2.63-3a29.09,29.09,0,0,0,1.91-7.77A6.65,6.65,0,0,0,255.55,4.81Z"/>
        <path class="cls-1" d="M276.51,10.29c-1.37,1.13-2,2.1-2,3.08s.61,1.66,1.79,2.06a13.06,13.06,0,0,0,3.84.42,19.75,19.75,0,0,0,6.3-.8l.19,1.73a6.74,6.74,0,0,0-.72.1,33.64,33.64,0,0,1-5.67.48,14.82,14.82,0,0,1-4.83-.65A3.34,3.34,0,0,1,273,13.54c0-1.36.8-2.69,2.42-4ZM274.3,2.62a23.79,23.79,0,0,0,5.59.51,23.25,23.25,0,0,0,5.31-.44l.1,1.38A32.7,32.7,0,0,0,280,7.26l-1.07-.86a33.55,33.55,0,0,1,3.72-2.22,16.63,16.63,0,0,1-3.17.27,40.56,40.56,0,0,1-4.62-.27l-.69-.06Zm10.48,3.64a16.73,16.73,0,0,1,2.14,3.25l-1.05.63a16.19,16.19,0,0,0-2.14-3.34ZM287.07,5a16.2,16.2,0,0,1,2.18,3.27l-1.05.59a17.45,17.45,0,0,0-2.14-3.3Z"/>
        <path class="cls-1" d="M303.43,9.34a21.14,21.14,0,0,0,2.5-4.8l1.3.52a32,32,0,0,1-2.33,4.28H308a11.82,11.82,0,0,0,2.31-.14v1.49a16.63,16.63,0,0,0-2.35-.13h-5.83a20.72,20.72,0,0,0,2.77,2.92A19.14,19.14,0,0,0,310.57,17a6,6,0,0,0-.91,1.3,22.9,22.9,0,0,1-5.29-3.57,19.35,19.35,0,0,1-3-3.53c.06,1.16.09,1.72.09,2.27v3.76a11.85,11.85,0,0,0,.14,2h-1.59a12,12,0,0,0,.14-2V13.5c0-.63,0-1,.09-2.25a17.2,17.2,0,0,1-3.95,4.52,24.19,24.19,0,0,1-3.76,2.56,5,5,0,0,0-.94-1.22A21.82,21.82,0,0,0,297.46,13a19.2,19.2,0,0,0,2.15-2.46h-5.48a19.87,19.87,0,0,0-2.31.13V9.2a15,15,0,0,0,2.28.14h6.09V3.84h-5a17.82,17.82,0,0,0-2.25.13V2.5a15.51,15.51,0,0,0,2.29.15h5V2a11.32,11.32,0,0,0-.12-1.74h1.55A8.2,8.2,0,0,0,301.5,2v.7h5.35a12.1,12.1,0,0,0,2.33-.15V4a15.53,15.53,0,0,0-2.29-.13H301.5v5.5Zm-7.65-4.83a25.07,25.07,0,0,1,2.08,3.89L296.69,9a20.68,20.68,0,0,0-2-3.95Z"/>
        <path class="cls-1" d="M315.34,2.75a17.17,17.17,0,0,0-.13-2.31h1.55a15,15,0,0,0-.12,2.33v2.9h.5a11.18,11.18,0,0,0,1.74-.09V6.93a17,17,0,0,0-1.74-.09h-.5v5.4a20.41,20.41,0,0,0,1.78-1.07l.09,1.26a37.39,37.39,0,0,1-4.37,2.37c-.34.15-.92.44-1.11.55l-.4-1.47a10.4,10.4,0,0,0,2.71-1v-6h-.91a15.58,15.58,0,0,0-1.78.11V5.56a11,11,0,0,0,1.83.11h.86Zm5.9,9.6a13.57,13.57,0,0,1-3.53,2.79,3.94,3.94,0,0,0-.86-1,10,10,0,0,0,4.87-4.43h-1.28a10.58,10.58,0,0,0-1.89.13V8.52a9.7,9.7,0,0,0,1.93.13h9a11.19,11.19,0,0,0,2.07-.13V9.85a16.07,16.07,0,0,0-2.07-.09H323a10.05,10.05,0,0,1-1,1.54H329a16.67,16.67,0,0,0,2.06-.09,10,10,0,0,0-.1,1.24,20.94,20.94,0,0,1-.93,5.61c-.37.75-.9,1-2.33,1-.48,0-1.17,0-1.82-.08a3.76,3.76,0,0,0-.42-1.37,14.19,14.19,0,0,0,2.49.23c.84,0,1-.16,1.26-1.42a25.15,25.15,0,0,0,.47-4h-1.41a12.29,12.29,0,0,1-1.87,3.17,21.68,21.68,0,0,1-2.58,2.58,15.71,15.71,0,0,1-1.7,1.17,3.76,3.76,0,0,0-1-1,13.47,13.47,0,0,0,4.12-3.19A10.47,10.47,0,0,0,327,12.35h-2.08a14.56,14.56,0,0,1-5.77,5.24,3.09,3.09,0,0,0-.91-1,12,12,0,0,0,5.32-4.26Zm.67-5.09a15.11,15.11,0,0,0-1.91.09,17,17,0,0,0,.08-1.89V2.73A14.84,14.84,0,0,0,320,.88,12.65,12.65,0,0,0,322,1h5.48a14.49,14.49,0,0,0,2.19-.11,14,14,0,0,0-.09,2V5.46a11.33,11.33,0,0,0,.09,1.87c-.47,0-1.12-.07-1.94-.07Zm-.59-3.65h7V2.08h-7Zm0,2.63h7V4.64h-7Z"/>
        <path class="cls-1" d="M340.18,3.59a9.14,9.14,0,0,0,1-2.88l1.68.3a4.37,4.37,0,0,0-.55,1.13c-.27.67-.55,1.24-.65,1.43l.44,0a29.41,29.41,0,0,0,6.61-.8l.13,1.43a6.81,6.81,0,0,0-.84.1,65,65,0,0,1-6.93.55,15.11,15.11,0,0,1-1.89,3c-.21.25-.63.74-.71.8s-.25.19-.28.21a0,0,0,0,1,0,0v0s0,0,.05.06l1-.73a5.62,5.62,0,0,1,3.17-1,2.54,2.54,0,0,1,2.77,2.33c1.54-.61,2.73-1.05,3.66-1.39a4.5,4.5,0,0,0,1.42-.6L350.89,9a33.22,33.22,0,0,0-5.61,1.84c0,.55,0,.76,0,1.28,0,.28,0,.74,0,1.16s0,.75,0,.94a4.78,4.78,0,0,0,0,.76l-1.43,0a27.79,27.79,0,0,0,.13-3,5.74,5.74,0,0,0,0-.63c-2.86,1.34-3.95,2.33-3.95,3.59s1.3,2,4.26,2a17.43,17.43,0,0,0,5.61-.82l.19,1.62c-.32,0-.42,0-.84.1a31.79,31.79,0,0,1-5.1.42c-3.76,0-5.59-1.07-5.59-3.23,0-1.15.72-2.25,2.14-3.32A17.09,17.09,0,0,1,343.85,10c-.17-1.15-.67-1.65-1.66-1.65a7.87,7.87,0,0,0-4.68,2.22,6.83,6.83,0,0,0-1.61,1.74l-1.18-1.17a20.8,20.8,0,0,0,4.7-6l.19-.31a2.35,2.35,0,0,1-.4,0l-3.08-.06h-.34l-.46,0,0-1.45a28.93,28.93,0,0,0,4.49.23Z"/>
        <path class="cls-1" d="M371.19,2.2a26,26,0,0,1-5.69,4c.59.42.84.59,1.64,1.2L366.6,8h3.8a11.7,11.7,0,0,0,2.22-.11l.82.91a6.79,6.79,0,0,0-.57.69,17,17,0,0,1-3.67,3.67,5.09,5.09,0,0,0-1.09-.86,14.48,14.48,0,0,0,3.36-3h-6.39v8.14c0,1.35-.5,1.7-2.45,1.7-.65,0-1.77,0-2.48-.1a5.07,5.07,0,0,0-.34-1.45,17.62,17.62,0,0,0,2.94.25c.72,0,.93-.14.93-.61V9.22h-6.51a16.43,16.43,0,0,0-2.16.12V7.83a14.71,14.71,0,0,0,2.33.13h8.39a30.37,30.37,0,0,0-5.79-3.57l.86-.93c1.85,1,2.56,1.37,3.57,2a20.58,20.58,0,0,0,4.47-3h-9.72a14.7,14.7,0,0,0-2.16.1V1.15a11.94,11.94,0,0,0,2.2.13h9.62a14.7,14.7,0,0,0,1.55-.06Z"/>
        <path class="cls-1" d="M384.51,7.64h-3.72a13.47,13.47,0,0,0-2.08.13V6.32a14,14,0,0,0,2.08.13h8.69a13.84,13.84,0,0,0,2.08-.13V7.77a12.79,12.79,0,0,0-2.08-.13h-3.67v3.42h4.05a13.27,13.27,0,0,0,2-.12v1.43a10.79,10.79,0,0,0-2-.13h-4.05V16.9a18.6,18.6,0,0,0,3.42.23c1.7,0,3.15-.06,4.92-.21a3.9,3.9,0,0,0-.47,1.47c-1.82,0-2,0-2.54,0a29.78,29.78,0,0,1-4.59-.16c-3.28-.47-5.34-1.73-6.45-3.95a14.33,14.33,0,0,1-3.19,4.77,3.93,3.93,0,0,0-1.09-1,11.16,11.16,0,0,0,2.83-3.74,13.15,13.15,0,0,0,1.28-4.79V9.36l1.47.3-.25,1.09c-.1.5-.42,1.72-.57,2.23a6.64,6.64,0,0,0,1.66,2.31,7.19,7.19,0,0,0,2.27,1.28Zm-.32-5.94a7.53,7.53,0,0,0-.12-1.32h1.64a5.24,5.24,0,0,0-.15,1.3v1h6.13a19.25,19.25,0,0,0,2.1-.09,10.06,10.06,0,0,0-.08,1.43V5.38a10.69,10.69,0,0,0,.08,1.49h-1.37V3.93H377.77V6.87h-1.39a9.14,9.14,0,0,0,.09-1.49V4.05a8.67,8.67,0,0,0-.09-1.43,19.52,19.52,0,0,0,2.12.09h5.69Z"/>
        <path class="cls-1" d="M398.64,5.08a8.71,8.71,0,0,0,1.62.11,49.69,49.69,0,0,0,6.26-.44c-.32-.72-.65-1.56-1-2.5-.23-.55-.36-.84-.55-1.22L406.6.8a7.28,7.28,0,0,0,.61,1.89A16.35,16.35,0,0,0,408,4.54a24.54,24.54,0,0,0,5.08-1.33l.21,1.49c-.44.09-.61.13-1.24.3-1.26.33-1.51.4-2.84.65l-.71.14a39,39,0,0,0,3.78,6.11l-1.41.8a4.15,4.15,0,0,0-1.45-.86,11.26,11.26,0,0,0-3.67-.54,7.42,7.42,0,0,0-4,.88,2.38,2.38,0,0,0-1.13,2,2.11,2.11,0,0,0,.79,1.64,7.13,7.13,0,0,0,4.1,1,13.79,13.79,0,0,0,6-1.34l.23,1.62a17.53,17.53,0,0,1-6.17,1.13c-2.56,0-4.49-.57-5.46-1.57a3.38,3.38,0,0,1-.94-2.31,3.93,3.93,0,0,1,2.37-3.43,9,9,0,0,1,4.07-.77,10.53,10.53,0,0,1,4.35.75,25.61,25.61,0,0,1-2.52-4.11c-.23-.44-.23-.49-.36-.7a60.12,60.12,0,0,1-7.47.55,4.83,4.83,0,0,0-.82.06Z"/>
        <path class="cls-1" d="M418,13.61a32.85,32.85,0,0,0,3.69-3.55c0-.84.07-2.17.13-4a22.89,22.89,0,0,0-3.3.29l-.08-1.45a4.4,4.4,0,0,0,.65,0l2.75-.16c.06-1.6.08-2.54.08-2.82a9,9,0,0,0-.06-1l1.66,0a23.45,23.45,0,0,0-.25,3.74,1.43,1.43,0,0,0,.42-.1l.54.65a7.32,7.32,0,0,0-1.07,1.3,3.64,3.64,0,0,1,0,.52c0,.42,0,.42,0,1.41a1.18,1.18,0,0,1,0,.19c0,.17,0,.21,0,.34l0,0a14.34,14.34,0,0,1,2.67-2.46c1.91-1.53,3.48-2.31,4.74-2.31A2.29,2.29,0,0,1,433,6.68a13.93,13.93,0,0,1-.49,3.06,23.51,23.51,0,0,0-.9,5c0,1,.44,1.49,1.26,1.49a2.53,2.53,0,0,0,1.79-1.16,8.59,8.59,0,0,0,1.19-2.41,6.71,6.71,0,0,0,1,1.43,10.78,10.78,0,0,1-1.3,2.08,3.65,3.65,0,0,1-2.9,1.51,2.61,2.61,0,0,1-1.47-.44,2.64,2.64,0,0,1-1-2.4c0-1.07,0-1.3.8-4.89a15.52,15.52,0,0,0,.52-3.15,1.06,1.06,0,0,0-1.15-1.13,5.94,5.94,0,0,0-3.17,1.43,32.53,32.53,0,0,0-4.05,3.57v4.53a34.27,34.27,0,0,0,.06,3.49h-1.64a17.42,17.42,0,0,0,.15-3.47c0-2.46,0-2.46.06-3.4h0a2.15,2.15,0,0,1-.38.5c-.31.36-.31.36-1,1.16l-.88,1a4,4,0,0,0-.54.67Z"/>
        <path class="cls-1" d="M439.61,3.86h.76c.29,0,.55,0,1.2-.06,2.5-.19,9.21-.57,11.92-.69a14.33,14.33,0,0,0,2.5-.23l.13,1.57a10.14,10.14,0,0,0-2.35.27,10.84,10.84,0,0,0-4,2.12,6.45,6.45,0,0,0-2.58,4.85,4.11,4.11,0,0,0,2.94,3.89,10.68,10.68,0,0,0,3.15.67h.21l-.27,1.7-.65-.12A10.65,10.65,0,0,1,448,16.21a5.11,5.11,0,0,1-2.33-4.28c0-2.44,1.43-4.77,3.93-6.45a13.8,13.8,0,0,1,2-1.11,41.58,41.58,0,0,1-4.62.46,61.36,61.36,0,0,0-7.24.69Z"/>
        <path class="cls-1" d="M463.18,2.86A14.53,14.53,0,0,0,463,5.35a36.45,36.45,0,0,0,.54,6.53c.47,2.15,1.33,3.59,2.13,3.59.37,0,.73-.35,1.05-1.05a15.55,15.55,0,0,0,1.09-3.59,6.43,6.43,0,0,0,1.24,1.2c-1,3.68-2,5.08-3.49,5.08-1.18,0-2.27-1.17-3-3.19s-1-4.68-1.13-9.85c0-.79,0-.86-.07-1.24ZM473.32,4a18.24,18.24,0,0,1,3,4.79,20,20,0,0,1,1.58,5.6l-1.5.61A18.49,18.49,0,0,0,472,4.62Z"/>
        <path class="cls-1" d="M484.53,2.08a10.24,10.24,0,0,0,2,.12c1.74,0,4.53-.12,6.42-.27a2.08,2.08,0,0,0,1-.23l.88,1.16a3.76,3.76,0,0,0-1.07.88,53.9,53.9,0,0,1-6.91,6l.05.06A10.61,10.61,0,0,1,492,8.46c3.51,0,5.75,1.72,5.75,4.41,0,3.28-3,5.44-7.7,5.44-3,0-4.67-1.09-4.67-3,0-1.41,1.31-2.46,3-2.46a4.22,4.22,0,0,1,3.46,1.72,5.94,5.94,0,0,1,1,2c2.2-.61,3.36-1.89,3.36-3.68,0-2-1.68-3.21-4.52-3.21a13.44,13.44,0,0,0-8.83,3.59L482,11.93a24,24,0,0,0,2.94-2.15c2.25-1.78,5.56-4.7,7-6.13l.3-.29.08-.08.08-.09,0,0-.19,0c-.67.13-3.19.27-6.38.38a10.77,10.77,0,0,0-1.13.1Zm4,12c-1.05,0-1.7.5-1.7,1.3a1.44,1.44,0,0,0,.84,1.28,5.44,5.44,0,0,0,2.35.48,7.23,7.23,0,0,0,1.53-.15C491,15,490,14,488.48,14Z"/>
        <path class="cls-1" d="M504.21,2.18a8.68,8.68,0,0,0-.13-1.93h1.58a10.18,10.18,0,0,0-.13,1.93v.59H509a9.34,9.34,0,0,0,1.74-.12V4.07A9.51,9.51,0,0,0,509,4h-3.47V7.37c2-.34,2.67-.48,5.32-1.09V7.41c-2.88.69-5.23,1.18-7.4,1.56a10.59,10.59,0,0,0-1.61.33l-.23-1.45a17.31,17.31,0,0,0,2.6-.27Zm11.09,8a17.38,17.38,0,0,0,2.26-.1,21.13,21.13,0,0,0-.08,2.31v4.78a12.57,12.57,0,0,0,.13,2.1h-1.43v-1H506v1h-1.4a14.38,14.38,0,0,0,.12-2.1V12.35a22.84,22.84,0,0,0-.08-2.31,17.21,17.21,0,0,0,2.25.1h2.52a8.71,8.71,0,0,0,.86-1.93l1.43.36a12.41,12.41,0,0,1-.87,1.57ZM506,13.52h10.19V11.25H506Zm0,3.59h10.19v-2.5H506Zm7.12-10.54c0,.63.21.69,2.5.69,1.85,0,2.46-.08,2.71-.35a6.27,6.27,0,0,0,.52-2.84,3.2,3.2,0,0,0,1.24.55c-.21,2.31-.46,3.11-1.07,3.48s-1.28.36-3.78.36c-2.87,0-3.44-.25-3.44-1.47V2.1a10.92,10.92,0,0,0-.13-1.85h1.58a7.84,7.84,0,0,0-.13,1.83V3.36a21.84,21.84,0,0,0,2.48-.82,13.78,13.78,0,0,0,3.3-1.6l.9,1.14c-1,.42-1,.42-2.16.92a33,33,0,0,1-4.52,1.51Z"/>
        <path class="cls-1" d="M525.55,2.39a11.79,11.79,0,0,0-.11-2.18h1.47a14.45,14.45,0,0,0-.1,2.16V4.43h.82A8,8,0,0,0,529,4.35V5.63a10.52,10.52,0,0,0-1.32-.07h-.76a11.73,11.73,0,0,0,2,3.43,9.19,9.19,0,0,0-.73,1.13,14.34,14.34,0,0,1-1.37-2.94c.07,1.76.09,2.69.09,3.42V17a17.9,17.9,0,0,0,.12,2.44h-1.51a18.39,18.39,0,0,0,.13-2.44V11c0-.84,0-.84.06-1.84,0-.13,0-.51.06-1,0-.17,0-.42,0-.78a17.42,17.42,0,0,1-1.34,4.05A17.52,17.52,0,0,1,523,13.79a5.26,5.26,0,0,0-.79-1.3,12.5,12.5,0,0,0,2-3.31,20.77,20.77,0,0,0,1.18-3.62h-1.1a8.24,8.24,0,0,0-1.47.09V4.35a9,9,0,0,0,1.47.08h1.31ZM531,4.3a11.06,11.06,0,0,0-1.83.11V3.09a11.45,11.45,0,0,0,1.85.1h1.11A10.24,10.24,0,0,0,530.8.88L531.91.4a13.69,13.69,0,0,1,1.51,2.79h2.44A13.39,13.39,0,0,0,537.28.36l1.24.44c-.33.67-1,1.89-1.34,2.39H539a13.16,13.16,0,0,0,1.91-.12V4.43A12.82,12.82,0,0,0,539,4.3H535.2V6.11h3.18A10.74,10.74,0,0,0,540.29,6V7.37a12.21,12.21,0,0,0-1.89-.11h-3.2V9.15h4.12A13.06,13.06,0,0,0,541.23,9v1.36a13.15,13.15,0,0,0-1.89-.12h-4a11.67,11.67,0,0,0,1.72,3.15,11.24,11.24,0,0,0,2.29-2.71l1.07.75a16.43,16.43,0,0,1-2.62,2.86,11.81,11.81,0,0,0,4,2.94,5.24,5.24,0,0,0-.88,1.22,14.49,14.49,0,0,1-3.09-2.42A13.09,13.09,0,0,1,535,11.78a18.38,18.38,0,0,1,.16,2.08V17.8c0,1.14-.39,1.43-2,1.43a16.76,16.76,0,0,1-1.72-.08,3.28,3.28,0,0,0-.38-1.32,13.81,13.81,0,0,0,2.08.18c.61,0,.73-.08.73-.46v-3a27.81,27.81,0,0,1-4.45,2.71,8.36,8.36,0,0,0-.94.57l-.61-1.39a21.91,21.91,0,0,0,6-3.19v-3h-3.27a11.13,11.13,0,0,0-1.81.1V9.07a15,15,0,0,0,1.83.08h3.25V7.26h-2.33a10.7,10.7,0,0,0-1.82.11V6a9.4,9.4,0,0,0,1.78.11h2.37V4.3Zm-.78,6.45a18.7,18.7,0,0,1,2,2.54l-1,.69a12.88,12.88,0,0,0-2-2.58Z"/>
        <path class="cls-1" d="M548.29,1.6A27.62,27.62,0,0,0,547.41,5a31,31,0,0,0-.63,6.57c0,1.63,0,2.87.12,4a19.93,19.93,0,0,1,1.37-4.1l1,.48a18.23,18.23,0,0,0-1.71,5.78V18l-1.51.13c0-.34-.06-.44-.12-.84a30.06,30.06,0,0,1-.55-5.94,34.45,34.45,0,0,1,1-8.32,10.94,10.94,0,0,0,.29-1.68ZM553.64,10a4.85,4.85,0,0,0-1.57,3.08c0,1.56,1.32,2.31,4,2.31a13.87,13.87,0,0,0,4.83-.73l.21,1.61c-.27,0-.32.05-.74.11a21.9,21.9,0,0,1-4.3.42c-2.39,0-3.91-.51-4.81-1.6a3,3,0,0,1-.63-1.93,5.8,5.8,0,0,1,1.83-3.9ZM551,3.82a14.24,14.24,0,0,0,3.57.32,22.32,22.32,0,0,0,5.62-.57l.11,1.49-1.45.19a35.2,35.2,0,0,1-4.52.27A27.22,27.22,0,0,1,551,5.31Z"/>
        <path class="cls-1" d="M569.18,1.51a30,30,0,0,0-1.61,9.85c0,.73,0,2,.08,2.94,0,.17,0,.21,0,.59v.4l.09,0a18.21,18.21,0,0,1,1.23-3.7,2.17,2.17,0,0,0,.17-.42l1,.48a18.3,18.3,0,0,0-1.8,6,2.48,2.48,0,0,0,0,.42l-1.49.14c0-.19,0-.29-.13-.77a33.36,33.36,0,0,1-.59-6.24,36,36,0,0,1,1.09-8.63,10.13,10.13,0,0,0,.24-1.32Zm2.13,3.91a14.59,14.59,0,0,0,3.77.33c.82,0,1.39,0,2.25-.06,0-2,0-2,0-3.57a4.85,4.85,0,0,0-.06-.86h1.57a22,22,0,0,0-.15,3.3c0,.23,0,.56,0,1a14.3,14.3,0,0,0,3.63-.77l.06,1.43-1.47.29a19.54,19.54,0,0,1-2.22.34c0,2.07.06,3.15.23,5.94a15,15,0,0,1,3.5,2.06c.25.16.3.21.53.35l-.65,1.47a11.34,11.34,0,0,0-3-2.18.91.91,0,0,1-.2-.13l-.19-.12a3.07,3.07,0,0,1,0,.54,3.77,3.77,0,0,1-.25,1.43c-.51,1.11-1.79,1.76-3.51,1.76-2.44,0-4-1.15-4-3s1.66-3,4-3a6,6,0,0,1,2.33.42c-.06-.44-.15-2.41-.21-5.48-.94,0-1.59.06-2.39.06s-1.64,0-2.37-.06a5.85,5.85,0,0,0-.68,0l-.35,0-.21,0h-.09Zm4,7.87c-1.64,0-2.71.69-2.71,1.74s1,1.7,2.43,1.7A2.87,2.87,0,0,0,577.2,16a2.43,2.43,0,0,0,.4-1.64c0-.15,0-.63,0-.63A5.49,5.49,0,0,0,575.34,13.29Z"/>
        <path class="cls-1" d="M586.61,13.54A21.12,21.12,0,0,1,590.83,18l-1.17,1.12a20.8,20.8,0,0,0-4.14-4.58Z"/>
        <path class="cls-1" d="M2.25,53A17.87,17.87,0,0,0,0,53V51.38a10,10,0,0,0,2.29.15h10V41.39H2.73a16.65,16.65,0,0,0-2.42.11V39.82A12.11,12.11,0,0,0,2.73,40H12.81l1.09,0c0,.53,0,.88,0,1.64V52.31a14.85,14.85,0,0,0,.1,1.91H12.28V53Z"/>
        <path class="cls-1" d="M22.43,52.75v1.49H20.81a11.16,11.16,0,0,0,.09-1.57V41.26a10.86,10.86,0,0,0-.09-1.63,15.91,15.91,0,0,0,1.64.06H33.64a11.58,11.58,0,0,0,1.64-.06,10.13,10.13,0,0,0-.07,1.63V52.62c0,.63,0,1.18.07,1.62h-1.6V52.75ZM33.68,41.08H22.43v10.3H33.68Z"/>
        <path class="cls-1" d="M55.1,43.11A12.51,12.51,0,0,0,57.56,43V44.6a20.35,20.35,0,0,0-2.44-.1H50.38c-.17,2.94-.55,4.51-1.56,6.11A12.14,12.14,0,0,1,43.62,55a4.57,4.57,0,0,0-1.07-1.35,9.64,9.64,0,0,0,5.2-4.32,10.5,10.5,0,0,0,1.07-4.83H43a20.45,20.45,0,0,0-2.44.1V43a12.62,12.62,0,0,0,2.46.15h5.86c0-.78,0-1.19,0-1.85V39.75A9.4,9.4,0,0,0,48.8,38h1.77a9.25,9.25,0,0,0-.11,1.78l0,1.51v1.85Z"/>
        <path class="cls-1" d="M75.16,41.08A4.53,4.53,0,0,0,76.92,41l.86.82c-.19.33-.19.33-.46,2.12a13.08,13.08,0,0,1-3.8,7.66A16.5,16.5,0,0,1,67.37,55a4.37,4.37,0,0,0-1-1.43,13.85,13.85,0,0,0,4.64-2c2.94-2,4.47-4.91,4.87-9.17H64.45v3.15c0,.67,0,1.15.06,1.55H62.79c0-.36.08-1,.08-1.57V42.69a14.47,14.47,0,0,0-.08-1.7,18.55,18.55,0,0,0,1.93.09h4.45V39a6.9,6.9,0,0,0-.1-1.34h1.76a8.66,8.66,0,0,0-.1,1.32v2.15Z"/>
        <path class="cls-1" d="M98.45,38.83a4.62,4.62,0,0,0-.93.88,36.69,36.69,0,0,1-4.91,4.22v9a14.63,14.63,0,0,0,.1,2.22H90.89A11.49,11.49,0,0,0,91,52.92v-8a32.76,32.76,0,0,1-8.1,3.67,4.92,4.92,0,0,0-.82-1.4A29.65,29.65,0,0,0,93,41.77a17.62,17.62,0,0,0,4-4Z"/>
        <path class="cls-1" d="M109,38.58a9.38,9.38,0,0,0-.13,1.8c-.17,5.69-.33,7.25-1.13,9.37a12.85,12.85,0,0,1-3.63,5.18,4,4,0,0,0-1.26-1.13A10.4,10.4,0,0,0,106.34,49c.65-1.83,1-4.58,1-9a8.48,8.48,0,0,0-.09-1.49Zm5.2-.23a8.47,8.47,0,0,0-.12,1.84l-.13,12.69a9.8,9.8,0,0,0,3.91-2.44,10.51,10.51,0,0,0,2.48-4.2,5.64,5.64,0,0,0,1.17,1.22,11.87,11.87,0,0,1-4.22,5.39,14,14,0,0,1-3,1.54l-.67.25a2.51,2.51,0,0,0-.49.23l-.84-1a3.39,3.39,0,0,0,.15-1.42l.13-12.29a7.94,7.94,0,0,0-.09-1.87Z"/>
        <path class="cls-1" d="M140.28,54.66a39.1,39.1,0,0,0-6.72-6.49,22.76,22.76,0,0,1-4,3.76,27.07,27.07,0,0,1-4.12,2.52,4.57,4.57,0,0,0-1-1.39,16.79,16.79,0,0,0,4.27-2.41,22.76,22.76,0,0,0,7.49-9.47,2,2,0,0,1,.11-.25.47.47,0,0,0,.06-.15,3.7,3.7,0,0,1-.5,0l-7,.11a13.39,13.39,0,0,0-2.16.17l0-1.71a9.23,9.23,0,0,0,1.66.11h.54l7.5-.08a4.28,4.28,0,0,0,1.34-.17l.88.9a3.81,3.81,0,0,0-.58,1A25.76,25.76,0,0,1,134.48,47a52.09,52.09,0,0,1,7,6.3Z"/>
        <path class="cls-1" d="M161.66,41.94l-.57,1.13a16.06,16.06,0,0,1-2,3.3c.84,1.36,1.8,2.26,2.41,2.26.4,0,.69-.79.92-2.56a3.64,3.64,0,0,0,1.05.84c-.44,2.19-1,3-2,3s-2.22-1-3.23-2.54a14.62,14.62,0,0,1-3,2.54,4.31,4.31,0,0,0-.93-.88,12.11,12.11,0,0,0,3.28-2.71,17.41,17.41,0,0,1-1.58-6.06h-8.54c0,6.06-.38,8.08-1.79,10.24a3,3,0,0,0-1.17-.84C146,47.71,146.33,46,146.33,41a17.49,17.49,0,0,0-.11-2c.68.06,1.47.1,2.48.1H156l-.13-1.34a4.15,4.15,0,0,0-.12-.84h1.49a7.28,7.28,0,0,0-.07,1c0,.32,0,.61.07,1.2h3.4a12.39,12.39,0,0,0-2.44-1.59l.86-.72a16.61,16.61,0,0,1,2.48,1.58l-.78.73a13.1,13.1,0,0,0,2.38-.12v1.36a18.16,18.16,0,0,0-2.35-.1h-3.43a16.91,16.91,0,0,0,1.18,5,12.1,12.1,0,0,0,1.85-3.8Zm-13.32,9a12,12,0,0,1-2.45,4.52l-1.14-.8a8.81,8.81,0,0,0,2.44-4.29Zm7.16-8a12.21,12.21,0,0,0-1.61-.08h-4a13.21,13.21,0,0,0-1.64.08V41.64a10.56,10.56,0,0,0,1.64.09h4a10.38,10.38,0,0,0,1.61-.09Zm-6.72,2.44a10.18,10.18,0,0,0-.06-1.18,13.84,13.84,0,0,0,1.43.06h3.38a14.27,14.27,0,0,0,1.45-.06,9.35,9.35,0,0,0-.06,1.16v1.91c0,.48,0,.58,0,1.19a13.65,13.65,0,0,0-1.41,0h-3.42a12.17,12.17,0,0,0-1.41.06,9.09,9.09,0,0,0,.06-1.17ZM151.14,54c0,.48.29.54,3,.54,2.27,0,3.09-.12,3.38-.48a3.38,3.38,0,0,0,.34-1.8,4.11,4.11,0,0,0,1.28.52c-.3,2.79-.57,2.94-5.46,2.94-3.3,0-3.86-.21-3.86-1.45V51.87a8.51,8.51,0,0,0-.13-1.56h1.51a7.89,7.89,0,0,0-.1,1.43Zm-1.2-6.66h3.82v-2.1h-3.82Zm5.67,5.57a15.41,15.41,0,0,0-3.4-2.48l.82-.78A17.56,17.56,0,0,1,156.47,52Zm4.72-2.4a23,23,0,0,1,2.86,4l-1.14.67A18.41,18.41,0,0,0,159.24,51Z"/>
        <path class="cls-1" d="M181.73,48.17a16.64,16.64,0,0,0,2.37-.12v1.4a20.3,20.3,0,0,0-2.37-.12h-5.18a12,12,0,0,0,2.51,2,21.24,21.24,0,0,0,5.76,2.44,5.68,5.68,0,0,0-.9,1.28,23.06,23.06,0,0,1-5.15-2.46,13.21,13.21,0,0,1-3.19-2.81c.06,1.13.08,1.91.08,2.37V54a8.39,8.39,0,0,0,.15,2.2h-1.6a13.53,13.53,0,0,0,.13-2.2V52.2c0-.44,0-1.59.08-2.37a19.23,19.23,0,0,1-8,5.21,4.6,4.6,0,0,0-.95-1.22,19.11,19.11,0,0,0,8-4.49h-5a20.42,20.42,0,0,0-2.35.12v-1.4a13.55,13.55,0,0,0,2.31.12h5.9v-.63a7.13,7.13,0,0,0-.1-1.43h1.53a9.73,9.73,0,0,0-.09,1.43v.63Zm-15-8.1A15.56,15.56,0,0,1,170,41.79l-.76,1A11.23,11.23,0,0,0,166,41ZM172,43.45a31.14,31.14,0,0,1-4.62,3.23,3.23,3.23,0,0,0-.51.34l-.69-1.24a17,17,0,0,0,5.38-3.42Zm-3.7-6.13a15.13,15.13,0,0,1,3.36,1.82l-.75,1a12.68,12.68,0,0,0-3.41-1.87Zm10.52,2.12a16.39,16.39,0,0,0,1.85-.07,13.8,13.8,0,0,0-.09,1.73v3.25c0,.59.07.63,1,.63,1.09,0,1.41-.08,1.49-.44a10.53,10.53,0,0,0,.17-2.27,3.63,3.63,0,0,0,1.22.48c-.21,3.24-.36,3.41-3,3.41-1.81,0-2.15-.23-2.15-1.43V40.57h-2.41A7.88,7.88,0,0,1,171.72,47a3.3,3.3,0,0,0-.82-1,7.3,7.3,0,0,0,3.69-2.67,6.67,6.67,0,0,0,1-2.73H174.4a13.11,13.11,0,0,0-2.12.11V39.31a10.4,10.4,0,0,0,2.14.13h1.31c0-.42,0-.76,0-1.24a6.75,6.75,0,0,0-.09-1.24l1.47,0a5.57,5.57,0,0,0-.08,1c0,.38-.06,1.05-.08,1.47Z"/>
        <path class="cls-1" d="M196.37,38.62a7.88,7.88,0,0,0-.13-1.68h1.6a6.83,6.83,0,0,0-.13,1.7V39H203a18.18,18.18,0,0,0,2.33-.13V40.3a15.22,15.22,0,0,0-2.31-.11H190.91V44c0,6-.88,9.15-3.25,11.84a3.51,3.51,0,0,0-1.14-.93,10.79,10.79,0,0,0,2.9-7.09c-.4.25-1.15.69-2.27,1.3a4.52,4.52,0,0,0-.5.29l-.59-1.32a16.08,16.08,0,0,0,3.46-1.55c.07-1.07.09-1.64.09-2.36a36.91,36.91,0,0,0-.15-5.35,20.28,20.28,0,0,0,2.4.11h4.51Zm-9,2a20.88,20.88,0,0,1,1.56,3.89l-1.12.56a17.37,17.37,0,0,0-1.47-3.92Zm10.38,3.24H194.1a20.11,20.11,0,0,0-2.08.08V42.54a13.31,13.31,0,0,0,2.08.11H203a13.73,13.73,0,0,0,2.06-.13V44a15.12,15.12,0,0,0-2.06-.1H199.1v3.84h3.44a9.74,9.74,0,0,0,1.83-.11V49a11.44,11.44,0,0,0-1.81-.1H199.1v5h4.2a16.34,16.34,0,0,0,2.2-.13v1.47a16.89,16.89,0,0,0-2.22-.13H192.15a17.72,17.72,0,0,0-2.33.13V53.84a13.24,13.24,0,0,0,2.1.11h1.43V48.42a16.57,16.57,0,0,0-.13-2.05h1.6a14.63,14.63,0,0,0-.13,2.05V54h3.07Z"/>
        <path class="cls-1" d="M212,39.27a12.49,12.49,0,0,0-.12-2.12h1.55a16.27,16.27,0,0,0-.1,2.12v1.41h2a13.21,13.21,0,0,0,1.93-.13V42a13.42,13.42,0,0,0-1.91-.09,20.2,20.2,0,0,1-1.49,6.62,41.51,41.51,0,0,1,3,4.41l-1.05,1a39.23,39.23,0,0,0-2.56-4.11,17.06,17.06,0,0,1-4.66,5.6,3.71,3.71,0,0,0-1.05-1,14.61,14.61,0,0,0,4.85-5.74,37.4,37.4,0,0,0-3.8-4.28l1-.84a48.77,48.77,0,0,1,3.38,3.8,19.57,19.57,0,0,0,1-5.46h-4.37a10.42,10.42,0,0,0-1.87.11V40.55a13.21,13.21,0,0,0,1.93.13H212ZM218,44.9a23.65,23.65,0,0,1,3.11,4.68l-1.16.8a18.29,18.29,0,0,0-3-4.83Zm1.32-1.75a13.5,13.5,0,0,0-2,.13V41.85a11.37,11.37,0,0,0,2,.11h3.27V39.61a11.5,11.5,0,0,0-.15-2.29h1.62a14.73,14.73,0,0,0-.13,2.29V42h.53a12.41,12.41,0,0,0,2-.13v1.45a12.1,12.1,0,0,0-2.06-.13H224V54c0,1.38-.42,1.7-2.31,1.7-.94,0-1.46,0-2.39-.07a4.8,4.8,0,0,0-.44-1.4,21.34,21.34,0,0,0,2.69.23c.94,0,1.11-.09,1.11-.53V43.15Z"/>
        <path class="cls-1" d="M231.8,40.07a14.09,14.09,0,0,1-2.25,2.54,4.13,4.13,0,0,0-1-.88A9.93,9.93,0,0,0,232,37l1.34.38c-.63,1.15-.63,1.15-.86,1.55h3.34a14,14,0,0,0,2.1-.12v1.34a18.13,18.13,0,0,0-1.93-.08h-1.47a19.23,19.23,0,0,1,1.13,2l-1.2.44a13.8,13.8,0,0,0-1.15-2.41Zm13.41,3.27a11,11,0,0,0,2.1-.14v1.4a16,16,0,0,0-2.1-.12h-6.67V46h4.78c.17,0,.59,0,1.26,0a6.15,6.15,0,0,0,.74-.06,14.05,14.05,0,0,0-.08,1.8v1.77c0,1-.45,1.38-1.81,1.38a12.36,12.36,0,0,1-1.37-.08,3.43,3.43,0,0,0-.31-1.16,7.06,7.06,0,0,0,1.51.17c.53,0,.72-.13.72-.5V47.16h-5.44v1.26a14.25,14.25,0,0,0,4.51,3.87,19.4,19.4,0,0,0,4.52,1.82,5.41,5.41,0,0,0-.93,1.26,18.5,18.5,0,0,1-8.21-5.46c0,.7.07,1.26.09,1.79v2.14a9.41,9.41,0,0,0,.16,2.27h-1.57a13.63,13.63,0,0,0,.15-2.27V51.72c0-.52,0-1.07,0-1.74a18,18,0,0,1-7.52,5.39,4.49,4.49,0,0,0-1-1.17A21.71,21.71,0,0,0,233,52.29a13.91,13.91,0,0,0,4.27-3.85V47.16h-5v2.38a12.38,12.38,0,0,0,.09,1.93h-1.47a19.18,19.18,0,0,0,.1-2v-1.7c0-.71,0-1.24-.08-1.82a19.16,19.16,0,0,0,1.95.08h4.37V44.48h-6.11a14.93,14.93,0,0,0-2.06.12V43.2a11.72,11.72,0,0,0,2.06.14h6.09a9.76,9.76,0,0,0-.09-1.3h1.47a6.82,6.82,0,0,0-.08,1.3Zm-5.66-3.27A11.19,11.19,0,0,1,238.1,42a3.48,3.48,0,0,0-1-.72,9,9,0,0,0,2.6-4.26l1.3.4c-.35.78-.5,1-.75,1.55h5a16.8,16.8,0,0,0,2.24-.12v1.36a18,18,0,0,0-2.2-.1H242.8a13.66,13.66,0,0,1,1.15,2l-1.15.47a15.6,15.6,0,0,0-1.26-2.52Z"/>
        <path class="cls-1" d="M258.13,48.89c-1.22,2.77-2.46,4-4,4-2,0-3.48-2.19-3.48-5.13a8.52,8.52,0,0,1,9-8.58,8.11,8.11,0,0,1,5.78,2.08,7,7,0,0,1,2,5.12,7.64,7.64,0,0,1-4.8,7.24,16.69,16.69,0,0,1-3.2,1,3.27,3.27,0,0,0-.73-1.41,12.33,12.33,0,0,0,3.51-1A6.32,6.32,0,0,0,266,46.35a5.53,5.53,0,0,0-3.34-5.27,5.89,5.89,0,0,0-2.43-.53A31.54,31.54,0,0,1,258.13,48.89Zm-2.58-7.33a7.25,7.25,0,0,0-3.42,6.25c0,2,.88,3.57,2,3.57.88,0,1.72-1,2.63-3a29.09,29.09,0,0,0,1.91-7.77A6.65,6.65,0,0,0,255.55,41.56Z"/>
        <path class="cls-1" d="M271.89,41.29a15.14,15.14,0,0,0,2.62.18c.42,0,.65,0,1.26,0a20.43,20.43,0,0,0,.46-3.86l1.66.17c-.12.5-.12.5-.38,2-.1.67-.16,1-.27,1.6a17.15,17.15,0,0,0,3.78-.72l.11,1.45a4.68,4.68,0,0,0-.59.11,30,30,0,0,1-3.55.5c-.32,1.66-.9,4-1.47,5.94A53.37,53.37,0,0,1,273.1,55l-1.53-.65a42.15,42.15,0,0,0,3.95-11.62c-.42,0-.67,0-1.45,0s-.92,0-1.74-.05h-.09l-.35,0Zm9.38,7.62a7.34,7.34,0,0,0-.63.79,2.6,2.6,0,0,0-.52,1.5c0,1.26,1.28,1.93,3.67,1.93a15.53,15.53,0,0,0,4.64-.72l.15,1.58-.92.14a20.41,20.41,0,0,1-3.74.36c-3.45,0-5.23-1.07-5.23-3.15,0-.94.29-1.59,1.41-3Zm6.49-3.64a22.21,22.21,0,0,0-2.48-.14,18.44,18.44,0,0,0-5.25.71l-.14-1.43a24,24,0,0,1,5.56-.69c.4,0,.71,0,2.29.06Z"/>
        <path class="cls-1" d="M300.24,47.25H295.3a13.91,13.91,0,0,0-2,.1v-1.3a11.43,11.43,0,0,0,2,.11h4.9V44.79h-4.39a11.88,11.88,0,0,0-1.72.09,10.6,10.6,0,0,0,.08-1.41v-.93a10.86,10.86,0,0,0-.08-1.42,14.54,14.54,0,0,0,1.74.08h4.37V39.82h-6.09a18.78,18.78,0,0,0-2.35.12V38.56a16.2,16.2,0,0,0,2.39.12h6.05a8.73,8.73,0,0,0-.13-1.89h1.53a7.21,7.21,0,0,0-.14,1.89h6.42a16.53,16.53,0,0,0,2.41-.12v1.38a19.59,19.59,0,0,0-2.37-.12H301.5V41.2h4.82a14.25,14.25,0,0,0,1.73-.08,9.17,9.17,0,0,0-.09,1.42v.93a9,9,0,0,0,.09,1.41,11.93,11.93,0,0,0-1.7-.09H301.5v1.37h4.57a18.53,18.53,0,0,0,2.35-.09,17.4,17.4,0,0,0-.06,1.74v.89a10.31,10.31,0,0,0,2.23-.13v1.32a15.12,15.12,0,0,0-2.23-.1v1.36a11.64,11.64,0,0,0,.13,2.1h-1.37v-.86H301.5v1.74c0,1.45-.42,1.75-2.46,1.75-.44,0-.82,0-2-.09a3.46,3.46,0,0,0-.35-1.32,17.66,17.66,0,0,0,2.6.21c.76,0,.95-.1.95-.57V52.39h-5.06a13.11,13.11,0,0,0-2.06.11V51.2a13.18,13.18,0,0,0,2,.1h5.11V49.79h-6.3a16,16,0,0,0-2.29.1V48.57a13.94,13.94,0,0,0,2.29.13h6.3Zm-4.77-5v1.55h4.77V42.23Zm6,1.55h5.2V42.23h-5.2Zm5.62,4.92V47.25H301.5V48.7Zm-5.62,2.6h5.62V49.79H301.5Z"/>
        <path class="cls-1" d="M319,40.07a15.51,15.51,0,0,0-2.25-2.92l1.26-.5a16.52,16.52,0,0,1,2.44,3.42h3a14.34,14.34,0,0,0,2.37-3.4l1.35.5a23.59,23.59,0,0,1-2.27,2.9h4.31a12.68,12.68,0,0,0,2.09-.13v1.43a14.7,14.7,0,0,0-2.09-.13H314.92a15.5,15.5,0,0,0-2.1.13V39.94a10,10,0,0,0,2.1.13Zm-3.46,13.6a14.35,14.35,0,0,0,.12,2.23h-1.53a16.49,16.49,0,0,0,.11-2.27V44.81a18.51,18.51,0,0,0-.07-1.87,18.23,18.23,0,0,0,2,.09h3.3a11,11,0,0,0,1.91-.09,21.68,21.68,0,0,0-.07,2.23v8.9c0,1.26-.4,1.62-1.76,1.62-.44,0-.95,0-1.74-.09a6.34,6.34,0,0,0-.34-1.3,9.71,9.71,0,0,0,1.83.21c.61,0,.73-.1.73-.54V51.15h-4.53Zm4.53-7.14V44.22h-4.53v2.31Zm0,3.45V47.71h-4.53V50Zm5.46-6.78a11,11,0,0,0-.1,2v4.26a14.11,14.11,0,0,0,.08,2.37h-1.47a18.17,18.17,0,0,0,.08-2.35V45.17a12,12,0,0,0-.1-2Zm4.52-.63a11.35,11.35,0,0,0-.13,2.26v9.09c0,1.47-.44,1.85-2.16,1.85-.72,0-1.41,0-2.46-.12a5.18,5.18,0,0,0-.4-1.41,16.56,16.56,0,0,0,2.71.27c.82,0,1-.08,1-.63V44.79a11.23,11.23,0,0,0-.13-2.22Z"/>
        <path class="cls-1" d="M350.19,39a26,26,0,0,1-5.69,4c.59.42.84.59,1.64,1.2l-.54.55h3.8a11.76,11.76,0,0,0,2.22-.11l.82.91a6.79,6.79,0,0,0-.57.69,17,17,0,0,1-3.67,3.67,5.09,5.09,0,0,0-1.09-.86,14.48,14.48,0,0,0,3.36-3h-6.39v8.14c0,1.35-.5,1.7-2.45,1.7-.65,0-1.77,0-2.48-.1a5.07,5.07,0,0,0-.34-1.45,17.62,17.62,0,0,0,2.94.25c.72,0,.93-.14.93-.61V46h-6.51a16.43,16.43,0,0,0-2.16.12V44.58a14.71,14.71,0,0,0,2.33.13h8.39a30.69,30.69,0,0,0-5.79-3.57l.86-.93c1.85,1,2.56,1.37,3.57,2a20.58,20.58,0,0,0,4.47-3h-9.72a14.7,14.7,0,0,0-2.16.1V37.9a11.94,11.94,0,0,0,2.2.13h9.62a14.7,14.7,0,0,0,1.55-.06Z"/>
        <path class="cls-1" d="M354.56,46.14a5.17,5.17,0,0,0,.76.06l1.07,0c.78-.93,1-1.2,1.6-2a20.89,20.89,0,0,0-3.19-3.21l.77-1,.91.86a15.6,15.6,0,0,0,2.07-3.88l1.31.59a6.54,6.54,0,0,0-.49.79,32,32,0,0,1-2.08,3.3c.63.63,1,1,1.41,1.53a21.53,21.53,0,0,0,2.42-4l1.23.74-.6.86a46.32,46.32,0,0,1-3.89,5.31c1.58-.1,1.95-.12,3.4-.31a15.26,15.26,0,0,0-.84-1.66l1-.38a23.52,23.52,0,0,1,1.85,4l-1.07.48c-.21-.67-.28-.86-.49-1.4a3.55,3.55,0,0,1-.52.06l-1.45.17v6.9a16.06,16.06,0,0,0,.12,2.15H358.3a14.67,14.67,0,0,0,.13-2.17V47.14c-1.56.15-1.56.15-2.35.21a8.87,8.87,0,0,0-1.28.15Zm2.59,2.6a18.51,18.51,0,0,1-1.39,5.94l-1.15-.55A15.56,15.56,0,0,0,356,48.51Zm4.76-.36a32.62,32.62,0,0,1,1.24,5l-1.22.4a26.82,26.82,0,0,0-1.07-5.06Zm3.55-6.63A16.34,16.34,0,0,1,363.32,45a4,4,0,0,0-1.09-.82,13.69,13.69,0,0,0,2.35-3.59,13.3,13.3,0,0,0,1.18-3.46l1.42.36c-.16.39-.16.39-.54,1.44-.17.47-.34.89-.61,1.56h5.25a10.31,10.31,0,0,0,1.7-.09c-.06.61-.06.61-.11,3.24a52.85,52.85,0,0,1-.9,9.51c-.48,2-1,2.46-3,2.46-.61,0-1.39-.05-2.23-.13a5,5,0,0,0-.36-1.45,16.55,16.55,0,0,0,2.8.27c1,0,1.22-.25,1.51-1.59a58.4,58.4,0,0,0,.9-11Zm2.23,8.42A20.21,20.21,0,0,0,364.81,45l1.09-.63a24.68,24.68,0,0,1,3,5.12Z"/>
        <path class="cls-1" d="M384.13,48.89c-1.22,2.77-2.46,4-4,4-2,0-3.48-2.19-3.48-5.13a8.52,8.52,0,0,1,9-8.58,8.11,8.11,0,0,1,5.78,2.08,7,7,0,0,1,2,5.12,7.65,7.65,0,0,1-4.81,7.24,16.79,16.79,0,0,1-3.19,1,3.28,3.28,0,0,0-.74-1.41,12.33,12.33,0,0,0,3.51-1A6.32,6.32,0,0,0,392,46.35a5.53,5.53,0,0,0-3.34-5.27,5.89,5.89,0,0,0-2.43-.53A31.54,31.54,0,0,1,384.13,48.89Zm-2.58-7.33a7.25,7.25,0,0,0-3.42,6.25c0,2,.88,3.57,2,3.57.88,0,1.72-1,2.63-3a29.09,29.09,0,0,0,1.91-7.77A6.65,6.65,0,0,0,381.55,41.56Z"/>
        <path class="cls-1" d="M402.51,47c-1.37,1.13-2,2.1-2,3.08s.61,1.66,1.79,2.06a13.06,13.06,0,0,0,3.84.42,19.75,19.75,0,0,0,6.3-.8l.19,1.73a6.74,6.74,0,0,0-.72.1,33.64,33.64,0,0,1-5.67.48,14.82,14.82,0,0,1-4.83-.65A3.34,3.34,0,0,1,399,50.29c0-1.36.8-2.69,2.42-4Zm-2.21-7.67a23.79,23.79,0,0,0,5.59.51,23.25,23.25,0,0,0,5.31-.44l.1,1.38A32.7,32.7,0,0,0,406,44l-1.07-.86a33.55,33.55,0,0,1,3.72-2.22,16.56,16.56,0,0,1-3.17.27,40.56,40.56,0,0,1-4.62-.27l-.69-.06ZM410.78,43a16.73,16.73,0,0,1,2.14,3.25l-1.05.63a16.19,16.19,0,0,0-2.14-3.34Zm2.29-1.24A16.2,16.2,0,0,1,415.25,45l-1.05.59a17.45,17.45,0,0,0-2.14-3.3Z"/>
        <path class="cls-1" d="M419.77,38.85a9.24,9.24,0,0,0-.15-1.87h1.62a8.66,8.66,0,0,0-.15,1.85v3.48h.28a7.1,7.1,0,0,0,1.51-.1v1.38a10.6,10.6,0,0,0-1.49-.08h-.3V53.76a14.79,14.79,0,0,0,.15,2.26h-1.62a13.42,13.42,0,0,0,.15-2.28V43.51h-.55a14.75,14.75,0,0,0-1.74.08V42.21a9.72,9.72,0,0,0,1.74.1h.55Zm7.37,8.21A13.46,13.46,0,0,0,428.9,47c0,.39,0,.62-.06,1.17a41.1,41.1,0,0,1-.42,5c-.32,2-.63,2.29-2.5,2.29-.27,0-.67,0-1,0a4,4,0,0,0-.27-1.33,7.35,7.35,0,0,0,1.58.19c.52,0,.73-.14.84-.54a28.33,28.33,0,0,0,.52-5.55h-1.85a12.44,12.44,0,0,1-3.15,7.6,4.84,4.84,0,0,0-.9-1.09c1.66-1.55,2.46-3.36,2.86-6.51h-1a6.23,6.23,0,0,0-1.24.09V47a4.77,4.77,0,0,0,1.3.11h1c0-.46,0-.8,0-1.16a7,7,0,0,0-.06-1H426a9.37,9.37,0,0,0-.13,1.36c0,.3,0,.4,0,.8ZM433.46,39a12.83,12.83,0,0,0,1.66-.09c-.06.48-.06.48-.09.88a13.43,13.43,0,0,1-.61,3.51,1.5,1.5,0,0,1-.9.82,4.9,4.9,0,0,1-1.34.12c-.59,0-1.3,0-2.1-.1a5.17,5.17,0,0,0-.27-1.32,13.15,13.15,0,0,0,2.56.25c.56,0,.79-.15.94-.57a10.13,10.13,0,0,0,.36-2.35h-4.62c-.88,2.2-2.33,3.53-5.1,4.72a4,4,0,0,0-.82-1.13c2.48-.84,3.82-1.89,4.6-3.59h-2.12a12,12,0,0,0-2,.11V38.87a14.44,14.44,0,0,0,2.1.11h2.46a7.57,7.57,0,0,0,.23-1.73,2.06,2.06,0,0,0,0-.35l1.53.08a7.11,7.11,0,0,0-.25,1.11l-.19.89Zm1.05,8.08a13.91,13.91,0,0,0,1.74-.08c0,.37,0,.79-.06,1.25-.17,3.51-.42,5.55-.82,6.41-.27.61-.84.84-2.06.84a9.33,9.33,0,0,1-1.41-.06,4,4,0,0,0-.27-1.33,9.52,9.52,0,0,0,1.89.21c.55,0,.74-.1.84-.46a24.41,24.41,0,0,0,.57-5.63h-2.27a15.59,15.59,0,0,1-1.32,4.94,9.44,9.44,0,0,1-1.83,2.64,3.65,3.65,0,0,0-.92-1c1.57-1.39,2.47-3.41,2.87-6.58h-.56a6.41,6.41,0,0,0-1.28.09V47a5.07,5.07,0,0,0,1.34.11h.61c0-.63.06-.92.06-1.3s0-.57,0-.88H433a10.48,10.48,0,0,0-.15,1.7c0,.19,0,.27,0,.48Z"/>
        <path class="cls-1" d="M453.49,41.41a17.92,17.92,0,0,0,2.46-.1c-.06.75-.06.75-.11,2.75a64.27,64.27,0,0,1-.73,8.86c-.38,1.82-1,2.39-2.69,2.39a24.77,24.77,0,0,1-3.73-.34,7,7,0,0,0-.36-1.57,18.7,18.7,0,0,0,4,.52c1.11,0,1.38-.52,1.7-3.06a78.24,78.24,0,0,0,.46-8.17H448a18.3,18.3,0,0,1-2.08,7.41,14.27,14.27,0,0,1-5.83,5.44A3.33,3.33,0,0,0,439,54.37a13.12,13.12,0,0,0,3.53-2.27c2.44-2.21,3.61-4.91,4.1-9.41h-4.12a17.44,17.44,0,0,0-2.58.13V41.29a19,19,0,0,0,2.6.12h4.18c.06-.94.08-1.62.08-2.48a12.37,12.37,0,0,0-.12-2h1.66a12.66,12.66,0,0,0-.11,1.7c0,1,0,1-.1,2.81Z"/>
        <path class="cls-1" d="M466.18,40.34a9.14,9.14,0,0,0,1-2.88l1.68.3a4.37,4.37,0,0,0-.55,1.13c-.27.67-.55,1.24-.65,1.43l.44,0a29.41,29.41,0,0,0,6.61-.8l.13,1.43a6.81,6.81,0,0,0-.84.1,65,65,0,0,1-6.93.55,15.11,15.11,0,0,1-1.89,3c-.21.25-.63.74-.71.8a2.09,2.09,0,0,0-.27.21s0,0,0,0v0l.05.06,1-.73a5.62,5.62,0,0,1,3.17-1,2.54,2.54,0,0,1,2.77,2.33c1.54-.61,2.73-1.05,3.66-1.39a4.61,4.61,0,0,0,1.43-.6l.67,1.47a33.51,33.51,0,0,0-5.61,1.84c0,.55,0,.76,0,1.28,0,.28,0,.74,0,1.16s0,.75,0,.94a4.78,4.78,0,0,0,0,.76l-1.42,0c.06-.46.12-1.74.12-3a5.74,5.74,0,0,0,0-.63c-2.85,1.34-3.95,2.33-3.95,3.59s1.3,2,4.26,2a17.43,17.43,0,0,0,5.61-.82l.19,1.62c-.31,0-.42,0-.84.1a31.79,31.79,0,0,1-5.1.42c-3.76,0-5.59-1.07-5.59-3.23,0-1.15.72-2.25,2.15-3.32a16.61,16.61,0,0,1,3.12-1.68c-.16-1.15-.67-1.65-1.66-1.65a7.87,7.87,0,0,0-4.68,2.22,6.83,6.83,0,0,0-1.61,1.74l-1.18-1.17a20.8,20.8,0,0,0,4.7-6,2.79,2.79,0,0,0,.19-.31,2.35,2.35,0,0,1-.4,0l-3.08-.06h-.34l-.46,0,0-1.45a29,29,0,0,0,4.49.23Z"/>
        <path class="cls-1" d="M491.94,42c-.25,0-.33.06-.63.13-1.72.35-2.72.52-3.71.63v3.63a14.79,14.79,0,0,1,4.51-.76,7.11,7.11,0,0,1,3.72.89A4.2,4.2,0,0,1,498,50.27a4.25,4.25,0,0,1-4.28,4.35,3.09,3.09,0,0,1-3.23-2.37,7.71,7.71,0,0,1-.26-2.38,4.8,4.8,0,0,0,1.39-.54,6.43,6.43,0,0,0,0,.82c0,2.18.63,3.08,2.16,3.08a2.78,2.78,0,0,0,2.81-3c0-2.06-1.74-3.34-4.49-3.34a14.37,14.37,0,0,0-4.45.82V53c0,1.13-.51,1.68-1.53,1.68a5.55,5.55,0,0,1-3.47-1.34,2.54,2.54,0,0,1-1-2,3.81,3.81,0,0,1,1.65-2.79,11.44,11.44,0,0,1,3-1.72v-4l-.84.06c-.37,0-.73,0-1.34,0-.31,0-.88,0-1.11,0h-.86V41.56a12.27,12.27,0,0,0,2.14.15c.57,0,1.39,0,2-.07V39.56a14.56,14.56,0,0,0-.1-2h1.55a12.62,12.62,0,0,0-.1,2v2a21,21,0,0,0,4.28-.91Zm-5.69,6.19c-2.07,1-3.25,2.15-3.25,3.15a1.58,1.58,0,0,0,.9,1.26,3.93,3.93,0,0,0,1.87.61c.42,0,.48-.12.48-1Zm11.53-3.94a17.14,17.14,0,0,0-4.24-4.12l1.09-.82a17.91,17.91,0,0,1,4.24,4Z"/>
        <path class="cls-1" d="M507.11,41.33a15.17,15.17,0,0,0,.65-2.31h-3.84c0,10.56-.34,13.35-1.91,16.65a4.86,4.86,0,0,0-1-1c1.3-2.65,1.68-5.88,1.68-14.53a20.69,20.69,0,0,0-.09-2.37,16.84,16.84,0,0,0,2.12.1h4.39a15.29,15.29,0,0,0,2.25-.12v1.38a15.15,15.15,0,0,0-2.14-.1H509a17.29,17.29,0,0,1-.69,2.31h1a15.72,15.72,0,0,0,1.7-.07c0,.47-.06.89-.06,1.64v4.31a14,14,0,0,0,.06,1.51c-.42,0-1,0-1.45,0h-.81v5.85c0,1-.34,1.24-1.77,1.24-.46,0-.75,0-1.17,0a4.4,4.4,0,0,0-.24-1.28,8,8,0,0,0,1.54.17c.35,0,.44-.07.44-.32V48.68h-1c-.46,0-1,0-1.47,0,0-.46.06-.91.06-1.51V42.75c0-.54,0-1-.06-1.49a16.66,16.66,0,0,0,1.77.07Zm-3.57,13a11,11,0,0,0,1.78-4.81l1.14.33a13.79,13.79,0,0,1-1.81,5Zm2.75-9.94h3.51v-2h-3.51Zm0,3.17h3.51V45.51h-3.51Zm4.26,2a18.29,18.29,0,0,1,1.07,3.28l-1.09.44a16,16,0,0,0-1-3.36Zm4.54,3.55a14,14,0,0,1-3.91,3.06,3.92,3.92,0,0,0-1-1,9.78,9.78,0,0,0,3.89-2.8ZM513.83,39a10.64,10.64,0,0,0-2,.12v-1.4a11.19,11.19,0,0,0,2.06.12h4.6a10.7,10.7,0,0,0,2-.12v1.4a11.47,11.47,0,0,0-2-.12h-1.79a16.41,16.41,0,0,1-.86,2.26h2a14.25,14.25,0,0,0,1.89-.08c-.05.63-.07,1.09-.07,1.93V50c0,.78,0,1.45.07,2-.55-.05-1.14-.07-1.79-.07h-3.86c-.67,0-1.24,0-1.81.07,0-.59.07-1.22.07-1.91v-7a17.27,17.27,0,0,0-.09-2c.53,0,.9.06,1.83.06h.54A14.31,14.31,0,0,0,515.4,39Zm-.3,5.39h4.92v-2h-4.92Zm0,3.19h4.92v-2.1h-4.92Zm0,3.26h4.92V48.68h-4.92Zm3.82,1.59a12.52,12.52,0,0,0,3.55,2.75,4.92,4.92,0,0,0-.94,1,14.31,14.31,0,0,1-3.57-3.15Z"/>
        <path class="cls-1" d="M526.18,39.61A14.53,14.53,0,0,0,526,42.1a36.45,36.45,0,0,0,.54,6.53c.47,2.15,1.33,3.59,2.13,3.59.37,0,.73-.35,1-1a15.55,15.55,0,0,0,1.09-3.59,6.43,6.43,0,0,0,1.24,1.2c-1,3.68-2,5.08-3.49,5.08-1.18,0-2.27-1.17-3-3.19s-1-4.68-1.13-9.85c0-.79,0-.86-.07-1.24Zm10.14,1.11a18.24,18.24,0,0,1,3,4.79,20,20,0,0,1,1.58,5.6l-1.5.61A18.49,18.49,0,0,0,535,41.37Z"/>
        <path class="cls-1" d="M549.25,38.09a35.31,35.31,0,0,0-.27,4.43c-.08,2.52-.15,5.38-.15,6.32,0,.26,0,.78,0,1.26a3.28,3.28,0,0,0,1,2.52,4,4,0,0,0,2.63.82,6,6,0,0,0,5.63-3.65,12.5,12.5,0,0,0,1-3.3,5.84,5.84,0,0,0,1.52,1,12.69,12.69,0,0,1-2.34,4.77,7.35,7.35,0,0,1-5.92,2.62,5,5,0,0,1-3.94-1.47c-.86-1-1.16-2.1-1.16-4.3,0-1.41,0-1.93.19-8.55,0-.63,0-1,0-1.36a6.87,6.87,0,0,0-.08-1.12Z"/>
        <path class="cls-1" d="M565.61,40.61h.76c.29,0,.55,0,1.2-.06,2.5-.19,9.21-.57,11.92-.69a14.33,14.33,0,0,0,2.5-.23l.13,1.57a10.14,10.14,0,0,0-2.35.27,10.84,10.84,0,0,0-4,2.12,6.45,6.45,0,0,0-2.58,4.85,4.11,4.11,0,0,0,2.94,3.89,10.68,10.68,0,0,0,3.15.67h.21l-.27,1.7-.65-.12A10.65,10.65,0,0,1,574,53a5.11,5.11,0,0,1-2.33-4.28c0-2.44,1.43-4.77,3.93-6.45a13.8,13.8,0,0,1,2-1.11,41.58,41.58,0,0,1-4.62.46,61.36,61.36,0,0,0-7.24.69Z"/>
        <path class="cls-1" d="M596.94,42c-.25,0-.33.06-.63.13-1.72.35-2.72.52-3.71.63v3.63a14.79,14.79,0,0,1,4.51-.76,7.11,7.11,0,0,1,3.72.89A4.2,4.2,0,0,1,603,50.27a4.25,4.25,0,0,1-4.28,4.35,3.09,3.09,0,0,1-3.23-2.37,7.71,7.71,0,0,1-.26-2.38,4.8,4.8,0,0,0,1.39-.54,6.43,6.43,0,0,0,0,.82c0,2.18.63,3.08,2.16,3.08a2.78,2.78,0,0,0,2.81-3c0-2.06-1.74-3.34-4.49-3.34a14.37,14.37,0,0,0-4.45.82V53c0,1.13-.51,1.68-1.53,1.68a5.55,5.55,0,0,1-3.47-1.34,2.54,2.54,0,0,1-1-2,3.81,3.81,0,0,1,1.65-2.79,11.44,11.44,0,0,1,3-1.72v-4l-.84.06c-.37,0-.73,0-1.34,0-.31,0-.88,0-1.11,0h-.86V41.56a12.27,12.27,0,0,0,2.14.15c.57,0,1.39,0,2-.07V39.56a14.56,14.56,0,0,0-.1-2h1.55a12.62,12.62,0,0,0-.1,2v2a21,21,0,0,0,4.28-.91Zm-5.69,6.19c-2.07,1-3.25,2.15-3.25,3.15a1.58,1.58,0,0,0,.9,1.26,3.93,3.93,0,0,0,1.87.61c.42,0,.48-.12.48-1Zm11.53-3.94a17.14,17.14,0,0,0-4.24-4.12l1.09-.82a17.91,17.91,0,0,1,4.24,4Z"/>
        <path class="cls-1" d="M612.78,37.63a11.9,11.9,0,0,0-.48,2.16c-.34,2.13-.63,4.41-.7,5.48l.09,0,.14-.61a9.45,9.45,0,0,1,1.29-3.13c1.17-1.81,2.56-2.71,4.19-2.71a3.93,3.93,0,0,1,3.36,1.87,8.55,8.55,0,0,1,1.26,5.1,8.66,8.66,0,0,1-4.85,8.25,15.22,15.22,0,0,1-3.73,1.24,4.56,4.56,0,0,0-.84-1.43,11.09,11.09,0,0,0,4.26-1.32c2.46-1.41,3.61-3.61,3.61-7s-1.18-5.33-3.19-5.33c-1.6,0-2.94,1.19-4.14,3.65a11,11,0,0,0-1.13,4.68c0,.09,0,.19,0,.51l-1.51.06v-.23l0-.38,0-2.18v-.49a52.17,52.17,0,0,1,.71-7.74,4.48,4.48,0,0,0,.06-.68Z"/>
        <path class="cls-1" d="M644.09,54.26a16.88,16.88,0,0,0-4.28-3c-.36-.19-.84-.4-1.41-.63a6.25,6.25,0,0,1,0,.75,3.69,3.69,0,0,1-.52,2.29A4.24,4.24,0,0,1,634.37,55a5.54,5.54,0,0,1-3.26-.84A2.77,2.77,0,0,1,630,52c0-1.38,1.09-2.48,2.94-2.9a9.51,9.51,0,0,1,2.18-.21A9.09,9.09,0,0,1,637,49c0-.06,0-.06,0-.25a1.84,1.84,0,0,1,0-.23c0-.19,0-.63,0-1.24,0-.27,0-.67,0-1.22-.76,0-1.81,0-2.48,0-1.26,0-2.25,0-3.55-.14-.23,0-.4,0-.53,0h-.16l0-1.39a25.67,25.67,0,0,0,4.81.34c.54,0,1.28,0,1.87,0L636.8,42c-.61,0-.94,0-1.42,0-1.54,0-3.24-.06-5.13-.21a2.62,2.62,0,0,0-.38,0,1.8,1.8,0,0,0-.29,0l0-1.43a26.25,26.25,0,0,0,5.38.42l1.82,0a17.18,17.18,0,0,0-.1-3h1.61a24.59,24.59,0,0,0-.14,3,29.51,29.51,0,0,0,6.21-.86l.11,1.43c-.36,0-.36,0-1.45.16a43,43,0,0,1-4.87.51c0,1.72,0,1.72,0,2.83a25.45,25.45,0,0,0,5.82-.86l.08,1.45c-.27,0-.48,0-1.22.15-1.45.23-3.11.4-4.66.5,0,1.18,0,1.18.13,3.21a18.57,18.57,0,0,1,5.86,3.07,7.45,7.45,0,0,0,.71.48Zm-7.1-4a7.68,7.68,0,0,0-2.14-.23c-2.08,0-3.44.76-3.44,1.87s1.05,1.74,2.87,1.74a3,3,0,0,0,2.31-.69c.3-.29.42-.88.42-1.89Z"/>
        <path class="cls-1" d="M659.13,38.83a7.33,7.33,0,0,0-.09-1.22h1.58a16.39,16.39,0,0,0-.11,2.63v.23c4,0,5.59-.07,6.28-.15v1.49a39.18,39.18,0,0,0-4-.1l-2.25,0V45.9a6,6,0,0,1,.51,2.48,6.74,6.74,0,0,1-2.82,5.48,13.39,13.39,0,0,1-3.31,1.7,4.68,4.68,0,0,0-.93-1.32,11.08,11.08,0,0,0,3.4-1.57,5.42,5.42,0,0,0,2.35-4.44,2.75,2.75,0,0,1-.56,1,3.51,3.51,0,0,1-6.09-2.18,3.49,3.49,0,0,1,3.72-3.46,3.21,3.21,0,0,1,2.43.94c0-.29,0-.38,0-1.15,0-.09,0-.3,0-.55V41.77c-4.22.08-8.46.29-9.87.52l-.06-1.53c.38,0,.52,0,.84,0,.61,0,.61,0,4-.12,2-.09,3.65-.13,5.08-.17Zm-.91,6.32a2.69,2.69,0,0,0-1.4-.34A2.22,2.22,0,0,0,654.49,47a2,2,0,0,0,2.16,2.08,2.35,2.35,0,0,0,2.45-2.48A1.51,1.51,0,0,0,658.22,45.15Z"/>
        <path class="cls-1" d="M676,52.69a3.15,3.15,0,1,1-3.15-3.15A3.15,3.15,0,0,1,676,52.69Zm-5.1,0a2,2,0,1,0,2-2A2,2,0,0,0,670.91,52.69Z"/>
        <path class="cls-1" d="M153.81,120.75h-4.93a13.82,13.82,0,0,0-2,.1v-1.3a11.36,11.36,0,0,0,2,.11h4.89v-1.37h-4.38a12.12,12.12,0,0,0-1.73.09,9.12,9.12,0,0,0,.09-1.41V116a9.33,9.33,0,0,0-.09-1.42,14.83,14.83,0,0,0,1.75.08h4.36v-1.38h-6.09a18.89,18.89,0,0,0-2.35.12v-1.38a16.46,16.46,0,0,0,2.4.12h6a8.89,8.89,0,0,0-.12-1.89h1.53a6.69,6.69,0,0,0-.15,1.89h6.43a16.53,16.53,0,0,0,2.41-.12v1.38a19.59,19.59,0,0,0-2.37-.12h-6.47v1.38h4.83a14,14,0,0,0,1.72-.08,10.66,10.66,0,0,0-.08,1.42V117a10.5,10.5,0,0,0,.08,1.41,11.76,11.76,0,0,0-1.7-.09h-4.85v1.37h4.58a18.53,18.53,0,0,0,2.35-.09,17.4,17.4,0,0,0-.06,1.74v.89a10.14,10.14,0,0,0,2.22-.13v1.32a14.88,14.88,0,0,0-2.22-.1v1.36a13,13,0,0,0,.12,2.1H160.7v-.86h-5.63v1.74c0,1.45-.42,1.75-2.45,1.75-.44,0-.82,0-2-.09a3.46,3.46,0,0,0-.35-1.32,17.66,17.66,0,0,0,2.6.21c.75,0,.94-.1.94-.57v-1.72h-5.06a13.05,13.05,0,0,0-2.05.11v-1.3a13,13,0,0,0,2,.1h5.1v-1.51h-6.3a15.83,15.83,0,0,0-2.28.1v-1.32a13.88,13.88,0,0,0,2.28.13h6.3Zm-4.76-5v1.55h4.76v-1.55Zm6,1.55h5.21v-1.55h-5.21Zm5.63,4.92v-1.45h-5.63v1.45Zm-5.63,2.6h5.63v-1.51h-5.63Z"/>
        <path class="cls-1" d="M172.61,113.57a15.51,15.51,0,0,0-2.25-2.92l1.26-.5a16.52,16.52,0,0,1,2.44,3.42h3a14.34,14.34,0,0,0,2.37-3.4l1.35.5a23.59,23.59,0,0,1-2.27,2.9h4.3a12.73,12.73,0,0,0,2.1-.13v1.43a14.85,14.85,0,0,0-2.1-.13H168.49a15.61,15.61,0,0,0-2.1.13v-1.43a10.17,10.17,0,0,0,2.1.13Zm-3.47,13.6a14,14,0,0,0,.13,2.23h-1.53a16.81,16.81,0,0,0,.1-2.27v-8.82c0-1,0-1.38-.06-1.87a18.12,18.12,0,0,0,2,.09h3.29a10.84,10.84,0,0,0,1.91-.09c0,.49-.06,1-.06,2.23v8.9c0,1.26-.4,1.62-1.76,1.62-.44,0-.95,0-1.75-.09a5.76,5.76,0,0,0-.33-1.3,9.54,9.54,0,0,0,1.82.21c.61,0,.74-.1.74-.54v-2.82h-4.54Zm4.54-7.14v-2.31h-4.54V120Zm0,3.45v-2.27h-4.54v2.27Zm5.46-6.78a9.82,9.82,0,0,0-.11,2v4.26a12.56,12.56,0,0,0,.09,2.37h-1.47a18.17,18.17,0,0,0,.08-2.35v-4.28a12,12,0,0,0-.1-2Zm4.51-.63a12.42,12.42,0,0,0-.12,2.26v9.09c0,1.47-.44,1.85-2.17,1.85-.71,0-1.4,0-2.45-.12a5.56,5.56,0,0,0-.4-1.41,16.46,16.46,0,0,0,2.71.27c.82,0,1-.08,1-.63v-9.09a11.47,11.47,0,0,0-.12-2.22Z"/>
        <path class="cls-1" d="M203.77,112.45a26,26,0,0,1-5.69,4c.59.42.84.59,1.64,1.2l-.55.55H203a11.83,11.83,0,0,0,2.23-.11l.82.91a5.64,5.64,0,0,0-.57.69,17,17,0,0,1-3.67,3.67,5.14,5.14,0,0,0-1.1-.86,14.09,14.09,0,0,0,3.36-3h-6.38v8.14c0,1.35-.5,1.7-2.46,1.7-.65,0-1.76,0-2.47-.1a5.43,5.43,0,0,0-.34-1.45,17.62,17.62,0,0,0,2.94.25c.71,0,.92-.14.92-.61v-7.93h-6.5a16.6,16.6,0,0,0-2.17.12v-1.51a14.88,14.88,0,0,0,2.33.13h8.4a30.69,30.69,0,0,0-5.79-3.57l.86-.93c1.85,1,2.56,1.37,3.57,2a20.58,20.58,0,0,0,4.47-3H191.7a14.62,14.62,0,0,0-2.16.1V111.4a11.94,11.94,0,0,0,2.2.13h9.62a14.84,14.84,0,0,0,1.55-.06Z"/>
        <path class="cls-1" d="M208.14,119.64a5.06,5.06,0,0,0,.76.06l1.07,0c.78-.93,1-1.2,1.59-2a20.45,20.45,0,0,0-3.19-3.21l.78-1c.46.44.57.53.9.86a15.39,15.39,0,0,0,2.08-3.88l1.3.59a8.57,8.57,0,0,0-.48.79,32,32,0,0,1-2.08,3.3c.63.63,1,1,1.41,1.53a20.69,20.69,0,0,0,2.41-4l1.24.74c-.19.25-.31.44-.61.86a46.5,46.5,0,0,1-3.88,5.31c1.57-.1,1.95-.12,3.4-.31a17.3,17.3,0,0,0-.84-1.66l1-.38a22.77,22.77,0,0,1,1.84,4l-1.07.48c-.21-.67-.27-.86-.48-1.4a3.51,3.51,0,0,1-.53.06l-1.44.17v6.9a16.06,16.06,0,0,0,.12,2.15h-1.53a16.18,16.18,0,0,0,.13-2.17v-6.76c-1.56.15-1.56.15-2.36.21a8.87,8.87,0,0,0-1.28.15Zm2.58,2.6a18.28,18.28,0,0,1-1.38,5.94l-1.16-.55a15.34,15.34,0,0,0,1.39-5.62Zm4.77-.36a33.82,33.82,0,0,1,1.24,5l-1.22.4a27.63,27.63,0,0,0-1.07-5.06Zm3.55-6.63a16.34,16.34,0,0,1-2.14,3.27,4,4,0,0,0-1.09-.82,13.69,13.69,0,0,0,2.35-3.59,12.85,12.85,0,0,0,1.17-3.46l1.43.36c-.17.39-.17.39-.55,1.44-.16.47-.33.89-.6,1.56h5.24a10.52,10.52,0,0,0,1.71-.09,27.84,27.84,0,0,0-.11,3.24,52.85,52.85,0,0,1-.9,9.51c-.49,2-1,2.46-3,2.46-.6,0-1.38,0-2.22-.13a5,5,0,0,0-.36-1.45,16.44,16.44,0,0,0,2.79.27c1,0,1.22-.25,1.52-1.59a59.26,59.26,0,0,0,.9-11Zm2.22,8.42a20.19,20.19,0,0,0-2.87-5.21l1.09-.63a25.6,25.6,0,0,1,3,5.12Z"/>
        <path class="cls-1" d="M233.76,111.76a30,30,0,0,0-1.62,9.85c0,.73.05,2,.09,2.94,0,.17,0,.21,0,.59v.4l.08,0a18.92,18.92,0,0,1,1.24-3.7,2.17,2.17,0,0,0,.17-.42l1,.48a18.12,18.12,0,0,0-1.81,6,2,2,0,0,0,0,.42l-1.5.14c0-.19,0-.29-.12-.77a33.36,33.36,0,0,1-.59-6.24,35.51,35.51,0,0,1,1.09-8.63,9.22,9.22,0,0,0,.23-1.32Zm2.12,3.91a14.67,14.67,0,0,0,3.78.33c.82,0,1.39,0,2.25-.06,0-2,0-2,0-3.57a4,4,0,0,0-.07-.86h1.58a20.71,20.71,0,0,0-.15,3.3c0,.23,0,.56,0,1a14.09,14.09,0,0,0,3.63-.77l.07,1.43-1.47.29a20.2,20.2,0,0,1-2.23.34c0,2.07.07,3.15.23,5.94a15,15,0,0,1,3.51,2.06c.25.16.29.21.52.35l-.65,1.47a11.42,11.42,0,0,0-3-2.18l-.21-.13-.19-.12a2.46,2.46,0,0,1,.05.54,3.58,3.58,0,0,1-.26,1.43c-.5,1.11-1.78,1.76-3.5,1.76-2.44,0-4-1.15-4-3s1.66-3,4-3a6,6,0,0,1,2.33.42c-.06-.44-.15-2.41-.21-5.48-1,0-1.6.06-2.39.06s-1.64,0-2.38-.06a5.72,5.72,0,0,0-.67,0l-.36,0a1,1,0,0,0-.21,0h-.08Zm4,7.87c-1.63,0-2.71.69-2.71,1.74s1,1.7,2.44,1.7a2.9,2.9,0,0,0,2.14-.73,2.48,2.48,0,0,0,.4-1.64c0-.15,0-.63,0-.63A5.53,5.53,0,0,0,239.91,123.54Z"/>
        <path class="cls-1" d="M255.71,127.84a15.32,15.32,0,0,0-2.31.11,9.42,9.42,0,0,1,.61-2.77,9.09,9.09,0,0,1,2.73-3.61,27.51,27.51,0,0,1,3.21-2.31c2.08-1.41,2.77-2.33,2.77-3.61,0-1.6-1.34-2.63-3.49-2.63a3.46,3.46,0,0,0-3,1.37,4.24,4.24,0,0,0-.74,2.12l-1.76-.3a5.78,5.78,0,0,1,1.32-3,5.39,5.39,0,0,1,4.22-1.62c3.17,0,5.21,1.6,5.21,4.08a4.39,4.39,0,0,1-1.24,3,16.65,16.65,0,0,1-3.57,2.71,11.32,11.32,0,0,0-3,2.58,5.9,5.9,0,0,0-1.2,2.43h6.7a19.23,19.23,0,0,0,2.56-.14V128a24.52,24.52,0,0,0-2.58-.13Z"/>
        <path class="cls-1" d="M274.82,122.62a15.12,15.12,0,0,1-.86,3.25,11.37,11.37,0,0,1-2.31,3.65,5.08,5.08,0,0,0-1.16-1.11A8.86,8.86,0,0,0,273,124.3c.59-2,.82-4.58.82-9.24,0-1.93,0-2.77-.09-3.57a18.79,18.79,0,0,0,2.21.1h7.89a17.83,17.83,0,0,0,2.19-.1,16.67,16.67,0,0,0-.09,2.16v13.82a1.61,1.61,0,0,1-.59,1.47,3,3,0,0,1-1.68.27c-.69,0-1.57,0-2.52-.08a5.59,5.59,0,0,0-.33-1.43,22,22,0,0,0,3,.21c.61,0,.78-.13.78-.65v-4.64Zm9.74-1.26v-3.74h-9.37c0,1.15-.06,1.95-.23,3.74Zm0-5v-3.49h-9.35l0,3v.5Z"/>
        <path class="cls-1" d="M299.62,112.64a12.47,12.47,0,0,0-.15-2.18h1.68a12,12,0,0,0-.15,2.14v1.85h6.15a11.76,11.76,0,0,0,1.6-.08,10.29,10.29,0,0,0-.11,1.65v5.74a13.81,13.81,0,0,0,.13,1.86h-1.51V122.2H301v4.89a11.45,11.45,0,0,0,.15,2.39h-1.68a14.93,14.93,0,0,0,.15-2.39V122.2H293.7v1.42h-1.52a12.25,12.25,0,0,0,.13-1.86V116a11.8,11.8,0,0,0-.11-1.65,12.21,12.21,0,0,0,1.58.08h5.84Zm-5.92,3.07v5.23h5.92v-5.23Zm13.56,5.23v-5.23H301v5.23Z"/>
        <path class="cls-1" d="M316.44,114.53a21,21,0,0,1-3.76,4.85,4,4,0,0,0-1-1.07,17.27,17.27,0,0,0,4.62-6.49,5.64,5.64,0,0,0,.42-1.49l1.55.4a8.54,8.54,0,0,0-.4.84c-.23.61-.48,1.18-.75,1.75h10.73a15.1,15.1,0,0,0,2.24-.13,11.75,11.75,0,0,0-.08,1.45,76.3,76.3,0,0,1-.86,11.84c-.46,2.48-.95,2.94-3,2.94a29,29,0,0,1-3.22-.25,5.5,5.5,0,0,0-.23-1.45,18.57,18.57,0,0,0,3.57.42c1.14,0,1.37-.36,1.7-2.77a89.34,89.34,0,0,0,.67-10.84Zm8,9.43c0,.63,0,1.2.08,1.89-.71,0-1.32-.06-2.06-.06h-5.37v1.61h-1.41a19.78,19.78,0,0,0,.11-2.18v-6.3a20.49,20.49,0,0,0-.09-2.2,15.91,15.91,0,0,0,2,.1h4.79a15.52,15.52,0,0,0,2-.1c-.06.63-.1,1.49-.1,2.26Zm-7.37-3.3h6.07V118h-6.07Zm0,4h6.07v-2.89h-6.07Z"/>
        <path class="cls-1" d="M343.06,111.05a15.73,15.73,0,0,0-.12,2.77c0,.46,0,.69,0,2.18a21,21,0,0,0,6.15-.79l.19,1.55a11.07,11.07,0,0,0-1.26.15,36.58,36.58,0,0,1-5.06.46c.06,2,.17,4.07.27,5.41a18.11,18.11,0,0,1,5.61,3,10.85,10.85,0,0,0,1,.65l-1,1.47a9.31,9.31,0,0,0-2.18-1.83,21.76,21.76,0,0,0-2.84-1.62,3,3,0,0,1-.5-.23,6.29,6.29,0,0,1,.08.91,3.83,3.83,0,0,1-.52,2.12,4.45,4.45,0,0,1-3.74,1.44c-2.71,0-4.37-1.17-4.37-3.1s2-3.32,4.94-3.32a8.62,8.62,0,0,1,1.82.19.93.93,0,0,0,.19,0s0,0,.11,0a.65.65,0,0,0,0-.19v-.12c-.17-2.42-.32-6.47-.34-9.47a10.07,10.07,0,0,0-.1-1.7Zm-3.35,12.53c-2.15,0-3.45.76-3.45,2a1.43,1.43,0,0,0,.32.9,3.4,3.4,0,0,0,2.52.84,3.58,3.58,0,0,0,2.33-.69,2,2,0,0,0,.5-1.58c0-.31,0-1.15-.06-1.15A7.21,7.21,0,0,0,339.71,123.58Z"/>
        <path class="cls-1" d="M360.2,111.13a11.9,11.9,0,0,0-.48,2.16c-.34,2.13-.63,4.41-.69,5.48l.08,0,.15-.61a9.23,9.23,0,0,1,1.28-3.13c1.17-1.81,2.56-2.71,4.2-2.71a4,4,0,0,1,3.36,1.87,9.89,9.89,0,0,1-3.59,13.35,15.45,15.45,0,0,1-3.74,1.24,4.37,4.37,0,0,0-.84-1.43,11.09,11.09,0,0,0,4.26-1.32c2.46-1.41,3.61-3.61,3.61-7s-1.17-5.33-3.19-5.33c-1.59,0-2.94,1.19-4.13,3.65a10.88,10.88,0,0,0-1.14,4.68c0,.09,0,.19,0,.51l-1.51.06v-.23l0-.38,0-2.18v-.49a53.58,53.58,0,0,1,.71-7.74,4.48,4.48,0,0,0,.06-.68Z"/>
        <path class="cls-1" d="M377.3,127.11a16,16,0,0,0,.12,2.35h-1.55a16.51,16.51,0,0,0,.12-2.35V113.32c0-1,0-1.64-.08-2.31a20.43,20.43,0,0,0,2.21.08h3.19a19.15,19.15,0,0,0,2.12-.08c0,.58-.07,1.21-.07,2v2.58c0,.84,0,1.43.07,2-.51-.05-1.22-.07-2.12-.07h-4Zm0-13.37h4.87v-1.62H377.3Zm0,2.7h4.87v-1.7H377.3Zm3.9,3.76a14.71,14.71,0,0,0-2,.09v-1.24a13.12,13.12,0,0,0,2,.1h6.66a13.42,13.42,0,0,0,2-.1v1.24a14.71,14.71,0,0,0-2-.09h-.76v2.61h1.05a12.66,12.66,0,0,0,2-.11V124a13.4,13.4,0,0,0-2-.1h-1.05v3.23a6.93,6.93,0,0,0,.13,1.8H385.8a8,8,0,0,0,.13-1.8v-3.23h-3.17a7.07,7.07,0,0,1-2.78,5.2,3.56,3.56,0,0,0-1.05-.86,5.85,5.85,0,0,0,1.83-1.85,6.09,6.09,0,0,0,.8-2.49h-.74a13.26,13.26,0,0,0-2,.1V122.7a12.68,12.68,0,0,0,2,.11h.84c.07-1,.07-1,.09-2.61Zm1.74,0v.49c0,.65,0,1.4-.08,2.12h3.07V120.2ZM393,127.38c0,.91-.21,1.35-.75,1.58a4.49,4.49,0,0,1-1.49.14L389,129a4.08,4.08,0,0,0-.4-1.34,18.85,18.85,0,0,0,2.33.21c.67,0,.82-.11.82-.59v-9.85h-4.3c-.88,0-1.56,0-2.14.07,0-.61.06-1.12.06-2V113c0-.78,0-1.3-.06-2a19.62,19.62,0,0,0,2.16.08h3.46a20.78,20.78,0,0,0,2.21-.08,18.07,18.07,0,0,0-.11,2.31Zm-6.44-13.64h5.16v-1.62h-5.16Zm0,2.7h5.16v-1.7h-5.16Z"/>
        <path class="cls-1" d="M401.51,114.79a14.11,14.11,0,0,0,1.93-.09c-.23,2.39-.23,2.39-.38,3.32a19.67,19.67,0,0,1-1.59,5.63,29.67,29.67,0,0,1,2.22,2.16l-.84,1.15a21.65,21.65,0,0,0-2-2.14,13.45,13.45,0,0,1-3.89,4.26,3.79,3.79,0,0,0-1-1,13.16,13.16,0,0,0,3.86-4.09,22.64,22.64,0,0,0-3.13-2.16,29.87,29.87,0,0,0,1.91-5.84h-.69a9.63,9.63,0,0,0-1.68.13v-1.43a11,11,0,0,0,1.72.13h.9a22.6,22.6,0,0,0,.57-4,1.29,1.29,0,0,0,0-.25l1.51.15c-.1.38-.12.57-.23,1.22s-.29,1.66-.55,2.9Zm-1.6,1.17a36.65,36.65,0,0,1-1.63,5.33c1.13.78,1.51,1,2.18,1.54a19.41,19.41,0,0,0,1.6-6.87Zm3.45,2a7.35,7.35,0,0,0,.88,0l.73,0a30,30,0,0,0,2.56-7.52l1.6.4a17.34,17.34,0,0,0-.8,2.27c-.44,1.26-.86,2.28-2,4.76,3-.25,3.48-.29,6.13-.63a25.29,25.29,0,0,0-2.31-3.32l1.15-.58a35.78,35.78,0,0,1,3.78,6.06l-1.19.72c-.4-.88-.51-1.09-.86-1.81-3.41.46-4.29.57-8.07.91a5.34,5.34,0,0,0-1.32.21ZM406,129.55h-1.38a14.49,14.49,0,0,0,.08-1.87v-5a16.26,16.26,0,0,0-.08-2,16.05,16.05,0,0,0,1.87.08h5.16a15,15,0,0,0,2-.08,9.12,9.12,0,0,0-.11,1.36v5.27a10.61,10.61,0,0,0,.13,2.19h-1.45v-1.22H406Zm0-2.42h6.22V122H406Z"/>
        <path class="cls-1" d="M420.6,113.11a14.53,14.53,0,0,0-.15,2.49,35.42,35.42,0,0,0,.55,6.53c.46,2.15,1.32,3.59,2.12,3.59q.57,0,1.05-1a15.07,15.07,0,0,0,1.09-3.59,6.43,6.43,0,0,0,1.24,1.2c-1,3.68-2,5.08-3.49,5.08-1.17,0-2.27-1.17-3-3.19s-1-4.68-1.13-9.85a9.11,9.11,0,0,0-.07-1.24Zm10.14,1.11a18,18,0,0,1,3,4.79,20,20,0,0,1,1.58,5.6l-1.49.61a18.57,18.57,0,0,0-4.37-10.35Z"/>
        <path class="cls-1" d="M439.31,114.79a15.14,15.14,0,0,0,2.62.18c.42,0,.65,0,1.26,0a20.85,20.85,0,0,0,.47-3.86l1.65.17c-.12.5-.12.5-.37,2-.11.67-.17,1-.28,1.6a17,17,0,0,0,3.78-.72l.11,1.45a4.68,4.68,0,0,0-.59.11,30,30,0,0,1-3.55.5c-.31,1.66-.9,4-1.47,5.94a55,55,0,0,1-2.41,6.41l-1.54-.65a42.15,42.15,0,0,0,3.95-11.62c-.42,0-.67,0-1.45,0s-.92,0-1.74,0h-.08l-.36,0Zm9.38,7.62a7.34,7.34,0,0,0-.63.79,2.6,2.6,0,0,0-.52,1.5c0,1.26,1.28,1.93,3.67,1.93a15.53,15.53,0,0,0,4.64-.72l.15,1.58-.92.14a20.41,20.41,0,0,1-3.74.36c-3.44,0-5.23-1.07-5.23-3.15,0-.94.3-1.59,1.41-3Zm6.49-3.64a22,22,0,0,0-2.47-.14,18.44,18.44,0,0,0-5.25.71l-.15-1.43a24,24,0,0,1,5.56-.69c.4,0,.72,0,2.29.06Z"/>
        <path class="cls-1" d="M464.68,111.59a32.54,32.54,0,0,0-.28,4.43c-.08,2.52-.14,5.38-.14,6.32,0,.26,0,.78,0,1.26a3.28,3.28,0,0,0,1,2.52,3.91,3.91,0,0,0,2.62.82,6,6,0,0,0,5.63-3.65,12.87,12.87,0,0,0,1-3.3,5.78,5.78,0,0,0,1.51,1,12.85,12.85,0,0,1-2.33,4.77,7.36,7.36,0,0,1-5.92,2.62,5,5,0,0,1-3.95-1.47c-.86-1-1.16-2.1-1.16-4.3,0-1.41,0-1.93.19-8.55,0-.63,0-1,0-1.36a6.87,6.87,0,0,0-.08-1.12Z"/>
        <path class="cls-1" d="M496.51,127.76a16.7,16.7,0,0,0-4.28-3c-.36-.19-.84-.4-1.41-.63a6.25,6.25,0,0,1,0,.75,3.62,3.62,0,0,1-.52,2.29,4.24,4.24,0,0,1-3.55,1.33,5.48,5.48,0,0,1-3.25-.84,2.75,2.75,0,0,1-1.14-2.21c0-1.38,1.09-2.48,2.94-2.9a9.51,9.51,0,0,1,2.18-.21,9.09,9.09,0,0,1,1.89.17c0-.06,0-.06,0-.25a1.84,1.84,0,0,1,0-.23c0-.19,0-.63,0-1.24,0-.27,0-.67,0-1.22-.76,0-1.81,0-2.48,0-1.26,0-2.25,0-3.55-.14-.23,0-.4,0-.52,0h-.17l0-1.39a25.75,25.75,0,0,0,4.81.34c.54,0,1.28,0,1.87,0l0-2.88c-.61,0-1,0-1.43,0-1.54,0-3.24-.06-5.13-.21a2.56,2.56,0,0,0-.37,0,1.85,1.85,0,0,0-.3,0l0-1.43a26.32,26.32,0,0,0,5.38.42l1.83,0a17.6,17.6,0,0,0-.11-3h1.62a21.91,21.91,0,0,0-.15,3,29.63,29.63,0,0,0,6.22-.86l.1,1.43c-.36,0-.36,0-1.45.16a42.73,42.73,0,0,1-4.87.51c0,1.72,0,1.72,0,2.83a25.35,25.35,0,0,0,5.82-.86l.08,1.45c-.27,0-.48,0-1.22.15-1.44.23-3.1.4-4.66.5,0,1.18,0,1.18.13,3.21a18.47,18.47,0,0,1,5.86,3.07,7.45,7.45,0,0,0,.71.48Zm-7.1-4a7.6,7.6,0,0,0-2.14-.23c-2.08,0-3.44.76-3.44,1.87s1.05,1.74,2.88,1.74a3,3,0,0,0,2.31-.69,2.76,2.76,0,0,0,.42-1.89Z"/>
        <path class="cls-1" d="M511.55,112.33a6.39,6.39,0,0,0-.09-1.22H513a16.39,16.39,0,0,0-.11,2.63V114c4,0,5.59-.07,6.28-.15v1.49a39.18,39.18,0,0,0-4-.1l-2.25,0v4.15a6,6,0,0,1,.51,2.48,6.75,6.75,0,0,1-2.81,5.48,13.67,13.67,0,0,1-3.32,1.7,4.68,4.68,0,0,0-.93-1.32,11.15,11.15,0,0,0,3.41-1.57,5.47,5.47,0,0,0,2.35-4.44,2.9,2.9,0,0,1-.57,1,3.51,3.51,0,0,1-6.09-2.18,3.5,3.5,0,0,1,3.72-3.46,3.19,3.19,0,0,1,2.43.94c0-.29,0-.38,0-1.15,0-.09,0-.3,0-.55v-1.09c-4.22.08-8.46.29-9.87.52l-.06-1.53c.38,0,.52,0,.84,0,.61,0,.61,0,4-.12,2-.09,3.65-.13,5.08-.17Zm-.9,6.32a2.7,2.7,0,0,0-1.41-.34,2.23,2.23,0,0,0-2.33,2.21,2,2,0,0,0,2.16,2.08,2.36,2.36,0,0,0,2.46-2.48A1.53,1.53,0,0,0,510.65,118.65Z"/>
        <path class="cls-1" d="M528.43,126.19a3.15,3.15,0,1,1-3.15-3.15A3.14,3.14,0,0,1,528.43,126.19Zm-5.1,0a2,2,0,1,0,1.95-2A2,2,0,0,0,523.33,126.19Z"/>
        <path class="cls-1" d="M136.71,185.93a8.68,8.68,0,0,0-.13-1.93h1.58a10.18,10.18,0,0,0-.13,1.93v.59h3.47a9.34,9.34,0,0,0,1.74-.12v1.42a9.51,9.51,0,0,0-1.74-.12H138v3.42c2-.34,2.67-.48,5.31-1.09v1.13c-2.87.69-5.22,1.18-7.39,1.56a10.59,10.59,0,0,0-1.61.33l-.23-1.45a17.31,17.31,0,0,0,2.6-.27Zm11.09,8a17.38,17.38,0,0,0,2.26-.1,21.13,21.13,0,0,0-.08,2.31v4.78a12.57,12.57,0,0,0,.13,2.1h-1.43v-1H138.49v1h-1.4a14.38,14.38,0,0,0,.12-2.1V196.1a22.84,22.84,0,0,0-.08-2.31,17.21,17.21,0,0,0,2.25.1h2.52a9.19,9.19,0,0,0,.86-1.93l1.42.36a11.39,11.39,0,0,1-.86,1.57Zm-9.31,3.38h10.19V195H138.49Zm0,3.59h10.19v-2.5H138.49Zm7.12-10.54c0,.63.21.7,2.5.7,1.85,0,2.46-.09,2.71-.36a6.27,6.27,0,0,0,.52-2.84,3.2,3.2,0,0,0,1.24.55c-.21,2.31-.46,3.11-1.07,3.48s-1.28.36-3.78.36c-2.87,0-3.44-.25-3.44-1.47v-4.89a10.92,10.92,0,0,0-.13-1.85h1.58a7.84,7.84,0,0,0-.13,1.83v1.28a21.84,21.84,0,0,0,2.48-.82,14.46,14.46,0,0,0,3.3-1.59l.9,1.13c-1,.42-1,.42-2.16.92a33.42,33.42,0,0,1-4.52,1.51Z"/>
        <path class="cls-1" d="M158.05,186.14a12.79,12.79,0,0,0-.11-2.18h1.47a14.53,14.53,0,0,0-.1,2.16v2.06h.81a8.07,8.07,0,0,0,1.33-.08v1.28a12.89,12.89,0,0,0-1.33-.07h-.75a11.61,11.61,0,0,0,1.95,3.43,9.19,9.19,0,0,0-.73,1.13,14.34,14.34,0,0,1-1.37-2.94c.06,1.76.09,2.69.09,3.42v6.37a17.83,17.83,0,0,0,.12,2.43h-1.51a18.32,18.32,0,0,0,.13-2.43v-5.95c0-.84,0-.84.06-1.84,0-.13,0-.51.06-1,0-.17,0-.42,0-.78a17.42,17.42,0,0,1-1.34,4,18.24,18.24,0,0,1-1.39,2.38,5.13,5.13,0,0,0-.79-1.31,12.5,12.5,0,0,0,2-3.31,21.36,21.36,0,0,0,1.18-3.62h-1.1a9.31,9.31,0,0,0-1.47.09v-1.3a9,9,0,0,0,1.47.08h1.31Zm5.48,1.92a11.18,11.18,0,0,0-1.83.1v-1.32a11.45,11.45,0,0,0,1.85.1h1.11a10.16,10.16,0,0,0-1.37-2.31l1.12-.48a13.69,13.69,0,0,1,1.51,2.79h2.43a13,13,0,0,0,1.43-2.83l1.24.44c-.33.67-1,1.89-1.34,2.39h1.85a13.16,13.16,0,0,0,1.91-.12v1.36a13,13,0,0,0-1.91-.12H167.7v1.8h3.17a10.78,10.78,0,0,0,1.92-.13v1.39a12.4,12.4,0,0,0-1.89-.1h-3.2v1.88h4.12a13.06,13.06,0,0,0,1.91-.12v1.36a13.25,13.25,0,0,0-1.89-.12h-4a11.52,11.52,0,0,0,1.72,3.15,11.24,11.24,0,0,0,2.29-2.71l1.07.75a16.83,16.83,0,0,1-2.62,2.86,11.81,11.81,0,0,0,4,2.94,5.57,5.57,0,0,0-.89,1.22,14.68,14.68,0,0,1-3.08-2.42,13.09,13.09,0,0,1-2.77-4.28,18.38,18.38,0,0,1,.16,2.08v3.95c0,1.13-.39,1.42-2,1.42a16.76,16.76,0,0,1-1.72-.08,3.28,3.28,0,0,0-.38-1.32,13.94,13.94,0,0,0,2.08.19c.61,0,.73-.09.73-.47v-3a27.81,27.81,0,0,1-4.45,2.71,8.36,8.36,0,0,0-.94.57l-.61-1.39a21.91,21.91,0,0,0,6-3.19v-3h-3.27a11.13,11.13,0,0,0-1.81.1v-1.3a15,15,0,0,0,1.83.08h3.25V191h-2.33a10.9,10.9,0,0,0-1.82.1v-1.36a10.51,10.51,0,0,0,1.78.1h2.37v-1.8Zm-.78,6.44a18.7,18.7,0,0,1,2,2.54l-1,.69a12.57,12.57,0,0,0-2-2.58Z"/>
        <path class="cls-1" d="M184.63,195.89c-1.22,2.77-2.46,4-4,4-2,0-3.48-2.19-3.48-5.13a8.52,8.52,0,0,1,9-8.58,8.11,8.11,0,0,1,5.78,2.08,7,7,0,0,1,2,5.12,7.64,7.64,0,0,1-4.8,7.24,16.69,16.69,0,0,1-3.2,1,3.38,3.38,0,0,0-.73-1.41,12.69,12.69,0,0,0,3.51-1,6.35,6.35,0,0,0,3.71-5.88,5.53,5.53,0,0,0-3.34-5.27,5.89,5.89,0,0,0-2.43-.53A31.54,31.54,0,0,1,184.63,195.89Zm-2.58-7.33a7.25,7.25,0,0,0-3.42,6.25c0,2,.88,3.58,2,3.58.88,0,1.72-1,2.63-3a29.09,29.09,0,0,0,1.91-7.77A6.65,6.65,0,0,0,182.05,188.56Z"/>
        <path class="cls-1" d="M203,194c-1.37,1.13-2,2.1-2,3.09s.61,1.65,1.79,2.05a13.06,13.06,0,0,0,3.84.42,20.1,20.1,0,0,0,6.3-.79l.19,1.72a6.74,6.74,0,0,0-.72.1,33.64,33.64,0,0,1-5.67.48,14.82,14.82,0,0,1-4.83-.65,3.34,3.34,0,0,1-2.39-3.17c0-1.36.8-2.68,2.42-4Zm-2.21-7.66a24.41,24.41,0,0,0,5.59.5,23.25,23.25,0,0,0,5.31-.44l.1,1.38a32.14,32.14,0,0,0-5.29,3.2l-1.07-.87a33.55,33.55,0,0,1,3.72-2.22,16.63,16.63,0,0,1-3.17.27,40.56,40.56,0,0,1-4.62-.27l-.69-.06ZM211.28,190a16.73,16.73,0,0,1,2.14,3.25l-1,.63a16.19,16.19,0,0,0-2.14-3.34Zm2.29-1.24a16.2,16.2,0,0,1,2.18,3.27l-1.05.59a17.39,17.39,0,0,0-2.14-3.29Z"/>
        <path class="cls-1" d="M229.93,193.09a20.93,20.93,0,0,0,2.5-4.8l1.3.52a32,32,0,0,1-2.33,4.28h3.1a11.82,11.82,0,0,0,2.31-.14v1.49a16.63,16.63,0,0,0-2.35-.13h-5.83a20.72,20.72,0,0,0,2.77,2.92,19.14,19.14,0,0,0,5.67,3.55,6,6,0,0,0-.91,1.3,22.9,22.9,0,0,1-5.29-3.57,19.35,19.35,0,0,1-3-3.53c.06,1.16.09,1.73.09,2.27V201a11.85,11.85,0,0,0,.14,2h-1.59a12,12,0,0,0,.14-2v-3.76c0-.63,0-1,.09-2.25a17.2,17.2,0,0,1-3.95,4.52,24.19,24.19,0,0,1-3.76,2.56,5,5,0,0,0-.94-1.22,21.82,21.82,0,0,0,5.83-4.09,19.2,19.2,0,0,0,2.15-2.46h-5.48a19.87,19.87,0,0,0-2.31.13V193a15,15,0,0,0,2.28.14h6.09v-5.5h-5a19.91,19.91,0,0,0-2.25.13v-1.47a15.51,15.51,0,0,0,2.29.15h5v-.7a11.32,11.32,0,0,0-.12-1.74h1.55a8.26,8.26,0,0,0-.12,1.74v.7h5.35a12.1,12.1,0,0,0,2.33-.15v1.47a17.05,17.05,0,0,0-2.29-.13H228v5.5Zm-7.65-4.83a25.07,25.07,0,0,1,2.08,3.89l-1.17.61a20.68,20.68,0,0,0-2-3.95Z"/>
        <path class="cls-1" d="M241.84,186.5a17.17,17.17,0,0,0-.13-2.31h1.55a15,15,0,0,0-.12,2.33v2.9h.5a12.93,12.93,0,0,0,1.74-.08v1.34a17,17,0,0,0-1.74-.08h-.5V196a18.18,18.18,0,0,0,1.78-1.07l.09,1.26a37.39,37.39,0,0,1-4.37,2.37c-.34.15-.92.44-1.11.55l-.4-1.47a10.4,10.4,0,0,0,2.71-1v-6h-.91a15.73,15.73,0,0,0-1.78.1v-1.39a11,11,0,0,0,1.83.11h.86Zm5.9,9.6a13.57,13.57,0,0,1-3.53,2.79,3.94,3.94,0,0,0-.86-.95,10,10,0,0,0,4.87-4.43h-1.28a10.58,10.58,0,0,0-1.89.13v-1.37a9.7,9.7,0,0,0,1.93.13h9a11.19,11.19,0,0,0,2.07-.13v1.33a16.07,16.07,0,0,0-2.07-.09h-6.43a10.05,10.05,0,0,1-1,1.54h6.95a14.87,14.87,0,0,0,2.06-.09,10,10,0,0,0-.1,1.24,20.94,20.94,0,0,1-.93,5.61c-.37.75-.9,1-2.33,1-.48,0-1.17,0-1.82-.08a3.76,3.76,0,0,0-.42-1.37,14.3,14.3,0,0,0,2.49.24c.84,0,1-.17,1.26-1.43a25.15,25.15,0,0,0,.47-4h-1.41a12.29,12.29,0,0,1-1.87,3.17,21.68,21.68,0,0,1-2.58,2.58,15.71,15.71,0,0,1-1.7,1.17,3.76,3.76,0,0,0-1-1,13.47,13.47,0,0,0,4.12-3.19,10.47,10.47,0,0,0,1.72-2.75h-2.08a14.66,14.66,0,0,1-5.77,5.25,3,3,0,0,0-.91-1,12,12,0,0,0,5.32-4.26Zm.67-5.08a15.51,15.51,0,0,0-1.91.08,17,17,0,0,0,.08-1.89v-2.73a14.84,14.84,0,0,0-.08-1.85,12.65,12.65,0,0,0,2,.11H254a14.49,14.49,0,0,0,2.19-.11,14,14,0,0,0-.09,2v2.63a11.25,11.25,0,0,0,.09,1.87c-.47,0-1.12-.06-1.94-.06Zm-.59-3.66h7v-1.53h-7Zm0,2.63h7v-1.6h-7Z"/>
        <path class="cls-1" d="M266.68,187.34a9.14,9.14,0,0,0,1-2.88l1.68.3a4.37,4.37,0,0,0-.55,1.13c-.27.67-.55,1.24-.65,1.43l.44,0a29.41,29.41,0,0,0,6.61-.8l.13,1.43a6.81,6.81,0,0,0-.84.1,65,65,0,0,1-6.93.55,15.11,15.11,0,0,1-1.89,3c-.21.25-.63.74-.71.8s-.25.19-.28.21a0,0,0,0,1,0,0v0s0,0,.05.06l1-.73a5.62,5.62,0,0,1,3.17-1,2.54,2.54,0,0,1,2.77,2.33c1.54-.61,2.73-1.05,3.66-1.39a4.38,4.38,0,0,0,1.42-.6l.68,1.47a33.22,33.22,0,0,0-5.61,1.84c0,.55,0,.76,0,1.28,0,.28,0,.74,0,1.16s0,.75,0,.94a4.78,4.78,0,0,0,0,.76l-1.43,0a27.79,27.79,0,0,0,.13-3,5.74,5.74,0,0,0,0-.63c-2.86,1.34-3.95,2.33-3.95,3.59s1.3,2,4.26,2a17.43,17.43,0,0,0,5.61-.82l.19,1.62a6.49,6.49,0,0,0-.84.11,33,33,0,0,1-5.1.42c-3.76,0-5.59-1.08-5.59-3.24,0-1.15.72-2.25,2.14-3.32a17.09,17.09,0,0,1,3.13-1.68c-.17-1.15-.67-1.65-1.66-1.65a7.87,7.87,0,0,0-4.68,2.22,6.83,6.83,0,0,0-1.61,1.74l-1.18-1.17a20.8,20.8,0,0,0,4.7-6,2.79,2.79,0,0,0,.19-.31,2.35,2.35,0,0,1-.4,0l-3.08-.06h-.34a3.86,3.86,0,0,0-.46,0l0-1.45a28.93,28.93,0,0,0,4.49.23Z"/>
        <path class="cls-1" d="M280.83,198.89a13.4,13.4,0,0,0,1.62-3.49,22.56,22.56,0,0,0,1.09-4.85l1.41.38a31.58,31.58,0,0,1-1.2,5.08,16.69,16.69,0,0,1-1.57,3.7Zm7.37,1.34c0,.65.49.78,2.92.78a9.68,9.68,0,0,0,2.69-.25c.42-.13.63-.46.78-1.22a20.9,20.9,0,0,0,.29-3.47,5.47,5.47,0,0,0,1.43.55c-.21,2.61-.4,3.76-.8,4.54-.5,1-1.26,1.17-4.51,1.17-3.62,0-4.2-.25-4.2-1.8V190.47a14.85,14.85,0,0,0-.15-2h1.7a11.87,11.87,0,0,0-.15,2Zm5.44-11.71a26.94,26.94,0,0,0-6.8-3.38l.82-1.16a32.71,32.71,0,0,1,6.93,3.3Zm5.44,10.6a32.47,32.47,0,0,0-1.55-4.39,23.71,23.71,0,0,0-1.94-3.71l1.24-.66a34.74,34.74,0,0,1,3.61,8Z"/>
        <path class="cls-1" d="M312.14,184.55a15.73,15.73,0,0,0-.12,2.77c0,.46,0,.69,0,2.18a21,21,0,0,0,6.15-.79l.19,1.55a10.59,10.59,0,0,0-1.26.15,36.58,36.58,0,0,1-5.06.46c.06,2,.17,4.07.27,5.42a18.05,18.05,0,0,1,5.61,3c.44.31.44.33,1,.65l-1,1.47a9.2,9.2,0,0,0-2.19-1.83,21.72,21.72,0,0,0-2.83-1.62,2.69,2.69,0,0,1-.5-.23,6.29,6.29,0,0,1,.08.91,3.75,3.75,0,0,1-.53,2.12,4.43,4.43,0,0,1-3.73,1.45c-2.71,0-4.37-1.18-4.37-3.11s1.95-3.32,4.93-3.32a8.72,8.72,0,0,1,1.83.19.93.93,0,0,0,.19,0s0,0,.1,0a.65.65,0,0,0,0-.19v-.12c-.16-2.42-.31-6.47-.33-9.47a8.82,8.82,0,0,0-.11-1.7Zm-3.36,12.53c-2.14,0-3.44.76-3.44,2a1.48,1.48,0,0,0,.31.9,3.43,3.43,0,0,0,2.52.84,3.54,3.54,0,0,0,2.33-.69,2,2,0,0,0,.51-1.58c0-.31,0-1.15-.06-1.15A7.27,7.27,0,0,0,308.78,197.08Z"/>
        <path class="cls-1" d="M329.28,184.63a11.9,11.9,0,0,0-.48,2.16c-.34,2.13-.63,4.41-.7,5.48l.09,0,.14-.61a9.45,9.45,0,0,1,1.29-3.13c1.17-1.81,2.56-2.71,4.19-2.71a3.94,3.94,0,0,1,3.36,1.87,8.55,8.55,0,0,1,1.26,5.1,8.66,8.66,0,0,1-4.85,8.25,15.22,15.22,0,0,1-3.73,1.24,4.56,4.56,0,0,0-.84-1.43,11.09,11.09,0,0,0,4.26-1.32c2.46-1.41,3.61-3.61,3.61-7s-1.18-5.33-3.19-5.33c-1.6,0-2.94,1.19-4.14,3.65a11,11,0,0,0-1.13,4.68c0,.09,0,.19,0,.51l-1.51.06v-.23l0-.38-.05-2.18v-.49a52.48,52.48,0,0,1,.72-7.74,4.48,4.48,0,0,0,.06-.68Z"/>
        <path class="cls-1" d="M355.44,189c-.25,0-.33.06-.63.13-1.72.35-2.73.52-3.71.63v3.63a14.74,14.74,0,0,1,4.51-.76,7.11,7.11,0,0,1,3.72.89,4.32,4.32,0,0,1-2.12,8.06,3.09,3.09,0,0,1-3.23-2.37,7.71,7.71,0,0,1-.26-2.38,4.53,4.53,0,0,0,1.39-.54,6.51,6.51,0,0,0,0,.82c0,2.18.63,3.08,2.16,3.08a2.78,2.78,0,0,0,2.81-3c0-2.06-1.74-3.34-4.49-3.34a14.37,14.37,0,0,0-4.45.82V200c0,1.14-.51,1.68-1.54,1.68a5.53,5.53,0,0,1-3.46-1.34,2.54,2.54,0,0,1-1-2,3.81,3.81,0,0,1,1.65-2.79,11.44,11.44,0,0,1,3-1.72v-4l-.84.06c-.37,0-.73,0-1.34,0-.31,0-.88,0-1.11,0h-.86v-1.38a12.27,12.27,0,0,0,2.14.15c.57,0,1.38,0,2-.07v-2.08a14.56,14.56,0,0,0-.1-2h1.55a12.62,12.62,0,0,0-.1,2v2a21.78,21.78,0,0,0,4.28-.9Zm-5.69,6.19c-2.07,1-3.25,2.15-3.25,3.16,0,.44.29.86.9,1.26a4,4,0,0,0,1.87.6c.42,0,.48-.12.48-1Zm11.53-3.94a17.14,17.14,0,0,0-4.24-4.12l1.09-.82a17.91,17.91,0,0,1,4.24,4Z"/>
        <path class="cls-1" d="M367.54,195.59c0-.86,0-1.47.07-2.41a10.09,10.09,0,0,1-2.06,2.14,4.48,4.48,0,0,0-.78-1.18,14.43,14.43,0,0,0,4.77-5.73l1.24.74a9,9,0,0,0-.59.86,16.69,16.69,0,0,1-1.32,1.89v8.65A18.86,18.86,0,0,0,369,203h-1.55a23.71,23.71,0,0,0,.12-2.45Zm3.17-11-.82,1a19,19,0,0,1-4.05,3.65,4.19,4.19,0,0,0-.84-1.07,12.26,12.26,0,0,0,4.54-4.37Zm2.82,3a14.28,14.28,0,0,0-2,.1v-1.39a11.47,11.47,0,0,0,2,.13h2.79v-.84a10.29,10.29,0,0,0-.13-1.7h1.56a9.91,9.91,0,0,0-.11,1.7v.84h3.13a11.88,11.88,0,0,0,2-.13v1.39a14.41,14.41,0,0,0-2-.1h-3.15v2.77h3.93a15.06,15.06,0,0,0,2.12-.13v1.41a13.75,13.75,0,0,0-2.1-.13h-.86V194h.86a13.23,13.23,0,0,0,2.1-.13v1.43a15,15,0,0,0-2.1-.13h-.86v5.95c0,.73-.23,1.21-.69,1.38a6.47,6.47,0,0,1-1.87.21c-.51,0-1.2,0-1.93-.08a5.26,5.26,0,0,0-.34-1.43,20,20,0,0,0,2.23.25c1.13,0,1.25,0,1.25-.5v-5.78h-6.71a14.76,14.76,0,0,0-2.06.13v-1.43a12.33,12.33,0,0,0,2,.13h6.73v-2.48h-6.59a12.43,12.43,0,0,0-2,.13v-1.41a13.1,13.1,0,0,0,2,.13h3.53v-2.77Zm1.93,12.7a16.58,16.58,0,0,0-3.19-3.63l1-.78a26.08,26.08,0,0,1,3.3,3.53Z"/>
        <path class="cls-1" d="M387.6,187.84a18.66,18.66,0,0,0,4.53.36,17,17,0,0,0,.68-3.76l1.67.17a12.93,12.93,0,0,0-.33,1.35c-.3,1.21-.36,1.46-.57,2.22,4.12-.15,6.91-.44,8.27-.9l.11,1.51c-.36,0-.48,0-.92.11a71,71,0,0,1-7.79.6,29.14,29.14,0,0,1-2.1,5.4l0,0a10.78,10.78,0,0,1,6.11-1.76c3.31,0,5.44,1.51,5.44,3.86,0,2.86-2.8,4.73-7,4.73a15.9,15.9,0,0,1-5.19-.82,1.7,1.7,0,0,0,0-.34v-.13c0-.1,0-.48-.11-1.15a12.89,12.89,0,0,0,5.25,1c3.32,0,5.5-1.32,5.5-3.34,0-1.59-1.51-2.56-4-2.56a11.48,11.48,0,0,0-4.87,1.13,4.5,4.5,0,0,0-1.77,1.35l-1.51-.61a31.64,31.64,0,0,0,2.82-6.85c-1.35,0-2.27-.06-3.49-.14-.27,0-.46,0-.59,0h-.16Z"/>
        <path class="cls-1" d="M412.75,185.09a35.31,35.31,0,0,0-.27,4.43c-.08,2.52-.15,5.38-.15,6.32,0,.26,0,.78.05,1.26a3.28,3.28,0,0,0,1,2.52,4,4,0,0,0,2.63.82,6,6,0,0,0,5.63-3.65,12.5,12.5,0,0,0,1-3.3,5.84,5.84,0,0,0,1.52,1,12.69,12.69,0,0,1-2.34,4.77,7.35,7.35,0,0,1-5.92,2.62,5,5,0,0,1-3.94-1.47c-.86-1-1.16-2.1-1.16-4.3,0-1.41,0-1.93.19-8.55,0-.63,0-1,0-1.36a6.87,6.87,0,0,0-.08-1.12Z"/>
        <path class="cls-1" d="M429.11,187.61h.76c.29,0,.55,0,1.2-.06,2.5-.19,9.21-.57,11.92-.69a14.33,14.33,0,0,0,2.5-.23l.13,1.57a9.63,9.63,0,0,0-2.35.28,10.55,10.55,0,0,0-4,2.12,6.42,6.42,0,0,0-2.58,4.85,4.11,4.11,0,0,0,2.94,3.88,10.68,10.68,0,0,0,3.15.67H443l-.27,1.7-.65-.12a10.65,10.65,0,0,1-4.54-1.62,5.11,5.11,0,0,1-2.33-4.28c0-2.44,1.43-4.77,3.93-6.45a13.8,13.8,0,0,1,2-1.11,41.58,41.58,0,0,1-4.62.46,61.36,61.36,0,0,0-7.24.69Z"/>
        <path class="cls-1" d="M460.44,189c-.25,0-.33.06-.63.13-1.72.35-2.72.52-3.71.63v3.63a14.79,14.79,0,0,1,4.51-.76,7.11,7.11,0,0,1,3.72.89,4.2,4.2,0,0,1,2.16,3.71,4.25,4.25,0,0,1-4.28,4.35,3.09,3.09,0,0,1-3.23-2.37,7.71,7.71,0,0,1-.26-2.38,4.53,4.53,0,0,0,1.39-.54,6.51,6.51,0,0,0,0,.82c0,2.18.63,3.08,2.16,3.08a2.78,2.78,0,0,0,2.81-3c0-2.06-1.74-3.34-4.49-3.34a14.37,14.37,0,0,0-4.45.82V200c0,1.14-.51,1.68-1.53,1.68a5.55,5.55,0,0,1-3.47-1.34,2.54,2.54,0,0,1-1-2,3.81,3.81,0,0,1,1.65-2.79,11.44,11.44,0,0,1,3-1.72v-4l-.84.06c-.37,0-.73,0-1.34,0-.31,0-.88,0-1.11,0h-.86v-1.38a12.27,12.27,0,0,0,2.14.15c.57,0,1.39,0,2-.07v-2.08a14.56,14.56,0,0,0-.1-2h1.55a12.62,12.62,0,0,0-.1,2v2a21.78,21.78,0,0,0,4.28-.9Zm-5.69,6.19c-2.07,1-3.25,2.15-3.25,3.16,0,.44.29.86.9,1.26a4,4,0,0,0,1.87.6c.42,0,.48-.12.48-1Zm11.53-3.94a17.14,17.14,0,0,0-4.24-4.12l1.09-.82a17.91,17.91,0,0,1,4.24,4Z"/>
        <path class="cls-1" d="M476.28,184.63a11.9,11.9,0,0,0-.48,2.16c-.34,2.13-.63,4.41-.7,5.48l.09,0,.14-.61a9.45,9.45,0,0,1,1.29-3.13c1.17-1.81,2.56-2.71,4.19-2.71a3.93,3.93,0,0,1,3.36,1.87,8.55,8.55,0,0,1,1.26,5.1,8.66,8.66,0,0,1-4.85,8.25,15.22,15.22,0,0,1-3.73,1.24,4.56,4.56,0,0,0-.84-1.43,11.09,11.09,0,0,0,4.26-1.32c2.46-1.41,3.61-3.61,3.61-7s-1.18-5.33-3.19-5.33c-1.6,0-2.94,1.19-4.14,3.65a11,11,0,0,0-1.13,4.68c0,.09,0,.19,0,.51l-1.51.06v-.23l0-.38,0-2.18v-.49a52.17,52.17,0,0,1,.71-7.74,4.48,4.48,0,0,0,.06-.68Z"/>
        <path class="cls-1" d="M507.59,201.26a16.88,16.88,0,0,0-4.28-3c-.36-.19-.84-.4-1.41-.63a6.31,6.31,0,0,1,0,.76,3.67,3.67,0,0,1-.52,2.28,4.24,4.24,0,0,1-3.55,1.33,5.54,5.54,0,0,1-3.26-.84,2.77,2.77,0,0,1-1.13-2.21c0-1.38,1.09-2.48,2.94-2.9a9.51,9.51,0,0,1,2.18-.21,9.83,9.83,0,0,1,1.89.17c0-.06,0-.06,0-.25a1.84,1.84,0,0,1,0-.23c0-.19,0-.63,0-1.24,0-.27,0-.67,0-1.22-.76,0-1.81,0-2.48,0-1.26,0-2.25,0-3.55-.14-.23,0-.4,0-.53,0h-.16l0-1.39a25.67,25.67,0,0,0,4.81.34c.54,0,1.28,0,1.87,0L500.3,189c-.61,0-.94,0-1.42,0-1.54,0-3.24-.06-5.13-.21a2.62,2.62,0,0,0-.38,0,1.8,1.8,0,0,0-.29,0l0-1.43a25.54,25.54,0,0,0,5.38.42l1.82,0a17.18,17.18,0,0,0-.1-3h1.61a24.59,24.59,0,0,0-.14,3,29.51,29.51,0,0,0,6.21-.86l.11,1.43c-.36,0-.36,0-1.45.16a43,43,0,0,1-4.87.51c0,1.72,0,1.72,0,2.83a25.45,25.45,0,0,0,5.82-.86l.08,1.45c-.27,0-.48,0-1.22.15-1.45.23-3.11.4-4.66.5,0,1.18,0,1.18.13,3.21a18.57,18.57,0,0,1,5.86,3.07,7.45,7.45,0,0,0,.71.48Zm-7.1-4a7.68,7.68,0,0,0-2.14-.23c-2.08,0-3.44.76-3.44,1.87s1,1.74,2.87,1.74a3,3,0,0,0,2.31-.69c.3-.29.42-.88.42-1.89Z"/>
        <path class="cls-1" d="M522.63,185.83a7.33,7.33,0,0,0-.09-1.22h1.58a16.39,16.39,0,0,0-.11,2.63v.23c4,0,5.59-.07,6.28-.15v1.49a39.18,39.18,0,0,0-4-.1l-2.25,0v4.15a6,6,0,0,1,.51,2.48,6.74,6.74,0,0,1-2.82,5.48,13.06,13.06,0,0,1-3.31,1.7,4.68,4.68,0,0,0-.93-1.32,10.63,10.63,0,0,0,3.4-1.57,5.42,5.42,0,0,0,2.35-4.44,2.75,2.75,0,0,1-.56,1,3.51,3.51,0,0,1-6.09-2.18,3.49,3.49,0,0,1,3.72-3.46,3.21,3.21,0,0,1,2.43.94c0-.29,0-.38,0-1.15,0-.09,0-.3,0-.55v-1.09c-4.22.08-8.46.29-9.87.52l-.06-1.53c.38,0,.52,0,.84,0,.61,0,.61,0,4-.12,2-.09,3.65-.13,5.08-.17Zm-.91,6.32a2.69,2.69,0,0,0-1.4-.34A2.22,2.22,0,0,0,518,194a2,2,0,0,0,2.16,2.08,2.35,2.35,0,0,0,2.45-2.48A1.51,1.51,0,0,0,521.72,192.15Z"/>
        <path class="cls-1" d="M539.51,199.69a3.15,3.15,0,1,1-3.15-3.15A3.15,3.15,0,0,1,539.51,199.69Zm-5.1,0a2,2,0,1,0,2-2A2,2,0,0,0,534.41,199.69Z"/>
      </g>
    </g>
  </g>
</svg>
