<svg xmlns="http://www.w3.org/2000/svg" viewBox="0 0 122.69 141.67"><defs><style>.cls-1{fill:#fff;}.cls-2{fill:#231815;}.cls-3{fill:#2c8ac8;}</style></defs><g id="レイヤー_2" data-name="レイヤー 2"><g id="レイヤー_2-2" data-name="レイヤー 2"><polygon class="cls-1" points="122.69 87.04 122.69 106.26 61.34 141.67 61.34 122.52 61.34 122.46 122.69 87.04"/><polygon class="cls-1" points="100.34 74.14 77.98 87.04 61.34 96.65 61.34 115.85 111.24 87.04 116.97 83.73 122.69 80.44 122.69 61.23 100.34 74.14"/><polygon class="cls-1" points="100.34 48.32 77.99 61.23 77.98 61.23 61.34 70.83 61.34 87.04 61.34 90.04 61.34 90.05 66.55 87.04 94.62 70.84 111.26 61.23 116.97 57.93 122.69 54.63 122.69 35.41 100.34 48.32"/><polygon class="cls-2" points="61.34 122.52 61.34 141.67 0 106.26 0 87.05 61.34 122.46 61.34 122.52"/><polygon class="cls-3" points="61.34 0 0 35.41 22.35 48.32 44.7 61.23 44.71 61.23 61.34 70.83 77.98 61.23 77.99 61.23 100.34 48.32 122.69 35.41 61.34 0"/><polygon class="cls-2" points="44.71 87.04 22.35 74.14 0 61.23 0 80.45 5.72 83.75 11.44 87.04 61.34 115.85 61.34 96.65 44.71 87.04"/><polygon class="cls-2" points="44.71 61.23 44.7 61.23 22.35 48.32 0 35.41 0 54.64 5.71 57.93 11.41 61.23 28.07 70.84 56.14 87.04 61.34 90.05 61.34 90.04 61.34 87.04 61.34 70.83 44.71 61.23"/><polygon class="cls-3" points="116.97 83.73 111.24 87.04 61.34 115.85 11.44 87.04 5.72 83.75 0 87.04 0 87.05 61.34 122.46 122.69 87.04 116.97 83.73"/><polygon class="cls-3" points="116.97 57.93 111.26 61.23 94.62 70.84 66.55 87.04 61.34 90.05 56.14 87.04 28.07 70.84 11.41 61.23 5.71 57.93 0 61.23 0 61.23 22.35 74.14 44.71 87.04 61.34 96.65 77.98 87.04 100.34 74.14 122.69 61.23 116.97 57.93"/></g></g></svg>